<svg viewBox="0 0 330 200" xmlns="http://www.w3.org/2000/svg"><g><g><g><g><g><line x1="30.78125" y1="163.89747208146434" x2="25.78125" y2="163.89747208146434" style="visibility: inherit;" fill="rgb(0, 0, 0)" stroke="rgb(204, 204, 204)" stroke-width="1px"></line><line x1="30.78125" y1="150.6451438945226" x2="25.78125" y2="150.6451438945226" style="visibility: inherit;" fill="rgb(0, 0, 0)" stroke="rgb(204, 204, 204)" stroke-width="1px"></line><line x1="30.78125" y1="137.39281570758084" x2="25.78125" y2="137.39281570758084" style="visibility: inherit;" fill="rgb(0, 0, 0)" stroke="rgb(204, 204, 204)" stroke-width="1px"></line><line x1="30.78125" y1="124.1404875206391" x2="25.78125" y2="124.1404875206391" style="visibility: inherit;" fill="rgb(0, 0, 0)" stroke="rgb(204, 204, 204)" stroke-width="1px"></line><line x1="30.78125" y1="110.88815933369735" x2="25.78125" y2="110.88815933369735" style="visibility: inherit;" fill="rgb(0, 0, 0)" stroke="rgb(204, 204, 204)" stroke-width="1px"></line><line x1="30.78125" y1="97.6358311467556" x2="25.78125" y2="97.6358311467556" style="visibility: inherit;" fill="rgb(0, 0, 0)" stroke="rgb(204, 204, 204)" stroke-width="1px"></line><line x1="30.78125" y1="84.38350295981385" x2="25.78125" y2="84.38350295981385" style="visibility: inherit;" fill="rgb(0, 0, 0)" stroke="rgb(204, 204, 204)" stroke-width="1px"></line><line x1="30.78125" y1="71.1311747728721" x2="25.78125" y2="71.1311747728721" style="visibility: inherit;" fill="rgb(0, 0, 0)" stroke="rgb(204, 204, 204)" stroke-width="1px"></line><line x1="30.78125" y1="57.87884658593035" x2="25.78125" y2="57.87884658593035" style="visibility: inherit;" fill="rgb(0, 0, 0)" stroke="rgb(204, 204, 204)" stroke-width="1px"></line><line x1="30.78125" y1="44.626518398988615" x2="25.78125" y2="44.626518398988615" style="visibility: inherit;" fill="rgb(0, 0, 0)" stroke="rgb(204, 204, 204)" stroke-width="1px"></line><line x1="30.78125" y1="31.37419021204686" x2="25.78125" y2="31.37419021204686" style="visibility: inherit;" fill="rgb(0, 0, 0)" stroke="rgb(204, 204, 204)" stroke-width="1px"></line><line x1="30.78125" y1="18.121862025105106" x2="25.78125" y2="18.121862025105106" style="visibility: inherit;" fill="rgb(0, 0, 0)" stroke="rgb(204, 204, 204)" stroke-width="1px"></line><line x1="30.78125" y1="4.8695338381633295" x2="25.78125" y2="4.8695338381633295" style="visibility: inherit;" fill="rgb(0, 0, 0)" stroke="rgb(204, 204, 204)" stroke-width="1px"></line></g><g transform="translate(20.78125, 0)"><text x="0" y="163.89747208146434" dx="0em" dy="0.3em" style="text-anchor: end; visibility: inherit; font-family: Roboto, sans-serif; font-size: 12px; font-weight: 200;" fill="rgb(33, 33, 33)" stroke="none" stroke-width="1px">10</text><text x="0" y="150.6451438945226" dx="0em" dy="0.3em" style="text-anchor: end; visibility: hidden; font-family: Roboto, sans-serif; font-size: 12px; font-weight: 200;" fill="rgb(33, 33, 33)" stroke="none" stroke-width="1px">15</text><text x="0" y="137.39281570758084" dx="0em" dy="0.3em" style="text-anchor: end; visibility: inherit; font-family: Roboto, sans-serif; font-size: 12px; font-weight: 200;" fill="rgb(33, 33, 33)" stroke="none" stroke-width="1px">20</text><text x="0" y="124.1404875206391" dx="0em" dy="0.3em" style="text-anchor: end; visibility: hidden; font-family: Roboto, sans-serif; font-size: 12px; font-weight: 200;" fill="rgb(33, 33, 33)" stroke="none" stroke-width="1px">25</text><text x="0" y="110.88815933369735" dx="0em" dy="0.3em" style="text-anchor: end; visibility: inherit; font-family: Roboto, sans-serif; font-size: 12px; font-weight: 200;" fill="rgb(33, 33, 33)" stroke="none" stroke-width="1px">30</text><text x="0" y="97.6358311467556" dx="0em" dy="0.3em" style="text-anchor: end; visibility: hidden; font-family: Roboto, sans-serif; font-size: 12px; font-weight: 200;" fill="rgb(33, 33, 33)" stroke="none" stroke-width="1px">35</text><text x="0" y="84.38350295981385" dx="0em" dy="0.3em" style="text-anchor: end; visibility: inherit; font-family: Roboto, sans-serif; font-size: 12px; font-weight: 200;" fill="rgb(33, 33, 33)" stroke="none" stroke-width="1px">40</text><text x="0" y="71.1311747728721" dx="0em" dy="0.3em" style="text-anchor: end; visibility: hidden; font-family: Roboto, sans-serif; font-size: 12px; font-weight: 200;" fill="rgb(33, 33, 33)" stroke="none" stroke-width="1px">45</text><text x="0" y="57.87884658593035" dx="0em" dy="0.3em" style="text-anchor: end; visibility: inherit; font-family: Roboto, sans-serif; font-size: 12px; font-weight: 200;" fill="rgb(33, 33, 33)" stroke="none" stroke-width="1px">50</text><text x="0" y="44.626518398988615" dx="0em" dy="0.3em" style="text-anchor: end; visibility: hidden; font-family: Roboto, sans-serif; font-size: 12px; font-weight: 200;" fill="rgb(33, 33, 33)" stroke="none" stroke-width="1px">55</text><text x="0" y="31.37419021204686" dx="0em" dy="0.3em" style="text-anchor: end; visibility: inherit; font-family: Roboto, sans-serif; font-size: 12px; font-weight: 200;" fill="rgb(33, 33, 33)" stroke="none" stroke-width="1px">60</text><text x="0" y="18.121862025105106" dx="0em" dy="0.3em" style="text-anchor: end; visibility: hidden; font-family: Roboto, sans-serif; font-size: 12px; font-weight: 200;" fill="rgb(33, 33, 33)" stroke="none" stroke-width="1px">65</text><text x="0" y="4.8695338381633295" dx="0em" dy="0.3em" style="text-anchor: end; visibility: hidden; font-family: Roboto, sans-serif; font-size: 12px; font-weight: 200;" fill="rgb(33, 33, 33)" stroke="none" stroke-width="1px">70</text></g><line x1="30.78125" y1="0" x2="30.78125" y2="177" fill="rgb(0, 0, 0)" stroke="rgb(204, 204, 204)" stroke-width="1px"></line></g></g><g transform="translate(30, 0)" clip-path="url(#clip_0)"><clipPath id="clip_0"><rect width="299" height="177"></rect></clipPath><g><g><g><line x1="31.459136096452724" y1="0" x2="31.459136096452724" y2="177" fill="rgb(0, 0, 0)" stroke="rgb(66, 66, 66)" stroke-width="1px" opacity="0.25"></line><line x1="72.53144854612418" y1="0" x2="72.53144854612418" y2="177" fill="rgb(0, 0, 0)" stroke="rgb(66, 66, 66)" stroke-width="1px" opacity="0.25"></line><line x1="113.60376099579565" y1="0" x2="113.60376099579565" y2="177" fill="rgb(0, 0, 0)" stroke="rgb(66, 66, 66)" stroke-width="1px" opacity="0.25"></line><line x1="154.67607344546713" y1="0" x2="154.67607344546713" y2="177" fill="rgb(0, 0, 0)" stroke="rgb(66, 66, 66)" stroke-width="1px" opacity="0.25"></line><line x1="195.74838589513857" y1="0" x2="195.74838589513857" y2="177" fill="rgb(0, 0, 0)" stroke="rgb(66, 66, 66)" stroke-width="1px" opacity="0.25"></line><line x1="236.82069834481007" y1="0" x2="236.82069834481007" y2="177" fill="rgb(0, 0, 0)" stroke="rgb(66, 66, 66)" stroke-width="1px" opacity="0.25"></line><line x1="277.89301079448154" y1="0" x2="277.89301079448154" y2="177" fill="rgb(0, 0, 0)" stroke="rgb(66, 66, 66)" stroke-width="1px" opacity="0.25"></line></g><g><line x1="0" y1="163.89747208146434" x2="299.21875" y2="163.89747208146434" fill="rgb(0, 0, 0)" stroke="rgb(66, 66, 66)" stroke-width="1px" opacity="0.25"></line><line x1="0" y1="150.6451438945226" x2="299.21875" y2="150.6451438945226" fill="rgb(0, 0, 0)" stroke="rgb(66, 66, 66)" stroke-width="1px" opacity="0.25"></line><line x1="0" y1="137.39281570758084" x2="299.21875" y2="137.39281570758084" fill="rgb(0, 0, 0)" stroke="rgb(66, 66, 66)" stroke-width="1px" opacity="0.25"></line><line x1="0" y1="124.1404875206391" x2="299.21875" y2="124.1404875206391" fill="rgb(0, 0, 0)" stroke="rgb(66, 66, 66)" stroke-width="1px" opacity="0.25"></line><line x1="0" y1="110.88815933369735" x2="299.21875" y2="110.88815933369735" fill="rgb(0, 0, 0)" stroke="rgb(66, 66, 66)" stroke-width="1px" opacity="0.25"></line><line x1="0" y1="97.6358311467556" x2="299.21875" y2="97.6358311467556" fill="rgb(0, 0, 0)" stroke="rgb(66, 66, 66)" stroke-width="1px" opacity="0.25"></line><line x1="0" y1="84.38350295981385" x2="299.21875" y2="84.38350295981385" fill="rgb(0, 0, 0)" stroke="rgb(66, 66, 66)" stroke-width="1px" opacity="0.25"></line><line x1="0" y1="71.1311747728721" x2="299.21875" y2="71.1311747728721" fill="rgb(0, 0, 0)" stroke="rgb(66, 66, 66)" stroke-width="1px" opacity="0.25"></line><line x1="0" y1="57.87884658593035" x2="299.21875" y2="57.87884658593035" fill="rgb(0, 0, 0)" stroke="rgb(66, 66, 66)" stroke-width="1px" opacity="0.25"></line><line x1="0" y1="44.626518398988615" x2="299.21875" y2="44.626518398988615" fill="rgb(0, 0, 0)" stroke="rgb(66, 66, 66)" stroke-width="1px" opacity="0.25"></line><line x1="0" y1="31.37419021204686" x2="299.21875" y2="31.37419021204686" fill="rgb(0, 0, 0)" stroke="rgb(66, 66, 66)" stroke-width="1px" opacity="0.25"></line><line x1="0" y1="18.121862025105106" x2="299.21875" y2="18.121862025105106" fill="rgb(0, 0, 0)" stroke="rgb(66, 66, 66)" stroke-width="1px" opacity="0.25"></line><line x1="0" y1="4.8695338381633295" x2="299.21875" y2="4.8695338381633295" fill="rgb(0, 0, 0)" stroke="rgb(66, 66, 66)" stroke-width="1px" opacity="0.25"></line></g></g></g><g><g><line x1="0" y1="190.40212845534785" x2="299.21875" y2="190.40212845534785" fill="rgb(0, 0, 0)" stroke="rgb(153, 153, 153)" stroke-width="1.5px"></line></g></g><g><g><line x1="31.459136096452724" y1="0" x2="31.459136096452724" y2="177" fill="rgb(0, 0, 0)" stroke="rgb(153, 153, 153)" stroke-width="1.5px"></line></g></g><g><g><g><g><g><path stroke="rgb(0, 119, 187)" stroke-width="2px" d="M33.92347484343301,-64.48426982345305L34.74492109242644,15.321272357474053L35.56636734141987,61.16975581489086L36.3878135904133,94.72586366668077L37.20925983940673,109.40441563918624L38.03070608840015,119.49265846390708L38.85215233739358,126.86920510657697L39.673598586387016,132.08332064955957L40.49504483538044,136.96567300528773L41.31649108437387,140.66373097979263L42.137937333367304,143.6960634973144L42.95938358236073,145.79860877863376L43.78082983135416,148.79508108573913L44.602276080347586,150.22724492166438L45.42372232934102,151.58237515128442L46.24516857833445,150.22653211562098L47.066614827327875,152.6264615948472L47.88806107632131,154.7728216987054L48.70950732531474,154.3260136381942L49.530953574308164,155.8260128492478L50.352399823301596,157.01458406673135L51.17384607229503,157.37891642373384L51.99529232128845,157.752894411451L52.81673857028188,158.8872670928276L53.6381848192753,159.4137704077421L54.459631068268735,159.78742232460968L55.28107731726217,159.95155223530048L56.10252356625559,160.28337608689904L56.92396981524902,160.6472989595787L57.74541606424245,160.70344128237844L58.56686231323588,161.04283301090564L59.38830856222931,161.47975531100667L60.20975481122274,161.74429482193594L61.03120106021617,162.08647458261152L61.8526473092096,162.10849573952618L62.674093558203026,162.72766636776115L63.49553980719646,162.72358163525723L64.31698605618989,163.09170804144807L65.13843230518331,163.23340731090144L65.95987855417674,163.12719162739478L66.78132480317018,163.21063543272837L67.6027710521636,163.56179098865232L68.42421730115703,163.36070385398895L69.24566355015047,163.9003460547669L70.06710979914389,163.89304105666275L70.88855604813732,164.05328086628705L71.71000229713076,164.2263183248391L72.53144854612418,164.14875137784193L73.3528947951176,164.28964937241676L74.17434104411105,164.55112280628705L74.99578729310447,164.5796426310653L75.8172335420979,164.85697473556033L76.63867979109133,164.70949718732976L77.46012604008476,164.9158924521034L78.2815722890782,165.20112103205773L79.10301853807161,165.27901404990453L79.92446478706505,165.21033442932057L80.74591103605847,165.49935200310122L81.5673572850519,165.60947042607944L82.38880353404534,165.354649848614L83.21024978303875,165.12791180711298L84.03169603203219,165.51836774730103L84.85314228102561,165.3876537794949L85.67458853001905,165.63137530966787L86.49603477901248,165.5886802498142L87.31748102800591,165.73489648522332L88.13892727699933,165.55968774868805L88.96037352599276,165.64452936161732L89.78181977498619,165.76288549699052L90.60326602397963,165.80910667184602L91.42471227297305,165.96941220117643L92.24615852196649,165.9745029507203L93.0676047709599,166.11678358680481L93.88905101995334,166.24276573576975L94.71049726894677,166.1165788446434L95.5319435179402,166.48423004680532L96.35338976693363,166.406076677815L97.17483601592706,165.98404494651376L97.99628226492048,166.21135171624093L98.81772851391392,166.38185896610707L99.63917476290734,166.5751178726983L100.46062101190078,166.60513661231244L101.2820672608942,166.1040086870061L102.10351350988763,166.27559525666132L102.92495975888106,166.48517792718215L103.7464060078745,166.39521523253697L104.56785225686792,166.67445573619068L105.38929850586136,166.5706539880437L106.21074475485477,166.35905928344295L107.03219100384821,166.70162577931228L107.85363725284164,166.5402409301928L108.67508350183508,166.60904440714603L109.4965297508285,166.4879937638216L110.31797599982194,166.81818220581L111.13942224881535,166.67742323369043L111.96086849780879,166.59816526810096L112.78231474680221,166.70087505805384L113.60376099579565,166.6738035944914L114.42520724478908,166.8467374181223L115.2466534937825,166.74416159526265L116.06809974277593,166.72792124480623L116.88954599176937,166.64963138104162L117.71099224076279,166.7044770034858L118.53243848975623,166.50536398768725L119.35388473874964,166.93883600321664L120.17533098774308,166.80297567688456L120.9967772367365,166.62648287839878L121.81822348572994,166.9215188606521L122.63966973472337,166.95787196886448L123.46111598371681,166.66245177909843L124.28256223271022,166.90104211683143L125.10400848170366,166.9346425804295L125.92545473069708,166.7628259918028L126.74690097969052,166.7385476157508L127.56834722868395,166.81656196228585L128.3897934776774,166.90151984854137L129.2112397266708,166.94873187435078L130.03268597566424,167.08913444344867L130.85413222465766,166.9443589862123L131.6755784736511,166.85771766440755L132.4970247226445,166.9899027425585L133.31847097163796,166.8349811737685L134.1399172206314,167.20872661483324L134.9613634696248,167.1159632496346L135.78280971861824,166.98841141076562L136.60425596761166,167.07024508329908L137.4257022166051,167.05793527680524L138.24714846559854,166.77468334339676L139.06859471459197,167.0497430626684L139.8900409635854,167.18687986790792L140.71148721257882,167.19730907973414L141.53293346157224,167.02081628124836L142.35437971056567,166.96631947878285L143.1758259595591,167.30866353872375L143.99727220855252,167.10719219654763L144.81871845754594,167.06206550756724L145.6401647065394,167.08979416819093L146.46161095553282,166.97690287915034L147.28305720452624,167.1278382949956L148.10450345351967,167.23896273501379L148.9259497025131,167.26642851681297L149.74739595150652,167.0676744317171L150.56884220049994,167.10659566383046L151.3902884494934,167.1548415111709L152.21173469848682,167.15827662965657L153.03318094748025,167.13610886724362L153.85462719647367,167.038189032795L154.67607344546713,167.44680888868427L155.49751969446055,167.12694855128188L156.31896594345397,167.01016463349373L157.14041219244737,166.89297375906384L157.96185844144082,167.2662389407376L158.78330469043425,167.18507004830843L159.60475093942767,167.31226295647474L160.4261971884211,167.41166906735424L161.24764343741455,167.22696888864556L162.06908968640798,167.09486722396778L162.8905359354014,167.18596990274617L163.71198218439483,167.3110016436533L164.53342843338828,167.224089859981L165.3548746823817,167.13907889242438L166.1763209313751,166.99611325478753L166.99776718036853,167.20448263842604L167.81921342936198,167.2838922648758L168.6406596783554,167.1736499855283L169.46210592734883,167.38185254222049L170.28355217634225,167.37575324795566L171.1049984253357,167.10394159877532L171.92644467432913,167.03672045013118L172.74789092332256,167.1191076848047L173.56933717231598,167.06689843364862L174.39078342130944,167.0933253385548L175.21222967030283,167.0987168821382L176.03367591929626,167.0819280249037L176.85512216828968,167.00400720256582L177.67656841728314,167.23187006211404L178.49801466627656,167.01814452242618L179.31946091526999,167.0498391145466L180.1409071642634,167.23408683835535L180.96235341325686,167.1546342413285L181.7837996622503,167.25171741336447L182.6052459112437,167.16655478494758L183.4266921602371,167.13515593150478L184.2481384092306,167.19643450210643L185.069584658224,167.15636064745485L185.8910309072174,166.9340182432213L186.71247715621084,167.2296633965968L187.5339234052043,166.9345793884044L188.35536965419772,167.11360997861905L189.17681590319114,167.1230786716634L189.99826215218457,166.95884259837035L190.81970840117802,167.13916736125955L191.64115465017144,167.2214610717359L192.46260089916487,167.3197373092062L193.28404714815827,167.11901416060752L194.10549339715172,167.09551936566703L194.92693964614514,167.16254588287381L195.74838589513857,167.2709833979838L196.569832144132,167.21116329932195L197.39127839312545,167.15956574696907L198.21272464211887,167.34061595430663L199.0341708911123,167.2056049287922L199.85561714010572,167.1416697654544L200.67706338909917,167.1697826335908L201.4985096380926,167.2185062126412L202.319955887086,167.2691280801262L203.14140213607942,167.05742215756126L203.96284838507285,167.11609216136586L204.7842946340663,167.12290426167405L205.60574088305972,166.99948518124808L206.42718713205315,167.10979823566367L207.24863338104657,167.22685008763833L208.07007963004003,167.2225024763099L208.89152587903345,167.21359240076765L209.71297212802688,167.18308076335757L210.53441837702033,167.31962356356098L211.35586462601373,167.20944447623862L212.1773108750072,167.28830559591034L212.9987571240006,167.15348161879027L213.82020337299403,167.3358512756124L214.64164962198745,167.09123494636373L215.4630958709809,166.93223875579383L216.28454211997433,167.2991190152493L217.10598836896776,167.10953535683916L217.92743461796118,166.9871602086682L218.74888086695464,167.10049636956566L219.57032711594806,167.00715416541692L220.39177336494149,167.00351177708885L221.21321961393488,167.0324132816988L222.03466586292834,167.25036004866485L222.85611211192176,167.0274413331622L223.67755836091519,167.07544957848816L224.4990046099086,167.18373290505684L225.32045085890206,167.06636509295657L226.1418971078955,167.02933456623487L226.9633433568889,167.0169590400349L227.78478960588234,167.1044875778724L228.6062358548758,166.99677297952982L229.42768210386922,167.1243728443379L230.2491283528626,167.00346627883079L231.07057460185604,167.12239872547306L231.8920208508495,166.79261218476447L232.71346709984292,166.96094562896644L233.53491334883634,167.05390615328344L234.35635959782977,166.92609143558994L235.17780584682322,167.19927056019392L235.99925209581664,166.9267309388842L236.82069834481007,167.20201309408424L237.6421445938035,166.98910146767994L238.46359084279695,166.98226661824273L239.28503709179034,167.13312873133884L240.10648334078377,167.1012951167632L240.9279295897772,167.05358008243383L241.74937583877065,167.03160695145826L242.57082208776407,167.20262479288743L243.3922683367575,166.9170853081695L244.21371458575092,167.01879160876345L245.03516083474437,167.01755304507105L245.8566070837378,167.0656699806802L246.67805333273122,166.93386405468001L247.49949958172462,167.10437383222717L248.32094583071807,167.00327670275541L249.1423920797115,166.93576487079568L249.96383832870492,166.90172459070277L250.78528457769835,167.09207160877634L251.6067308266918,166.92231002480662L252.42817707568523,166.95914086472897L253.24962332467865,167.144571543248L254.07106957367208,166.7739680096724L254.8925158226655,166.7154724158571" style="fill: none;" fill="none"></path></g><g><path stroke="rgb(255, 112, 67)" stroke-width="2px" d="M38.85215233739358,-9.88931244914362L39.673598586387016,3.026773499803027L40.49504483538044,13.139762321561788L41.31649108437387,21.163289138882515L42.137937333367304,27.539870009930087L42.95938358236073,34.19616406097932L43.78082983135416,39.67089868165257L44.602276080347586,44.44197746418327L45.42372232934102,48.4879656736499L46.24516857833445,30.566363584330592L47.066614827327875,36.944794717873755L47.88806107632131,42.93860379898814L48.70950732531474,46.91147125234518L49.530953574308164,49.9889532079764L50.352399823301596,52.75919048210067L51.17384607229503,55.296689000018276L51.99529232128845,57.24021281395771L52.81673857028188,58.99557605389279L53.6381848192753,60.688364022870694L54.459631068268735,62.36612745595551L55.28107731726217,63.54667581392952L56.10252356625559,65.09503209028773L56.92396981524902,66.19623148615611L57.74541606424245,67.26683583114121L58.56686231323588,68.32783498830773L59.38830856222931,69.2312989545252L60.20975481122274,70.27879018440156L61.03120106021617,71.18080831708421L61.8526473092096,71.9146446664252L62.674093558203026,72.67408136898378L63.49553980719646,73.48085648140201L64.31698605618989,74.1162042680683L65.13843230518331,74.79731319164719L65.95987855417674,75.46355935091732L66.78132480317018,76.03580610897741L67.6027710521636,76.72549903724892L68.42421730115703,77.20899385986517L69.24566355015047,77.8499530983623L70.06710979914389,78.28319762260125L70.88855604813732,78.75123314819156L71.71000229713076,79.27402835507188L72.53144854612418,79.72462288172842L73.3528947951176,80.19680380416676L74.17434104411105,80.55313605078875L74.99578729310447,81.093453142395L75.8172335420979,81.57709962587154L76.63867979109133,81.82845222499826L77.46012604008476,82.21209353719715L78.2815722890782,82.6227810361484L79.10301853807161,82.92771036185486L79.92446478706505,83.34758850893991L80.74591103605847,83.53097682120703L81.5673572850519,84.01088233679631L82.38880353404534,84.37874080880064L83.21024978303875,84.61709101683817L84.03169603203219,84.856108532661L84.85314228102561,85.31228417897634L85.67458853001905,85.50920063998166L86.49603477901248,85.67714987667087L87.31748102800591,85.99170461164397L88.13892727699933,86.3467123534194L88.96037352599276,86.62813424578034L89.78181977498619,86.84699097790813L90.60326602397963,87.05137926396392L91.42471227297305,87.30461245775827L92.24615852196649,87.48536187105627L93.0676047709599,87.81334364752739L93.88905101995334,87.93534975427163L94.71049726894677,88.16825028206262L95.5319435179402,88.52017425301209L96.35338976693363,88.62649862680198L97.17483601592706,88.99303259395971L97.99628226492048,89.05528432174827L98.81772851391392,89.31905288997103L99.63917476290734,89.48528330357692L100.46062101190078,89.72724304008946L101.2820672608942,89.90824522148793L102.10351350988763,90.12501914446771L102.92495975888106,90.31052059805491L103.7464060078745,90.44638850743L104.56785225686792,90.76258117969427L105.38929850586136,90.86377941640625L106.21074475485477,90.92008603847127L107.03219100384821,91.14404868622894L107.85363725284164,91.32854917813819L108.67508350183508,91.44182973005357L109.4965297508285,91.75476674918353L110.31797599982194,91.80083120781674L111.13942224881535,92.04619825832386L111.96086849780879,92.10511344718594L112.78231474680221,92.21521923175915L113.60376099579565,92.46124347932756L114.42520724478908,92.44878706733543L115.2466534937825,92.72501204755031L116.06809974277593,92.89041338178659L116.88954599176937,92.8552482836465L117.71099224076279,93.14801440835741L118.53243848975623,93.21815250088123L119.35388473874964,93.43830340568351L120.17533098774308,93.60495846969823L120.9967772367365,93.69616731107884L121.81822348572994,93.82408819137456L122.63966973472337,93.8450275008191L123.46111598371681,94.04510861844254L124.28256223271022,94.20031834286709L125.10400848170366,94.18145173184656L125.92545473069708,94.425939149364L126.74690097969052,94.4704667779462L127.56834722868395,94.70393350628228L128.3897934776774,94.81317987931382L129.2112397266708,94.82952892005349L130.03268597566424,94.97465825263052L130.85413222465766,95.00068325625692L131.6755784736511,95.1833840392907L132.4970247226445,95.31082971555747L133.31847097163796,95.47808131228935L134.1399172206314,95.33803767389416L134.9613634696248,95.57960309216992L135.78280971861824,95.72834195322194L136.60425596761166,95.852309540426L137.4257022166051,95.98550821865993L138.24714846559854,96.05683937661804L139.06859471459197,96.13920133448154L139.8900409635854,96.23391859709696L140.71148721257882,96.23135047319599L141.53293346157224,96.38103974230583L142.35437971056567,96.37938158356661L143.1758259595591,96.5736995884989L143.99727220855252,96.57350748474252L144.81871845754594,96.75942347801451L145.6401647065394,96.81273732576977L146.46161095553282,96.9748627854237L147.28305720452624,97.03366675632157L148.10450345351967,96.98956377814818L148.9259497025131,97.30524080348745L149.74739595150652,97.2138600797985L150.56884220049994,97.33079060308492L151.3902884494934,97.45186652321938L152.21173469848682,97.55008209634556L153.03318094748025,97.71774823276223L153.85462719647367,97.73232789679847L154.67607344546713,97.69363415597554L155.49751969446055,97.780636936164L156.31896594345397,97.86980341129268L157.14041219244737,98.02493224992506L157.96185844144082,98.20855310884461L158.78330469043425,98.11895187258312L159.60475093942767,98.24069510050286L160.4261971884211,98.38107239279068L161.24764343741455,98.43713635747923L162.06908968640798,98.44343533854344L162.8905359354014,98.54584686213775L163.71198218439483,98.61255741921893L164.53342843338828,98.61171822912532L165.3548746823817,98.85287921844028L166.1763209313751,98.85527546003293L166.99776718036853,98.80933233008795L167.81921342936198,98.97528975414534L168.6406596783554,98.99337783941634L169.46210592734883,99.04534696087698L170.28355217634225,99.08555731030283L171.1049984253357,99.17984992250943L171.92644467432913,99.2554478060038L172.74789092332256,99.24220275753817L173.56933717231598,99.55902229469166L174.39078342130944,99.53184466852703L175.21222967030283,99.61615799612629L176.03367591929626,99.55037762565492L176.85512216828968,99.7943190640753L177.67656841728314,99.72932733007742L178.49801466627656,99.81409564025759L179.31946091526999,99.9404190261582L180.1409071642634,99.87899637773927L180.96235341325686,99.90678064734504L181.7837996622503,100.2043089230692L182.6052459112437,100.15469560030512L183.4266921602371,100.14323003926692L184.2481384092306,100.3329577754943L185.069584658224,100.24859389427495L185.8910309072174,100.3214821037321L186.71247715621084,100.4008108443897L187.5339234052043,100.30763041182526L188.35536965419772,100.51812557518886L189.17681590319114,100.58404749579651L189.99826215218457,100.51188725846879L190.81970840117802,100.63024339384195L191.64115465017144,100.83138613748747L192.46260089916487,100.79878916324836L193.28404714815827,100.73807426551078L194.10549339715172,100.74805355011809L194.92693964614514,100.96436237979296L195.74838589513857,100.99994201761785L196.569832144132,101.10643827371608L197.39127839312545,101.15540451014287L198.21272464211887,101.09310222873424L199.0341708911123,101.16904387684531L199.85561714010572,101.21629129018879L200.67706338909917,101.2255426026667L201.4985096380926,101.30912795813654L202.319955887086,101.37409947068637L203.14140213607942,101.33965223395167L203.96284838507285,101.54325188353391L204.7842946340663,101.4706872172454L205.60574088305972,101.51980511453253L206.42718713205315,101.65656276762132L207.24863338104657,101.71191898162853L208.07007963004003,101.74766039103773L208.89152587903345,101.70367874155255L209.71297212802688,101.825270308612L210.53441837702033,101.79796124303512L211.35586462601373,101.92141318331417L212.1773108750072,101.98011604697186L212.9987571240006,102.06216457239074L213.82020337299403,102.12333445270917L214.64164962198745,102.15146248693165L215.4630958709809,102.10963442166265L216.28454211997433,102.25113400431665L217.10598836896776,102.1321712255023L217.92743461796118,102.28842235450085L218.74888086695464,102.34899570210216L219.57032711594806,102.4125921561853L220.39177336494149,102.35128072573058L221.21321961393488,102.467190065891L222.03466586292834,102.51848176884235L222.85611211192176,102.50057567660367L223.67755836091519,102.51433637199432L224.4990046099086,102.61865882242833L225.32045085890206,102.62578688286213L226.1418971078955,102.55568923323439L226.9633433568889,102.69366017320556L227.78478960588234,102.69226489329085L228.6062358548758,102.72387101657607L229.42768210386922,102.82069130978752L230.2491283528626,102.86910145639328L231.07057460185604,102.98382784184344L231.8920208508495,102.95857125324254L232.71346709984292,102.99888270990859L233.53491334883634,103.05102371367755L234.35635959782977,103.08929280409166L235.17780584682322,103.11814881044354L235.99925209581664,103.13003902189055L236.82069834481007,103.05700926229714L237.6421445938035,103.10162788739555L238.46359084279695,103.24211639764759L239.28503709179034,103.28833251714107L240.10648334078377,103.41161257511179L240.9279295897772,103.29477304834154L241.74937583877065,103.32466034854343L242.57082208776407,103.49556191664635L243.3922683367575,103.49136596617824L244.21371458575092,103.5445888174173L245.03516083474437,103.5752040897486L245.8566070837378,103.54709627697416L246.67805333273122,103.62831572302342L247.49949958172462,103.64624203671015L248.32094583071807,103.66261129889783L249.1423920797115,103.65027621559393L249.96383832870492,103.77301029446761L250.78528457769835,103.76336466375292L251.6067308266918,103.92546990195883L252.42817707568523,103.75827896957108L253.24962332467865,103.94878523154799L254.07106957367208,103.81129960632974L254.8925158226655,103.92107173701031" style="fill: none;" fill="none"></path></g></g></g></g></g></g><g transform="translate(30, 177)" clip-path="url(#clip_1)"><clipPath id="clip_1"><rect width="299" height="23"></rect></clipPath><g><g><line x1="31.459136096452724" y1="0" x2="31.459136096452724" y2="5" style="visibility: inherit;" fill="rgb(0, 0, 0)" stroke="rgb(204, 204, 204)" stroke-width="1px"></line><line x1="72.53144854612418" y1="0" x2="72.53144854612418" y2="5" style="visibility: inherit;" fill="rgb(0, 0, 0)" stroke="rgb(204, 204, 204)" stroke-width="1px"></line><line x1="113.60376099579565" y1="0" x2="113.60376099579565" y2="5" style="visibility: inherit;" fill="rgb(0, 0, 0)" stroke="rgb(204, 204, 204)" stroke-width="1px"></line><line x1="154.67607344546713" y1="0" x2="154.67607344546713" y2="5" style="visibility: inherit;" fill="rgb(0, 0, 0)" stroke="rgb(204, 204, 204)" stroke-width="1px"></line><line x1="195.74838589513857" y1="0" x2="195.74838589513857" y2="5" style="visibility: inherit;" fill="rgb(0, 0, 0)" stroke="rgb(204, 204, 204)" stroke-width="1px"></line><line x1="236.82069834481007" y1="0" x2="236.82069834481007" y2="5" style="visibility: inherit;" fill="rgb(0, 0, 0)" stroke="rgb(204, 204, 204)" stroke-width="1px"></line><line x1="277.89301079448154" y1="0" x2="277.89301079448154" y2="5" style="visibility: inherit;" fill="rgb(0, 0, 0)" stroke="rgb(204, 204, 204)" stroke-width="1px"></line></g><g transform="translate(0, 8)"><text x="31.459136096452724" y="0" dx="0em" dy="0.95em" style="text-anchor: middle; visibility: inherit; font-family: Roboto, sans-serif; font-size: 12px; font-weight: 200;" fill="rgb(33, 33, 33)" stroke="none" stroke-width="1px">0</text><text x="72.53144854612418" y="0" dx="0em" dy="0.95em" style="text-anchor: middle; visibility: inherit; font-family: Roboto, sans-serif; font-size: 12px; font-weight: 200;" fill="rgb(33, 33, 33)" stroke="none" stroke-width="1px">50</text><text x="113.60376099579565" y="0" dx="0em" dy="0.95em" style="text-anchor: middle; visibility: inherit; font-family: Roboto, sans-serif; font-size: 12px; font-weight: 200;" fill="rgb(33, 33, 33)" stroke="none" stroke-width="1px">100</text><text x="154.67607344546713" y="0" dx="0em" dy="0.95em" style="text-anchor: middle; visibility: inherit; font-family: Roboto, sans-serif; font-size: 12px; font-weight: 200;" fill="rgb(33, 33, 33)" stroke="none" stroke-width="1px">150</text><text x="195.74838589513857" y="0" dx="0em" dy="0.95em" style="text-anchor: middle; visibility: inherit; font-family: Roboto, sans-serif; font-size: 12px; font-weight: 200;" fill="rgb(33, 33, 33)" stroke="none" stroke-width="1px">200</text><text x="236.82069834481007" y="0" dx="0em" dy="0.95em" style="text-anchor: middle; visibility: inherit; font-family: Roboto, sans-serif; font-size: 12px; font-weight: 200;" fill="rgb(33, 33, 33)" stroke="none" stroke-width="1px">250</text><text x="277.89301079448154" y="0" dx="0em" dy="0.95em" style="text-anchor: middle; visibility: inherit; font-family: Roboto, sans-serif; font-size: 12px; font-weight: 200;" fill="rgb(33, 33, 33)" stroke="none" stroke-width="1px">300</text></g><line x1="0" y1="0" x2="299.21875" y2="0" fill="rgb(0, 0, 0)" stroke="rgb(204, 204, 204)" stroke-width="1px"></line></g></g></g></g></svg>