<svg viewBox="0 0 330 200" xmlns="http://www.w3.org/2000/svg"><g><g><g><g><g><line x1="30" y1="177" x2="25" y2="177" style="visibility: inherit;" fill="rgb(0, 0, 0)" stroke="rgb(204, 204, 204)" stroke-width="1px"></line><line x1="30" y1="157.33333333333331" x2="25" y2="157.33333333333331" style="visibility: inherit;" fill="rgb(0, 0, 0)" stroke="rgb(204, 204, 204)" stroke-width="1px"></line><line x1="30" y1="137.66666666666666" x2="25" y2="137.66666666666666" style="visibility: inherit;" fill="rgb(0, 0, 0)" stroke="rgb(204, 204, 204)" stroke-width="1px"></line><line x1="30" y1="118.00000000000001" x2="25" y2="118.00000000000001" style="visibility: inherit;" fill="rgb(0, 0, 0)" stroke="rgb(204, 204, 204)" stroke-width="1px"></line><line x1="30" y1="98.33333333333334" x2="25" y2="98.33333333333334" style="visibility: inherit;" fill="rgb(0, 0, 0)" stroke="rgb(204, 204, 204)" stroke-width="1px"></line><line x1="30" y1="78.66666666666666" x2="25" y2="78.66666666666666" style="visibility: inherit;" fill="rgb(0, 0, 0)" stroke="rgb(204, 204, 204)" stroke-width="1px"></line><line x1="30" y1="59.00000000000001" x2="25" y2="59.00000000000001" style="visibility: inherit;" fill="rgb(0, 0, 0)" stroke="rgb(204, 204, 204)" stroke-width="1px"></line><line x1="30" y1="39.33333333333333" x2="25" y2="39.33333333333333" style="visibility: inherit;" fill="rgb(0, 0, 0)" stroke="rgb(204, 204, 204)" stroke-width="1px"></line><line x1="30" y1="19.666666666666675" x2="25" y2="19.666666666666675" style="visibility: inherit;" fill="rgb(0, 0, 0)" stroke="rgb(204, 204, 204)" stroke-width="1px"></line><line x1="30" y1="0" x2="25" y2="0" style="visibility: inherit;" fill="rgb(0, 0, 0)" stroke="rgb(204, 204, 204)" stroke-width="1px"></line></g><g transform="translate(20, 0)"><text x="0" y="177" dx="0em" dy="0.3em" style="text-anchor: end; visibility: hidden; font-family: Roboto, sans-serif; font-size: 12px; font-weight: 200;" fill="rgb(33, 33, 33)" stroke="none" stroke-width="1px">30</text><text x="0" y="157.33333333333331" dx="0em" dy="0.3em" style="text-anchor: end; visibility: inherit; font-family: Roboto, sans-serif; font-size: 12px; font-weight: 200;" fill="rgb(33, 33, 33)" stroke="none" stroke-width="1px">35</text><text x="0" y="137.66666666666666" dx="0em" dy="0.3em" style="text-anchor: end; visibility: hidden; font-family: Roboto, sans-serif; font-size: 12px; font-weight: 200;" fill="rgb(33, 33, 33)" stroke="none" stroke-width="1px">40</text><text x="0" y="118.00000000000001" dx="0em" dy="0.3em" style="text-anchor: end; visibility: inherit; font-family: Roboto, sans-serif; font-size: 12px; font-weight: 200;" fill="rgb(33, 33, 33)" stroke="none" stroke-width="1px">45</text><text x="0" y="98.33333333333334" dx="0em" dy="0.3em" style="text-anchor: end; visibility: hidden; font-family: Roboto, sans-serif; font-size: 12px; font-weight: 200;" fill="rgb(33, 33, 33)" stroke="none" stroke-width="1px">50</text><text x="0" y="78.66666666666666" dx="0em" dy="0.3em" style="text-anchor: end; visibility: inherit; font-family: Roboto, sans-serif; font-size: 12px; font-weight: 200;" fill="rgb(33, 33, 33)" stroke="none" stroke-width="1px">55</text><text x="0" y="59.00000000000001" dx="0em" dy="0.3em" style="text-anchor: end; visibility: hidden; font-family: Roboto, sans-serif; font-size: 12px; font-weight: 200;" fill="rgb(33, 33, 33)" stroke="none" stroke-width="1px">60</text><text x="0" y="39.33333333333333" dx="0em" dy="0.3em" style="text-anchor: end; visibility: inherit; font-family: Roboto, sans-serif; font-size: 12px; font-weight: 200;" fill="rgb(33, 33, 33)" stroke="none" stroke-width="1px">65</text><text x="0" y="19.666666666666675" dx="0em" dy="0.3em" style="text-anchor: end; visibility: hidden; font-family: Roboto, sans-serif; font-size: 12px; font-weight: 200;" fill="rgb(33, 33, 33)" stroke="none" stroke-width="1px">70</text><text x="0" y="0" dx="0em" dy="0.3em" style="text-anchor: end; visibility: hidden; font-family: Roboto, sans-serif; font-size: 12px; font-weight: 200;" fill="rgb(33, 33, 33)" stroke="none" stroke-width="1px">75</text></g><line x1="30" y1="0" x2="30" y2="177" fill="rgb(0, 0, 0)" stroke="rgb(204, 204, 204)" stroke-width="1px"></line></g></g><g transform="translate(30, 0)" clip-path="url(#clip_0)"><clipPath id="clip_0"><rect width="300" height="177"></rect></clipPath><g><g><g><line x1="0" y1="0" x2="0" y2="177" fill="rgb(0, 0, 0)" stroke="rgb(66, 66, 66)" stroke-width="1px" opacity="0.25"></line><line x1="37.5" y1="0" x2="37.5" y2="177" fill="rgb(0, 0, 0)" stroke="rgb(66, 66, 66)" stroke-width="1px" opacity="0.25"></line><line x1="75" y1="0" x2="75" y2="177" fill="rgb(0, 0, 0)" stroke="rgb(66, 66, 66)" stroke-width="1px" opacity="0.25"></line><line x1="112.5" y1="0" x2="112.5" y2="177" fill="rgb(0, 0, 0)" stroke="rgb(66, 66, 66)" stroke-width="1px" opacity="0.25"></line><line x1="150" y1="0" x2="150" y2="177" fill="rgb(0, 0, 0)" stroke="rgb(66, 66, 66)" stroke-width="1px" opacity="0.25"></line><line x1="187.5" y1="0" x2="187.5" y2="177" fill="rgb(0, 0, 0)" stroke="rgb(66, 66, 66)" stroke-width="1px" opacity="0.25"></line><line x1="225" y1="0" x2="225" y2="177" fill="rgb(0, 0, 0)" stroke="rgb(66, 66, 66)" stroke-width="1px" opacity="0.25"></line><line x1="262.5" y1="0" x2="262.5" y2="177" fill="rgb(0, 0, 0)" stroke="rgb(66, 66, 66)" stroke-width="1px" opacity="0.25"></line><line x1="300" y1="0" x2="300" y2="177" fill="rgb(0, 0, 0)" stroke="rgb(66, 66, 66)" stroke-width="1px" opacity="0.25"></line></g><g><line x1="0" y1="177" x2="300" y2="177" fill="rgb(0, 0, 0)" stroke="rgb(66, 66, 66)" stroke-width="1px" opacity="0.25"></line><line x1="0" y1="157.33333333333331" x2="300" y2="157.33333333333331" fill="rgb(0, 0, 0)" stroke="rgb(66, 66, 66)" stroke-width="1px" opacity="0.25"></line><line x1="0" y1="137.66666666666666" x2="300" y2="137.66666666666666" fill="rgb(0, 0, 0)" stroke="rgb(66, 66, 66)" stroke-width="1px" opacity="0.25"></line><line x1="0" y1="118.00000000000001" x2="300" y2="118.00000000000001" fill="rgb(0, 0, 0)" stroke="rgb(66, 66, 66)" stroke-width="1px" opacity="0.25"></line><line x1="0" y1="98.33333333333334" x2="300" y2="98.33333333333334" fill="rgb(0, 0, 0)" stroke="rgb(66, 66, 66)" stroke-width="1px" opacity="0.25"></line><line x1="0" y1="78.66666666666666" x2="300" y2="78.66666666666666" fill="rgb(0, 0, 0)" stroke="rgb(66, 66, 66)" stroke-width="1px" opacity="0.25"></line><line x1="0" y1="59.00000000000001" x2="300" y2="59.00000000000001" fill="rgb(0, 0, 0)" stroke="rgb(66, 66, 66)" stroke-width="1px" opacity="0.25"></line><line x1="0" y1="39.33333333333333" x2="300" y2="39.33333333333333" fill="rgb(0, 0, 0)" stroke="rgb(66, 66, 66)" stroke-width="1px" opacity="0.25"></line><line x1="0" y1="19.666666666666675" x2="300" y2="19.666666666666675" fill="rgb(0, 0, 0)" stroke="rgb(66, 66, 66)" stroke-width="1px" opacity="0.25"></line><line x1="0" y1="0" x2="300" y2="0" fill="rgb(0, 0, 0)" stroke="rgb(66, 66, 66)" stroke-width="1px" opacity="0.25"></line></g></g></g><g><g><line x1="0" y1="295" x2="300" y2="295" fill="rgb(0, 0, 0)" stroke="rgb(153, 153, 153)" stroke-width="1.5px"></line></g></g><g><g><line x1="37.5" y1="0" x2="37.5" y2="177" fill="rgb(0, 0, 0)" stroke="rgb(153, 153, 153)" stroke-width="1.5px"></line></g></g><g><g><g><g><g><path stroke="rgb(255, 112, 67)" stroke-width="2px" d="M45.72525,-2.3745483398437424L45.765750000000004,11.223768107096346L46.149750000000004,13.944889831542959L46.175250000000005,13.55402323404948L46.4775,16.21785786946615L46.977000000000004,28.917226155598964L47.09475,29.720835876464847L48.039750000000005,43.22570444742838L48.32025,52.69962056477864L48.403499999999994,51.57401479085287L48.474000000000004,51.3951764424642L48.924,52.97018127441405L49.40624999999999,61.39788029988607L49.961999999999996,67.88137435913086L50.142,68.82925211588541L50.307,69.69799626668294L50.476499999999994,70.55283126831054L51.967499999999994,83.62183481852215L52.04925,83.7632219950358L52.1175,83.7943862915039L52.36575,90.13260701497396L52.502250000000004,87.71988728841146L52.5615,71.45041402180989L52.7235,59.58425928751628L52.752750000000006,58.98179957071941L52.90575,57.44109497070312L52.960499999999996,57.310556030273446L53.12925,57.71017023722331L53.17725,61.94176254272462L53.308499999999995,62.285275014241535L53.70525,65.983203125L54.06675,73.84794921875L54.08775,73.84233754475912L54.783750000000005,76.14789530436198L54.839999999999996,79.95400568644206L54.8895,80.40031382242839L55.07175,80.19076131184896L55.095,80.33627471923829L55.429500000000004,81.660329691569L55.53075,81.96780141194662L55.532250000000005,81.96766637166341L55.56075,82.02373809814453L55.8645,85.78187917073568L56.01975,85.90018946329752L56.259,86.20050404866537L56.67825,90.21205571492513L56.704499999999996,90.19996210734048L57.417,93.71987711588542L57.41775,93.65822372436523L58.021499999999996,94.49983978271484L58.7265,97.1364262898763L59.04675,99.68865763346355L59.06625,99.8900026957194L59.11575,99.68607686360679L59.2665,99.62659912109376L59.691,100.03296534220378L59.823,102.436412302653L59.8425,102.4703374226888L59.94975,102.78957265218098L60.171749999999996,102.57677917480468L60.27825,102.434716796875L60.348749999999995,102.52432352701824L60.35925,102.49009831746419L60.87375,104.91167068481444L60.9015,104.93254191080727L61.271249999999995,105.06510645548504L61.596000000000004,107.01340764363607L61.7625,106.46867014567057L61.94025,106.73408432006836L61.94625,106.7354647318522L62.045249999999996,106.59146677652994L62.1555,106.75145950317383L62.300999999999995,109.40354563395181L62.322,109.74278182983399L62.572500000000005,108.8353411356608L62.581500000000005,108.88147989908855L62.6085,108.96654027303062L62.648999999999994,109.00892791748046L62.676750000000006,108.98498077392577L62.7045,108.99131266276041L62.796749999999996,108.9802843729655L63.04125,112.83625462849935L63.163500000000006,110.5559794108073L63.219,110.95436325073241L63.882,112.45102971394856L64.2345,112.49016138712565L64.2975,112.30722681681314L64.7415,113.40845031738282L64.764,113.32097422281902L64.90725,113.98477223714193L65.17125,114.05883433024088L65.3865,113.72750549316407L65.59275,115.6156837463379L65.67675,115.36107279459635L66.111,114.99269790649414L66.30975,115.17749303181965L66.39975,116.3601308186849L66.74175,116.38296763102214L67.04625,116.6969362894694L67.20150000000001,118.88244323730468L67.49175,118.27173105875652L67.64475,118.34960428873697L67.80975,118.05334091186525L67.8645,118.07497736612954L68.04975,118.88157297770182L68.223,119.40368372599285L68.87025,121.71570841471355L69.12075,120.5664405822754L69.99900000000001,121.78760986328125L70.053,121.74987360636393L70.1235,121.64253158569336L70.2645,121.73868026733398L70.3245,121.60197448730467L70.41975000000001,121.5104321797689L70.458,124.17279637654623L70.49775,123.418896484375L70.88175,122.33885930379232L70.99275,122.34579137166341L71.29875,123.30885365804038L71.39999999999999,123.11690139770508L71.51325,123.42699890136718L72.02024999999999,123.39563954671225L72.0795,123.44729995727538L72.7455,124.25223007202149L73.07775,125.52609507242839L73.24725,125.5703582763672L73.4055,125.48757858276366L74.22375,126.27742919921874L74.283,126.3030418395996L74.81175,127.38168360392253L75.384,128.23920440673828L75.504,128.54751637776693L75.62025,128.42539494832357L75.69000000000001,128.31010055541992L76.11825,127.9015286763509L76.4475,128.496156056722L76.74000000000001,128.4748046875L76.90799999999999,128.62549463907877L76.93275,128.57584482828776L77.04750000000001,130.86402740478516L77.05875,130.59478708902995L77.32950000000001,129.64976018269854L77.508,129.5079828898112L77.625,129.57269719441732L78.33375000000001,130.47599665323895L78.70275,130.82554092407227L78.88574999999999,130.90746536254883L79.05300000000001,130.92803649902345L79.48125,130.76439768473307L79.61925000000001,132.47282231648762L79.6845,132.1819755554199L79.81875,131.69276962280273L79.8435,131.6308161417643L80.20725,131.50447845458984L80.34150000000001,132.88838628133138L81.26774999999999,133.0871955871582L81.288,133.1387959798177L81.30075,133.13927612304687L81.6765,132.8268979390462L81.71175000000001,132.88080902099608L81.8025,132.93233439127604L81.9585,132.80082015991212L82.36275,133.8804972330729L82.36725,133.91458740234376L82.45125,133.78005727132162L82.58475,133.6985979715983L83.13225,134.21314646402993L83.1855,134.16052576700847L83.83274999999999,134.72577438354492L84.13875,134.55859451293946L84.86325000000001,135.19500935872395L84.98174999999999,135.28916244506837L85.12725,135.151451365153L85.61925000000001,135.69456837972007L85.89525,135.62364222208657L86.1975,136.37248560587565L86.42925,136.5742207845052L86.46074999999999,136.45238444010417L87.31875,136.87714614868165L87.4605,136.58154296875L87.49425000000001,136.54874318440756L87.8085,137.40584386189778L88.43925,137.13105189005535L88.512,137.15963541666667L88.671,137.86394551595052L89.10675,137.73327153523763L89.11725,137.74263432820638L89.31975,137.7855021158854L89.51775,137.7809107462565L89.66475,138.2758633931478L90.075,138.09890060424806L90.1635,138.02962493896484L90.22049999999999,138.84178721110027L90.4755,138.34003753662108L90.79950000000001,138.42412261962892L91.10024999999999,138.89992955525716L91.1385,139.66037139892578L91.155,139.6385398864746L91.17975,139.38922551472982L91.19850000000001,139.36943461100262L91.3935,139.4426414489746L91.47149999999999,139.44532725016276L91.47375,139.45722579956055L91.713,139.0921969095866L91.9275,140.2746846516927L92.055,139.86939875284833L92.61375,139.42511622111004L92.81099999999999,140.04110997517904L93.786,140.58524729410806L94.33425,139.57376556396486L94.53224999999999,141.04498443603515L94.64025000000001,141.16763102213542L94.6755,141.09163335164388L94.76325,140.97008209228517L94.85025,140.78774770100912L94.85549999999999,140.82248306274414L95.06925,140.63195622762044L95.5965,141.2837956746419L95.82675,141.12494328816732L96.25200000000001,141.76959559122722L96.30300000000001,141.64877955118814L96.36075,141.6310292561849L96.37125,141.65925267537435L96.4005,141.68857142130534L96.4245,141.60777231852214L96.8685,141.59825948079427L97.194,141.7050013224284L97.24575,141.64663391113282L97.2945,141.51648508707683L97.46325,141.67142130533853L97.47525,141.68501536051434L97.58324999999999,141.6679702758789L97.60275,141.62925872802734L97.6305,143.0446009318034L97.91775,142.06764450073243L97.932,142.06269302368165L98.29125,142.1607172648112L99.22275,142.31281763712565L99.24825,142.30575052897134L99.3075,143.27029825846353L99.621,142.87866643269857L100.47749999999999,143.5419692993164L100.6215,143.2026580810547L100.9875,143.88926289876304L101.30175,143.40464833577474L101.325,143.43096618652345L101.43525000000001,143.55553334554037L101.68125,143.33915379842122L102.25575,144.05321680704753L102.3195,143.88885777791342L102.42675,143.89212875366212L102.71549999999999,144.99329223632813L102.92025000000001,144.33165486653644L103.27350000000001,144.11664072672525L103.67625,145.08037821451822L103.78200000000001,144.8807436625163L104.18100000000001,144.54726918538412L104.193,144.52909876505532L104.65050000000001,144.78394978841146L104.697,144.72436701456706L104.8485,144.71297861735027L105.64574999999999,145.0338643391927L105.88875,144.46432444254557L105.906,144.6073471069336L106.11225,145.71448237101237L106.569,145.27320073445637L106.61325000000001,145.25334981282552L106.86675,146.1173075358073L106.9395,146.2525728861491L107.1255,146.07811584472657L107.448,145.64465154012044L107.92425,145.98091684977214L108.11025000000001,146.03724365234376L108.315,145.87968165079752L108.51299999999999,146.7906483968099L108.555,146.70393753051758L108.63225000000001,146.6536875406901L109.24799999999999,147.00428212483723L109.42349999999999,147.0227076212565L109.47225,146.9052525838216L109.94175,146.4986312866211L110.36925,146.7954948425293L110.51174999999999,146.7339314778646L110.68124999999999,146.6158612569173L110.87774999999999,147.88948618570964L111.3135,147.2865313212077L111.65175,147.8597173055013L111.73275000000001,148.2530746459961L111.93525,147.63457514444988L112.464,148.33223826090494L112.66575,147.82477188110352L112.71,147.91999028523762L112.77000000000001,147.7635836283366L112.82625,147.66594950358075L112.94775,147.52705307006835L113.0235,147.52937876383464L113.1465,147.4360959370931L113.4645,148.55838572184246L113.4795,148.42766672770182L114.036,147.71556930541993L114.18225,148.26702880859375L114.2055,148.4473976135254L114.24675,148.1989985148112L114.27300000000001,148.17298075358073L114.2805,148.1343142191569L114.42675,148.23826522827147L114.66,148.01966501871743L114.98249999999999,148.4556650797526L115.22925,148.1434819539388L115.27275,148.27225036621093L115.69425,148.1368199666341L115.71525,148.15339991251628L115.842,149.37296371459962L116.09775,149.06232604980468L116.22975000000001,148.81043090820313L116.35275,148.8128916422526L116.36325,148.82208938598632L116.67975,149.0137715657552L116.7225,148.84043986002604L116.81475,148.64622192382814L116.94675000000001,148.62637100219726L117.02175,148.60596491495767L117.9,149.1427350362142L118.46175000000001,149.4546780904134L118.95375,149.1414446512858L118.9545,149.1322919209798L118.998,149.13157170613607L119.38875,149.79517466227213L119.69024999999999,149.4744389851888L119.83574999999999,149.33482233683267L119.96175000000001,150.55900751749675L120.00299999999999,149.90235163370767L120.41775,149.82767435709636L120.5145,149.73938802083333L120.74625,150.47705307006837L120.909,150.30015029907227L121.47075,149.671147664388L121.50000000000001,148.39102579752603L121.64925000000001,149.99341379801433L121.96425,150.16539510091144L122.1645,150.09221827189128L122.2785,150.0756083170573L122.45775,150.45178553263347L122.69175,150.66324361165366L122.817,150.5543561299642L123.29475,149.84718017578126L123.60225000000001,150.3739273071289L123.61125,150.37034123738607L123.88125000000001,150.25678736368815L124.002,151.19243647257485L124.47749999999999,150.76970036824542L124.506,150.83861592610677L124.56,150.76561915079753L124.758,150.652335357666L124.839,151.2422213236491L125.199,150.9850296020508L125.3415,150.8905014038086L125.4285,150.85795669555665L125.61525,148.5114517211914L125.96100000000001,151.34783782958985L126.22125,151.20307464599608L126.44925,151.2131426493327L126.95700000000001,151.833997853597L127.86675,151.63880462646483L127.8675,151.63040211995443L127.97175,151.59101537068685L127.99425000000001,151.56348215738933L128.025,151.52883682250976L128.349,151.75478922526042L128.6265,151.83531824747723L128.93925,151.4578956604004L128.94825,151.59427134195965L129.27375,152.1841272989909L129.6975,151.7620964050293L129.72225,151.7412851969401L130.1205,152.0474515279134L130.54274999999998,152.04952214558918L130.58625,153.84425252278646L130.755,153.121741994222L130.94025,152.57157287597656L132.174,152.26665191650392L132.62924999999998,152.80253677368165L132.7005,152.71048431396486L132.88125,152.67636413574218L133.05675,152.6141555786133L133.20075,152.9013562520345L133.27875,152.996004486084L133.83225,152.66820170084637L133.96125,153.0122543334961L134.02724999999998,153.37570775349934L134.09924999999998,153.28746643066407L134.1315,153.3565320332845L134.41649999999998,153.05338160196942L134.52599999999998,153.11185404459636L135.16725,153.17863896687825L135.63375,153.0085782368978L135.67425,153.24854482014973L135.78075,153.26219889322917L136.38075,153.88471959431965L136.56075,153.21199391682944L136.86225,153.49025192260743L137.26874999999998,153.92763239542643L137.379,153.89762344360352L137.65575,153.5314692179362L137.6655,153.51659978230794L137.72925,153.47770818074545L138.0315,154.34433670043944L138.111,153.8508544921875L138.585,153.83247400919595L138.77775,153.69261728922527L139.0305,153.93879572550455L139.14225,154.23736979166668L139.3785,154.07082010904946L139.38225,154.0836939493815L139.641,154.3310577392578L139.665,154.51283696492513L140.04749999999999,154.15901641845704L140.139,154.22697168986002L140.34825,154.17696177164714L141.078,153.92217076619465L141.31725,155.35130208333334L141.426,154.87719065348307L141.4605,155.0147366841634L141.855,154.42076950073243L141.885,154.42229995727538L141.9075,154.39190088907878L141.91500000000002,154.34394658406575L141.972,154.30849100748696L141.9975,154.35432968139648L142.43625,154.79928741455078L142.6155,154.62429021199546L142.79025,154.60320892333985L143.2635,154.89443079630533L143.29049999999998,154.87024358113607L143.52075,154.84024963378906L143.5215,154.84338556925456L143.937,155.11066029866538L144.04275,154.9516278584798L144.26325,155.09026921590169L144.38025000000002,154.92756067911782L144.71775,155.62274805704752L144.81225,155.2674420674642L145.04325,155.17466939290364L145.0875,155.18148142496744L145.17675,155.0198532104492L146.157,155.15369313557943L146.21699999999998,154.4384447733561L146.60774999999998,155.40564829508463L146.89575,155.2683423360189L147.49200000000002,155.27953567504883L148.0155,156.42382202148437L148.08974999999998,156.322886912028L148.19174999999998,156.18375040690103L148.28324999999998,156.0749829610189L148.32675,156.06889114379882L148.3785,155.9249382019043L148.38150000000002,155.9229726155599L148.95525,156.0336306254069L149.136,156.05558217366536L149.28825,155.888042195638L149.37825,155.66956202189127L149.94225,156.03915227254234L150.02100000000002,155.88088506062826L150.15525,155.75097630818684L150.16574999999997,155.80190149943033L150.19275,155.75231170654297L150.2235,155.7588986714681L150.29399999999998,155.74377415974936L150.33075,153.83661524454754L150.498,156.1423230489095L150.61274999999998,155.89459915161132L151.23299999999998,157.3330332438151L151.41525000000001,156.57244135538735L152.00775,155.44171905517578L152.058,156.2064971923828L152.10375,155.89845530192056L152.83875,157.23870010375975L153.2325,156.84690322875977L153.52875,156.40952275594077L153.63075,159.76192779541014L153.64200000000002,158.74726511637368L154.13475,156.57332661946614L154.32975,156.4915672302246L154.51500000000001,156.92308095296224L154.62449999999998,156.9452725728353L154.63875000000002,156.86832962036132L154.68825,156.64521306355795L154.809,156.5266326904297L154.87725,156.3898068745931L154.91325,156.38437525431314L155.058,156.40100021362304L155.286,156.70769170125325L156.198,157.19457194010417L156.39675,156.98257369995116L156.48225,156.7670644124349L156.675,156.70036951700845L156.99225,157.25100377400716L157.02974999999998,157.30622024536132L157.15875,157.31252212524413L157.1865,157.23910522460938L157.37175,157.1435567220052L157.70999999999998,156.91154251098632L157.731,156.88066329956055L157.86374999999998,157.7415751139323L158.30325000000002,157.2273717244466L158.32049999999998,157.19010060628256L158.44725,157.1085962931315L158.44799999999998,157.11446304321288L158.49525,157.0975680033366L158.778,157.45659510294595L158.9325,157.41189676920573L159.31275,157.21952438354492L159.80775,157.70266850789386L160.30725,158.03863372802735L160.485,157.9311866760254L160.93800000000002,157.54246571858724L161.0385,156.87605692545574L161.19075,157.79836705525716L161.3385,157.6890744527181L161.56425,157.69686177571614L161.5815,157.67027384440104L161.7255,157.46807352701822L161.99325,158.4732983907064L162.05100000000002,158.2562136332194L162.20250000000001,157.75108795166017L162.26624999999999,157.76513214111327L162.38774999999998,157.71809310913085L162.57375000000002,157.57676595052084L162.8685,157.828391011556L162.97575,157.99250996907554L163.1325,157.9865982055664L163.38075,157.73512318929036L163.4985,155.98632151285807L163.833,158.040554300944L164.00625,158.23087107340496L164.2455,157.9628911336263L164.31300000000002,157.91342137654624L164.48175,158.49829584757487L164.712,158.33420689900717L165.171,158.45122680664062L165.477,158.19499537150065L165.50625,158.20771916707355L165.51375000000002,158.19516042073568L165.93525000000002,158.04595591227212L166.07399999999998,159.10942815144855L166.49099999999999,158.491498819987L166.58174999999997,158.38850809733074L166.6425,158.36315053304037L166.73325,158.31764195760093L166.929,158.51774164835612L167.07075,158.70543263753257L167.57250000000002,158.42516403198243L167.74724999999998,159.07499287923176L168.1395,158.777544148763L168.21675,158.767551167806L168.82275,158.74591471354165L168.97425,158.56745147705078L169.19925,158.5555679321289L169.57575000000003,159.0297393798828L170.02575,158.62283299764L170.09474999999998,158.91860122680663L170.40599999999998,158.64022318522134L170.75775,158.78107020060222L170.78775,158.8207270304362L171.159,158.9845759073893L171.7365,159.45337575276693L171.99824999999998,159.38995183308919L172.21499999999997,159.26188863118492L172.54875,159.11658528645833L172.55175,159.1249577840169L172.593,160.19483693440753L172.85925,159.50518620808919L172.989,159.31173350016275L173.32725000000002,159.1601582845052L173.6385,159.27215169270832L173.88825,159.26347910563152L173.92874999999998,159.1995900472005L173.97,159.23267491658527L173.97375000000002,159.23096440633137L174.18,159.06174392700194L174.21525,160.1100466410319L174.21675000000002,159.92391611735027L174.3765,159.58233922322592L174.4605,159.45970764160157L174.87374999999997,159.1863260904948L175.32075,159.3564468383789L175.5555,159.54181213378905L175.97324999999998,160.09606246948243L176.26575,159.66072260538735L176.43599999999998,159.62349650065104L176.44575,159.5855801900228L176.66475,159.4344851175944L176.778,159.63213907877605L176.799,159.4710360209147L176.95575,159.5176699320475L177.0375,159.62130584716797L177.07950000000002,159.75212987263998L177.117,159.7056760152181L177.462,159.52998860677084L177.51749999999998,161.72995986938477L177.71925000000002,160.22577616373698L177.75375,160.09381179809571L178.68525,160.01617863972982L178.70100000000002,159.97503636678059L178.70625,159.94945373535157L178.75349999999997,159.917524210612L179.055,159.79439748128254L179.19525,160.29421157836913L179.499,160.09780298868816L179.577,160.041401163737L180.90675000000002,160.78634338378907L181.74525,161.3867925008138L182.0445,160.3765411376953L182.71125,160.28100763956706L183.21824999999998,160.1827133178711L183.2955,161.0074343363444L183.45975,160.95070241292316L184.11749999999998,161.04803644816081L184.29,160.71093088785807L184.3275,160.59018987019857L184.49925,160.49324595133461L184.5915,160.52702102661132L185.39625,160.84594116210937L185.553,160.707554880778L185.88375,161.4462702433268L185.88674999999998,161.44636027018228L186.18975,160.9330121358236L186.21075000000002,160.9557139078776L186.492,160.77438481648764L186.49425,160.78557815551758L186.90375,160.74956741333008L186.945,160.71510213216146L187.79625000000001,161.07941080729165L188.08425,160.84832687377929L188.1855,160.74692662556967L188.50275000000002,161.84153315226237L188.59199999999998,161.56114451090494L188.78025,161.44262415568033L188.97224999999997,161.21712188720704L189.16875000000002,161.60410232543944L189.843,161.06679204305013L190.31025,161.02072830200194L190.42950000000002,161.119007619222L190.71525000000003,160.47456537882488L190.8195,161.7484903971354L191.328,161.3866424560547L192.033,161.44392954508461L192.45225,161.32695465087892L192.60375,161.5571383158366L192.99675000000002,161.42640431722003L193.06275,161.33742777506512L193.0725,161.34598032633463L193.3065,161.71953175862632L193.446,161.97714360555014L193.4715,162.0056521097819L193.8045,161.57842966715495L194.19075,161.02503458658853L194.19899999999998,160.9742744445801L194.35125,161.2765696207682L194.43824999999998,161.36331049601236L194.90025,161.9688461303711L195.13875000000002,161.46754659016926L195.48,161.64261881510419L196.53224999999998,162.68523483276368L196.59,162.29007695515952L197.10825,161.57854970296225L197.27175,162.45844217936198L197.298,162.8791976928711L197.6655,162.09735946655275L197.712,162.04733454386394L197.75324999999998,162.0501703898112L198.2055,162.71131261189777L198.67274999999998,162.25541661580405L198.72525,162.21025314331055L198.747,162.12310714721679L199.797,160.63281758626303L199.875,161.58465652465821L199.98375000000001,161.80394694010417L200.10825,161.98374557495117L200.373,162.01536000569664L200.39025,162.01797078450522L200.50275,161.9886220296224L201.162,161.89089787801106L201.3435,161.92975947062175L201.5505,162.89868850708007L201.60375,162.7342544555664L201.90675,162.40852228800455L202.24875,161.88582636515298L202.33575,161.97771377563475L202.6605,162.37731297810873L203.169,162.74553782145182L203.241,162.9295827229818L204.36075000000002,162.66106262207032L205.34175000000002,162.46495412190757L205.61100000000002,162.74690322875978L206.39325,162.617564646403L206.46675,163.07610143025718L206.47575,162.9837188720703L206.65425,162.94530741373697L207.26624999999999,163.09550221761066L207.333,163.14141591389972L207.55499999999998,163.01321767171225L207.68175,162.9594866434733L207.68325,162.9448122660319L207.83625,162.74622802734376L208.14525,163.42558568318685L208.1475,163.40905075073243L208.41975,163.1007687886556L208.45725000000002,162.96161727905275L208.6755,162.87363103230794L208.791,165.634499613444L208.81725,162.8145284016927L208.97324999999998,163.2812276204427L209.09025,163.114767964681L209.31975,162.97288564046224L209.41575,162.95963668823242L209.90475,163.11301244099934L210.6825,163.54470621744792L210.768,163.38967997233073L210.78150000000002,163.3587407430013L210.96375,163.1524892171224L211.74,163.4348284403483L211.7415,163.42959187825522L211.75125,163.45727513631186L211.86149999999998,163.287619527181L211.99425,163.1150230407715L212.09025,164.91080373128256L212.1315,163.9205233256022L212.253,163.38360315958658L212.30025,163.18069763183593L212.481,163.08942540486652L212.61675,163.16627833048503L212.82525,163.03967056274413L212.93175000000002,164.26334559122722L213.04875,163.69833704630534L213.11925,163.54695688883464L213.77775,163.91779251098632L214.0755,163.7264554341634L214.191,163.6444859822591L214.31699999999998,163.46528752644858L214.69275,163.78609822591147L214.72424999999998,163.81622721354165L215.17275,163.45020802815756L215.36625,163.43121236165365L215.59875,163.8864631652832L215.74800000000002,163.8845125834147L216.14100000000002,163.463351949056L216.23250000000002,163.3959518432617L216.708,163.82182388305665L217.33050000000003,163.80848490397133L217.4925,163.58322270711264L217.78575,163.55177332560223L217.85925,162.91462326049805L218.1855,163.73527806599935L218.38275000000002,163.77373453776042L218.39325000000002,163.8145917256673L219.31575,163.8161221822103L219.3915,163.81780268351238L220.15125,163.96612192789712L220.3125,163.90608901977538L220.923,164.16521631876628L221.17499999999998,163.9823267618815L221.187,164.2943598429362L221.73225000000002,164.19971160888673L221.84175,164.21483612060547L222.26774999999998,164.30492299397787L222.363,164.07786026000977L222.38475,164.16974767049152L222.40800000000002,164.08392206827799L222.8565,164.9266034444173L222.96375,164.41522089640299L223.0305,164.49385935465494L223.3575,164.27401377360025L223.41674999999998,164.33277130126953L223.78275,164.8181210835775L224.04375,164.13646774291993L224.05875,164.08846842447917L224.20725000000002,163.94744135538738L224.67749999999998,164.57014211018878L224.83725,164.53908284505206L224.922,164.41844685872397L225.015,164.38467178344726L225.29700000000003,164.91299438476562L225.37275,164.5220977783203L225.38250000000002,164.5163210550944L225.57525,164.4500462849935L225.78,164.37140782674155L225.9645,164.35343246459962L226.24800000000002,165.1635841369629L226.30725,164.92798385620117L226.42575000000002,164.70761311848958L226.605,164.68221054077148L227.24625,164.60319697062172L227.34224999999998,164.5512664794922L227.47650000000002,164.44383443196614L227.54325,164.45852381388346L227.862,164.04671096801758L228.07874999999999,164.4115447998047L228.12225,164.41471074422202L228.522,164.51509068806965L228.87375,164.48047536214193L229.07325,164.54913584391275L229.2345,164.65320688883463L230.07225,164.43897298177083L230.181,164.53864771525065L230.28825,164.85677261352538L230.33025,164.5482955932617L230.45175,164.49947102864584L230.745,164.74237848917642L230.859,164.72299270629884L230.86725,164.71112416585288L231.32774999999998,165.42403182983398L231.5355,165.02435760498048L231.552,164.97844390869142L231.6435,164.878529103597L231.684,164.89486897786458L231.924,164.84010264078776L232.2405,164.95398661295573L233.2695,164.72017186482748L233.40975,164.7069529215495L233.42100000000002,164.66132431030275L233.47424999999998,164.63046010335287L233.6655,165.2467389424642L233.673,165.31029790242513L234.00075,165.03586603800457L234.486,165.43647054036458L234.68475,165.02671330769857L235.19325,165.8019645690918L235.24575000000002,164.86341959635416L235.47975000000002,164.9767033894857L235.53224999999998,164.9634994506836L235.7265,164.97482782999674L235.79625,165.04374338785806L236.11875,165.6000493367513L236.25750000000002,165.52492192586263L236.268,165.53258921305337L236.40975,165.29592361450196L236.51925,165.27491734822593L236.73000000000002,165.0904073079427L236.8365,165.99115600585938L236.87175,165.27094116210938L236.89575,164.8857462565104L237.258,165.11438446044923L237.2625,165.11589991251628L237.38025,165.11597493489583L237.38175,165.11758041381836L237.4485,165.17827351888022L237.74175,165.51651941935222L238.041,165.20253575642903L238.06275000000002,165.23803634643554L238.41975,165.27419713338216L238.47975000000002,165.72917785644532L238.60725000000002,165.66587397257487L238.91175,165.2793436686198L238.91475,165.29121220906575L239.232,165.21746520996095L239.421,166.2458569844564L239.622,165.87977778116863L239.76525,165.62884292602538L239.865,165.63250401814778L239.88750000000002,165.58319931030275L240.14325,166.17887700398762L240.531,165.72346115112305L240.73425,165.43761088053387L240.75750000000002,165.41636454264324L241.0395,165.90141423543295L241.17975,165.61656926472983L241.62975,165.4966985066732L241.8135,165.32569249471027L242.493,165.44190216064453L242.7075,165.24207255045573L243.02775,165.70485560099283L243.03,165.70941696166992L243.12075000000002,165.59799372355144L243.39975,165.82183049519858L244.0515,165.5077267964681L244.55550000000002,165.79377212524415L245.0235,167.92202199300132L245.04524999999998,166.95258280436198L245.253,165.84024098714193L245.53650000000002,165.73701019287108L245.6355,165.6314837137858L245.76225,165.60587107340493L246.08025,166.04431686401367L246.087,166.0484430948893L246.10199999999998,166.10546010335287L246.39375,165.96231740315756L246.816,166.14565709431966L246.85350000000003,166.144411722819L246.93975,166.27346522013346L247.15425,166.0927963256836L247.434,165.89161631266276L247.62824999999998,165.47008056640624L247.75275000000002,165.88792521158854L248.148,165.67109553019205L248.46375,166.38017705281575L248.8065,165.8940320332845L249.25575,166.8382637023926L249.7035,166.08880513509115L250.01475000000002,166.18768463134765L250.071,165.9455273946126L250.14075,166.03306350708007L250.629,166.09101079305012L250.69050000000001,166.0266565958659L251.1345,166.38830947875977L251.15175,166.38308792114256L251.33625,166.2562100728353L251.5035,166.17287521362306L251.8275,165.96405792236328L251.8335,165.9558204650879L252.01575,166.23035736083983L253.04625,166.17263514200846L253.17899999999997,166.07299041748047L253.20675,166.06013158162435L253.25325,166.09170099894206L253.341,165.60980224609375L253.425,166.39681701660157L253.293,165.492662302653L253.35975000000002,166.47120920817056L253.39125,166.56282653808594L254.0145,166.23851979573567L254.07375,166.2516637166341L255.24675000000002,166.60549926757812L255.25725,166.62557525634767L255.45075000000003,166.4580352783203L255.6855,166.30161361694337L256.0575,166.436908976237L256.18874999999997,166.16106669108075L256.3575,166.35789540608724L257.244,166.4793716430664L257.36775,166.4413953145345L258.1995,162.13929697672526L258.34875,166.81506678263347L258.57675,166.8731190999349L258.63225,166.74990234375L258.66225000000003,166.78036142985025L259.4325,166.43554356892903L259.45125,166.4121966044108L259.49775,166.4167729695638L259.971,167.01750717163085L260.064,167.17763493855796L260.30174999999997,166.923429107666L260.349,166.86602198282878L261.2235,166.52118911743165L261.27825,166.5085553487142L261.31275,166.4916753133138L261.43275,166.5092305501302L261.459,166.50466918945312L261.6315,166.70355351765951L261.807,166.81595204671225L261.98775,166.61507212320964L262.05975,166.54945755004883L262.51125,166.94057922363282L262.5585,166.95606384277343L262.9875,166.85445353190104L263.03325,166.78747355143227" style="fill: none;" fill="none"></path></g></g></g></g></g></g><g transform="translate(30, 177)" clip-path="url(#clip_1)"><clipPath id="clip_1"><rect width="300" height="23"></rect></clipPath><g><g><line x1="0" y1="0" x2="0" y2="5" style="visibility: inherit;" fill="rgb(0, 0, 0)" stroke="rgb(204, 204, 204)" stroke-width="1px"></line><line x1="37.5" y1="0" x2="37.5" y2="5" style="visibility: inherit;" fill="rgb(0, 0, 0)" stroke="rgb(204, 204, 204)" stroke-width="1px"></line><line x1="75" y1="0" x2="75" y2="5" style="visibility: inherit;" fill="rgb(0, 0, 0)" stroke="rgb(204, 204, 204)" stroke-width="1px"></line><line x1="112.5" y1="0" x2="112.5" y2="5" style="visibility: inherit;" fill="rgb(0, 0, 0)" stroke="rgb(204, 204, 204)" stroke-width="1px"></line><line x1="150" y1="0" x2="150" y2="5" style="visibility: inherit;" fill="rgb(0, 0, 0)" stroke="rgb(204, 204, 204)" stroke-width="1px"></line><line x1="187.5" y1="0" x2="187.5" y2="5" style="visibility: inherit;" fill="rgb(0, 0, 0)" stroke="rgb(204, 204, 204)" stroke-width="1px"></line><line x1="225" y1="0" x2="225" y2="5" style="visibility: inherit;" fill="rgb(0, 0, 0)" stroke="rgb(204, 204, 204)" stroke-width="1px"></line><line x1="262.5" y1="0" x2="262.5" y2="5" style="visibility: inherit;" fill="rgb(0, 0, 0)" stroke="rgb(204, 204, 204)" stroke-width="1px"></line><line x1="300" y1="0" x2="300" y2="5" style="visibility: inherit;" fill="rgb(0, 0, 0)" stroke="rgb(204, 204, 204)" stroke-width="1px"></line></g><g transform="translate(0, 8)"><text x="0" y="0" dx="0em" dy="0.95em" style="text-anchor: middle; visibility: hidden; font-family: Roboto, sans-serif; font-size: 12px; font-weight: 200;" fill="rgb(33, 33, 33)" stroke="none" stroke-width="1px">-50k</text><text x="37.5" y="0" dx="0em" dy="0.95em" style="text-anchor: middle; visibility: inherit; font-family: Roboto, sans-serif; font-size: 12px; font-weight: 200;" fill="rgb(33, 33, 33)" stroke="none" stroke-width="1px">0</text><text x="75" y="0" dx="0em" dy="0.95em" style="text-anchor: middle; visibility: inherit; font-family: Roboto, sans-serif; font-size: 12px; font-weight: 200;" fill="rgb(33, 33, 33)" stroke="none" stroke-width="1px">50k</text><text x="112.5" y="0" dx="0em" dy="0.95em" style="text-anchor: middle; visibility: inherit; font-family: Roboto, sans-serif; font-size: 12px; font-weight: 200;" fill="rgb(33, 33, 33)" stroke="none" stroke-width="1px">100k</text><text x="150" y="0" dx="0em" dy="0.95em" style="text-anchor: middle; visibility: inherit; font-family: Roboto, sans-serif; font-size: 12px; font-weight: 200;" fill="rgb(33, 33, 33)" stroke="none" stroke-width="1px">150k</text><text x="187.5" y="0" dx="0em" dy="0.95em" style="text-anchor: middle; visibility: inherit; font-family: Roboto, sans-serif; font-size: 12px; font-weight: 200;" fill="rgb(33, 33, 33)" stroke="none" stroke-width="1px">200k</text><text x="225" y="0" dx="0em" dy="0.95em" style="text-anchor: middle; visibility: inherit; font-family: Roboto, sans-serif; font-size: 12px; font-weight: 200;" fill="rgb(33, 33, 33)" stroke="none" stroke-width="1px">250k</text><text x="262.5" y="0" dx="0em" dy="0.95em" style="text-anchor: middle; visibility: inherit; font-family: Roboto, sans-serif; font-size: 12px; font-weight: 200;" fill="rgb(33, 33, 33)" stroke="none" stroke-width="1px">300k</text><text x="300" y="0" dx="0em" dy="0.95em" style="text-anchor: middle; visibility: hidden; font-family: Roboto, sans-serif; font-size: 12px; font-weight: 200;" fill="rgb(33, 33, 33)" stroke="none" stroke-width="1px">350k</text></g><line x1="0" y1="0" x2="300" y2="0" fill="rgb(0, 0, 0)" stroke="rgb(204, 204, 204)" stroke-width="1px"></line></g></g></g></g></svg>