<svg viewBox="0 0 330 200" xmlns="http://www.w3.org/2000/svg"><g><g><g><g><g><line x1="50" y1="175.96333705976787" x2="45" y2="175.96333705976787" style="visibility: inherit;" fill="rgb(0, 0, 0)" stroke="rgb(204, 204, 204)" stroke-width="1px"></line><line x1="50" y1="156.31080838966093" x2="45" y2="156.31080838966093" style="visibility: inherit;" fill="rgb(0, 0, 0)" stroke="rgb(204, 204, 204)" stroke-width="1px"></line><line x1="50" y1="136.65827971955395" x2="45" y2="136.65827971955395" style="visibility: inherit;" fill="rgb(0, 0, 0)" stroke="rgb(204, 204, 204)" stroke-width="1px"></line><line x1="50" y1="117.00575104944701" x2="45" y2="117.00575104944701" style="visibility: inherit;" fill="rgb(0, 0, 0)" stroke="rgb(204, 204, 204)" stroke-width="1px"></line><line x1="50" y1="97.35322237934005" x2="45" y2="97.35322237934005" style="visibility: inherit;" fill="rgb(0, 0, 0)" stroke="rgb(204, 204, 204)" stroke-width="1px"></line><line x1="50" y1="77.70069370923308" x2="45" y2="77.70069370923308" style="visibility: inherit;" fill="rgb(0, 0, 0)" stroke="rgb(204, 204, 204)" stroke-width="1px"></line><line x1="50" y1="58.04816503912614" x2="45" y2="58.04816503912614" style="visibility: inherit;" fill="rgb(0, 0, 0)" stroke="rgb(204, 204, 204)" stroke-width="1px"></line><line x1="50" y1="38.39563636901918" x2="45" y2="38.39563636901918" style="visibility: inherit;" fill="rgb(0, 0, 0)" stroke="rgb(204, 204, 204)" stroke-width="1px"></line><line x1="50" y1="18.743107698912212" x2="45" y2="18.743107698912212" style="visibility: inherit;" fill="rgb(0, 0, 0)" stroke="rgb(204, 204, 204)" stroke-width="1px"></line></g><g transform="translate(40, 0)"><text x="0" y="175.96333705976787" dx="0em" dy="0.3em" style="text-anchor: end; visibility: hidden; font-family: Roboto, sans-serif; font-size: 12px; font-weight: 200;" fill="rgb(33, 33, 33)" stroke="none" stroke-width="1px">0</text><text x="0" y="156.31080838966093" dx="0em" dy="0.3em" style="text-anchor: end; visibility: inherit; font-family: Roboto, sans-serif; font-size: 12px; font-weight: 200;" fill="rgb(33, 33, 33)" stroke="none" stroke-width="1px">1e-4</text><text x="0" y="136.65827971955395" dx="0em" dy="0.3em" style="text-anchor: end; visibility: hidden; font-family: Roboto, sans-serif; font-size: 12px; font-weight: 200;" fill="rgb(33, 33, 33)" stroke="none" stroke-width="1px">2e-4</text><text x="0" y="117.00575104944701" dx="0em" dy="0.3em" style="text-anchor: end; visibility: inherit; font-family: Roboto, sans-serif; font-size: 12px; font-weight: 200;" fill="rgb(33, 33, 33)" stroke="none" stroke-width="1px">3e-4</text><text x="0" y="97.35322237934005" dx="0em" dy="0.3em" style="text-anchor: end; visibility: hidden; font-family: Roboto, sans-serif; font-size: 12px; font-weight: 200;" fill="rgb(33, 33, 33)" stroke="none" stroke-width="1px">4e-4</text><text x="0" y="77.70069370923308" dx="0em" dy="0.3em" style="text-anchor: end; visibility: inherit; font-family: Roboto, sans-serif; font-size: 12px; font-weight: 200;" fill="rgb(33, 33, 33)" stroke="none" stroke-width="1px">5e-4</text><text x="0" y="58.04816503912614" dx="0em" dy="0.3em" style="text-anchor: end; visibility: hidden; font-family: Roboto, sans-serif; font-size: 12px; font-weight: 200;" fill="rgb(33, 33, 33)" stroke="none" stroke-width="1px">6e-4</text><text x="0" y="38.39563636901918" dx="0em" dy="0.3em" style="text-anchor: end; visibility: inherit; font-family: Roboto, sans-serif; font-size: 12px; font-weight: 200;" fill="rgb(33, 33, 33)" stroke="none" stroke-width="1px">7e-4</text><text x="0" y="18.743107698912212" dx="0em" dy="0.3em" style="text-anchor: end; visibility: hidden; font-family: Roboto, sans-serif; font-size: 12px; font-weight: 200;" fill="rgb(33, 33, 33)" stroke="none" stroke-width="1px">8e-4</text></g><line x1="50" y1="0" x2="50" y2="177" fill="rgb(0, 0, 0)" stroke="rgb(204, 204, 204)" stroke-width="1px"></line></g></g><g transform="translate(50, 0)" clip-path="url(#clip_0)"><clipPath id="clip_0"><rect width="280" height="177"></rect></clipPath><g><g><g><line x1="12.589488885702979" y1="0" x2="12.589488885702979" y2="177" fill="rgb(0, 0, 0)" stroke="rgb(66, 66, 66)" stroke-width="1px" opacity="0.25"></line><line x1="35.906048324812936" y1="0" x2="35.906048324812936" y2="177" fill="rgb(0, 0, 0)" stroke="rgb(66, 66, 66)" stroke-width="1px" opacity="0.25"></line><line x1="59.22260776392289" y1="0" x2="59.22260776392289" y2="177" fill="rgb(0, 0, 0)" stroke="rgb(66, 66, 66)" stroke-width="1px" opacity="0.25"></line><line x1="82.53916720303285" y1="0" x2="82.53916720303285" y2="177" fill="rgb(0, 0, 0)" stroke="rgb(66, 66, 66)" stroke-width="1px" opacity="0.25"></line><line x1="105.8557266421428" y1="0" x2="105.8557266421428" y2="177" fill="rgb(0, 0, 0)" stroke="rgb(66, 66, 66)" stroke-width="1px" opacity="0.25"></line><line x1="129.17228608125276" y1="0" x2="129.17228608125276" y2="177" fill="rgb(0, 0, 0)" stroke="rgb(66, 66, 66)" stroke-width="1px" opacity="0.25"></line><line x1="152.4888455203627" y1="0" x2="152.4888455203627" y2="177" fill="rgb(0, 0, 0)" stroke="rgb(66, 66, 66)" stroke-width="1px" opacity="0.25"></line><line x1="175.80540495947267" y1="0" x2="175.80540495947267" y2="177" fill="rgb(0, 0, 0)" stroke="rgb(66, 66, 66)" stroke-width="1px" opacity="0.25"></line><line x1="199.1219643985826" y1="0" x2="199.1219643985826" y2="177" fill="rgb(0, 0, 0)" stroke="rgb(66, 66, 66)" stroke-width="1px" opacity="0.25"></line><line x1="222.43852383769257" y1="0" x2="222.43852383769257" y2="177" fill="rgb(0, 0, 0)" stroke="rgb(66, 66, 66)" stroke-width="1px" opacity="0.25"></line><line x1="245.75508327680254" y1="0" x2="245.75508327680254" y2="177" fill="rgb(0, 0, 0)" stroke="rgb(66, 66, 66)" stroke-width="1px" opacity="0.25"></line><line x1="269.0716427159125" y1="0" x2="269.0716427159125" y2="177" fill="rgb(0, 0, 0)" stroke="rgb(66, 66, 66)" stroke-width="1px" opacity="0.25"></line></g><g><line x1="0" y1="175.96333705976787" x2="280" y2="175.96333705976787" fill="rgb(0, 0, 0)" stroke="rgb(66, 66, 66)" stroke-width="1px" opacity="0.25"></line><line x1="0" y1="156.31080838966093" x2="280" y2="156.31080838966093" fill="rgb(0, 0, 0)" stroke="rgb(66, 66, 66)" stroke-width="1px" opacity="0.25"></line><line x1="0" y1="136.65827971955395" x2="280" y2="136.65827971955395" fill="rgb(0, 0, 0)" stroke="rgb(66, 66, 66)" stroke-width="1px" opacity="0.25"></line><line x1="0" y1="117.00575104944701" x2="280" y2="117.00575104944701" fill="rgb(0, 0, 0)" stroke="rgb(66, 66, 66)" stroke-width="1px" opacity="0.25"></line><line x1="0" y1="97.35322237934005" x2="280" y2="97.35322237934005" fill="rgb(0, 0, 0)" stroke="rgb(66, 66, 66)" stroke-width="1px" opacity="0.25"></line><line x1="0" y1="77.70069370923308" x2="280" y2="77.70069370923308" fill="rgb(0, 0, 0)" stroke="rgb(66, 66, 66)" stroke-width="1px" opacity="0.25"></line><line x1="0" y1="58.04816503912614" x2="280" y2="58.04816503912614" fill="rgb(0, 0, 0)" stroke="rgb(66, 66, 66)" stroke-width="1px" opacity="0.25"></line><line x1="0" y1="38.39563636901918" x2="280" y2="38.39563636901918" fill="rgb(0, 0, 0)" stroke="rgb(66, 66, 66)" stroke-width="1px" opacity="0.25"></line><line x1="0" y1="18.743107698912212" x2="280" y2="18.743107698912212" fill="rgb(0, 0, 0)" stroke="rgb(66, 66, 66)" stroke-width="1px" opacity="0.25"></line></g></g></g><g><g><line x1="0" y1="175.96333705976787" x2="280" y2="175.96333705976787" fill="rgb(0, 0, 0)" stroke="rgb(153, 153, 153)" stroke-width="1.5px"></line></g></g><g><g><line x1="59.22260776392289" y1="0" x2="59.22260776392289" y2="177" fill="rgb(0, 0, 0)" stroke="rgb(153, 153, 153)" stroke-width="1.5px"></line></g></g><g><g><g><g><g><path stroke="rgb(255, 112, 67)" stroke-width="2px" d="M59.300951403638294,173.954032121933L59.3298639373428,173.49057650688246L59.444115078594436,171.85368391706334L59.47302761229893,170.7907490697358L59.49634417173804,169.98921446378267L59.524790374253755,169.24402552203486L59.84469356975834,165.44342313848406L59.868942791575016,162.9792946771096L59.8927256822029,161.28110502859772L60.03309137002635,158.8244486583679L60.09837773645586,156.68778959464532L60.2989001476322,153.34913197126147L60.337139305112345,150.95778881369878L60.38237343042422,149.06056685269908L60.736785133898685,144.2855902486278L60.76429867403684,141.1397023285145L61.236225837084426,134.4104509837329L61.31783379512132,129.5363332393859L61.54120643454799,124.32047571107813L61.61721841831949,120.41133201216299L61.71561429915253,117.05648126765874L61.891887488512204,113.23522055183503L61.97769242724812,110.06222096097322L62.01639791591705,107.76135974607111L62.11432746556131,105.37619261397626L62.34702672876362,101.55784813612453L62.35262270302902,99.20943640243179L62.41930806302487,97.11627136806928L62.47153715616847,95.32455722633014L62.55967375084831,93.34534332371477L62.70330375699323,90.68432405211263L62.859524705235266,87.48505154204226L62.875846296842646,85.39804691415301L62.9845014638289,83.03115752484652L63.037663219350065,81.06564036744359L63.05678279809013,79.69018766917746L63.1859565373828,77.53973069030523L63.363162389120035,74.43151283717057L63.38974326688063,72.29388806529096L63.54130090323484,69.45649579084089L63.63829779050154,66.75897600273433L64.07245212725776,60.686503745043375L64.10975862236035,56.660298781116936L64.30841570878155,52.206563319853174L64.33686191129728,49.242496929509045L64.3620437954915,47.2057170337982L64.60080536414799,43.53421156751714L64.61666062456659,41.16865091677067L64.80459209364582,37.82133873874765L65.11516866537477,32.6267695397123L65.18838266201357,28.75892965184157L65.77595995987915,20.41031229977096L65.95036782448368,13.611901655436382L66.00213058643851,9.00182114037947L66.04596571818404,5.786071964126864L66.32576443145335,2.6446859423523237L66.6256153858403,2.2169482838959476L66.97116679672791,3.5334305204239356L67.08308628203565,4.810459196143129L67.18567914356773,6.014169272115523L67.2910699922325,7.177095761580497L68.21813639553152,11.41146894244761L68.26896649510877,14.130120034941944L68.31140263328795,15.908804155579023L68.46575825677486,17.503877788771003L68.55063053313322,18.745567792333908L68.58747069704701,19.612931728218403L68.68819823382397,20.46422432061635L68.70638515018648,21.034182120831673L68.80151671269805,21.682949065363072L68.83555888947915,22.180886941660386L68.94048340695514,22.81101349937235L68.9703286030372,23.282365300689627L69.05193656107409,23.818057620062117L69.29862575993987,24.88511713276591L69.52339739293289,26.18129472499104L69.53645466621879,26.996444322618277L69.96921000940867,28.687664848760402L70.00418484856733,29.796382266325246L70.03496270702696,30.543934331660438L70.14828118590104,31.29257272163935L70.16273745275329,31.779706701828665L70.37072116295015,32.6097658162716L70.43367587343575,33.26762629095253L70.43460853581331,33.66470364258534L70.45232912098705,33.94769135474216L70.64119325244383,34.587821305415076L70.73772380852174,35.20780920267401L70.88648345774327,35.937613381963104L71.14716259227251,36.98628008327039L71.16348418387989,37.65305126625211L71.60649881322297,39.044473772434635L71.60696514441176,39.8803430839639L71.98236175138143,41.18113154799522L72.42071306883669,42.85140651938895L72.61983648644669,44.243261920997035L72.63196109735503,45.10182568032279L72.66273895581465,45.67634293626348L72.75647152475989,46.20063621550792L73.0204149776106,47.01104536756647L73.10248926683627,47.64857758827796L73.1146138777446,48.05333487567732L73.18129923774045,48.41796721800123L73.31933326962,48.88607253460863L73.38555229842706,49.28524988130627L73.42938743017258,49.602616585993935L73.43591606681554,49.80460400596094L73.75581926232013,50.48294416850885L73.77307351630508,50.91947532847328L74.00297479237469,51.56987187983536L74.20489619711739,52.2939033450739L74.30842172102703,52.896859383785184L74.41894221276841,53.43665103956432L74.42267286227867,53.76650191146673L74.48422857919792,54.06268497760081L74.5527792639489,54.3491320111014L74.64324751457265,54.663400930110924L74.65630478785855,54.87241570923825L74.8120594049118,55.23976529053559L74.8176553791772,55.468800254359905L74.83444330197337,55.632069423526836L74.85962518616759,55.76872313639474L74.87687944015255,55.877176700248384L74.89413369413748,55.96865984187356L74.95149243035769,56.11104647067249L75.10351639790069,56.42608304518722L75.17952838167217,56.72867871013724L75.21403688964206,56.961529828292704L75.62627366052553,57.701399892210745L75.84544931925316,58.45528058690638L75.88462113911088,58.9623619603494L76.16068920286993,59.647076570013304L76.17467913853339,60.07694029315436L76.2637483955908,60.45548341777654L76.42789697404213,60.90245389843622L76.56173402522262,61.34756977590113L76.68997510213772,61.78226589547921L76.74220419528133,62.11081781567415L77.01220995358624,62.65337853503027L77.13578771861351,63.13439762301532L77.19174746126737,63.49288933266636L77.40439448335206,63.97057983127912L77.59372494599762,64.48714648171057L77.69025550207554,64.912966350504L77.87072567213426,65.38267932897075L77.96585723464582,65.77618649197944L78.06845009617791,66.13177632850817L78.10249227295901,66.38456370695891L78.21767607658822,66.66887684158951L78.3253985811969,66.96241864995334L78.72784239711594,67.58885774745346L78.8835970141692,68.13527625402848L79.42967083623314,69.04545062991126L79.46324668182547,69.62658689808895L79.50708181357099,70.02087476953274L79.59475207706204,70.348220445227L79.63205857216462,70.58307297362273L79.69128263313995,70.7848048399388L79.71506552376785,70.93019589313657L79.73978107677331,71.04269302493242L79.9785426454298,71.3518849294423L80.04755966136956,71.60649330673351L80.2378227863927,71.94795149918954L80.3007774968783,72.21469917744871L80.3711935063844,72.44362596057721L80.68643339000117,72.8851752910655L80.72327355391496,73.18521889480266L81.13737564955356,73.75380527522462L81.34396036618408,74.28470725877692L81.44935121484885,74.69903638088233L81.54774709568188,75.03644840270853L82.05651442264327,75.68891220707756L82.09335458655707,76.11239301173138L82.42211807464851,76.648683888551L82.77792877168935,77.26919742786154L82.85254176189449,77.70329595143723L82.92482309615573,78.0233308214966L82.96819189671247,78.25096907717534L83.23446700550711,78.604111276043L83.4391863973825,78.98005413396098L83.62105556100755,79.34963577356852L83.72551374729476,79.65337234523365L83.74090267652458,79.84764612004344L83.81225134840825,80.01986246874675L83.81924631624,80.12863508608392L83.98759187539035,80.32418744864394L84.09857869832052,80.5266957245776L84.17132636377055,80.7037223661946L84.61200933716972,81.14114203321687L84.84144428205056,81.57263660905281L84.95522909211343,81.91452759885289L85.05922094721186,82.19503787838352L85.32549605600649,82.55427702266857L85.4113009947424,82.83072779702533L85.45187180816646,83.02529025683589L85.53534509095847,83.20085535990404L85.55073402018829,83.31701140231179L85.77690464674767,83.54456247808476L85.86037792953968,83.73884545866893L86.43629694768569,84.24660878682184L86.44888788978281,84.5596815160581L86.4568155199921,84.75282153896626L86.69044744557199,85.02370089587168L86.71236501144475,85.20066945361437L86.7687910852874,85.34394587652372L86.8657879725541,85.49340887042432L87.11714048330771,85.74609179185511L87.1199384704404,85.89950666266353L87.172167563584,86.02514359100773L87.25517451518724,86.15371838722311L87.59559628299824,86.4465577010527L87.62870579740176,86.64303044112411L88.03114961332082,87.01052140260035L88.22141273834394,87.34720929421731L88.67188866670755,87.81982042037316L88.74556899453513,88.14705768089331L88.83603724515888,88.39679400769383L89.141950505,88.72539281363679L89.31356038247185,89.02163911673527L89.5014918515511,89.3069252561588L89.64558818888479,89.55987633286759L89.66517409881362,89.72271791141468L90.19865697878048,90.11792414196333L90.28679357346032,90.40345890161119L90.3077784769555,90.58627623103536L90.50317124505526,90.80245028489195L90.89535577482108,91.14290509767915L90.94058990013295,91.37123478540657L91.03945211215478,91.56062906355533L91.31039053283723,91.81662057224476L91.31691916948017,91.97362438207868L91.44282859045137,92.13334856020711L91.56594002428987,92.29287925066325L91.65734093729118,92.43565198797388L91.91242409755505,92.65159069538525L91.96745117783135,92.8090588927538L92.00289234817879,92.92147431004625L92.16144495236475,93.06880174559757L92.36290002591865,93.25786613457693L92.54989883262031,93.46392630799602L92.5736817232482,93.59928538337245L92.58394100940143,93.6855569891425L92.59932993863123,93.74489504199893L92.61098821835078,93.78623352732554L92.73223432743416,93.87051170879566L92.7807327710675,93.94478080013809L92.78213176463385,93.99002403586763L92.93089141385538,94.08954399660568L93.0642621338471,94.21373460319145L93.14353843594004,94.32639438105817L93.49095517158278,94.55959895237059L93.61360027423251,94.75738384734L94.21983081964937,95.15758454884673L94.56071891864916,95.55282156925014L94.68383035248766,95.84543283687364L94.75098204367231,96.05113294157762L94.77289960954506,96.18437019213532L94.82746035863258,96.28871023298706L94.88155477653132,96.37545113249395L94.8848190948528,96.42895074826419L95.01772348365571,96.5201046425977L95.3455543093696,96.71907371957583L95.48871798432575,96.90084727173539L95.75312776836525,97.12417376776267L95.78483828920243,97.27178926887197L95.82074579073866,97.37576041242586L95.82727442738161,97.44094114577338L95.84546134374412,97.48783973358861L95.86038394178514,97.52236657869369L96.1364520055442,97.66055262382898L96.33883974147568,97.82874863851397L96.37101659350166,97.94316230662358L96.4013281207725,98.02450581738054L96.5062526382485,98.11714265854282L96.513713937269,98.1758339587965L96.58086562845365,98.23899489326858L96.59299023936198,98.28192931165235L96.61024449334693,98.31485323809609L96.7888493386505,98.40848473429322L96.79770963123737,98.46831276145403L97.02108227066404,98.5958313249504L97.60026560713153,98.90617272929946L97.61612086755014,99.09870349222771L97.65296103146392,99.22890769411723L97.84788746837488,99.38438032015469L98.38043768596415,99.68603719443801L98.46997327421033,99.90164657196415L98.69754289433604,100.11846318519464L98.89293566243579,100.32303657515803L98.90739192928804,100.45127146221571L98.97594261403903,100.55420014450509L99.12889924395958,100.6737005375773L99.48610893456676,100.8789703502934L99.52574708561325,101.01684314846555L99.59243244560909,101.12427109051627L99.77196995329024,101.25492924104337L99.89927836782778,101.38000095824735L100.11892035774419,101.53506402078345L100.36934020612023,101.71855222351468L100.43509290373854,101.85225581339581L100.68318109617064,102.02106373034242L100.69064239519116,102.12500010497676L100.97510442034832,102.2879360553325L101.00401695405282,102.39586027945413L101.09821585418682,102.49365831018922L101.59392590786229,102.72440673701298L101.74501721302772,102.91470088545614L101.75574283036971,103.03254938251905L101.88398390728482,103.14703201907865L102.16797960125317,103.31195795265663L102.19549314139132,103.42018619094162L102.35311308319972,103.53807554829926L102.39834720851158,103.6239501900809L102.51399734332956,103.714082535866L102.71451975450591,103.83473853692752L103.01064005938261,104.004606219005L103.1262901942006,104.14432677599382L103.25359860873813,104.26959903595011L103.37671004257663,104.3846648788246L103.40282458914844,104.46214657115922L103.450856701593,104.5241449586545L103.83371460758319,104.68406913319218L103.94283610575822,104.81471210224531L103.97314763302907,104.90271145227743L104.26507095720673,105.04759953200835L104.53087973481257,105.21760898694163L104.6194826606812,105.3471421366741L104.72487350934597,105.45750514807196L104.8470522808069,105.56141994915774L105.11799070148936,105.70682942191578L105.32830606763014,105.85804583180368L105.3786698360186,105.96402881002054L105.5045792569898,106.06564504238249L105.83334274508125,106.22517788243437L105.95878583486368,106.35822852384062L105.9862993750018,106.44622884049575L106.02360587010439,106.51009081158881L106.05858070926305,106.55876969157698L106.13412636184577,106.61031564018218L106.18122581191278,106.65514421905853L106.25770412687307,106.70456759114352L106.45542855091671,106.79220502291534L106.46475517469234,106.84751460567465L106.81077291676874,106.98127219304989L106.90170749858129,107.08777531105112L106.91616376543352,107.155843366626L106.94181198081654,107.20407168521848L106.95813357242393,107.23770564361251L106.96279688431174,107.25922670194251L107.05373146612428,107.29826435832227L107.19876046583553,107.36319551357667L107.39928287701188,107.45923848805833L107.55270583812123,107.56030149631806L107.5797530470706,107.62857387491006L107.84183117516619,107.74319709612837L107.8548884484521,107.81562473401279L107.93369841935628,107.88110878901449L108.09271735473101,107.96467837639184L108.17479164395668,108.03758886625506L108.25126995891696,108.1025001109395L108.25779859555992,108.1432519757001L108.454590357226,108.22192526871774L108.48117123498659,108.2764297912688L108.5385299712068,108.32486151101708L108.62060426043246,108.37638041981718L108.66723737931068,108.42003054424197L109.21331120137464,108.59404582307758L109.5625932617725,108.79174229634633L109.86850652161363,108.99127247614675L109.86897285280241,109.11111184036584L109.89602006175178,109.19013297720176L110.1389786111073,109.30123269146058L110.32644374899775,109.41672450673735L110.4169119996215,109.50948612925247L110.4952556393369,109.58541578990258L110.52090385471992,109.63760150353085L110.77878500211648,109.73526989117508L110.83894172546938,109.80927734236086L110.98303806280309,109.89047968012763L111.08423193076882,109.96495089587567L111.43351399116669,110.09793798212212L111.45170090752919,110.18230136905876L111.54450081409686,110.2562212089774L111.74035991338538,110.34954465883249L111.86487034079022,110.43652773081368L111.93575268148513,110.50631118241168L112.04720583560406,110.5757727900956L112.1927011665041,110.65333934314764L112.27057847503073,110.71902862509404L112.56763144228499,110.83109304407171L112.7588272296857,110.94477516109009L112.76442320395108,111.01434112958289L112.93230243191269,111.0966489635152L113.0073817533066,111.16411458549469L113.30303572699452,111.2754328269759L113.32075631216824,111.34645172873594L113.35433215776057,111.39706598815553L113.47744359159907,111.45671680570982L113.52780735998753,111.50445905311236L113.751646330603,111.58602021025332L113.84024925647161,111.65581299481869L113.89434367437036,111.71039770258177L114.01046014037712,111.77036485567098L114.2254388184057,111.85650180255142L114.38725574091313,111.94574369359975L114.52902042230292,112.0320600696923L114.84472663710848,112.15638177667424L115.41038636910129,112.35939441511859L115.41085270029006,112.48130952739133L115.4756727355308,112.56905053681406L115.48966267119425,112.6248386558558L115.50878224993433,112.6626104076711L115.71023732348824,112.73042199820749L115.88277986333766,112.80958839334025L116.07723996905983,112.90024633562574L116.08283594332521,112.95588111865085L116.28522367925669,113.03393694183502L116.54870080091864,113.13857539154128L116.56408973014844,113.20472160887627L116.8117115913918,113.29835010721824L117.07425605067617,113.41134380846484L117.10130325962554,113.484969484899L117.20622777710153,113.55172831190491L117.32141158073074,113.616503886244L118.08852638627745,113.81814099468204L118.37158941786825,113.99838557946214L118.41589088080255,114.11576840278123L118.52827669729908,114.20958455518098L118.6373981954741,114.2885148641525L118.72693378372028,114.35440467867913L118.77543222735363,114.40395937426543L119.11958464467489,114.50445098496996L119.19979360914543,114.58114987496808L119.24083075375826,114.6355450477688L119.28559854788136,114.67731527040505L119.30565078899899,114.7064635138202L119.48285664073623,114.75998160749342L119.55094099429843,114.8058928077708L119.9496541607072,114.91378901133574L120.23971216012974,115.03648268773016L120.26489404432398,115.11511387271285L120.33111307313105,115.17545690396086L120.70417802415682,115.28543462168989L120.81609750946453,115.37342355818843L121.00356264735498,115.4629347122021L121.25631415167493,115.56588291745729L121.32486483642592,115.64095572005127L121.49694104508654,115.71929684982464L121.50300335054071,115.767472909679L121.5426415015872,115.80402684636044L121.73057297066642,115.86212791517589L121.78000407667733,115.90647629301564L122.07472538798768,115.98941232089466L122.19457250350472,116.06196326575795L122.35172611412432,116.1352817106329L122.42120946125286,116.19240964355085L122.56810378571926,116.25438318137745L122.57043544166318,116.29200428446431L122.73131970179303,116.34480180466433L122.74624229983407,116.37927607614404L122.98407120611297,116.44441367042232L123.04096361114442,116.49409357343298L123.17107001281465,116.54808414734423L123.62481025949972,116.66423230399883L123.77356990872123,116.76118785924282L123.84118793109467,116.83172247538474L123.86263916577863,116.87796234145546L124.10792937107807,116.95036977518974L124.12658261862937,116.99719797364062L124.14057255429283,117.02783441226049L124.14523586618066,117.04706278194885L124.18067703652811,117.06502638972049L124.1965322969467,117.07867810082845L124.46933604238427,117.13614495817198L124.58078919650323,117.19066668631872L124.68944436348947,117.24286996378396L124.98369934361105,117.32672795495787L125.0004872664072,117.38003068887973L125.14365094136335,117.43743726684694L125.14411727255212,117.47196357642346L125.40246475113746,117.53835182051462L125.46821744875575,117.58976589125642L125.60531881825773,117.64470773944379L125.67806648370774,117.69042535463365L125.88791551865972,117.75452795875312L125.94667324844629,117.80322767436283L126.0903032545912,117.85741258239736L126.11781679472935,117.8946982815419L126.17331020619444,117.92668784533979L126.78280506993278,118.05075001387297L126.82011156503535,118.13155899242071L127.06307011439087,118.22141566964885L127.24214129088324,118.30568265423882L127.61287458596509,118.41869901091809L127.93837375573506,118.54093233036653L127.98454054342449,118.62195951634706L128.04796158509888,118.68112284155916L128.1048539901303,118.72606967969429L128.13190119907966,118.75752884282339L128.16407805110566,118.78173733175443L128.1659433758608,118.79657357345425L128.52268673527917,118.86438302059669L128.63507255177566,118.92353625807333L128.72973778309847,118.97454443622014L128.7856975257523,119.01430762847394L129.13637857971653,119.09530702154152L129.18534335453867,119.15185237935935L129.26881663733067,119.1993031076141L129.2753452739736,119.22882824592932L129.29213319676978,119.24926130119286L129.31125277550984,119.26461431491919L129.35508790725538,119.28091161148315L129.37793813550573,119.29438258811757L129.48192999060413,119.31923973025647L129.55327866248783,119.34564133775348L129.9389345556107,119.42327727795195L130.05225303448478,119.48792146084756L130.42065467362272,119.58512835949668L130.4518988632711,119.64838511503602L130.48034506578682,119.69082794075219L130.93734963079336,119.78804764665536L131.18217350490403,119.88453632338974L131.36637432447301,119.97100941970982L131.4297953661474,120.0327081773817L131.43679033397913,120.0708095876126L131.74316992500903,120.14089863380228L131.8644160340924,120.20156147774509L131.9795998377216,120.25559168606271L132.0476841912838,120.29841268978376L132.05654448387065,120.32545741458722L132.08732234233028,120.34638350456326L132.1624016637242,120.37038529936447L132.2048378019034,120.39124728003557L132.22722169896494,120.40717108520303L132.3172236183999,120.43040445603813L132.4589882997897,120.46584116834592L133.02604702534887,120.57246765827513L133.14962479037612,120.65491569713473L133.2027865458973,120.71231651529509L133.32263366141433,120.76460685441097L133.5198917542692,120.8252701833494L133.5432083137083,120.86512284244174L133.62341727817883,120.90090611982636L133.6406715321638,120.92492475722825L133.755855335793,120.95634385708354L133.96617070193375,121.00614771337763L133.9792279752197,121.03794725002105L134.0617685956341,121.0691343030477L134.33503867226048,121.12779249101796L134.34576428960247,121.16455000907233L134.42457426050666,121.19808269069685L134.42504059169545,121.21826864747959L134.45441945658874,121.23465622338499L134.63022631475962,121.27000979647124L134.72629053964874,121.30512981360258L134.9627204523613,121.36032061220492L135.27049903695757,121.43760900439189L135.58107560868652,121.5282863604903L135.69159610042792,121.59839661395706L135.97326013845236,121.68032407153976L136.03574851774917,121.73829336528216L136.13041374907195,121.78640856308928L136.22228099326205,121.8281903379325L136.3626466810855,121.87294639898433L136.37337229842748,121.90130315664594L136.46290788667366,121.93084550768629L136.6293881210689,121.97180637825909L136.66529562260513,122.00138415261613L136.75949452273915,122.03223565324706L136.79913267378564,122.0562534216934L136.87467832636833,122.08114932428784L136.99032846118632,122.11210642970428L137.17359661837773,122.15599581350669L137.2402819783736,122.19151747127471L137.33774519682908,122.22623958672703L137.49210082031598,122.268258397464L137.56531481695478,122.30349506648739L137.77329852715164,122.35304308116667L137.88102103176033,122.39744161911862L138.02978068098184,122.44428708122284L138.07175048797225,122.47808654284455L138.17667500544823,122.51257380216113L138.3198386804044,122.55260311201314L138.60569969912785,122.61507954803625L138.79596282415102,122.67804754365045L138.8141497405135,122.71826033136215L138.81881305240134,122.74301030067153L139.08089118049693,122.79279583497626L139.16716245042164,122.83412931136282L139.42644259138453,122.89326781964147L139.4828686652272,122.9362024698088L139.52064149151855,122.96694849693439L139.5770675653612,122.99283164342174L139.69878000563332,123.02437880731853L139.78691660031316,123.05488136637734L140.09889216560848,123.11400510660418L140.20754733259474,123.16364346383025L140.4514385443278,123.22511098829081L140.4994706567724,123.26821675764616L140.87626625730837,123.3427085868458L140.9704651574424,123.39950872755072L141.11036451407705,123.45152788655587L141.34446277084572,123.51265537982113L141.62426148411504,123.58491946730258L141.667163953483,123.63371844005118L141.8606913968276,123.68748474058003L142.07940072436645,123.7473200426343L142.09805397191775,123.78556856355841L142.32888791036495,123.83749107752969L142.68796292572725,123.91347511345214L142.85071251061223,123.97929017718222L142.98548222417028,124.03548056020415L143.19299960317835,124.09483478604368L143.19486492793348,124.13067839494785L143.2205131433165,124.15534637652202L143.3860607153342,124.19052509395829L143.46673601099351,124.22154102637333L143.6770513771343,124.26591412604303L143.8705788204789,124.31615780550902L144.02586710634338,124.36520169920433L144.0510489905376,124.39768461030253L144.07669720592062,124.42029041608413L144.07902886186454,124.43413759362885L144.20726993877963,124.45799645364826L144.2291875046524,124.4749679698372L144.23012016702998,124.4852629844676L144.3294487102406,124.50345581006842L144.38167780338418,124.52067912290414L144.63862628840317,124.5619700826974L144.91655967691736,124.62007642462211L145.0625213390062,124.67237826401566L145.3222678111579,124.73468202191187L145.50413697478294,124.79363417783073L145.6099941546365,124.84152690425903L145.61605646009068,124.87097863887182L145.75222516721504,124.90472415203008L145.8226411767212,124.93326722378619L145.83569845000707,124.95193050570215L145.93316166846256,124.97459291851088L145.98399176803983,124.99416166892021L146.01010631461162,125.0089686454686L146.03342287405073,125.0205868186602L146.24793522089055,125.05268066326988L146.28244372886041,125.07596817133835L146.40788681864285,125.10458066320292L146.4293380533268,125.1242487843284L147.0085213897943,125.20320507802292L147.01831434475875,125.25170905483184L147.02157866308022,125.28118893706643L147.05095752797348,125.30226289247297L147.23842266586394,125.33648631831979L147.32562659816622,125.36703431713187L147.514490729623,125.40700165326373L147.56298917325634,125.43652781655325L148.3897943709672,125.54807990580233L148.91115264002568,125.67351619891515L149.09721878434976,125.76953339942382L149.51178721117716,125.87315706853627L149.82702709479392,125.97010896069685L149.87505920723848,126.03356275422688L149.97718573758178,126.08285696132634L150.38615819014376,126.1571702110523L150.4934143635637,126.21344223867021L150.5167309230028,126.24974268693484L150.62352076523393,126.28312924659065L150.68087950145414,126.30938643706318L151.18125286701743,126.3792073513374L151.27871608547292,126.43158056571767L151.48436813972586,126.4850639965932L151.486233464481,126.51735081068722L151.674631264749,126.55686746637952L151.6876885380349,126.58197076376385L151.8625627338282,126.61567190054433L151.86396172739458,126.63604129321683L152.11857855646966,126.67530309238205L152.1442267718527,126.70158043201104L152.67351267112045,126.77318194804187L152.85258384761283,126.83492615090358L152.9155385580984,126.87856398417162L153.1127966509533,126.9253556860246L153.16829006241838,126.95921440571362L153.28533919080272,126.99171704350834L153.40471997513097,127.02362566628967L153.52689874659188,127.05544327129516L153.94613048530707,127.11783149868674L154.2366548159184,127.18510264589854L154.31080147493478,127.23305643860822L154.4884736578608,127.27998742293941L154.5532936931015,127.31475791578818L154.86946623909583,127.36777373198957L155.3078175565511,127.44390355748475L155.56849669108038,127.51579112481528L155.66269559121437,127.56837022036599L155.90705313413622,127.62435426175618L155.94809027874908,127.66203994784554L155.95415258420326,127.68525764119333L156.09964791510328,127.71368410933225L156.18638551621677,127.73936749311694L156.20224077663536,127.75635156793726L156.40929182445467,127.78708237905816L156.64991871786629,127.82930998669815L156.65504836094289,127.85515216733658L156.74971359226566,127.87999192595498L156.8038080101644,127.90022419646871L157.09106802245424,127.94057968003987L157.23936134048697,127.97931170086727L157.45154203138287,128.02326858838978L158.10580468924428,128.11309867966017L158.14171219078054,128.1704605475734L158.46394704222902,128.2358838293054L158.56560724138356,128.2848886382718L158.5819288329909,128.31585527285162L158.8104311154942,128.3562911367119L158.8393436491987,128.38331409655598L158.86499186458173,128.40197473386604L159.1461895714174,128.43994360072617L159.4367139020287,128.49026612474745L159.46935708524344,128.5235471000898L159.48288068971814,128.54479345256394L160.1357443540132,128.61895531181628L160.18424279764656,128.66799038865247L160.25186082001997,128.7037327793621L160.32927179735782,128.73240783700936L160.49388670699793,128.7649598059553L160.50461232433994,128.78548963622669L160.57456200265727,128.80431762707207L160.9844671175968,128.85362256416755L161.0973192652821,128.8936289958543L161.226026673386,128.92949996108473L161.25913618778955,128.95407110760988L161.44753398805756,128.98613629306348L161.66018101014222,129.024869076696L161.71427542804096,129.05305852214127L161.91619683278367,129.08841116040645L162.23236937877797,129.13838794993643L162.27713717290106,129.17243611100562L162.97336963775288,129.2557009575771L163.58333083268,129.36019318802244L163.75074372945284,129.43777102599088L164.23712715935267,129.52735800942213L164.2828276158533,129.58513911292806L164.28842359011873,129.62029852002559L164.39941041304886,129.65116788276586L164.77993666309513,129.7030773189173L164.82144013889675,129.73785266327934L164.9594741707763,129.7707771559727L165.03828414168046,129.79740800114322L165.03921680405804,129.81346543925855L165.1343483665696,129.83138765849478L165.32647681634788,129.85884805445903L165.32787580991422,129.8754444044487L165.49715403144214,129.90008223893642L165.52047059088127,129.91688511599125L165.65617296681688,129.93870468460958L165.72798796988937,129.95800108976056L165.7447758926855,129.9710271453509L165.8417727799522,129.98721061001288L165.91452044540225,130.00318826881494L166.05721778916956,130.0250492085846L166.11690818133368,130.04329285650948L166.42095611641972,130.08029085527176L166.90454155918684,130.14369621903626L166.957703314708,130.18625452002524L166.96609727610607,130.21250102366352L167.07941575498015,130.2378567748081L167.56206853536972,130.29382265069523L167.5630011977473,130.32748225116822L167.56906350320148,130.3481870592896L167.63761418795244,130.36637419596832L167.7201548083669,130.38422211177172L167.779845200531,130.39994240861668L167.80549341591404,130.4115251708465L167.88103906849676,130.42480761206954L167.91041793339005,130.43523652141198L168.02280374988655,130.45089924077172L168.10720969505613,130.46735033073946L168.23684976553758,130.4880402531424L168.30306879434465,130.5059725139292L168.37581645979466,130.5227889677047L168.4196515915402,130.5365256815571L168.82909037529095,130.57872291652737L169.0142238572375,130.61933099548085L169.08603886030997,130.64961795668484L169.16438250002537,130.67424188577579L169.39801442560525,130.70821935794865L169.4176003355341,130.7302119157781L169.69646638642584,130.76624253572072L169.81677983313168,130.79768495898787L169.96134250165414,130.8283328685149L170.05414240822182,130.85427496899874L170.2984999511437,130.88968165567783L170.3553923561751,130.91553569641673L170.65104632986302,130.9549470588891L171.03810121655223,131.00974074046673L171.1388287533292,131.05069651093442L171.32116424814305,131.0898653470573L171.36686470464372,131.11702035388444L171.56971877176395,131.14950107921607L171.69236387441367,131.17875522540274L171.6988925110566,131.19682705630183L172.27247987325873,131.25312755477424L172.31957932332574,131.29062333110824L172.7919728175621,131.35027785726953L172.89223402315028,131.39392706858106L173.27182761081897,131.44976491414252L173.4285148902498,131.49546417888251L173.43597618927032,131.5234625651553L173.77499896351497,131.56656049531492L173.84308331707717,131.597687040584L174.10795943230545,131.63680953190067L174.1671834932808,131.66484615438537L174.1807070977555,131.68271024603362L174.19516336460774,131.6945417426989L174.4740294154995,131.7230675509136L174.54071477549533,131.74529524884508L174.58221825129695,131.76181198667928L174.78553864960602,131.78727372680007L174.82237881351978,131.80536483307588L175.0504147648343,131.83360262254925L175.2126980185305,131.86288598852974L175.22202464230617,131.88116409937976L175.31435821768503,131.89914209891583L175.60674787305143,131.93206847582562L175.70607641626205,131.9593273239192L175.75877184059445,131.97965892554723L175.81659690800345,131.99621853901144L175.99193743498554,132.01935523303555L176.03903688505255,132.03677999361412L176.04509919050673,132.047688989268L176.16494630602372,132.0632359539278L176.2922547205613,132.08210792173267L176.4069721930017,132.10201971177432L176.58324538236138,132.12713911355178L176.6200855462752,132.14495846901352L176.69376587410275,132.16114436715336L176.8052190282217,132.17915853346474L177.20393219463048,132.21956616313392L177.2636225867946,132.24822973373682L177.34709586958664,132.27160051010222L177.38859934538826,132.28869099007971L177.58679010062068,132.31356810617388L177.7215598141787,132.33841680491633L177.7486070231281,132.35531531447546L177.997161546749,132.38370578706207L178.21587087428784,132.41675048305203L178.3399149705039,132.44564064001057L178.44017617609208,132.4702878641311L178.96106811396183,132.52292533523794L179.02868613633524,132.55940382856468L179.09537149633107,132.58611486777673L179.12148604290286,132.6040301159778L179.1970316954856,132.62023694407404L179.37936719029943,132.6431127779852L179.45024953099434,132.66194362776827L179.45537917407094,132.6736104823655L179.74170652398323,132.70118413525657L179.8708802632759,132.72698613406897L179.8811395494291,132.74320173495585L179.9380319544605,132.7570034781887L179.96321383865478,132.7670850663674L180.11243981906506,132.78379771352638L180.30923158073116,132.80785900715108L180.94903797174032,132.86768225973992L181.0362419040426,132.9097362620919L181.0432368718743,132.93546169635255L181.07634638627786,132.95323400125096L181.19526083941733,132.97227894263048L181.19992415130514,132.98403535864298L181.40371088080298,133.00542605442695L181.70542715994506,133.0394208469529L181.82900492497234,133.06846238428574L182.14517747096664,133.10794566500508L182.17782065418143,133.1339086178261L182.32331598508145,133.15960443024568L182.35595916829624,133.1772891824482L182.47673894619084,133.19628273613793L182.52010774674756,133.2106862543406L182.7206301579239,133.23320992820413L182.8069014278486,133.25268628382454L182.81343006449157,133.2648228047204L182.90156665917138,133.2781892688268L182.9696510127336,133.29090382667368L183.1006900767814,133.30755929505918L183.16690910558847,133.32210884021885L183.18882667146121,133.33234512012837L183.20374926950228,133.33951299124334L183.42898723368407,133.35927504104237L183.43178522081678,133.37132445077955L183.50499921745555,133.3835713636234L183.50593187983313,133.39098242735457L183.54743535563475,133.39827172598967L183.7297708504486,133.41511297344468L183.91583699477266,133.43791303180888L183.92936059924736,133.45251507257368L184.15133424510768,133.47638186264012L184.18864074021027,133.49323688051845L184.26791704230325,133.5087332151189L184.4572475049488,133.53086359709735L184.45911282970394,133.54426880226188L184.6563709225588,133.5656535544164L184.77388638213193,133.5864164005537L184.89886314072555,133.6072979920024L184.98793239778294,133.62582227207793L185.049954445891,133.64110988846377L185.06394438155445,133.65122276688516L185.2229633169292,133.66797020317787L185.46405654152957,133.6941709244294L185.59043229368956,133.71834040735655L185.6048885605418,133.73380757211268L185.7802290875239,133.75478681980917L185.86743301982617,133.7731832334142L186.14723173309548,133.80282134638443L186.26148287434714,133.82818044748873L186.68397893138382,133.87132719141073L186.81734965137554,133.9060040344745L187.0164730689855,133.93990468097994L187.01787206255187,133.96033772702893L187.0742981363945,133.97630273655935L187.2477733386215,133.99725810350193L187.65301514167322,134.0363155383549L187.96638970053488,134.0801450866743L188.25738036233494,134.12531304741623L188.27090396680964,134.1532900724987L188.4000777061023,134.17843153565101L188.57635089546199,134.20489735047764L188.63790661238124,134.22474741250682L188.7167165832854,134.24173420096753L188.91444100732906,134.26464560641736L188.9186379880281,134.27866241663034L188.92796461180376,134.28767077695827L189.10936744424004,134.30471754561154L189.3719119035244,134.33175104901036L189.3952284629635,134.34946054494748L189.44885654967345,134.36351230604586L189.58222726966517,134.38045304105063L189.75616880308095,134.40169642206934L189.87694858097552,134.4221227814257L189.95435955831337,134.43929519840123L190.20011609480161,134.46517894419995L190.39644152527887,134.4931242392778L190.60955487855236,134.52333714280323L190.88888726063288,134.559036758701L191.1672869803359,134.59791629710514L191.3608144236805,134.63334791940503L191.39578926283914,134.65679179473958L191.4391580633959,134.67356465293744L191.7427396672931,134.7025455006432L191.78097882477326,134.7223133789345L192.0570468885323,134.75131128715634L192.0677725058743,134.76937579802535L192.18248997831472,134.78731943964624L192.28648183341315,134.8045190741437L192.48793690696706,134.82727906885074L192.49166755647732,134.84116499514766L192.6049860353514,134.8564825175419L193.24572508873814,134.905002410089L193.3282657091526,134.93916021081188L193.34551996313752,134.960709592608L193.37443249684202,134.97540544609294L193.42899324592955,134.98755407571886L193.48122233907313,134.9980302361361L193.39914804984747,134.99930667287896L193.4406515256491,135.00260633483538L193.46023743557797,135.00578039255407L193.84775865345597,135.0312794804395L193.88459881736975,135.04881645580073L194.61394079662512,135.10344963801813L194.62046943326806,135.13662305848598L194.74078287997386,135.1637704611209L194.8867445420627,135.18883054049655L195.11804481169867,135.21774014356978L195.19965276973556,135.23997276465457L195.30457728721154,135.25958792480438L195.8557807523521,135.30420719337084L195.93272539850116,135.3355487457718L196.44988668686062,135.38496975884217L196.54268659342827,135.42009720477586L196.6844512748181,135.4495277765112L196.71895978278795,135.46921773519185L196.73761303033922,135.48212988101614L197.21653516121853,135.51798690449525L197.2281934409381,135.54018289950676L197.2571059746426,135.55519350954654L197.55136095476416,135.58139082142054L197.60918602217316,135.6004803635503L197.75701300901713,135.62054443281363L197.78639187391042,135.63429190239268L198.33013404003043,135.67408304722707L198.36417621681156,135.69992643374232L198.3856274514955,135.71667248330527L198.46024044170068,135.7310315766383L198.47656203330806,135.74058962908342L198.58381820672795,135.7525153973978L198.69293970490298,135.765960173018L198.8053255213995,135.78049938145776L198.8500933155226,135.7917978878304L199.1308246911695,135.81469950900905L199.16020355606278,135.83012548725503L199.4269449960462,135.85465022147488L199.45352587380677,135.87088305409776" style="fill: none;" fill="none"></path></g></g></g></g><g opacity="0.2"><g><g><g><path stroke="rgb(255, 112, 67)" stroke-width="2px" d="M59.300951403638294,173.954032121933L59.3298639373428,173.21250313785214L59.444115078594436,170.28226703083692L59.47302761229893,169.54073768927864L59.49634417173804,168.94273088225026L59.524790374253755,168.21316094757861L59.84469356975834,160.00850092036828L59.868942791575016,159.38657172479247L59.8927256822029,158.7766051534L60.03309137002635,155.1766002571366L60.09837773645586,153.50218033951134L60.2989001476322,148.35931436353695L60.337139305112345,147.37858222767184L60.38237343042422,146.21845076652653L60.736785133898685,137.12873814827316L60.76429867403684,136.42308917223932L61.236225837084426,124.31942156020624L61.31783379512132,122.22639416083271L61.54120643454799,116.49748400201331L61.61721841831949,114.54797377500849L61.71561429915253,112.02438913889029L61.891887488512204,107.50345521831103L61.97769242724812,105.3027842200224L62.01639791591705,104.31009517961252L62.11432746556131,101.79845886858114L62.34702672876362,95.83034770284196L62.35262270302902,95.68682481083465L62.41930806302487,93.97652703002686L62.47153715616847,92.63698766414342L62.55967375084831,90.37652356367312L62.70330375699323,86.69279602713239L62.859524705235266,82.68614341348484L62.875846296842646,82.2675402214656L62.9845014638289,79.48082361042225L63.037663219350065,78.11736471581074L63.05678279809013,77.62700865724577L63.1859565373828,74.31404525526804L63.363162389120035,69.76918608632205L63.38974326688063,69.08745091937767L63.54130090323484,65.20040738864796L63.63829779050154,62.712696325983295L64.07245212725776,51.57779536581266L64.10975862236035,50.620991338133585L64.30841570878155,45.52596012988647L64.33686191129728,44.79639734476311L64.3620437954915,44.15054719054951L64.60080536414799,38.026953368438974L64.61666062456659,37.62030994078378L64.80459209364582,32.80037047182584L65.11516866537477,24.834915741264243L65.18838266201357,22.957169820082388L65.77595995987915,7.887386271725807L65.95036782448368,3.4142856889641755L66.00213058643851,2.086700367806185L66.04596571818404,0.9624481997530674L66.32576443145335,-2.0673930903065108L66.6256153858403,1.5753417962116583L66.97116679672791,5.5081538752155055L67.08308628203565,6.726002209721722L67.18567914356773,7.819734386073936L67.2910699922325,8.921485495777858L68.21813639553152,17.763028713748056L68.26896649510877,18.208096673683364L68.31140263328795,18.576830336534652L68.46575825677486,19.896488238558916L68.55063053313322,20.608102797678264L68.58747069704701,20.913977632045093L68.68819823382397,21.741163209213283L68.70638515018648,21.88911882115468L68.80151671269805,22.65609948216023L68.83555888947915,22.927793756106404L68.94048340695514,23.75620333594026L68.9703286030372,23.989393002665558L69.05193656107409,24.621596099120836L69.29862575993987,26.485706401821624L69.52339739293289,28.125561113328754L69.53645466621879,28.21916871905909L69.96921000940867,31.2244956379736L70.00418484856733,31.45945839267254L70.03496270702696,31.665262429663215L70.14828118590104,32.41553030660767L70.16273745275329,32.51040767211268L70.37072116295015,33.854854487935995L70.43367587343575,34.25441700297392L70.43460853581331,34.260319670034534L70.45232912098705,34.372172922977384L70.64119325244383,35.54801623142448L70.73772380852174,36.137791048562406L70.88648345774327,37.03231965089674L71.14716259227251,38.55928013523133L71.16348418387989,38.653208040724664L71.60649881322297,41.13160753170845L71.60696514441176,41.13414705125778L71.98236175138143,43.13231424404215L72.42071306883669,45.35681897647952L72.61983648644669,46.33104502340917L72.63196109735503,46.38967131931142L72.66273895581465,46.53811882017451L72.75647152475989,46.98707613437456L73.0204149776106,48.22665909565431L73.10248926683627,48.6048759193452L73.1146138777446,48.660470806776395L73.18129923774045,48.96491573148708L73.31933326962,49.58823050951971L73.38555229842706,49.884015901352726L73.42938743017258,50.078666643025414L73.43591606681554,50.10758513591146L73.75581926232013,51.50045441233072L73.77307351630508,51.57427206841991L74.00297479237469,52.54546670687851L74.20489619711739,53.3799505429317L74.30842172102703,53.80129344185213L74.41894221276841,54.24633852323294L74.42267286227867,54.26127821932043L74.48422857919792,54.506959576801876L74.5527792639489,54.7788025613523L74.64324751457265,55.13480430862519L74.65630478785855,55.185937877929206L74.8120594049118,55.79078966248159L74.8176553791772,55.81235270009637L74.83444330197337,55.8769731772772L74.85962518616759,55.97370370569659L74.87687944015255,56.03985704602882L74.89413369413748,56.105884554311295L74.95149243035769,56.32462641387084L75.10351639790069,56.89863790695935L75.17952838167217,57.18257220756219L75.21403688964206,57.31080650552592L75.62627366052553,58.81120498808782L75.84544931925316,59.58610162894984L75.88462113911088,59.72298402051397L76.16068920286993,60.674148484509196L76.17467913853339,60.72173587786594L76.2637483955908,61.023298104709816L76.42789697404213,61.57290961942574L76.56173402522262,62.0152435920985L76.68997510213772,62.43431007484633L76.74220419528133,62.60364569596651L77.01220995358624,63.467219614064454L77.13578771861351,63.85592625499289L77.19174746126737,64.03062689714294L77.40439448335206,64.68711557919829L77.59372494599762,65.26199645735774L77.69025550207554,65.55169615369418L77.87072567213426,66.0872487966708L77.96585723464582,66.36644723649248L78.06845009617791,66.6651610833013L78.10249227295901,66.76374477463506L78.21767607658822,67.09534654353538L78.3253985811969,67.40273136249911L78.72784239711594,68.52851639370364L78.8835970141692,68.95490401389097L79.42967083623314,70.41071219373543L79.46324668182547,70.49829130035545L79.50708181357099,70.6123065766984L79.59475207706204,70.83923895876839L79.63205857216462,70.93535176621633L79.69128263313995,71.08740263941291L79.71506552376785,71.14828247293326L79.73978107677331,71.2114387226262L79.9785426454298,71.81567278620713L80.04755966136956,71.98840587267031L80.2378227863927,72.46013878787356L80.3007774968783,72.61482069483748L80.3711935063844,72.78701613526997L80.68643339000117,73.54749928679796L80.72327355391496,73.63528430040844L81.13737564955356,74.60668484585754L81.34396036618408,75.08106023410535L81.44935121484885,75.32053006404048L81.54774709568188,75.5425664354478L82.05651442264327,76.66760791363112L82.09335458655707,76.74761421871214L82.42211807464851,77.4531202037804L82.77792877168935,78.19996773682735L82.85254176189449,78.35444373680077L82.92482309615573,78.50338312658559L82.96819189671247,78.5924264606935L83.23446700550711,79.13382457434447L83.4391863973825,79.54396842083793L83.62105556100755,79.9040082329798L83.72551374729476,80.1089772027313L83.74090267652458,80.13905678225812L83.81225134840825,80.27818699180173L83.81924631624,80.29179401208967L83.98759187539035,80.61751599248392L84.09857869832052,80.8304581384781L84.17132636377055,80.9692623286201L84.61200933716972,81.79727153375025L84.84144428205056,82.21987847280671L84.95522909211343,82.42736408355303L85.05922094721186,82.61580329767939L85.32549605600649,83.09313573909614L85.4113009947424,83.24540395856047L85.45187180816646,83.31713394655169L85.53534509095847,83.46420301450625L85.55073402018829,83.49124546592341L85.77690464674767,83.88588909174418L85.86037792953968,84.03026992954518L86.43629694768569,85.0082537790512L86.44888788978281,85.0292906099125L86.4568155199921,85.04253157332847L86.69044744557199,85.43001993122984L86.71236501144475,85.46612229022838L86.7687910852874,85.55886051088778L86.8657879725541,85.71760336127518L87.11714048330771,86.1251161740013L87.1199384704404,86.12962896887613L87.172167563584,86.21359898352402L87.25517451518724,86.34658058154618L87.59559628299824,86.88581667179704L87.62870579740176,86.93773955123126L88.03114961332082,87.56175784481471L88.22141273834394,87.85224113164273L88.67188866670755,88.52873710960696L88.74556899453513,88.63791357167351L88.83603724515888,88.77139849789462L89.141950505,89.2182910225512L89.31356038247185,89.46600857138301L89.5014918515511,89.7348544652941L89.64558818888479,89.93930294793078L89.66517409881362,89.96698027923524L90.19865697878048,90.71073348778627L90.28679357346032,90.831761041083L90.3077784769555,90.86050222517166L90.50317124505526,91.12671136567684L90.89535577482108,91.65358731685994L90.94058990013295,91.7137293169977L91.03945211215478,91.84472048077849L91.31039053283723,92.20060783527889L91.31691916948017,92.20913009682955L91.44282859045137,92.37293482739973L91.56594002428987,92.53217528634748L91.65734093729118,92.64981109393982L91.91242409755505,92.97549875650229L91.96745117783135,93.04526118880665L92.00289234817879,93.09009743598496L92.16144495236475,93.28979289892456L92.36290002591865,93.54146271804596L92.54989883262031,93.77301656812463L92.5736817232482,93.80232399643712L92.58394100940143,93.81496439779752L92.59932993863123,93.8339021212836L92.61098821835078,93.84824125531549L92.73223432743416,93.99692898100082L92.7807327710675,94.05618443715179L92.78213176463385,94.0578888894619L92.93089141385538,94.23882393771278L93.0642621338471,94.40002051307013L93.14353843594004,94.49538404785822L93.49095517158278,94.90940580933919L93.61360027423251,95.05406118979417L94.21983081964937,95.75788560110679L94.56071891864916,96.14567709985529L94.68383035248766,96.2843497383089L94.75098204367231,96.35968309863362L94.77289960954506,96.38422606797184L94.82746035863258,96.44522029426467L94.88155477653132,96.5055624817543L94.8848190948528,96.50920017191955L95.01772348365571,96.65683548409794L95.3455543093696,97.01752733504304L95.48871798432575,97.17350759997476L95.75312776836525,97.4591635118036L95.78483828920243,97.49321252053589L95.82074579073866,97.53171712775675L95.82727442738161,97.53871224579466L95.84546134374412,97.55818761531144L95.86038394178514,97.57415684635134L96.1364520055442,97.8678316915319L96.33883974147568,98.08104266054144L96.37101659350166,98.11478280878802L96.4013281207725,98.14652108351595L96.5062526382485,98.25609792028622L96.513713937269,98.26387090917707L96.58086562845365,98.33373629497667L96.59299023936198,98.34633093922805L96.61024449334693,98.3642391277617L96.7888493386505,98.54893197858895L96.79770963123737,98.5580548021952L97.02108227066404,98.78710917019491L97.60026560713153,99.37168483582307L97.61612086755014,99.3874996366201L97.65296103146392,99.42421399695148L97.84788746837488,99.61758925921089L98.38043768596415,100.13852250586301L98.46997327421033,100.22506063825334L98.69754289433604,100.44368810504041L98.89293566243579,100.62989666010317L98.90739192928804,100.64362379280222L98.97594261403903,100.70859316793914L99.12889924395958,100.85295112718566L99.48610893456676,101.18687506936757L99.52574708561325,101.22365234572379L99.59243244560909,101.28541300359234L99.77196995329024,101.45091646683403L99.89927836782778,101.56760853405329L100.11892035774419,101.76765861458762L100.36934020612023,101.99378452761154L100.43509290373854,102.05281119821748L100.68318109617064,102.27427560576234L100.69064239519116,102.28090466692827L100.97510442034832,102.53233998086607L101.00401695405282,102.55774661563657L101.09821585418682,102.6403553562918L101.59392590786229,103.07052937724865L101.74501721302772,103.2001421081209L101.75574283036971,103.2093221281134L101.88398390728482,103.31875597391807L102.16797960125317,103.5593468530236L102.19549314139132,103.58252854836914L102.35311308319972,103.71490958433571L102.39834720851158,103.75276215275336L102.51399734332956,103.84928105454367L102.71451975450591,104.01572253851978L103.01064005938261,104.25940774212123L103.1262901942006,104.35390761147704L103.25359860873813,104.45750742588457L103.37671004257663,104.55726364313637L103.40282458914844,104.57836910966118L103.450856701593,104.6171425398974L103.83371460758319,104.92395539499867L103.94283610575822,105.010676555825L103.97314763302907,105.03471047732559L104.26507095720673,105.26493165160473L104.53087973481257,105.47262316934152L104.6194826606812,105.54144186127283L104.72487350934597,105.62304966516875L104.8470522808069,105.71729215078643L105.11799070148936,105.92494363105286L105.32830606763014,106.08487044663553L105.3786698360186,106.1230032773458L105.5045792569898,106.21806939092542L105.83334274508125,106.46447714251221L105.95878583486368,106.55780448594994L105.9862993750018,106.57822931547844L106.02360587010439,106.60588376822842L106.05858070926305,106.63178801155928L106.13412636184577,106.68763456308994L106.18122581191278,106.7223870873731L106.25770412687307,106.778702649271L106.45542855091671,106.92366117057306L106.46475517469234,106.9304789798136L106.81077291676874,107.18190857411278L106.90170749858129,107.2475299880529L106.91616376543352,107.25794544998834L106.94181198081654,107.27641416310719L106.95813357242393,107.28815658120351L106.96279688431174,107.29150828943754L107.05373146612428,107.35682084289193L107.19876046583553,107.46059224645822L107.39928287701188,107.60330294978085L107.55270583812123,107.71189600870767L107.5797530470706,107.730982442798L107.84183117516619,107.91513192795588L107.8548884484521,107.92426619083939L107.93369841935628,107.97933487151714L108.09271735473101,108.0900327574578L108.17479164395668,108.14695460104993L108.25126995891696,108.19986697796617L108.25779859555992,108.204379772841L108.454590357226,108.33993520824423L108.48117123498659,108.35818657509535L108.5385299712068,108.39750909063955L108.62060426043246,108.45365878301733L108.66723737931068,108.48550573087915L109.21331120137464,108.85506874133101L109.5625932617725,109.08828700624943L109.86850652161363,109.29056774584734L109.86897285280241,109.29087088669445L109.89602006175178,109.30866468245561L110.1389786111073,109.46788226284886L110.32644374899775,109.58996222965251L110.4169119996215,109.64862856302513L110.4952556393369,109.69931028087778L110.52090385471992,109.71588007397327L110.77878500211648,109.88177247264142L110.83894172546938,109.92028851913955L110.98303806280309,110.01228318677775L111.08423193076882,110.07665771949772L111.43351399116669,110.29741861149176L111.45170090752919,110.30884644946373L111.54450081409686,110.36710096885535L111.74035991338538,110.48952983361512L111.86487034079022,110.56700233878546L111.93575268148513,110.61098635980868L112.04720583560406,110.67996520162147L112.1927011665041,110.76968917272569L112.27057847503073,110.8175625480137L112.56763144228499,110.99918967253814L112.7588272296857,111.11529833661771L112.76442320395108,111.1186900823221L112.93230243191269,111.22011071441368L113.0073817533066,111.26531301846396L113.30303572699452,111.44241018919772L113.32075631216824,111.45298008137598L113.35433215776057,111.47298737728487L113.47744359159907,111.54619303204123L113.52780735998753,111.5760724242162L113.751646330603,111.70836194596478L113.84024925647161,111.7605021716667L113.89434367437036,111.7922747642264L114.01046014037712,111.86031558530478L114.2254388184057,111.98570722287207L114.38725574091313,112.07960653017227L114.52902042230292,112.16153463383117L114.84472663710848,112.34286433714713L115.41038636910129,112.66391337278506L115.41085270029006,112.66418219580042L115.4756727355308,112.70066205094818L115.48966267119425,112.70852083441838L115.50878224993433,112.71926803539402L115.71023732348824,112.83213938401207L115.88277986333766,112.92833798603937L116.07723996905983,113.03623324905399L116.08283594332521,113.03933329318852L116.28522367925669,113.15102067661125L116.54870080091864,113.29553306610063L116.56408973014844,113.3039409348788L116.8117115913918,113.43879285473122L117.07425605067617,113.58083436033475L117.10130325962554,113.59540799955025L117.20622777710153,113.65186655241375L117.32141158073074,113.71366724775267L118.08852638627745,114.12059665733909L118.37158941786825,114.26875245663234L118.41589088080255,114.29184263775988L118.52827669729908,114.35030878378063L118.6373981954741,114.40691032760976L118.72693378372028,114.4532394004691L118.77543222735363,114.47829141764487L119.11958464467489,114.65518840102678L119.19979360914543,114.69619820996523L119.24083075375826,114.71713780696993L119.28559854788136,114.73997060435937L119.30565078899899,114.75018587894291L119.48285664073623,114.84025874800327L119.55094099429843,114.87475960818688L119.9496541607072,115.07563331668315L120.23971216012974,115.22052320232176L120.26489404432398,115.23306065018691L120.33111307313105,115.26597145083291L120.70417802415682,115.4504011982834L120.81609750946453,115.50540696293626L121.00356264735498,115.59720144322262L121.25631415167493,115.72030522534008L121.32486483642592,115.75356492394218L121.49694104508654,115.83680854448474L121.50300335054071,115.83973699946054L121.5426415015872,115.8588577513826L121.73057297066642,115.94927951839904L121.78000407667733,115.9729988597753L122.07472538798768,116.11381636271318L122.19457250350472,116.1707896830529L122.35172611412432,116.24525937794532L122.42120946125286,116.27810154292783L122.56810378571926,116.34734348811732L122.57043544166318,116.34843593909461L122.73131970179303,116.42399808496434L122.74624229983407,116.4309874833636L122.98407120611297,116.54212006183975L123.04096361114442,116.56861342794895L123.17107001281465,116.62907000821106L123.62481025949972,116.83845453898074L123.77356990872123,116.90662119210884L123.84118793109467,116.93752439959759L123.86263916577863,116.94732214056155L124.10792937107807,117.05898092579119L124.12658261862937,117.06744027131697L124.14057255429283,117.07378907019029L124.14523586618066,117.07590533648138L124.18067703652811,117.09197180137791L124.1965322969467,117.09915566749044L124.46933604238427,117.22234524418725L124.58078919650323,117.27244927853882L124.68944436348947,117.32117487998187L124.98369934361105,117.45251494171876L125.0004872664072,117.4599847897625L125.14365094136335,117.52354713379778L125.14411727255212,117.52375304078826L125.40246475113746,117.63793418665134L125.46821744875575,117.6668869973691L125.60531881825773,117.72712051172488L125.67806648370774,117.75900177741843L125.88791551865972,117.8506818649323L125.94667324844629,117.87627724777741L126.0903032545912,117.93868994444915L126.11781679472935,117.9506268302587L126.17331020619444,117.97467219103657L126.78280506993278,118.23684326667275L126.82011156503535,118.2527724602423L127.06307011439087,118.35620068549109L127.24214129088324,118.43208313112378L127.61287458596509,118.58822354593697L127.93837375573506,118.72428230953918L127.98454054342449,118.74350029531786L128.04796158509888,118.76986782937732L128.1048539901303,118.79348993689696L128.13190119907966,118.80471758751705L128.16407805110566,118.81805006515101L128.1659433758608,118.81882793600396L128.52268673527917,118.9660971913104L128.63507255177566,119.01226611428824L128.72973778309847,119.05105670344034L128.7856975257523,119.07395241685465L129.13637857971653,119.21680611114289L129.18534335453867,119.23667041608614L129.26881663733067,119.2704791999962L129.2753452739736,119.27311595340215L129.29213319676978,119.27991088408818L129.31125277550984,119.28764383550866L129.35508790725538,119.30535755632907L129.37793813550573,119.31458905306918L129.48192999060413,119.35652544346482L129.55327866248783,119.38524374899899L129.9389345556107,119.53973118824966L130.05225303448478,119.58488773519095L130.42065467362272,119.73093870747036L130.4518988632711,119.743270248345L130.48034506578682,119.75449217932649L130.93734963079336,119.9338772055101L131.18217350490403,120.02926933849132L131.36637432447301,120.10071906418993L131.4297953661474,120.1252563138895L131.43679033397913,120.12796170295896L131.74316992500903,120.24603220308674L131.8644160340924,120.2925557436593L131.9795998377216,120.33663699853919L132.0476841912838,120.36264419536528L132.05654448387065,120.36602450179242L132.08732234233028,120.37777263952736L132.1624016637242,120.40638799156628L132.2048378019034,120.4225402510422L132.22722169896494,120.43105679295424L132.3172236183999,120.46525451229077L132.4589882997897,120.5189962368076L133.02604702534887,120.732407393169L133.14962479037612,120.77858775542408L133.2027865458973,120.7984177425356L133.32263366141433,120.84304236308479L133.5198917542692,120.91626517675705L133.5432083137083,120.9249018310802L133.62341727817883,120.9545810359033L133.6406715321638,120.96095271333111L133.755855335793,121.00347250686647L133.96617070193375,121.0808534978188L133.9792279752197,121.08564655498623L134.0617685956341,121.11591488258765L134.33503867226048,121.21577977297332L134.34576428960247,121.21968628615393L134.42457426050666,121.24838171313358L134.42504059169545,121.2485475826537L134.45441945658874,121.25923758724309L134.63022631475962,121.3230401561006L134.72629053964874,121.3578098392996L134.9627204523613,121.4431068101084L135.27049903695757,121.55354159267235L135.58107560868652,121.6643023946379L135.69159610042792,121.70356199415721L135.97326013845236,121.80321525791379L136.03574851774917,121.82524730589579L136.13041374907195,121.8585813598L136.22228099326205,121.89086300019729L136.3626466810855,121.94008049056204L136.37337229842748,121.94383829313841L136.46290788667366,121.97515903424679L136.6293881210689,122.0332476841183L136.66529562260513,122.0457508141517L136.75949452273915,122.07851290419345L136.79913267378564,122.09228007436289L136.87467832636833,122.11849317817948L136.99032846118632,122.15854208782899L137.17359661837773,122.22182988921028L137.2402819783736,122.24479995792672L137.33774519682908,122.27832275990555L137.49210082031598,122.33128661356943L137.56531481695478,122.35635007002244L137.77329852715164,122.4273651031856L137.88102103176033,122.4640394260466L138.02978068098184,122.51455527437913L138.07175048797225,122.52878573527715L138.17667500544823,122.56430469113599L138.3198386804044,122.61264707679116L138.60569969912785,122.70879420207086L138.79596282415102,122.77249953707175L138.8141497405135,122.7785795129297L138.81881305240134,122.78013525463561L139.08089118049693,122.86747413643337L139.16716245042164,122.89612952594267L139.42644259138453,122.98197558205943L139.4828686652272,123.00060444505978L139.52064149151855,123.01306753762279L139.5770675653612,123.03165636315278L139.69878000563332,123.07169955316368L139.78691660031316,123.10063520496557L140.09889216560848,123.20269071694447L140.20754733259474,123.23810099966941L140.4514385443278,123.31731227498162L140.4994706567724,123.33287541167918L140.87626625730837,123.45444633064525L140.9704651574424,123.48470893860805L141.11036451407705,123.5295566250636L141.34446277084572,123.604346619719L141.62426148411504,123.6933155985248L141.667163953483,123.7069168991741L141.8606913968276,123.76813419137329L142.07940072436645,123.8370729957157L142.09805397191775,123.84294134494456L142.32888791036495,123.91537484848661L142.68796292572725,124.02745116733581L142.85071251061223,124.07801277277736L142.98548222417028,124.119766134737L143.19299960317835,124.18386612480299L143.19486492793348,124.18444380830408L143.2205131433165,124.1923483488833L143.3860607153342,124.24329317011268L143.46673601099351,124.26806492499587L143.6770513771343,124.33247377554758L143.8705788204789,124.39152332470806L144.02586710634338,124.43876753974733L144.0510489905376,124.4464089769498L144.07669720592062,124.45419912475651L144.07902886186454,124.45490835994596L144.20726993877963,124.49378474367742L144.2291875046524,124.5004252441206L144.23012016702998,124.50070550641321L144.3294487102406,124.53074504846964L144.38167780338418,124.54651409215771L144.63862628840317,124.62390652238727L144.91655967691736,124.70723593750921L145.0625213390062,124.75083102310599L145.3222678111579,124.8281376587562L145.50413697478294,124.88206241170899L145.6099941546365,124.9133659939015L145.61605646009068,124.91515624079099L145.75222516721504,124.9553424217675L145.8226411767212,124.97608183142034L145.83569845000707,124.97992542857605L145.93316166846256,125.00858653772397L145.98399176803983,125.02351479453421L146.01010631461162,125.03117911029119L146.03342287405073,125.0380140784476L146.24793522089055,125.10082143018442L146.28244372886041,125.11089943344099L146.40788681864285,125.14749940099985L146.4293380533268,125.15375096601656L147.0085213897943,125.3216395185647L147.01831434475875,125.32446502004524L147.02157866308022,125.32540876041831L147.05095752797348,125.33387382558273L147.23842266586394,125.38782145709006L147.32562659816622,125.41285631534996L147.514490729623,125.4669526574615L147.56298917325634,125.48081706148757L148.3897943709672,125.71540803967589L148.91115264002568,125.86167063858439L149.09721878434976,125.91355920018684L149.51178721117716,126.02859257220499L149.82702709479392,126.11553679893767L149.87505920723848,126.12874344452187L149.97718573758178,126.15679827197559L150.38615819014376,126.2686400856412L150.4934143635637,126.29785028009707L150.5167309230028,126.30419335933176L150.62352076523393,126.33320908607442L150.68087950145414,126.34877222277198L151.18125286701743,126.48393872274873L151.27871608547292,126.51014038728806L151.48436813972586,126.56528914290654L151.486233464481,126.56578103182827L151.674631264749,126.61614244991793L151.6876885380349,126.61962570984032L151.8625627338282,126.666223605715L151.86396172739458,126.66659538222562L152.11857855646966,126.73419579112986L152.1442267718527,126.74099644145453L152.67351267112045,126.88058422208809L152.85258384761283,126.92754245519615L152.9155385580984,126.94402073407365L153.1127966509533,126.99554323880412L153.16829006241838,127.01000248524713L153.28533919080272,127.04047100020043L153.40471997513097,127.07148860046168L153.52689874659188,127.10316967880338L153.94613048530707,127.21141383977411L154.2366548159184,127.28600936671627L154.31080147493478,127.3049871276727L154.4884736578608,127.35038389943622L154.5532936931015,127.36691365506135L154.86946623909583,127.44729745629161L155.3078175565511,127.55809829572753L155.56849669108038,127.62362247581105L155.66269559121437,127.64723886369207L155.90705313413622,127.70833032384151L155.94809027874908,127.71856847697957L155.95415258420326,127.72008418121507L156.09964791510328,127.7563238115406L156.18638551621677,127.77789256879402L156.20224077663536,127.78182768016775L156.40929182445467,127.83317859573947L156.64991871786629,127.89265139815815L156.65504836094289,127.8939154382942L156.74971359226566,127.91725156388259L156.8038080101644,127.93057260223931L157.09106802245424,128.00111290539664L157.23936134048697,128.0374097321084L157.45154203138287,128.08920391967354L158.10580468924428,128.24784381656568L158.14171219078054,128.25650334944334L158.46394704222902,128.33401875190336L158.56560724138356,128.35839585172144L158.5819288329909,128.36230522472135L158.8104311154942,128.41694493250225L158.8393436491987,128.42384853632214L158.86499186458173,128.42996568983116L159.1461895714174,128.49689690101633L159.4367139020287,128.56574991077937L159.46935708524344,128.5734685631033L159.48288068971814,128.57666298127512L160.1357443540132,128.73019810069482L160.18424279764656,128.74154300390674L160.25186082001997,128.75734636542654L160.32927179735782,128.7754204234803L160.49388670699793,128.81378775937418L160.50461232433994,128.8162843816338L160.57456200265727,128.83255961334015L160.9844671175968,128.92757996981078L161.0973192652821,128.9536386433845L161.226026673386,128.9833064089303L161.25913618778955,128.99092782739763L161.44753398805756,129.03423407124384L161.66018101014222,129.08296825214484L161.71427542804096,129.09534269030917L161.91619683278367,129.1414401178042L162.23236937877797,129.2133531342314L162.27713717290106,129.2235083526094L162.97336963775288,129.38059822743426L163.58333083268,129.51693153369047L163.75074372945284,129.55413778294354L164.23712715935267,129.66173848456899L164.2828276158533,129.67181076818693L164.28842359011873,129.6730376306719L164.39941041304886,129.69747192687623L164.77993666309513,129.78094147314445L164.82144013889675,129.79001567982243L164.9594741707763,129.8201638950127L165.03828414168046,129.837354268899L165.03921680405804,129.83755159643152L165.1343483665696,129.8582709873492L165.32647681634788,129.90003864840537L165.32787580991422,129.90033892943316L165.49715403144214,129.937038990668L165.52047059088127,129.94208943157352L165.65617296681688,129.97143403753708L165.72798796988937,129.98694569748702L165.7447758926855,129.99056622873638L165.8417727799522,130.0114858070059L165.91452044540225,130.02715475701802L166.05721778916956,130.05784061823903L166.11690818133368,130.0706583283968L166.42095611641972,130.13578785341522L166.90454155918684,130.238804264683L166.957703314708,130.2500919715087L166.96609727610607,130.25187077912096L167.07941575498015,130.275890401525L167.56206853536972,130.37777146452584L167.5630011977473,130.3779716518777L167.56906350320148,130.3792442714717L167.63761418795244,130.39365490098638L167.7201548083669,130.4109939854769L167.779845200531,130.4235228538841L167.80549341591404,130.42889931419123L167.88103906849676,130.44473127390413L167.91041793339005,130.45087988542562L168.02280374988655,130.47439331981138L168.10720969505613,130.49202696569102L168.23684976553758,130.5190751367468L168.30306879434465,130.53287090510938L168.37581645979466,130.54801364836803L168.4196515915402,130.55713075233567L168.82909037529095,130.6420187689828L169.0142238572375,130.68024311391105L169.08603886030997,130.69504839849083L169.16438250002537,130.71117777941222L169.39801442560525,130.7591855662079L169.4176003355341,130.76320075252238L169.69646638642584,130.8202884656346L169.81677983313168,130.84484859388868L169.96134250165414,130.8743047328054L170.05414240822182,130.89318811972456L170.2984999511437,130.94279168569645L170.3553923561751,130.95431675752505L170.65104632986302,131.01406410259773L171.03810121655223,131.09193126283313L171.1388287533292,131.11213016663595L171.32116424814305,131.14861860124165L171.36686470464372,131.15775286412514L171.56971877176395,131.19822216721357L171.69236387441367,131.2226364446827L171.6988925110566,131.2239348026505L172.27247987325873,131.33757830248285L172.31957932332574,131.3468669956092L172.7919728175621,131.43975964651148L172.89223402315028,131.4594008855484L173.27182761081897,131.5335216824847L173.4285148902498,131.5640130759925L173.43597618927032,131.56546014456453L173.77499896351497,131.63120739055438L173.84308331707717,131.64437685848756L174.10795943230545,131.69549326887568L174.1671834932808,131.7069010881125L174.1807070977555,131.70950638350598L174.19516336460774,131.71228898769684L174.4740294154995,131.76585626323563L174.54071477549533,131.77863679574233L174.58221825129695,131.7865870934305L174.78553864960602,131.82546633698132L174.82237881351978,131.83250149248957L175.0504147648343,131.87595930675934L175.2126980185305,131.9068110375005L175.22202464230617,131.90858126565482L175.31435821768503,131.92610909821994L175.60674787305143,131.98145804119025L175.70607641626205,132.00021559605966L175.75877184059445,132.01015632798922L175.81659690800345,132.02105795920772L175.99193743498554,132.05406027407173L176.03903688505255,132.06291713448195L176.04509919050673,132.0640524827489L176.16494630602372,132.08655640091746L176.2922547205613,132.11041587344L176.4069721930017,132.1318873968368L176.58324538236138,132.16481821621798L176.6200855462752,132.17168750220614L176.69376587410275,132.1854232143631L176.8052190282217,132.20617978293183L177.20393219463048,132.2801776076377L177.2636225867946,132.29122508964113L177.34709586958664,132.30665667465036L177.38859934538826,132.31432671004595L177.58679010062068,132.35088378031512L177.7215598141787,132.37568985303005L177.7486070231281,132.38066307881414L177.997161546749,132.42629149594197L178.21587087428784,132.46631752703698L178.3399149705039,132.48897587544838L178.44017617609208,132.50725870031192L178.96106811396183,132.60188154189817L179.02868613633524,132.61412156855482L179.09537149633107,132.6261814265948L179.12148604290286,132.63090298827942L179.1970316954856,132.64454718621843L179.37936719029943,132.67742652885198L179.45024953099434,132.6901899024428L179.45537917407094,132.69111076426137L179.74170652398323,132.74254461459316L179.8708802632759,132.76568913228763L179.8811395494291,132.76752513628614L179.9380319544605,132.77770609303792L179.96321383865478,132.78220744863552L180.11243981906506,132.80886668426479L180.30923158073116,132.84395094758816L180.94903797174032,132.95741713862316L181.0362419040426,132.9728172656199L181.0432368718743,132.97404984774352L181.07634638627786,132.97989245859856L181.19526083941733,133.0008463546998L181.19992415130514,133.00166998266175L181.40371088080298,133.03751209810287L181.70542715994506,133.09041303574188L181.82900492497234,133.11202469028495L182.14517747096664,133.16717058608413L182.17782065418143,133.17285304705766L182.32331598508145,133.19814814887502L182.35595916829624,133.203816310752L182.47673894619084,133.22477306667255L182.52010774674756,133.23229153164462L182.7206301579239,133.26699543899943L182.8069014278486,133.28190081725515L182.81343006449157,133.2830275860642L182.90156665917138,133.29823896498635L182.9696510127336,133.30997566344405L183.1006900767814,133.33254249763743L183.16690910558847,133.34393315795836L183.18882667146121,133.34769953999265L183.20374926950228,133.3502647979158L183.42898723368407,133.3889181157409L183.43178522081678,133.38939856538536L183.50499921745555,133.40194173288913L183.50593187983313,133.40209902295132L183.54743535563475,133.40920567394238L183.7297708504486,133.4403748446272L183.91583699477266,133.47211311935513L183.92936059924736,133.47441813372086L184.15133424510768,133.51218204773986L184.18864074021027,133.5185194073359L184.26791704230325,133.53197771701963L184.4572475049488,133.56405917006504L184.45911282970394,133.5643766100087L184.6563709225588,133.59773068264812L184.77388638213193,133.61756066975965L184.89886314072555,133.63862037917545L184.98793239778294,133.65360869219123L185.049954445891,133.66404131304253L185.06394438155445,133.66639208451724L185.2229633169292,133.6930913576169L185.46405654152957,133.73347200630667L185.59043229368956,133.75459463174732L185.6048885605418,133.7570083192469L185.7802290875239,133.78625569135386L185.86743301982617,133.80077785382173L186.14723173309548,133.8472785158398L186.26148287434714,133.86621909914518L186.68397893138382,133.93604730729373L186.81734965137554,133.95801929907017L187.0164730689855,133.99075565073812L187.01787206255187,133.99098729610242L187.0742981363945,134.00025025085498L187.2477733386215,134.02869115391584L187.65301514167322,134.09490169063432L187.96638970053488,134.1458894091534L188.25738036233494,134.19306498852916L188.27090396680964,134.1952556101224L188.4000777061023,134.21614373037946L188.57635089546199,134.2445960727176L188.63790661238124,134.2545225055506L188.7167165832854,134.2672143836586L188.91444100732906,134.2990127145921L188.9186379880281,134.2996876319498L188.92796461180376,134.30118331745012L189.10936744424004,134.33028769859146L189.3719119035244,134.37230130410853L189.3952284629635,134.37602478885313L189.44885654967345,134.38458994769348L189.58222726966517,134.40586414355775L189.75616880308095,134.4335614935974L189.87694858097552,134.4527623204602L189.95435955831337,134.4650538238645L190.20011609480161,134.5040045628981L190.39644152527887,134.53504218189454L190.60955487855236,134.56865649809137L190.88888726063288,134.61258618254766L191.1672869803359,134.65623560471136L191.3608144236805,134.68649535285485L191.39578926283914,134.69195760774136L191.4391580633959,134.69872394023426L191.7427396672931,134.74601677220187L191.78097882477326,134.75196519637146L192.0570468885323,134.79480814948909L192.0677725058743,134.79647256432884L192.18248997831472,134.81423490207757L192.28648183341315,134.83031852588996L192.48793690696706,134.8614190609113L192.49166755647732,134.86199388459306L192.6049860353514,134.8794588011333L193.24572508873814,134.97778224890962L193.3282657091526,134.9903969118962L193.34551996313752,134.99303366530214L193.37443249684202,134.99744922632033L193.42899324592955,135.00577702015778L193.48122233907313,135.01374447676184L193.39914804984747,135.00122132799328L193.4406515256491,135.00755582777003L193.46023743557797,135.0105414791321L193.84775865345597,135.06952811226768L193.88459881736975,135.07512191884254L194.61394079662512,135.18539941134432L194.62046943326806,135.18638318918775L194.74078287997386,135.20449156507325L194.8867445420627,135.22642065956L195.11804481169867,135.26110454817962L195.19965276973556,135.2733216962818L195.30457728721154,135.2890106650291L195.8557807523521,135.37113609622054L195.93272539850116,135.38256107437323L196.44988668686062,135.45910127844772L196.54268659342827,135.47278837367642L196.6844512748181,135.49367363411417L196.71895978278795,135.49875267321283L196.73761303033922,135.50149809975264L197.21653516121853,135.5717724397139L197.2281934409381,135.57347689202402L197.2571059746426,135.5777094246062L197.55136095476416,135.62068678923154L197.60918602217316,135.6291146767449L197.75701300901713,135.6506405367086L197.78639187391042,135.6549131067612L198.33013404003043,135.7337697644787L198.36417621681156,135.73869151351516L198.3856274514955,135.7417915576497L198.46024044170068,135.7525702166378L198.47656203330806,135.75492670775114L198.58381820672795,135.7704040498693L198.69293970490298,135.78612733644835L198.8053255213995,135.8023081941174L198.8500933155226,135.80874564738937L199.1308246911695,135.849051940777L199.16020355606278,135.85326445462402L199.4269449960462,135.89143732280468L199.45352587380677,135.8952323030321" style="fill: none;" fill="none"></path></g></g></g></g></g></g><g transform="translate(50, 177)" clip-path="url(#clip_1)"><clipPath id="clip_1"><rect width="280" height="23"></rect></clipPath><g><g><line x1="12.589488885702979" y1="0" x2="12.589488885702979" y2="5" style="visibility: inherit;" fill="rgb(0, 0, 0)" stroke="rgb(204, 204, 204)" stroke-width="1px"></line><line x1="35.906048324812936" y1="0" x2="35.906048324812936" y2="5" style="visibility: inherit;" fill="rgb(0, 0, 0)" stroke="rgb(204, 204, 204)" stroke-width="1px"></line><line x1="59.22260776392289" y1="0" x2="59.22260776392289" y2="5" style="visibility: inherit;" fill="rgb(0, 0, 0)" stroke="rgb(204, 204, 204)" stroke-width="1px"></line><line x1="82.53916720303285" y1="0" x2="82.53916720303285" y2="5" style="visibility: inherit;" fill="rgb(0, 0, 0)" stroke="rgb(204, 204, 204)" stroke-width="1px"></line><line x1="105.8557266421428" y1="0" x2="105.8557266421428" y2="5" style="visibility: inherit;" fill="rgb(0, 0, 0)" stroke="rgb(204, 204, 204)" stroke-width="1px"></line><line x1="129.17228608125276" y1="0" x2="129.17228608125276" y2="5" style="visibility: inherit;" fill="rgb(0, 0, 0)" stroke="rgb(204, 204, 204)" stroke-width="1px"></line><line x1="152.4888455203627" y1="0" x2="152.4888455203627" y2="5" style="visibility: inherit;" fill="rgb(0, 0, 0)" stroke="rgb(204, 204, 204)" stroke-width="1px"></line><line x1="175.80540495947267" y1="0" x2="175.80540495947267" y2="5" style="visibility: inherit;" fill="rgb(0, 0, 0)" stroke="rgb(204, 204, 204)" stroke-width="1px"></line><line x1="199.1219643985826" y1="0" x2="199.1219643985826" y2="5" style="visibility: inherit;" fill="rgb(0, 0, 0)" stroke="rgb(204, 204, 204)" stroke-width="1px"></line><line x1="222.43852383769257" y1="0" x2="222.43852383769257" y2="5" style="visibility: inherit;" fill="rgb(0, 0, 0)" stroke="rgb(204, 204, 204)" stroke-width="1px"></line><line x1="245.75508327680254" y1="0" x2="245.75508327680254" y2="5" style="visibility: inherit;" fill="rgb(0, 0, 0)" stroke="rgb(204, 204, 204)" stroke-width="1px"></line><line x1="269.0716427159125" y1="0" x2="269.0716427159125" y2="5" style="visibility: inherit;" fill="rgb(0, 0, 0)" stroke="rgb(204, 204, 204)" stroke-width="1px"></line></g><g transform="translate(0, 8)"><text x="12.589488885702979" y="0" dx="0em" dy="0.95em" style="text-anchor: middle; visibility: hidden; font-family: Roboto, sans-serif; font-size: 12px; font-weight: 200;" fill="rgb(33, 33, 33)" stroke="none" stroke-width="1px">-100k</text><text x="35.906048324812936" y="0" dx="0em" dy="0.95em" style="text-anchor: middle; visibility: inherit; font-family: Roboto, sans-serif; font-size: 12px; font-weight: 200;" fill="rgb(33, 33, 33)" stroke="none" stroke-width="1px">-50k</text><text x="59.22260776392289" y="0" dx="0em" dy="0.95em" style="text-anchor: middle; visibility: hidden; font-family: Roboto, sans-serif; font-size: 12px; font-weight: 200;" fill="rgb(33, 33, 33)" stroke="none" stroke-width="1px">0</text><text x="82.53916720303285" y="0" dx="0em" dy="0.95em" style="text-anchor: middle; visibility: inherit; font-family: Roboto, sans-serif; font-size: 12px; font-weight: 200;" fill="rgb(33, 33, 33)" stroke="none" stroke-width="1px">50k</text><text x="105.8557266421428" y="0" dx="0em" dy="0.95em" style="text-anchor: middle; visibility: hidden; font-family: Roboto, sans-serif; font-size: 12px; font-weight: 200;" fill="rgb(33, 33, 33)" stroke="none" stroke-width="1px">100k</text><text x="129.17228608125276" y="0" dx="0em" dy="0.95em" style="text-anchor: middle; visibility: inherit; font-family: Roboto, sans-serif; font-size: 12px; font-weight: 200;" fill="rgb(33, 33, 33)" stroke="none" stroke-width="1px">150k</text><text x="152.4888455203627" y="0" dx="0em" dy="0.95em" style="text-anchor: middle; visibility: hidden; font-family: Roboto, sans-serif; font-size: 12px; font-weight: 200;" fill="rgb(33, 33, 33)" stroke="none" stroke-width="1px">200k</text><text x="175.80540495947267" y="0" dx="0em" dy="0.95em" style="text-anchor: middle; visibility: inherit; font-family: Roboto, sans-serif; font-size: 12px; font-weight: 200;" fill="rgb(33, 33, 33)" stroke="none" stroke-width="1px">250k</text><text x="199.1219643985826" y="0" dx="0em" dy="0.95em" style="text-anchor: middle; visibility: hidden; font-family: Roboto, sans-serif; font-size: 12px; font-weight: 200;" fill="rgb(33, 33, 33)" stroke="none" stroke-width="1px">300k</text><text x="222.43852383769257" y="0" dx="0em" dy="0.95em" style="text-anchor: middle; visibility: inherit; font-family: Roboto, sans-serif; font-size: 12px; font-weight: 200;" fill="rgb(33, 33, 33)" stroke="none" stroke-width="1px">350k</text><text x="245.75508327680254" y="0" dx="0em" dy="0.95em" style="text-anchor: middle; visibility: hidden; font-family: Roboto, sans-serif; font-size: 12px; font-weight: 200;" fill="rgb(33, 33, 33)" stroke="none" stroke-width="1px">400k</text><text x="269.0716427159125" y="0" dx="0em" dy="0.95em" style="text-anchor: middle; visibility: hidden; font-family: Roboto, sans-serif; font-size: 12px; font-weight: 200;" fill="rgb(33, 33, 33)" stroke="none" stroke-width="1px">450k</text></g><line x1="0" y1="0" x2="280" y2="0" fill="rgb(0, 0, 0)" stroke="rgb(204, 204, 204)" stroke-width="1px"></line></g></g></g></g></svg>