<svg viewBox="0 0 330 200" xmlns="http://www.w3.org/2000/svg"><g><g><g><g><g><line x1="40.984375" y1="178" x2="35.984375" y2="178" style="visibility: inherit;" fill="rgb(0, 0, 0)" stroke="rgb(204, 204, 204)" stroke-width="1px"></line><line x1="40.984375" y1="158.22222222222223" x2="35.984375" y2="158.22222222222223" style="visibility: inherit;" fill="rgb(0, 0, 0)" stroke="rgb(204, 204, 204)" stroke-width="1px"></line><line x1="40.984375" y1="138.44444444444446" x2="35.984375" y2="138.44444444444446" style="visibility: inherit;" fill="rgb(0, 0, 0)" stroke="rgb(204, 204, 204)" stroke-width="1px"></line><line x1="40.984375" y1="118.66666666666667" x2="35.984375" y2="118.66666666666667" style="visibility: inherit;" fill="rgb(0, 0, 0)" stroke="rgb(204, 204, 204)" stroke-width="1px"></line><line x1="40.984375" y1="98.8888888888889" x2="35.984375" y2="98.8888888888889" style="visibility: inherit;" fill="rgb(0, 0, 0)" stroke="rgb(204, 204, 204)" stroke-width="1px"></line><line x1="40.984375" y1="79.1111111111111" x2="35.984375" y2="79.1111111111111" style="visibility: inherit;" fill="rgb(0, 0, 0)" stroke="rgb(204, 204, 204)" stroke-width="1px"></line><line x1="40.984375" y1="59.33333333333334" x2="35.984375" y2="59.33333333333334" style="visibility: inherit;" fill="rgb(0, 0, 0)" stroke="rgb(204, 204, 204)" stroke-width="1px"></line><line x1="40.984375" y1="39.55555555555554" x2="35.984375" y2="39.55555555555554" style="visibility: inherit;" fill="rgb(0, 0, 0)" stroke="rgb(204, 204, 204)" stroke-width="1px"></line><line x1="40.984375" y1="19.7777777777778" x2="35.984375" y2="19.7777777777778" style="visibility: inherit;" fill="rgb(0, 0, 0)" stroke="rgb(204, 204, 204)" stroke-width="1px"></line><line x1="40.984375" y1="0" x2="35.984375" y2="0" style="visibility: inherit;" fill="rgb(0, 0, 0)" stroke="rgb(204, 204, 204)" stroke-width="1px"></line></g><g transform="translate(30.984375, 0)"><text x="0" y="178" dx="0em" dy="0.3em" style="text-anchor: end; visibility: hidden; font-family: &quot;Helvetica Neue&quot;, sans-serif; font-size: 14px; font-weight: 200;" fill="rgb(50, 49, 63)" stroke="none" stroke-width="1px">-20</text><text x="0" y="158.22222222222223" dx="0em" dy="0.3em" style="text-anchor: end; visibility: inherit; font-family: &quot;Helvetica Neue&quot;, sans-serif; font-size: 14px; font-weight: 200;" fill="rgb(50, 49, 63)" stroke="none" stroke-width="1px">0</text><text x="0" y="138.44444444444446" dx="0em" dy="0.3em" style="text-anchor: end; visibility: hidden; font-family: &quot;Helvetica Neue&quot;, sans-serif; font-size: 14px; font-weight: 200;" fill="rgb(50, 49, 63)" stroke="none" stroke-width="1px">20</text><text x="0" y="118.66666666666667" dx="0em" dy="0.3em" style="text-anchor: end; visibility: inherit; font-family: &quot;Helvetica Neue&quot;, sans-serif; font-size: 14px; font-weight: 200;" fill="rgb(50, 49, 63)" stroke="none" stroke-width="1px">40</text><text x="0" y="98.8888888888889" dx="0em" dy="0.3em" style="text-anchor: end; visibility: hidden; font-family: &quot;Helvetica Neue&quot;, sans-serif; font-size: 14px; font-weight: 200;" fill="rgb(50, 49, 63)" stroke="none" stroke-width="1px">60</text><text x="0" y="79.1111111111111" dx="0em" dy="0.3em" style="text-anchor: end; visibility: inherit; font-family: &quot;Helvetica Neue&quot;, sans-serif; font-size: 14px; font-weight: 200;" fill="rgb(50, 49, 63)" stroke="none" stroke-width="1px">80</text><text x="0" y="59.33333333333334" dx="0em" dy="0.3em" style="text-anchor: end; visibility: hidden; font-family: &quot;Helvetica Neue&quot;, sans-serif; font-size: 14px; font-weight: 200;" fill="rgb(50, 49, 63)" stroke="none" stroke-width="1px">100</text><text x="0" y="39.55555555555554" dx="0em" dy="0.3em" style="text-anchor: end; visibility: inherit; font-family: &quot;Helvetica Neue&quot;, sans-serif; font-size: 14px; font-weight: 200;" fill="rgb(50, 49, 63)" stroke="none" stroke-width="1px">120</text><text x="0" y="19.7777777777778" dx="0em" dy="0.3em" style="text-anchor: end; visibility: hidden; font-family: &quot;Helvetica Neue&quot;, sans-serif; font-size: 14px; font-weight: 200;" fill="rgb(50, 49, 63)" stroke="none" stroke-width="1px">140</text><text x="0" y="0" dx="0em" dy="0.3em" style="text-anchor: end; visibility: hidden; font-family: &quot;Helvetica Neue&quot;, sans-serif; font-size: 14px; font-weight: 200;" fill="rgb(50, 49, 63)" stroke="none" stroke-width="1px">160</text></g><line x1="40.984375" y1="0" x2="40.984375" y2="178" fill="rgb(0, 0, 0)" stroke="rgb(204, 204, 204)" stroke-width="1px"></line></g></g><g transform="translate(40, 0)" clip-path="url(#clip_0)"><clipPath id="clip_0"><rect width="289" height="178"></rect></clipPath><g><g><g><line x1="0" y1="0" x2="0" y2="178" fill="rgb(0, 0, 0)" stroke="rgb(60, 60, 60)" stroke-width="1px" opacity="0.25"></line><line x1="24.084635416666664" y1="0" x2="24.084635416666664" y2="178" fill="rgb(0, 0, 0)" stroke="rgb(60, 60, 60)" stroke-width="1px" opacity="0.25"></line><line x1="48.16927083333333" y1="0" x2="48.16927083333333" y2="178" fill="rgb(0, 0, 0)" stroke="rgb(60, 60, 60)" stroke-width="1px" opacity="0.25"></line><line x1="72.25390625" y1="0" x2="72.25390625" y2="178" fill="rgb(0, 0, 0)" stroke="rgb(60, 60, 60)" stroke-width="1px" opacity="0.25"></line><line x1="96.33854166666666" y1="0" x2="96.33854166666666" y2="178" fill="rgb(0, 0, 0)" stroke="rgb(60, 60, 60)" stroke-width="1px" opacity="0.25"></line><line x1="120.42317708333334" y1="0" x2="120.42317708333334" y2="178" fill="rgb(0, 0, 0)" stroke="rgb(60, 60, 60)" stroke-width="1px" opacity="0.25"></line><line x1="144.5078125" y1="0" x2="144.5078125" y2="178" fill="rgb(0, 0, 0)" stroke="rgb(60, 60, 60)" stroke-width="1px" opacity="0.25"></line><line x1="168.59244791666669" y1="0" x2="168.59244791666669" y2="178" fill="rgb(0, 0, 0)" stroke="rgb(60, 60, 60)" stroke-width="1px" opacity="0.25"></line><line x1="192.67708333333331" y1="0" x2="192.67708333333331" y2="178" fill="rgb(0, 0, 0)" stroke="rgb(60, 60, 60)" stroke-width="1px" opacity="0.25"></line><line x1="216.76171875" y1="0" x2="216.76171875" y2="178" fill="rgb(0, 0, 0)" stroke="rgb(60, 60, 60)" stroke-width="1px" opacity="0.25"></line><line x1="240.84635416666669" y1="0" x2="240.84635416666669" y2="178" fill="rgb(0, 0, 0)" stroke="rgb(60, 60, 60)" stroke-width="1px" opacity="0.25"></line><line x1="264.9309895833333" y1="0" x2="264.9309895833333" y2="178" fill="rgb(0, 0, 0)" stroke="rgb(60, 60, 60)" stroke-width="1px" opacity="0.25"></line><line x1="289.015625" y1="0" x2="289.015625" y2="178" fill="rgb(0, 0, 0)" stroke="rgb(60, 60, 60)" stroke-width="1px" opacity="0.25"></line></g><g><line x1="0" y1="178" x2="289.015625" y2="178" fill="rgb(0, 0, 0)" stroke="rgb(60, 60, 60)" stroke-width="1px" opacity="0.25"></line><line x1="0" y1="158.22222222222223" x2="289.015625" y2="158.22222222222223" fill="rgb(0, 0, 0)" stroke="rgb(60, 60, 60)" stroke-width="1px" opacity="0.25"></line><line x1="0" y1="138.44444444444446" x2="289.015625" y2="138.44444444444446" fill="rgb(0, 0, 0)" stroke="rgb(60, 60, 60)" stroke-width="1px" opacity="0.25"></line><line x1="0" y1="118.66666666666667" x2="289.015625" y2="118.66666666666667" fill="rgb(0, 0, 0)" stroke="rgb(60, 60, 60)" stroke-width="1px" opacity="0.25"></line><line x1="0" y1="98.8888888888889" x2="289.015625" y2="98.8888888888889" fill="rgb(0, 0, 0)" stroke="rgb(60, 60, 60)" stroke-width="1px" opacity="0.25"></line><line x1="0" y1="79.1111111111111" x2="289.015625" y2="79.1111111111111" fill="rgb(0, 0, 0)" stroke="rgb(60, 60, 60)" stroke-width="1px" opacity="0.25"></line><line x1="0" y1="59.33333333333334" x2="289.015625" y2="59.33333333333334" fill="rgb(0, 0, 0)" stroke="rgb(60, 60, 60)" stroke-width="1px" opacity="0.25"></line><line x1="0" y1="39.55555555555554" x2="289.015625" y2="39.55555555555554" fill="rgb(0, 0, 0)" stroke="rgb(60, 60, 60)" stroke-width="1px" opacity="0.25"></line><line x1="0" y1="19.7777777777778" x2="289.015625" y2="19.7777777777778" fill="rgb(0, 0, 0)" stroke="rgb(60, 60, 60)" stroke-width="1px" opacity="0.25"></line><line x1="0" y1="0" x2="289.015625" y2="0" fill="rgb(0, 0, 0)" stroke="rgb(60, 60, 60)" stroke-width="1px" opacity="0.25"></line></g></g></g><g><g><line x1="0" y1="158.22222222222223" x2="289.015625" y2="158.22222222222223" fill="rgb(0, 0, 0)" stroke="rgb(153, 153, 153)" stroke-width="1.5px"></line></g></g><g><g><line x1="24.084635416666664" y1="0" x2="24.084635416666664" y2="178" fill="rgb(0, 0, 0)" stroke="rgb(153, 153, 153)" stroke-width="1.5px"></line></g></g><g><g><g><g><g><path stroke="rgb(0, 119, 187)" stroke-width="2px" d="M33.71848958333334,-1.6121200561523494L34.320605468749996,6.068940395779066L34.92272135416667,12.812566290961371L35.524837239583334,20.098379007975268L36.126953125,26.180024549696185L36.729069010416666,30.880174085828997L37.33118489583334,32.38013576931422L37.933300781250004,37.64190707736546L38.53541666666666,41.68223402235242L39.13753255208333,44.774865722656244L39.7396484375,49.11006673177084L40.34176432291667,50.58759070502387L40.94388020833333,53.48533723619249L41.54599609375,54.3417576260037L42.14811197916667,57.138036515977646L42.75022786458334,59.34297536214193L43.352343749999996,60.28328442043727L43.95445963541666,62.594874064127595L44.556575520833334,64.99883253309463L45.15869140625,67.59865697224936L45.760807291666666,66.97228724161783L46.36292317708334,67.02505433824327L46.965039062500004,69.57042922973633L47.56715494791666,71.9279052734375L48.16927083333333,72.0065579732259L48.77138671875,73.28051291571724L49.37350260416667,73.4314053853353L49.97561848958333,73.89024675157334L50.577734375,78.26356319851347L51.17985026041667,82.02413550482856L51.78196614583334,80.96061520046659L52.384082031249996,82.08988689846461L52.98619791666666,84.38518015543619L53.588313802083334,85.35611284044053L54.1904296875,84.93700900607638L54.792545572916666,86.81769502427842L55.39466145833334,87.1500356886122L55.996777343750004,88.35852593315973L56.59889322916666,89.9056037902832L57.20100911458333,89.61967010498047L57.803125,92.00393710666232L58.40524088541667,91.88734249538845L59.00735677083333,93.78000937567816L59.60947265625,93.17920837402345L60.21158854166667,93.18114734225803L60.81370442708334,94.3701422797309L61.415820312499996,95.93794898986816L62.01793619791666,94.9114162021213L62.620052083333334,94.53620698716905L63.22216796875,97.17634234958224L63.824283854166666,96.38195385403104L64.42639973958333,98.062273534139L65.028515625,99.18528696695964L65.63063151041666,99.38294478522407L66.23274739583333,99.66117163764106L66.83486328125001,98.62366142272948L67.43697916666667,100.45503200954862L68.03909505208333,99.958773083157L68.64121093749999,99.63457683987087L69.24332682291667,101.98755628797743L69.84544270833334,102.9392539554172L70.44755859375,101.88218053181966L71.04967447916667,102.9144849565294L71.65179036458333,101.86777407328287L72.25390625,102.71447321573893L72.85602213541667,103.13110618591308L73.45813802083333,103.50877117580838L74.06025390625,103.79684376186795L74.66236979166668,104.72434582180448L75.26448567708334,105.58003438313803L75.86660156250001,103.02757886250814L76.46871744791667,105.14563759697808L77.07083333333333,105.66440590752495L77.67294921874999,104.89279463026259L78.27506510416666,105.22423371209038L78.87718098958332,106.60068990919325L79.479296875,107.53655518425836L80.08141276041667,106.48118684556749L80.68352864583333,104.76979463365343L81.28564453125,107.50837224324545L81.88776041666667,107.37858585781521L82.48987630208333,108.38263566758897L83.0919921875,108.70632264879015L83.69410807291668,109.12785585191514L84.29622395833334,107.26024089389377L84.89833984375001,108.2302682240804L85.50045572916667,108.26756507025824L86.10257161458333,108.15020090738932L86.70468749999999,109.02979838053385L87.30680338541666,109.95356207953559L87.90891927083332,110.11735208299424L88.51103515625,109.18441789415148L89.11315104166667,109.30023918151856L89.71526692708333,111.00704803466796L90.3173828125,109.29380739000109L90.91949869791667,110.77469249301487L91.52161458333333,110.90572751363119L92.12373046875,110.17316720750597L92.72584635416668,110.07086588541667L93.32796223958334,110.44885906643339L93.93007812500001,112.13708173963758L94.53219401041667,110.90554644266764L95.13430989583333,111.21074909634059L95.73642578124999,113.09055239359537L96.33854166666666,112.32422612508138L96.94065755208332,113.19509069654677L97.5427734375,113.36223805745443L98.14488932291667,112.05303463406034L98.74700520833333,113.79609917534722L99.34912109375,112.97614195081923L99.95123697916667,112.35184699164496L100.55335286458333,112.60784738328722L101.15546875,112.55312622918024L101.75758463541668,112.28187060885959L102.35970052083334,113.17061593797472L102.96181640625001,114.02208705478245L103.56393229166667,113.49544592963325L104.16604817708333,114.72038722568088L104.76816406249999,114.37424744500055L105.37027994791666,116.30791558159723L105.97239583333332,113.90054694281685L106.57451171875,114.14114498562283L107.17662760416667,114.86072099473742L107.77874348958333,114.81066619025336L108.380859375,115.89623942905001L108.98297526041667,114.73673642476399L109.58509114583333,116.13273319668241L110.18720703125,113.24192771911622L110.78932291666668,116.20139304267036L111.39143880208334,115.68083665635851L111.99355468750001,116.79862920973036L112.59567057291667,116.31653908623589L113.19778645833333,115.27234056260852L113.79990234374999,115.62960866292318L114.40201822916666,115.1974186791314L115.00413411458332,115.55734248691135L115.60625,116.09955571492515L116.20836588541667,116.77660268147787L116.81048177083333,117.77596728006999L117.41259765625,115.8250747680664L118.01471354166667,116.25628017849392L118.61682942708333,115.81591559516059L119.2189453125,116.8755013783773L119.82106119791668,115.80798996819391L120.42317708333334,115.99157329135471L121.02529296875001,116.09092466566298L121.62740885416667,117.00539716084798L122.22952473958333,117.65216378106011L122.83164062499999,117.72793066236707L123.43375651041666,116.20681008232964L124.03587239583332,117.83074879116482L124.63798828125,116.43384666442871L125.24010416666667,116.8931293911404L125.84222005208333,117.9210918850369L126.4443359375,116.81994277106392L127.04645182291667,116.58581801520454L127.64856770833333,117.25381143358018L128.25068359374998,116.96309822930229L128.85279947916666,116.82410363091363L129.45491536458334,118.05004836188422L130.05703125,117.64660339355468L130.65914713541667,119.34781413608127L131.26126302083333,117.3787013583713L131.86337890625,116.9395325978597L132.46549479166666,117.72549752129449L133.06761067708334,118.75843569437663L133.66972656250002,119.24130291408963L134.27184244791667,120.4215687221951L134.87395833333335,119.3662720574273L135.47607421875,118.13423881530761L136.07819010416665,117.28855819702149L136.68030598958333,117.97262920803493L137.28242187499998,118.24334916008843L137.88453776041666,120.08347528245713L138.48665364583334,119.34550925360786L139.08876953125,118.799474673801L139.69088541666667,121.2478860643175L140.29300130208333,118.54752951727974L140.8951171875,118.60849384731716L141.49723307291666,118.8096297370063L142.09934895833334,119.83919546339246L142.70146484375002,119.71012581719293L143.30358072916667,118.7265294816759L143.90569661458335,119.37107043796115L144.5078125,116.73134248521592L145.10992838541665,119.4915052625868L145.71204427083333,121.346056705051L146.31416015624998,119.54377064175077L146.91627604166666,120.68297106424967L147.51839192708331,119.69719056023492L148.1205078125,121.13942455715603L148.72262369791665,119.14554655287L149.32473958333335,119.97393866644965L149.92685546875,121.7234802669949L150.52897135416669,121.67972899542914L151.13108723958334,120.86212192111546L151.73320312500002,120.51256065368652L152.33531901041667,120.80662367078992L152.93743489583335,119.07589836120606L153.53955078125,119.87354990641276L154.14166666666665,121.35075700547961L154.74378255208333,120.91818601820205L155.34589843749998,121.05067337883844L155.94801432291666,121.03207210964626L156.55013020833331,121.91806365119086L157.15224609375,120.38377015855576L157.75436197916665,120.55233213636609L158.35647786458335,120.31052695380316L158.95859375,121.73301667107475L159.56070963541669,122.57740338643391L160.16282552083334,121.04797617594402L160.76494140625002,120.64320335388183L161.36705729166667,121.35396347045898L161.96917317708335,120.88294885423448L162.5712890625,121.03144213358561L163.17340494791665,120.75605205959744L163.77552083333333,121.04678035312229L164.37763671874998,122.41012399461533L164.97975260416666,122.34345592922634L165.58186848958331,121.94989818996854L166.183984375,120.17529335021973L166.78610026041665,121.72311435275608L167.38821614583335,121.38887998792859L167.99033203125,121.68029484219022L168.59244791666669,122.03923407660591L169.19456380208334,121.55890185038248L169.79667968750002,121.26912417941622L170.39879557291667,121.17099126180013L171.00091145833335,123.01037423875596L171.60302734375,121.6370037926568L172.20514322916665,121.99049203660752L172.80725911458333,122.40919600592719L173.40937499999998,121.37123311360676L174.01149088541666,123.44225866529678L174.61360677083331,123.56988351609971L175.21572265625,121.98842103746202L175.81783854166665,121.58639068603516L176.41995442708335,121.35205090840657L177.0220703125,121.75074276394315L177.62418619791669,122.73391660054524L178.22630208333334,121.32310218811035L178.82841796875002,122.87510668436687L179.43053385416667,122.92130241394042L180.03264973958335,123.8103683895535L180.634765625,122.70325147840711L181.23688151041665,122.38375930786133L181.83899739583333,123.5382489098443L182.44111328124998,123.83873240152995L183.04322916666666,122.62503636678059L183.64534505208331,124.10636660257975L184.2474609375,123.05767148335775L184.84957682291665,122.51414549085828L185.45169270833335,123.86900143093533L186.05380859375,121.91280127631293L186.65592447916669,122.91939362419976L187.25804036458334,122.51286290486655L187.86015625000002,124.10944480895996L188.46227213541667,121.99144265916613L189.06438802083335,121.65601624382867L189.66650390625,123.27789149814183L190.26861979166665,123.74613346523708L190.87073567708333,123.36425857543945L191.47285156249998,122.6873210059272L192.07496744791666,122.40897721184623L192.67708333333331,122.67964812384712L193.27919921875,124.92620311313206L193.88131510416665,122.67784495883518L194.48343098958335,124.24316194322375L195.085546875,123.7728150261773L195.68766276041669,122.07494655185275L196.28977864583334,121.50753428141275L196.89189453125002,124.98599802652996L197.49401041666667,123.08273849487304L198.09612630208335,123.82179094950357L198.6982421875,124.09914262559678L199.30035807291665,123.88175561692981L199.90247395833333,123.80620752970378L200.50458984374998,123.83577113681369L201.10670572916666,124.32816344367134L201.70882161458331,123.41689364115398L202.3109375,124.92149149576824L202.91305338541665,123.16806441413033L203.51516927083335,124.27478523254395L204.11728515625,124.37853889465332L204.71940104166669,122.23729175991483L205.32151692708334,122.94377407497831L205.92363281250002,124.24348636203342L206.52574869791667,123.98432477315266L207.12786458333335,123.28400264316136L207.72998046875,123.58760583665637L208.33209635416665,124.71550064086914L208.93421223958333,123.20638355678983L209.53632812499998,124.35488272772895L210.13844401041666,124.72763239542644L210.74055989583331,123.16126670837403L211.34267578125,123.64313803778754L211.94479166666665,123.800986650255L212.54690755208335,125.13624165852866L213.1490234375,118.2990473429362L213.75113932291669,126.32134734259711L214.35325520833334,124.59520539177788L214.95537109375002,124.37164310879177L215.55748697916667,124.27165044148762L216.15960286458335,124.76409556070962L216.76171875,125.65542869567871L217.36383463541665,125.38625161912705L217.96595052083333,124.59786864386665L218.56806640624998,124.1133378346761L219.17018229166666,124.22402500576443L219.77229817708331,123.90574751959906L220.3744140625,126.0883014678955L220.97652994791665,123.93940408494737L221.57864583333335,124.18922920227051L222.18076171875,124.6367989010281L222.78287760416669,125.20441487630208L223.38499348958334,125.18640586005317L223.98710937500002,125.75910313924153L224.58922526041667,124.6410125732422L225.19134114583335,125.28365982903375L225.79345703125,124.8773592207167L226.39557291666665,125.86025767856174L226.99768880208333,124.13952145046659L227.59980468749998,124.9160254160563L228.20192057291666,122.86913134256997L228.80403645833331,124.98879708184137L229.40615234375,125.36494937472872L230.00826822916665,124.93824433220757L230.61038411458335,125.20623690287272L231.2125,126.38791732788086L231.81461588541669,125.79292568630643L232.41673177083334,125.63825336032443L233.01884765625002,126.72054657406278L233.62096354166667,126.02834434509278L234.22307942708335,125.75805066426597L234.8251953125,126.65204893747966L235.42731119791665,125.71866772969565L236.02942708333333,125.4881832546658L236.63154296874998,125.39432436625162L237.23365885416666,125.59188787672255L237.83577473958331,125.70115665859646L238.437890625,124.81593844095866L239.04000651041665,125.96101989746094L239.64212239583335,126.53289858500163L240.24423828125,125.61895798577203L240.84635416666669,124.62891099717882L241.44847005208334,126.11922310723199L242.05058593750002,125.58960562811959L242.65270182291667,125.90959951612683L243.25481770833335,126.36559655931262L243.85693359375,126.1542980617947L244.45904947916665,124.83475850423179L245.06116536458333,124.9737417856852L245.66328124999998,125.2953766292996L246.26539713541666,125.5178373972575L246.86751302083331,126.08324657016331L247.46962890625,124.8101139916314L248.07174479166665,124.86251517401801L248.67386067708335,125.74505127800836L249.2759765625,125.88773142496746L249.87809244791669,126.7413037194146L250.48020833333334,125.2805589887831L251.08232421875002,126.15316259596082L251.68444010416667,125.68773854573567L252.28655598958335,125.8395514594184L252.888671875,125.34294548034669L253.49078776041665,126.10339448716906L254.09290364583333,126.82816874186199L254.69501953124998,126.08967836168077L255.29713541666666,126.47578578525119L255.89925130208331,126.7635452694363L256.50136718749997,125.83801612854003L257.1034830729167,127.42253606584336L257.7055989583333,126.67083693610297L258.30771484375003,125.76034422980415L258.9098307291667,126.65977274576824L259.51194661458334,125.55879338582356L260.1140625,125.78391363355848L260.7161783854167,126.74778643714058L261.31829427083335,126.77317975362143L261.92041015625,126.76323216756185L262.52252604166665,125.16463584899903L263.1246419270833,127.30293680826821L263.7267578125,125.8109120686849L264.32887369791666,125.46061520046658L264.9309895833333,125.93207494947646L265.53310546874997,127.65160781012642L266.1352213541667,127.8090735329522L266.7373372395833,126.39807239108615L267.33945312500003,126.89718695746528L267.9415690104167,125.83790295918783L268.54368489583334,125.96567115783691L269.14580078125,126.27815437316895L269.7479166666667,126.23745112948947L270.35003255208335,126.99555187225342L270.9521484375,126.05977524651422L271.55426432291665,127.24261565738254L272.1563802083333,125.21094097561306L272.75849609375,125.68800637986925L273.36061197916666,126.4624506632487L273.9627278645833,126.05180812411838L274.56484374999997,126.79112086825901L275.1669596354167,125.97536599900988L275.7690755208333,126.58930219014485L276.37119140625003,127.73614908854165L276.9733072916667,126.91107283698187L277.57542317708334,126.62048034667968L278.1775390625,127.70059316423203L278.7796549479167,126.98693025377062L279.38177083333335,125.89048898484972L279.98388671875,126.5977427376641L280.58600260416665,126.78006610870361L281.1881184895833,126.4205138736301L281.790234375,127.28386965857612" style="fill: none;" fill="none"></path></g><g><path stroke="rgb(255, 112, 67)" stroke-width="2px" d="M28.9015625,15.309942287868921L33.71848958333334,84.61078703138564L38.53541666666666,103.30541716681586L43.352343749999996,113.27840220133463L48.16927083333333,117.30212720235188L52.98619791666666,124.22634497748481L57.803125,128.06591515011257L62.620052083333334,127.45084726545545L67.43697916666667,131.1167496363322L72.25390625,132.0999046113756L77.07083333333333,133.2720090230306L81.88776041666667,134.18276767730714L86.70468749999999,134.476838239034L91.52161458333333,135.69428017934163L96.33854166666666,135.66714028252494L101.15546875,135.93251675499812L105.97239583333332,136.16993096669515L110.78932291666668,136.78544587029353L115.60625,137.15636596679687L120.42317708333334,136.79538968404134L125.24010416666667,137.46103672451443L130.05703125,137.74768903520373L134.87395833333335,137.52742563883464L139.69088541666667,137.94236861334906L144.5078125,137.88546140458848L149.32473958333335,138.06108703613282L154.14166666666665,138.48025499979656L158.95859375,138.10072837405735L163.77552083333333,137.83128346337213L168.59244791666669,138.96604387495253L173.40937499999998,138.22823439704047L178.22630208333334,138.367289352417L183.04322916666666,139.0831194559733L187.86015625000002,138.63035151163737L192.67708333333331,138.89016571044922L197.49401041666667,138.64260209401448L202.3109375,139.18672977023655L207.12786458333335,138.99052240583632L211.94479166666665,139.1350792778863L216.76171875,139.41767446729872L221.57864583333335,139.30229076809354L226.39557291666665,139.4923002243042L231.2125,139.6643044365777L236.02942708333333,139.29212627410888L240.84635416666669,139.14192413753932L245.66328124999998,139.39240752326117L250.48020833333334,139.4719731224908L255.29713541666666,139.4570536295573L260.1140625,139.49611780378552L264.9309895833333,139.58113627963596L269.7479166666667,139.5580629348755L274.56484374999997,139.34016666412353L279.38177083333335,139.3796231587728" style="fill: none;" fill="none"></path></g></g></g></g></g></g><g transform="translate(40, 178)" clip-path="url(#clip_1)"><clipPath id="clip_1"><rect width="289" height="22"></rect></clipPath><g><g><line x1="0" y1="0" x2="0" y2="5" style="visibility: inherit;" fill="rgb(0, 0, 0)" stroke="rgb(204, 204, 204)" stroke-width="1px"></line><line x1="24.084635416666664" y1="0" x2="24.084635416666664" y2="5" style="visibility: inherit;" fill="rgb(0, 0, 0)" stroke="rgb(204, 204, 204)" stroke-width="1px"></line><line x1="48.16927083333333" y1="0" x2="48.16927083333333" y2="5" style="visibility: inherit;" fill="rgb(0, 0, 0)" stroke="rgb(204, 204, 204)" stroke-width="1px"></line><line x1="72.25390625" y1="0" x2="72.25390625" y2="5" style="visibility: inherit;" fill="rgb(0, 0, 0)" stroke="rgb(204, 204, 204)" stroke-width="1px"></line><line x1="96.33854166666666" y1="0" x2="96.33854166666666" y2="5" style="visibility: inherit;" fill="rgb(0, 0, 0)" stroke="rgb(204, 204, 204)" stroke-width="1px"></line><line x1="120.42317708333334" y1="0" x2="120.42317708333334" y2="5" style="visibility: inherit;" fill="rgb(0, 0, 0)" stroke="rgb(204, 204, 204)" stroke-width="1px"></line><line x1="144.5078125" y1="0" x2="144.5078125" y2="5" style="visibility: inherit;" fill="rgb(0, 0, 0)" stroke="rgb(204, 204, 204)" stroke-width="1px"></line><line x1="168.59244791666669" y1="0" x2="168.59244791666669" y2="5" style="visibility: inherit;" fill="rgb(0, 0, 0)" stroke="rgb(204, 204, 204)" stroke-width="1px"></line><line x1="192.67708333333331" y1="0" x2="192.67708333333331" y2="5" style="visibility: inherit;" fill="rgb(0, 0, 0)" stroke="rgb(204, 204, 204)" stroke-width="1px"></line><line x1="216.76171875" y1="0" x2="216.76171875" y2="5" style="visibility: inherit;" fill="rgb(0, 0, 0)" stroke="rgb(204, 204, 204)" stroke-width="1px"></line><line x1="240.84635416666669" y1="0" x2="240.84635416666669" y2="5" style="visibility: inherit;" fill="rgb(0, 0, 0)" stroke="rgb(204, 204, 204)" stroke-width="1px"></line><line x1="264.9309895833333" y1="0" x2="264.9309895833333" y2="5" style="visibility: inherit;" fill="rgb(0, 0, 0)" stroke="rgb(204, 204, 204)" stroke-width="1px"></line><line x1="289.015625" y1="0" x2="289.015625" y2="5" style="visibility: inherit;" fill="rgb(0, 0, 0)" stroke="rgb(204, 204, 204)" stroke-width="1px"></line></g><g transform="translate(0, 8)"><text x="0" y="0" dx="0em" dy="0.95em" style="text-anchor: middle; visibility: hidden; font-family: &quot;Helvetica Neue&quot;, sans-serif; font-size: 14px; font-weight: 200;" fill="rgb(50, 49, 63)" stroke="none" stroke-width="1px">-20k</text><text x="24.084635416666664" y="0" dx="0em" dy="0.95em" style="text-anchor: middle; visibility: inherit; font-family: &quot;Helvetica Neue&quot;, sans-serif; font-size: 14px; font-weight: 200;" fill="rgb(50, 49, 63)" stroke="none" stroke-width="1px">0</text><text x="48.16927083333333" y="0" dx="0em" dy="0.95em" style="text-anchor: middle; visibility: hidden; font-family: &quot;Helvetica Neue&quot;, sans-serif; font-size: 14px; font-weight: 200;" fill="rgb(50, 49, 63)" stroke="none" stroke-width="1px">20k</text><text x="72.25390625" y="0" dx="0em" dy="0.95em" style="text-anchor: middle; visibility: inherit; font-family: &quot;Helvetica Neue&quot;, sans-serif; font-size: 14px; font-weight: 200;" fill="rgb(50, 49, 63)" stroke="none" stroke-width="1px">40k</text><text x="96.33854166666666" y="0" dx="0em" dy="0.95em" style="text-anchor: middle; visibility: hidden; font-family: &quot;Helvetica Neue&quot;, sans-serif; font-size: 14px; font-weight: 200;" fill="rgb(50, 49, 63)" stroke="none" stroke-width="1px">60k</text><text x="120.42317708333334" y="0" dx="0em" dy="0.95em" style="text-anchor: middle; visibility: inherit; font-family: &quot;Helvetica Neue&quot;, sans-serif; font-size: 14px; font-weight: 200;" fill="rgb(50, 49, 63)" stroke="none" stroke-width="1px">80k</text><text x="144.5078125" y="0" dx="0em" dy="0.95em" style="text-anchor: middle; visibility: hidden; font-family: &quot;Helvetica Neue&quot;, sans-serif; font-size: 14px; font-weight: 200;" fill="rgb(50, 49, 63)" stroke="none" stroke-width="1px">100k</text><text x="168.59244791666669" y="0" dx="0em" dy="0.95em" style="text-anchor: middle; visibility: inherit; font-family: &quot;Helvetica Neue&quot;, sans-serif; font-size: 14px; font-weight: 200;" fill="rgb(50, 49, 63)" stroke="none" stroke-width="1px">120k</text><text x="192.67708333333331" y="0" dx="0em" dy="0.95em" style="text-anchor: middle; visibility: hidden; font-family: &quot;Helvetica Neue&quot;, sans-serif; font-size: 14px; font-weight: 200;" fill="rgb(50, 49, 63)" stroke="none" stroke-width="1px">140k</text><text x="216.76171875" y="0" dx="0em" dy="0.95em" style="text-anchor: middle; visibility: inherit; font-family: &quot;Helvetica Neue&quot;, sans-serif; font-size: 14px; font-weight: 200;" fill="rgb(50, 49, 63)" stroke="none" stroke-width="1px">160k</text><text x="240.84635416666669" y="0" dx="0em" dy="0.95em" style="text-anchor: middle; visibility: hidden; font-family: &quot;Helvetica Neue&quot;, sans-serif; font-size: 14px; font-weight: 200;" fill="rgb(50, 49, 63)" stroke="none" stroke-width="1px">180k</text><text x="264.9309895833333" y="0" dx="0em" dy="0.95em" style="text-anchor: middle; visibility: inherit; font-family: &quot;Helvetica Neue&quot;, sans-serif; font-size: 14px; font-weight: 200;" fill="rgb(50, 49, 63)" stroke="none" stroke-width="1px">200k</text><text x="289.015625" y="0" dx="0em" dy="0.95em" style="text-anchor: middle; visibility: hidden; font-family: &quot;Helvetica Neue&quot;, sans-serif; font-size: 14px; font-weight: 200;" fill="rgb(50, 49, 63)" stroke="none" stroke-width="1px">220k</text></g><line x1="0" y1="0" x2="289.015625" y2="0" fill="rgb(0, 0, 0)" stroke="rgb(204, 204, 204)" stroke-width="1px"></line></g></g></g></g></svg>