<svg viewBox="0 0 330 200" xmlns="http://www.w3.org/2000/svg"><g><g><g><g><g><line x1="40.984375" y1="178" x2="35.984375" y2="178" style="visibility: inherit;" fill="rgb(0, 0, 0)" stroke="rgb(204, 204, 204)" stroke-width="1px"></line><line x1="40.984375" y1="161.8181818181818" x2="35.984375" y2="161.8181818181818" style="visibility: inherit;" fill="rgb(0, 0, 0)" stroke="rgb(204, 204, 204)" stroke-width="1px"></line><line x1="40.984375" y1="145.63636363636363" x2="35.984375" y2="145.63636363636363" style="visibility: inherit;" fill="rgb(0, 0, 0)" stroke="rgb(204, 204, 204)" stroke-width="1px"></line><line x1="40.984375" y1="129.45454545454547" x2="35.984375" y2="129.45454545454547" style="visibility: inherit;" fill="rgb(0, 0, 0)" stroke="rgb(204, 204, 204)" stroke-width="1px"></line><line x1="40.984375" y1="113.27272727272727" x2="35.984375" y2="113.27272727272727" style="visibility: inherit;" fill="rgb(0, 0, 0)" stroke="rgb(204, 204, 204)" stroke-width="1px"></line><line x1="40.984375" y1="97.0909090909091" x2="35.984375" y2="97.0909090909091" style="visibility: inherit;" fill="rgb(0, 0, 0)" stroke="rgb(204, 204, 204)" stroke-width="1px"></line><line x1="40.984375" y1="80.90909090909092" x2="35.984375" y2="80.90909090909092" style="visibility: inherit;" fill="rgb(0, 0, 0)" stroke="rgb(204, 204, 204)" stroke-width="1px"></line><line x1="40.984375" y1="64.72727272727273" x2="35.984375" y2="64.72727272727273" style="visibility: inherit;" fill="rgb(0, 0, 0)" stroke="rgb(204, 204, 204)" stroke-width="1px"></line><line x1="40.984375" y1="48.54545454545453" x2="35.984375" y2="48.54545454545453" style="visibility: inherit;" fill="rgb(0, 0, 0)" stroke="rgb(204, 204, 204)" stroke-width="1px"></line><line x1="40.984375" y1="32.363636363636346" x2="35.984375" y2="32.363636363636346" style="visibility: inherit;" fill="rgb(0, 0, 0)" stroke="rgb(204, 204, 204)" stroke-width="1px"></line><line x1="40.984375" y1="16.181818181818187" x2="35.984375" y2="16.181818181818187" style="visibility: inherit;" fill="rgb(0, 0, 0)" stroke="rgb(204, 204, 204)" stroke-width="1px"></line><line x1="40.984375" y1="0" x2="35.984375" y2="0" style="visibility: inherit;" fill="rgb(0, 0, 0)" stroke="rgb(204, 204, 204)" stroke-width="1px"></line></g><g transform="translate(30.984375, 0)"><text x="0" y="178" dx="0em" dy="0.3em" style="text-anchor: end; visibility: hidden; font-family: &quot;Helvetica Neue&quot;, sans-serif; font-size: 14px; font-weight: 200;" fill="rgb(50, 49, 63)" stroke="none" stroke-width="1px">-10</text><text x="0" y="161.8181818181818" dx="0em" dy="0.3em" style="text-anchor: end; visibility: inherit; font-family: &quot;Helvetica Neue&quot;, sans-serif; font-size: 14px; font-weight: 200;" fill="rgb(50, 49, 63)" stroke="none" stroke-width="1px">0</text><text x="0" y="145.63636363636363" dx="0em" dy="0.3em" style="text-anchor: end; visibility: hidden; font-family: &quot;Helvetica Neue&quot;, sans-serif; font-size: 14px; font-weight: 200;" fill="rgb(50, 49, 63)" stroke="none" stroke-width="1px">10</text><text x="0" y="129.45454545454547" dx="0em" dy="0.3em" style="text-anchor: end; visibility: inherit; font-family: &quot;Helvetica Neue&quot;, sans-serif; font-size: 14px; font-weight: 200;" fill="rgb(50, 49, 63)" stroke="none" stroke-width="1px">20</text><text x="0" y="113.27272727272727" dx="0em" dy="0.3em" style="text-anchor: end; visibility: hidden; font-family: &quot;Helvetica Neue&quot;, sans-serif; font-size: 14px; font-weight: 200;" fill="rgb(50, 49, 63)" stroke="none" stroke-width="1px">30</text><text x="0" y="97.0909090909091" dx="0em" dy="0.3em" style="text-anchor: end; visibility: inherit; font-family: &quot;Helvetica Neue&quot;, sans-serif; font-size: 14px; font-weight: 200;" fill="rgb(50, 49, 63)" stroke="none" stroke-width="1px">40</text><text x="0" y="80.90909090909092" dx="0em" dy="0.3em" style="text-anchor: end; visibility: hidden; font-family: &quot;Helvetica Neue&quot;, sans-serif; font-size: 14px; font-weight: 200;" fill="rgb(50, 49, 63)" stroke="none" stroke-width="1px">50</text><text x="0" y="64.72727272727273" dx="0em" dy="0.3em" style="text-anchor: end; visibility: inherit; font-family: &quot;Helvetica Neue&quot;, sans-serif; font-size: 14px; font-weight: 200;" fill="rgb(50, 49, 63)" stroke="none" stroke-width="1px">60</text><text x="0" y="48.54545454545453" dx="0em" dy="0.3em" style="text-anchor: end; visibility: hidden; font-family: &quot;Helvetica Neue&quot;, sans-serif; font-size: 14px; font-weight: 200;" fill="rgb(50, 49, 63)" stroke="none" stroke-width="1px">70</text><text x="0" y="32.363636363636346" dx="0em" dy="0.3em" style="text-anchor: end; visibility: inherit; font-family: &quot;Helvetica Neue&quot;, sans-serif; font-size: 14px; font-weight: 200;" fill="rgb(50, 49, 63)" stroke="none" stroke-width="1px">80</text><text x="0" y="16.181818181818187" dx="0em" dy="0.3em" style="text-anchor: end; visibility: hidden; font-family: &quot;Helvetica Neue&quot;, sans-serif; font-size: 14px; font-weight: 200;" fill="rgb(50, 49, 63)" stroke="none" stroke-width="1px">90</text><text x="0" y="0" dx="0em" dy="0.3em" style="text-anchor: end; visibility: hidden; font-family: &quot;Helvetica Neue&quot;, sans-serif; font-size: 14px; font-weight: 200;" fill="rgb(50, 49, 63)" stroke="none" stroke-width="1px">100</text></g><line x1="40.984375" y1="0" x2="40.984375" y2="178" fill="rgb(0, 0, 0)" stroke="rgb(204, 204, 204)" stroke-width="1px"></line></g></g><g transform="translate(40, 0)" clip-path="url(#clip_0)"><clipPath id="clip_0"><rect width="289" height="178"></rect></clipPath><g><g><g><line x1="0" y1="0" x2="0" y2="178" fill="rgb(0, 0, 0)" stroke="rgb(60, 60, 60)" stroke-width="1px" opacity="0.25"></line><line x1="32.11284722222222" y1="0" x2="32.11284722222222" y2="178" fill="rgb(0, 0, 0)" stroke="rgb(60, 60, 60)" stroke-width="1px" opacity="0.25"></line><line x1="64.22569444444444" y1="0" x2="64.22569444444444" y2="178" fill="rgb(0, 0, 0)" stroke="rgb(60, 60, 60)" stroke-width="1px" opacity="0.25"></line><line x1="96.33854166666666" y1="0" x2="96.33854166666666" y2="178" fill="rgb(0, 0, 0)" stroke="rgb(60, 60, 60)" stroke-width="1px" opacity="0.25"></line><line x1="128.45138888888889" y1="0" x2="128.45138888888889" y2="178" fill="rgb(0, 0, 0)" stroke="rgb(60, 60, 60)" stroke-width="1px" opacity="0.25"></line><line x1="160.56423611111111" y1="0" x2="160.56423611111111" y2="178" fill="rgb(0, 0, 0)" stroke="rgb(60, 60, 60)" stroke-width="1px" opacity="0.25"></line><line x1="192.67708333333331" y1="0" x2="192.67708333333331" y2="178" fill="rgb(0, 0, 0)" stroke="rgb(60, 60, 60)" stroke-width="1px" opacity="0.25"></line><line x1="224.78993055555557" y1="0" x2="224.78993055555557" y2="178" fill="rgb(0, 0, 0)" stroke="rgb(60, 60, 60)" stroke-width="1px" opacity="0.25"></line><line x1="256.90277777777777" y1="0" x2="256.90277777777777" y2="178" fill="rgb(0, 0, 0)" stroke="rgb(60, 60, 60)" stroke-width="1px" opacity="0.25"></line><line x1="289.015625" y1="0" x2="289.015625" y2="178" fill="rgb(0, 0, 0)" stroke="rgb(60, 60, 60)" stroke-width="1px" opacity="0.25"></line></g><g><line x1="0" y1="178" x2="289.015625" y2="178" fill="rgb(0, 0, 0)" stroke="rgb(60, 60, 60)" stroke-width="1px" opacity="0.25"></line><line x1="0" y1="161.8181818181818" x2="289.015625" y2="161.8181818181818" fill="rgb(0, 0, 0)" stroke="rgb(60, 60, 60)" stroke-width="1px" opacity="0.25"></line><line x1="0" y1="145.63636363636363" x2="289.015625" y2="145.63636363636363" fill="rgb(0, 0, 0)" stroke="rgb(60, 60, 60)" stroke-width="1px" opacity="0.25"></line><line x1="0" y1="129.45454545454547" x2="289.015625" y2="129.45454545454547" fill="rgb(0, 0, 0)" stroke="rgb(60, 60, 60)" stroke-width="1px" opacity="0.25"></line><line x1="0" y1="113.27272727272727" x2="289.015625" y2="113.27272727272727" fill="rgb(0, 0, 0)" stroke="rgb(60, 60, 60)" stroke-width="1px" opacity="0.25"></line><line x1="0" y1="97.0909090909091" x2="289.015625" y2="97.0909090909091" fill="rgb(0, 0, 0)" stroke="rgb(60, 60, 60)" stroke-width="1px" opacity="0.25"></line><line x1="0" y1="80.90909090909092" x2="289.015625" y2="80.90909090909092" fill="rgb(0, 0, 0)" stroke="rgb(60, 60, 60)" stroke-width="1px" opacity="0.25"></line><line x1="0" y1="64.72727272727273" x2="289.015625" y2="64.72727272727273" fill="rgb(0, 0, 0)" stroke="rgb(60, 60, 60)" stroke-width="1px" opacity="0.25"></line><line x1="0" y1="48.54545454545453" x2="289.015625" y2="48.54545454545453" fill="rgb(0, 0, 0)" stroke="rgb(60, 60, 60)" stroke-width="1px" opacity="0.25"></line><line x1="0" y1="32.363636363636346" x2="289.015625" y2="32.363636363636346" fill="rgb(0, 0, 0)" stroke="rgb(60, 60, 60)" stroke-width="1px" opacity="0.25"></line><line x1="0" y1="16.181818181818187" x2="289.015625" y2="16.181818181818187" fill="rgb(0, 0, 0)" stroke="rgb(60, 60, 60)" stroke-width="1px" opacity="0.25"></line><line x1="0" y1="0" x2="289.015625" y2="0" fill="rgb(0, 0, 0)" stroke="rgb(60, 60, 60)" stroke-width="1px" opacity="0.25"></line></g></g></g><g><g><line x1="0" y1="161.8181818181818" x2="289.015625" y2="161.8181818181818" fill="rgb(0, 0, 0)" stroke="rgb(153, 153, 153)" stroke-width="1.5px"></line></g></g><g><g><line x1="32.11284722222222" y1="0" x2="32.11284722222222" y2="178" fill="rgb(0, 0, 0)" stroke="rgb(153, 153, 153)" stroke-width="1.5px"></line></g></g><g><g><g><g><g><path stroke="rgb(0, 119, 187)" stroke-width="2px" d="M40.14105902777778,-6.478035944158393L41.74670138888889,14.04902857000178L43.352343749999996,27.140039478648788L44.95798611111111,37.58319618918679L46.56362847222223,43.37324066162111L48.16927083333333,45.416424837979406L49.774913194444444,56.068187644264924L51.38055555555556,58.24816270308061L52.98619791666666,61.734904271906075L54.59184027777778,62.632427770441225L56.19748263888889,68.0186428416859L57.803125,66.15608312433416L59.40876736111111,68.4633860501376L61.01440972222222,72.83620043667881L62.620052083333334,71.72752144553445L64.22569444444444,72.86371910788797L65.83133680555555,76.45189333829013L67.43697916666667,80.17661153619939L69.04262152777778,82.80249647660689L70.64826388888889,85.16842318448154L72.25390625,83.76342156150125L73.85954861111111,88.93166011463512L75.46519097222223,89.8154798334295L77.07083333333333,92.49372308904474L78.67647569444443,92.9109167619185L80.28211805555556,94.38073355934837L81.88776041666667,96.47620814930309L83.49340277777777,97.0232914317738L85.0990451388889,98.42420661232688L86.70468749999999,97.24277413108132L88.31032986111111,99.94623974886807L89.91597222222222,99.63328122225674L91.52161458333333,101.38679712468927L93.12725694444445,105.44919003573331L94.73289930555556,102.57461853027344L96.33854166666666,103.79621172818271L97.94418402777778,104.3344184181907L99.54982638888889,106.0389278758656L101.15546875,107.00668633200905L102.76111111111112,108.63441141301935L104.36675347222221,106.86467319835316L105.97239583333332,107.51644841974432L107.57803819444445,109.25397040627219L109.18368055555555,109.73675086281516L110.78932291666668,110.56492212468928L112.39496527777779,110.96284408569336L114.00060763888888,111.74674349698152L115.60625,110.64481762972744L117.21189236111111,113.10521091114391L118.81753472222222,114.23862152099609L120.42317708333334,113.01047273115678L122.02881944444444,116.02203882390802L123.63446180555555,114.13906849947843L125.24010416666667,113.14776670282538L126.84574652777778,116.8124413576993L128.45138888888889,114.43970597007058L130.05703125,113.86108856201172L131.6626736111111,114.48203027898614L133.26831597222224,116.01297395879573L134.87395833333335,117.93171300021085L136.47960069444443,117.70485063032672L138.08524305555557,118.43277442238548L139.69088541666667,117.79225543629039L141.29652777777778,115.94878841746937L142.9021701388889,119.01244430541992L144.5078125,117.4902846249667L146.1134548611111,118.29366871226918L147.71909722222222,119.6894542347301L149.32473958333335,118.71609080921519L150.93038194444446,119.1461271459406L152.53602430555557,122.46051899303089L154.14166666666665,122.14283204512162L155.74730902777776,119.40142485878684L157.35295138888887,119.14761789495296L158.95859375,120.14298761541193L160.56423611111111,122.59397961009633L162.16987847222222,121.63252365805886L163.77552083333333,121.83298464688389L165.38116319444444,120.84498533769087L166.98680555555555,121.23563256697221L168.59244791666669,123.60587720003994L170.1980902777778,125.04510123512962L171.80373263888887,121.72957666570491L173.40937499999998,122.98436140580611L175.0150173611111,121.14767528880726L176.62065972222223,124.12733071067116L178.22630208333334,123.93142838911578L179.83194444444445,124.81793639443137L181.43758680555555,122.29484832070091L183.04322916666666,125.48820554559882L184.64887152777777,124.75915211764249L186.2545138888889,124.49148396578701L187.86015625000002,122.33787633722478L189.46579861111113,122.57259060252797L191.0714409722222,124.62488594055176L192.67708333333331,125.8345253684304L194.28272569444445,124.92217771356755L195.88836805555556,124.8565971027721L197.49401041666667,123.62650694413618L199.09965277777778,126.35920111916282L200.70529513888889,128.15211847478693L202.3109375,125.60025246360085L203.91657986111113,126.28239822387695L205.52222222222224,126.51356308676979L207.12786458333335,126.14194991371849L208.73350694444443,127.62255689447576L210.33914930555554,126.42416752901944L211.94479166666665,126.6955486644398L213.55043402777778,126.50546427640049L215.1560763888889,126.39661182056773L216.76171875,128.81104805686257L218.3673611111111,127.29409519542347L219.97300347222222,126.91453444740989L221.57864583333335,127.65502312400125L223.18428819444446,127.78844670382412L224.78993055555557,130.0192059950395L226.39557291666665,128.16551361083984L228.00121527777776,128.46994431235572L229.60685763888887,127.83778031089089L231.2125,130.63582978682086L232.81814236111111,131.3667659412731L234.42378472222222,127.8766879341819L236.02942708333333,129.8638810591264L237.63506944444444,127.27831424366343L239.24071180555555,128.31702062433416L240.84635416666669,130.16981176896527L242.4519965277778,131.40336490977893L244.05763888888887,129.70602524497292L245.66328124999998,129.18151307539506L247.2689236111111,130.0743482763117L248.87456597222223,128.94051791104403L250.48020833333334,129.80205664201216L252.08585069444445,130.33355959111995L253.69149305555555,131.26390734585848L255.29713541666666,130.64821257157757L256.90277777777777,132.3408515930176L258.5084201388889,131.26238573247736L260.1140625,132.8794718655673L261.7197048611111,129.1848464272239L263.3253472222222,129.74721683155406" style="fill: none;" fill="none"></path></g><g><path stroke="rgb(255, 112, 67)" stroke-width="2px" d="M40.14105902777778,22.817842656915843L48.16927083333333,81.25846321799538L56.19748263888889,95.47671494917437L64.22569444444444,106.91732781150124L72.25390625,115.29900394786489L80.28211805555556,126.48752899169922L88.31032986111111,128.97024955749512L96.33854166666666,130.80838629982688L104.36675347222221,134.4493941567161L112.39496527777779,135.5158167405562L120.42317708333334,136.41781557256525L128.45138888888889,138.08972917036579L136.47960069444443,138.7582267067649L144.5078125,140.11299193989146L152.53602430555557,140.32380946766247L160.56423611111111,140.29820901697332L168.59244791666669,140.66153047735042L176.62065972222223,141.3861965352839L184.64887152777777,141.6413877660578L192.67708333333331,141.46994545676492L200.70529513888889,141.70587269176136L208.73350694444443,141.36175195520576L216.76171875,141.80924672213467L224.78993055555557,141.85445221987638L232.81814236111111,141.10394033952193L240.84635416666669,141.69350533918902L248.87456597222223,142.0845090519298L256.90277777777777,141.23833151730625" style="fill: none;" fill="none"></path></g></g></g></g></g></g><g transform="translate(40, 178)" clip-path="url(#clip_1)"><clipPath id="clip_1"><rect width="289" height="22"></rect></clipPath><g><g><line x1="0" y1="0" x2="0" y2="5" style="visibility: inherit;" fill="rgb(0, 0, 0)" stroke="rgb(204, 204, 204)" stroke-width="1px"></line><line x1="32.11284722222222" y1="0" x2="32.11284722222222" y2="5" style="visibility: inherit;" fill="rgb(0, 0, 0)" stroke="rgb(204, 204, 204)" stroke-width="1px"></line><line x1="64.22569444444444" y1="0" x2="64.22569444444444" y2="5" style="visibility: inherit;" fill="rgb(0, 0, 0)" stroke="rgb(204, 204, 204)" stroke-width="1px"></line><line x1="96.33854166666666" y1="0" x2="96.33854166666666" y2="5" style="visibility: inherit;" fill="rgb(0, 0, 0)" stroke="rgb(204, 204, 204)" stroke-width="1px"></line><line x1="128.45138888888889" y1="0" x2="128.45138888888889" y2="5" style="visibility: inherit;" fill="rgb(0, 0, 0)" stroke="rgb(204, 204, 204)" stroke-width="1px"></line><line x1="160.56423611111111" y1="0" x2="160.56423611111111" y2="5" style="visibility: inherit;" fill="rgb(0, 0, 0)" stroke="rgb(204, 204, 204)" stroke-width="1px"></line><line x1="192.67708333333331" y1="0" x2="192.67708333333331" y2="5" style="visibility: inherit;" fill="rgb(0, 0, 0)" stroke="rgb(204, 204, 204)" stroke-width="1px"></line><line x1="224.78993055555557" y1="0" x2="224.78993055555557" y2="5" style="visibility: inherit;" fill="rgb(0, 0, 0)" stroke="rgb(204, 204, 204)" stroke-width="1px"></line><line x1="256.90277777777777" y1="0" x2="256.90277777777777" y2="5" style="visibility: inherit;" fill="rgb(0, 0, 0)" stroke="rgb(204, 204, 204)" stroke-width="1px"></line><line x1="289.015625" y1="0" x2="289.015625" y2="5" style="visibility: inherit;" fill="rgb(0, 0, 0)" stroke="rgb(204, 204, 204)" stroke-width="1px"></line></g><g transform="translate(0, 8)"><text x="0" y="0" dx="0em" dy="0.95em" style="text-anchor: middle; visibility: hidden; font-family: &quot;Helvetica Neue&quot;, sans-serif; font-size: 14px; font-weight: 200;" fill="rgb(50, 49, 63)" stroke="none" stroke-width="1px">-10k</text><text x="32.11284722222222" y="0" dx="0em" dy="0.95em" style="text-anchor: middle; visibility: inherit; font-family: &quot;Helvetica Neue&quot;, sans-serif; font-size: 14px; font-weight: 200;" fill="rgb(50, 49, 63)" stroke="none" stroke-width="1px">0</text><text x="64.22569444444444" y="0" dx="0em" dy="0.95em" style="text-anchor: middle; visibility: inherit; font-family: &quot;Helvetica Neue&quot;, sans-serif; font-size: 14px; font-weight: 200;" fill="rgb(50, 49, 63)" stroke="none" stroke-width="1px">10k</text><text x="96.33854166666666" y="0" dx="0em" dy="0.95em" style="text-anchor: middle; visibility: inherit; font-family: &quot;Helvetica Neue&quot;, sans-serif; font-size: 14px; font-weight: 200;" fill="rgb(50, 49, 63)" stroke="none" stroke-width="1px">20k</text><text x="128.45138888888889" y="0" dx="0em" dy="0.95em" style="text-anchor: middle; visibility: inherit; font-family: &quot;Helvetica Neue&quot;, sans-serif; font-size: 14px; font-weight: 200;" fill="rgb(50, 49, 63)" stroke="none" stroke-width="1px">30k</text><text x="160.56423611111111" y="0" dx="0em" dy="0.95em" style="text-anchor: middle; visibility: inherit; font-family: &quot;Helvetica Neue&quot;, sans-serif; font-size: 14px; font-weight: 200;" fill="rgb(50, 49, 63)" stroke="none" stroke-width="1px">40k</text><text x="192.67708333333331" y="0" dx="0em" dy="0.95em" style="text-anchor: middle; visibility: inherit; font-family: &quot;Helvetica Neue&quot;, sans-serif; font-size: 14px; font-weight: 200;" fill="rgb(50, 49, 63)" stroke="none" stroke-width="1px">50k</text><text x="224.78993055555557" y="0" dx="0em" dy="0.95em" style="text-anchor: middle; visibility: inherit; font-family: &quot;Helvetica Neue&quot;, sans-serif; font-size: 14px; font-weight: 200;" fill="rgb(50, 49, 63)" stroke="none" stroke-width="1px">60k</text><text x="256.90277777777777" y="0" dx="0em" dy="0.95em" style="text-anchor: middle; visibility: inherit; font-family: &quot;Helvetica Neue&quot;, sans-serif; font-size: 14px; font-weight: 200;" fill="rgb(50, 49, 63)" stroke="none" stroke-width="1px">70k</text><text x="289.015625" y="0" dx="0em" dy="0.95em" style="text-anchor: middle; visibility: hidden; font-family: &quot;Helvetica Neue&quot;, sans-serif; font-size: 14px; font-weight: 200;" fill="rgb(50, 49, 63)" stroke="none" stroke-width="1px">80k</text></g><line x1="0" y1="0" x2="289.015625" y2="0" fill="rgb(0, 0, 0)" stroke="rgb(204, 204, 204)" stroke-width="1px"></line></g></g></g></g></svg>