<svg viewBox="0 0 330 200" xmlns="http://www.w3.org/2000/svg"><g><g><g><g><g><line x1="40.984375" y1="178" x2="35.984375" y2="178" style="visibility: inherit;" fill="rgb(0, 0, 0)" stroke="rgb(204, 204, 204)" stroke-width="1px"></line><line x1="40.984375" y1="163.16666666666666" x2="35.984375" y2="163.16666666666666" style="visibility: inherit;" fill="rgb(0, 0, 0)" stroke="rgb(204, 204, 204)" stroke-width="1px"></line><line x1="40.984375" y1="148.33333333333334" x2="35.984375" y2="148.33333333333334" style="visibility: inherit;" fill="rgb(0, 0, 0)" stroke="rgb(204, 204, 204)" stroke-width="1px"></line><line x1="40.984375" y1="133.5" x2="35.984375" y2="133.5" style="visibility: inherit;" fill="rgb(0, 0, 0)" stroke="rgb(204, 204, 204)" stroke-width="1px"></line><line x1="40.984375" y1="118.66666666666667" x2="35.984375" y2="118.66666666666667" style="visibility: inherit;" fill="rgb(0, 0, 0)" stroke="rgb(204, 204, 204)" stroke-width="1px"></line><line x1="40.984375" y1="103.83333333333333" x2="35.984375" y2="103.83333333333333" style="visibility: inherit;" fill="rgb(0, 0, 0)" stroke="rgb(204, 204, 204)" stroke-width="1px"></line><line x1="40.984375" y1="89" x2="35.984375" y2="89" style="visibility: inherit;" fill="rgb(0, 0, 0)" stroke="rgb(204, 204, 204)" stroke-width="1px"></line><line x1="40.984375" y1="74.16666666666666" x2="35.984375" y2="74.16666666666666" style="visibility: inherit;" fill="rgb(0, 0, 0)" stroke="rgb(204, 204, 204)" stroke-width="1px"></line><line x1="40.984375" y1="59.33333333333334" x2="35.984375" y2="59.33333333333334" style="visibility: inherit;" fill="rgb(0, 0, 0)" stroke="rgb(204, 204, 204)" stroke-width="1px"></line><line x1="40.984375" y1="44.5" x2="35.984375" y2="44.5" style="visibility: inherit;" fill="rgb(0, 0, 0)" stroke="rgb(204, 204, 204)" stroke-width="1px"></line><line x1="40.984375" y1="29.666666666666657" x2="35.984375" y2="29.666666666666657" style="visibility: inherit;" fill="rgb(0, 0, 0)" stroke="rgb(204, 204, 204)" stroke-width="1px"></line><line x1="40.984375" y1="14.833333333333343" x2="35.984375" y2="14.833333333333343" style="visibility: inherit;" fill="rgb(0, 0, 0)" stroke="rgb(204, 204, 204)" stroke-width="1px"></line><line x1="40.984375" y1="0" x2="35.984375" y2="0" style="visibility: inherit;" fill="rgb(0, 0, 0)" stroke="rgb(204, 204, 204)" stroke-width="1px"></line></g><g transform="translate(30.984375, 0)"><text x="0" y="178" dx="0em" dy="0.3em" style="text-anchor: end; visibility: hidden; font-family: &quot;Helvetica Neue&quot;, sans-serif; font-size: 14px; font-weight: 200;" fill="rgb(50, 49, 63)" stroke="none" stroke-width="1px">-10</text><text x="0" y="163.16666666666666" dx="0em" dy="0.3em" style="text-anchor: end; visibility: inherit; font-family: &quot;Helvetica Neue&quot;, sans-serif; font-size: 14px; font-weight: 200;" fill="rgb(50, 49, 63)" stroke="none" stroke-width="1px">0</text><text x="0" y="148.33333333333334" dx="0em" dy="0.3em" style="text-anchor: end; visibility: hidden; font-family: &quot;Helvetica Neue&quot;, sans-serif; font-size: 14px; font-weight: 200;" fill="rgb(50, 49, 63)" stroke="none" stroke-width="1px">10</text><text x="0" y="133.5" dx="0em" dy="0.3em" style="text-anchor: end; visibility: inherit; font-family: &quot;Helvetica Neue&quot;, sans-serif; font-size: 14px; font-weight: 200;" fill="rgb(50, 49, 63)" stroke="none" stroke-width="1px">20</text><text x="0" y="118.66666666666667" dx="0em" dy="0.3em" style="text-anchor: end; visibility: hidden; font-family: &quot;Helvetica Neue&quot;, sans-serif; font-size: 14px; font-weight: 200;" fill="rgb(50, 49, 63)" stroke="none" stroke-width="1px">30</text><text x="0" y="103.83333333333333" dx="0em" dy="0.3em" style="text-anchor: end; visibility: inherit; font-family: &quot;Helvetica Neue&quot;, sans-serif; font-size: 14px; font-weight: 200;" fill="rgb(50, 49, 63)" stroke="none" stroke-width="1px">40</text><text x="0" y="89" dx="0em" dy="0.3em" style="text-anchor: end; visibility: hidden; font-family: &quot;Helvetica Neue&quot;, sans-serif; font-size: 14px; font-weight: 200;" fill="rgb(50, 49, 63)" stroke="none" stroke-width="1px">50</text><text x="0" y="74.16666666666666" dx="0em" dy="0.3em" style="text-anchor: end; visibility: inherit; font-family: &quot;Helvetica Neue&quot;, sans-serif; font-size: 14px; font-weight: 200;" fill="rgb(50, 49, 63)" stroke="none" stroke-width="1px">60</text><text x="0" y="59.33333333333334" dx="0em" dy="0.3em" style="text-anchor: end; visibility: hidden; font-family: &quot;Helvetica Neue&quot;, sans-serif; font-size: 14px; font-weight: 200;" fill="rgb(50, 49, 63)" stroke="none" stroke-width="1px">70</text><text x="0" y="44.5" dx="0em" dy="0.3em" style="text-anchor: end; visibility: inherit; font-family: &quot;Helvetica Neue&quot;, sans-serif; font-size: 14px; font-weight: 200;" fill="rgb(50, 49, 63)" stroke="none" stroke-width="1px">80</text><text x="0" y="29.666666666666657" dx="0em" dy="0.3em" style="text-anchor: end; visibility: hidden; font-family: &quot;Helvetica Neue&quot;, sans-serif; font-size: 14px; font-weight: 200;" fill="rgb(50, 49, 63)" stroke="none" stroke-width="1px">90</text><text x="0" y="14.833333333333343" dx="0em" dy="0.3em" style="text-anchor: end; visibility: inherit; font-family: &quot;Helvetica Neue&quot;, sans-serif; font-size: 14px; font-weight: 200;" fill="rgb(50, 49, 63)" stroke="none" stroke-width="1px">100</text><text x="0" y="0" dx="0em" dy="0.3em" style="text-anchor: end; visibility: hidden; font-family: &quot;Helvetica Neue&quot;, sans-serif; font-size: 14px; font-weight: 200;" fill="rgb(50, 49, 63)" stroke="none" stroke-width="1px">110</text></g><line x1="40.984375" y1="0" x2="40.984375" y2="178" fill="rgb(0, 0, 0)" stroke="rgb(204, 204, 204)" stroke-width="1px"></line></g></g><g transform="translate(40, 0)" clip-path="url(#clip_0)"><clipPath id="clip_0"><rect width="289" height="178"></rect></clipPath><g><g><g><line x1="0" y1="0" x2="0" y2="178" fill="rgb(0, 0, 0)" stroke="rgb(60, 60, 60)" stroke-width="1px" opacity="0.25"></line><line x1="22.231971153846157" y1="0" x2="22.231971153846157" y2="178" fill="rgb(0, 0, 0)" stroke="rgb(60, 60, 60)" stroke-width="1px" opacity="0.25"></line><line x1="44.463942307692314" y1="0" x2="44.463942307692314" y2="178" fill="rgb(0, 0, 0)" stroke="rgb(60, 60, 60)" stroke-width="1px" opacity="0.25"></line><line x1="66.69591346153847" y1="0" x2="66.69591346153847" y2="178" fill="rgb(0, 0, 0)" stroke="rgb(60, 60, 60)" stroke-width="1px" opacity="0.25"></line><line x1="88.92788461538463" y1="0" x2="88.92788461538463" y2="178" fill="rgb(0, 0, 0)" stroke="rgb(60, 60, 60)" stroke-width="1px" opacity="0.25"></line><line x1="111.15985576923077" y1="0" x2="111.15985576923077" y2="178" fill="rgb(0, 0, 0)" stroke="rgb(60, 60, 60)" stroke-width="1px" opacity="0.25"></line><line x1="133.39182692307693" y1="0" x2="133.39182692307693" y2="178" fill="rgb(0, 0, 0)" stroke="rgb(60, 60, 60)" stroke-width="1px" opacity="0.25"></line><line x1="155.62379807692307" y1="0" x2="155.62379807692307" y2="178" fill="rgb(0, 0, 0)" stroke="rgb(60, 60, 60)" stroke-width="1px" opacity="0.25"></line><line x1="177.85576923076925" y1="0" x2="177.85576923076925" y2="178" fill="rgb(0, 0, 0)" stroke="rgb(60, 60, 60)" stroke-width="1px" opacity="0.25"></line><line x1="200.0877403846154" y1="0" x2="200.0877403846154" y2="178" fill="rgb(0, 0, 0)" stroke="rgb(60, 60, 60)" stroke-width="1px" opacity="0.25"></line><line x1="222.31971153846155" y1="0" x2="222.31971153846155" y2="178" fill="rgb(0, 0, 0)" stroke="rgb(60, 60, 60)" stroke-width="1px" opacity="0.25"></line><line x1="244.55168269230768" y1="0" x2="244.55168269230768" y2="178" fill="rgb(0, 0, 0)" stroke="rgb(60, 60, 60)" stroke-width="1px" opacity="0.25"></line><line x1="266.78365384615387" y1="0" x2="266.78365384615387" y2="178" fill="rgb(0, 0, 0)" stroke="rgb(60, 60, 60)" stroke-width="1px" opacity="0.25"></line><line x1="289.015625" y1="0" x2="289.015625" y2="178" fill="rgb(0, 0, 0)" stroke="rgb(60, 60, 60)" stroke-width="1px" opacity="0.25"></line></g><g><line x1="0" y1="178" x2="289.015625" y2="178" fill="rgb(0, 0, 0)" stroke="rgb(60, 60, 60)" stroke-width="1px" opacity="0.25"></line><line x1="0" y1="163.16666666666666" x2="289.015625" y2="163.16666666666666" fill="rgb(0, 0, 0)" stroke="rgb(60, 60, 60)" stroke-width="1px" opacity="0.25"></line><line x1="0" y1="148.33333333333334" x2="289.015625" y2="148.33333333333334" fill="rgb(0, 0, 0)" stroke="rgb(60, 60, 60)" stroke-width="1px" opacity="0.25"></line><line x1="0" y1="133.5" x2="289.015625" y2="133.5" fill="rgb(0, 0, 0)" stroke="rgb(60, 60, 60)" stroke-width="1px" opacity="0.25"></line><line x1="0" y1="118.66666666666667" x2="289.015625" y2="118.66666666666667" fill="rgb(0, 0, 0)" stroke="rgb(60, 60, 60)" stroke-width="1px" opacity="0.25"></line><line x1="0" y1="103.83333333333333" x2="289.015625" y2="103.83333333333333" fill="rgb(0, 0, 0)" stroke="rgb(60, 60, 60)" stroke-width="1px" opacity="0.25"></line><line x1="0" y1="89" x2="289.015625" y2="89" fill="rgb(0, 0, 0)" stroke="rgb(60, 60, 60)" stroke-width="1px" opacity="0.25"></line><line x1="0" y1="74.16666666666666" x2="289.015625" y2="74.16666666666666" fill="rgb(0, 0, 0)" stroke="rgb(60, 60, 60)" stroke-width="1px" opacity="0.25"></line><line x1="0" y1="59.33333333333334" x2="289.015625" y2="59.33333333333334" fill="rgb(0, 0, 0)" stroke="rgb(60, 60, 60)" stroke-width="1px" opacity="0.25"></line><line x1="0" y1="44.5" x2="289.015625" y2="44.5" fill="rgb(0, 0, 0)" stroke="rgb(60, 60, 60)" stroke-width="1px" opacity="0.25"></line><line x1="0" y1="29.666666666666657" x2="289.015625" y2="29.666666666666657" fill="rgb(0, 0, 0)" stroke="rgb(60, 60, 60)" stroke-width="1px" opacity="0.25"></line><line x1="0" y1="14.833333333333343" x2="289.015625" y2="14.833333333333343" fill="rgb(0, 0, 0)" stroke="rgb(60, 60, 60)" stroke-width="1px" opacity="0.25"></line><line x1="0" y1="0" x2="289.015625" y2="0" fill="rgb(0, 0, 0)" stroke="rgb(60, 60, 60)" stroke-width="1px" opacity="0.25"></line></g></g></g><g><g><line x1="0" y1="163.16666666666666" x2="289.015625" y2="163.16666666666666" fill="rgb(0, 0, 0)" stroke="rgb(153, 153, 153)" stroke-width="1.5px"></line></g></g><g><g><line x1="22.231971153846157" y1="0" x2="22.231971153846157" y2="178" fill="rgb(0, 0, 0)" stroke="rgb(153, 153, 153)" stroke-width="1.5px"></line></g></g><g><g><g><g><g><path stroke="rgb(0, 119, 187)" stroke-width="2px" d="M32.903317307692305,-20.90794728597004L34.681875,4.5010054270426565L36.46043269230769,17.887174352010078L38.23899038461539,33.24990259806316L40.01754807692308,38.64340680440267L41.79610576923077,49.97273406982421L43.574663461538464,57.95228246053058L45.35322115384615,63.98384679158529L47.13177884615384,70.21899712880453L48.91033653846154,73.15914255777994L50.68889423076923,77.67486565907797L52.46745192307692,79.95703881581625L54.246009615384615,83.32636769612631L56.0245673076923,82.4871150970459L57.803125,84.81172110239665L59.581682692307695,89.09445114135742L61.36024038461539,89.31560103098552L63.138798076923074,89.43545303344727L64.91735576923077,92.96000499725342L66.69591346153847,90.22430566151937L68.47447115384615,93.9174799601237L70.25302884615385,96.29343655904134L72.03158653846154,99.6481892267863L73.81014423076923,99.1129264831543L75.58870192307693,104.12485758463542L77.36725961538461,102.22604560852051L79.14581730769231,105.51871922810872L80.92437500000001,107.85646985371908L82.70293269230768,108.19542903900147L84.48149038461538,108.21983400980632L86.26004807692307,112.3415636698405L88.03860576923077,110.54781246185303L89.81716346153846,112.83656075795491L91.59572115384616,112.82487602233887L93.37427884615386,117.97453139623008L95.15283653846153,116.72290665308634L96.93139423076923,113.95594711303711L98.70995192307691,116.77587273915609L100.48850961538461,118.46609379450479L102.26706730769232,117.23268931706747L104.045625,119.90166117350259L105.8241826923077,120.90892499287924L107.60274038461537,120.39443448384603L109.38129807692307,121.91443751653037L111.15985576923077,122.33878863652546L112.93841346153846,121.99869209925333L114.71697115384616,122.71221071879069L116.49552884615385,126.03020598093667L118.27408653846153,126.15652844111125L120.05264423076923,124.74039223988851L121.83120192307692,124.80320123036702L123.60975961538462,124.96735337575277L125.3883173076923,126.41953401565551L127.166875,124.52889569600423L128.9454326923077,126.93934065500895L130.72399038461538,128.61670001347858L132.5025480769231,128.11357736587524L134.28110576923078,127.86304588317871L136.05966346153846,129.25302298863727L137.83822115384615,128.56013797124228L139.61677884615384,129.20478455225629L141.39533653846155,131.8665446917216L143.17389423076924,129.6968109448751L144.95245192307692,130.29405654271443L146.7310096153846,130.8919924736023L148.5095673076923,130.60391422907512L150.288125,130.30481894810993L152.0666826923077,133.01146771113076L153.84524038461538,132.51478157043456L155.62379807692307,132.0518708229065L157.40235576923078,132.71026182174683L159.18091346153847,133.05572541554767L160.95947115384615,131.6656351407369L162.73802884615384,133.14997568130494L164.51658653846152,134.65979347229003L166.29514423076924,134.6902897834778L168.07370192307692,134.82064673105876L169.85225961538464,134.7931607246399L171.6308173076923,132.10899022420247L173.40937499999998,133.51761763890585L175.1879326923077,136.21784969965617L176.96649038461538,136.9793719291687L178.7450480769231,135.72905995051065L180.52360576923076,135.25061953862507L182.30216346153844,135.15899197260538L184.08072115384616,134.74299840927125L185.85927884615384,135.9043988863627L187.63783653846156,137.10283686319985L189.4163942307692,137.63654635747275L191.19495192307693,137.4214764912923L192.97350961538461,136.5426231066386L194.75206730769233,136.0741981824239L196.53062500000001,137.3992556889852L198.30918269230767,138.15832497278848L200.0877403846154,138.06080977121988L201.86629807692307,138.07255109151205L203.6448557692308,137.30597585042318L205.42341346153847,138.50717515945433L207.20197115384613,137.67872174580893L208.98052884615385,138.64031324386596L210.75908653846153,139.11578861872354L212.53764423076925,140.08037910461425L214.31620192307693,139.29439814885458L216.09475961538462,140.24157045682273L217.8733173076923,140.26008354822795L219.651875,140.15702163378398L221.4304326923077,139.24899743398032L223.2089903846154,139.53937726020814L224.98754807692308,138.98351910909017L226.76610576923076,142.13205882708232L228.54466346153848,141.07687486012776L230.32322115384616,141.41033542950947L232.10177884615382,140.93663398424783L233.88033653846153,140.7617293357849L235.65889423076922,139.93652388254802L237.43745192307694,139.97177330652872L239.21600961538462,142.0996556123098L240.99456730769228,141.60485374132793L242.773125,141.94509315490723L244.55168269230768,141.1742599169413L246.3302403846154,142.51456133524576L248.10879807692308,140.9005131562551L249.88735576923077,142.76725152333577L251.66591346153845,142.9314942042033L253.44447115384614,142.60966885884602L255.22302884615385,142.48494208653767L257.00158653846154,142.44242153167724L258.7801442307692,141.22595709164938L260.5587019230769,141.99718783696494L262.3372596153846,142.7615449587504L264.11581730769234,143.0095570087433L265.894375,143.29218190511068L267.67293269230765,143.4657016436259L269.4514903846154,142.7734150091807L271.2300480769231,144.29784437815348" style="fill: none;" fill="none"></path></g><g><path stroke="rgb(255, 112, 67)" stroke-width="2px" d="M31.12475961538462,-22.316486994425475L35.57115384615385,30.860501480102556L40.01754807692308,63.9913725535075L44.463942307692314,85.7322915395101L48.91033653846154,97.17462406158448L53.35673076923077,106.60079364776611L57.803125,110.93231665293375L62.24951923076924,114.27580331166587L66.69591346153847,117.65580406188965L71.1423076923077,119.59261264801026L75.58870192307693,125.96665290196736L80.03509615384615,130.39162267049153L84.48149038461538,131.0432065327962L88.92788461538463,132.97090781529744L93.37427884615386,134.90855102539064L97.82067307692309,135.33429412841798L102.26706730769232,138.16980600357056L106.71346153846154,136.8333127339681L111.15985576923077,139.40573698679606L115.60625,139.30820480982462L120.05264423076923,139.8082520802816L124.49903846153848,141.3557170708974L128.9454326923077,141.55663793881735L133.39182692307693,142.20218987464904L137.83822115384615,142.71064704259237L142.2846153846154,142.19876791636148L146.7310096153846,141.64913266499838L151.17740384615385,143.7800818602244L155.62379807692307,143.5296635468801L160.0701923076923,143.61362813313804L164.51658653846152,143.99375267028807L168.96298076923077,143.75099309285483L173.40937499999998,144.21977167129518L177.85576923076925,144.0701264222463L182.30216346153844,144.35533440907795L186.7485576923077,144.57233522733054L191.19495192307693,144.10418332417805L195.64134615384617,144.13429627418517L200.0877403846154,144.49450583457946L204.53413461538463,144.54124619166055L208.98052884615385,144.4244766394297L213.4269230769231,144.26347767512004L217.8733173076923,144.21243829727172L222.31971153846155,144.60669061342875L226.76610576923076,144.8389410018921L231.2125,144.43806403477987L235.65889423076922,144.37080465952556L240.10528846153846,144.43554884592692L244.55168269230768,145.20252442359924L248.99807692307695,144.5865365664164L253.44447115384614,144.59800203641257L257.8908653846154,144.6886506875356L262.3372596153846,144.68898736635845L266.78365384615387,144.3340486685435L271.2300480769231,144.6241484006246" style="fill: none;" fill="none"></path></g></g></g></g></g></g><g transform="translate(40, 178)" clip-path="url(#clip_1)"><clipPath id="clip_1"><rect width="289" height="22"></rect></clipPath><g><g><line x1="0" y1="0" x2="0" y2="5" style="visibility: inherit;" fill="rgb(0, 0, 0)" stroke="rgb(204, 204, 204)" stroke-width="1px"></line><line x1="22.231971153846157" y1="0" x2="22.231971153846157" y2="5" style="visibility: inherit;" fill="rgb(0, 0, 0)" stroke="rgb(204, 204, 204)" stroke-width="1px"></line><line x1="44.463942307692314" y1="0" x2="44.463942307692314" y2="5" style="visibility: inherit;" fill="rgb(0, 0, 0)" stroke="rgb(204, 204, 204)" stroke-width="1px"></line><line x1="66.69591346153847" y1="0" x2="66.69591346153847" y2="5" style="visibility: inherit;" fill="rgb(0, 0, 0)" stroke="rgb(204, 204, 204)" stroke-width="1px"></line><line x1="88.92788461538463" y1="0" x2="88.92788461538463" y2="5" style="visibility: inherit;" fill="rgb(0, 0, 0)" stroke="rgb(204, 204, 204)" stroke-width="1px"></line><line x1="111.15985576923077" y1="0" x2="111.15985576923077" y2="5" style="visibility: inherit;" fill="rgb(0, 0, 0)" stroke="rgb(204, 204, 204)" stroke-width="1px"></line><line x1="133.39182692307693" y1="0" x2="133.39182692307693" y2="5" style="visibility: inherit;" fill="rgb(0, 0, 0)" stroke="rgb(204, 204, 204)" stroke-width="1px"></line><line x1="155.62379807692307" y1="0" x2="155.62379807692307" y2="5" style="visibility: inherit;" fill="rgb(0, 0, 0)" stroke="rgb(204, 204, 204)" stroke-width="1px"></line><line x1="177.85576923076925" y1="0" x2="177.85576923076925" y2="5" style="visibility: inherit;" fill="rgb(0, 0, 0)" stroke="rgb(204, 204, 204)" stroke-width="1px"></line><line x1="200.0877403846154" y1="0" x2="200.0877403846154" y2="5" style="visibility: inherit;" fill="rgb(0, 0, 0)" stroke="rgb(204, 204, 204)" stroke-width="1px"></line><line x1="222.31971153846155" y1="0" x2="222.31971153846155" y2="5" style="visibility: inherit;" fill="rgb(0, 0, 0)" stroke="rgb(204, 204, 204)" stroke-width="1px"></line><line x1="244.55168269230768" y1="0" x2="244.55168269230768" y2="5" style="visibility: inherit;" fill="rgb(0, 0, 0)" stroke="rgb(204, 204, 204)" stroke-width="1px"></line><line x1="266.78365384615387" y1="0" x2="266.78365384615387" y2="5" style="visibility: inherit;" fill="rgb(0, 0, 0)" stroke="rgb(204, 204, 204)" stroke-width="1px"></line><line x1="289.015625" y1="0" x2="289.015625" y2="5" style="visibility: inherit;" fill="rgb(0, 0, 0)" stroke="rgb(204, 204, 204)" stroke-width="1px"></line></g><g transform="translate(0, 8)"><text x="0" y="0" dx="0em" dy="0.95em" style="text-anchor: middle; visibility: hidden; font-family: &quot;Helvetica Neue&quot;, sans-serif; font-size: 14px; font-weight: 200;" fill="rgb(50, 49, 63)" stroke="none" stroke-width="1px">-5k</text><text x="22.231971153846157" y="0" dx="0em" dy="0.95em" style="text-anchor: middle; visibility: inherit; font-family: &quot;Helvetica Neue&quot;, sans-serif; font-size: 14px; font-weight: 200;" fill="rgb(50, 49, 63)" stroke="none" stroke-width="1px">0</text><text x="44.463942307692314" y="0" dx="0em" dy="0.95em" style="text-anchor: middle; visibility: hidden; font-family: &quot;Helvetica Neue&quot;, sans-serif; font-size: 14px; font-weight: 200;" fill="rgb(50, 49, 63)" stroke="none" stroke-width="1px">5k</text><text x="66.69591346153847" y="0" dx="0em" dy="0.95em" style="text-anchor: middle; visibility: inherit; font-family: &quot;Helvetica Neue&quot;, sans-serif; font-size: 14px; font-weight: 200;" fill="rgb(50, 49, 63)" stroke="none" stroke-width="1px">10k</text><text x="88.92788461538463" y="0" dx="0em" dy="0.95em" style="text-anchor: middle; visibility: hidden; font-family: &quot;Helvetica Neue&quot;, sans-serif; font-size: 14px; font-weight: 200;" fill="rgb(50, 49, 63)" stroke="none" stroke-width="1px">15k</text><text x="111.15985576923077" y="0" dx="0em" dy="0.95em" style="text-anchor: middle; visibility: inherit; font-family: &quot;Helvetica Neue&quot;, sans-serif; font-size: 14px; font-weight: 200;" fill="rgb(50, 49, 63)" stroke="none" stroke-width="1px">20k</text><text x="133.39182692307693" y="0" dx="0em" dy="0.95em" style="text-anchor: middle; visibility: hidden; font-family: &quot;Helvetica Neue&quot;, sans-serif; font-size: 14px; font-weight: 200;" fill="rgb(50, 49, 63)" stroke="none" stroke-width="1px">25k</text><text x="155.62379807692307" y="0" dx="0em" dy="0.95em" style="text-anchor: middle; visibility: inherit; font-family: &quot;Helvetica Neue&quot;, sans-serif; font-size: 14px; font-weight: 200;" fill="rgb(50, 49, 63)" stroke="none" stroke-width="1px">30k</text><text x="177.85576923076925" y="0" dx="0em" dy="0.95em" style="text-anchor: middle; visibility: hidden; font-family: &quot;Helvetica Neue&quot;, sans-serif; font-size: 14px; font-weight: 200;" fill="rgb(50, 49, 63)" stroke="none" stroke-width="1px">35k</text><text x="200.0877403846154" y="0" dx="0em" dy="0.95em" style="text-anchor: middle; visibility: inherit; font-family: &quot;Helvetica Neue&quot;, sans-serif; font-size: 14px; font-weight: 200;" fill="rgb(50, 49, 63)" stroke="none" stroke-width="1px">40k</text><text x="222.31971153846155" y="0" dx="0em" dy="0.95em" style="text-anchor: middle; visibility: hidden; font-family: &quot;Helvetica Neue&quot;, sans-serif; font-size: 14px; font-weight: 200;" fill="rgb(50, 49, 63)" stroke="none" stroke-width="1px">45k</text><text x="244.55168269230768" y="0" dx="0em" dy="0.95em" style="text-anchor: middle; visibility: inherit; font-family: &quot;Helvetica Neue&quot;, sans-serif; font-size: 14px; font-weight: 200;" fill="rgb(50, 49, 63)" stroke="none" stroke-width="1px">50k</text><text x="266.78365384615387" y="0" dx="0em" dy="0.95em" style="text-anchor: middle; visibility: hidden; font-family: &quot;Helvetica Neue&quot;, sans-serif; font-size: 14px; font-weight: 200;" fill="rgb(50, 49, 63)" stroke="none" stroke-width="1px">55k</text><text x="289.015625" y="0" dx="0em" dy="0.95em" style="text-anchor: middle; visibility: hidden; font-family: &quot;Helvetica Neue&quot;, sans-serif; font-size: 14px; font-weight: 200;" fill="rgb(50, 49, 63)" stroke="none" stroke-width="1px">60k</text></g><line x1="0" y1="0" x2="289.015625" y2="0" fill="rgb(0, 0, 0)" stroke="rgb(204, 204, 204)" stroke-width="1px"></line></g></g></g></g></svg>