<svg viewBox="0 0 330 200" xmlns="http://www.w3.org/2000/svg"><g><g><g><g><g><line x1="40" y1="177" x2="35" y2="177" style="visibility: inherit;" fill="rgb(0, 0, 0)" stroke="rgb(204, 204, 204)" stroke-width="1px"></line><line x1="40" y1="157.33333333333331" x2="35" y2="157.33333333333331" style="visibility: inherit;" fill="rgb(0, 0, 0)" stroke="rgb(204, 204, 204)" stroke-width="1px"></line><line x1="40" y1="137.66666666666666" x2="35" y2="137.66666666666666" style="visibility: inherit;" fill="rgb(0, 0, 0)" stroke="rgb(204, 204, 204)" stroke-width="1px"></line><line x1="40" y1="118.00000000000001" x2="35" y2="118.00000000000001" style="visibility: inherit;" fill="rgb(0, 0, 0)" stroke="rgb(204, 204, 204)" stroke-width="1px"></line><line x1="40" y1="98.33333333333334" x2="35" y2="98.33333333333334" style="visibility: inherit;" fill="rgb(0, 0, 0)" stroke="rgb(204, 204, 204)" stroke-width="1px"></line><line x1="40" y1="78.66666666666666" x2="35" y2="78.66666666666666" style="visibility: inherit;" fill="rgb(0, 0, 0)" stroke="rgb(204, 204, 204)" stroke-width="1px"></line><line x1="40" y1="59.00000000000001" x2="35" y2="59.00000000000001" style="visibility: inherit;" fill="rgb(0, 0, 0)" stroke="rgb(204, 204, 204)" stroke-width="1px"></line><line x1="40" y1="39.33333333333333" x2="35" y2="39.33333333333333" style="visibility: inherit;" fill="rgb(0, 0, 0)" stroke="rgb(204, 204, 204)" stroke-width="1px"></line><line x1="40" y1="19.666666666666675" x2="35" y2="19.666666666666675" style="visibility: inherit;" fill="rgb(0, 0, 0)" stroke="rgb(204, 204, 204)" stroke-width="1px"></line><line x1="40" y1="0" x2="35" y2="0" style="visibility: inherit;" fill="rgb(0, 0, 0)" stroke="rgb(204, 204, 204)" stroke-width="1px"></line></g><g transform="translate(30, 0)"><text x="0" y="177" dx="0em" dy="0.3em" style="text-anchor: end; visibility: hidden; font-family: Roboto, sans-serif; font-size: 12px; font-weight: 200;" fill="rgb(255, 255, 255)" stroke="none" stroke-width="1px">20</text><text x="0" y="157.33333333333331" dx="0em" dy="0.3em" style="text-anchor: end; visibility: inherit; font-family: Roboto, sans-serif; font-size: 12px; font-weight: 200;" fill="rgb(255, 255, 255)" stroke="none" stroke-width="1px">40</text><text x="0" y="137.66666666666666" dx="0em" dy="0.3em" style="text-anchor: end; visibility: hidden; font-family: Roboto, sans-serif; font-size: 12px; font-weight: 200;" fill="rgb(255, 255, 255)" stroke="none" stroke-width="1px">60</text><text x="0" y="118.00000000000001" dx="0em" dy="0.3em" style="text-anchor: end; visibility: inherit; font-family: Roboto, sans-serif; font-size: 12px; font-weight: 200;" fill="rgb(255, 255, 255)" stroke="none" stroke-width="1px">80</text><text x="0" y="98.33333333333334" dx="0em" dy="0.3em" style="text-anchor: end; visibility: hidden; font-family: Roboto, sans-serif; font-size: 12px; font-weight: 200;" fill="rgb(255, 255, 255)" stroke="none" stroke-width="1px">100</text><text x="0" y="78.66666666666666" dx="0em" dy="0.3em" style="text-anchor: end; visibility: inherit; font-family: Roboto, sans-serif; font-size: 12px; font-weight: 200;" fill="rgb(255, 255, 255)" stroke="none" stroke-width="1px">120</text><text x="0" y="59.00000000000001" dx="0em" dy="0.3em" style="text-anchor: end; visibility: hidden; font-family: Roboto, sans-serif; font-size: 12px; font-weight: 200;" fill="rgb(255, 255, 255)" stroke="none" stroke-width="1px">140</text><text x="0" y="39.33333333333333" dx="0em" dy="0.3em" style="text-anchor: end; visibility: inherit; font-family: Roboto, sans-serif; font-size: 12px; font-weight: 200;" fill="rgb(255, 255, 255)" stroke="none" stroke-width="1px">160</text><text x="0" y="19.666666666666675" dx="0em" dy="0.3em" style="text-anchor: end; visibility: hidden; font-family: Roboto, sans-serif; font-size: 12px; font-weight: 200;" fill="rgb(255, 255, 255)" stroke="none" stroke-width="1px">180</text><text x="0" y="0" dx="0em" dy="0.3em" style="text-anchor: end; visibility: hidden; font-family: Roboto, sans-serif; font-size: 12px; font-weight: 200;" fill="rgb(255, 255, 255)" stroke="none" stroke-width="1px">200</text></g><line x1="40" y1="0" x2="40" y2="177" fill="rgb(0, 0, 0)" stroke="rgb(204, 204, 204)" stroke-width="1px"></line></g></g><g transform="translate(40, 0)" clip-path="url(#clip_0)"><clipPath id="clip_0"><rect width="290" height="177"></rect></clipPath><g><g><g><line x1="0" y1="0" x2="0" y2="177" fill="rgb(0, 0, 0)" stroke="rgb(189, 189, 189)" stroke-width="1px" opacity="0.25"></line><line x1="32.22222222222222" y1="0" x2="32.22222222222222" y2="177" fill="rgb(0, 0, 0)" stroke="rgb(189, 189, 189)" stroke-width="1px" opacity="0.25"></line><line x1="64.44444444444444" y1="0" x2="64.44444444444444" y2="177" fill="rgb(0, 0, 0)" stroke="rgb(189, 189, 189)" stroke-width="1px" opacity="0.25"></line><line x1="96.66666666666666" y1="0" x2="96.66666666666666" y2="177" fill="rgb(0, 0, 0)" stroke="rgb(189, 189, 189)" stroke-width="1px" opacity="0.25"></line><line x1="128.88888888888889" y1="0" x2="128.88888888888889" y2="177" fill="rgb(0, 0, 0)" stroke="rgb(189, 189, 189)" stroke-width="1px" opacity="0.25"></line><line x1="161.11111111111111" y1="0" x2="161.11111111111111" y2="177" fill="rgb(0, 0, 0)" stroke="rgb(189, 189, 189)" stroke-width="1px" opacity="0.25"></line><line x1="193.33333333333331" y1="0" x2="193.33333333333331" y2="177" fill="rgb(0, 0, 0)" stroke="rgb(189, 189, 189)" stroke-width="1px" opacity="0.25"></line><line x1="225.55555555555557" y1="0" x2="225.55555555555557" y2="177" fill="rgb(0, 0, 0)" stroke="rgb(189, 189, 189)" stroke-width="1px" opacity="0.25"></line><line x1="257.77777777777777" y1="0" x2="257.77777777777777" y2="177" fill="rgb(0, 0, 0)" stroke="rgb(189, 189, 189)" stroke-width="1px" opacity="0.25"></line><line x1="290" y1="0" x2="290" y2="177" fill="rgb(0, 0, 0)" stroke="rgb(189, 189, 189)" stroke-width="1px" opacity="0.25"></line></g><g><line x1="0" y1="177" x2="290" y2="177" fill="rgb(0, 0, 0)" stroke="rgb(189, 189, 189)" stroke-width="1px" opacity="0.25"></line><line x1="0" y1="157.33333333333331" x2="290" y2="157.33333333333331" fill="rgb(0, 0, 0)" stroke="rgb(189, 189, 189)" stroke-width="1px" opacity="0.25"></line><line x1="0" y1="137.66666666666666" x2="290" y2="137.66666666666666" fill="rgb(0, 0, 0)" stroke="rgb(189, 189, 189)" stroke-width="1px" opacity="0.25"></line><line x1="0" y1="118.00000000000001" x2="290" y2="118.00000000000001" fill="rgb(0, 0, 0)" stroke="rgb(189, 189, 189)" stroke-width="1px" opacity="0.25"></line><line x1="0" y1="98.33333333333334" x2="290" y2="98.33333333333334" fill="rgb(0, 0, 0)" stroke="rgb(189, 189, 189)" stroke-width="1px" opacity="0.25"></line><line x1="0" y1="78.66666666666666" x2="290" y2="78.66666666666666" fill="rgb(0, 0, 0)" stroke="rgb(189, 189, 189)" stroke-width="1px" opacity="0.25"></line><line x1="0" y1="59.00000000000001" x2="290" y2="59.00000000000001" fill="rgb(0, 0, 0)" stroke="rgb(189, 189, 189)" stroke-width="1px" opacity="0.25"></line><line x1="0" y1="39.33333333333333" x2="290" y2="39.33333333333333" fill="rgb(0, 0, 0)" stroke="rgb(189, 189, 189)" stroke-width="1px" opacity="0.25"></line><line x1="0" y1="19.666666666666675" x2="290" y2="19.666666666666675" fill="rgb(0, 0, 0)" stroke="rgb(189, 189, 189)" stroke-width="1px" opacity="0.25"></line><line x1="0" y1="0" x2="290" y2="0" fill="rgb(0, 0, 0)" stroke="rgb(189, 189, 189)" stroke-width="1px" opacity="0.25"></line></g></g></g><g><g><line x1="0" y1="196.66666666666669" x2="290" y2="196.66666666666669" fill="rgb(0, 0, 0)" stroke="rgb(153, 153, 153)" stroke-width="1.5px"></line></g></g><g><g><line x1="32.22222222222222" y1="0" x2="32.22222222222222" y2="177" fill="rgb(0, 0, 0)" stroke="rgb(153, 153, 153)" stroke-width="1.5px"></line></g></g><g><g><g><g><g><path stroke="rgb(255, 112, 67)" stroke-width="2px" d="M38.979222222222226,-49.19649556477863L39.31111111111112,0.39158681233724L39.514111111111106,6.784138743082677L39.65911111111111,10.018923695882167L39.92333333333333,14.614059448242188L40.074777777777776,17.363389587402345L40.129555555555555,18.20198974609375L40.135999999999996,18.32552159627279L40.23266666666666,19.855918121337886L40.23588888888889,19.925433858235674L40.27455555555555,20.52357228597005L40.29066666666667,20.78661575317382L40.38411111111111,22.293605295817052L40.87711111111111,29.75962244669596L41.05433333333333,32.22610321044922L41.785777777777774,41.50943247477215L42.01455555555555,44.029539235432935L42.41088888888889,48.089045206705734L42.63322222222222,50.200114949544265L42.68477777777778,50.67541173299154L42.688,50.702779897054036L42.87488888888889,83.94243545532227L43.43877777777778,86.30518277486165L43.88344444444444,88.25876553853352L43.88988888888889,88.29638175964355L44.051,89.00360272725423L44.27977777777778,89.92658805847167L44.515,90.7598466237386L44.53755555555556,90.84125340779622L44.882333333333335,92.08759269714355L44.97255555555556,92.42372296651205L45.230333333333334,93.29413261413573L45.43011111111111,93.97287508646647L45.745888888888885,95.02169545491536L45.86188888888889,95.3878946940104L46.135777777777776,96.22095069885253L46.40322222222222,107.29973805745442L46.699666666666666,108.28903566996257L46.75444444444444,108.44752044677733L47.25388888888889,109.21139831542969L47.266777777777776,109.21902809143067L47.29255555555555,109.27074851989745L47.653444444444446,109.8512191772461L47.69855555555556,109.93736737569174L47.995000000000005,110.50703481038413L48.24311111111111,110.96778475443521L48.678111111111114,111.84199803670246L48.76833333333333,112.00642458597818L49.44822222222222,113.16494267781577L49.49333333333333,113.23815701802572L50.105555555555554,120.36754875183105L50.52444444444444,120.92768834431966L50.666222222222224,120.97715810139974L50.940111111111115,121.25595626831054L51.120555555555555,121.44703076680501L51.14311111111111,121.45862172444663L51.25911111111111,121.58299382527669L51.526555555555554,121.91843388875327L52.20322222222222,122.64880676269532L52.26444444444444,122.70090980529785L52.489999999999995,122.95609092712401L52.77033333333333,123.25698318481446L53.40833333333334,123.91973088582358L53.50177777777778,127.87264506022134L53.81111111111111,128.05629234313966L53.849777777777774,128.13835932413735L54.31055555555555,128.4160996754964L54.67144444444445,128.70944468180338L55.14833333333333,129.04255905151368L55.28044444444444,129.1227954864502L56.01188888888889,129.60524940490723L56.26322222222222,129.7802391052246L56.272888888888886,129.7863909403483L56.321222222222225,129.8137591044108L56.42755555555555,129.87806828816733L57.32011111111111,133.23225135803222L57.352333333333334,133.3387831370036L57.46511111111111,133.28851814270018L57.974222222222224,133.53865025838218L58.21588888888889,133.66859652201333L58.583222222222226,133.74840157826742L58.715333333333334,133.81711082458497L59.17288888888889,133.94020754496256L59.189,133.939457321167L59.217999999999996,133.93018830617268L59.60788888888889,134.04724572499595L59.64011111111111,134.04875742594402L59.93977777777778,134.21887067159017L60.635777777777776,136.81782970428466L60.72922222222222,136.80099093119304L60.79688888888889,136.77385533650715L60.81944444444444,136.75625508626302L61.00633333333334,136.52702420552572L61.86666666666667,128.03864707946778L62.53688888888889,129.256192779541L62.81399999999999,129.0511641184489L62.855888888888884,128.18782157897948L63.22,127.3229185740153L63.278,127.42050018310546L63.745222222222225,128.5020528157552L63.95144444444445,128.9501614888509L64.52177777777779,137.37087593078613L65.14044444444444,137.95323340098062L65.163,137.956223042806L65.53677777777777,138.18846607208252L65.79455555555556,138.3887720743815L65.93311111111112,138.22689253489176L66.20700000000001,136.9344820022583L66.35844444444444,136.85080954233806L66.54211111111111,136.97869644165038L66.69033333333334,137.0892194112142L66.69355555555556,137.09101994832358L66.76444444444444,137.1562594095866L66.99000000000001,137.3733066558838L67.15755555555555,137.51631806691486L67.16722222222222,137.52357273101808L67.28966666666668,137.60394045511882L67.36377777777777,137.6694199879964L67.38955555555555,137.69152908325196L67.53777777777778,137.80810260772705L67.802,141.21448249816893L67.86322222222222,141.19007771809896L68.11133333333333,141.30443058013915L68.82344444444445,121.73780250549316L68.99422222222222,105.99104766845704L69.05866666666667,101.08727734883628L69.15855555555555,94.2622814178467L69.18755555555556,92.4108191172282L69.29711111111111,86.02967809041341L69.56133333333334,73.74072723388672L69.68055555555556,69.2561144510905L69.919,61.734520721435544L70.59566666666667,55.327774556477856L70.61177777777777,55.576968892415366L70.72777777777777,57.68196182250976L71.14022222222222,64.11973724365234L71.224,91.83864593505861L71.63,122.19261817932129L72.85766666666666,134.98553937276205L73.52144444444444,137.089759572347L73.72122222222222,137.5726748784383L73.97255555555556,138.0709322611491L74.02733333333333,138.17328904469807L74.11433333333333,138.32371641794842L74.182,138.4288340250651L74.22066666666667,138.49860483805338L74.269,138.57548027038575L75.21311111111112,144.83295815785726L75.54177777777778,143.80166301727294L75.67711111111112,143.79228521982827L75.84144444444445,143.95357208251954L75.91555555555556,144.0279230117798L76.10566666666668,144.25478693644206L76.52777777777779,144.4911636988322L76.76622222222223,144.56268628438315L77.39777777777778,144.8662343343099L77.85211111111111,145.00401668548585L78.08733333333333,145.09435113271078L78.1711111111111,145.13920701344807L78.22911111111112,146.81944573720295L78.41922222222222,147.1746166865031L78.58033333333334,147.002117729187L79.17644444444444,147.00397453308105L79.19577777777778,147.01471023559571L79.29244444444444,147.05390942891438L79.32144444444444,147.06555665334065L79.35366666666667,147.0809512456258L79.6501111111111,147.1268124262492L79.6791111111111,147.12455050150552L79.74677777777778,147.13428840637206L79.953,147.17394148508708L80.01422222222222,147.1863051732381L80.65222222222222,147.272922261556L80.94222222222221,147.3248414993286L81.21933333333334,147.38120581309002L81.40622222222223,147.42261066436768L81.88633333333333,148.62563953399658L81.89277777777778,148.67444159189859L81.9958888888889,148.67512804667155L82.09577777777778,148.73962478637696L82.74666666666667,148.80166454315184L82.82400000000001,148.8197899500529L83.56188888888889,148.8373789469401L83.89055555555557,148.8263469060262L83.95822222222222,148.84353453318278L84.38677777777778,148.86925220489502L84.61877777777778,148.89028097788494L84.68966666666665,148.89668788909913L84.89266666666667,148.92832482655842L85.21166666666667,148.94195264180502L85.83033333333333,149.30076592763265L86.19122222222222,149.55804017384847L86.34588888888888,149.53758532206217L86.48122222222221,149.42678101857504L87.01933333333332,149.50820655822753L87.11922222222223,149.5334440867106L87.57677777777776,149.64502112070718L87.74755555555555,149.70910898844403L87.82811111111111,149.72379461924237L87.899,149.73802636464438L88.23733333333334,149.78912035624188L88.55633333333334,149.847900390625L88.60144444444444,149.8491007486979L88.69488888888888,149.86049289703368L88.72066666666667,149.86695607503253L88.81411111111112,149.87589124043782L88.99133333333333,151.2464375813802L89.73566666666667,151.11945095062256L89.94511111111112,151.09689922332763L90.09655555555555,151.09367701212565L90.73777777777778,151.09998639424643L90.91177777777777,151.1301716486613L91.34033333333333,151.13839785257974L91.34355555555557,151.13938064575194L91.79466666666667,151.14073104858397L92.60988888888889,151.96786778767904L92.974,152.00133527119954L93.48311111111111,152.05859610239665L93.65388888888889,152.00104643503823L93.98255555555556,152.05388094584146L94.82033333333334,152.03353112538656L95.17155555555556,152.01814403533936L95.21666666666665,152.00258439381918L95.46477777777777,151.8211352666219L95.83533333333334,151.81440200805665L96.13177777777777,152.73712476094565L96.31544444444444,152.80547014872232L96.44433333333333,152.8306589126587L96.50233333333333,152.8514663696289L96.53133333333332,152.84116954803466L96.77622222222223,150.99844360351562L97.11777777777777,148.4987616856893L97.12744444444445,148.4554812749227L97.14355555555555,148.40231291453043L97.37233333333333,147.59117469787597L97.74933333333334,146.93701705932617L97.89433333333334,146.76545963287353L98.06833333333333,146.60004278818766L98.07155555555556,146.5985460917155L98.14244444444445,146.56246407826742L98.194,146.52397759755453L98.84166666666667,146.3068665822347L98.85133333333333,146.306138865153L99.00922222222222,146.2749408086141L99.08655555555556,146.2638224919637L99.81155555555556,147.09825140635172L100.01777777777778,146.97309907277426L100.22722222222221,146.98814856211345L100.30133333333333,147.06179803212484L100.572,147.07777029673258L100.58166666666666,147.07591724395752L100.59777777777778,147.0872756322225L100.81366666666668,147.18104235331217L100.87166666666667,147.21011352539062L101.239,147.22771002451577L101.7481111111111,147.30084559122722L102.11544444444445,147.34864610036215L102.19922222222222,147.35790386199952L102.26688888888889,147.37675698598227L102.28622222222222,147.3856959025065L102.79533333333333,147.46443939208984L103.56544444444445,148.58430970509846L103.71688888888889,148.62874921162924L103.83933333333333,148.61291948954266L103.92955555555557,148.64574553171792L104.29688888888889,148.71359202067057L104.52888888888889,148.7179733276367L105.241,148.81050968170166L105.48266666666667,148.82850755055745L105.77266666666667,148.8224682490031L106.44288888888889,148.89248288472493L106.47511111111112,148.89172890981038L106.58466666666666,149.67283941904705L106.6168888888889,149.83097909291584L106.70066666666666,149.76525948842368L106.84566666666667,149.69496351877848L106.91977777777778,149.65338236490885L107.16144444444444,149.66582107543945L107.37411111111112,149.53512083689373L107.73822222222222,149.58314641316733L108.1571111111111,149.60371004740398L108.19255555555556,149.60244967142742L108.257,149.62084891001385L109.02066666666667,149.6818646113078L109.475,149.74235515594484L109.60066666666667,149.7451534907023L109.69411111111111,149.7601392110189L109.97444444444444,149.76597970326742L110.12911111111111,150.12942186991376L110.13555555555556,150.1252581278483L110.258,150.06657937367757L110.3321111111111,150.23436692555745L111.01522222222222,150.0345598220825L111.22144444444444,150.03955631256105L111.53722222222223,150.19776350657145L111.563,150.2050444285075L112.12366666666667,150.31040585835774L112.23,150.32138163248698L112.46844444444444,150.34616527557372L112.59411111111112,150.36058082580567L112.87122222222223,150.3757090886434L113.187,150.39698543548585L113.2578888888889,150.4028221766154L113.51244444444444,150.43563321431478L113.70255555555556,151.2733481089274L114.06988888888888,151.2020393371582L114.11822222222222,151.14578380584717L114.37277777777778,151.16039066314698L114.65311111111112,151.13215974171956L115.05911111111111,150.71095034281413L115.1718888888889,150.70554498036702L115.41033333333334,150.69937063852944L115.87755555555555,150.74328123728435L115.95811111111112,150.76821867624918L116.16433333333333,150.76674823760987L116.20944444444444,150.76462885538737L116.60577777777777,150.81021995544432L116.64122222222223,150.79057909647622L116.96344444444445,150.5152244567871L117.17933333333333,150.67225755055745L118.14277777777778,151.09300181070964L118.146,151.10223706563312L118.23944444444444,151.1352169036865L118.2458888888889,151.1210526784261L118.56488888888889,150.96427466074624L119.25444444444445,150.9980759938558L119.27377777777777,151.0011406580607L119.2931111111111,151.01021836598713L119.306,151.01362063090008L119.30922222222222,151.01135495503743L119.67977777777777,151.05116182963053L120.4241111111111,150.35505167643228L120.7398888888889,143.19000555674234L120.77211111111112,143.42030550638836L120.79466666666666,143.69641412099202L120.85266666666666,144.14488665262857L121.17811111111111,146.59417228698732L121.45522222222223,147.96994393666586L121.74844444444444,148.78223374684652L121.858,148.99548486073812L121.916,149.08332481384278L122.82788888888889,147.0712771097819L123.05344444444444,147.18478972117106L123.43044444444445,147.38704255421956L123.47233333333334,147.29716574350994L123.76877777777777,146.95806833902995L123.86222222222221,146.84640878041586L123.98788888888889,146.80653813680013L125.14466666666667,151.14121494293212L125.22844444444445,151.14384072621664L125.36055555555555,151.23104298909504L125.44111111111111,151.29437688191732L125.49266666666668,151.34870433807373L125.889,151.5139223734538L126.08877777777778,151.53121503194174L126.759,151.4630984624227L126.81055555555555,151.45669530232746L126.97166666666668,151.50104478200277L127.04899999999999,151.52230987548828L127.21011111111112,151.5492804209391L127.64833333333333,151.55424315134684L127.90933333333334,152.64468218485513L127.91255555555556,152.67713311513265L128.46355555555556,152.75135275522868L128.47966666666667,152.7271317799886L128.56344444444446,152.58518568674722L128.76,152.45362644195558L129.02422222222222,152.20755678812662L129.24655555555555,152.17728900909424L129.37866666666667,152.1749220530192L129.51722222222222,152.18632170359294L129.94255555555557,152.0516752878825L129.978,152.04296894073485L130.43555555555557,152.03114916483563L130.73844444444444,152.07645893096924L130.78355555555555,152.0792422612508L130.84155555555557,152.08803488413494L132.02411111111113,152.94519182840983L132.994,152.92995103200278L133.11322222222222,152.95606257120767L133.92844444444444,153.0428897221883L134.28933333333333,152.78562297821045L134.49877777777778,152.5680055618286L134.52133333333333,152.56539853413898L134.54711111111112,152.5641269048055L134.70177777777778,152.55321114857992L134.73077777777777,152.55340995788575L134.9208888888889,152.84806035359702L134.96277777777777,152.75025367736816L135.46866666666668,153.1092357635498L135.57500000000002,153.14205055236818L135.71033333333332,153.20063552856445L136.3096666666667,153.27735341389973L136.65444444444444,153.23745651245116L137.025,153.2717717488607L137.1828888888889,153.27370357513428L137.36333333333334,153.28938700358074L137.78866666666667,153.31707026163738L137.81444444444443,153.31063709259033L138.13666666666666,153.34166259765624L138.17533333333333,153.34932613372803L138.2397777777778,153.35267963409424L138.62,154.02413368225098L138.707,154.07996533711753L138.71344444444443,154.07590662638347L139.00344444444443,153.90221106211345L139.229,153.90879802703859L139.33855555555556,153.9272985458374L139.42877777777778,153.92968425750732L139.867,153.9259256362915L140.16344444444445,153.95623467763266L140.476,153.78374322255453L140.505,153.6604439417521L140.54366666666667,153.3946434020996L140.6048888888889,153.1306396484375L140.65966666666665,153.01515394846598L140.83366666666666,152.85933621724448L140.87233333333333,152.8344362894694L140.95288888888888,152.80851605733235L141.0721111111111,152.69931723276773L141.40722222222223,152.12470207214355L141.46844444444443,152.0520616531372L141.63922222222223,151.97833716074626L141.80677777777777,151.9967476526896L142.51888888888888,153.61494661966958L142.58655555555555,153.63083635965984L142.7637777777778,153.603351910909L143.0441111111111,153.71158669789634L143.04733333333334,153.7155028661092L143.16977777777777,153.73068364461264L143.28255555555555,153.78714548746746L143.87544444444444,153.02939319610596L144.18155555555555,152.60685965220134L144.9452222222222,152.63947563171388L145.14499999999998,152.64833952585855L145.39311111111112,152.68659718831378L145.47044444444444,153.5344701131185L145.53811111111114,153.27848625183105L145.56388888888887,153.41125710805255L145.61222222222221,153.51677983601888L145.94733333333332,153.4602767308553L145.9537777777778,153.45543778737385L146.24377777777778,153.35698216756185L146.88177777777778,153.62475579579672L146.90433333333334,153.63030745188394L147.117,153.66927032470704L147.1331111111111,153.6728188832601L147.46822222222224,153.705539894104L147.52300000000002,153.71522153218586L147.7388888888889,153.7482613881429L148.41233333333335,153.8480073928833L148.46388888888887,153.86356703440347L148.50577777777778,153.86752821604412L148.61855555555556,153.88476835886638L148.70233333333334,153.88930346171063L149.45311111111113,154.64297828674316L149.64644444444446,154.7113649368286L149.74311111111112,154.68858439127604L149.80433333333332,154.67475776672364L150.0911111111111,154.65489184061687L150.25866666666667,154.642494392395L150.35855555555557,154.61190401713054L150.54222222222222,154.59784857432047L151.0126666666667,154.62482287089028L151.38644444444446,154.62591444651287L151.49277777777777,154.62025400797526L152.308,154.62478535970052L152.41755555555557,154.617076810201L153.30366666666666,155.09820658365885L153.66455555555555,155.11905530293782L154.68277777777777,155.0993356704712L154.86,155.08916263580323L154.90833333333333,155.08944396972657L155.2402222222222,155.04527079264324L155.47866666666667,155.00673179626466L155.53022222222222,155.0054376602173L155.56566666666666,154.9989144643148L155.67522222222223,154.99619115193684L155.933,154.98985176086427L156.12955555555556,155.50871404012045L156.1327777777778,155.49661293029786L156.31966666666668,155.15355809529623L156.3841111111111,155.23236910502115L156.77077777777777,154.945667330424L157.2251111111111,155.09698746999106L157.30244444444446,155.0971487681071L157.74066666666667,155.0612880706787L158.05,155.05997517903646L158.2401111111111,155.05773576100665L158.27555555555557,155.04184226989747L159.1906666666667,154.98208319346108L159.54833333333335,154.6602709452311L159.63855555555554,154.20327962239583L159.8028888888889,154.5610163370768L160.11544444444442,154.98690713246663L160.21533333333332,154.95493634541828L160.23144444444446,154.96294123331705L160.28622222222222,155.0128048578898L160.57299999999998,155.18834597269694L161.46233333333333,155.1080757776896L162.081,155.154274559021L162.1196666666667,155.15054594675698L162.59333333333333,155.0439691543579L162.62555555555556,155.01633466084797L162.6448888888889,154.9955572128296L162.65777777777777,154.97939739227294L162.75766666666667,154.70747502644855L162.7641111111111,154.68616491953532L162.80922222222222,154.56088879903157L162.82855555555554,154.5221960067749L163.06377777777777,154.25890871683757L163.85966666666667,151.5635196685791L164.14322222222222,149.6967528025309L164.227,149.74433574676513L164.517,150.1865701675415L164.60399999999998,150.35710728963215L164.82955555555554,150.3989397684733L165.0486666666667,150.65915864308676L165.3128888888889,151.0174805323283L165.46755555555555,151.2515728632609L165.51911111111113,151.32432206471762L166.2441111111111,152.17564601898192L166.53733333333335,152.4581465403239L166.97233333333332,155.52402985890706L166.9948888888889,155.50348873138427L167.38477777777777,155.52757466634114L167.4621111111111,155.48367156982422L167.53944444444446,155.50782877604166L167.73922222222222,155.57420857747397L168.04533333333333,155.57876993815103L168.403,155.61448809305827L168.46099999999998,155.6074322382609L169.1376666666667,155.4201913833618L169.45344444444444,155.43748779296874L170.05922222222222,155.4392433166504L170.114,155.44105885823566L170.23966666666666,153.90293877919515L171.071,155.60270957946778L171.70255555555556,155.66390533447264L171.84433333333334,155.67062733968098L171.95711111111112,155.6532709121704L172.1311111111111,155.7014840443929L172.2342222222222,155.70191917419433L172.4662222222222,155.71045672098793L172.55322222222225,155.71191590627035L172.5661111111111,155.7113644917806L172.69822222222223,155.7245646794637L172.76911111111113,155.7251235961914L173.32011111111112,155.75845228830974L173.333,155.7571881612142L173.37488888888888,155.76074047088622L173.63266666666667,155.79260247548422L173.64555555555555,155.79525451660157L173.76155555555556,156.05680503845215L173.91622222222222,156.2540051142375L173.9387777777778,156.1722007115682L174.08055555555555,156.21836573282877L174.25133333333332,156.40021247863768L175.1567777777778,156.20152320861817L175.3501111111111,156.21441205342612L175.62077777777776,156.21954358418782L175.85600000000002,156.19684181213378L175.9011111111111,156.2055294036865L176.378,156.2214604059855L176.47466666666668,156.21920223236083L176.82911111111113,156.22301712036133L177.49288888888887,156.4280232747396L177.5218888888889,156.48015257517497L177.69266666666667,156.5450019200643L178.12766666666667,156.61039892832437L178.24366666666668,156.62836303710938L177.30277777777778,157.9916847229004L177.886,156.63036613464357L177.9987777777778,156.60058600107828L178.4821111111111,156.35361607869464L178.5111111111111,156.3482519785563L178.69477777777777,156.33428656260173L178.80433333333335,156.34056593577066L178.94933333333333,156.32523886362713L179.06533333333334,156.32786089579264L179.42944444444444,156.3323097229004L179.481,156.3409185409546L179.73555555555555,156.30560550689697L180.01266666666666,156.2493762334188L180.64744444444446,156.2782786051432L182.265,156.66513900756837L182.40355555555556,156.6457607269287L182.59688888888888,156.6473699569702L182.66133333333335,156.61598434448243L182.74511111111113,156.63447736104328L183.03511111111112,156.61658452351887L183.2026666666667,156.60074729919432L183.396,156.60621267954508L183.512,156.6018388748169L183.68277777777777,156.59618218739826L183.69566666666665,156.59293371836344L183.73755555555556,156.5842498779297L183.78266666666667,156.5861291885376L183.86,156.58612543741862L183.89866666666666,156.5844336827596L184.02433333333332,156.59782517751057L184.06944444444443,156.60108114878338L184.469,156.3098030090332L184.48833333333334,156.31951090494792L184.62044444444444,156.15915807088214L184.67844444444444,155.8146027882894L184.75255555555555,155.7917247136434L185.09411111111112,155.7563554128011L185.43244444444446,155.9437463124593L185.48399999999998,155.94416268666586L185.58066666666667,155.97893555959067L186.50544444444446,156.25385131835938L186.5312222222222,156.25488287607828L186.94366666666664,156.30605189005533L187.56877777777777,156.29068730672202L188.01344444444445,156.95010401407876L188.9478888888889,156.90827153523762L189.1218888888889,156.95744870503745L189.20244444444444,156.95691604614257L189.60844444444444,156.89394601186115L189.86944444444444,156.92900021870932L190.066,156.93185482025146L190.12722222222223,156.93184356689454L191.313,156.9525422414144L191.4741111111111,157.42987588246663L191.77377777777778,157.1489958445231L191.82533333333333,157.2440454483032L191.92200000000003,157.1687754948934L192.15722222222223,157.17003211975097L192.52455555555557,156.97754344940185L192.80811111111112,156.8997489929199L193.02722222222224,156.92876014709472L193.32044444444443,156.91675281524658L193.3268888888889,156.91265284220376L193.34622222222222,156.9071574529012L193.93266666666665,156.93849430084228L194.4482222222222,156.98013547261556L194.5642222222222,156.99496739705404L194.94766666666666,156.99058233896892L195.24733333333333,157.41056887308756L195.42455555555557,157.4053098042806L195.61788888888887,157.43465105692545L195.924,157.46334336598716L196.93255555555555,157.38509877522787L197.07433333333333,157.35972620646157L197.08722222222224,157.35783189137777L197.113,157.35412578582765L197.58988888888888,157.2427625656128L197.74133333333333,157.20987275441487L197.954,156.99297930399575L197.96044444444445,156.98926944732665L198.5017777777778,152.20861460367837L198.679,138.15684038798014L198.76922222222223,138.34123414357504L198.87555555555556,140.12830848693847L198.95288888888888,141.61696631113688L198.9851111111111,142.19263178507487L199.38144444444444,146.9636349995931L199.43944444444446,147.42603543599446L199.80355555555556,149.13939278920492L199.93566666666666,149.2405829747518L200.32233333333332,150.4225305557251L200.65744444444445,151.3377623240153L200.76377777777776,151.5858725865682L200.97,152.02695541381837L201.00222222222223,152.1026830037435L201.25677777777778,152.5499926884969L201.3051111111111,152.6310468673706L201.42433333333332,152.81480668385825L202.25244444444445,157.67827123006185L202.2782222222222,157.70557187398276L202.46833333333333,157.47563578287762L202.51344444444445,157.4811086654663L203.04833333333335,157.31249211629233L203.23522222222223,157.347793896993L203.2577777777778,157.3591972986857L203.27066666666664,157.350505956014L203.28355555555555,157.35354061126708L203.73788888888888,157.4506758371989L203.84422222222224,157.4558598836263L203.87966666666665,157.45885702768962L204.2566666666667,157.46408983866374L204.41455555555558,157.46122023264567L204.4628888888889,157.44863147735595L204.53055555555557,157.4504545211792L204.57888888888888,157.4545207341512L204.95911111111113,157.46140403747557L205.36833333333334,157.44368750254313L205.6841111111111,157.87755317687987L205.90322222222224,157.88852144877117L206.01922222222223,157.82233295440673L206.09011111111113,157.79341932932536L206.2318888888889,157.8321833928426L206.3221111111111,157.8164399464925L206.60566666666668,157.74891980489093L207.02455555555557,157.75576934814453L207.16955555555555,157.75396881103515L207.84944444444446,157.7094767888387L208.191,157.69739818572998L208.20066666666665,157.69367707570393L208.28444444444443,157.70343748728433L208.38433333333333,157.6960590362549L208.9611111111111,157.67139167785643L208.97722222222222,157.66860084533693L209.00300000000001,157.66695035298665L209.525,157.00868523915608L209.69577777777778,156.957354927063L209.78922222222224,157.0287949879964L210.0308888888889,157.12151514689128L210.33055555555555,157.2165234883626L210.34022222222222,157.21192836761475L210.743,157.3369944254557L211.42933333333332,157.4344747543335L211.53566666666669,157.44077663421632L211.671,157.43118127187094L211.84177777777776,157.45484708150227L212.08344444444444,157.47867794036864L212.12855555555555,157.47736129760742L212.1511111111111,157.47894802093506L212.4088888888889,157.48814951578777L212.98566666666667,158.07218748728434L213.092,158.11428254445394L213.208,158.11961288452147L213.6687777777778,158.03258692423503L213.78799999999998,158.02858823140463L212.80522222222223,158.15640761057537L212.88255555555557,158.10445461273193L213.00500000000002,158.10826199849447L213.02433333333335,158.07796045939128L213.55277777777778,157.9363894780477L213.6011111111111,157.9275593439738L213.71066666666667,157.89827810923256L214.49044444444442,157.86690375010173L214.84488888888887,157.81180731455484L215.55377777777778,157.63945089975994L216.21433333333334,159.07405134836833L216.37866666666667,158.29971160888672L216.68155555555558,158.13124885559083L217.05533333333332,158.16129906972247L217.23255555555554,158.07828680674234L217.32922222222223,158.07239379882813L217.3421111111111,158.05465100606284L217.58055555555558,158.05040098826092L217.66755555555557,158.0629934946696L217.72233333333335,158.05713799794515L217.77066666666667,158.06525166829425L217.80288888888887,158.0656492869059L218.07355555555554,158.0657918294271L218.5311111111111,157.83243096669514L218.58266666666668,157.82192783355714L218.602,157.8177978515625L219.33666666666664,157.7880739847819L219.4881111111111,157.78757133483887L219.878,157.90923137664794L220.342,158.0116631825765L220.49666666666667,158.07291520436604L220.54822222222222,158.09426282246906L220.6448888888889,158.12750898996987L220.80277777777778,158.10067348480226L220.86077777777777,158.09951814015704L220.90588888888888,158.08573277791342L221.26355555555554,158.01343746185302L221.35055555555556,157.99067192077638L221.73399999999998,157.97172501881917L221.98533333333333,157.95000228881835L222.285,157.51909249623617L222.30433333333332,157.43877353668213L222.37522222222222,157.23692957560223L222.6652222222222,156.85576712290444L222.99066666666667,156.34351806640626L223.23877777777776,156.21371434529624L223.329,156.08815689086913L223.62866666666667,156.63504753112792L223.76399999999998,156.7632832845052L223.87033333333335,156.75991853078204L224.07977777777776,156.98674119313557L224.5147777777778,157.293053817749L225.00133333333335,157.41342347462972L225.32355555555554,156.86595516204835L225.591,155.40086561838785L225.81977777777777,154.55424931844075L226.13233333333335,153.53083527882893L226.17100000000002,153.45981159210206L226.26122222222222,153.3320634841919L226.3417777777778,153.23261381785073L226.6511111111111,152.4198138554891L227.12155555555555,151.84404335021972L227.33744444444443,152.3647024154663L227.48244444444444,152.49413477579753L228.60055555555556,153.6954568862915L228.6843333333333,153.8103536605835L228.85833333333335,153.88543230692545L229.39000000000001,154.43016605377198L229.81533333333334,154.3542584101359L229.91522222222224,154.39502182006837L229.941,154.41355985005697L230.96888888888887,157.3618080774943L231.15900000000002,157.40101477305095L231.24922222222222,157.43903986612955L231.45222222222222,157.45096092224122L232.08377777777778,157.44175567626954L232.52844444444443,157.46351216634116L232.754,157.52839152018228L232.75722222222223,157.52744623819987L233.02788888888887,157.5644810358683L233.35333333333332,157.6170529683431L233.52733333333333,157.6405912399292L233.537,157.6428119023641L233.89144444444446,159.13508580525715L234.059,157.99614855448405L234.16211111111113,158.1186938603719L234.55844444444443,155.55730978647867L234.8581111111111,155.94766998291016L234.9128888888889,156.03537864685057L235.01277777777779,156.214937210083L235.15455555555556,156.38303985595704L235.23833333333334,156.48655573527017L235.32211111111113,156.55389582316081L236.24366666666666,156.99731559753417L236.27588888888891,157.0111384709676L236.28233333333333,157.01175740559896L236.8107777777778,156.251544380188L237.45522222222223,156.4029958089193L237.46166666666664,156.29594637552896L237.7838888888889,153.03512115478514L237.81933333333336,152.924827003479L237.90955555555556,152.60619570414224L237.99333333333334,152.43599993387858L238.6087777777778,152.82461961110434L238.70222222222222,153.03835837046307L238.7602222222222,153.18587112426758L238.9471111111111,153.52939109802247L239.02766666666668,153.6851675669352L239.26933333333332,153.9343468983968L239.36922222222222,153.9686958948771L239.4368888888889,153.9958614985148L239.51744444444444,154.04991887410483L239.75588888888888,154.2988093694051L239.8912222222222,154.46345348358153L240.1038888888889,154.68037694295248L240.38422222222223,154.8781847000122L240.7418888888889,155.08044878641763L240.874,155.13083756764732L241.0641111111111,156.7221710205078L241.09311111111109,156.86236159006756L241.89544444444445,156.12866147359213L242.65588888888888,156.20103931427002L243.01999999999998,155.96902135213216L243.47111111111113,156.14968649546307L243.98988888888888,156.36802037556967L244.08011111111114,156.40361099243165L244.10588888888887,156.41070810953775L244.22511111111112,156.4450008392334L245.0242222222222,158.04364522298175L245.5752222222222,158.0260862350464L245.68477777777778,158.05407333374023L245.81044444444447,158.0623145421346L246.44844444444445,158.1169645945231L247.62133333333333,158.18952248891196L248.22711111111113,156.99919865926108L248.23033333333333,157.0229845046997L248.28511111111112,157.1924300511678L248.38177777777776,157.18478902180988L248.47522222222221,157.4448428471883L248.59766666666667,157.54124660491942L248.762,157.7207489013672L249.02944444444447,157.72686697642007L249.28077777777776,157.70116430918375L249.60622222222221,157.8536097844442L250.00255555555557,157.68486194610597L250.37311111111111,157.63014437357583L250.5632222222222,157.66159750620523L251.15288888888887,157.76813303629555L251.15611111111113,157.76802050272624L251.19799999999998,157.76903330485027L251.65233333333333,158.67250531514486L251.81344444444446,158.62380828857422L252.06799999999998,158.60741964975995L252.13566666666665,158.6376574198405L252.60288888888888,158.6398293177287L252.735,158.61235987345378L252.822,158.6116058985392L252.91866666666667,158.59389311472574L253.17322222222222,158.54293791453046L253.46966666666665,158.49797700246177L253.55022222222223,158.50570055643718L253.68877777777777,158.5271344502767L254.09799999999998,158.56413173675537L254.23655555555555,158.5849054336548L255.20322222222222,159.01186904907226L255.2998888888889,158.71533559163413L255.31277777777777,158.67858963012696L255.3901111111111,158.70557142893472L255.41266666666667,158.70135892232258L255.52866666666665,158.78464501698812L255.6027777777778,158.76296354929605L255.693,158.82001056671143L255.84444444444446,158.73759473164878L255.9378888888889,158.75235913594565L256.17633333333333,158.78623174031577L256.77244444444443,156.21821568806965L257.03344444444446,148.66150398254393L257.92277777777775,148.77864017486573L258.0581111111111,149.09079329172772L258.42544444444445,149.95562127431234L258.5156666666667,150.1003506978353L258.5511111111111,150.1539691925049L258.83144444444446,156.8697250366211L258.9152222222222,157.0275421142578L259.289,157.30775820414226L259.5242222222222,157.51279061635336L259.7852222222222,157.51457239786782L259.96566666666666,157.42685998280845L260.0301111111111,157.46141529083252L260.13,157.49655577341716L260.20088888888887,157.50456816355387L260.3072222222222,157.47969449361167L260.3877777777778,157.45673014322918L260.39744444444443,157.45761915842692L260.9033333333333,157.3843823115031L261.1546666666666,157.38623536427815L261.2223333333333,157.39264602661132L261.22555555555556,157.3928560892741L261.232,157.39952932993572L261.3383333333333,157.43279050191245L261.5606666666667,157.4552184422811L261.57033333333334,157.45802052815756L261.69922222222226,157.47635974884034L262.06655555555557,157.5270373662313L262.0891111111111,157.52220217386883L262.59822222222226,158.4709051767985L263.08155555555555,158.6561616897583L263.3232222222222,158.6469264348348L263.5197777777778,158.62943871816L263.987,158.68152675628662L264.06755555555554,158.67472222646077L264.5154444444444,158.62518870035808L265.19533333333334,158.55084527333577L265.64644444444446,158.55953661600748L265.901,158.9073403676351L266.0008888888889,159.0319637934367L266.0331111111111,159.0077240626017L266.0492222222222,159.00899569193524L266.2006666666667,158.971578280131L266.3682222222222,158.88700930277506L266.394,158.87995719909668L266.4681111111111,158.8903402964274L266.5647777777778,158.86648693084717L266.74844444444443,158.87514826456706L266.85477777777777,158.8514486948649L267.14155555555556,158.8563326517741L267.2865555555556,158.88027229309083L267.3155555555556,158.89157066345214L267.3381111111111,158.89706230163574L268.01477777777774,158.95367418924968L269.2746666666667,159.58780835469562L269.35844444444444,159.78758544921874L269.47444444444443,159.4299575169881L269.79344444444445,159.29582875569662L269.99966666666666,159.16248772939048" style="fill: none;" fill="none"></path></g></g></g></g></g></g><g transform="translate(40, 177)" clip-path="url(#clip_1)"><clipPath id="clip_1"><rect width="290" height="23"></rect></clipPath><g><g><line x1="0" y1="0" x2="0" y2="5" style="visibility: inherit;" fill="rgb(0, 0, 0)" stroke="rgb(204, 204, 204)" stroke-width="1px"></line><line x1="32.22222222222222" y1="0" x2="32.22222222222222" y2="5" style="visibility: inherit;" fill="rgb(0, 0, 0)" stroke="rgb(204, 204, 204)" stroke-width="1px"></line><line x1="64.44444444444444" y1="0" x2="64.44444444444444" y2="5" style="visibility: inherit;" fill="rgb(0, 0, 0)" stroke="rgb(204, 204, 204)" stroke-width="1px"></line><line x1="96.66666666666666" y1="0" x2="96.66666666666666" y2="5" style="visibility: inherit;" fill="rgb(0, 0, 0)" stroke="rgb(204, 204, 204)" stroke-width="1px"></line><line x1="128.88888888888889" y1="0" x2="128.88888888888889" y2="5" style="visibility: inherit;" fill="rgb(0, 0, 0)" stroke="rgb(204, 204, 204)" stroke-width="1px"></line><line x1="161.11111111111111" y1="0" x2="161.11111111111111" y2="5" style="visibility: inherit;" fill="rgb(0, 0, 0)" stroke="rgb(204, 204, 204)" stroke-width="1px"></line><line x1="193.33333333333331" y1="0" x2="193.33333333333331" y2="5" style="visibility: inherit;" fill="rgb(0, 0, 0)" stroke="rgb(204, 204, 204)" stroke-width="1px"></line><line x1="225.55555555555557" y1="0" x2="225.55555555555557" y2="5" style="visibility: inherit;" fill="rgb(0, 0, 0)" stroke="rgb(204, 204, 204)" stroke-width="1px"></line><line x1="257.77777777777777" y1="0" x2="257.77777777777777" y2="5" style="visibility: inherit;" fill="rgb(0, 0, 0)" stroke="rgb(204, 204, 204)" stroke-width="1px"></line><line x1="290" y1="0" x2="290" y2="5" style="visibility: inherit;" fill="rgb(0, 0, 0)" stroke="rgb(204, 204, 204)" stroke-width="1px"></line></g><g transform="translate(0, 8)"><text x="0" y="0" dx="0em" dy="0.95em" style="text-anchor: middle; visibility: hidden; font-family: Roboto, sans-serif; font-size: 12px; font-weight: 200;" fill="rgb(255, 255, 255)" stroke="none" stroke-width="1px">-10k</text><text x="32.22222222222222" y="0" dx="0em" dy="0.95em" style="text-anchor: middle; visibility: inherit; font-family: Roboto, sans-serif; font-size: 12px; font-weight: 200;" fill="rgb(255, 255, 255)" stroke="none" stroke-width="1px">0</text><text x="64.44444444444444" y="0" dx="0em" dy="0.95em" style="text-anchor: middle; visibility: inherit; font-family: Roboto, sans-serif; font-size: 12px; font-weight: 200;" fill="rgb(255, 255, 255)" stroke="none" stroke-width="1px">10k</text><text x="96.66666666666666" y="0" dx="0em" dy="0.95em" style="text-anchor: middle; visibility: inherit; font-family: Roboto, sans-serif; font-size: 12px; font-weight: 200;" fill="rgb(255, 255, 255)" stroke="none" stroke-width="1px">20k</text><text x="128.88888888888889" y="0" dx="0em" dy="0.95em" style="text-anchor: middle; visibility: inherit; font-family: Roboto, sans-serif; font-size: 12px; font-weight: 200;" fill="rgb(255, 255, 255)" stroke="none" stroke-width="1px">30k</text><text x="161.11111111111111" y="0" dx="0em" dy="0.95em" style="text-anchor: middle; visibility: inherit; font-family: Roboto, sans-serif; font-size: 12px; font-weight: 200;" fill="rgb(255, 255, 255)" stroke="none" stroke-width="1px">40k</text><text x="193.33333333333331" y="0" dx="0em" dy="0.95em" style="text-anchor: middle; visibility: inherit; font-family: Roboto, sans-serif; font-size: 12px; font-weight: 200;" fill="rgb(255, 255, 255)" stroke="none" stroke-width="1px">50k</text><text x="225.55555555555557" y="0" dx="0em" dy="0.95em" style="text-anchor: middle; visibility: inherit; font-family: Roboto, sans-serif; font-size: 12px; font-weight: 200;" fill="rgb(255, 255, 255)" stroke="none" stroke-width="1px">60k</text><text x="257.77777777777777" y="0" dx="0em" dy="0.95em" style="text-anchor: middle; visibility: inherit; font-family: Roboto, sans-serif; font-size: 12px; font-weight: 200;" fill="rgb(255, 255, 255)" stroke="none" stroke-width="1px">70k</text><text x="290" y="0" dx="0em" dy="0.95em" style="text-anchor: middle; visibility: hidden; font-family: Roboto, sans-serif; font-size: 12px; font-weight: 200;" fill="rgb(255, 255, 255)" stroke="none" stroke-width="1px">80k</text></g><line x1="0" y1="0" x2="290" y2="0" fill="rgb(0, 0, 0)" stroke="rgb(204, 204, 204)" stroke-width="1px"></line></g></g></g></g></svg>