<svg viewBox="0 0 330 200" xmlns="http://www.w3.org/2000/svg"><g><g><g><g><g><line x1="30" y1="177" x2="25" y2="177" style="visibility: inherit;" fill="rgb(0, 0, 0)" stroke="rgb(204, 204, 204)" stroke-width="1px"></line><line x1="30" y1="162.25" x2="25" y2="162.25" style="visibility: inherit;" fill="rgb(0, 0, 0)" stroke="rgb(204, 204, 204)" stroke-width="1px"></line><line x1="30" y1="147.5" x2="25" y2="147.5" style="visibility: inherit;" fill="rgb(0, 0, 0)" stroke="rgb(204, 204, 204)" stroke-width="1px"></line><line x1="30" y1="132.75" x2="25" y2="132.75" style="visibility: inherit;" fill="rgb(0, 0, 0)" stroke="rgb(204, 204, 204)" stroke-width="1px"></line><line x1="30" y1="118.00000000000001" x2="25" y2="118.00000000000001" style="visibility: inherit;" fill="rgb(0, 0, 0)" stroke="rgb(204, 204, 204)" stroke-width="1px"></line><line x1="30" y1="103.24999999999999" x2="25" y2="103.24999999999999" style="visibility: inherit;" fill="rgb(0, 0, 0)" stroke="rgb(204, 204, 204)" stroke-width="1px"></line><line x1="30" y1="88.5" x2="25" y2="88.5" style="visibility: inherit;" fill="rgb(0, 0, 0)" stroke="rgb(204, 204, 204)" stroke-width="1px"></line><line x1="30" y1="73.75" x2="25" y2="73.75" style="visibility: inherit;" fill="rgb(0, 0, 0)" stroke="rgb(204, 204, 204)" stroke-width="1px"></line><line x1="30" y1="59.00000000000001" x2="25" y2="59.00000000000001" style="visibility: inherit;" fill="rgb(0, 0, 0)" stroke="rgb(204, 204, 204)" stroke-width="1px"></line><line x1="30" y1="44.25" x2="25" y2="44.25" style="visibility: inherit;" fill="rgb(0, 0, 0)" stroke="rgb(204, 204, 204)" stroke-width="1px"></line><line x1="30" y1="29.499999999999993" x2="25" y2="29.499999999999993" style="visibility: inherit;" fill="rgb(0, 0, 0)" stroke="rgb(204, 204, 204)" stroke-width="1px"></line><line x1="30" y1="14.750000000000007" x2="25" y2="14.750000000000007" style="visibility: inherit;" fill="rgb(0, 0, 0)" stroke="rgb(204, 204, 204)" stroke-width="1px"></line><line x1="30" y1="0" x2="25" y2="0" style="visibility: inherit;" fill="rgb(0, 0, 0)" stroke="rgb(204, 204, 204)" stroke-width="1px"></line></g><g transform="translate(20, 0)"><text x="0" y="177" dx="0em" dy="0.3em" style="text-anchor: end; visibility: hidden; font-family: Roboto, sans-serif; font-size: 12px; font-weight: 200;" fill="rgb(33, 33, 33)" stroke="none" stroke-width="1px">35</text><text x="0" y="162.25" dx="0em" dy="0.3em" style="text-anchor: end; visibility: inherit; font-family: Roboto, sans-serif; font-size: 12px; font-weight: 200;" fill="rgb(33, 33, 33)" stroke="none" stroke-width="1px">40</text><text x="0" y="147.5" dx="0em" dy="0.3em" style="text-anchor: end; visibility: hidden; font-family: Roboto, sans-serif; font-size: 12px; font-weight: 200;" fill="rgb(33, 33, 33)" stroke="none" stroke-width="1px">45</text><text x="0" y="132.75" dx="0em" dy="0.3em" style="text-anchor: end; visibility: inherit; font-family: Roboto, sans-serif; font-size: 12px; font-weight: 200;" fill="rgb(33, 33, 33)" stroke="none" stroke-width="1px">50</text><text x="0" y="118.00000000000001" dx="0em" dy="0.3em" style="text-anchor: end; visibility: hidden; font-family: Roboto, sans-serif; font-size: 12px; font-weight: 200;" fill="rgb(33, 33, 33)" stroke="none" stroke-width="1px">55</text><text x="0" y="103.24999999999999" dx="0em" dy="0.3em" style="text-anchor: end; visibility: inherit; font-family: Roboto, sans-serif; font-size: 12px; font-weight: 200;" fill="rgb(33, 33, 33)" stroke="none" stroke-width="1px">60</text><text x="0" y="88.5" dx="0em" dy="0.3em" style="text-anchor: end; visibility: hidden; font-family: Roboto, sans-serif; font-size: 12px; font-weight: 200;" fill="rgb(33, 33, 33)" stroke="none" stroke-width="1px">65</text><text x="0" y="73.75" dx="0em" dy="0.3em" style="text-anchor: end; visibility: inherit; font-family: Roboto, sans-serif; font-size: 12px; font-weight: 200;" fill="rgb(33, 33, 33)" stroke="none" stroke-width="1px">70</text><text x="0" y="59.00000000000001" dx="0em" dy="0.3em" style="text-anchor: end; visibility: hidden; font-family: Roboto, sans-serif; font-size: 12px; font-weight: 200;" fill="rgb(33, 33, 33)" stroke="none" stroke-width="1px">75</text><text x="0" y="44.25" dx="0em" dy="0.3em" style="text-anchor: end; visibility: inherit; font-family: Roboto, sans-serif; font-size: 12px; font-weight: 200;" fill="rgb(33, 33, 33)" stroke="none" stroke-width="1px">80</text><text x="0" y="29.499999999999993" dx="0em" dy="0.3em" style="text-anchor: end; visibility: hidden; font-family: Roboto, sans-serif; font-size: 12px; font-weight: 200;" fill="rgb(33, 33, 33)" stroke="none" stroke-width="1px">85</text><text x="0" y="14.750000000000007" dx="0em" dy="0.3em" style="text-anchor: end; visibility: inherit; font-family: Roboto, sans-serif; font-size: 12px; font-weight: 200;" fill="rgb(33, 33, 33)" stroke="none" stroke-width="1px">90</text><text x="0" y="0" dx="0em" dy="0.3em" style="text-anchor: end; visibility: hidden; font-family: Roboto, sans-serif; font-size: 12px; font-weight: 200;" fill="rgb(33, 33, 33)" stroke="none" stroke-width="1px">95</text></g><line x1="30" y1="0" x2="30" y2="177" fill="rgb(0, 0, 0)" stroke="rgb(204, 204, 204)" stroke-width="1px"></line></g></g><g transform="translate(30, 0)" clip-path="url(#clip_0)"><clipPath id="clip_0"><rect width="300" height="177"></rect></clipPath><g><g><g><line x1="0" y1="0" x2="0" y2="177" fill="rgb(0, 0, 0)" stroke="rgb(66, 66, 66)" stroke-width="1px" opacity="0.25"></line><line x1="33.33333333333333" y1="0" x2="33.33333333333333" y2="177" fill="rgb(0, 0, 0)" stroke="rgb(66, 66, 66)" stroke-width="1px" opacity="0.25"></line><line x1="66.66666666666666" y1="0" x2="66.66666666666666" y2="177" fill="rgb(0, 0, 0)" stroke="rgb(66, 66, 66)" stroke-width="1px" opacity="0.25"></line><line x1="100" y1="0" x2="100" y2="177" fill="rgb(0, 0, 0)" stroke="rgb(66, 66, 66)" stroke-width="1px" opacity="0.25"></line><line x1="133.33333333333331" y1="0" x2="133.33333333333331" y2="177" fill="rgb(0, 0, 0)" stroke="rgb(66, 66, 66)" stroke-width="1px" opacity="0.25"></line><line x1="166.66666666666669" y1="0" x2="166.66666666666669" y2="177" fill="rgb(0, 0, 0)" stroke="rgb(66, 66, 66)" stroke-width="1px" opacity="0.25"></line><line x1="200" y1="0" x2="200" y2="177" fill="rgb(0, 0, 0)" stroke="rgb(66, 66, 66)" stroke-width="1px" opacity="0.25"></line><line x1="233.33333333333334" y1="0" x2="233.33333333333334" y2="177" fill="rgb(0, 0, 0)" stroke="rgb(66, 66, 66)" stroke-width="1px" opacity="0.25"></line><line x1="266.66666666666663" y1="0" x2="266.66666666666663" y2="177" fill="rgb(0, 0, 0)" stroke="rgb(66, 66, 66)" stroke-width="1px" opacity="0.25"></line><line x1="300" y1="0" x2="300" y2="177" fill="rgb(0, 0, 0)" stroke="rgb(66, 66, 66)" stroke-width="1px" opacity="0.25"></line></g><g><line x1="0" y1="177" x2="300" y2="177" fill="rgb(0, 0, 0)" stroke="rgb(66, 66, 66)" stroke-width="1px" opacity="0.25"></line><line x1="0" y1="162.25" x2="300" y2="162.25" fill="rgb(0, 0, 0)" stroke="rgb(66, 66, 66)" stroke-width="1px" opacity="0.25"></line><line x1="0" y1="147.5" x2="300" y2="147.5" fill="rgb(0, 0, 0)" stroke="rgb(66, 66, 66)" stroke-width="1px" opacity="0.25"></line><line x1="0" y1="132.75" x2="300" y2="132.75" fill="rgb(0, 0, 0)" stroke="rgb(66, 66, 66)" stroke-width="1px" opacity="0.25"></line><line x1="0" y1="118.00000000000001" x2="300" y2="118.00000000000001" fill="rgb(0, 0, 0)" stroke="rgb(66, 66, 66)" stroke-width="1px" opacity="0.25"></line><line x1="0" y1="103.24999999999999" x2="300" y2="103.24999999999999" fill="rgb(0, 0, 0)" stroke="rgb(66, 66, 66)" stroke-width="1px" opacity="0.25"></line><line x1="0" y1="88.5" x2="300" y2="88.5" fill="rgb(0, 0, 0)" stroke="rgb(66, 66, 66)" stroke-width="1px" opacity="0.25"></line><line x1="0" y1="73.75" x2="300" y2="73.75" fill="rgb(0, 0, 0)" stroke="rgb(66, 66, 66)" stroke-width="1px" opacity="0.25"></line><line x1="0" y1="59.00000000000001" x2="300" y2="59.00000000000001" fill="rgb(0, 0, 0)" stroke="rgb(66, 66, 66)" stroke-width="1px" opacity="0.25"></line><line x1="0" y1="44.25" x2="300" y2="44.25" fill="rgb(0, 0, 0)" stroke="rgb(66, 66, 66)" stroke-width="1px" opacity="0.25"></line><line x1="0" y1="29.499999999999993" x2="300" y2="29.499999999999993" fill="rgb(0, 0, 0)" stroke="rgb(66, 66, 66)" stroke-width="1px" opacity="0.25"></line><line x1="0" y1="14.750000000000007" x2="300" y2="14.750000000000007" fill="rgb(0, 0, 0)" stroke="rgb(66, 66, 66)" stroke-width="1px" opacity="0.25"></line><line x1="0" y1="0" x2="300" y2="0" fill="rgb(0, 0, 0)" stroke="rgb(66, 66, 66)" stroke-width="1px" opacity="0.25"></line></g></g></g><g><g><line x1="0" y1="280.25" x2="300" y2="280.25" fill="rgb(0, 0, 0)" stroke="rgb(153, 153, 153)" stroke-width="1.5px"></line></g></g><g><g><line x1="33.33333333333333" y1="0" x2="33.33333333333333" y2="177" fill="rgb(0, 0, 0)" stroke="rgb(153, 153, 153)" stroke-width="1.5px"></line></g></g><g><g><g><g><g><path stroke="rgb(255, 112, 67)" stroke-width="2px" d="M42.266666666666666,-32.1836555480957L42.87333333333333,2.2032947540283137L43.108333333333334,4.878712844848642L43.18,5.444554138183598L43.31833333333333,6.920454406738287L43.66833333333334,10.75611610412598L43.7,11.049738693237309L44.5,35.54154472351073L44.52,35.61534423828125L44.75833333333333,37.46814193725585L44.94499999999999,39.05308723449706L45.260000000000005,41.28557319641114L45.76833333333334,44.06015586853028L45.77333333333333,44.10566444396973L46.33166666666666,59.83367118835449L46.39,59.71276512145997L46.778333333333336,61.40367202758789L46.968333333333334,62.24513053894043L47.03666666666667,62.639583206176766L47.498333333333335,64.56865615844727L47.51499999999999,64.62798385620117L46.39,59.00274581909179L46.485,58.85388641357421L47.02666666666667,61.04595031738282L47.373333333333335,62.53436431884766L47.516666666666666,63.140875244140624L47.538333333333334,63.1950038909912L47.75666666666666,64.04222412109375L48.925,77.81340713500977L49.05833333333333,78.28114166259766L49.13,78.46929779052735L49.27166666666666,78.88765258789063L49.56,79.57761840820312L49.763333333333335,80.0879581451416L49.76833333333334,80.09360733032226L49.870000000000005,84.99881057739258L49.96,80.64547195434571L50.096666666666664,81.65559577941895L50.81333333333333,88.07705383300781L50.870000000000005,88.35818519592286L51.068333333333335,88.93955612182617L51.19166666666667,89.48021240234375L51.541666666666664,90.66663131713867L51.550000000000004,90.69078102111817L51.86666666666667,99.3205078125L52.07666666666666,100.07846641540529L53.055,98.18844261169434L53.31666666666667,98.96902046203613L53.361666666666665,99.13301563262941L54.255,100.38442268371581L54.29333333333333,100.51024646759033L54.61,102.34516258239746L55.294999999999995,115.17948112487792L55.41666666666667,113.8066728591919L55.49,113.93982257843018L55.67166666666667,113.32693099975587L55.99,112.17929115295411L56.04,112.33501510620117L56.225,112.61732807159424L56.38166666666666,111.43803253173829L57.38166666666667,105.61224842071535L57.86666666666667,101.13810501098632L58.453333333333326,105.86562900543214L58.795,108.1031789779663L59.68833333333333,121.43180122375487L60.03666666666667,120.449405670166L60.08833333333333,120.51930027008056L60.455000000000005,121.12603626251222L60.49166666666667,121.21170806884764L60.83166666666666,127.06042652130127L60.855000000000004,127.02017326354981L61.794999999999995,127.08916759490965L62.90333333333333,130.0090648651123L62.99166666666667,130.01138305664062L63.595,129.60442790985107L63.776666666666664,129.5047456741333L63.800000000000004,129.55170593261718L63.928333333333335,129.5672805786133L64.36833333333334,129.44591312408448L64.465,126.64732704162599L64.48,127.33625755310058L64.78333333333333,131.6786241531372L64.79666666666667,131.6423433303833L64.915,131.67739753723146L65.11,131.76858348846434L65.27499999999999,131.82076530456544L65.34,131.89219036102295L65.675,131.77979183197021L65.68,131.76951751708984L65.80166666666666,131.72851028442383L66.17666666666666,131.89305686950684L66.28333333333333,114.43854885101318L66.43,125.98582096099854L66.575,129.03889045715331L66.915,101.57536544799805L67.45666666666666,96.9478837966919L68.11833333333333,108.56855030059813L68.26,109.27666778564452L68.30666666666667,109.1701997756958L69.60666666666667,112.78033294677735L69.62333333333333,112.80198440551759L69.69666666666667,112.85713710784913L69.85333333333332,113.13081874847413L69.97833333333334,118.93483886718751L70.08833333333332,118.32500820159912L70.27666666666667,118.47794132232666L70.49333333333334,118.73701610565186L70.51166666666667,118.77094497680665L70.545,118.90878734588622L70.94,119.58562049865722L71.28833333333333,120.1539825439453L71.51333333333334,120.41689472198487L71.51666666666667,120.42281398773194L71.58,120.48352584838867L72.07833333333333,123.49427146911621L72.24166666666666,124.02047843933106L72.255,124.13774967193605L72.545,124.0410608291626L72.6,124.14671859741212L73.13166666666666,124.15462970733644L73.36166666666666,124.13974151611328L74.06333333333333,126.05567054748536L74.12166666666667,125.97437629699706L74.245,126.21355514526367L74.88166666666666,126.4967571258545L75.70500000000001,127.13043365478516L75.70666666666666,127.10322303771973L75.795,127.46892337799072L75.80333333333333,127.52326583862305L76.38,119.78683052062988L76.54333333333334,119.89901523590089L76.60166666666667,119.85926837921141L76.91333333333333,120.2107557296753L77.06500000000001,120.29424438476562L77.93499999999999,117.57884311676027L78.11000000000001,118.8515640258789L78.82166666666667,120.46110916137697L78.86500000000001,120.55900211334229L78.975,120.6815399169922L79.20666666666666,126.86973838806152L79.31,127.45493545532226L79.65666666666667,126.34767265319825L79.68333333333334,126.43921871185303L79.89,126.56361331939698L80.25333333333333,127.75519752502441L80.54666666666667,127.91284580230713L80.59,127.88339576721191L80.82833333333333,127.94413013458251L81.08333333333333,129.9605516433716L81.32166666666666,130.5548864364624L81.55833333333334,130.2806308746338L81.71499999999999,130.03704071044922L81.73833333333333,130.05620517730713L82.88166666666666,134.1310344696045L82.94333333333333,134.56170043945312L83.365,134.28491287231446L83.67166666666667,134.13788776397706L83.765,134.15120048522948L83.87833333333333,134.11852073669434L84.21666666666667,134.2083225250244L84.59666666666666,135.48315906524658L84.775,136.09106540679932L84.96666666666667,136.19320087432862L85.14166666666667,136.3323823928833L85.36166666666666,136.46364154815674L85.375,136.47375831604003L85.595,136.3706325531006L85.84,136.2825412750244L86.16333333333333,136.30976314544677L86.21,136.3631265640259L86.76666666666667,138.08873882293702L86.78666666666666,138.16763610839843L86.81833333333334,138.29849014282226L86.84666666666668,138.29896278381347L86.93666666666667,138.3208393096924L86.99833333333333,138.28478355407714L87.06,138.24436149597167L87.265,138.03985424041747L87.80833333333332,138.0852502822876L88.08000000000001,138.0576795578003L88.20333333333333,138.07307415008546L88.50999999999999,139.00848693847655L89.42666666666668,138.18717193603516L89.46166666666667,138.2464433670044L89.5,138.2406478881836L89.67666666666666,138.42098293304443L89.82666666666665,138.49716815948486L90.15666666666668,139.2284900665283L90.28666666666666,139.59182720184327L90.46,139.76323833465577L90.08666666666666,139.96532611846925L90.435,139.32217426300048L90.48333333333333,139.53585300445556L91.07333333333334,139.6277816772461L91.12333333333333,139.5796510696411L91.30333333333333,139.514089012146L91.44166666666666,139.07835903167725L91.53666666666668,138.97932949066163L92.02833333333332,141.17388038635255L92.50666666666666,140.05145931243896L92.965,136.88291912078859L93.15166666666666,136.54742279052735L94.08999999999999,137.9878412246704L94.11666666666667,137.95238189697267L94.55833333333334,113.88176651000977L94.75833333333333,103.04420986175536L94.99333333333334,100.51053905487059L95.51833333333333,104.50513191223145L96.195,133.94624309539796L96.32666666666665,134.43964653015138L96.48833333333334,135.25568370819093L96.53999999999999,135.53032188415528L96.72500000000001,136.20255241394042L97.185,137.6953552246094L97.525,142.79062767028807L97.79666666666667,142.03586502075194L97.80333333333333,141.95599994659423L97.85833333333333,141.03276329040528L97.89166666666667,139.95732498168945L98.01333333333334,125.13109474182129L98.425,92.58188514709474L98.765,93.7214225769043L98.80999999999999,94.51261234283449L98.92666666666668,96.91809616088867L99.25666666666667,140.82657928466796L99.28333333333333,141.16719589233398L100.24833333333333,138.34628314971923L100.77499999999999,139.67621612548828L100.805,139.7061388015747L101.155,144.207684135437L102.55499999999999,144.76581687927245L102.70333333333333,144.81372241973878L102.75666666666667,144.78969650268556L102.87666666666667,144.221413230896L102.92166666666667,146.39329986572267L102.92833333333333,146.23810482025146L103.03333333333333,146.2671272277832L103.34666666666666,146.56798572540282L103.47999999999999,146.62659320831298L103.69166666666666,146.59201164245604L103.70333333333332,146.62309341430665L103.77666666666667,146.4357587814331L103.865,146.2726526260376L104.71833333333333,148.08174228668213L104.965,147.1815637588501L105,147.31232776641846L105.01499999999999,147.39633407592774L105.10333333333334,147.57411460876466L105.32833333333333,147.3362186431885L105.58,147.012965965271L106.68,147.36139240264893L106.70666666666666,147.6251148223877L106.83833333333332,147.90512084960938L106.98166666666667,147.68243942260742L108.31833333333333,146.55189342498778L108.79166666666667,148.0642883300781L108.88,148.16210250854493L108.93166666666667,148.2305679321289L108.99166666666666,148.30168914794922L109.05666666666667,148.36091556549073L109.28666666666666,148.13786277770996L109.395,148.1449411392212L109.43333333333332,148.11879959106446L109.61,148.30686569213867L109.785,148.2416524887085L109.86166666666666,148.2309055328369L110.35333333333332,149.68985824584962L110.89,149.9029968261719L111.60333333333334,149.67037868499756L111.735,149.73657093048095L111.945,149.79225254058838L112.82666666666665,150.13401699066162L112.91000000000001,150.06027374267578L113.065,150.06270446777344L113.09166666666667,150.05255393981935L113.14166666666668,150.0585069656372L113.26333333333334,150.07961826324464L113.865,153.48693218231202L114.18166666666666,151.56932640075684L114.44833333333334,151.39569835662843L114.70666666666666,151.04661922454835L114.86166666666666,151.03368911743163L115.81333333333335,151.21705131530763L116.07333333333332,151.53262920379638L116.15166666666666,151.47576599121095L116.63666666666667,151.47974967956543L116.73833333333334,151.4223575592041L117,151.43678436279296L117.28666666666666,150.76810989379882L117.66,140.41129665374757L117.71499999999999,124.73426761627198L117.97,121.24535560607912L117.99499999999999,122.45952529907227L118.59666666666668,136.99837856292726L118.99333333333334,140.3178825378418L119.005,140.4004596710205L119.01166666666666,140.4309787750244L119.01833333333333,140.48652534484864L119.25333333333333,141.68153057098388L119.32666666666665,141.91932525634766L119.60333333333334,150.98387050628662L119.66333333333333,151.08869552612305L119.68833333333333,150.94298706054687L119.36166666666666,150.5837236404419L120.11166666666668,151.36416645050048L120.305,151.37292156219482L120.52166666666666,151.2876998901367L120.59666666666666,151.2945869445801L120.94833333333334,151.3776704788208L121.125,151.43553524017335L121.53166666666667,152.5642469406128L121.545,152.53740768432618L121.81500000000001,152.35473194122315L121.90333333333334,152.34305095672607L122.85499999999999,152.31067504882813L123.13833333333334,153.38975944519044L123.16166666666668,153.44656639099122L123.30666666666667,153.2547866821289L123.60499999999999,152.43230133056642L123.66,152.24016151428222L123.95833333333333,147.05806941986083L124.45833333333334,147.51733016967773L124.46833333333333,147.56095943450927L124.76666666666667,148.3787296295166L125.22666666666666,153.27774353027343L126.11833333333334,152.0066318511963L126.36,152.1822967529297L126.55333333333334,152.31504135131837L126.69500000000001,154.9891315460205L126.825,152.46427211761474L126.87,152.28326187133788L126.89833333333334,152.32767887115477L127.73333333333332,153.92007389068604L127.81166666666667,153.9427381515503L128.01333333333332,154.09734802246095L128.36,154.07597789764404L128.41,154.08476676940919L129.25833333333333,154.70123691558837L129.26833333333335,154.7349744796753L129.305,154.73237495422364L129.45499999999998,154.58357181549073L129.75166666666667,154.55288391113282L130.96833333333333,156.43671836853028L131.08666666666667,156.44466323852538L131.35666666666665,156.08704280853271L131.51666666666665,156.01462745666504L131.76,156.03131618499756L132.525,156.79175052642822L132.65833333333333,156.67407417297363L133.15333333333334,156.3916374206543L133.205,156.4033971786499L133.75,156.54581966400147L134,157.4401014328003L134.32666666666668,157.61158008575438L134.16166666666666,157.50918579101562L134.30166666666668,157.33657054901124L134.565,157.12788829803466L134.88833333333335,157.20562648773193L135.09333333333333,157.05446014404296L135.27666666666667,157.04509735107422L135.48833333333334,157.04493980407716L135.965,156.95567817687987L135.98166666666668,157.0901445388794L136.25833333333333,157.12976760864257L136.595,157.21362762451173L137.18833333333333,157.30645656585693L137.26666666666665,157.37906322479247L137.53,157.34199466705323L137.58166666666665,157.30358695983887L137.78166666666667,157.6738561630249L137.85166666666666,157.9756824493408L137.96166666666667,157.97022457122802L138.29166666666666,158.1838695526123L138.52833333333334,158.10388069152833L138.94333333333333,158.10797691345215L139.75833333333333,158.81053524017335L140.02666666666667,158.57815341949464L140.07333333333332,158.5002014160156L140.14833333333334,158.39753704071046L140.84666666666666,158.29277954101562L142.21833333333333,158.84467792510986L142.24833333333333,158.81230201721192L142.41,158.78681316375733L142.495,158.90848445892334L142.76333333333335,158.88452606201173L143.32833333333335,159.3592601776123L143.42666666666668,159.30390491485596L143.73166666666665,159.1965929031372L143.755,159.27166404724122L144.205,159.18262748718263L144.24,159.18146839141846L144.645,159.23944568634033L144.77666666666667,159.2576536178589L144.97166666666666,158.25804042816162L145.88333333333333,159.81800327301025L146.08,159.84283943176268L146.20666666666665,159.9038101196289L146.63833333333332,159.9529760360718L146.77333333333334,159.93401412963868L147.49333333333334,160.44864139556884L147.70333333333332,160.37716007232666L147.74666666666667,160.40422439575195L147.94,160.32900695800782L148.19666666666666,160.30471096038818L148.29,160.27620620727538L148.375,160.32159099578857L148.41166666666666,160.27364044189454L148.46666666666667,160.26162185668946L148.50833333333333,160.25267543792725L148.94166666666666,160.7999937057495L148.945,160.86348514556886L149.115,160.84644756317138L149.12,160.8723752975464L148.845,160.41371097564698L149.12,160.54678192138672L149.37,160.33759326934813L149.59666666666666,160.39045028686525L149.88,160.43170509338378L150.11166666666668,160.437264251709L150.89666666666668,158.96045246124268L150.905,158.8545133590698L150.98333333333335,158.6879524230957L151.08333333333334,158.75848846435548L151.12166666666664,158.7798023223877L151.56,158.9347948074341L152.75,160.75176181793213L153.20000000000002,160.4149263381958L153.69666666666666,160.0669500350952L153.72666666666666,160.00783615112306L153.86,159.83528842926026L154.46166666666664,155.93229789733886L154.74666666666664,156.06435604095458L154.945,156.7807559967041L155.3,157.68903694152831L155.38500000000002,157.8863983154297L155.625,158.17761268615723L155.70333333333332,158.1822940826416L155.89833333333334,158.3799030303955L156.09166666666667,159.76906242370606L156.10333333333335,159.61922397613526L156.57833333333332,159.22614421844483L157.13166666666666,159.56474647521972L157.75,159.72982196807862L158.14000000000001,160.65670471191407L158.26166666666666,160.8800500869751L158.35666666666665,160.91547565460206L159.20666666666665,160.47919425964355L159.32,160.483864402771L159.44833333333335,160.46148147583008L159.47166666666666,160.4677833557129L159.53666666666666,160.4519723892212L159.59,160.44738101959229L160.27833333333334,159.86714668273925L160.57666666666668,160.06078319549562L161.20666666666668,160.25378952026367L161.29999999999998,160.21703605651857L161.30666666666667,160.20855102539062L161.41500000000002,160.2185552597046L161.5233333333333,161.93604259490968L161.89833333333334,161.34563522338868L161.92499999999998,161.42633304595947L162.165,161.12960453033446L162.20833333333334,161.1421070098877L162.27,161.14225330352784L162.90833333333333,161.32140674591065L162.94,161.3043128967285L163.10999999999999,161.30907306671142L163.55,161.92270736694337L163.73833333333334,161.7522527694702L163.2733333333333,162.59969806671143L163.97833333333335,162.2054479598999L165.28500000000003,162.56710834503173L165.34166666666664,162.09105758666993L165.47333333333333,162.00078315734862L165.85,162.04005737304686L165.93666666666667,162.0099884033203L166.17,162.02108421325684L166.57500000000002,162.0612024307251L166.995,162.7073589324951L167.26333333333332,162.84370460510254L167.66666666666666,162.61098518371583L167.72000000000003,162.58262672424317L168.07333333333332,162.53525009155274L168.39333333333332,162.4840585708618L168.535,162.53920001983641L168.755,160.6185333251953L169.09166666666667,163.18810234069824L169.14499999999998,163.19868049621581L169.20666666666665,163.24515686035156L169.34,163.2511323928833L169.59166666666664,163.05769844055175L169.905,163.0198534011841L169.95666666666668,163.02985763549805L170.01166666666668,163.07056102752685L170.20166666666665,163.06183967590331L170.30666666666667,163.05517768859863L170.74833333333333,164.1226261138916L172.025,163.20033473968505L172.04666666666668,163.1934476852417L172.16666666666666,163.13776607513427L172.405,163.08268089294432L173.04666666666668,163.36510639190675L173.14166666666665,163.20077362060547L173.31833333333333,163.1114107131958L173.42666666666668,163.08284969329833L173.50166666666667,163.16742992401123L173.77333333333334,162.91581611633302L174.28666666666666,165.61271686553954L175.18166666666667,163.5710090637207L175.41666666666669,163.28061618804932L176.16166666666666,164.21726684570314L176.3033333333333,162.8845542907715L176.32999999999998,162.9761791229248L176.96666666666667,161.9761157989502L176.995,161.91435737609862L177.21166666666667,161.58461151123046L177.34666666666666,161.40518798828126L177.45000000000002,161.20822048187256L177.7866666666667,160.81925945281984L178.14166666666668,160.60971069335938L178.73166666666668,159.35820236206055L178.765,159.35303707122802L179.10833333333335,159.49641609191895L179.6483333333333,158.175789642334L179.68166666666667,158.17384281158448L179.68666666666667,158.16677570343018L179.82833333333335,155.57261810302734L179.83333333333334,155.45410900115968L180.43166666666664,155.75850105285645L180.475,155.9441701889038L181.49,157.92193641662598L181.58833333333334,160.95088996887208L182.15166666666667,160.9503273010254L182.31333333333333,160.43994255065917L182.72666666666666,160.204421043396L183.44333333333333,150.17284107208252L184.24166666666667,157.698073387146L184.50166666666667,158.9605312347412L184.915,159.77465534210205L185.09333333333333,160.0865421295166L185.37,163.5472869873047L185.58166666666665,163.4725196838379L185.80999999999997,163.54835605621338L185.90333333333334,163.61260147094725L185.95666666666668,163.66652755737306L186.075,163.65309104919433L186.70833333333334,163.3926658630371L186.85666666666668,163.39317226409912L186.895,163.40306396484374L187.44333333333333,163.4153751373291L187.83333333333331,163.46473236083983L187.94166666666666,163.50302753448486L188.63833333333332,163.2903615951538L188.86833333333334,163.2588972091675L188.985,162.07124042510986L189.10166666666666,162.62322883605958L189.30166666666668,162.70663871765137L189.375,162.81772060394286L189.6016666666667,162.860573387146L189.845,162.81517734527588L189.935,162.82824249267577L190.06833333333333,162.84480743408204L190.25166666666667,162.79694690704346L190.5066666666667,162.939369392395L190.62833333333333,162.99190006256103L190.94833333333335,163.40972595214845L191.065,163.46087245941163L191.14666666666668,163.46849098205567L192.03333333333333,163.55253105163575L191.30833333333334,163.8748046875L191.48499999999999,163.98697814941406L191.48833333333334,163.97494831085206L191.93833333333333,163.69916229248048L192.60500000000002,164.15988597869872L193.075,164.364888381958L193.11333333333334,164.40724601745606L193.38333333333335,164.58001880645753L193.56166666666667,164.49508972167968L193.66,164.58300094604493L193.79333333333332,164.45799865722657L193.91833333333335,164.25188217163085L194.05666666666664,164.0870204925537L194.18833333333333,164.0248119354248L194.35666666666665,163.79917087554932L194.39000000000001,162.28518924713134L194.51666666666668,162.3500198364258L194.61166666666665,162.1642156600952L194.63000000000002,162.35608539581298L195.33666666666667,162.66101760864257L195.37,162.63366069793702L195.9766666666667,162.88668117523193L196.3133333333333,163.35962600708007L196.36666666666667,163.3084457397461L196.45666666666665,163.38129997253418L196.60666666666668,163.28528633117676L196.93166666666667,163.51947994232177L196.98333333333335,163.47630081176757L197.07500000000002,163.41131267547607L197.13333333333333,163.4628080368042L197.15,163.45132961273194L197.475,163.13736095428467L197.90166666666667,162.7974645614624L197.99333333333334,162.79964771270753L198.71,162.97300567626954L199.25833333333333,163.1225965499878L199.355,163.09832305908202L199.97166666666666,161.51123962402343L200.145,162.16428318023682L200.16833333333332,162.29140110015868L200.2,162.264066696167L200.26833333333335,162.40446357727052L200.29166666666666,162.43311462402343L200.31666666666666,162.35255184173585L200.33833333333334,162.3281545639038L200.40333333333334,162.57232990264893L200.61999999999998,162.58758945465087L200.90666666666667,162.63370571136474L201.18833333333333,162.80220222473145L201.48166666666668,162.95055522918702L201.63500000000002,163.03453903198243L201.755,165.12788848876954L201.77833333333334,164.568585395813L202.48166666666665,164.40392627716065L202.57666666666668,164.4156410217285L202.78166666666667,164.29927005767823L203.07500000000002,163.85443611145018L203.24166666666667,163.73114433288575L203.41333333333333,163.6703649520874L203.96999999999997,162.03777294158937L205.0716666666667,41.18201980590821L205.13833333333335,38.20105056762695L205.19333333333333,37.9853687286377L205.50000000000003,120.27318935394287L205.7,68.73397369384766L205.9283333333333,71.42694702148438L207.02166666666665,96.5419864654541L207.02333333333334,96.56261386871337L207.12,97.69445400238037L207.20333333333332,124.08884258270264L207.195,119.69154834747316L207.59833333333333,8.297550201416016L207.54833333333335,117.02557182312012L207.23666666666668,120.01723175048828L207.29166666666666,122.18685646057128L207.615,126.51975898742675L207.22666666666666,122.44880084991455L207.40666666666664,120.22469863891601L207.46666666666667,121.06805896759032L207.4983333333333,121.39254951477052L207.65833333333333,120.16998481750488L208.42,123.91021804809571L208.48833333333334,123.37982482910157L208.635,123.74608783721924L207.24166666666667,124.91774234771728L207.49666666666667,133.52147388458252L207.81166666666667,138.6486608505249L207.85833333333335,139.0839632034302L208.78333333333333,139.16464977264405L207.31666666666666,127.26664428710939L207.38166666666666,127.82537345886232L207.71333333333334,129.95370960235596L207.24666666666667,124.85200023651123L207.34833333333333,125.1690860748291L207.60166666666666,49.28905067443847L207.48333333333332,127.37379875183106L207.57,129.02854862213135L207.84833333333336,134.86430320739746L207.86166666666668,135.07630519866944L208.45,142.7752555847168L208.91,145.38135299682617L208.9983333333333,145.7049882888794L209.59333333333333,156.44444942474365L209.61333333333332,156.49030685424805L210.02499999999998,157.24493446350098L210.03666666666666,157.27564487457275L210.2133333333333,157.46281070709227L210.48166666666668,157.40755672454833L210.63166666666666,157.39064292907716L211.17166666666668,151.14317302703859L211.45666666666668,152.33578128814696L211.53833333333333,152.82649517059326L211.60166666666666,153.08650398254395L211.65833333333333,153.2971218109131L211.72166666666666,153.5619020462036L211.78666666666666,153.8812385559082L211.98,154.73590850830078L212.10999999999999,154.86619987487794L212.13333333333335,154.9334274291992L212.16166666666666,155.04869556427002L212.34166666666667,155.53292751312256L213.14166666666665,156.2414951324463L213.45833333333331,151.26891803741455L213.65166666666667,151.36424522399903L214.01833333333335,152.94172954559326L214.0666666666667,153.11951007843018L214.83499999999998,156.58356342315673L215.26333333333332,156.94397468566893L215.31166666666667,156.89388599395753L215.41333333333336,156.62701263427735L215.92,155.12297897338868L216.20000000000002,154.0288600921631L217.04833333333335,150.90518703460694L217.56833333333333,151.43531017303468L218.50666666666666,156.07200832366942L219.07,157.55283756256102L219.07166666666666,157.5535577774048L219.3033333333333,158.24685459136964L219.35333333333335,158.33527221679688L219.42166666666665,158.45464782714845L219.61499999999998,158.6769691467285L220.14166666666668,160.96258220672607L220.21166666666667,161.04930057525635L220.75833333333333,160.7909797668457L220.81,160.86991081237792L221.29833333333332,159.79422492980956L221.45333333333335,159.70066452026367L221.47333333333336,159.71505756378173L221.6483333333333,159.77971935272217L222.19666666666666,161.77786540985107L222.5666666666667,161.66122436523438L222.60666666666668,161.67140865325928L222.66166666666666,161.7458158493042L223.39000000000001,162.58556385040282L223.5,162.66560897827148L223.54666666666668,162.67361011505128L224.105,164.25261363983154L224.48499999999999,164.27379245758056L224.48999999999998,164.26490230560302L224.50833333333335,164.23409061431886L224.58166666666665,164.31145744323732L224.95666666666668,164.39572257995604L225.36833333333334,164.37755966186523L227.29166666666666,164.34573516845703L227.6966666666667,157.12861976623535L228.10999999999999,155.3291742324829L228.19833333333332,154.64750213623046L228.38,154.71179256439208L228.6016666666667,155.73853759765626L228.90833333333333,157.18566303253175L229.12166666666667,157.9693130493164L229.21,163.72403221130372L229.28,163.84185485839845L229.46166666666664,164.38367023468018L229.47333333333333,164.40828132629395L229.52666666666667,164.59650497436525L229.57999999999998,164.60298690795898L229.68166666666667,164.73968143463134L229.71166666666664,164.74700736999512L230.07166666666666,164.90252876281738L230.39166666666665,164.99206047058107L230.565,165.08989715576172L230.66833333333332,165.12857494354247L230.95833333333334,165.08143463134766L231.305,165.31720371246337L231.795,165.19610633850098L231.86166666666665,165.16331405639647L232.08166666666668,165.06214637756347L232.22833333333332,164.92047786712646L232.24833333333333,164.9337568283081L232.26166666666668,164.87745628356933L232.38833333333335,164.872088432312L232.46,164.76692581176758L232.67166666666665,164.69977703094483L232.92499999999998,165.62781887054444L233.09333333333333,165.6953052520752L233.33666666666664,165.43534145355224L233.4933333333333,165.46273212432862L233.745,165.3823043823242L234.39,165.49311618804933L234.76166666666666,167.1917766571045L234.86166666666665,167.01622428894044L235.70333333333335,166.2864778518677L235.72166666666666,166.29604320526124L236.01833333333335,166.28328189849853L236.05666666666667,166.27092571258547L236.10833333333332,166.27427921295165L236.34500000000003,166.1851526260376L236.36833333333334,166.17301025390626L236.88166666666666,166.8519702911377L237.165,166.70725212097167L237.56500000000003,166.52213439941406L237.59166666666667,166.49472122192384L238.04833333333332,166.46429214477538L238.235,166.44618549346924L238.53166666666667,166.43098220825195L238.585,166.46003837585448L238.70499999999998,166.67270431518554L239.13833333333332,166.3061824798584L239.38333333333333,166.34933910369872L239.99833333333333,166.27384033203126L240.02,166.27385158538817L240.16166666666666,167.03145008087156L240.36833333333334,167.05169486999512L240.40666666666667,166.82160873413085L240.415,166.86334743499756L240.44833333333332,166.7263153076172L240.625,166.65609436035157L240.21166666666667,166.74462451934815L240.64000000000001,166.39286708831787L241.20166666666665,166.59119625091552L241.32,166.64983749389648L241.45,166.59485359191896L241.975,166.40924072265625L241.98333333333332,166.36211166381835L242.00833333333335,166.75708198547363L242.5583333333333,166.672625541687L242.61166666666668,166.6658847808838L242.94,166.59870223999025L243.32333333333332,166.52856006622315L243.46166666666667,166.56328792572023L243.4933333333333,166.5553430557251L243.66500000000002,166.51973743438722L243.76,166.49654426574708L244.13,167.51204719543458L244.44666666666666,167.23389797210694L244.92666666666668,167.16931495666503L244.97333333333333,167.12275981903076L245.11666666666667,167.10412425994875L245.75166666666667,167.1600196838379L245.78833333333333,167.4295488357544L246.28333333333333,167.3871799468994L246.525,167.4458324432373L246.60166666666666,167.40417251586913L247.47833333333335,168.01953983306885L247.54500000000002,167.85897693634033L247.55833333333334,167.50041122436522L247.595,167.55004978179932L247.61166666666665,167.54677505493163L247.73833333333334,167.51606464385986L247.795,167.49026069641113L247.94,167.4739320755005L247.99166666666667,167.23262634277344L248.77,166.99410018920898L249.06500000000003,166.99137687683105L249.16833333333332,166.9873369216919L249.55666666666667,166.7261465072632L249.56666666666666,166.8218000411987L250.60833333333332,166.77459220886232L250.66833333333332,166.77601013183593L250.82999999999998,166.7824583053589L251.18,167.5116195678711L251.18166666666667,167.4905195236206L251.68,167.07583332061768L252.10500000000002,166.63009910583497L252.33999999999997,166.25396690368652L252.83,165.84332065582277L253.09,165.83326015472412L253.32833333333332,165.31439037322997L253.47166666666666,165.35487995147705L253.48833333333334,165.33742599487306L253.72333333333333,165.03382167816162L253.79833333333335,164.90233745574952L253.83999999999997,164.87769260406495L254.05,164.401833152771L254.16666666666666,164.07966079711915L254.44833333333335,164.03899116516112L254.56333333333333,164.0829355239868L254.66166666666666,164.14891395568847L254.86,165.56793975830078L255.06666666666666,164.22810382843016L255.825,163.99317874908448L256.37833333333333,164.40641326904296L256.39666666666665,164.39310054779054L256.54333333333335,164.4317445755005L256.60833333333335,165.68225135803223L256.6766666666667,165.67080669403077L256.91166666666663,165.17320575714112L257.545,165.38287830352783L257.69,165.44147453308105L258.185,165.65462436676026L259.185,165.2800563812256L259.28499999999997,165.0569585800171L259.3016666666667,165.00429286956788L259.51,164.2476734161377L260.46333333333337,157.0802640914917L260.67333333333335,155.46037712097169L260.83833333333337,155.7999921798706L261.065,156.28762264251708L261.2683333333333,154.19341793060303L261.365,152.58606719970703L261.48,151.1436794281006L261.4866666666667,151.04433479309083L261.655,148.77061653137207L261.79833333333335,147.6374822616577L261.8233333333333,147.52197780609131L262.76166666666666,150.3858558654785L262.95,151.38111400604248L263.16333333333336,152.12609748840333L263.18833333333333,152.13579788208008L263.305,152.36257553100586L263.50166666666667,152.78378868103027L263.58666666666664,152.9296096801758L263.70166666666665,153.13175373077394L263.7083333333333,153.12351627349852L264.5866666666667,156.82624206542968L264.61833333333334,156.81574268341063L264.75166666666667,156.96918220520018L264.955,156.9545528411865L265.13,157.27431697845458L265.42833333333334,157.46728954315185L265.45166666666665,157.49824752807618L265.51166666666666,157.57822513580322L265.58,157.75141429901123L265.7366666666667,158.08011360168456L265.8183333333333,160.88228950500488L265.84499999999997,160.82672042846679L265.98,160.4744903564453L266.11833333333334,160.5529375076294L266.2633333333333,160.57683963775634L266.29333333333335,160.54318084716797L266.5183333333334,160.95402965545654L266.745,160.60815773010253L267.39,156.23508071899414L267.45166666666665,155.85897102355958L267.8966666666667,145.74918022155762L268.24,133.8159517288208L268.3016666666667,134.91484203338624L267.9866666666667,142.46743125915526L268.09833333333336,143.16700744628906L268.2,143.85223560333253L268.36833333333334,145.59489669799805L268.8,146.48002948760987L268.9066666666667,145.19432220458984L267.7683333333333,144.52268810272216L268.00666666666666,143.3842872619629L267.92,147.08110504150392L268.255,150.52628650665284L268.385,150.65341567993164L268.40000000000003,150.61425399780273L268.91333333333336,151.47359409332276L269.14,152.28793201446533L269.165,152.37906169891357L269.55833333333334,160.02766456604004L269.66166666666663,160.43853588104247L269.58,159.07279472351075L269.7183333333333,158.03683319091797L270.15166666666664,158.42617683410646L270.44166666666666,158.64794673919678L270.56333333333333,158.64720401763915L270.60333333333335,158.6366933822632L270.68,158.6193181991577L270.8066666666667,158.55359859466552L270.8383333333333,158.53575077056885L270.9483333333333,158.4795177459717L271.21666666666664,157.92033843994142L271.36833333333334,142.00227375030516L271.4483333333333,136.18890209197997L271.40333333333336,148.37724418640136L271.71333333333337,151.25440120697021L271.90999999999997,152.59387702941893L271.98333333333335,153.06134147644042L272.0233333333333,153.36383171081542L272.1,153.74052658081055L272.91499999999996,156.0530351638794L273.15,152.8080509185791L273.195,153.4674638748169L273.43,154.55403175354004" style="fill: none;" fill="none"></path></g></g></g></g></g></g><g transform="translate(30, 177)" clip-path="url(#clip_1)"><clipPath id="clip_1"><rect width="300" height="23"></rect></clipPath><g><g><line x1="0" y1="0" x2="0" y2="5" style="visibility: inherit;" fill="rgb(0, 0, 0)" stroke="rgb(204, 204, 204)" stroke-width="1px"></line><line x1="33.33333333333333" y1="0" x2="33.33333333333333" y2="5" style="visibility: inherit;" fill="rgb(0, 0, 0)" stroke="rgb(204, 204, 204)" stroke-width="1px"></line><line x1="66.66666666666666" y1="0" x2="66.66666666666666" y2="5" style="visibility: inherit;" fill="rgb(0, 0, 0)" stroke="rgb(204, 204, 204)" stroke-width="1px"></line><line x1="100" y1="0" x2="100" y2="5" style="visibility: inherit;" fill="rgb(0, 0, 0)" stroke="rgb(204, 204, 204)" stroke-width="1px"></line><line x1="133.33333333333331" y1="0" x2="133.33333333333331" y2="5" style="visibility: inherit;" fill="rgb(0, 0, 0)" stroke="rgb(204, 204, 204)" stroke-width="1px"></line><line x1="166.66666666666669" y1="0" x2="166.66666666666669" y2="5" style="visibility: inherit;" fill="rgb(0, 0, 0)" stroke="rgb(204, 204, 204)" stroke-width="1px"></line><line x1="200" y1="0" x2="200" y2="5" style="visibility: inherit;" fill="rgb(0, 0, 0)" stroke="rgb(204, 204, 204)" stroke-width="1px"></line><line x1="233.33333333333334" y1="0" x2="233.33333333333334" y2="5" style="visibility: inherit;" fill="rgb(0, 0, 0)" stroke="rgb(204, 204, 204)" stroke-width="1px"></line><line x1="266.66666666666663" y1="0" x2="266.66666666666663" y2="5" style="visibility: inherit;" fill="rgb(0, 0, 0)" stroke="rgb(204, 204, 204)" stroke-width="1px"></line><line x1="300" y1="0" x2="300" y2="5" style="visibility: inherit;" fill="rgb(0, 0, 0)" stroke="rgb(204, 204, 204)" stroke-width="1px"></line></g><g transform="translate(0, 8)"><text x="0" y="0" dx="0em" dy="0.95em" style="text-anchor: middle; visibility: hidden; font-family: Roboto, sans-serif; font-size: 12px; font-weight: 200;" fill="rgb(33, 33, 33)" stroke="none" stroke-width="1px">-20k</text><text x="33.33333333333333" y="0" dx="0em" dy="0.95em" style="text-anchor: middle; visibility: inherit; font-family: Roboto, sans-serif; font-size: 12px; font-weight: 200;" fill="rgb(33, 33, 33)" stroke="none" stroke-width="1px">0</text><text x="66.66666666666666" y="0" dx="0em" dy="0.95em" style="text-anchor: middle; visibility: inherit; font-family: Roboto, sans-serif; font-size: 12px; font-weight: 200;" fill="rgb(33, 33, 33)" stroke="none" stroke-width="1px">20k</text><text x="100" y="0" dx="0em" dy="0.95em" style="text-anchor: middle; visibility: inherit; font-family: Roboto, sans-serif; font-size: 12px; font-weight: 200;" fill="rgb(33, 33, 33)" stroke="none" stroke-width="1px">40k</text><text x="133.33333333333331" y="0" dx="0em" dy="0.95em" style="text-anchor: middle; visibility: inherit; font-family: Roboto, sans-serif; font-size: 12px; font-weight: 200;" fill="rgb(33, 33, 33)" stroke="none" stroke-width="1px">60k</text><text x="166.66666666666669" y="0" dx="0em" dy="0.95em" style="text-anchor: middle; visibility: inherit; font-family: Roboto, sans-serif; font-size: 12px; font-weight: 200;" fill="rgb(33, 33, 33)" stroke="none" stroke-width="1px">80k</text><text x="200" y="0" dx="0em" dy="0.95em" style="text-anchor: middle; visibility: inherit; font-family: Roboto, sans-serif; font-size: 12px; font-weight: 200;" fill="rgb(33, 33, 33)" stroke="none" stroke-width="1px">100k</text><text x="233.33333333333334" y="0" dx="0em" dy="0.95em" style="text-anchor: middle; visibility: inherit; font-family: Roboto, sans-serif; font-size: 12px; font-weight: 200;" fill="rgb(33, 33, 33)" stroke="none" stroke-width="1px">120k</text><text x="266.66666666666663" y="0" dx="0em" dy="0.95em" style="text-anchor: middle; visibility: inherit; font-family: Roboto, sans-serif; font-size: 12px; font-weight: 200;" fill="rgb(33, 33, 33)" stroke="none" stroke-width="1px">140k</text><text x="300" y="0" dx="0em" dy="0.95em" style="text-anchor: middle; visibility: hidden; font-family: Roboto, sans-serif; font-size: 12px; font-weight: 200;" fill="rgb(33, 33, 33)" stroke="none" stroke-width="1px">160k</text></g><line x1="0" y1="0" x2="300" y2="0" fill="rgb(0, 0, 0)" stroke="rgb(204, 204, 204)" stroke-width="1px"></line></g></g></g></g></svg>