<svg viewBox="0 0 330 200" xmlns="http://www.w3.org/2000/svg"><g><g><g><g><g><line x1="41.171875" y1="176.31254788370958" x2="36.171875" y2="176.31254788370958" style="visibility: inherit;" fill="rgb(0, 0, 0)" stroke="rgb(204, 204, 204)" stroke-width="1px"></line><line x1="41.171875" y1="159.48018471578612" x2="36.171875" y2="159.48018471578612" style="visibility: inherit;" fill="rgb(0, 0, 0)" stroke="rgb(204, 204, 204)" stroke-width="1px"></line><line x1="41.171875" y1="142.6478215478627" x2="36.171875" y2="142.6478215478627" style="visibility: inherit;" fill="rgb(0, 0, 0)" stroke="rgb(204, 204, 204)" stroke-width="1px"></line><line x1="41.171875" y1="125.81545837993923" x2="36.171875" y2="125.81545837993923" style="visibility: inherit;" fill="rgb(0, 0, 0)" stroke="rgb(204, 204, 204)" stroke-width="1px"></line><line x1="41.171875" y1="108.98309521201578" x2="36.171875" y2="108.98309521201578" style="visibility: inherit;" fill="rgb(0, 0, 0)" stroke="rgb(204, 204, 204)" stroke-width="1px"></line><line x1="41.171875" y1="92.15073204409231" x2="36.171875" y2="92.15073204409231" style="visibility: inherit;" fill="rgb(0, 0, 0)" stroke="rgb(204, 204, 204)" stroke-width="1px"></line><line x1="41.171875" y1="75.31836887616888" x2="36.171875" y2="75.31836887616888" style="visibility: inherit;" fill="rgb(0, 0, 0)" stroke="rgb(204, 204, 204)" stroke-width="1px"></line><line x1="41.171875" y1="58.48600570824542" x2="36.171875" y2="58.48600570824542" style="visibility: inherit;" fill="rgb(0, 0, 0)" stroke="rgb(204, 204, 204)" stroke-width="1px"></line><line x1="41.171875" y1="41.653642540321975" x2="36.171875" y2="41.653642540321975" style="visibility: inherit;" fill="rgb(0, 0, 0)" stroke="rgb(204, 204, 204)" stroke-width="1px"></line><line x1="41.171875" y1="24.82127937239852" x2="36.171875" y2="24.82127937239852" style="visibility: inherit;" fill="rgb(0, 0, 0)" stroke="rgb(204, 204, 204)" stroke-width="1px"></line><line x1="41.171875" y1="7.988916204475071" x2="36.171875" y2="7.988916204475071" style="visibility: inherit;" fill="rgb(0, 0, 0)" stroke="rgb(204, 204, 204)" stroke-width="1px"></line></g><g transform="translate(31.171875, 0)"><text x="0" y="176.31254788370958" dx="0em" dy="0.3em" style="text-anchor: end; visibility: hidden; font-family: Roboto, sans-serif; font-size: 12px; font-weight: 200;" fill="rgb(33, 33, 33)" stroke="none" stroke-width="1px">0</text><text x="0" y="159.48018471578612" dx="0em" dy="0.3em" style="text-anchor: end; visibility: inherit; font-family: Roboto, sans-serif; font-size: 12px; font-weight: 200;" fill="rgb(33, 33, 33)" stroke="none" stroke-width="1px">10</text><text x="0" y="142.6478215478627" dx="0em" dy="0.3em" style="text-anchor: end; visibility: hidden; font-family: Roboto, sans-serif; font-size: 12px; font-weight: 200;" fill="rgb(33, 33, 33)" stroke="none" stroke-width="1px">20</text><text x="0" y="125.81545837993923" dx="0em" dy="0.3em" style="text-anchor: end; visibility: inherit; font-family: Roboto, sans-serif; font-size: 12px; font-weight: 200;" fill="rgb(33, 33, 33)" stroke="none" stroke-width="1px">30</text><text x="0" y="108.98309521201578" dx="0em" dy="0.3em" style="text-anchor: end; visibility: hidden; font-family: Roboto, sans-serif; font-size: 12px; font-weight: 200;" fill="rgb(33, 33, 33)" stroke="none" stroke-width="1px">40</text><text x="0" y="92.15073204409231" dx="0em" dy="0.3em" style="text-anchor: end; visibility: inherit; font-family: Roboto, sans-serif; font-size: 12px; font-weight: 200;" fill="rgb(33, 33, 33)" stroke="none" stroke-width="1px">50</text><text x="0" y="75.31836887616888" dx="0em" dy="0.3em" style="text-anchor: end; visibility: hidden; font-family: Roboto, sans-serif; font-size: 12px; font-weight: 200;" fill="rgb(33, 33, 33)" stroke="none" stroke-width="1px">60</text><text x="0" y="58.48600570824542" dx="0em" dy="0.3em" style="text-anchor: end; visibility: inherit; font-family: Roboto, sans-serif; font-size: 12px; font-weight: 200;" fill="rgb(33, 33, 33)" stroke="none" stroke-width="1px">70</text><text x="0" y="41.653642540321975" dx="0em" dy="0.3em" style="text-anchor: end; visibility: hidden; font-family: Roboto, sans-serif; font-size: 12px; font-weight: 200;" fill="rgb(33, 33, 33)" stroke="none" stroke-width="1px">80</text><text x="0" y="24.82127937239852" dx="0em" dy="0.3em" style="text-anchor: end; visibility: inherit; font-family: Roboto, sans-serif; font-size: 12px; font-weight: 200;" fill="rgb(33, 33, 33)" stroke="none" stroke-width="1px">90</text><text x="0" y="7.988916204475071" dx="0em" dy="0.3em" style="text-anchor: end; visibility: hidden; font-family: Roboto, sans-serif; font-size: 12px; font-weight: 200;" fill="rgb(33, 33, 33)" stroke="none" stroke-width="1px">100</text></g><line x1="41.171875" y1="0" x2="41.171875" y2="177" fill="rgb(0, 0, 0)" stroke="rgb(204, 204, 204)" stroke-width="1px"></line></g></g><g transform="translate(41, 0)" clip-path="url(#clip_0)"><clipPath id="clip_0"><rect width="288" height="177"></rect></clipPath><g><g><g><line x1="17.694739417999283" y1="0" x2="17.694739417999283" y2="177" fill="rgb(0, 0, 0)" stroke="rgb(66, 66, 66)" stroke-width="1px" opacity="0.25"></line><line x1="40.01168101772947" y1="0" x2="40.01168101772947" y2="177" fill="rgb(0, 0, 0)" stroke="rgb(66, 66, 66)" stroke-width="1px" opacity="0.25"></line><line x1="62.32862261745965" y1="0" x2="62.32862261745965" y2="177" fill="rgb(0, 0, 0)" stroke="rgb(66, 66, 66)" stroke-width="1px" opacity="0.25"></line><line x1="84.64556421718984" y1="0" x2="84.64556421718984" y2="177" fill="rgb(0, 0, 0)" stroke="rgb(66, 66, 66)" stroke-width="1px" opacity="0.25"></line><line x1="106.96250581692001" y1="0" x2="106.96250581692001" y2="177" fill="rgb(0, 0, 0)" stroke="rgb(66, 66, 66)" stroke-width="1px" opacity="0.25"></line><line x1="129.2794474166502" y1="0" x2="129.2794474166502" y2="177" fill="rgb(0, 0, 0)" stroke="rgb(66, 66, 66)" stroke-width="1px" opacity="0.25"></line><line x1="151.59638901638039" y1="0" x2="151.59638901638039" y2="177" fill="rgb(0, 0, 0)" stroke="rgb(66, 66, 66)" stroke-width="1px" opacity="0.25"></line><line x1="173.91333061611056" y1="0" x2="173.91333061611056" y2="177" fill="rgb(0, 0, 0)" stroke="rgb(66, 66, 66)" stroke-width="1px" opacity="0.25"></line><line x1="196.23027221584076" y1="0" x2="196.23027221584076" y2="177" fill="rgb(0, 0, 0)" stroke="rgb(66, 66, 66)" stroke-width="1px" opacity="0.25"></line><line x1="218.54721381557093" y1="0" x2="218.54721381557093" y2="177" fill="rgb(0, 0, 0)" stroke="rgb(66, 66, 66)" stroke-width="1px" opacity="0.25"></line><line x1="240.86415541530113" y1="0" x2="240.86415541530113" y2="177" fill="rgb(0, 0, 0)" stroke="rgb(66, 66, 66)" stroke-width="1px" opacity="0.25"></line><line x1="263.1810970150313" y1="0" x2="263.1810970150313" y2="177" fill="rgb(0, 0, 0)" stroke="rgb(66, 66, 66)" stroke-width="1px" opacity="0.25"></line><line x1="285.49803861476147" y1="0" x2="285.49803861476147" y2="177" fill="rgb(0, 0, 0)" stroke="rgb(66, 66, 66)" stroke-width="1px" opacity="0.25"></line></g><g><line x1="0" y1="176.31254788370958" x2="288.828125" y2="176.31254788370958" fill="rgb(0, 0, 0)" stroke="rgb(66, 66, 66)" stroke-width="1px" opacity="0.25"></line><line x1="0" y1="159.48018471578612" x2="288.828125" y2="159.48018471578612" fill="rgb(0, 0, 0)" stroke="rgb(66, 66, 66)" stroke-width="1px" opacity="0.25"></line><line x1="0" y1="142.6478215478627" x2="288.828125" y2="142.6478215478627" fill="rgb(0, 0, 0)" stroke="rgb(66, 66, 66)" stroke-width="1px" opacity="0.25"></line><line x1="0" y1="125.81545837993923" x2="288.828125" y2="125.81545837993923" fill="rgb(0, 0, 0)" stroke="rgb(66, 66, 66)" stroke-width="1px" opacity="0.25"></line><line x1="0" y1="108.98309521201578" x2="288.828125" y2="108.98309521201578" fill="rgb(0, 0, 0)" stroke="rgb(66, 66, 66)" stroke-width="1px" opacity="0.25"></line><line x1="0" y1="92.15073204409231" x2="288.828125" y2="92.15073204409231" fill="rgb(0, 0, 0)" stroke="rgb(66, 66, 66)" stroke-width="1px" opacity="0.25"></line><line x1="0" y1="75.31836887616888" x2="288.828125" y2="75.31836887616888" fill="rgb(0, 0, 0)" stroke="rgb(66, 66, 66)" stroke-width="1px" opacity="0.25"></line><line x1="0" y1="58.48600570824542" x2="288.828125" y2="58.48600570824542" fill="rgb(0, 0, 0)" stroke="rgb(66, 66, 66)" stroke-width="1px" opacity="0.25"></line><line x1="0" y1="41.653642540321975" x2="288.828125" y2="41.653642540321975" fill="rgb(0, 0, 0)" stroke="rgb(66, 66, 66)" stroke-width="1px" opacity="0.25"></line><line x1="0" y1="24.82127937239852" x2="288.828125" y2="24.82127937239852" fill="rgb(0, 0, 0)" stroke="rgb(66, 66, 66)" stroke-width="1px" opacity="0.25"></line><line x1="0" y1="7.988916204475071" x2="288.828125" y2="7.988916204475071" fill="rgb(0, 0, 0)" stroke="rgb(66, 66, 66)" stroke-width="1px" opacity="0.25"></line></g></g></g><g><g><line x1="0" y1="176.31254788370958" x2="288.828125" y2="176.31254788370958" fill="rgb(0, 0, 0)" stroke="rgb(153, 153, 153)" stroke-width="1.5px"></line></g></g><g><g><line x1="17.694739417999283" y1="0" x2="17.694739417999283" y2="177" fill="rgb(0, 0, 0)" stroke="rgb(153, 153, 153)" stroke-width="1.5px"></line></g></g><g><g><g><g><g><path style="fill: none;" stroke="rgb(0, 119, 187)" stroke-width="2px" d="M18.810586497985796,-59.85555500091504L19.926433577972304,51.84245411784294L21.042280657958813,106.37981419121375L22.15812773794532,125.6223810086174L23.27397481793183,135.80597870411464L24.38982189791834,142.21202897888327L25.50566897790485,146.33666876381764L26.62151605789136,149.50429472435843L27.737363137877868,151.91470866279954L28.853210217864376,152.26631020022108L29.969057297850885,155.38445404457272L31.084904377837393,153.36118368846942L32.200751457823905,156.66970325283563L33.316598537810414,157.77502376824242L34.43244561779692,158.4059067036353L35.54829269778343,158.43628302430514L36.66413977776994,156.671022775934L37.779986857756455,157.86848196141455L38.89583393774296,158.85303721865347L40.01168101772947,159.63785006819043L41.127528097715974,159.83386506392836L42.24337517770249,160.06468850110812L43.359222257689,159.395096344311L44.47506933767551,159.78313245078834L45.590916417662015,160.24612453239413L46.706763497648524,160.67689906097755L47.82261057763503,160.91440037661138L48.93845765762155,161.32605145182376L50.05430473760805,161.66399223308085L51.170151817594565,161.56117858903607L52.28599889758107,161.5343723649244L53.40184597756758,161.23277304768695L54.517693057554084,160.14718919468228L55.6335401375406,161.84435595119206L56.74938721752711,161.67605094052004L57.86523429751362,161.93977256064156L58.981081377500125,162.43636111296018L60.096928457486634,162.43318430491675L61.21277553747314,162.57678277056795L62.32862261745965,162.52931204421125L63.44446969744616,162.83735647731243L64.56031677743267,162.88685464609398L65.67616385741918,163.00337078304358L66.79201093740569,162.85520053906615L67.9078580173922,162.77835035803005L69.02370509737871,162.99616878744644L70.13955217736522,163.08991592728242L71.25539925735173,163.17959614282435L72.37124633733823,163.16523709888884L73.48709341732474,163.15465201943545L74.60294049731125,163.43407548284986L75.71878757729776,163.45750825466075L76.83463465728428,163.52117845467592L77.95048173727078,163.67096278682294L79.06632881725729,163.87482910552214L80.1821758972438,163.87318291216766L81.2980229772303,163.85865451338194L82.41387005721681,163.92540039010814L83.52971713720332,163.83383881073254L84.64556421718984,163.99839233055187L85.76141129717634,164.15865980819032L86.87725837716285,164.09891205913732L87.99310545714935,163.7861489664891L89.10895253713588,164.0109438525789L90.22479961712237,163.99303477782578L91.34064669710888,163.97932185073591L92.4564937770954,164.1287586442567L93.57234085708191,164.000648522419L94.6881879370684,164.17949366528555L95.80403501705491,164.2810841017866L96.91988209704144,164.24998541445711L98.03572917702795,164.19582155968354L99.15157625701444,164.295409435278L100.26742333700096,164.31760535484156L101.38327041698747,164.40180200480677L102.49911749697398,164.25919398410898L103.61496457696047,164.37562504231866L104.730811656947,163.95393547842536L105.8466587369335,163.9356419440834L106.96250581692001,164.0962521445704L108.07835289690652,163.4338972990738L109.19419997689303,164.29107363006057L110.31004705687954,164.3998339569739L111.42589413686605,164.30654913180012L112.54174121685256,164.51121727749154L113.65758829683907,164.2975524563684L114.77343537682557,164.2688672763119L115.8892824568121,164.33175732033462L117.00512953679859,164.4012345456641L118.1209766167851,164.44707914440684L119.23682369677161,164.48917546281538L120.35267077675813,164.3153844786778L121.46851785674463,159.2346619197112L122.58436493673113,160.694287229106L123.70021201671766,163.44187062173762L124.81605909670417,163.98681680614507L125.93190617669066,163.92819835697006L127.04775325667717,163.92282154113306L128.16360033666368,163.25186491397872L129.2794474166502,163.6092028453079L130.3952944966367,164.00514324830152L131.5111415766232,164.0225643242445L132.6269886566097,164.48256179473105L133.74283573659622,164.54908935620014L134.85868281658273,164.62565299846122L135.97452989656924,164.48218134829028L137.09037697655577,164.5764526052694L138.20622405654225,164.4651455345658L139.32207113652876,164.64686168358986L140.43791821651527,164.7374007128272L141.5537652965018,164.57833798225118L142.6696123764883,164.46991154926056L143.7854594564748,164.69694737725465L144.9013065364613,164.56270115195764L146.01715361644784,164.7290902857222L147.13300069643432,164.68786562308304L148.24884777642086,164.66886818256268L149.36469485640737,164.62936997624016L150.48054193639385,164.54088888935334L151.59638901638039,164.4289292807672L152.7122360963669,164.4632481181397L153.82808317635337,164.4651864686765L154.9439302563399,163.8159867226826L156.0597773363264,161.82235105747847L157.17562441631293,163.42559008248733L158.29147149629944,164.09995547764578L159.40731857628592,163.46449434288962L160.52316565627245,163.97058683256097L161.63901273625896,163.20893466339302L162.75485981624544,163.5628389451998" fill="none"></path></g><g><path style="fill: none;" stroke="rgb(255, 112, 67)" stroke-width="2px" d="M22.15812773794532,-0.09218998597966355L23.27397481793183,26.053103947769607L24.38982189791834,42.835549974248885L25.50566897790485,53.4652941608478L26.62151605789136,62.170602197722914L27.737363137877868,68.3003424093804L28.853210217864376,73.08460569120811L29.969057297850885,76.4409009811873L31.084904377837393,73.09271546090761L32.200751457823905,78.63424373839003L33.316598537810414,85.87489397814109L34.43244561779692,88.96607749349369L35.54829269778343,90.27804945238753L36.66413977776994,91.21400548602142L37.779986857756455,72.98790487436356L38.89583393774296,81.0785463047263L40.01168101772947,85.27489944111674L41.127528097715974,87.32034645367268L42.24337517770249,88.80210989329832L43.359222257689,84.75228482067894L44.47506933767551,85.44449829073923L45.590916417662015,89.45737029556707L46.706763497648524,91.00665093898553L47.82261057763503,93.07396158244161L48.93845765762155,94.26701593655723L50.05430473760805,95.19517683130337L51.170151817594565,95.48785411766399L52.28599889758107,95.67720407702177L53.40184597756758,94.09640898412965L54.517693057554084,76.25857563628024L55.6335401375406,95.15297135526626L56.74938721752711,75.15840800304596L57.86523429751362,96.38749276616686L58.981081377500125,99.05357794962201L60.096928457486634,99.9305503376029L61.21277553747314,100.41860693704088L62.32862261745965,100.01946243659667L63.44446969744616,101.06290020815624L64.56031677743267,101.89016092787615L65.67616385741918,102.09513327019428L66.79201093740569,102.49173503999636L67.9078580173922,102.30928769538677L69.02370509737871,97.4251644465228L70.13955217736522,102.84319049882674L71.25539925735173,103.3247104826241L72.37124633733823,101.17923013503355L73.48709341732474,103.37690709219441L74.60294049731125,104.33597243790157L75.71878757729776,104.65526492252384L76.83463465728428,105.41385907283238L77.95048173727078,105.70367899773905L79.06632881725729,105.9983018583031L80.1821758972438,106.1558676846343L81.2980229772303,106.56355858529233L82.41387005721681,106.74174878238745L83.52971713720332,107.04876424431338L84.64556421718984,107.26770234205229L85.76141129717634,107.66460590059219L86.87725837716285,107.81973173287287L87.99310545714935,107.68213533153411L89.10895253713588,107.35919569791004L90.22479961712237,107.56920213321663L91.34064669710888,106.78799951171885L92.4564937770954,107.5429914602844L93.57234085708191,107.95537613897118L94.6881879370684,107.81571216372646L95.80403501705491,108.46340858443861L96.91988209704144,108.74059832961534L98.03572917702795,108.94466530571998L99.15157625701444,109.1577024704788L100.26742333700096,109.39531936477819L101.38327041698747,109.45880415735068L102.49911749697398,109.31852376255637L103.61496457696047,109.36308575916334L104.730811656947,108.07697773720503L105.8466587369335,106.63327178373063L106.96250581692001,106.56031596161992L108.07835289690652,107.89162166284574L109.19419997689303,107.84011210423174L110.31004705687954,109.63612109341719L111.42589413686605,109.55919707045588L112.54174121685256,109.39827304178671L113.65758829683907,109.71420090303404L114.77343537682557,109.85746065898479L115.8892824568121,109.31314293357126L117.00512953679859,109.30308758966831L118.1209766167851,109.3308007852527L119.23682369677161,109.44403577230804L120.35267077675813,109.71612079308957L121.46851785674463,40.723722281444665L122.58436493673113,72.51472581759683L123.70021201671766,99.58189445089366L124.81605909670417,106.2516759773393L125.93190617669066,105.55950745453785L127.04775325667717,104.67468855937342L128.16360033666368,103.94315265887779L129.2794474166502,103.43490831919021L130.3952944966367,107.17023742180773L131.5111415766232,107.61691685897836L132.6269886566097,109.25030666573323L133.74283573659622,110.22928364710008L134.85868281658273,110.18122218534168L135.97452989656924,106.57341487704903L137.09037697655577,110.59990590130103L138.20622405654225,110.38697789417078L139.32207113652876,110.84876603134374L140.43791821651527,111.24453948737606L141.5537652965018,111.38450525135859L142.6696123764883,111.28419581173407L143.7854594564748,111.50274222621752L144.9013065364613,111.41215423657324L146.01715361644784,111.6731372844249L147.13300069643432,111.93002371068646L148.24884777642086,111.6506764970861L149.36469485640737,111.53344762503227L150.48054193639385,111.0173439360872L151.59638901638039,110.04806272055274L152.7122360963669,110.23964077974087L153.82808317635337,110.89526076008023L154.9439302563399,108.85047511433271L156.0597773363264,100.13886161914807L157.17562441631293,103.70428366236828L158.29147149629944,106.61027805032292L159.40731857628592,104.9375144448369L160.52316565627245,103.77932632149593L161.63901273625896,106.47307975327662L162.75485981624544,105.33115611659349" fill="none"></path></g></g></g></g></g></g><g transform="translate(41, 177)" clip-path="url(#clip_1)"><clipPath id="clip_1"><rect width="288" height="23"></rect></clipPath><g><g><line x1="17.694739417999283" y1="0" x2="17.694739417999283" y2="5" style="visibility: inherit;" fill="rgb(0, 0, 0)" stroke="rgb(204, 204, 204)" stroke-width="1px"></line><line x1="40.01168101772947" y1="0" x2="40.01168101772947" y2="5" style="visibility: inherit;" fill="rgb(0, 0, 0)" stroke="rgb(204, 204, 204)" stroke-width="1px"></line><line x1="62.32862261745965" y1="0" x2="62.32862261745965" y2="5" style="visibility: inherit;" fill="rgb(0, 0, 0)" stroke="rgb(204, 204, 204)" stroke-width="1px"></line><line x1="84.64556421718984" y1="0" x2="84.64556421718984" y2="5" style="visibility: inherit;" fill="rgb(0, 0, 0)" stroke="rgb(204, 204, 204)" stroke-width="1px"></line><line x1="106.96250581692001" y1="0" x2="106.96250581692001" y2="5" style="visibility: inherit;" fill="rgb(0, 0, 0)" stroke="rgb(204, 204, 204)" stroke-width="1px"></line><line x1="129.2794474166502" y1="0" x2="129.2794474166502" y2="5" style="visibility: inherit;" fill="rgb(0, 0, 0)" stroke="rgb(204, 204, 204)" stroke-width="1px"></line><line x1="151.59638901638039" y1="0" x2="151.59638901638039" y2="5" style="visibility: inherit;" fill="rgb(0, 0, 0)" stroke="rgb(204, 204, 204)" stroke-width="1px"></line><line x1="173.91333061611056" y1="0" x2="173.91333061611056" y2="5" style="visibility: inherit;" fill="rgb(0, 0, 0)" stroke="rgb(204, 204, 204)" stroke-width="1px"></line><line x1="196.23027221584076" y1="0" x2="196.23027221584076" y2="5" style="visibility: inherit;" fill="rgb(0, 0, 0)" stroke="rgb(204, 204, 204)" stroke-width="1px"></line><line x1="218.54721381557093" y1="0" x2="218.54721381557093" y2="5" style="visibility: inherit;" fill="rgb(0, 0, 0)" stroke="rgb(204, 204, 204)" stroke-width="1px"></line><line x1="240.86415541530113" y1="0" x2="240.86415541530113" y2="5" style="visibility: inherit;" fill="rgb(0, 0, 0)" stroke="rgb(204, 204, 204)" stroke-width="1px"></line><line x1="263.1810970150313" y1="0" x2="263.1810970150313" y2="5" style="visibility: inherit;" fill="rgb(0, 0, 0)" stroke="rgb(204, 204, 204)" stroke-width="1px"></line><line x1="285.49803861476147" y1="0" x2="285.49803861476147" y2="5" style="visibility: inherit;" fill="rgb(0, 0, 0)" stroke="rgb(204, 204, 204)" stroke-width="1px"></line></g><g transform="translate(0, 8)"><text x="17.694739417999283" y="0" dx="0em" dy="0.95em" style="text-anchor: middle; visibility: inherit; font-family: Roboto, sans-serif; font-size: 12px; font-weight: 200;" fill="rgb(33, 33, 33)" stroke="none" stroke-width="1px">0</text><text x="40.01168101772947" y="0" dx="0em" dy="0.95em" style="text-anchor: middle; visibility: hidden; font-family: Roboto, sans-serif; font-size: 12px; font-weight: 200;" fill="rgb(33, 33, 33)" stroke="none" stroke-width="1px">20</text><text x="62.32862261745965" y="0" dx="0em" dy="0.95em" style="text-anchor: middle; visibility: inherit; font-family: Roboto, sans-serif; font-size: 12px; font-weight: 200;" fill="rgb(33, 33, 33)" stroke="none" stroke-width="1px">40</text><text x="84.64556421718984" y="0" dx="0em" dy="0.95em" style="text-anchor: middle; visibility: hidden; font-family: Roboto, sans-serif; font-size: 12px; font-weight: 200;" fill="rgb(33, 33, 33)" stroke="none" stroke-width="1px">60</text><text x="106.96250581692001" y="0" dx="0em" dy="0.95em" style="text-anchor: middle; visibility: inherit; font-family: Roboto, sans-serif; font-size: 12px; font-weight: 200;" fill="rgb(33, 33, 33)" stroke="none" stroke-width="1px">80</text><text x="129.2794474166502" y="0" dx="0em" dy="0.95em" style="text-anchor: middle; visibility: hidden; font-family: Roboto, sans-serif; font-size: 12px; font-weight: 200;" fill="rgb(33, 33, 33)" stroke="none" stroke-width="1px">100</text><text x="151.59638901638039" y="0" dx="0em" dy="0.95em" style="text-anchor: middle; visibility: inherit; font-family: Roboto, sans-serif; font-size: 12px; font-weight: 200;" fill="rgb(33, 33, 33)" stroke="none" stroke-width="1px">120</text><text x="173.91333061611056" y="0" dx="0em" dy="0.95em" style="text-anchor: middle; visibility: hidden; font-family: Roboto, sans-serif; font-size: 12px; font-weight: 200;" fill="rgb(33, 33, 33)" stroke="none" stroke-width="1px">140</text><text x="196.23027221584076" y="0" dx="0em" dy="0.95em" style="text-anchor: middle; visibility: inherit; font-family: Roboto, sans-serif; font-size: 12px; font-weight: 200;" fill="rgb(33, 33, 33)" stroke="none" stroke-width="1px">160</text><text x="218.54721381557093" y="0" dx="0em" dy="0.95em" style="text-anchor: middle; visibility: hidden; font-family: Roboto, sans-serif; font-size: 12px; font-weight: 200;" fill="rgb(33, 33, 33)" stroke="none" stroke-width="1px">180</text><text x="240.86415541530113" y="0" dx="0em" dy="0.95em" style="text-anchor: middle; visibility: inherit; font-family: Roboto, sans-serif; font-size: 12px; font-weight: 200;" fill="rgb(33, 33, 33)" stroke="none" stroke-width="1px">200</text><text x="263.1810970150313" y="0" dx="0em" dy="0.95em" style="text-anchor: middle; visibility: hidden; font-family: Roboto, sans-serif; font-size: 12px; font-weight: 200;" fill="rgb(33, 33, 33)" stroke="none" stroke-width="1px">220</text><text x="285.49803861476147" y="0" dx="0em" dy="0.95em" style="text-anchor: middle; visibility: hidden; font-family: Roboto, sans-serif; font-size: 12px; font-weight: 200;" fill="rgb(33, 33, 33)" stroke="none" stroke-width="1px">240</text></g><line x1="0" y1="0" x2="288.828125" y2="0" fill="rgb(0, 0, 0)" stroke="rgb(204, 204, 204)" stroke-width="1px"></line></g></g></g></g></svg>