<svg viewBox="0 0 330 200" xmlns="http://www.w3.org/2000/svg"><g><g><g><g><g><line x1="72.34375" y1="166.81864288436506" x2="67.34375" y2="166.81864288436506" style="visibility: inherit;" fill="rgb(0, 0, 0)" stroke="rgb(204, 204, 204)" stroke-width="1px"></line><line x1="72.34375" y1="145.31885340845616" x2="67.34375" y2="145.31885340845616" style="visibility: inherit;" fill="rgb(0, 0, 0)" stroke="rgb(204, 204, 204)" stroke-width="1px"></line><line x1="72.34375" y1="123.81906393254728" x2="67.34375" y2="123.81906393254728" style="visibility: inherit;" fill="rgb(0, 0, 0)" stroke="rgb(204, 204, 204)" stroke-width="1px"></line><line x1="72.34375" y1="102.3192744566384" x2="67.34375" y2="102.3192744566384" style="visibility: inherit;" fill="rgb(0, 0, 0)" stroke="rgb(204, 204, 204)" stroke-width="1px"></line><line x1="72.34375" y1="80.81948498072948" x2="67.34375" y2="80.81948498072948" style="visibility: inherit;" fill="rgb(0, 0, 0)" stroke="rgb(204, 204, 204)" stroke-width="1px"></line><line x1="72.34375" y1="59.31969550482061" x2="67.34375" y2="59.31969550482061" style="visibility: inherit;" fill="rgb(0, 0, 0)" stroke="rgb(204, 204, 204)" stroke-width="1px"></line><line x1="72.34375" y1="37.819906028911696" x2="67.34375" y2="37.819906028911696" style="visibility: inherit;" fill="rgb(0, 0, 0)" stroke="rgb(204, 204, 204)" stroke-width="1px"></line><line x1="72.34375" y1="16.320116553002787" x2="67.34375" y2="16.320116553002787" style="visibility: inherit;" fill="rgb(0, 0, 0)" stroke="rgb(204, 204, 204)" stroke-width="1px"></line></g><g transform="translate(62.34375, 0)"><text x="0" y="166.81864288436506" dx="0em" dy="0.3em" style="text-anchor: end; visibility: inherit; font-family: Roboto, sans-serif; font-size: 12px; font-weight: 200;" fill="rgb(255, 255, 255)" stroke="none" stroke-width="1px">2e-4</text><text x="0" y="145.31885340845616" dx="0em" dy="0.3em" style="text-anchor: end; visibility: hidden; font-family: Roboto, sans-serif; font-size: 12px; font-weight: 200;" fill="rgb(255, 255, 255)" stroke="none" stroke-width="1px">4e-4</text><text x="0" y="123.81906393254728" dx="0em" dy="0.3em" style="text-anchor: end; visibility: inherit; font-family: Roboto, sans-serif; font-size: 12px; font-weight: 200;" fill="rgb(255, 255, 255)" stroke="none" stroke-width="1px">6e-4</text><text x="0" y="102.3192744566384" dx="0em" dy="0.3em" style="text-anchor: end; visibility: hidden; font-family: Roboto, sans-serif; font-size: 12px; font-weight: 200;" fill="rgb(255, 255, 255)" stroke="none" stroke-width="1px">8e-4</text><text x="0" y="80.81948498072948" dx="0em" dy="0.3em" style="text-anchor: end; visibility: inherit; font-family: Roboto, sans-serif; font-size: 12px; font-weight: 200;" fill="rgb(255, 255, 255)" stroke="none" stroke-width="1px">1e-3</text><text x="0" y="59.31969550482061" dx="0em" dy="0.3em" style="text-anchor: end; visibility: hidden; font-family: Roboto, sans-serif; font-size: 12px; font-weight: 200;" fill="rgb(255, 255, 255)" stroke="none" stroke-width="1px">1.2e-3</text><text x="0" y="37.819906028911696" dx="0em" dy="0.3em" style="text-anchor: end; visibility: inherit; font-family: Roboto, sans-serif; font-size: 12px; font-weight: 200;" fill="rgb(255, 255, 255)" stroke="none" stroke-width="1px">1.4e-3</text><text x="0" y="16.320116553002787" dx="0em" dy="0.3em" style="text-anchor: end; visibility: hidden; font-family: Roboto, sans-serif; font-size: 12px; font-weight: 200;" fill="rgb(255, 255, 255)" stroke="none" stroke-width="1px">1.6e-3</text></g><line x1="72.34375" y1="0" x2="72.34375" y2="177" fill="rgb(0, 0, 0)" stroke="rgb(204, 204, 204)" stroke-width="1px"></line></g></g><g transform="translate(72, 0)" clip-path="url(#clip_0)"><clipPath id="clip_0"><rect width="257" height="177"></rect></clipPath><g><g><g><line x1="19.862068453984246" y1="0" x2="19.862068453984246" y2="177" fill="rgb(0, 0, 0)" stroke="rgb(189, 189, 189)" stroke-width="1px" opacity="0.25"></line><line x1="44.20411862665528" y1="0" x2="44.20411862665528" y2="177" fill="rgb(0, 0, 0)" stroke="rgb(189, 189, 189)" stroke-width="1px" opacity="0.25"></line><line x1="68.54616879932631" y1="0" x2="68.54616879932631" y2="177" fill="rgb(0, 0, 0)" stroke="rgb(189, 189, 189)" stroke-width="1px" opacity="0.25"></line><line x1="92.88821897199736" y1="0" x2="92.88821897199736" y2="177" fill="rgb(0, 0, 0)" stroke="rgb(189, 189, 189)" stroke-width="1px" opacity="0.25"></line><line x1="117.2302691446684" y1="0" x2="117.2302691446684" y2="177" fill="rgb(0, 0, 0)" stroke="rgb(189, 189, 189)" stroke-width="1px" opacity="0.25"></line><line x1="141.5723193173394" y1="0" x2="141.5723193173394" y2="177" fill="rgb(0, 0, 0)" stroke="rgb(189, 189, 189)" stroke-width="1px" opacity="0.25"></line><line x1="165.91436949001047" y1="0" x2="165.91436949001047" y2="177" fill="rgb(0, 0, 0)" stroke="rgb(189, 189, 189)" stroke-width="1px" opacity="0.25"></line><line x1="190.25641966268148" y1="0" x2="190.25641966268148" y2="177" fill="rgb(0, 0, 0)" stroke="rgb(189, 189, 189)" stroke-width="1px" opacity="0.25"></line><line x1="214.59846983535255" y1="0" x2="214.59846983535255" y2="177" fill="rgb(0, 0, 0)" stroke="rgb(189, 189, 189)" stroke-width="1px" opacity="0.25"></line><line x1="238.94052000802355" y1="0" x2="238.94052000802355" y2="177" fill="rgb(0, 0, 0)" stroke="rgb(189, 189, 189)" stroke-width="1px" opacity="0.25"></line></g><g><line x1="0" y1="166.81864288436506" x2="257.65625" y2="166.81864288436506" fill="rgb(0, 0, 0)" stroke="rgb(189, 189, 189)" stroke-width="1px" opacity="0.25"></line><line x1="0" y1="145.31885340845616" x2="257.65625" y2="145.31885340845616" fill="rgb(0, 0, 0)" stroke="rgb(189, 189, 189)" stroke-width="1px" opacity="0.25"></line><line x1="0" y1="123.81906393254728" x2="257.65625" y2="123.81906393254728" fill="rgb(0, 0, 0)" stroke="rgb(189, 189, 189)" stroke-width="1px" opacity="0.25"></line><line x1="0" y1="102.3192744566384" x2="257.65625" y2="102.3192744566384" fill="rgb(0, 0, 0)" stroke="rgb(189, 189, 189)" stroke-width="1px" opacity="0.25"></line><line x1="0" y1="80.81948498072948" x2="257.65625" y2="80.81948498072948" fill="rgb(0, 0, 0)" stroke="rgb(189, 189, 189)" stroke-width="1px" opacity="0.25"></line><line x1="0" y1="59.31969550482061" x2="257.65625" y2="59.31969550482061" fill="rgb(0, 0, 0)" stroke="rgb(189, 189, 189)" stroke-width="1px" opacity="0.25"></line><line x1="0" y1="37.819906028911696" x2="257.65625" y2="37.819906028911696" fill="rgb(0, 0, 0)" stroke="rgb(189, 189, 189)" stroke-width="1px" opacity="0.25"></line><line x1="0" y1="16.320116553002787" x2="257.65625" y2="16.320116553002787" fill="rgb(0, 0, 0)" stroke="rgb(189, 189, 189)" stroke-width="1px" opacity="0.25"></line></g></g></g><g><g><line x1="0" y1="188.31843236027396" x2="257.65625" y2="188.31843236027396" fill="rgb(0, 0, 0)" stroke="rgb(153, 153, 153)" stroke-width="1.5px"></line></g></g><g><g><line x1="44.20411862665528" y1="0" x2="44.20411862665528" y2="177" fill="rgb(0, 0, 0)" stroke="rgb(153, 153, 153)" stroke-width="1.5px"></line></g></g><g><g><g><g><g><path stroke="rgb(255, 112, 67)" stroke-width="2px" d="M45.63299697179107,177.80145196764468L45.74983881261989,176.9414600974704L45.78148347784437,176.70854602371045L45.94457521400126,175.50814109600444L45.9640488541394,175.36480911764207L46.17339048562437,173.8239911324043L46.241548226107845,173.32232920813598L46.674836719181386,170.13319190741535L46.801415380079284,169.20153561237547L46.893915170735426,168.5207079329964L47.07891475204772,167.1590557028694L47.276085358446366,165.7078213773448L47.40996663439605,164.722412070709L47.417269249447855,164.66866218774422L47.45134811968959,164.41783200776786L47.46108493975866,164.34616758290224L47.57792678058748,163.48617571272797L47.594966215708354,163.360759840582L47.70207123646811,162.57243395958895L47.98443901847109,160.4941202733345L48.32279351587121,158.00372988684046L48.427464331613706,157.2333201120638L48.434766946665505,157.17957022909903L48.69522688351308,155.26250462742334L48.775555649082904,154.671262172073L48.872923849773585,153.95459915163L49.16259424682837,151.82254027535745L49.30864654786439,150.74755200195523L49.55936966464291,148.90215082514518L49.712724580730736,147.77341266877815L49.822263806507756,146.96717068156866L50.02186861792366,145.49801555688094L50.13627625373521,144.6559444858698L50.17765773902875,144.35135972998194L50.182526149063285,144.31552751754916L50.255552299581296,143.77803181653246L50.25798650459856,143.7601172746316L50.28719696480577,143.5451208714036L50.299367989892104,143.45553877600602L50.36995993539285,142.9359607455213L50.74239330303472,140.19473548610418L50.87627457898441,139.2093293080995L51.42883911790404,135.14228403098824L51.601667674130006,133.8702138962588L51.901074891253856,131.66648120922727L52.06903503744529,130.4302464155618L52.107982317721564,130.14358245883705L52.11041652273883,130.1256679169362L52.25160041374033,129.08651185596676L52.67758629176207,125.95112287389533L53.01350658414493,123.47864702930214L53.01837499417946,123.44281168823818L53.14008524504281,122.54699073426225L53.312913801268785,121.27492059953285L53.49061076752928,119.9670151237395L53.50765020265015,119.84160081590909L53.76811013949773,117.92453834286457L53.83626787998121,117.42287485428066L54.03100428136258,115.9895613279192L54.18192499243313,114.87873458482186L54.42047708412531,113.12291550340939L54.508108464746925,112.47792316509427L54.715015891214634,110.95502441470407L54.9170549076478,109.46794849085323L55.141001769236375,107.81963543263264L55.18238325452992,107.51505693400706L55.55968503220632,104.73800259078827L55.56942185227538,104.66633190866035L55.58889549241353,104.52300305892913L55.861526454347434,102.51635536185587L55.89560532458918,102.2655204889328L56.119552186177756,100.61720743071218L56.30698597250732,99.23763127279092L56.63560364983837,96.81891156842477L56.70376139032185,96.31724182257861L57.21737864896521,92.53686675945436L57.25145751920696,92.28603814379355L57.7139564724877,88.88190600416046L58.03040312473242,86.5527590092985L58.13750814549218,85.76443782125214L58.344415571959885,84.24153907086193L58.48073105292684,83.2381995791696L58.497770488047706,83.11279152860149L58.58540186866932,82.46780544754864L58.7874408851025,80.98072952369782L59.29862393872859,77.2182627452121L59.344873834056656,76.87785516278485L59.515268185265356,75.62369956995627L59.7270440217676,74.0649654785021L60.209016615186485,70.51749823187552L60.27960856068723,69.9979202013908L60.51329224234487,68.2779364610423L60.54250270255208,68.06293692918315L60.890594020021275,65.5008883750858L61.16322498195519,63.49423442075024L61.523487324510725,60.84259438536187L61.62328973021867,60.108016823018005L62.175854269138306,56.040971545906714L62.365722260485136,54.643487103346885L62.37302487553694,54.58973722038211L62.409537950795944,54.3209878055582L62.48986671636576,53.72975160747013L63.164141506148745,48.76687911912062L63.188483556321415,48.58770867106316L63.27368073192577,47.96064338917342L63.658285124653965,45.12982039120302L63.840850500948996,43.78609834613255L64.11834987291745,41.74361530799534L64.2181522786254,41.00903774565149L64.56380939107733,38.464884961668126L64.57598041616367,38.37531850942622L64.59788826131907,38.21406886053187L64.8924270684084,36.04616525730198L64.91676911858106,35.867007323769066L65.14315018518691,34.20077346638534L65.67137267393386,30.312898637331507L65.74196461943461,29.793308092322228L65.79308292479722,29.417071426093305L65.81012235991808,29.291663375525182L65.95130625091957,28.252507314555725L66.6012389905299,23.468805274263683L67.10755363412146,19.74215506505508L67.31689526560642,18.20134177276404L67.3485399308309,17.968433956266352L67.62360509778208,15.943871717292247L67.6674207880929,15.621372419503555L68.02038051559663,13.023482267079936L68.1761696367017,11.876826440180935L68.607023924758,9.377050160270478L69.07439128807327,11.066373315458621L69.09143072319415,11.127081274076122L69.37379850519713,12.123788067754178L69.56853490657849,12.80147460146988L69.67320572232097,13.162506120364176L69.88011314878868,13.869664359407485L69.99452078460024,14.257026437966035L70.13327047058446,14.723367680992725L70.24524390137876,15.096988811589615L70.24767810639602,15.10507319445231L70.3012306167759,15.282879559333237L70.4716249679846,15.84503200235492L70.59820362888249,16.259100076314343L70.60550624393427,16.282890187493866L70.69800603459043,16.583476552786344L70.75399274998757,16.764636810248085L70.7734663901257,16.827522296138195L70.88543982092,17.187740370936407L71.08504463233591,17.824304176963572L71.13129452766398,17.97078668688272L71.31872831399355,18.560571200122386L71.85668762280957,20.21994709804984L71.98570048872473,20.610713127287404L72.03438458907007,20.757458442222216L72.10984494460536,20.984171569065072L72.13175278976075,21.049810250357336L72.21451576034784,21.297109770093563L72.41412057176375,21.889046781556715L72.50418615740261,22.154091897112277L72.6843173286804,22.680402741807725L73.19550038230649,24.14719262135449L73.20767140739282,24.181645107455076L73.29530278801442,24.429032228863182L73.60688103022463,25.299705245745336L73.67017036067357,25.474883560469692L73.97688019284921,26.315834581533135L74.90431230442799,28.781596383702446L75.40575853798501,30.068765292307752L75.55667924905556,30.450082855506118L75.7465472404024,30.925960166243907L75.78792872569595,31.029092363103693L75.85365226116215,31.192494510221557L75.90477056652477,31.319229100392523L75.93398102673197,31.391512994223636L75.97049410199098,31.481717687217845L76.68371617205024,33.21327736277997L76.93200508381149,33.80274901290573L77.0342416945367,34.043528465348665L77.15838615041731,34.33439104506172L77.21437286581447,34.465030166893925L77.35799096183324,34.798617333438585L77.67687181909521,35.53163058021302L77.85700299037298,35.94109330913613L78.33410717375735,37.00988376425239L78.677330081192,37.76499766139141L78.85502704745251,38.15152126680476L78.91831637790143,38.28846770901281L78.96213206821224,38.38307751465047L79.105750164231,38.69187340805119L79.22746041509437,38.95208791712841L79.67778834328878,39.903191783327145L79.69239357339237,39.9337397377665L79.7654197239104,40.08616664684939L79.78732756906581,40.13180711790239L79.81166961923847,40.18246591330201L80.03561648082704,40.646116533549346L80.05752432598246,40.69124390909556L80.10864263134506,40.7963784298842L80.26443175245016,41.11538617532197L80.31068164777824,41.20969563237032L80.79265424119713,42.18182389982185L81.01173269275115,42.617379412442645L81.22107432423613,43.02993322893091L81.36225821523762,43.30622890206163L81.72495476281043,44.00880682511772L81.72982317284495,44.01816768948505L81.80771773339751,44.16770374339569L81.88317808893278,44.31212135676323L82.37488750242075,45.24265134459312L82.43330842283515,45.352028289205975L82.99074137178931,46.38307493826362L83.23903028355055,46.835199681395565L83.29014858891317,46.927757105006165L83.61389785620969,47.5097200403988L83.78916061745294,47.82176971018386L83.8427131278328,47.91670489345995L83.99606804392063,48.187519204835496L84.23705434063008,48.60993446667328L84.70442170394536,49.41837275294218L84.97705266587927,49.88353763066071L85.0938945067081,50.08146735102648L85.19613111743331,50.253967557496004L85.60264335531691,50.933493726321316L85.67810371085218,51.058538855677334L86.02376082330413,51.626961075501185L86.15277368921927,51.83733023327487L86.21362881465096,51.936220006310435L86.26718132503083,52.02305829219929L86.52277285184388,52.43527421652455L86.76375914855332,52.82052134043327L86.79783801879506,52.87474677533114L86.8684299642958,52.98683937177248L86.88790360443394,53.017725218374835L86.9584955499347,53.12945489360408L87.09237682588437,53.34062498094929L87.65467818487309,54.216866961258546L87.81290151099545,54.46036206552998L87.927309146807,54.63560295287709L88.41171594524315,55.37003034092628L88.54316301617557,55.56725924791697L88.8669122834721,56.049268675686825L88.86934648848937,56.05287285875874L89.21013519090677,56.554580148178566L89.82598906027533,57.44695335063953L90.10105422722653,57.839709189281386L90.48565861995472,58.38297721474919L90.61467148586989,58.56371197837605L90.86296039763111,58.90940069016562L91.49585370212057,59.7782465864627L91.76118204900268,60.13731332500185L91.79526091924443,60.183216601070484L91.98269470557399,60.43480860272915L92.26262828255972,60.80779149257372L92.48657514414829,61.103860114501735L92.62532483013251,61.2862467953699L92.7226930308232,61.413782315112414L92.766508721134,61.47103626495268L92.7884165662894,61.49964446808596L92.9734161476017,61.74041140600436L93.23144187943203,62.07393599992622L93.23874449448383,62.08333440786722L93.25091551957016,62.09900259261038L93.42374407579611,62.32079751130302L93.70854606281637,62.683756266978826L93.8180852885934,62.822529829771945L93.94953235952582,62.988434881800856L93.95196656454307,62.99150094031689L94.00551907492296,63.05890416957144L94.04446635519923,63.107860989631575L94.53374156366992,63.717944061699825L94.5410441787217,63.726992062953286L94.6603202245678,63.874350589591295L94.71874114498222,63.94632162030853L95.26643727386731,64.61513535611455L95.42222639497241,64.80340386352368L95.58044972109477,64.99374978200899L95.63643643649192,65.06089020624788L95.84090965794235,65.30517372556629L95.84821227299416,65.31387132013218L95.86038329808049,65.32836313956716L96.02347503423739,65.52206295063326L96.06729072454819,65.57393565491476L96.34479009651663,65.90100275416611L96.72939448924485,66.35002389520837L97.00689386121329,66.67093384837855L97.07018319166224,66.74378089581462L97.12130149702486,66.8025115595524L97.13590672712844,66.8192685079319L97.52051111985666,67.25829054385449L98.10228611898349,67.91342590432163L98.21669375479505,68.04101148216236L98.3091935454512,68.14386835948194L98.37735128593468,68.21949363136929L98.65485065790311,68.52591176510451L98.83011341914636,68.71824749299408L99.36807272796239,69.3028384785433L99.55063810425742,69.49929148501157L99.76971655581146,69.73376361707865L100.27603119940302,70.27037391548306L100.30037324957569,70.2959786327231L100.38313622016277,70.38295457838207L100.40747827033545,70.40849672299933L100.47076760078437,70.47482370314214L100.5803068265614,70.58936914639631L100.63629354195854,70.6477869470202L100.81885891825358,70.8376573135724L100.9795164493932,71.00400037396074L101.2545816163444,71.28715400654774L101.57102826858912,71.61037914676065L101.59780452377906,71.63761075219284L101.6464886241244,71.6870681532352L102.2233952132167,72.26836781882638L102.56661812065137,72.6101019408565L102.66155211632478,72.70409853479096L102.73214406182552,72.77384198013733L102.94391989832776,72.98232144470317L103.06076173915659,73.09685437343282L103.06563014919111,73.10162240728836L103.15812993984726,73.19203984720001L103.21411665524441,73.24667826140822L103.73016811890504,73.74655843024297L103.88595724001013,73.89619460035006L104.1245093317023,74.12418420869754L104.14398297184044,74.1427307340884L104.56753464484493,74.5440089639524L104.64786341041473,74.61963423583974L104.82799458169251,74.78868043353201L104.92292857736592,74.87747098525149L105.13227020885088,75.07252236496954L105.37082230054307,75.29356641218887L105.42437481092294,75.34301129870666L105.61667700728704,75.52002924854062L105.76029510330581,75.65169456138636L106.03779447527424,75.90478830599166L106.07430755053325,75.93796431058762L106.26660974689736,76.11220403597031L106.4783855833996,76.30315065163425L106.78509541557526,76.57799463991658L106.8702925911796,76.65398283301604L107.05042376245736,76.81411868922498L107.40338348996109,77.12591806851894L107.46423861539277,77.17941766099261L107.62002773649786,77.31601369651314L107.6541066067396,77.34583580852829L107.95351382386346,77.60673861645606L107.98029007905339,77.62997808855515L108.22371058078011,77.8406100513445L108.38680231693701,77.98107307495259L109.11706382211713,78.60345792465866L109.11949802713441,78.60552282121029L109.19008997263515,78.66511698714235L109.19495838266968,78.66922175119647L109.43594467937912,78.87195704899146L109.95686455307428,79.30636122535319L109.97146978317788,79.31846277059812L109.98607501328149,79.33056431584302L109.99581183335056,79.33862366965661L109.99824603836782,79.34065102263457L110.27817961535354,79.57174423307174L110.84048097434224,80.03152786523148L111.07903306603441,80.22483972603638L111.10337511620709,80.24451255863723L111.12041455132795,80.25826602112345L111.16423024163876,80.29363206751657L111.41008494838275,80.49139909906313L111.61942657986772,80.65894355380877L111.84093923643903,80.8353858355132L111.92370220702611,80.90108708942823L111.9675178973369,80.9358274095936L112.6563979172235,81.47751860496744L112.8267922684322,81.61024765240037L113.11159425545245,81.83099135103036L113.14323892067692,81.85543221748677L113.3671857822655,82.02794493848083L113.43777772776623,82.08213282980506L113.53271172343966,82.15489227556925L114.40659132463854,82.81773658316244L114.4698806550875,82.8652542328987L114.56968306079544,82.94006606068999L114.63053818622711,82.98560641554651L114.6694854665034,83.01471519966202L114.96889268362725,83.23772402723651L115.11981339469781,83.34960387676041L115.62612803828937,83.72232396158931L115.66507531856564,83.75083204852616L115.786785569429,83.83977277454031L115.8452064898434,83.88237847338864L115.96691674070676,83.97097504997751L116.2979686230551,84.21083468486565L116.49513922945373,84.35289956761679L116.497573434471,84.35465160105453L116.91382249242366,84.65266623155088L116.92599351751,84.66133879706769L116.98928284795895,84.70641611451568L117.13776935401224,84.81195110009007L117.33737416542814,84.9532963976793L117.50533431161956,85.07178391616837L117.60513671732753,85.14199665618557L117.70980753307,85.21548194437399L118.03112259534927,85.44009263109155L118.0578988505392,85.45875178720343L118.40355596299113,85.69861142209156L118.63237123461424,85.85647589209371L118.66645010485598,85.87992185384796L118.71026579516679,85.91005682897699L119.60361903650382,86.51853804190219L120.3363147467012,87.00958295640095L120.42638033234009,87.06945244187324L121.04223420170867,87.47602431562407L121.3148651636426,87.6544501494705L121.47308848976496,87.75756983180575L121.49012792488581,87.76866395782396L121.50960156502396,87.78132865667388L121.62644340585278,87.8572167335769L121.64835125100818,87.87142697620938L121.79196934702695,87.96443492270396L121.82361401225141,87.98489617035179L122.20578419996235,88.23098178120615L122.28611296553217,88.28247904975099L122.38834957625738,88.34791124138809L122.84111170946906,88.63612074189544L123.10157164631664,88.80079311325565L123.38150522330237,88.97687247374796L123.50078126914845,89.05162172891644L123.6370967501154,89.13683312661311L123.95841181239466,89.33681522900596L123.9778854525328,89.34890425972632L124.22130595425952,89.49955410632238L124.25051641446672,89.51759379346876L124.29920051481206,89.54762239513907L124.58643670684958,89.72425239471183L124.65216024231579,89.76453039199288L124.65702865235033,89.76751510609931L124.87610710390436,89.90142051884045L125.04650145511306,90.00519095645257L125.12926442570014,90.05548683064009L125.19742216618363,90.09683481977063L125.52847404853195,90.29695458193358L125.75242091012052,90.43163589519712L125.98853879679544,90.57304376540915L126.01044664195084,90.58613395809392L126.03965710215803,90.60357920532394L126.0859069974861,90.6311862464928L126.12728848277965,90.65585863165349L126.25873555371209,90.73411195369742L126.28794601391928,90.75147585651784L126.34880113935095,90.78762406069565L126.43886672498984,90.841048566022L126.69202404678562,90.99074730875186L126.7382739421137,91.01801645775777L126.86728680802885,91.09397336454583L126.99386546892674,91.16832841219082L127.53182477774277,91.48243046400295L127.58294308310538,91.51212743077254L127.71682435905507,91.58974876932645L127.92860019555731,91.71216584852587L127.93103440057457,91.71356747527607L128.02353419123074,91.76688560714369L128.1087313668351,91.81591751435117L128.55662509001223,92.07245901047143L128.7878745666526,92.2041180660549L129.3647811557449,92.5302215469155L129.51570186681545,92.61498867899047L129.70313565314504,92.71995425369761L129.76155657355943,92.75259839099996L129.81267487892205,92.7811315069859L129.83214851906018,92.79199411429987L129.8686615943192,92.81236150301353L130.12181891611496,92.95316241878463L130.12668732614952,92.95586555608855L130.34576577770352,93.0772063861762L130.82773837112242,93.34253933579654L130.84477780624331,93.35187517111477L131.00543533738292,93.43980222063992L131.01760636246925,93.44645369044105L131.27076368426503,93.58448263902312L131.3121451695586,93.60699001143574L131.4752369057155,93.69552401540183L131.98398575432432,93.9701302277176L132.02293303460058,93.99105451277399L132.05457769982505,94.00803672259545L132.1397748754294,94.0537397662712L132.20306420587835,94.08764787055365L132.7702339749016,94.38984860951372L132.91628627593758,94.467207143052L132.9893124264556,94.50580819404266L133.0355623217837,94.53023654597449L133.25220656832045,94.64439403896746L133.37878522921835,94.71089622245402L133.45424558475364,94.75048592088453L133.59299527073787,94.82312647866547L133.94838920325887,95.00843530101729L134.23075698526185,95.15488652462506L134.31108575083167,95.19641597436166L134.92693962020022,95.5130271883471L135.00970259078733,95.55532628134382L135.67910897053576,95.89536468529671L135.95173993246968,96.03278667943786L136.7209487179261,96.41723287377503L136.85482999387577,96.48365997011429L136.89134306913476,96.5017497153589L137.14206618591328,96.62567479476722L137.32219735719107,96.71441528838848L137.36114463746733,96.73356251095801L137.38792089265726,96.74671527626558L137.47068386324435,96.787362452021L137.66542026462574,96.88276692996793L137.813906770679,96.9553073715524L137.81634097569628,96.95650250864745L137.95752486669778,97.02531362191446L138.0062089670431,97.04900987415982L138.29831356911518,97.1907931801085L138.64153647654985,97.35654180058044L138.69995739696424,97.38465567999381L139.03100927931257,97.54352756922266L139.2646929609702,97.65516964278001L139.408311056989,97.72358654852356L139.4350873121789,97.73631381999624L140.12640153708278,98.06331834662481L140.39659829399943,98.19017808204136L140.4647560344829,98.22209011965722L140.5889004903635,98.28013248454447L140.82501837703842,98.39021024253242L140.9004787325737,98.42530722664759L140.91264975766003,98.43096379174658L140.9540312429536,98.4501923587257L141.17067548949035,98.55063393280612L141.84251607425605,98.86001175159863L142.30988343757136,99.07335310895421L142.33909389777855,99.08663101950731L142.69692203531685,99.24886931584153L142.7212640854895,99.25988209745016L142.7358693155931,99.26647725189076L142.74560613566217,99.27088236453422L142.82106649119746,99.30495315763586L142.825934901232,99.3071557139576L142.86001377147372,99.32252355011143L142.87461900157734,99.32911244728977L143.05231596783784,99.40914283182057L143.65356460710282,99.67830522595482L143.8677746486223,99.77361584496757L143.93106397907124,99.8017109525941L144.15014243062527,99.89878611956915L144.21586596609149,99.9278448455864L144.38626031730018,100.0030446236389L144.55178625847435,100.0759167001241L144.75139106989025,100.16354340105995L144.86823291071906,100.21471529196633L144.90718019099535,100.23176007441059L145.45487631988044,100.47032445600725L145.67638897645176,100.56626705851005L146.00500665378283,100.70801282088506L146.0220460889037,100.71534007501215L146.31658489599303,100.84178057385607L146.37500581640742,100.86679085117972L146.43342673682184,100.89177609945429L146.58434744789238,100.95624467270062L146.81559692453277,101.05474023821272L147.08579368144942,101.16941082671242L147.1296093717602,101.18795735210328L147.6407924253863,101.40352003756742L147.8793445170785,101.50357366138661L148.3369750603247,101.69454530609967L148.37835654561826,101.71175277736315L148.47329054129165,101.75119230149899L149.10131543574656,102.01071851172568L149.57841961913093,102.20632678778648L149.6855246398907,102.2500525365825L149.77072181549505,102.28479285674786L149.90216888642746,102.3383049637461L149.98006344698,102.36997922539543L150.15532620822322,102.44109301118063L150.22104974368943,102.4677176621719L150.23078656375853,102.47165348014452L150.33058896946648,102.51203159362203L150.38414147984636,102.53367546384032L150.800390537799,102.70132629204468L150.81012735786808,102.70523082370592L150.84177202309255,102.71793932339178L151.03650842447394,102.79599867030514L151.04624524454297,102.79989068744182L151.13387662516462,102.83494387072106L151.2531526710107,102.8825804084406L151.27019210613156,102.88938205253638L151.3772971268913,102.93206909579432L151.50630999280645,102.98342244730676L152.19032160265854,103.25411787069903L152.33637390369455,103.31158456745672L152.54084712514498,103.3918402134295L152.71854409140548,103.46140845543212L152.75262296164723,103.4747239095589L153.11288530420276,103.61517441864245L153.18591145472078,103.64355736033374L153.45367400662016,103.74738411330634L153.9551202401772,103.94080860483223L153.9770280853326,103.94922462259562L154.10604095124773,103.9987571107853L154.4346586285788,104.12454059709009L154.52229000920042,104.15798566396398L153.81150214415842,103.88554446439625L154.25209325228377,104.05473457912092L154.33729042788812,104.08732865832506L154.70242118047815,104.22661531662496L154.72432902563358,104.23494998997876L154.86307871161782,104.28767993919229L154.9458416822049,104.31909139582594L155.0553809079819,104.36059581651342L155.14301228860353,104.3937655638471L155.4180774555547,104.49761108860653L155.45702473583097,104.51229062590984L155.6493269321951,104.58462457783916L155.85866856368006,104.66315321942335L156.33820695208166,104.84222355128436L157.56017787074975,105.29337841876327L157.66484868649223,105.33167912116458L157.81090098752827,105.38504105386818L157.85958508787363,105.40280542147435L157.92287441832255,105.42588220475422L158.1419528698766,105.50561849795798L158.2685315307745,105.55157808938712L158.4145838318105,105.6045145282558L158.50221521243213,105.6362263334788L158.6312280783473,105.68285545197165L158.64096489841634,105.6863657761094L158.6726095636408,105.69779153702832L158.70668843388256,105.71008705740385L158.76510935429698,105.73115525949262L158.79431981450418,105.74167371738129L158.8892538101776,105.77586339846624L158.92333268041932,105.78812763253038L159.22517410256046,105.89648464339199L159.23977933266406,105.90171571465608L159.339581738372,105.9374446822613L159.3833974286828,105.95311912426675L159.43938414407995,105.97312359176831L159.69740987591027,106.06516791987215L159.95300140272332,106.15602962540552L159.99194868299958,106.1698456605145L160.0649748335176,106.19574446908159L160.76359167347326,106.44221803019717L160.7830653136114,106.44905096060432L161.0946435558216,106.55824018734886L161.5668793291714,106.72289378692223L161.90279962155427,106.83942278231841L162.60871907656173,107.08267385336102L162.74016614749414,107.1277261417599L162.80102127292582,107.1485565678821L163.10773110510146,107.25330939567179L163.30490171150012,107.32043730538614L163.45338821755342,107.3708896111306L163.49963811288148,107.38658282492288L164.39542555923578,107.68873350578477L164.51713581009915,107.72953085583487L164.74351687670497,107.8052437293941L164.78246415698123,107.81824006314473L164.85549030749925,107.84261209971606L165.03318727375975,107.90180580086239L165.3106866457282,107.9939940459986L165.52489668724772,108.06493888570229L165.69042262842189,108.119633615271L165.91193528499318,108.1926433515263L165.9168036950277,108.19424521066938L165.93140892513134,108.1990507880986L166.37443423827395,108.34445079164374L166.76390704103667,108.47162339017414L166.85153842165832,108.50015650616011L167.1412088187131,108.59425321629101L167.36758988531892,108.66755078661109L167.5014711612686,108.71080098347402L167.64752346230463,108.75791816842451L167.87877293894502,108.83232953142999L168.6406791093496,109.07604363988115L168.74778413010938,109.11012694750735L168.75752095017842,109.11321803507252L168.77699459031655,109.11941272472735L169.1372569328721,109.23368284844133L169.25166456868365,109.26986859619282L169.41232209982329,109.32060247873979L169.41719050985782,109.32213550799779L169.82613695275867,109.45082862126168L169.96001822870838,109.4928211084068L170.02817596919186,109.51417088729805L170.10850473476165,109.53931256712954L170.1669256551761,109.55758377298021L170.19126770534876,109.5651926039098L170.4906749224726,109.65860101519016L170.53449061278343,109.67224184695537L170.8095557797346,109.75772856419226L170.90935818544256,109.7886707261551L171.20146278751463,109.87904436523083L171.45462010931038,109.95709745488189L171.5349488748802,109.98182615540306L171.69073799598527,110.02970046908914L171.71508004615796,110.03717789751092L171.9073822425221,110.09613382269069L171.94389531778108,110.10731555038079L172.03396090341994,110.13487253345143L172.65955159285758,110.32548751421467L172.67902523299574,110.33140062706704L172.8226433290145,110.37495117251929L172.85672219925624,110.38528191253965L173.26080023212256,110.50737987136291L173.40198412312407,110.54990422580163L173.41902355824493,110.55503518086928L173.42876037831402,110.55796357961522L173.43849719838306,110.56089197836114L173.78172010581773,110.66393657354904L173.86204887138754,110.6879957470065L173.8888251265775,110.6960175572464L174.17362711359775,110.78110380969754L174.29290315944382,110.81666383122125L174.32941623470282,110.8275326957975L174.38053454006544,110.84275035765667L174.41704761532446,110.85361296497064L174.70428380736195,110.9389119643392L175.01342784455488,111.03040565336259L175.25197993624707,111.10078733946129L175.41750587742123,111.14950012629261L175.50513725804285,111.1752550178273L175.55868976842274,111.19097951793097L175.66579478918246,111.22240974635146L175.73395252966594,111.24238918480391L175.94816257118546,111.30507443830113L176.2646092234302,111.39740660046975L176.3741484492072,111.42928109451195L176.88776570785055,111.57824773755533L177.14579143968086,111.65275295949499L177.1530940547327,111.65486165688255L177.21638338518162,111.67310157642184L177.2918437407169,111.69483304831202L177.7275664388077,111.81995326481538L177.73973746389404,111.823438559904L177.75921110403218,111.82902003785563L178.15355231682946,111.94169455968883L178.2825651827446,111.97844346104527L178.35315712824536,111.99853553021875L178.5357225045404,112.05041449176251L178.76210357114624,112.11460148820636L178.76940618619804,112.11666638475799L179.07368181335642,112.2026724547639L179.5921674820343,112.34856052476671L179.67249624760413,112.37109292622843L179.77473285832934,112.3997324156731L179.90374572424452,112.43582430449042L180.08631110053955,112.48682099205307L180.12038997078128,112.49633203071505L180.13742940590214,112.50108755004605L180.33216580728353,112.55533175673075L180.76788850537432,112.67629715108177L180.84821727094413,112.69852920395417L180.93584865156575,112.72276983801768L181.28393996903495,112.81881255671692L181.37400555467386,112.84359757259857L180.63157302440737,112.6385095441872L180.68999394482177,112.65471585348624L180.7824937354779,112.68033308525082L180.79709896558154,112.68438153394446L181.19630858841333,112.79466578158755L181.23282166367235,112.80472745933L181.3155846342594,112.82752266580736L181.90466224843806,112.98916652222519L182.17242480033744,113.06230140372607L182.7079499041362,113.20793292597546L183.20696193267594,113.34287078699242L183.3311063885566,113.37633462565314L183.5599216601797,113.43788105741585L183.84228944218268,113.51362521728647L183.97617071813238,113.54946681561269L184.0491968686504,113.56898947391889L184.05893368871943,113.57159249502638L184.23906485999723,113.6196858128922L184.30478839546342,113.63720614726952L184.34616988075697,113.64823144340272L184.38268295601597,113.65796148624442L184.40702500618863,113.66443775270174L184.61149822763906,113.7188133618943L184.95715534009102,113.81046973973692L184.99610262036728,113.82078170797044L185.01070785047088,113.82464869605802L185.5657065944078,113.97102483251845L185.68011423021932,114.00109097776243L185.97465303730866,114.07833062331741L186.32517855979512,114.1699369430618L186.44202040062396,114.20039729582929L186.48096768090022,114.21054657524358L186.55399383141824,114.22955613804302L186.67326987726432,114.26057964441547L186.7170855675751,114.27196786176073L186.75116443781687,114.2808156306213L187.02136119473352,114.35088445360613L187.08708473019973,114.3678916924767L187.3767551272545,114.44274732110392L187.56662311860134,114.49167911211494L187.7930041852072,114.54990293760821L187.8076094153108,114.5536510377125L187.86116192569065,114.56739824293643L188.0802403772447,114.62357594366495L188.3260950839887,114.68645517229277L188.51352887031823,114.73429194240519L188.5816866108017,114.7516621024879L188.80806767740756,114.80927271627799L188.91030428813278,114.83524661199239L188.9906330537026,114.8556265152306L189.14885637982496,114.89574182369245L189.477474057156,114.97882575221473L189.84503901476336,115.07143323392353L190.08845951649008,115.13256668637591L190.29049853292324,115.1831879382019L190.4633270891492,115.22641310601571L190.6994449758241,115.28534400214637L190.7286554360313,115.29262745543753L190.79681317651477,115.30960340799672L190.85766830194646,115.32475223997085L191.09135198360408,115.38283840569402L191.4467459161251,115.47091562951384L191.609837652282,115.51121865584403L191.71937687805902,115.53826254340791L192.5640460190507,115.74573458874706L192.62733534949965,115.76120879835962L192.75878242043206,115.79332106836839L193.16042624828117,115.8911596213413L193.4817413105604,115.9691501383696L193.55720166609566,115.9874338587448L193.5766753062338,115.99215183450214L194.35318670674204,116.17941292268456L194.49680480276078,116.21388418057198L194.5649625432443,116.23022814964112L194.7183174593321,116.26696453647307L195.19542164271644,116.38089051076176L195.5313419350993,116.46078323552244L195.701736286308,116.5012051498359L195.70417049132527,116.50178081796544L195.90864371277573,116.55019325620741L196.15449841951968,116.60827942193058L196.2859454904521,116.63927164199166L196.2932481055039,116.64099864638028L196.5610106574033,116.70400302025365L196.68758931830118,116.73373753059694L196.76548387885373,116.75202125097213L197.06489109597757,116.8221401320552L197.29127216258343,116.87502025556337L197.33265364787698,116.88467521125774L197.40811400341224,116.90227063278242L197.51521902417198,116.9272245947456L197.57850835462094,116.94195419014711L197.6417976850699,116.95667127102409L198.33798032000826,117.11802103611487L198.36232237018092,117.12364005764017L198.36719078021548,117.12476010758789L198.76640040304727,117.21676689211805L199.2532414065007,117.32847779556046L199.25810981653524,117.32959158824586L199.50153031826196,117.38525619346761L199.52830657345189,117.39136328145057L199.59646431393537,117.40691883547274L199.65975364438432,117.42135433954722L200.12468680268233,117.52713335835044L200.19527874818306,117.5431644643057L200.23909443849388,117.55310099680257L200.38027832949535,117.58508812156579L200.44113345492704,117.59886661310111L200.62369883122207,117.64015202960887L200.69915918675736,117.65719681205312L200.75027749211998,117.66873520369305L200.81113261755166,117.68245737986788L200.99126378882943,117.72304824026283L201.09350039955464,117.74604993639537L201.25415793069428,117.78215433973726L201.4659337671965,117.82967198947352L201.73613052411315,117.89014217212448L201.83593292982113,117.91244305488192L201.97955102583987,117.94449275226792L202.00145887099526,117.94937341684445L202.60757592029475,118.0841423317799L203.1820483043698,118.2111459842288L203.457113471321,118.27172254033849L203.79790217373838,118.34654688265431L204.18980918151837,118.43230266216912L204.25796692200186,118.4471886891276L204.27744056214001,118.45143737021411L204.3675061477789,118.47108517376584L204.97118899206114,118.60234376456356L205.3874380500138,118.6924233123122L205.47020102060088,118.7102940533771L205.5651350162743,118.73076781554947L206.0471076096932,118.83446316601426L206.9331582359784,119.023895524207L207.39078877922464,119.12112086547673L207.3932229842419,119.12164021824577L207.43460446953543,119.13040664269671L207.50763062005345,119.14588085230928L207.5782225655542,119.16082945189052L207.67072235621035,119.18039591103266L207.794866812091,119.20663261176271L207.99690582852415,119.24927585418472L208.18677381987098,119.28927227466329L208.43262852661496,119.34096351833874L208.7320357437388,119.40374888803241L209.01196932072452,119.46230434842641L209.1555874167433,119.49228914926078L209.60104693490317,119.58503429073971L209.60348113992043,119.5855348717219L209.6351258051449,119.5921112543757L209.97834871257956,119.66329387004595L210.10005896344293,119.68848560797565L210.29236115980703,119.72822548070084L210.34347946516962,119.7387752249009L210.69643919267335,119.811509641616L210.7962415983813,119.83203346188661L210.86196513384752,119.845542891144L210.93499128436554,119.86054154882346L211.12729348072963,119.89998107295932L211.3512403423182,119.94582803366747L211.41209546774988,119.95827372833766L211.51676628349236,119.97966105080256L211.8259103206853,120.0427092255119L211.93058113642778,120.06401520356721L212.6608426416079,120.21211834441627L212.73386879212592,120.2268792261292L212.74360561219498,120.22884400648437L212.8020265326094,120.24063894587768L212.81906596773027,120.24408044013038L212.90669734835188,120.26176346332693L212.96268406374904,120.27305156447578L213.0308418042325,120.28678625517516L213.14524944004407,120.30983175214365L213.2158413855448,120.32402948025157L213.39597255682258,120.36024025705217L213.846300485017,120.45050126540688L214.04347109141563,120.48990324596907L214.71531167618136,120.62366474167783L214.81754828690654,120.64395078598187L215.09504765887502,120.69891457782853L215.1632053993585,120.7123989780368L215.18998165454843,120.71769262192367L215.4017574910507,120.75951616298731L215.4650468214996,120.77199940123117L215.7474146035026,120.82761394835468L215.9251115697631,120.86254198638838L216.12228217616172,120.90123689631318L216.2585976571287,120.92794914897635L216.30728175747402,120.93748521668748L216.38274211300933,120.95225235566267L216.4362946233892,120.96272075545312L216.516623388959,120.97842648376995L216.57747851439066,120.99031528209744L216.58478112944246,120.99174193789673L216.96695131715342,121.0662471598364L217.15681930850025,121.10317126453666L217.20793761386287,121.11310779703352L217.2103718188801,121.11357709170434L217.21524022891467,121.11452193830826L217.29556899448446,121.13011503590408L217.46352914067592,121.16269034332139L217.47083175572772,121.16410448459615L217.5681999564184,121.18297013036317L217.84569932838684,121.23663866891835L217.8627387635077,121.23992998887638L218.2473431562359,121.3140848041285L218.612473908826,121.38426000057204L218.79503928512102,121.41926312575305L218.9435257911743,121.44769612554258L219.29648551867803,121.51512438384624L219.3573406441097,121.52673786263352L219.69569514150984,121.59115012051937L220.20931240015318,121.68858820870653L220.5501011025706,121.75300046659237L220.74240329893468,121.7892613014912L220.81786365446996,121.80347780138597L220.84220570464262,121.80806437463545L220.85437672972898,121.81035453262906L220.96878436554053,121.8318795148641L221.09536302643843,121.85566962604362L221.11483666657656,121.85933012447602L221.17082338197372,121.86984232510244L221.2438495324917,121.88355198675269L221.38259921847592,121.90956968330305L221.46292798404576,121.92461214181847L221.67957223058252,121.96515294411519L221.78911145635956,121.98562044902529L221.81101930151493,121.98971269855487L221.82805873663582,121.99289138779189L222.3392417902619,122.08812691965731L223.29101595201337,122.2643564544443L223.3543052824623,122.27601999132979L223.4419366630839,122.29216372800606L223.68292295979333,122.33650894576756L223.83140946584666,122.36378435203572" style="fill: none;" fill="none"></path></g></g></g></g></g></g><g transform="translate(72, 177)" clip-path="url(#clip_1)"><clipPath id="clip_1"><rect width="257" height="23"></rect></clipPath><g><g><line x1="19.862068453984246" y1="0" x2="19.862068453984246" y2="5" style="visibility: inherit;" fill="rgb(0, 0, 0)" stroke="rgb(204, 204, 204)" stroke-width="1px"></line><line x1="44.20411862665528" y1="0" x2="44.20411862665528" y2="5" style="visibility: inherit;" fill="rgb(0, 0, 0)" stroke="rgb(204, 204, 204)" stroke-width="1px"></line><line x1="68.54616879932631" y1="0" x2="68.54616879932631" y2="5" style="visibility: inherit;" fill="rgb(0, 0, 0)" stroke="rgb(204, 204, 204)" stroke-width="1px"></line><line x1="92.88821897199736" y1="0" x2="92.88821897199736" y2="5" style="visibility: inherit;" fill="rgb(0, 0, 0)" stroke="rgb(204, 204, 204)" stroke-width="1px"></line><line x1="117.2302691446684" y1="0" x2="117.2302691446684" y2="5" style="visibility: inherit;" fill="rgb(0, 0, 0)" stroke="rgb(204, 204, 204)" stroke-width="1px"></line><line x1="141.5723193173394" y1="0" x2="141.5723193173394" y2="5" style="visibility: inherit;" fill="rgb(0, 0, 0)" stroke="rgb(204, 204, 204)" stroke-width="1px"></line><line x1="165.91436949001047" y1="0" x2="165.91436949001047" y2="5" style="visibility: inherit;" fill="rgb(0, 0, 0)" stroke="rgb(204, 204, 204)" stroke-width="1px"></line><line x1="190.25641966268148" y1="0" x2="190.25641966268148" y2="5" style="visibility: inherit;" fill="rgb(0, 0, 0)" stroke="rgb(204, 204, 204)" stroke-width="1px"></line><line x1="214.59846983535255" y1="0" x2="214.59846983535255" y2="5" style="visibility: inherit;" fill="rgb(0, 0, 0)" stroke="rgb(204, 204, 204)" stroke-width="1px"></line><line x1="238.94052000802355" y1="0" x2="238.94052000802355" y2="5" style="visibility: inherit;" fill="rgb(0, 0, 0)" stroke="rgb(204, 204, 204)" stroke-width="1px"></line></g><g transform="translate(0, 8)"><text x="19.862068453984246" y="0" dx="0em" dy="0.95em" style="text-anchor: middle; visibility: inherit; font-family: Roboto, sans-serif; font-size: 12px; font-weight: 200;" fill="rgb(255, 255, 255)" stroke="none" stroke-width="1px">-10k</text><text x="44.20411862665528" y="0" dx="0em" dy="0.95em" style="text-anchor: middle; visibility: inherit; font-family: Roboto, sans-serif; font-size: 12px; font-weight: 200;" fill="rgb(255, 255, 255)" stroke="none" stroke-width="1px">0</text><text x="68.54616879932631" y="0" dx="0em" dy="0.95em" style="text-anchor: middle; visibility: inherit; font-family: Roboto, sans-serif; font-size: 12px; font-weight: 200;" fill="rgb(255, 255, 255)" stroke="none" stroke-width="1px">10k</text><text x="92.88821897199736" y="0" dx="0em" dy="0.95em" style="text-anchor: middle; visibility: inherit; font-family: Roboto, sans-serif; font-size: 12px; font-weight: 200;" fill="rgb(255, 255, 255)" stroke="none" stroke-width="1px">20k</text><text x="117.2302691446684" y="0" dx="0em" dy="0.95em" style="text-anchor: middle; visibility: inherit; font-family: Roboto, sans-serif; font-size: 12px; font-weight: 200;" fill="rgb(255, 255, 255)" stroke="none" stroke-width="1px">30k</text><text x="141.5723193173394" y="0" dx="0em" dy="0.95em" style="text-anchor: middle; visibility: inherit; font-family: Roboto, sans-serif; font-size: 12px; font-weight: 200;" fill="rgb(255, 255, 255)" stroke="none" stroke-width="1px">40k</text><text x="165.91436949001047" y="0" dx="0em" dy="0.95em" style="text-anchor: middle; visibility: inherit; font-family: Roboto, sans-serif; font-size: 12px; font-weight: 200;" fill="rgb(255, 255, 255)" stroke="none" stroke-width="1px">50k</text><text x="190.25641966268148" y="0" dx="0em" dy="0.95em" style="text-anchor: middle; visibility: inherit; font-family: Roboto, sans-serif; font-size: 12px; font-weight: 200;" fill="rgb(255, 255, 255)" stroke="none" stroke-width="1px">60k</text><text x="214.59846983535255" y="0" dx="0em" dy="0.95em" style="text-anchor: middle; visibility: inherit; font-family: Roboto, sans-serif; font-size: 12px; font-weight: 200;" fill="rgb(255, 255, 255)" stroke="none" stroke-width="1px">70k</text><text x="238.94052000802355" y="0" dx="0em" dy="0.95em" style="text-anchor: middle; visibility: inherit; font-family: Roboto, sans-serif; font-size: 12px; font-weight: 200;" fill="rgb(255, 255, 255)" stroke="none" stroke-width="1px">80k</text></g><line x1="0" y1="0" x2="257.65625" y2="0" fill="rgb(0, 0, 0)" stroke="rgb(204, 204, 204)" stroke-width="1px"></line></g></g></g></g></svg>