<svg viewBox="0 0 330 200" xmlns="http://www.w3.org/2000/svg"><g><g><g><g><g><line x1="50" y1="176.82432273230856" x2="45" y2="176.82432273230856" style="visibility: inherit;" fill="rgb(0, 0, 0)" stroke="rgb(204, 204, 204)" stroke-width="1px"></line><line x1="50" y1="156.137458785333" x2="45" y2="156.137458785333" style="visibility: inherit;" fill="rgb(0, 0, 0)" stroke="rgb(204, 204, 204)" stroke-width="1px"></line><line x1="50" y1="135.45059483835746" x2="45" y2="135.45059483835746" style="visibility: inherit;" fill="rgb(0, 0, 0)" stroke="rgb(204, 204, 204)" stroke-width="1px"></line><line x1="50" y1="114.76373089138191" x2="45" y2="114.76373089138191" style="visibility: inherit;" fill="rgb(0, 0, 0)" stroke="rgb(204, 204, 204)" stroke-width="1px"></line><line x1="50" y1="94.07686694440635" x2="45" y2="94.07686694440635" style="visibility: inherit;" fill="rgb(0, 0, 0)" stroke="rgb(204, 204, 204)" stroke-width="1px"></line><line x1="50" y1="73.39000299743081" x2="45" y2="73.39000299743081" style="visibility: inherit;" fill="rgb(0, 0, 0)" stroke="rgb(204, 204, 204)" stroke-width="1px"></line><line x1="50" y1="52.703139050455285" x2="45" y2="52.703139050455285" style="visibility: inherit;" fill="rgb(0, 0, 0)" stroke="rgb(204, 204, 204)" stroke-width="1px"></line><line x1="50" y1="32.016275103479714" x2="45" y2="32.016275103479714" style="visibility: inherit;" fill="rgb(0, 0, 0)" stroke="rgb(204, 204, 204)" stroke-width="1px"></line><line x1="50" y1="11.329411156504165" x2="45" y2="11.329411156504165" style="visibility: inherit;" fill="rgb(0, 0, 0)" stroke="rgb(204, 204, 204)" stroke-width="1px"></line></g><g transform="translate(40, 0)"><text x="0" y="176.82432273230856" dx="0em" dy="0.3em" style="text-anchor: end; visibility: hidden; font-family: Roboto, sans-serif; font-size: 12px; font-weight: 200;" fill="rgb(33, 33, 33)" stroke="none" stroke-width="1px">0</text><text x="0" y="156.137458785333" dx="0em" dy="0.3em" style="text-anchor: end; visibility: inherit; font-family: Roboto, sans-serif; font-size: 12px; font-weight: 200;" fill="rgb(33, 33, 33)" stroke="none" stroke-width="1px">1e-4</text><text x="0" y="135.45059483835746" dx="0em" dy="0.3em" style="text-anchor: end; visibility: hidden; font-family: Roboto, sans-serif; font-size: 12px; font-weight: 200;" fill="rgb(33, 33, 33)" stroke="none" stroke-width="1px">2e-4</text><text x="0" y="114.76373089138191" dx="0em" dy="0.3em" style="text-anchor: end; visibility: inherit; font-family: Roboto, sans-serif; font-size: 12px; font-weight: 200;" fill="rgb(33, 33, 33)" stroke="none" stroke-width="1px">3e-4</text><text x="0" y="94.07686694440635" dx="0em" dy="0.3em" style="text-anchor: end; visibility: hidden; font-family: Roboto, sans-serif; font-size: 12px; font-weight: 200;" fill="rgb(33, 33, 33)" stroke="none" stroke-width="1px">4e-4</text><text x="0" y="73.39000299743081" dx="0em" dy="0.3em" style="text-anchor: end; visibility: inherit; font-family: Roboto, sans-serif; font-size: 12px; font-weight: 200;" fill="rgb(33, 33, 33)" stroke="none" stroke-width="1px">5e-4</text><text x="0" y="52.703139050455285" dx="0em" dy="0.3em" style="text-anchor: end; visibility: hidden; font-family: Roboto, sans-serif; font-size: 12px; font-weight: 200;" fill="rgb(33, 33, 33)" stroke="none" stroke-width="1px">6e-4</text><text x="0" y="32.016275103479714" dx="0em" dy="0.3em" style="text-anchor: end; visibility: inherit; font-family: Roboto, sans-serif; font-size: 12px; font-weight: 200;" fill="rgb(33, 33, 33)" stroke="none" stroke-width="1px">7e-4</text><text x="0" y="11.329411156504165" dx="0em" dy="0.3em" style="text-anchor: end; visibility: hidden; font-family: Roboto, sans-serif; font-size: 12px; font-weight: 200;" fill="rgb(33, 33, 33)" stroke="none" stroke-width="1px">8e-4</text></g><line x1="50" y1="0" x2="50" y2="177" fill="rgb(0, 0, 0)" stroke="rgb(204, 204, 204)" stroke-width="1px"></line></g></g><g transform="translate(50, 0)" clip-path="url(#clip_0)"><clipPath id="clip_0"><rect width="280" height="177"></rect></clipPath><g><g><g><line x1="2.9951711346542207" y1="0" x2="2.9951711346542207" y2="177" fill="rgb(0, 0, 0)" stroke="rgb(66, 66, 66)" stroke-width="1px" opacity="0.25"></line><line x1="24.81182614464678" y1="0" x2="24.81182614464678" y2="177" fill="rgb(0, 0, 0)" stroke="rgb(66, 66, 66)" stroke-width="1px" opacity="0.25"></line><line x1="46.62848115463933" y1="0" x2="46.62848115463933" y2="177" fill="rgb(0, 0, 0)" stroke="rgb(66, 66, 66)" stroke-width="1px" opacity="0.25"></line><line x1="68.44513616463189" y1="0" x2="68.44513616463189" y2="177" fill="rgb(0, 0, 0)" stroke="rgb(66, 66, 66)" stroke-width="1px" opacity="0.25"></line><line x1="90.26179117462445" y1="0" x2="90.26179117462445" y2="177" fill="rgb(0, 0, 0)" stroke="rgb(66, 66, 66)" stroke-width="1px" opacity="0.25"></line><line x1="112.07844618461701" y1="0" x2="112.07844618461701" y2="177" fill="rgb(0, 0, 0)" stroke="rgb(66, 66, 66)" stroke-width="1px" opacity="0.25"></line><line x1="133.89510119460957" y1="0" x2="133.89510119460957" y2="177" fill="rgb(0, 0, 0)" stroke="rgb(66, 66, 66)" stroke-width="1px" opacity="0.25"></line><line x1="155.7117562046021" y1="0" x2="155.7117562046021" y2="177" fill="rgb(0, 0, 0)" stroke="rgb(66, 66, 66)" stroke-width="1px" opacity="0.25"></line><line x1="177.52841121459468" y1="0" x2="177.52841121459468" y2="177" fill="rgb(0, 0, 0)" stroke="rgb(66, 66, 66)" stroke-width="1px" opacity="0.25"></line><line x1="199.3450662245872" y1="0" x2="199.3450662245872" y2="177" fill="rgb(0, 0, 0)" stroke="rgb(66, 66, 66)" stroke-width="1px" opacity="0.25"></line><line x1="221.16172123457977" y1="0" x2="221.16172123457977" y2="177" fill="rgb(0, 0, 0)" stroke="rgb(66, 66, 66)" stroke-width="1px" opacity="0.25"></line><line x1="242.97837624457236" y1="0" x2="242.97837624457236" y2="177" fill="rgb(0, 0, 0)" stroke="rgb(66, 66, 66)" stroke-width="1px" opacity="0.25"></line><line x1="264.7950312545649" y1="0" x2="264.7950312545649" y2="177" fill="rgb(0, 0, 0)" stroke="rgb(66, 66, 66)" stroke-width="1px" opacity="0.25"></line></g><g><line x1="0" y1="176.82432273230856" x2="280" y2="176.82432273230856" fill="rgb(0, 0, 0)" stroke="rgb(66, 66, 66)" stroke-width="1px" opacity="0.25"></line><line x1="0" y1="156.137458785333" x2="280" y2="156.137458785333" fill="rgb(0, 0, 0)" stroke="rgb(66, 66, 66)" stroke-width="1px" opacity="0.25"></line><line x1="0" y1="135.45059483835746" x2="280" y2="135.45059483835746" fill="rgb(0, 0, 0)" stroke="rgb(66, 66, 66)" stroke-width="1px" opacity="0.25"></line><line x1="0" y1="114.76373089138191" x2="280" y2="114.76373089138191" fill="rgb(0, 0, 0)" stroke="rgb(66, 66, 66)" stroke-width="1px" opacity="0.25"></line><line x1="0" y1="94.07686694440635" x2="280" y2="94.07686694440635" fill="rgb(0, 0, 0)" stroke="rgb(66, 66, 66)" stroke-width="1px" opacity="0.25"></line><line x1="0" y1="73.39000299743081" x2="280" y2="73.39000299743081" fill="rgb(0, 0, 0)" stroke="rgb(66, 66, 66)" stroke-width="1px" opacity="0.25"></line><line x1="0" y1="52.703139050455285" x2="280" y2="52.703139050455285" fill="rgb(0, 0, 0)" stroke="rgb(66, 66, 66)" stroke-width="1px" opacity="0.25"></line><line x1="0" y1="32.016275103479714" x2="280" y2="32.016275103479714" fill="rgb(0, 0, 0)" stroke="rgb(66, 66, 66)" stroke-width="1px" opacity="0.25"></line><line x1="0" y1="11.329411156504165" x2="280" y2="11.329411156504165" fill="rgb(0, 0, 0)" stroke="rgb(66, 66, 66)" stroke-width="1px" opacity="0.25"></line></g></g></g><g><g><line x1="0" y1="176.82432273230856" x2="280" y2="176.82432273230856" fill="rgb(0, 0, 0)" stroke="rgb(153, 153, 153)" stroke-width="1.5px"></line></g></g><g><g><line x1="68.44513616463189" y1="0" x2="68.44513616463189" y2="177" fill="rgb(0, 0, 0)" stroke="rgb(153, 153, 153)" stroke-width="1.5px"></line></g></g><g><g><g><g><g><path stroke="rgb(255, 112, 67)" stroke-width="2px" d="M68.49204197290338,176.08304342510814L68.62839606671582,173.9281617400076L68.6960276972468,172.85934026239224L68.96328172111922,168.63577228189004L69.0309133516502,167.56695061612874L69.07781915992167,166.8256714500378L69.08545498917518,166.70499841245336L69.13781496119915,165.8775235744446L69.15199578695565,165.6534161821091L69.22508158123912,164.49839959701376L69.3276198597861,162.87792879183036L69.55233140638902,159.3266818594591L69.90030705379839,153.827424632569L69.95703035682438,152.930995063227L69.96466618607786,152.81032127305883L70.01266282709986,152.05180267155083L70.33773098674875,146.9145653099977L70.34100348500024,146.8628477563303L70.4937200700702,144.44938098397222L70.53735338009018,143.75981560863005L70.66716247739964,141.70837171194384L70.96277815278502,137.03658781789505L71.052226438326,135.62298271187893L71.15694638237397,133.96803303586142L71.15803721512447,133.95079585819556L71.37511293247388,130.5202242211599L71.76017689340026,124.43483823142988L71.96961678149619,121.12493887939488L71.98707010550419,120.84911393339199L72.05142923778367,119.83201207904926L72.39285988869004,114.43618544399165L72.39504155419104,114.4017050679901L72.44958319171603,113.53975587464963L72.61429893704147,110.9366590756227L72.76156135835892,108.60938722259868L73.15535198128929,102.38609177020211L73.24589109958076,100.95524346585032L73.34624771262672,99.3692545418359L73.36479186938521,99.07619241816712L73.54696093871866,96.19727067313728L73.86875660011604,91.1117433394143L74.04656233844749,88.30177632571774L74.2767280488029,84.66434049468225L74.2919997073099,84.42299592468086L74.68906282849176,78.14798291861689L74.84287024631222,75.71726391691845L74.88977605458369,74.97599904991829L74.98031517287517,73.54515074556649L75.20939005048008,69.92494607152705L75.23011587273959,69.59740959252653L75.7537155929794,61.32266121243905L75.7668055859854,61.1157909977694L75.92279466930684,58.65061570274866L76.0449679373628,56.71983506005843L76.25113532720724,53.461653261690856L76.58383931610962,48.20374210996959L76.58711181436111,48.15202455630217L76.95254078577848,42.37693786790683L76.99071993204598,41.77358246357321L77.2448839629124,37.75688055853015L77.36923889646934,35.7916255605082L77.41396303923983,35.08482300750015L77.71612371112823,30.309600995781615L77.72703203863323,30.137217177783334L76.99071993204598,41.77358246357321L77.05289739882446,40.790948943892424L77.40741804273684,35.188258114834966L77.63431125484075,31.602539837466875L77.72812287138372,30.11997397944766L77.74230369714022,29.895860566442337L77.88520278745567,27.637543444751614L78.64987654555591,15.552975415630348L78.73714316559588,14.173856706285587L78.78404897386737,13.432567756606165L78.87676975765983,11.967257138262253L79.06548382349627,8.984906306567408L79.19856541905722,6.881729804539271L79.20183791730872,6.830012250871878L79.2683787150892,5.778442061867241L79.32728368361619,4.8475260958538655L79.41673196915715,4.931562605061047L79.885790051872,8.492174689321669L79.92287836538897,8.764357130089577L80.05268746269844,9.70671236874185L80.1334090862354,10.284793001213329L80.36248396384033,11.893178816920722L80.36793812759282,11.930892292610197L80.57519635018777,13.345677449909077L80.7126412767507,14.264070422717767L81.35296010129397,18.347409101217256L81.52422084312244,19.388394952696014L81.55367332738592,19.565366521089473L82.13835968165372,22.95938667170898L82.16344883491522,23.10014993186545L82.37070705751015,24.24841207801776L82.81903931796549,26.646721814129293L82.89867010875196,27.060992062411856L82.94666674977394,27.309043658581505L83.06556751957841,27.918251153970395L83.27391657492385,28.968039224711287L83.30664155743882,29.130910384409848L83.42772399274428,29.728919433952257L83.53026227129125,30.229694666064052L84.18476192159102,33.309977712887445L84.50219425198641,34.73562415852344L84.88616738016228,36.404638119216976L85.1097880940147,37.34996756875535L85.69447444828252,39.73416485483238L85.92245849313693,40.63123261517424L85.95627430840243,40.762796291861115L86.19625751351234,41.68566864300841L86.22025583402332,41.77691791464791L86.44278571512524,42.61440512655059L86.45805737363224,42.67131249759417L87.07328704491404,44.905233865215024L87.7986908239963,47.40111457626649L87.85650495977276,47.59399275429781L88.25138641545364,48.88872575558642L88.3702871852581,49.27102624717818L88.38555884376508,49.31987796201606L88.46955296555356,49.58756898310575L88.75753281168546,50.49274056501179L88.82080111121444,50.68902644215556L88.83061860596894,50.719406742016524L89.02915016655987,51.3290236429525L89.03787682856387,51.3556109208332L89.11532595384934,51.59089869700577L89.2429533856578,51.97573991125733L89.35094582795725,52.29861639182494L89.39348830522675,52.425122705871466L89.61274568807718,53.07106832844062L89.61601818632867,53.08064119343843L89.69564897711514,53.3127139319325L89.94108634597755,54.01985364244992L90.01089964200953,54.21877657297043L90.10689292405351,54.49074226962517L90.20179537334697,54.757843265073475L90.42432525444889,55.377358147176984L90.77884589836128,56.34512061242721L91.21190650030962,57.49647738286185L91.3046272841021,57.738725053334704L91.33517060111608,57.81819789482594L92.1860201465058,59.970189987673095L92.19692847401079,59.99703013368582L92.24492511503277,60.11489076588526L92.34746339357974,60.36549512605431L92.42927584986721,60.56428560183902L92.50127081140018,60.738391331402944L92.62453491220666,61.03466849275025L92.7663431697716,61.372729102578546L92.77834233002709,61.40119482943994L92.80015898503709,61.45290034176774L93.05868634690549,62.060397966930594L93.28667039175993,62.58824213050791L93.43393281307736,62.92533943316661L93.43611447857836,62.93031250642962L93.47756612309735,63.02465640235145L93.80372511549675,63.75886504433436L93.9106267250457,63.99642863369509L93.91935338704971,64.015754983785L94.10915828563664,64.433685799312L94.14515576640312,64.51241207774682L94.4931314138125,65.2651282587255L94.64366633338145,65.58610220763317L95.10290692134178,66.54843402871485L95.14108606760928,66.62730480322509L95.22180769114625,66.7935354966776L95.63850580183711,67.63982492784244L96.17737718058393,68.70582064171168L96.17846801333444,68.7079399174848L96.23737298186141,68.82258551200572L96.24282714561392,68.83318189087123L96.62025527728679,69.55892547110136L96.72715688683574,69.76184612637567L96.76533603310324,69.83403395739688L96.96932175744666,70.21728571481863L97.06858753774212,70.40230089807817L97.63800223350293,71.44530969461307L97.75253967230539,71.65142130488664L98.21832525676874,72.47734883075424L98.24668690828172,72.52701935668627L98.3186818698147,72.65276706633675L98.47030762213416,72.91613524650289L98.53793925266513,73.032960323495L98.76483246476904,73.42204008929276L98.78228578877703,73.45179423949351L98.917549049839,73.68148279274284L99.15535058944792,74.08159242563241L99.34733715353585,74.40124182718188L99.37569880504884,74.44821509303905L99.5316878883703,74.7053940246406L99.69858529919672,74.9784314005215L99.85457438251818,75.23163669004846L100.00947263308913,75.48122957768946L100.11201091163608,75.64542528474621L100.12728257014308,75.6698210388161L100.87559383698583,76.84366501099086L100.91595464875431,76.90582842677851L101.19193533463073,77.32775696705933L101.39264856072265,77.63128301485779L101.45373519475064,77.72311629146884L101.5279118217846,77.83427591816982L101.74935087013604,78.16391963160382L101.99806073724994,78.53025330685959L102.1147798415534,78.70077673788661L102.24022560786086,78.88305853705245L102.35476304666332,79.04860889481644L102.49875296972928,79.255545336854L102.50747963173328,79.26803822670962L102.65146955479922,79.47358991469089L102.81182196912268,79.70096051006338L103.02344352271959,79.99862242546696L103.05398683973358,80.04136316044774L103.41832497840046,80.54681043233208L103.43141497140645,80.56481825573361L103.45214079366595,80.59331408594409L103.47068495042444,80.61879356057976L103.52958991895142,80.69959094942918L103.56995073071991,80.75483661560523L103.61031154248839,80.8099859510643L103.74448397079985,80.99262899041872L104.10009544746273,81.47172379054493L104.27790118579416,81.70858898220771L104.35862280933114,81.81555220205117L104.55933603542307,82.07993185474537L105.15929404819786,82.85724849256748L105.18220153595836,82.88654507186267L105.20729068921985,82.91861115927043L105.32291896077281,83.06593694951974L105.42109390831777,83.19049256654783L105.6370787929167,83.46276531736288L105.72216374745568,83.56937933835734L105.83561035350765,83.71095538893816L105.59126381739571,83.40520771397983L105.81924786225015,83.6905814423013L105.85088201201462,83.72996866419795L106.2370368056915,84.20679969247563L106.26976178820648,84.24687929140042L106.38757172526046,84.39071309315996L106.47811084355192,84.50080104063477L106.5402883103304,84.57617982665525L106.86208397172778,84.96333899878363L107.17515297112118,85.33536220700981L107.47513197750858,85.68762557691977L107.59730524556453,85.82994216988719L108.21144408409583,86.5353238448201L108.22889740810382,86.55512582782501L108.51796808698623,86.88129561477867L108.64886801704617,87.02784473862248L108.80267543486663,87.19912075337574L109.146287751274,87.57823631063803L109.58916584797686,88.05986581275424L109.67534163526632,88.15268045854431L109.78115241206478,88.26624233249946L109.81496822733028,88.30244462006665L109.93605066263574,88.43170238021632L110.23712050177363,88.75067144607728L110.45965038287555,88.98422526934459L110.637456121207,89.16949934140595L110.641819452209,89.17403892644266L110.67781693297549,89.21139718261334L110.69963358798549,89.23401683908932L110.77926437877194,89.31643980878742L111.04870006814537,89.59358930214852L111.27122994924729,89.82051436795507L111.30068243351077,89.85041301423126L111.37704072604575,89.92779066262865L111.59302561064466,90.14555828965429L111.61047893465266,90.16307843880122L112.24207109719195,90.79021548888413L112.58677424634983,91.12679501393917L112.60640923585882,91.14585645455745L112.83548411346374,91.36720638012L113.75178362388343,92.2357783102514L113.8488677386779,92.32626897749485L113.88377438669389,92.35872038777045L113.96231434472986,92.43163069916885L113.99176682899336,92.45892239541733L113.99613015999535,92.4629622648598L114.06485262327682,92.52652849671318L114.26992918037077,92.71536078463222L114.35719580041074,92.79533936238752L114.49573155972419,92.92182159375479L114.50336738897768,92.92878148805508L114.55136402999966,92.97246144752621L114.60917816577614,93.02498577094818L115.16768453403195,93.52734443921999L115.3291277811059,93.67088322815886L115.35312610161688,93.69215425459736L115.36294359637138,93.70086014314255L115.42075773214786,93.75201777451763L115.56802015346531,93.88192576700678L115.73273589879076,94.02651215249256L116.45268551412052,94.64969964318013L116.4701388381285,94.6646309043088L116.55631462541798,94.73824563407496L116.65012624196095,94.81815798446232L117.52497410786164,95.55232448175659L117.83477060900354,95.80761292303777L117.89258474478002,95.85498957377222L117.92640056004552,95.88266057221871L117.9656705390635,95.91476278364534L118.00821301633299,95.94949000710909L118.15874793590194,96.07202869975086L118.22965206468442,96.12955619978484L118.25474121794589,96.14988198106322L118.37036948949886,96.24336492120221L118.48490692830133,96.33563168603958L118.5350852348243,96.37596415309639L118.8568808962217,96.63313104335829L119.20812904188257,96.91105720312488L119.67500545909641,97.27603020700363L119.76118124638589,97.34284760055435L119.89862617294884,97.449076298681L120.47567669796314,97.89046364378754L120.53021833548812,97.9318015627026L120.6316657812846,98.0085169374209L120.64911910529258,98.02170220430467L120.68184408780756,98.04638695052543L120.76147487859404,98.10635884250229L121.15526550152441,98.4009622576424L121.36252372411934,98.55468801989967L121.53705696419928,98.68344606445514L121.70613604052673,98.80757421392673L121.80758348632318,98.88176692799463L122.43044898685848,99.33271509675937L122.60061889593642,99.4545553917032L122.65188803520991,99.49115504347783L122.96932036560528,99.71659300384133L123.03586116338577,99.76360239371736L123.20712190521421,99.88419038934072L123.39474513830015,100.01565773531063L123.63909167441207,100.18586809150752L123.67508915517855,100.21084785054896L123.84198656600499,100.3263423595131L123.85834905726249,100.33763713607658L124.25213968019284,100.60797123121282L124.51175787481176,100.78463574544597L124.51939370406525,100.78981352148251L124.52375703506726,100.79277569102902L124.52812036606926,100.79572581923588L124.6819277838897,100.89977503489133L124.72992442491169,100.93214817645938L124.91100266149463,101.05393428537491L124.95027264051262,101.08026267445379L124.96663513177012,101.0912323348475L124.75392274542268,100.94832571623868L125.24479748314751,101.27689775044652L125.37133408220546,101.36091619764427L125.51314233977043,101.4547362952926L125.5622298135429,101.48712749887011L125.79239552389834,101.63846305521282L125.90802379545129,101.71414287472383L126.1741869865732,101.88748999989168L126.1829136485772,101.89316147085266L126.35962855415812,102.00756623858118L126.4174426899346,102.04488235006322L127.0403081904699,102.44339048478335L127.22574975805485,102.56081762875647L127.24102141656182,102.570462741792L127.3359238658553,102.63031422037264L127.53118292819472,102.75300945042946L127.56718040896124,102.77556287953752L127.76243947130065,102.89754164988695L128.08968929645053,103.10062486324614L128.09623429295354,103.10467075335843L128.29149335529297,103.225029963529L128.59256319443088,103.40946114181698L129.17615871594816,103.76304905908512L129.33432946477063,103.85800706332752L129.46086606382858,103.93371096551776L129.55358684762103,103.9890288797315L129.63867180216002,104.03968077484257L129.6681242864235,104.05718888264987L129.686668443182,104.06821272907187L130.2331756511823,104.39068582476224L130.28444479045578,104.42071692577423L130.41643555326624,104.49785976804903L130.64332876537017,104.62990509832069L130.67605374788516,104.64888224956162L131.23128761788948,104.96872431254505L131.23783261439246,104.97247518983664L131.26183093490346,104.98620231700332L131.36000588244843,105.0422728149433L131.55417411203737,105.15278220930483L132.35048201990207,105.60072606383439L132.42793114518756,105.6438461010132L132.6046460507685,105.74194087422659L132.70936599481647,105.79987777980769L132.8686275763894,105.88771935233473L133.36931980886874,106.16178024208332L133.4565864289087,106.20922312018568L133.78056375580712,106.38451492170219L133.81437957107258,106.40273948921687L134.17108188048599,106.59408841711648L134.33470679306092,106.6813520053418L134.54851001215883,106.79487775527808L134.44051756985937,106.73759710270627L134.53214752090133,106.78620799075176L134.7044990954803,106.87736093167429L134.91612064907721,106.98879148851674L135.05029307738866,107.05916709792514L135.17028467994362,107.12192053935416L135.3088204392571,107.19416857707348L135.62079860589998,107.35604030558363L135.63170693340496,107.36168769386535L135.8127851699879,107.45510440663642L136.03313338558883,107.56827493705391L136.4214698447667,107.76637905648026L136.47273898404018,107.79240641206866L136.64509055861913,107.8796880623034L136.67890637388462,107.89678074389384L136.80980630394455,107.96279738835986L136.85562127946554,107.98586257440176L136.92761624099853,108.0220467999595L137.14360112559746,108.13029242247246L137.2984993761684,108.20760384350196L137.57011673104282,108.34255113662199L138.10353394603712,108.60525704310906L138.27915801886758,108.69108771191961L138.30970133588156,108.70598886969921L138.35878880965404,108.72990297018431L138.81584773211338,108.95139739182228L139.7136030857746,109.38024970238455L139.73323807528357,109.38953357523145L139.83904885208204,109.43952319666342L139.8946813223575,109.46576729636497L140.07030539518794,109.54839496883663L140.44009769760734,109.72139289515552L140.5044568298868,109.75136981013921L140.70407922322823,109.84408210454255L140.71935088173524,109.85116241223902L141.01387572437014,109.9872054672645L141.03678321213064,109.99775368077151L141.30185557050203,110.11943141763047L141.3880313577915,110.15884272220636L141.51565878959997,110.21708668194773L142.11234430412324,110.48739067373494L142.2410625686822,110.54526737261793L142.32396585772017,110.58246307070375L142.60649154009957,110.70876468197675L142.69484899289006,110.7481097591847L143.16608874110588,110.95680423680675L143.30353366766883,111.01729992705705L143.33189531918183,111.02976271356364L143.45843191823977,111.08527930988114L143.62642016181672,111.1587676055813L143.6875067958447,111.18542713149974L143.74313926612018,111.20967838949417L143.76713758663118,111.22013027228422L143.80313506739768,111.23580207579951L143.83040588616018,111.24766881599491L144.11402240129007,111.37067712088185L144.11620406679106,111.37162236604203L144.22746900734202,111.41969139380461L144.23074150559353,111.42110023054013L144.0507541017611,111.34329511458623L144.23074150559353,111.42110023054013L144.39436641816846,111.49159023267494L144.5427196722364,111.55530698127356L144.72816123982136,111.63468951271766L144.8797869921408,111.69937558915571L145.39356921762612,111.91716127819078L145.39902338137864,111.91946117405816L145.4502925206521,111.94106935800605L145.51574248568207,111.96862596372614L145.5408316389436,111.97918019790298L145.82772065232496,112.09949726338488L146.6065752361817,112.42278314949958L146.90110007881663,112.54378055067001L147.2261682384655,112.67653631997923L147.24580322797448,112.68452574881704L147.33306984801447,112.72001157667684L147.7268604709448,112.87941483056487L147.91339287128028,112.95450462443449L148.04320196858973,113.00660750096975L148.27554934444615,113.09954256015602L148.33118181472162,113.12174076974529L148.48826173079357,113.18427746706115L148.53953087006707,113.204651413698L148.6671583018755,113.25527320546L148.79369490093345,113.3053531369391L148.80133073018695,113.30836949251389L149.11221806407937,113.43088410247641L149.47437453724524,113.57270700051943L149.87907348768059,113.73006924734192L150.1343283512975,113.82872394284763L150.21395914208398,113.85940527619911L150.27613660886246,113.88333141802381L150.83246131161727,114.09619821982416L150.90663793865124,114.12441709922336L150.99063206043974,114.15632664921606L151.0059037189467,114.16211853357323L151.0484461962162,114.17825994933368L151.0833528442322,114.19149338157594L151.53386677018852,114.36152311767853L151.72912583252798,114.43478864859574L152.14146061221683,114.58865890692844L152.2025472462448,114.61135683211194L152.20691057724682,114.6129824129606L152.27781470602926,114.63929274003007L152.34871883481176,114.66557898442028L152.59415620367417,114.75628639577688L152.61160952768216,114.7627285124735L152.7686894437541,114.82055704599802L152.7970510952671,114.83097882543903L152.83741190703557,114.84580773518093L153.25520085047697,114.99865447964595L153.27592667273643,115.00621042025742L153.3871916132874,115.04671146606888L153.6751714594193,115.15116406660162L153.79843556022576,115.19571702319519L153.49518405558686,115.0859421505505L153.9566063090482,115.25273878696515L154.8118191854399,115.55834196584804L154.8489074989569,115.57149110871296L154.93508328624637,115.60201590464938L155.1816114878593,115.68908081077096L155.23833479088526,115.70906341387017L155.39105137595521,115.76276176790503L155.65612373432663,115.8556245790536L155.93101358745255,115.9514856837675L156.10663766028296,116.01249313095165L156.37061918590388,116.10385077464775L156.40552583391988,116.11589813493742L156.63678237702578,116.19555159652298L156.84622226512172,116.26741431137444L156.93894304891418,116.29914324127287L157.08293297198014,116.34832609295029L157.30328118758106,116.4233556801218L157.33818783559707,116.43521639964739L157.37854864736553,116.44892546480462L157.4658152674055,116.4785230775903L157.63053101273096,116.53427448003035L157.8356075698249,116.60347003815603L157.86942338509036,116.61485512476663L157.90542086585685,116.62697473309406L158.0297757994138,116.66876420224487L158.0984982626953,116.69182938828676L158.38756894157768,116.78853940744386L159.22314682846041,117.06547817736164L159.2373276542169,117.07015021713414L159.31586761225287,117.09597889061881L159.47185669557433,117.14717264601273L159.89182730451668,117.28436564897191L159.95400477129516,117.30459509953333L160.06963304284812,117.34216407914738L160.1405371716306,117.36516905849118L160.18962464540306,117.38107566812903L160.3674303837345,117.43859112682341L160.7034068708884,117.54682470799676L161.2891840579067,117.73412172511426L161.44299147572715,117.78300354330119L161.93059371520047,117.93718085579422L162.02331449899296,117.96636304236303L162.04076782300095,117.97184787255988L162.4574659336918,118.1024181387281L162.47601009045027,118.10821002308528L162.61781834801525,118.15243786350912L162.70617580080574,118.17994028320093L162.7738074313367,118.20097048284704L162.9941556469376,118.26932314719933L163.22650302279405,118.34113769669233L163.6137486492214,118.46024460754244L163.63556530423142,118.46693357170129L163.8602768508343,118.53568962093084L164.2137066619962,118.64334521780242L164.2355233170062,118.64997397526318L164.2387958152577,118.650961365112L164.33151659905016,118.67910197580368L164.33478909730164,118.6800893656525L164.72639805473105,118.79845573411599L164.75475970624402,118.8070050852461L165.41907685129829,119.00606649117225L165.48343598357778,119.02524232451692L165.85213745324666,119.13473422568052L165.9579482300451,119.16604170869223L166.22847475216903,119.24585772836265L166.69753283488384,119.38346013686889L167.2200417223732,119.53559042162654L167.3902116314511,119.58487562469074L167.660738153575,119.66296371212569L167.7774572578785,119.69655904966517L167.95853549446144,119.74855957481365L168.09707125377489,119.7882478302008L168.2465153405933,119.83096448250235L168.30760197462132,119.84840034227194L168.3425086226373,119.85835853013758L168.41995774792278,119.88042428499102L168.83447419311264,119.99811031776598L168.93155830790707,120.02556457209931L168.9566474611686,120.03265692113543L169.31553143608298,120.13377407059342L169.57078629969985,120.20536585530344L169.64169042848235,120.22520998299701L170.0976585181912,120.3522882606755L170.24819343776014,120.39405364714706L170.32455173029513,120.4152102808592L170.40091002283012,120.43633079055249L170.53180995289006,120.4724969541008L170.57980659391202,120.48574242768268L170.72815984797998,120.52661073435259L170.88742142955292,120.5703930452105L170.94632639807992,120.58655854365018L171.0335930181199,120.6104846854749L171.15358462067482,120.64332743928813L171.32048203150129,120.68892197175882L171.40011282228775,120.71063250709348L171.6095527103837,120.7676241675144L171.68591100291866,120.78835333367003L171.73936180769311,120.80285712724219L172.31968483095892,120.95956312105538L171.8462634172421,120.831816549028L171.96189168879505,120.86309994936047L171.96407335429606,120.86368997500185L172.25859819693096,120.94312669247424L172.6949312971308,121.06019259625877L173.0025461327717,121.14229044978714L173.0276352860332,121.14896737260638L173.20435019161414,121.19594665913337L173.3210692959176,121.2269109639659L173.3854284281971,121.24396150086766L173.47269504823703,121.2670567902586L173.55450750452454,121.28868303621591L173.64504662281598,121.31258509536138L173.73122241010546,121.3353071032241L173.84139651790593,121.36432071103823L173.86321317291592,121.37005840936709L173.9461164619539,121.39184721340928L174.00829392873237,121.40817526993385L174.02029308898784,121.41132408024444L174.4828061751997,121.53230944007525L174.50462283020968,121.53799295237584L174.90168595139156,121.64119325358809L175.12203416699248,121.69821501735804L175.15694081500845,121.70723398073333L175.21584578353543,121.72243617200344L175.31402073108043,121.74775308855425L175.52673311742785,121.80248699779645L175.56054893269334,121.81117482433218L175.62054473397083,121.82656967703622L175.65872388023828,121.836365306817L175.6696322077433,121.83915889760881L175.8823445940907,121.89362187670955L176.1615977782186,121.96487048324042L176.2215935794961,121.98013890187843L176.69065166221094,122.09909529598329L177.04953563712533,122.18959198389653L177.1128039366543,122.20549859353441L177.51641205433916,122.30665186701127L177.62985866039114,122.33497911846702L177.6451303188981,122.33879020245672L177.6658561411576,122.34396195782345L177.7105802839281,122.35511223831149L177.7258519424351,122.35891730163135L177.7422144336926,122.36299329509269L177.7563952594491,122.36652742827113L177.79893773671859,122.37711778646681L177.94074599428353,122.41238687021347L178.12836922736946,122.45895073052357L178.31271996220391,122.5045753663433L178.5047065262918,122.55197609975701L178.6050631393378,122.57670299066643L178.68360309737375,122.59602934075636L178.69887475588078,122.59978623871775L179.15920617659162,122.71263165296553L179.22138364337007,122.727821802896L179.35555607168152,122.76055016398286L179.54754263576947,122.80728260304763L179.65662591081943,122.83377957088119L179.76898168412092,122.86103514311078L180.13331982278777,122.94912356310006L180.854360270868,123.12218771678688L180.897993580888,123.1326094962279L180.9339910616545,123.14120099204668L181.13470428774642,123.18902919301686L181.26560421780638,123.22015605593428L181.41504830462483,123.25561780111484L182.13063458895257,123.42447952727431L182.1317254217031,123.42473841607612L182.1949937212321,123.43958538782745L182.24953535875704,123.4523853318434L182.24408119500455,123.45110292917389L182.50806272062547,123.51290510477293L182.47533773811048,123.5052528334445L182.27135201376703,123.45749688051202L182.30734949453355,123.46593183891578L182.51897104813045,123.51545184810256L182.26480701726402,123.4559616097105L182.38261695431802,123.48356036011927L182.421886933336,123.49275392291908L182.44261275559546,123.49760056211606L182.54733269964345,123.52208060556329L183.04584326662177,123.63813503681976L183.09056740939226,123.6485146715721L183.18656069143623,123.67075502585001L182.27571534476903,123.45852039437973L182.44261275559546,123.49760056211606L182.64878014543993,123.54575387925598L182.6793234624539,123.55288235231096L183.2847356389812,123.69348305438255L182.3248028185415,123.47002589438654L182.367345295811,123.47998408225217L182.5844210131604,123.53073832874999L182.27898784302053,123.45928501944559L182.34661947355153,123.47513142238536L182.51242605162744,123.51392259797083L182.43606775909248,123.49607131198434L182.49279106211847,123.50932882690583L182.6749601314519,123.55185883844328L182.6836867934559,123.55389382483902L183.06875075438225,123.64344526759211L183.36982059352016,123.71315258265165L183.42763472929667,123.7265064282901L183.817062021225,123.81620236711862L183.830152014231,123.81920066068398L184.09958770360444,123.88098477427361L184.10722353285792,123.8827307685185L184.22285180441088,123.90917355032376L184.3984758772413,123.94925916991836L184.4966508247863,123.97163197893212L184.85008063594816,124.05192965218734L185.0366130362836,124.09415863023426L185.09006384105808,124.10624211454281L185.1315154855771,124.11561027676709L185.16860379909406,124.12397900780292L185.21005544361304,124.13333512868755L185.25259792088252,124.14293207636462L185.37913451994046,124.17144596858451L185.46421947447948,124.1905916985801L185.47949113298645,124.1940234803718L185.49803528974493,124.19818978388028L185.6158452267989,124.22465664836479L186.13944494703873,124.34178877951722L186.34670316963366,124.38793721361043L186.4732397686916,124.41605374162287L186.71322297380155,124.46925238006351L186.74485712356602,124.47625441905247L187.24773102154634,124.58716117762144L187.52807503842473,124.64869242307904L187.55970918818926,124.65561619336049L187.6262499859697,124.67018621430054L187.9578631421216,124.74259078943491L188.14112304420553,124.78247170625599L188.69635691420987,124.90275866838883L189.03669673236573,124.97607838533432L189.65083557089702,125.10759991733251L190.0195370405659,125.18607934830514L190.0206278733164,125.18631415442773L190.17225362563585,125.21848259322225L190.20497860815084,125.2254184048433L190.2497027509213,125.23489493912413L190.37623934997927,125.26166885776895L190.72094249913715,125.33439854907307L190.76675747465814,125.34404366210862L191.12455061682203,125.41916957999707L191.15836643208752,125.42624988769356L191.4779804279839,125.49305523990469L191.57942787378036,125.51420585294703L191.59251786678638,125.51693321637093L191.70705530558882,125.5407750688183L192.0659392805032,125.61526881637674L192.30810415111412,125.66535476852565L192.3342841371261,125.67076133001497L192.3702816178926,125.67819083656043L192.84697552986094,125.77627958910404L192.9189704913939,125.79104227147802L192.9495138084079,125.79730376808034L193.31494277982526,125.87202028042174L193.5636526469392,125.92269023754223L193.5669251451907,125.92335251122131L193.57892430544618,125.92579690316416L193.62692094646818,125.93555640892606L193.8723583153306,125.98536541026374L194.141794004704,126.03988859606257L195.40061499878055,126.292287115835L195.66568735715197,126.34495894566729L195.9362138792759,126.39854591731067L195.99402801505235,126.40997314860994L196.11292878485682,126.43345376086873L196.25800954067327,126.46206097347067L196.4587227667652,126.50155957775881L196.59834935882915,126.5289837287431L196.65616349460564,126.54032064999522L196.70197847012662,126.54930348935164L196.82087923993106,126.5725914401765L196.8285150691846,126.57408456628937L196.86342171720057,126.58091802652366L196.89832836521657,126.58774546608812L196.96486916299705,126.60075312321253L196.98450415250605,126.60458527954653L197.22012402661395,126.65055309354547L197.4295639147099,126.69130399715405L197.54301052076184,126.71333663832355L197.6106421512928,126.72645567783941L197.80044704987975,126.76322390836873L198.02734026198365,126.80706943625965L198.34804509063056,126.86885053951438L198.39167840065056,126.87723733255963L198.5356683237165,126.90488424832688L198.63166160576046,126.9232954566057L198.64475159876648,126.92580607591643L198.65347826077044,126.92747380145379L198.7363815498084,126.94335331807751L198.78328735807992,126.95232712642924L198.92182311739336,126.97881205292316L199.0876296954693,127.01045669344424L199.19780380326978,127.03144775873659L199.3570653848427,127.06174376922023L199.4596036633897,127.08121762572048L199.62431940871514,127.11245888136429L200.04647168315847,127.19225683902526L200.2897273865199,127.23806209493931L200.35517735154988,127.25036834403083L200.9060478905522,127.35355660390344L200.91804705080767,127.35579629307274L201.1122152803966,127.39201363231446L201.1373044336581,127.39668567208697L201.1711202489236,127.40298028237326L201.32601849949452,127.43179520808367L201.34129015800156,127.43463094356414L201.67726664515544,127.49694487609706L201.86270821274036,127.53123861133449L202.12450807286027,127.57953040388003L202.14196139686828,127.58274544155856L202.44084957050518,127.63769609491388L202.56302283856112,127.66010201761159L202.75719106815006,127.69565106250441L202.79209771616604,127.70203899317275L202.870637674202,127.71638624932984L203.1542541893319,127.76811283400197L203.31460660365536,127.79727996889625L203.71712388858975,127.8702805903418L203.7313047143462,127.87284539568084L203.8240254981387,127.88960995076661L203.95928875920063,127.91403881852047L203.98437791246212,127.91856636221755L203.98983207621464,127.91954773139655L204.01164873122462,127.92348524945227L203.7956638466257,127.88448937109327L203.8589321461547,127.89591961272744L204.13927616303306,127.94648420812624L204.50688679995147,128.01256105929036L204.58433592523693,128.026447734207L204.6694208797759,128.0416920701658L205.01303319618327,128.1030998918923L205.0184873599358,128.1040692197317L205.0348498511933,128.10698924458953L205.39482465885814,128.17105519203713L205.42973130687415,128.17725648194136L205.64462535872258,128.2153673218383L205.8955168913375,128.2597516996772L205.98605600962895,128.2757425986924L206.00678183188845,128.27939714526704L206.1191376051899,128.29921116961157L206.18131507196838,128.31016577833074L206.4234799425793,128.3527590069012L206.63073816517422,128.38912084221835L206.94489799731812,128.44408654724822L206.97544131433213,128.44942086069983L207.06925293087508,128.46578805157816L207.48486020881543,128.53812037867482L207.50885852932643,128.54228668218332L207.83283585622485,128.59842641782612L207.9910066050473,128.62576928976796L208.04118491157024,128.63443002328955L208.61496293833304,128.73316298750282L208.65859624835304,128.74064668007657L208.66732291035703,128.74214582685926L208.69132123086803,128.74625794433945L208.70222955837303,128.74812435198055L208.785132847411,128.7623301223971L208.82222116092797,128.7686789187117L208.91712361022147,128.7849166651891L208.95093942548692,128.79069650820662L209.46035831997028,128.87753864954527L209.6534357168087,128.9103272173302L209.7210673473397,128.92179358298324L209.9752313782061,128.9648293307847L209.9817763747091,128.96593713402973L210.66354684377137,129.0807874313242L210.70281682278934,129.0873740440963L210.80862759958782,129.1051199683611L211.03770247719274,129.14346561438063L211.03879330994323,129.14364623447491L211.36495230234263,129.19808513089643L211.64311465372,129.24436601972545L211.79692207154048,129.26989667005452L212.11762690018736,129.32300198811313L212.2877968092653,129.35110647478592L212.44378589258673,129.37682677621402L212.5375975091297,129.39227581494632L212.54850583663472,129.3940699745497L212.70231325445516,129.41936280842125L212.75140072822765,129.42742448529677L212.77867154699015,129.43190386363537L212.91611647355307,129.4544542824085L212.99247476608807,129.46696523427357L213.1768255009225,129.49713782102612L213.25209296070696,129.50943804944782L213.31645209298645,129.519950138936L213.4462611902959,129.54112784499245L213.58152445135786,129.56316349649683L214.0778533528352,129.64376822391236L214.44000982600107,129.70232525848385L214.45200898625657,129.70426090382776L214.54800226830054,129.71974004590913L214.59054474557,129.72659758882264L214.63526888834048,129.73380433058514L214.78907630616095,129.75855530417383L215.2035927513508,129.82507166423406L215.29849520064428,129.84025880382964L215.62247252754267,129.8920034505112L216.27697217784242,129.99601052147798L216.3424221428724,130.00637209422086L216.35333047037741,130.00810002645633L216.48968456418987,130.02966004504574L217.11364089747565,130.1279625313676L217.25108582403863,130.14953760163152L217.3590782663381,130.16646170446725L217.50743152040602,130.18968643825912L217.64051311596697,130.21049086278737L217.70378141549594,130.22037078194552L217.7790488752804,130.23211710874472L217.78341220628243,130.2327944340983L217.8935863140829,130.24997441540097L217.98739793062586,130.2645835706948L218.00376042188336,130.26713332435932L218.61789926041465,130.3624284861111L218.74116336122108,130.38148390605957L218.88078995328505,130.40304392464898L218.89715244454254,130.40556658529934L218.97351073707753,130.4173400051127L219.1022290016365,130.43717209146664L219.15786147191196,130.44573348393638L219.23312893169643,130.457308221646L219.23749226269842,130.45797952632978L219.8123611222117,130.54611009100773L219.83308694447123,130.54927696332777L219.9203535645112,130.5626097366219L220.05343516007215,130.58291745589082L220.1679725988746,130.60037739833967L220.36323166121403,130.63008940385174L220.37850331972106,130.63241037206348L220.41777329873904,130.63838287651492L220.4624974415095,130.64517419206052L220.56503572005647,130.66074063385415L220.61848652483096,130.66884746575326L220.63593984883894,130.67149656046962L220.72429730162943,130.68488653012693L220.81483641992088,130.69859860561908L220.90973886921435,130.71295790311578L220.92937385872335,130.7159260933321L221.07663628004082,130.73817246827983L221.22498953410877,130.76055430829828L221.64714180855213,130.82406334378848L221.68750262032057,130.83012013761726L221.978754964704,130.87376698340447L222.2034665113069,130.90735931060905L222.2438273230754,130.9133829907539L222.03765993323097,130.88258124400622L222.11074572751446,130.89350574937635L222.17728652529493,130.90344888556746L222.28746063309538,130.91989434515332L222.5699863154748,130.96199086846445L222.63979961150676,130.97237050321678L221.8947608429155,130.86119281450638L222.05074992623696,130.88453495135954L221.9951174559615,130.8762143856822L222.2143748388119,130.9089879017926L222.2994597933509,130.9216824840869L222.3092772881054,130.9231485171856L222.64525377525928,130.97318028330625L222.79360702932723,130.99521894514552L222.80996952058473,130.99765129574877L223.06740604970264,131.035816321674L223.1350376802336,131.04582568523298L223.08267770820962,131.0380740728527L223.17321682650112,131.05147307351473L223.45683334163098,131.0933679043872L223.64663824021792,131.12133993632423L223.72626903100442,131.13306218044417L223.7524490170164,131.13690938845272L223.80262732353938,131.14429072963972L223.88553061257733,131.15647355500013L223.90625643483685,131.15951700358906L223.9782513963698,131.17008929977533L224.15387546920024,131.19583970455244L224.25314124949574,131.21037962214348L224.3055012215197,131.2180409244766L224.27604873725622,131.2137301248927L224.47894362884912,131.2433969753812L224.60766189340808,131.26218447552313L224.6556585344301,131.26918350417716L224.68183852044208,131.27300060883667L224.73201682696504,131.28031572265576L225.2654340419594,131.3578408774635L225.4192414597798,131.38011735576026L225.4486939440433,131.38437998998572L225.5883205361073,131.40457331652826" style="fill: none;" fill="none"></path></g></g></g></g></g></g><g transform="translate(50, 177)" clip-path="url(#clip_1)"><clipPath id="clip_1"><rect width="280" height="23"></rect></clipPath><g><g><line x1="2.9951711346542207" y1="0" x2="2.9951711346542207" y2="5" style="visibility: inherit;" fill="rgb(0, 0, 0)" stroke="rgb(204, 204, 204)" stroke-width="1px"></line><line x1="24.81182614464678" y1="0" x2="24.81182614464678" y2="5" style="visibility: inherit;" fill="rgb(0, 0, 0)" stroke="rgb(204, 204, 204)" stroke-width="1px"></line><line x1="46.62848115463933" y1="0" x2="46.62848115463933" y2="5" style="visibility: inherit;" fill="rgb(0, 0, 0)" stroke="rgb(204, 204, 204)" stroke-width="1px"></line><line x1="68.44513616463189" y1="0" x2="68.44513616463189" y2="5" style="visibility: inherit;" fill="rgb(0, 0, 0)" stroke="rgb(204, 204, 204)" stroke-width="1px"></line><line x1="90.26179117462445" y1="0" x2="90.26179117462445" y2="5" style="visibility: inherit;" fill="rgb(0, 0, 0)" stroke="rgb(204, 204, 204)" stroke-width="1px"></line><line x1="112.07844618461701" y1="0" x2="112.07844618461701" y2="5" style="visibility: inherit;" fill="rgb(0, 0, 0)" stroke="rgb(204, 204, 204)" stroke-width="1px"></line><line x1="133.89510119460957" y1="0" x2="133.89510119460957" y2="5" style="visibility: inherit;" fill="rgb(0, 0, 0)" stroke="rgb(204, 204, 204)" stroke-width="1px"></line><line x1="155.7117562046021" y1="0" x2="155.7117562046021" y2="5" style="visibility: inherit;" fill="rgb(0, 0, 0)" stroke="rgb(204, 204, 204)" stroke-width="1px"></line><line x1="177.52841121459468" y1="0" x2="177.52841121459468" y2="5" style="visibility: inherit;" fill="rgb(0, 0, 0)" stroke="rgb(204, 204, 204)" stroke-width="1px"></line><line x1="199.3450662245872" y1="0" x2="199.3450662245872" y2="5" style="visibility: inherit;" fill="rgb(0, 0, 0)" stroke="rgb(204, 204, 204)" stroke-width="1px"></line><line x1="221.16172123457977" y1="0" x2="221.16172123457977" y2="5" style="visibility: inherit;" fill="rgb(0, 0, 0)" stroke="rgb(204, 204, 204)" stroke-width="1px"></line><line x1="242.97837624457236" y1="0" x2="242.97837624457236" y2="5" style="visibility: inherit;" fill="rgb(0, 0, 0)" stroke="rgb(204, 204, 204)" stroke-width="1px"></line><line x1="264.7950312545649" y1="0" x2="264.7950312545649" y2="5" style="visibility: inherit;" fill="rgb(0, 0, 0)" stroke="rgb(204, 204, 204)" stroke-width="1px"></line></g><g transform="translate(0, 8)"><text x="2.9951711346542207" y="0" dx="0em" dy="0.95em" style="text-anchor: middle; visibility: hidden; font-family: Roboto, sans-serif; font-size: 12px; font-weight: 200;" fill="rgb(33, 33, 33)" stroke="none" stroke-width="1px">-60k</text><text x="24.81182614464678" y="0" dx="0em" dy="0.95em" style="text-anchor: middle; visibility: inherit; font-family: Roboto, sans-serif; font-size: 12px; font-weight: 200;" fill="rgb(33, 33, 33)" stroke="none" stroke-width="1px">-40k</text><text x="46.62848115463933" y="0" dx="0em" dy="0.95em" style="text-anchor: middle; visibility: hidden; font-family: Roboto, sans-serif; font-size: 12px; font-weight: 200;" fill="rgb(33, 33, 33)" stroke="none" stroke-width="1px">-20k</text><text x="68.44513616463189" y="0" dx="0em" dy="0.95em" style="text-anchor: middle; visibility: inherit; font-family: Roboto, sans-serif; font-size: 12px; font-weight: 200;" fill="rgb(33, 33, 33)" stroke="none" stroke-width="1px">0</text><text x="90.26179117462445" y="0" dx="0em" dy="0.95em" style="text-anchor: middle; visibility: hidden; font-family: Roboto, sans-serif; font-size: 12px; font-weight: 200;" fill="rgb(33, 33, 33)" stroke="none" stroke-width="1px">20k</text><text x="112.07844618461701" y="0" dx="0em" dy="0.95em" style="text-anchor: middle; visibility: inherit; font-family: Roboto, sans-serif; font-size: 12px; font-weight: 200;" fill="rgb(33, 33, 33)" stroke="none" stroke-width="1px">40k</text><text x="133.89510119460957" y="0" dx="0em" dy="0.95em" style="text-anchor: middle; visibility: hidden; font-family: Roboto, sans-serif; font-size: 12px; font-weight: 200;" fill="rgb(33, 33, 33)" stroke="none" stroke-width="1px">60k</text><text x="155.7117562046021" y="0" dx="0em" dy="0.95em" style="text-anchor: middle; visibility: inherit; font-family: Roboto, sans-serif; font-size: 12px; font-weight: 200;" fill="rgb(33, 33, 33)" stroke="none" stroke-width="1px">80k</text><text x="177.52841121459468" y="0" dx="0em" dy="0.95em" style="text-anchor: middle; visibility: hidden; font-family: Roboto, sans-serif; font-size: 12px; font-weight: 200;" fill="rgb(33, 33, 33)" stroke="none" stroke-width="1px">100k</text><text x="199.3450662245872" y="0" dx="0em" dy="0.95em" style="text-anchor: middle; visibility: inherit; font-family: Roboto, sans-serif; font-size: 12px; font-weight: 200;" fill="rgb(33, 33, 33)" stroke="none" stroke-width="1px">120k</text><text x="221.16172123457977" y="0" dx="0em" dy="0.95em" style="text-anchor: middle; visibility: hidden; font-family: Roboto, sans-serif; font-size: 12px; font-weight: 200;" fill="rgb(33, 33, 33)" stroke="none" stroke-width="1px">140k</text><text x="242.97837624457236" y="0" dx="0em" dy="0.95em" style="text-anchor: middle; visibility: inherit; font-family: Roboto, sans-serif; font-size: 12px; font-weight: 200;" fill="rgb(33, 33, 33)" stroke="none" stroke-width="1px">160k</text><text x="264.7950312545649" y="0" dx="0em" dy="0.95em" style="text-anchor: middle; visibility: hidden; font-family: Roboto, sans-serif; font-size: 12px; font-weight: 200;" fill="rgb(33, 33, 33)" stroke="none" stroke-width="1px">180k</text></g><line x1="0" y1="0" x2="280" y2="0" fill="rgb(0, 0, 0)" stroke="rgb(204, 204, 204)" stroke-width="1px"></line></g></g></g></g></svg>