<svg viewBox="0 0 330 200" xmlns="http://www.w3.org/2000/svg"><g><g><g><g><g><line x1="30.78125" y1="157.33333333333627" x2="25.78125" y2="157.33333333333627" style="visibility: inherit;" fill="rgb(0, 0, 0)" stroke="rgb(204, 204, 204)" stroke-width="1px"></line><line x1="30.78125" y1="137.66666666666936" x2="25.78125" y2="137.66666666666936" style="visibility: inherit;" fill="rgb(0, 0, 0)" stroke="rgb(204, 204, 204)" stroke-width="1px"></line><line x1="30.78125" y1="118.00000000000244" x2="25.78125" y2="118.00000000000244" style="visibility: inherit;" fill="rgb(0, 0, 0)" stroke="rgb(204, 204, 204)" stroke-width="1px"></line><line x1="30.78125" y1="98.33333333333555" x2="25.78125" y2="98.33333333333555" style="visibility: inherit;" fill="rgb(0, 0, 0)" stroke="rgb(204, 204, 204)" stroke-width="1px"></line><line x1="30.78125" y1="78.6666666666686" x2="25.78125" y2="78.6666666666686" style="visibility: inherit;" fill="rgb(0, 0, 0)" stroke="rgb(204, 204, 204)" stroke-width="1px"></line><line x1="30.78125" y1="59.0000000000017" x2="25.78125" y2="59.0000000000017" style="visibility: inherit;" fill="rgb(0, 0, 0)" stroke="rgb(204, 204, 204)" stroke-width="1px"></line><line x1="30.78125" y1="39.333333333334785" x2="25.78125" y2="39.333333333334785" style="visibility: inherit;" fill="rgb(0, 0, 0)" stroke="rgb(204, 204, 204)" stroke-width="1px"></line><line x1="30.78125" y1="19.666666666667876" x2="25.78125" y2="19.666666666667876" style="visibility: inherit;" fill="rgb(0, 0, 0)" stroke="rgb(204, 204, 204)" stroke-width="1px"></line><line x1="30.78125" y1="9.43245481721533e-13" x2="25.78125" y2="9.43245481721533e-13" style="visibility: inherit;" fill="rgb(0, 0, 0)" stroke="rgb(204, 204, 204)" stroke-width="1px"></line></g><g transform="translate(20.78125, 0)"><text x="0" y="157.33333333333627" dx="0em" dy="0.3em" style="text-anchor: end; visibility: inherit; font-family: Roboto, sans-serif; font-size: 12px; font-weight: 200;" fill="rgb(255, 255, 255)" stroke="none" stroke-width="1px">10</text><text x="0" y="137.66666666666936" dx="0em" dy="0.3em" style="text-anchor: end; visibility: hidden; font-family: Roboto, sans-serif; font-size: 12px; font-weight: 200;" fill="rgb(255, 255, 255)" stroke="none" stroke-width="1px">20</text><text x="0" y="118.00000000000244" dx="0em" dy="0.3em" style="text-anchor: end; visibility: inherit; font-family: Roboto, sans-serif; font-size: 12px; font-weight: 200;" fill="rgb(255, 255, 255)" stroke="none" stroke-width="1px">30</text><text x="0" y="98.33333333333555" dx="0em" dy="0.3em" style="text-anchor: end; visibility: hidden; font-family: Roboto, sans-serif; font-size: 12px; font-weight: 200;" fill="rgb(255, 255, 255)" stroke="none" stroke-width="1px">40</text><text x="0" y="78.6666666666686" dx="0em" dy="0.3em" style="text-anchor: end; visibility: inherit; font-family: Roboto, sans-serif; font-size: 12px; font-weight: 200;" fill="rgb(255, 255, 255)" stroke="none" stroke-width="1px">50</text><text x="0" y="59.0000000000017" dx="0em" dy="0.3em" style="text-anchor: end; visibility: hidden; font-family: Roboto, sans-serif; font-size: 12px; font-weight: 200;" fill="rgb(255, 255, 255)" stroke="none" stroke-width="1px">60</text><text x="0" y="39.333333333334785" dx="0em" dy="0.3em" style="text-anchor: end; visibility: inherit; font-family: Roboto, sans-serif; font-size: 12px; font-weight: 200;" fill="rgb(255, 255, 255)" stroke="none" stroke-width="1px">70</text><text x="0" y="19.666666666667876" dx="0em" dy="0.3em" style="text-anchor: end; visibility: hidden; font-family: Roboto, sans-serif; font-size: 12px; font-weight: 200;" fill="rgb(255, 255, 255)" stroke="none" stroke-width="1px">80</text><text x="0" y="9.43245481721533e-13" dx="0em" dy="0.3em" style="text-anchor: end; visibility: hidden; font-family: Roboto, sans-serif; font-size: 12px; font-weight: 200;" fill="rgb(255, 255, 255)" stroke="none" stroke-width="1px">90</text></g><line x1="30.78125" y1="0" x2="30.78125" y2="177" fill="rgb(0, 0, 0)" stroke="rgb(204, 204, 204)" stroke-width="1px"></line></g></g><g transform="translate(30, 0)" clip-path="url(#clip_0)"><clipPath id="clip_0"><rect width="299" height="177"></rect></clipPath><g><g><g><line x1="0.0760879614531337" y1="0" x2="0.0760879614531337" y2="177" fill="rgb(0, 0, 0)" stroke="rgb(189, 189, 189)" stroke-width="1px" opacity="0.25"></line><line x1="37.47843171145249" y1="0" x2="37.47843171145249" y2="177" fill="rgb(0, 0, 0)" stroke="rgb(189, 189, 189)" stroke-width="1px" opacity="0.25"></line><line x1="74.88077546145183" y1="0" x2="74.88077546145183" y2="177" fill="rgb(0, 0, 0)" stroke="rgb(189, 189, 189)" stroke-width="1px" opacity="0.25"></line><line x1="112.28311921145121" y1="0" x2="112.28311921145121" y2="177" fill="rgb(0, 0, 0)" stroke="rgb(189, 189, 189)" stroke-width="1px" opacity="0.25"></line><line x1="149.68546296145058" y1="0" x2="149.68546296145058" y2="177" fill="rgb(0, 0, 0)" stroke="rgb(189, 189, 189)" stroke-width="1px" opacity="0.25"></line><line x1="187.0878067114499" y1="0" x2="187.0878067114499" y2="177" fill="rgb(0, 0, 0)" stroke="rgb(189, 189, 189)" stroke-width="1px" opacity="0.25"></line><line x1="224.49015046144928" y1="0" x2="224.49015046144928" y2="177" fill="rgb(0, 0, 0)" stroke="rgb(189, 189, 189)" stroke-width="1px" opacity="0.25"></line><line x1="261.89249421144865" y1="0" x2="261.89249421144865" y2="177" fill="rgb(0, 0, 0)" stroke="rgb(189, 189, 189)" stroke-width="1px" opacity="0.25"></line></g><g><line x1="0" y1="157.33333333333627" x2="299.21875" y2="157.33333333333627" fill="rgb(0, 0, 0)" stroke="rgb(189, 189, 189)" stroke-width="1px" opacity="0.25"></line><line x1="0" y1="137.66666666666936" x2="299.21875" y2="137.66666666666936" fill="rgb(0, 0, 0)" stroke="rgb(189, 189, 189)" stroke-width="1px" opacity="0.25"></line><line x1="0" y1="118.00000000000244" x2="299.21875" y2="118.00000000000244" fill="rgb(0, 0, 0)" stroke="rgb(189, 189, 189)" stroke-width="1px" opacity="0.25"></line><line x1="0" y1="98.33333333333555" x2="299.21875" y2="98.33333333333555" fill="rgb(0, 0, 0)" stroke="rgb(189, 189, 189)" stroke-width="1px" opacity="0.25"></line><line x1="0" y1="78.6666666666686" x2="299.21875" y2="78.6666666666686" fill="rgb(0, 0, 0)" stroke="rgb(189, 189, 189)" stroke-width="1px" opacity="0.25"></line><line x1="0" y1="59.0000000000017" x2="299.21875" y2="59.0000000000017" fill="rgb(0, 0, 0)" stroke="rgb(189, 189, 189)" stroke-width="1px" opacity="0.25"></line><line x1="0" y1="39.333333333334785" x2="299.21875" y2="39.333333333334785" fill="rgb(0, 0, 0)" stroke="rgb(189, 189, 189)" stroke-width="1px" opacity="0.25"></line><line x1="0" y1="19.666666666667876" x2="299.21875" y2="19.666666666667876" fill="rgb(0, 0, 0)" stroke="rgb(189, 189, 189)" stroke-width="1px" opacity="0.25"></line><line x1="0" y1="9.43245481721533e-13" x2="299.21875" y2="9.43245481721533e-13" fill="rgb(0, 0, 0)" stroke="rgb(189, 189, 189)" stroke-width="1px" opacity="0.25"></line></g></g></g><g><g><line x1="0" y1="177.00000000000318" x2="299.21875" y2="177.00000000000318" fill="rgb(0, 0, 0)" stroke="rgb(153, 153, 153)" stroke-width="1.5px"></line></g></g><g><g><line x1="37.47843171145249" y1="0" x2="37.47843171145249" y2="177" fill="rgb(0, 0, 0)" stroke="rgb(153, 153, 153)" stroke-width="1.5px"></line></g></g><g><g><g><g><g><path stroke="rgb(0, 119, 187)" stroke-width="2px" d="M41.21866608645242,-19.698701222736926L44.95890046145236,95.05885403951224L48.699134836452295,121.96669203440598L52.43936921145224,134.80684356689721L56.17960358645216,141.4904523213732L59.9198379614521,146.48206822077714L63.66007233645204,148.53237733841226L67.40030671145198,149.79072958628623L71.1405410864519,152.19136883418054L74.88077546145183,92.87319704691782L78.62100983645178,154.0797815322905L82.36124421145172,155.74873689016L86.10147858645165,156.46332880656217L89.84171296145159,157.42393035888966L93.58194733645152,158.19132677714325L97.32218171145146,158.8529003779123L101.06241608645139,159.18093948364555L104.80265046145134,158.77184244791962L108.54288483645126,159.05716381073293L112.28311921145121,159.79549280802706L116.02335358645112,159.86327740351658L119.76358796145108,160.28478876749972L123.50382233645102,159.77198829651175L127.24405671145095,158.56029809316294L130.9842910864509,159.96392742793063L134.72452546145084,160.9177056948374L138.46475983645075,161.09644651413262L142.2049942114507,160.72630484899182L145.94522858645064,161.38941734632155L149.68546296145058,161.12770458857517L153.4256973364505,161.10810499191584L157.16593171145044,161.67998746236466L160.90616608645038,161.73709449768367L164.64640046145033,161.91346367200518L168.38663483645024,161.83770701090796L172.12686921145018,161.50343260765376L175.86710358645013,162.12911643982235L179.60733796145004,161.64156662623387L183.34757233644999,162.23269608815812L187.0878067114499,162.2495658079813L190.82804108644987,162.35072317123715L194.5682754614498,162.08483823140764L198.30850983644973,162.6171276410451L202.04874421144967,162.35658148130082L205.78897858644962,162.57925634384458L209.52921296144953,159.56185436249078L213.26944733644947,162.37276099523208L217.00968171144942,162.72746774355872L220.74991608644936,162.55493127505287L224.49015046144928,162.82243107160235L228.2303848364492,162.89405024846695L231.97061921144916,162.5600824991892L235.71085358644908,162.29806590080563L239.45108796144902,161.30503123601576L243.19132233644896,162.7330794175496L246.9315567114489,162.88575558662717L250.67179108644882,162.7124220053385L254.41202546144876,162.70150062243445L258.1522598364487,162.98033536275528L261.89249421144865,162.58392086029355L265.6327285864486,163.14817261696163L269.3729629614485,163.0944819132517L273.1131973364484,162.69925839106543L276.85343171144837,162.84199690819088L280.5936660864483,163.0823442300191L284.33390046144825,163.04700306256913" style="fill: none;" fill="none"></path></g><g><path stroke="rgb(255, 112, 67)" stroke-width="2px" d="M48.699134836452295,-22.520277913410776L52.43936921145224,11.55410664876412L56.17960358645216,31.589598337810596L59.9198379614521,44.14303309122872L63.66007233645204,52.562809753419586L67.40030671145198,42.11076685587714L71.1405410864519,59.37463925679694L74.88077546145183,-88.09388885498062L78.62100983645178,62.00370852152679L82.36124421145172,73.97325159708848L86.10147858645165,78.63643264770701L89.84171296145159,81.54453264872431L93.58194733645152,83.42117996216021L97.32218171145146,86.02127558390504L101.06241608645139,87.31669451395877L104.80265046145134,76.14914817810251L108.54288483645126,78.64961407979524L112.28311921145121,81.44843648274937L116.02335358645112,83.22546157837114L119.76358796145108,84.54385986328326L123.50382233645102,84.68250872294311L127.24405671145095,82.4045066833516L130.9842910864509,77.50466753641957L134.72452546145084,86.82095413208212L138.46475983645075,87.93687451680707L142.2049942114507,88.7540557861349L145.94522858645064,90.38081105550339L149.68546296145058,87.67680193583377L153.4256973364505,89.07812245687055L157.16593171145044,91.44563369751187L160.90616608645038,92.91748275757048L164.64640046145033,93.64082603454801L168.38663483645024,92.95557912190966L172.12686921145018,92.1291250864686L175.86710358645013,88.7930449167908L179.60733796145004,94.49023691813366L183.34757233644999,95.2484055837017L187.0878067114499,96.15238774617731L190.82804108644987,96.24341239929414L194.5682754614498,96.81824137370008L198.30850983644973,96.32433904012261L202.04874421144967,97.55862973531306L205.78897858644962,97.64378763834853L209.52921296144953,88.04416402181195L213.26944733644947,90.81574579874884L217.00968171144942,98.53336550394914L220.74991608644936,98.97084350586158L224.49015046144928,98.70141563415748L228.2303848364492,98.98171424865942L231.97061921144916,99.19709599813046L235.71085358644908,96.08464253743705L239.45108796144902,88.1796619415304L243.19132233644896,92.91738522847706L246.9315567114489,99.02425944010638L250.67179108644882,95.71032587687391L254.41202546144876,94.0103112538677L258.1522598364487,96.70287195841689L261.89249421144865,99.7809876759869L265.6327285864486,99.31122004191302L269.3729629614485,100.80279248555723L273.1131973364484,84.2808314005554L276.85343171144837,98.73126703898332L280.5936660864483,100.78826065063699L284.33390046144825,101.55749511718973" style="fill: none;" fill="none"></path></g></g></g></g></g></g><g transform="translate(30, 177)" clip-path="url(#clip_1)"><clipPath id="clip_1"><rect width="299" height="23"></rect></clipPath><g><g><line x1="0.0760879614531337" y1="0" x2="0.0760879614531337" y2="5" style="visibility: inherit;" fill="rgb(0, 0, 0)" stroke="rgb(204, 204, 204)" stroke-width="1px"></line><line x1="37.47843171145249" y1="0" x2="37.47843171145249" y2="5" style="visibility: inherit;" fill="rgb(0, 0, 0)" stroke="rgb(204, 204, 204)" stroke-width="1px"></line><line x1="74.88077546145183" y1="0" x2="74.88077546145183" y2="5" style="visibility: inherit;" fill="rgb(0, 0, 0)" stroke="rgb(204, 204, 204)" stroke-width="1px"></line><line x1="112.28311921145121" y1="0" x2="112.28311921145121" y2="5" style="visibility: inherit;" fill="rgb(0, 0, 0)" stroke="rgb(204, 204, 204)" stroke-width="1px"></line><line x1="149.68546296145058" y1="0" x2="149.68546296145058" y2="5" style="visibility: inherit;" fill="rgb(0, 0, 0)" stroke="rgb(204, 204, 204)" stroke-width="1px"></line><line x1="187.0878067114499" y1="0" x2="187.0878067114499" y2="5" style="visibility: inherit;" fill="rgb(0, 0, 0)" stroke="rgb(204, 204, 204)" stroke-width="1px"></line><line x1="224.49015046144928" y1="0" x2="224.49015046144928" y2="5" style="visibility: inherit;" fill="rgb(0, 0, 0)" stroke="rgb(204, 204, 204)" stroke-width="1px"></line><line x1="261.89249421144865" y1="0" x2="261.89249421144865" y2="5" style="visibility: inherit;" fill="rgb(0, 0, 0)" stroke="rgb(204, 204, 204)" stroke-width="1px"></line></g><g transform="translate(0, 8)"><text x="0.0760879614531337" y="0" dx="0em" dy="0.95em" style="text-anchor: middle; visibility: hidden; font-family: Roboto, sans-serif; font-size: 12px; font-weight: 200;" fill="rgb(255, 255, 255)" stroke="none" stroke-width="1px">-10</text><text x="37.47843171145249" y="0" dx="0em" dy="0.95em" style="text-anchor: middle; visibility: inherit; font-family: Roboto, sans-serif; font-size: 12px; font-weight: 200;" fill="rgb(255, 255, 255)" stroke="none" stroke-width="1px">0</text><text x="74.88077546145183" y="0" dx="0em" dy="0.95em" style="text-anchor: middle; visibility: inherit; font-family: Roboto, sans-serif; font-size: 12px; font-weight: 200;" fill="rgb(255, 255, 255)" stroke="none" stroke-width="1px">10</text><text x="112.28311921145121" y="0" dx="0em" dy="0.95em" style="text-anchor: middle; visibility: inherit; font-family: Roboto, sans-serif; font-size: 12px; font-weight: 200;" fill="rgb(255, 255, 255)" stroke="none" stroke-width="1px">20</text><text x="149.68546296145058" y="0" dx="0em" dy="0.95em" style="text-anchor: middle; visibility: inherit; font-family: Roboto, sans-serif; font-size: 12px; font-weight: 200;" fill="rgb(255, 255, 255)" stroke="none" stroke-width="1px">30</text><text x="187.0878067114499" y="0" dx="0em" dy="0.95em" style="text-anchor: middle; visibility: inherit; font-family: Roboto, sans-serif; font-size: 12px; font-weight: 200;" fill="rgb(255, 255, 255)" stroke="none" stroke-width="1px">40</text><text x="224.49015046144928" y="0" dx="0em" dy="0.95em" style="text-anchor: middle; visibility: inherit; font-family: Roboto, sans-serif; font-size: 12px; font-weight: 200;" fill="rgb(255, 255, 255)" stroke="none" stroke-width="1px">50</text><text x="261.89249421144865" y="0" dx="0em" dy="0.95em" style="text-anchor: middle; visibility: inherit; font-family: Roboto, sans-serif; font-size: 12px; font-weight: 200;" fill="rgb(255, 255, 255)" stroke="none" stroke-width="1px">60</text></g><line x1="0" y1="0" x2="299.21875" y2="0" fill="rgb(0, 0, 0)" stroke="rgb(204, 204, 204)" stroke-width="1px"></line></g></g></g></g></svg>