<svg viewBox="0 0 330 200" xmlns="http://www.w3.org/2000/svg"><g><g><g><g><g><line x1="72.34375" y1="169.78256760595914" x2="67.34375" y2="169.78256760595914" style="visibility: inherit;" fill="rgb(0, 0, 0)" stroke="rgb(204, 204, 204)" stroke-width="1px"></line><line x1="72.34375" y1="151.19618725450593" x2="67.34375" y2="151.19618725450593" style="visibility: inherit;" fill="rgb(0, 0, 0)" stroke="rgb(204, 204, 204)" stroke-width="1px"></line><line x1="72.34375" y1="132.6098069030527" x2="67.34375" y2="132.6098069030527" style="visibility: inherit;" fill="rgb(0, 0, 0)" stroke="rgb(204, 204, 204)" stroke-width="1px"></line><line x1="72.34375" y1="114.02342655159948" x2="67.34375" y2="114.02342655159948" style="visibility: inherit;" fill="rgb(0, 0, 0)" stroke="rgb(204, 204, 204)" stroke-width="1px"></line><line x1="72.34375" y1="95.43704620014624" x2="67.34375" y2="95.43704620014624" style="visibility: inherit;" fill="rgb(0, 0, 0)" stroke="rgb(204, 204, 204)" stroke-width="1px"></line><line x1="72.34375" y1="76.85066584869303" x2="67.34375" y2="76.85066584869303" style="visibility: inherit;" fill="rgb(0, 0, 0)" stroke="rgb(204, 204, 204)" stroke-width="1px"></line><line x1="72.34375" y1="58.264285497239804" x2="67.34375" y2="58.264285497239804" style="visibility: inherit;" fill="rgb(0, 0, 0)" stroke="rgb(204, 204, 204)" stroke-width="1px"></line><line x1="72.34375" y1="39.67790514578658" x2="67.34375" y2="39.67790514578658" style="visibility: inherit;" fill="rgb(0, 0, 0)" stroke="rgb(204, 204, 204)" stroke-width="1px"></line><line x1="72.34375" y1="21.09152479433334" x2="67.34375" y2="21.09152479433334" style="visibility: inherit;" fill="rgb(0, 0, 0)" stroke="rgb(204, 204, 204)" stroke-width="1px"></line><line x1="72.34375" y1="2.5051444428801375" x2="67.34375" y2="2.5051444428801375" style="visibility: inherit;" fill="rgb(0, 0, 0)" stroke="rgb(204, 204, 204)" stroke-width="1px"></line></g><g transform="translate(62.34375, 0)"><text x="0" y="169.78256760595914" dx="0em" dy="0.3em" style="text-anchor: end; visibility: inherit; font-family: Roboto, sans-serif; font-size: 12px; font-weight: 200;" fill="rgb(33, 33, 33)" stroke="none" stroke-width="1px">0</text><text x="0" y="151.19618725450593" dx="0em" dy="0.3em" style="text-anchor: end; visibility: hidden; font-family: Roboto, sans-serif; font-size: 12px; font-weight: 200;" fill="rgb(33, 33, 33)" stroke="none" stroke-width="1px">2e-4</text><text x="0" y="132.6098069030527" dx="0em" dy="0.3em" style="text-anchor: end; visibility: inherit; font-family: Roboto, sans-serif; font-size: 12px; font-weight: 200;" fill="rgb(33, 33, 33)" stroke="none" stroke-width="1px">4e-4</text><text x="0" y="114.02342655159948" dx="0em" dy="0.3em" style="text-anchor: end; visibility: hidden; font-family: Roboto, sans-serif; font-size: 12px; font-weight: 200;" fill="rgb(33, 33, 33)" stroke="none" stroke-width="1px">6e-4</text><text x="0" y="95.43704620014624" dx="0em" dy="0.3em" style="text-anchor: end; visibility: inherit; font-family: Roboto, sans-serif; font-size: 12px; font-weight: 200;" fill="rgb(33, 33, 33)" stroke="none" stroke-width="1px">8e-4</text><text x="0" y="76.85066584869303" dx="0em" dy="0.3em" style="text-anchor: end; visibility: hidden; font-family: Roboto, sans-serif; font-size: 12px; font-weight: 200;" fill="rgb(33, 33, 33)" stroke="none" stroke-width="1px">1e-3</text><text x="0" y="58.264285497239804" dx="0em" dy="0.3em" style="text-anchor: end; visibility: inherit; font-family: Roboto, sans-serif; font-size: 12px; font-weight: 200;" fill="rgb(33, 33, 33)" stroke="none" stroke-width="1px">1.2e-3</text><text x="0" y="39.67790514578658" dx="0em" dy="0.3em" style="text-anchor: end; visibility: hidden; font-family: Roboto, sans-serif; font-size: 12px; font-weight: 200;" fill="rgb(33, 33, 33)" stroke="none" stroke-width="1px">1.4e-3</text><text x="0" y="21.09152479433334" dx="0em" dy="0.3em" style="text-anchor: end; visibility: inherit; font-family: Roboto, sans-serif; font-size: 12px; font-weight: 200;" fill="rgb(33, 33, 33)" stroke="none" stroke-width="1px">1.6e-3</text><text x="0" y="2.5051444428801375" dx="0em" dy="0.3em" style="text-anchor: end; visibility: hidden; font-family: Roboto, sans-serif; font-size: 12px; font-weight: 200;" fill="rgb(33, 33, 33)" stroke="none" stroke-width="1px">1.8e-3</text></g><line x1="72.34375" y1="0" x2="72.34375" y2="177" fill="rgb(0, 0, 0)" stroke="rgb(204, 204, 204)" stroke-width="1px"></line></g></g><g transform="translate(72, 0)" clip-path="url(#clip_0)"><clipPath id="clip_0"><rect width="257" height="177"></rect></clipPath><g><g><g><line x1="5.641023616818295" y1="0" x2="5.641023616818295" y2="177" fill="rgb(0, 0, 0)" stroke="rgb(66, 66, 66)" stroke-width="1px" opacity="0.25"></line><line x1="24.24196559659193" y1="0" x2="24.24196559659193" y2="177" fill="rgb(0, 0, 0)" stroke="rgb(66, 66, 66)" stroke-width="1px" opacity="0.25"></line><line x1="42.84290757636556" y1="0" x2="42.84290757636556" y2="177" fill="rgb(0, 0, 0)" stroke="rgb(66, 66, 66)" stroke-width="1px" opacity="0.25"></line><line x1="61.4438495561392" y1="0" x2="61.4438495561392" y2="177" fill="rgb(0, 0, 0)" stroke="rgb(66, 66, 66)" stroke-width="1px" opacity="0.25"></line><line x1="80.04479153591284" y1="0" x2="80.04479153591284" y2="177" fill="rgb(0, 0, 0)" stroke="rgb(66, 66, 66)" stroke-width="1px" opacity="0.25"></line><line x1="98.64573351568647" y1="0" x2="98.64573351568647" y2="177" fill="rgb(0, 0, 0)" stroke="rgb(66, 66, 66)" stroke-width="1px" opacity="0.25"></line><line x1="117.24667549546011" y1="0" x2="117.24667549546011" y2="177" fill="rgb(0, 0, 0)" stroke="rgb(66, 66, 66)" stroke-width="1px" opacity="0.25"></line><line x1="135.84761747523376" y1="0" x2="135.84761747523376" y2="177" fill="rgb(0, 0, 0)" stroke="rgb(66, 66, 66)" stroke-width="1px" opacity="0.25"></line><line x1="154.4485594550074" y1="0" x2="154.4485594550074" y2="177" fill="rgb(0, 0, 0)" stroke="rgb(66, 66, 66)" stroke-width="1px" opacity="0.25"></line><line x1="173.049501434781" y1="0" x2="173.049501434781" y2="177" fill="rgb(0, 0, 0)" stroke="rgb(66, 66, 66)" stroke-width="1px" opacity="0.25"></line><line x1="191.65044341455464" y1="0" x2="191.65044341455464" y2="177" fill="rgb(0, 0, 0)" stroke="rgb(66, 66, 66)" stroke-width="1px" opacity="0.25"></line><line x1="210.25138539432828" y1="0" x2="210.25138539432828" y2="177" fill="rgb(0, 0, 0)" stroke="rgb(66, 66, 66)" stroke-width="1px" opacity="0.25"></line><line x1="228.85232737410195" y1="0" x2="228.85232737410195" y2="177" fill="rgb(0, 0, 0)" stroke="rgb(66, 66, 66)" stroke-width="1px" opacity="0.25"></line><line x1="247.4532693538756" y1="0" x2="247.4532693538756" y2="177" fill="rgb(0, 0, 0)" stroke="rgb(66, 66, 66)" stroke-width="1px" opacity="0.25"></line></g><g><line x1="0" y1="169.78256760595914" x2="257.65625" y2="169.78256760595914" fill="rgb(0, 0, 0)" stroke="rgb(66, 66, 66)" stroke-width="1px" opacity="0.25"></line><line x1="0" y1="151.19618725450593" x2="257.65625" y2="151.19618725450593" fill="rgb(0, 0, 0)" stroke="rgb(66, 66, 66)" stroke-width="1px" opacity="0.25"></line><line x1="0" y1="132.6098069030527" x2="257.65625" y2="132.6098069030527" fill="rgb(0, 0, 0)" stroke="rgb(66, 66, 66)" stroke-width="1px" opacity="0.25"></line><line x1="0" y1="114.02342655159948" x2="257.65625" y2="114.02342655159948" fill="rgb(0, 0, 0)" stroke="rgb(66, 66, 66)" stroke-width="1px" opacity="0.25"></line><line x1="0" y1="95.43704620014624" x2="257.65625" y2="95.43704620014624" fill="rgb(0, 0, 0)" stroke="rgb(66, 66, 66)" stroke-width="1px" opacity="0.25"></line><line x1="0" y1="76.85066584869303" x2="257.65625" y2="76.85066584869303" fill="rgb(0, 0, 0)" stroke="rgb(66, 66, 66)" stroke-width="1px" opacity="0.25"></line><line x1="0" y1="58.264285497239804" x2="257.65625" y2="58.264285497239804" fill="rgb(0, 0, 0)" stroke="rgb(66, 66, 66)" stroke-width="1px" opacity="0.25"></line><line x1="0" y1="39.67790514578658" x2="257.65625" y2="39.67790514578658" fill="rgb(0, 0, 0)" stroke="rgb(66, 66, 66)" stroke-width="1px" opacity="0.25"></line><line x1="0" y1="21.09152479433334" x2="257.65625" y2="21.09152479433334" fill="rgb(0, 0, 0)" stroke="rgb(66, 66, 66)" stroke-width="1px" opacity="0.25"></line><line x1="0" y1="2.5051444428801375" x2="257.65625" y2="2.5051444428801375" fill="rgb(0, 0, 0)" stroke="rgb(66, 66, 66)" stroke-width="1px" opacity="0.25"></line></g></g></g><g><g><line x1="0" y1="169.78256760595914" x2="257.65625" y2="169.78256760595914" fill="rgb(0, 0, 0)" stroke="rgb(153, 153, 153)" stroke-width="1.5px"></line></g></g><g><g><line x1="5.641023616818295" y1="0" x2="5.641023616818295" y2="177" fill="rgb(0, 0, 0)" stroke="rgb(153, 153, 153)" stroke-width="1.5px"></line></g></g><g><g><g><g><g><path stroke="rgb(255, 112, 67)" stroke-width="2px" d="M5.681015642074809,169.1165556291992L5.797271529448394,167.18047432106482L5.854934449585692,166.22017784685391L5.859584685080635,166.1427345691722L5.895856521941194,165.53867734133925L6.082795988837919,162.42545859278783L6.1404589089752175,161.4651619495348L6.180450934231731,160.79915009955647L6.186961263924651,160.69072984888638L6.231603524676109,159.94727438314206L6.243694136962961,159.74592219925395L6.306007292595202,158.7081826164035L6.393431719900138,157.25224967215615L6.585021422291807,154.0615859555016L6.881706446869196,149.1207072059993L6.8854266352651505,149.0587539361911L6.930068896016608,148.3152984704468L6.9365792257095285,148.20687754360813L6.977501298065031,147.5253767000092L7.214663308307144,143.5757719048326L7.254655333563658,142.9097593786857L7.257445474860624,142.8632930739924L7.3876520687190395,140.694882651242L7.424853952678586,140.07533372511412L7.53552955745824,138.23218743521687L7.687127234593394,135.70753624470922L7.787572321284172,134.0347627991217L7.863836183401244,132.76469101663614L7.9531207049041575,131.27778008514753L7.954050752003146,131.26229312003264L7.9652113171910095,131.07643060593372L8.139130124701893,128.1800516825539L8.467436750644898,122.71255796864747L8.646005793650724,119.73873610567026L8.660886547234545,119.49091761708884L8.715759326074876,118.57708930703481L9.006864068058334,113.72913910990765L9.00872416225631,113.69815977032924L9.055226517205746,112.92373037435515L9.121259861233941,111.82403684552789L9.189153299460115,110.69336397712225L9.195663629153037,110.58494440262072L9.321219987516509,108.49397691946774L9.656966990251423,102.9025766659449L9.734160899467483,101.61701250899578L9.819725232574442,100.19206025666402L9.835536033257249,99.92875480296769L9.990853898788359,97.34215034265186L10.095019173875091,95.60742092258181L10.26521779299002,92.7729925643359L10.416815470125174,90.24834137382824L10.613055408011787,86.98024012692494L10.62607606739763,86.7634009779219L10.964613211429509,81.12553441970574L11.095749852386913,78.9416235084689L11.135741877643428,78.27562450569356L11.212935786859486,76.99006034874446L11.408245677647109,73.73744065760742L11.425916572527894,73.44316127368128L11.491019869457103,72.35895470996893L11.756083292668876,67.94468822019643L11.872339180042463,66.00860661623828L11.883499745230328,65.82274139746504L12.016496480385708,63.607872784044275L12.12066175547244,61.87313795462561L12.2964406571813,58.94578239634172L12.507561348651732,55.42985725150834L12.58010502237285,54.22174414817959L12.582895163669816,54.17527784348627L12.627537424421272,53.43182778709059L12.894460941831023,48.98657654839105L12.927012590295627,48.444484085232126L13.073960031935838,45.99726231095033L13.14371356435999,44.83562633101213L13.2497389336447,43.06991757136369L13.287870864703235,42.43488168012088L13.41993755275963,40.23548380376914L13.545493911123101,38.144521729964794L13.554794382112988,37.9896412601186L13.641288762318936,36.5491966333233L13.8989118087388,32.258836683167196L13.951924493381155,31.375987712691597L14.005867225122499,30.477646367752477L14.254189800552476,26.342177706139836L14.447639597142123,23.120542763929812L14.52762364765515,21.788512302287398L14.539714259942002,21.587154709050658L14.661550429909518,19.558140495705864L14.796407259262878,17.312297952055324L14.855930273598153,16.321013179032338L15.199117653124976,16.99767941729721L15.205627982817898,17.04967407628582L15.313513446300584,17.903853499046104L15.38791721421968,18.48465526096933L15.427909239476193,18.794102458441433L15.50696324289023,19.400230790629386L15.667861391015272,20.611686871408725L15.78132713709189,21.448621290750804L15.784117278388857,21.469014535069054L15.840850151427167,21.882061577417332L15.848290528219076,21.93598196451663L15.891072694772555,22.24484495233716L15.967336556889629,22.790669866047715L16.26216148726904,24.845140474024223L16.31145398351544,25.180303714862113L16.367256809454762,25.556935022263296L16.398878410820377,25.769057219264855L16.509554015600028,26.504198516171723L16.578377500925193,26.955695208550253L16.773687391712816,28.214115254096445L16.77833762720776,28.24367193498634L16.95504657601561,29.35333489333045L17.072232510488185,30.074985274765243L17.426580455202867,32.19125228143982L17.618170157594538,33.296176650387956L17.764187552135763,34.12061547440507L17.78929882380846,34.26090152165959L18.240371666817968,36.70893469823522L18.28780406886639,36.958716780367716L18.30919515214313,37.070906670861234L18.48590410095098,37.98692576710858L18.868153458635327,39.90527552627226L18.9360468968615,40.23732298230182L18.976968969217005,40.43622473126259L19.078344103006767,40.92505674785454L19.255983098913607,41.76843911075826L19.28388451188327,41.899421078376875L19.38711973987101,42.38052854513156L19.47454416717595,42.78374139167862L20.032572426569157,45.27026749307352L20.06419402793477,45.4068210897764L20.280895001999134,46.330770291108806L20.303216132374864,46.42477395152326L20.630592711218878,47.77929648475063L20.754288975384373,48.27959632042871L20.82125236651156,48.54787837486053L21.275115350818034,50.320586831630415L21.319757611569493,50.490775758086855L21.514137455258126,51.22343957332321L21.542968915326774,51.330966605301526L21.747579277104286,52.08574383771905L21.768040313282036,52.16043612354038L21.957769921475727,52.84628743577141L21.97079058086157,52.89291602092349L22.80225268735745,55.759730149390435L23.420734008184926,57.76046428812094L23.470026504431324,57.91543130754515L23.806703554265226,58.95693647320756L23.908078688054992,59.26487987176177L23.921099347440837,59.30424911105839L23.992712974062965,59.52001720903355L24.099668390446663,59.83992608674744L24.238245408195976,60.25031172957193L24.292188139937316,60.40882728169448L24.30055856382822,60.433364087059886L24.371242143351356,60.63988219888539L24.46982713584416,60.925982647689715L24.477267512636065,60.947490217824814L24.54330085666426,61.13774782768198L24.652116367245938,61.449131571962035L24.74419103004582,61.71052211624491L24.745121077144805,61.713151059676925L24.780462866906376,61.81297517921247L24.967402333803104,62.33642702700782L24.970192475100067,62.34418403293683L25.038085913326242,62.532375271619024L25.247346510598696,63.10625306730158L25.30686952493397,63.26781949204893L25.38871366964497,63.4887805647046L25.46962776725699,63.7058685437444L25.536591158384176,63.88452851014843L25.659357375450682,64.20976018690982L25.961622682622004,64.99788064425513L26.33085138092051,65.93708420871151L26.409905384334547,66.13490408794716L26.43594670310623,66.19982709015078L26.54197207239094,66.46288371381033L26.884229404818775,67.29857398296856L27.161383440317405,67.96064579864175L27.17068391130729,67.98264021015316L27.211605983662793,68.07925117660514L27.2357872082365,68.13621161763197L27.299030410967728,68.28471987479729L27.36878394339188,68.44777927976529L27.43016705192513,68.59061853957104L27.535262374110854,68.8337795789859L27.656168496979383,69.11135489435637L27.666399015068258,69.13473409911592L27.684999957048028,69.17720830452359L27.905421119508347,69.6764587265683L28.09980096319698,70.11060222855615L28.225357321560455,70.38805853825686L28.22721741575843,70.39214800581777L28.262559205520002,70.46981543338313L28.28395028879674,70.51673612336099L28.540643288117618,71.07466715929546L28.63178790381851,71.27051803563143L28.639228280610418,71.28645397668224L28.801056475834447,71.6311701271928L28.831748030101075,71.69614722288269L28.900571515426236,71.84136659608367L29.128433054678467,72.31760564907538L29.201906775498568,72.4696948950308L29.256779554338905,72.58282601218515L29.648329383013138,73.37872511285399L29.680881031477742,73.44401595076413L29.749704516802904,73.58162977979762L29.884561346156264,73.8495656359174L29.967335537966257,74.01290632701394L30.10498250861658,74.28271381775815L30.26030037414769,74.58443646539298L30.564425775516987,75.16704494975714L30.565355822615977,75.16880839740907L30.59418728268463,75.22348609331593L30.885292024668086,75.77027387108181L30.89645258985595,75.79104576980384L30.900172778251903,75.79796973604454L30.901102825350893,75.7997007276047L31.00805824173459,75.9980399043084L31.222899121600978,76.39267352393536L31.314043737301866,76.55859988367489L31.34659538576647,76.61764833327118L31.520514193277354,76.9312282730932L31.605148479285322,77.0826792159108L31.653510928432738,77.16889341430449L32.090633064957416,77.93737793613914L32.10272367724427,77.95835539010895L32.18828801035123,78.10646335547598L32.2152593762219,78.1529945723528L32.5854181216194,78.78456848047524L32.6095993461931,78.825365787809L32.67098245472636,78.92870598395112L32.80025900148578,79.14519893464212L32.85792192162308,79.2412635568829L33.05137171821273,79.56132930570693L33.066252471796545,79.5858120175861L33.13507595712171,79.69877003558442L33.18157831207114,79.77485793335113L33.38432857965067,80.10435217682945L33.54801686907268,80.3677441801038L33.572198093646385,80.40645888821672L33.70519482880177,80.61848371694302L33.769368078631985,80.72024979263512L33.84749203494703,80.84368030957246L33.98048877010242,81.0526164002336L34.11255545815881,81.25864767068279L34.19997988546374,81.39424922202761L34.213000544849585,81.41438822696045L34.85101285475582,82.38479291428888L34.88542459741841,82.4362358197177L35.12072651346254,82.7855174604682L35.29185517967646,83.03693857523423L35.343937817219825,83.11302106365233L35.40718101995106,83.20514227074511L35.56528902677913,83.43416327285283L35.59598058104576,83.47841174460967L35.808031319615175,83.78227649430022L35.90754635920697,83.92376882629823L36.01450177559067,84.07507371670295L36.11215672098448,84.21252526527768L36.234922938050985,84.3843856804594L36.24236331484289,84.3947662204718L36.365129531909396,84.56553394723117L36.47487508959006,84.71732026966356L36.499986361262756,84.75194010086696L36.50184645546073,84.75449872276684L36.585550694369715,84.86957720542637L36.650653991298924,84.95875572686688L36.68227559266454,85.00197642238487L36.70831691143622,85.0375158428546L37.01058221860754,85.44678715986224L37.01895264249844,85.45803860500335L37.030113207686306,85.47303331939332L37.047784102567086,85.4967587224649L37.06359490324989,85.51796336907698L37.11381744659529,85.5852178005382L37.12497801178315,85.60014760274466L37.14822918925787,85.63121349190108L37.18264093192045,85.6771280430346L37.27936583021527,85.80578940009283L37.297036725096056,85.82923892638452L37.39469167048987,85.95842499025945L37.60023207936637,86.22841098950829L37.61976306844513,86.25393770567217L37.75182975650152,86.4258792610833L37.82065324182669,86.51506319187243L37.9917819080406,86.73559151663805L38.50330781248438,87.38446993101357L38.52283880156314,87.4089472335441L38.53027917835505,87.41826754122589L38.54422988483988,87.43572891858912L38.642814877332675,87.55881323721442L38.72651911624166,87.66288910476963L38.910668441841416,87.89047122014297L38.91717877153434,87.898487874806L38.98321211556254,87.97961187614308L39.07993701385736,88.09800628951007L39.09574781454017,88.1173122547546L39.15806097017241,88.19325950945705L39.352440813861044,88.42882582340164L39.37941217973171,88.46134682733833L39.708648852773706,88.85525559424946L39.736550265743375,88.8883770358836L39.83699535243415,89.00726369997551L39.91418926165021,89.0982868092973L39.96720194629256,89.16060791481203L40.241565840494225,89.48089544692972L40.476867756538354,89.75255834425249L40.508489357903976,89.78884966418117L40.76425231012586,90.08064074773955L40.8684175852126,90.19856454777612L41.16231246849302,90.52847531109859L41.392034101943224,90.78351528009513L41.40691485552704,90.79994347187086L41.65337733675904,91.0706867799273L41.76498298863768,91.1923700772586L41.89611962959509,91.33463594611005L41.91844075997082,91.35876705032855L42.189084465776524,91.64967641006096L42.566683587965926,92.05019540099251L42.59272490673761,92.0775883424322L42.64015730878603,92.12741385262194L42.73037187738794,92.22190976376135L42.75920333745659,92.25204524495416L42.76385357295153,92.25689743067129L42.86243856544433,92.35963177976734L43.119131564765205,92.6252307972809L43.30886117295889,92.81979424864397L43.44557809651023,92.95908497575141L43.46045885009405,92.97419869581113L43.46417903849001,92.97797983050037L43.494870592756634,93.00912145053756L43.51347153473641,93.02797843984617L43.581364972962575,93.09668257673903L43.81108660641278,93.3277915874162L44.00081621460647,93.51710256126388L44.02592748627917,93.54205047712483L44.09103078320838,93.60662728101643L44.27518010880814,93.78838680418289L44.290060862391954,93.80301909221492L44.8285581327064,94.32686041311132L45.12245301598682,94.6082276818683L45.139193863768625,94.62415821357048L45.334503754556245,94.80929857962789L45.61630802554982,95.0740212826641L45.89253201394945,95.33080847126668L46.11574331770674,95.53638535643134L46.14829496617134,95.56622332344976L46.19851750951673,95.6121865587209L46.22827901668437,95.63938476361005L46.29524240781156,95.7004779469868L46.32035367948425,95.72333785427828L46.3240738678802,95.72672951586651L46.38266683511649,95.78000078113072L46.557515689726365,95.93828373126239L46.63191945764546,96.00533801682447L46.75003543921702,96.11139911532523L46.756545768909945,96.11723580249219L46.797467841265444,96.15386791138427L46.84676033751184,96.19792164659061L47.10810357232766,96.43016662047914L47.309923792808206,96.60802059393797L47.32294445219405,96.61945054758368L47.46059142284437,96.73996001626327L47.78238771909446,97.0193691008178L47.790758142985354,97.02659599058151L47.840050639231755,97.06910806142956L47.96560699759523,97.17703538520615L48.106044109542516,97.29719324622506L48.45481177166327,97.59303593190396L48.50782445630563,97.63768469545907L48.58129817712573,97.69943241001951L48.614779872689326,97.72752315743189L48.719875194875044,97.81546834738577L48.73475594845887,97.82789362117862L48.80822966927897,97.88915449436276L48.888213719792,97.95566784506228L49.5783086672416,98.52197255266907L49.634111493180924,98.56717847913265L49.652712435160694,98.5822326963575L49.808960347790794,98.7082813380296L49.898244869293706,98.78000930080412L49.94753736554011,98.819519183165L49.97636882560875,98.84259546440151L50.009850521172346,98.86936633074927L50.04612235803291,98.89833880198762L50.17446885769334,99.00055385361564L50.23492191912761,99.04854559462136L50.25631300240435,99.065509311911L50.35489799489715,99.14351211909117L50.452552940290964,99.22051960612423L50.49533510684444,99.2541819826209L50.7696990010461,99.46889525761408L51.069174166920455,99.70104286322737L51.46723432528761,100.00608685091828L51.517456868633,100.04428226156314L51.540708046107724,100.06195460352275L51.65789398058029,100.1507815173026L52.14988889594531,100.5200615199217L52.19639125089474,100.55466512307922L52.28288563110068,100.61888490996152L52.29776638468451,100.62991457180897L52.32566779765416,100.65058369290712L52.39356123588034,100.70079867619793L52.72930823861525,100.94752447635699L52.9060171874231,101.07631565778225L53.05482472326129,101.1842159348157L53.198982023604536,101.28825934627918L53.285476403810485,101.35046144612417L53.336628994254866,101.38717469524563L53.39243182019418,101.42714437223967L53.771891036581565,101.69713578083716L53.816533297333024,101.72868310202125L53.82397367412493,101.73394098888528L53.96162064477526,101.83093601908966L54.00533285842773,101.8616448912368L54.06671596696098,101.90470871564463L54.22482397378906,102.01524875480737L54.27597656423343,102.05089095290097L54.33270943727174,102.09036837917012L54.47872683181296,102.19163679478866L54.49546767959476,102.2032128008473L54.638694932839016,102.30205782828162L54.84702548301249,102.44505936854615L54.87771703727911,102.46605845991046L55.02001424342438,102.56311299294971L55.03396494990921,102.57261180913615L55.36971195264412,102.79988559163782L55.591063162203426,102.94846417033528L55.59757349189635,102.95281869597883L55.6012936802923,102.95530699634658L55.60501386868826,102.95779529671432L55.73615050964566,103.04531855747538L55.77707258200117,103.07256003715356L55.93146040043329,103.17503473751563L55.945411106918115,103.18427390496804L55.964942095996875,103.19719683883443L55.97889280248171,103.20642518758959L56.08863836016237,103.27887800307994L56.50715955470728,103.55303461011908L56.61504501818996,103.62316140570046L56.7359511410585,103.7014779551009L56.77780326051298,103.72852469822854L56.97404319839959,103.85490871951545L57.0726281908924,103.91812777690203L57.075418332189365,103.91990745259982L57.099599556763074,103.93538900836607L57.12843101683172,103.95382947783052L57.299559683045636,104.06295226765334L57.30700005983755,104.0676854477007L57.45766768987371,104.16329568465694L57.50696018612011,104.19448057948313L57.809225493291436,104.38476523608341L58.03801707964265,104.52770186416444L58.19612508647072,104.62593563520407L58.20914574585657,104.63400638335335L58.29005984346858,104.68409154227714L58.45653827418756,104.78676638853834L58.48722982845418,104.80564501524145L58.65370825917316,104.90775187989696L58.93272238886976,105.07780016328914L58.938302671463696,105.08118641552873L59.10478110218267,105.18200585521136L59.361474101503546,105.33652930804828L59.85904929946249,105.6329291566356L59.993906128815844,105.71256017775202L60.10179159229854,105.77604970256989L60.18084559571257,105.82245650442832L60.25338926943369,105.86495234723048L60.27850054110638,105.87964413809743L60.29431134178919,105.88888330554983L60.54263391721917,106.03354551584239L60.76026493838252,106.15952383598238L60.80397715203499,106.18473680992598L60.91651285101262,106.24950835036809L61.109962647602266,106.3603891784942L61.13786406057193,106.37633593824226L61.20017721620417,106.41190240545514L61.611258033957164,106.64505074056412L61.616838316551096,106.64819898146419L61.637299352728846,106.65973712208245L61.72100359163783,106.70685795795944L61.88655197525782,106.79975270190567L62.4882924483035,107.13398553477997L62.56548635751955,107.1764759682335L62.63151970154775,107.21276187881357L62.78218733158391,107.29529772014192L62.871471853086824,107.34406299800108L63.007258729539174,107.41800338436344L63.434150347974985,107.64876078737997L63.50855411589408,107.68871964567674L63.784778104293714,107.8363840444565L63.813609564362366,107.85174118520436L63.82104994115427,107.85570082839826L64.11773496573167,108.01299927708008L64.25724203057996,108.08654478099278L64.43953126198176,108.18225779557292L64.56787776164218,108.2493769933185L64.63298105857139,108.28334229333821L64.63391110567038,108.28382372536588L64.71203506198543,108.32450202702988L64.85898250362564,108.4008062987416L65.03941164082946,108.49410674383475L65.15380743400506,108.55303618776128L65.25611261489381,108.60559341900694L65.37422859646537,108.66611321142936L65.64022206677613,108.80173640016869L65.64952253776602,108.8064641708674L65.80391035619814,108.88475367352471L65.99177987019385,108.979612011022L66.14523764152699,109.05677095981657L66.32287663743382,109.14571687926617L66.3665888510863,109.16754901031881L66.44378276030235,109.20603111644085L66.51353629272651,109.24075372526812L66.54236775279516,109.25508308977716L66.6539734046738,109.31046941035397L66.69303538283131,109.32981865038748L66.75441849136458,109.36018673357121L66.93856781696434,109.45100969699388L67.07063450502073,109.51590024310572L67.30221623266891,109.62917741267296L67.62680267021597,109.78688156250169L67.75700926407438,109.84979769636524L67.90674684701156,109.92190431354356L67.93278816578324,109.93441613691441L67.97464028523773,109.95451186705826L68.36433001971398,110.14065296261138L68.3959516210796,110.15568013309311L68.43222345794015,110.17290349911683L69.12975878218168,110.5012671887324L69.14649962996346,110.50907828814765L69.23671419856537,110.55114138305977L69.2841466006138,110.57321152545194L69.36134050982986,110.60908632553647L69.43388418355097,110.64274329268453L69.74917015010813,110.78835213898655L69.80404292894846,110.81358134097603L69.97424154806339,110.89163824164244L69.98726220744923,110.89759393447913L70.23837492417618,111.01215852901926L70.25790591325494,111.02104067946237L70.43089467366684,111.09954114671608L70.4839073583092,111.12353701721894L70.5573810791293,111.15673959908243L70.66619658971098,111.20581320981324L71.17493235285778,111.43362251782884L71.20376381292643,111.44645349276861L71.28467791053845,111.48241484243114L71.35536149006158,111.51377824576197L71.59624368869964,111.6202775015014L71.67157750371774,111.65346926466766L71.96733248119614,111.78321790079966L72.07335785048085,111.82951651568557L72.19054378495342,111.8805645386647L72.21472500952713,111.89108031239273L72.32261047300982,111.93793068083845L72.46583772625408,111.99995427217877L72.51792036379743,112.02245716246098L72.56535276584586,112.0429315470086L72.58581380202361,112.05175419461686L72.61650535629025,112.06498546135492L72.63975653376495,112.07499816566076L72.86110774332427,112.1700945144976L72.88156877950202,112.17885765927095L72.88342887369998,112.17965824286753L72.97829367779683,112.22024458560489L72.9810838190938,112.22144005165113L73.12431107233805,112.28255487242237L73.27776884367118,112.34782407293801L73.4172759085195,112.40695907211234L73.54376231398196,112.46042507392706L73.70187032081003,112.5270466115991L73.83114686756946,112.58134565310218L74.26919905119313,112.76419245534235L74.27384928668806,112.76612359280168L74.31756150034053,112.78427195744035L74.37336432627986,112.80741315086036L74.3947554095566,112.8162790732576L74.47566950716862,112.84976835059827L74.63935779659063,112.91734193362839L74.64586812628353,112.92002497054666L75.26992972970494,113.17542195655244L75.30341142526854,113.18902646834566L75.52569268192684,113.27909753230938L75.55452414199549,113.29074926924876L75.83167817749411,113.4023928155311L75.84841902527592,113.40911663587264L75.922822793195,113.4389654215883L76.04372891606353,113.48736827308957L76.25856979592992,113.5730631740152L76.37761582460047,113.62038415579134L76.41760784985698,113.63625518465867L76.52828345463662,113.68010336461721L76.72638348672122,113.75832795509099L76.77381588876963,113.77700643589496L76.90774267102402,113.82966103541587L76.95145488467648,113.84680867055881L76.98121639184411,113.85847663554408L77.06027039525816,113.88943974707662L77.16815585874085,113.93160561961264L77.17466618843378,113.93414801346663L77.18489670652265,113.93814011275228L77.43972961164555,114.03733133849862L77.55691554611812,114.08276986695309L77.68340195158056,114.13168660657375L77.74850524850979,114.15681844028796L77.8536005706955,114.19730741475006L78.0014780594347,114.25413262206128L78.09355272223459,114.28942862184286L78.31118374339795,114.37258653826314L78.37907718162411,114.39845404339042L78.43208986626647,114.41862550441503L78.9064138867507,114.59812932920464L78.96965708948191,114.62193046315697L79.04127071610405,114.6488473819176L79.0542913754899,114.6537374330751L79.09056321235045,114.66735276356556L79.1203247195181,114.67851224978001L79.40305903761065,114.78422174062013L79.50443417140042,114.82197899402634L79.67091260211939,114.88381325816478L79.69230368539613,114.8917433632498L79.87087272840196,114.95780232866478L80.0224704055371,115.01370253736104L80.04386148881385,115.02157854895981L80.07455304308048,115.03286785954127L80.07827323147643,115.03423642474353L80.1387262929107,115.0564526195486L80.19917935434496,115.07864176761052L80.37216811475686,115.14199605871272L80.40843995161741,115.15524896284528L80.42332070520123,115.16068535821394L80.55724748745561,115.20953177630248L80.58142871202931,115.21833819586485L80.61584045469189,115.23086083793295L80.81394048677647,115.30278894660664L80.97204849360456,115.359987398973L80.98971938848534,115.36637043035113L81.08458419258218,115.40058996975621L81.3301166267152,115.48887053932489L81.43521194890091,115.52652501510721L81.46776359736552,115.53817134269795L81.86117352023774,115.67834379363134L81.9802195489083,115.72054753160774L82.59033044584486,115.93529326269267L82.62195204721047,115.94635538063189L82.6786849202488,115.96618064334446L82.69542576803057,115.97202814920864L82.90561641240201,116.04527613894697L82.95397886154943,116.06208298512648L83.08418545540786,116.10726186484692L83.3101869004621,116.18541072443996L83.54455876940725,116.26609656853839L83.69429635234442,116.31745292438916L83.73893861309588,116.3327343342563L83.91936775029968,116.3943738618442L83.94912925746732,116.40451639051707L84.13234853596809,116.4668537240777L84.14629924245293,116.47159231347366L84.20768235098618,116.49242371503057L84.32486828545876,116.53211751524472L84.40392228887279,116.5588505161521L84.45414483221818,116.57580882409313L84.52668850593929,116.60028071727503L84.714558019935,116.66349436531299L84.74431952710265,116.67348543222433L84.77873126976523,116.68503980088848L84.85313503768432,116.70997689805216L84.99357214963162,116.75696250021352L85.16842100424148,116.81528609709399L85.19725246431014,116.82488228155569L85.22794401857676,116.83509513176068L85.33396938786147,116.8703316287074L85.39256235509777,116.88977282766756L85.61205347045909,116.96240956101117L85.63902483632977,116.97131334884881L86.0463854656868,117.1052596395142L86.22309441449465,117.16305312022936L86.22960474418758,117.16517358489058L86.35144091415509,117.2049052505451L86.36353152644195,117.20884325634448L86.40631369299543,117.22277232905522L86.43049491756913,117.23063752195672L86.56349165272451,117.27383658008021L86.92155978583516,117.38962909675834L86.97457247047751,117.40670100102051L87.0731574629703,117.43841601201198L87.13361052440457,117.45783557357765L87.17546264385906,117.47126698621484L87.32706032099422,117.51983211817485L87.57259275512723,117.59820276106154L87.61351482748273,117.61122847255182L87.83393598994306,117.68123085311481L87.89624914557528,117.70096956624937L88.11295011963965,117.7694356918027L88.19851445274661,117.79640129470098L88.24408676059706,117.81074147790729L88.34360180018885,117.84201833166009L88.659817813845,117.94103645825041L88.73887181725904,117.96569767863421L88.75375257084285,117.97033349040629L89.10903056265653,118.0807220678075L89.12484136333934,118.08561752831362L89.22807659132708,118.11755432259874L89.24574748620786,118.1230123553619L89.32108130122596,118.14627255445168L89.37874422136325,118.1640530833838L89.56661373535897,118.22186279214483L89.76471376744355,118.28260436786093L90.3450631572125,118.45933860615426L90.36366409919226,118.46496973807344L90.55525380158393,118.52289845250425L90.71708199680796,118.57166913971203L90.85658906165627,118.61360781960576L90.87519000363604,118.61919026738731L90.877980144933,118.62002871642429L90.9356430650703,118.63732781332874L90.95703414834705,118.64373789144997L90.959824289644,118.64457634048694L91.29371119818094,118.7443409571876L91.31789242275465,118.75154620955679L91.49367132446352,118.8038167453253L91.88429110603876,118.91939288805838L91.9391638848791,118.93556684044873L91.94102397907706,118.93611318465989L91.96985543914572,118.94460586200199L92.03588878317392,118.96403624226488L92.25351980433726,119.02792605888102L92.34373437293917,119.05433449887087L92.57438605348837,119.12167547991011L92.97430630605349,119.237803376203L93.12311384189168,119.28081310712459L93.41979886646908,119.36622672192173L93.46072093882458,119.37797582713638L93.56488621391131,119.40784625024655L93.7955378944605,119.47378620999177L93.89505293405229,119.50215824353268L94.02432948081172,119.5389472235349L94.0494407524844,119.54608215437199L94.16755673405596,119.5796038878044L94.29497318661741,119.61569506183395L94.34705582416079,119.63042471814126L94.37681733132843,119.63883625525396L94.44285067535662,119.65748227996617L94.79626857297231,119.75693315444656L94.87904276478231,119.78013926005008L94.90043384805905,119.78613281832718L95.20641934362634,119.87160593595918L95.28082311154542,119.89232374119496L95.35894706786047,119.91405309462371L95.39614895182001,119.92438495049848L95.4240503647897,119.93213113773022L95.48450342622395,119.94891093716663L95.51426493339157,119.95716019382057L95.87326311360121,120.05637846631005L96.00160961326166,120.09170692218339L96.06671291019086,120.10959563808801L96.13181620712007,120.12746812594676L96.24342185899872,120.15805799242413L96.28434393135421,120.16926616277624L96.41083033681667,120.20384271919065L96.46384302145903,120.21831272676393L96.54661721326903,120.24088593857826L96.59683975661441,120.25456077190361L96.67124352453351,120.27480796380897L96.77354870542227,120.30260660639556L96.78284917641216,120.30512736285506L96.91584591156753,120.34119149014148L96.98373934979371,120.35956704742242L97.16230839279953,120.4078076184649L97.22741168972873,120.42535554540612L97.27298399757917,120.43763476678606L97.34924785969625,120.45815783547134L97.48782487744558,120.4953795633636L97.7073159928069,120.55416295487724L97.76776905424116,120.57032067922171L98.18722029588506,120.68196963485265L98.20675128496381,120.68715179083591L98.28580528837786,120.7081021980626L98.28766538257584,120.70859444878752L98.53877809930277,120.77496715642279L98.91079693889826,120.87280063566413L98.94706877575881,120.88230486119917L99.10145659419094,120.9227126954319L99.17307022081305,120.94142363232761L99.1944613040898,120.94700608010918L99.34512893412597,120.98628336047912L99.44464397371775,121.01217250300094L99.4744054808854,121.01990787153544L99.49951675255808,121.02643154597783L99.50788717644897,121.02860610412529L99.57392052047719,121.04574292057096L99.64367405290133,121.06383178237473L99.7208679621174,121.0838247348947L99.7943416829375,121.10282777661618L99.88827643993535,121.1270941145503L99.90687738191512,121.13189220678116L99.97756096143826,121.1501217116492L100.03057364608063,121.16378572627728L100.04080416416949,121.1664146697093L100.4351441341407,121.26764521988748L100.45374507612047,121.27240544667795L100.79228222015236,121.3587765161818L100.94853013278245,121.39848654444182L100.98015173414807,121.40650860845348L101.00991324131572,121.41406005913471L101.0601357846611,121.42678825645058L101.14384002357008,121.44798208436542L101.32519920787287,121.49381008592091L101.35403066794152,121.50108565982225L101.4051832583859,121.51398695629416L101.43773490685051,121.52218752881043L101.4470353778404,121.52452436741667L101.62839456214319,121.57013599502716L101.73162979013091,121.59604677494345L101.86648661948428,121.62982274776127L101.91763920992865,121.64261585726064L102.11480919491426,121.69183552040433L102.31755946249379,121.74228851503466L102.62354495806107,121.81813299211323L102.6774876898024,121.83146703647515L103.02160511642822,121.91626398552899L103.11833001472304,121.9400164353437L103.13135067410889,121.94321336038138L103.14902156898967,121.94754624863043L103.18715350004821,121.95689901240398L103.20017415943404,121.96009052809302L103.21412486591889,121.96350923642436L103.22621547820573,121.96647355947114L103.2624873150663,121.9753557099143L103.29968919902583,121.98446505299967L103.30805962291673,121.98651519612875L103.3610723075591,121.99947599543552L103.38339343793483,122.00493402819869L103.5415014447629,122.04352973064185L103.54336153896088,122.04398411592639L103.70053949868996,122.08226066680064L103.86422778811198,122.1220193791983L103.94979212121892,122.14276964052583L104.01675551234611,122.15898686770515L104.02977617173195,122.16213510860523L104.20927526183677,122.205518084582L104.42225604750517,122.25683116564377L104.47526873214753,122.26958100035414L104.58966452532314,122.2970550820232L104.75335281474514,122.33628367825557L104.84635752464402,122.35852691980374L104.94215237583985,122.38140846448975L105.25278810690207,122.45537589759523L105.86754923933358,122.60074673255775L105.90475112329312,122.60949905863387L105.93544267755976,122.61671512970031L106.10657134377368,122.65690658998801L106.50463150214082,122.7499852517875L106.63204795470227,122.7796663476958L107.10823206938448,122.89008738118876L107.24215885163886,122.92100180858367L107.24308889873785,122.92121818252868L107.2970316304792,122.93365427501877L107.48304105027694,122.9764584506926L107.55651477109704,122.99333020905563L107.78158616905229,123.04490834820005L108.00572751990858,123.09610783294072L108.12477354857913,123.12323030694913L108.15546510284575,123.13021377602468L108.23172896496281,123.14755614771813L108.33589424004954,123.1712166386062L108.39169706598888,123.18387451438996L108.49214215267965,123.20663705340618L108.52562384824324,123.21421555083054L108.54329474312402,123.21821305946482L108.63257926462694,123.2384007485353L108.67350133698245,123.24764532533634L109.05761078886476,123.33414621920718L109.09574271992331,123.34270380873278L109.17758686463432,123.36106313796783L109.3840573206098,123.40728061262436L109.41753901617338,123.4147671511221L109.52635452675506,123.43905512645073L109.70213342846392,123.47821340115094L109.72817474723561,123.48400681352891L110.24435088717432,123.59838208086711L110.42478002437814,123.63816243065926L110.46105186123869,123.64614662923053L110.64613123393744,123.68682493089455L111.03675101551269,123.77231968592105L111.16788765647009,123.80091891210424L111.28507359094266,123.82642940022224L111.42644074998894,123.85714368171799L111.64872200664723,123.90531934057695L111.9388967015317,123.9679812350551L112.0942145670628,124.0014164189095L112.10165494385473,124.00301217675404L112.32114605921605,124.05013301263104L112.42996156979773,124.07344189585848L112.68665456911862,124.12827646287546L112.735947065365,124.13878682725486L113.06797387970396,124.20937882681804L113.07913444489184,124.2117427121674L113.30885607834203,124.26038357500818L113.31536640803496,124.26176295890768L113.41395140052776,124.28258895111597L113.56368898346494,124.31415790969459L113.6473932223739,124.33178156751654L113.88734537391299,124.38218587800925L113.94872848244624,124.39505471838939L114.1077665363733,124.42834114515658L114.15333884422375,124.43786430341184L114.18868063398533,124.44525076896L114.22030223535094,124.45185017428314L114.25564402511252,124.45922852580837L114.29191586197307,124.46679349986117L114.39980132545575,124.48927475274888L114.4360731623163,124.4968262034301L114.47234499917687,124.50437224476273L114.48536565856271,124.50707962374982L114.50117645924553,124.51036850771412L114.6016215459363,124.53124047938574L114.62022248791608,124.53510275430438L114.6518440892817,124.54166699886146L114.70578682102304,124.55285623649335L115.04804415345086,124.62365920065292L115.0954765554993,124.6334420076422L115.22475310225872,124.66008034494864L115.3326385657414,124.68227760703348L115.53724892751892,124.72428390378506L115.5642202933896,124.72981225808033L115.99297200602336,124.81741665907082L116.23199411046346,124.86603588451709L116.25896547633414,124.87151014532613L116.31569834937244,124.88302123920124L116.59843266746499,124.94026296635661L116.75468058009511,124.97180487819207L117.22807455348034,125.06695802518948L117.24202525996517,125.06975195375456L117.51824924836481,125.12498681256986L118.04186576509544,125.22912218295994L118.09766859103476,125.24017889155053L118.3562216845536,125.29129723606178L118.35715173165259,125.29147844924076L118.46038695964035,125.31183923746725L118.48642827841203,125.31697000463858L118.51432969138169,125.3224659028421L118.55246162244022,125.32997407873434L118.66034708592291,125.35119765806661L118.72917057124808,125.36472102963043L118.95424196920332,125.40885320039183L118.99330394736086,125.41650201934831L119.02678564292444,125.42305274053383L119.19698426203938,125.45630941588361L119.29835939582914,125.47608058510991L119.3271908558978,125.48170089833185L119.392294152827,125.4943804115101L119.59969465590149,125.53469628681617L119.68618903610744,125.55148149560118L119.69734960129529,125.5536452350514L119.7950045466891,125.57256713654351L120.10099004225638,125.63170213571782L120.54927274396891,125.71790551541426L120.60414552280925,125.7284239938166L120.62646665318498,125.73269737923077L120.6571582074516,125.73857463651241L121.06358878970967,125.81618797059153L121.12497189824292,125.82787757297129L121.1510132170146,125.83283253631231L121.17147425319234,125.83672185797404L121.4625789951758,125.89198376353245L121.62905742589479,125.92349321927618L121.67462973374522,125.93210760696235L121.67741987504219,125.93263501845334L121.68765039313107,125.93456615591265L121.72857246548656,125.94229611509853L121.93783306275903,125.98175460864746L122.16755469620922,126.02495366677095L122.69954163683076,126.12449650017797L123.24082904844217,126.22508604254402L123.38870653718136,126.25244652789196L123.46683049349642,126.26688137469918L123.6974821740456,126.3094096735931L123.74677467029201,126.31848385591242L123.84814980408177,126.33712447127601L123.97184606824726,126.35983832615462L124.14297473446119,126.39120172948543L124.26202076313173,126.41297976705182L124.31131325937814,126.42198903718764L124.35037523753567,126.42912667269904L124.45175037132543,126.44762664499835L124.45826070101835,126.44881129234734L124.48802220818598,126.45423957369306L124.51778371535363,126.45966244569016L124.57451658839193,126.46999430156491L124.59125743617373,126.4730424695154L124.79214760955529,126.5095690961093L124.97071665256111,126.54196027567896L125.06744155085593,126.55947304185412L125.12510447099324,126.56990497067845L125.28693266621727,126.59913709065084L125.4803824628069,126.634005751891L125.48317260410388,126.63450882131319" style="fill: none;" fill="none"></path></g></g></g></g></g></g><g transform="translate(72, 177)" clip-path="url(#clip_1)"><clipPath id="clip_1"><rect width="257" height="23"></rect></clipPath><g><g><line x1="5.641023616818295" y1="0" x2="5.641023616818295" y2="5" style="visibility: inherit;" fill="rgb(0, 0, 0)" stroke="rgb(204, 204, 204)" stroke-width="1px"></line><line x1="24.24196559659193" y1="0" x2="24.24196559659193" y2="5" style="visibility: inherit;" fill="rgb(0, 0, 0)" stroke="rgb(204, 204, 204)" stroke-width="1px"></line><line x1="42.84290757636556" y1="0" x2="42.84290757636556" y2="5" style="visibility: inherit;" fill="rgb(0, 0, 0)" stroke="rgb(204, 204, 204)" stroke-width="1px"></line><line x1="61.4438495561392" y1="0" x2="61.4438495561392" y2="5" style="visibility: inherit;" fill="rgb(0, 0, 0)" stroke="rgb(204, 204, 204)" stroke-width="1px"></line><line x1="80.04479153591284" y1="0" x2="80.04479153591284" y2="5" style="visibility: inherit;" fill="rgb(0, 0, 0)" stroke="rgb(204, 204, 204)" stroke-width="1px"></line><line x1="98.64573351568647" y1="0" x2="98.64573351568647" y2="5" style="visibility: inherit;" fill="rgb(0, 0, 0)" stroke="rgb(204, 204, 204)" stroke-width="1px"></line><line x1="117.24667549546011" y1="0" x2="117.24667549546011" y2="5" style="visibility: inherit;" fill="rgb(0, 0, 0)" stroke="rgb(204, 204, 204)" stroke-width="1px"></line><line x1="135.84761747523376" y1="0" x2="135.84761747523376" y2="5" style="visibility: inherit;" fill="rgb(0, 0, 0)" stroke="rgb(204, 204, 204)" stroke-width="1px"></line><line x1="154.4485594550074" y1="0" x2="154.4485594550074" y2="5" style="visibility: inherit;" fill="rgb(0, 0, 0)" stroke="rgb(204, 204, 204)" stroke-width="1px"></line><line x1="173.049501434781" y1="0" x2="173.049501434781" y2="5" style="visibility: inherit;" fill="rgb(0, 0, 0)" stroke="rgb(204, 204, 204)" stroke-width="1px"></line><line x1="191.65044341455464" y1="0" x2="191.65044341455464" y2="5" style="visibility: inherit;" fill="rgb(0, 0, 0)" stroke="rgb(204, 204, 204)" stroke-width="1px"></line><line x1="210.25138539432828" y1="0" x2="210.25138539432828" y2="5" style="visibility: inherit;" fill="rgb(0, 0, 0)" stroke="rgb(204, 204, 204)" stroke-width="1px"></line><line x1="228.85232737410195" y1="0" x2="228.85232737410195" y2="5" style="visibility: inherit;" fill="rgb(0, 0, 0)" stroke="rgb(204, 204, 204)" stroke-width="1px"></line><line x1="247.4532693538756" y1="0" x2="247.4532693538756" y2="5" style="visibility: inherit;" fill="rgb(0, 0, 0)" stroke="rgb(204, 204, 204)" stroke-width="1px"></line></g><g transform="translate(0, 8)"><text x="5.641023616818295" y="0" dx="0em" dy="0.95em" style="text-anchor: middle; visibility: inherit; font-family: Roboto, sans-serif; font-size: 12px; font-weight: 200;" fill="rgb(33, 33, 33)" stroke="none" stroke-width="1px">0</text><text x="24.24196559659193" y="0" dx="0em" dy="0.95em" style="text-anchor: middle; visibility: hidden; font-family: Roboto, sans-serif; font-size: 12px; font-weight: 200;" fill="rgb(33, 33, 33)" stroke="none" stroke-width="1px">20k</text><text x="42.84290757636556" y="0" dx="0em" dy="0.95em" style="text-anchor: middle; visibility: inherit; font-family: Roboto, sans-serif; font-size: 12px; font-weight: 200;" fill="rgb(33, 33, 33)" stroke="none" stroke-width="1px">40k</text><text x="61.4438495561392" y="0" dx="0em" dy="0.95em" style="text-anchor: middle; visibility: hidden; font-family: Roboto, sans-serif; font-size: 12px; font-weight: 200;" fill="rgb(33, 33, 33)" stroke="none" stroke-width="1px">60k</text><text x="80.04479153591284" y="0" dx="0em" dy="0.95em" style="text-anchor: middle; visibility: inherit; font-family: Roboto, sans-serif; font-size: 12px; font-weight: 200;" fill="rgb(33, 33, 33)" stroke="none" stroke-width="1px">80k</text><text x="98.64573351568647" y="0" dx="0em" dy="0.95em" style="text-anchor: middle; visibility: hidden; font-family: Roboto, sans-serif; font-size: 12px; font-weight: 200;" fill="rgb(33, 33, 33)" stroke="none" stroke-width="1px">100k</text><text x="117.24667549546011" y="0" dx="0em" dy="0.95em" style="text-anchor: middle; visibility: inherit; font-family: Roboto, sans-serif; font-size: 12px; font-weight: 200;" fill="rgb(33, 33, 33)" stroke="none" stroke-width="1px">120k</text><text x="135.84761747523376" y="0" dx="0em" dy="0.95em" style="text-anchor: middle; visibility: hidden; font-family: Roboto, sans-serif; font-size: 12px; font-weight: 200;" fill="rgb(33, 33, 33)" stroke="none" stroke-width="1px">140k</text><text x="154.4485594550074" y="0" dx="0em" dy="0.95em" style="text-anchor: middle; visibility: inherit; font-family: Roboto, sans-serif; font-size: 12px; font-weight: 200;" fill="rgb(33, 33, 33)" stroke="none" stroke-width="1px">160k</text><text x="173.049501434781" y="0" dx="0em" dy="0.95em" style="text-anchor: middle; visibility: hidden; font-family: Roboto, sans-serif; font-size: 12px; font-weight: 200;" fill="rgb(33, 33, 33)" stroke="none" stroke-width="1px">180k</text><text x="191.65044341455464" y="0" dx="0em" dy="0.95em" style="text-anchor: middle; visibility: inherit; font-family: Roboto, sans-serif; font-size: 12px; font-weight: 200;" fill="rgb(33, 33, 33)" stroke="none" stroke-width="1px">200k</text><text x="210.25138539432828" y="0" dx="0em" dy="0.95em" style="text-anchor: middle; visibility: hidden; font-family: Roboto, sans-serif; font-size: 12px; font-weight: 200;" fill="rgb(33, 33, 33)" stroke="none" stroke-width="1px">220k</text><text x="228.85232737410195" y="0" dx="0em" dy="0.95em" style="text-anchor: middle; visibility: inherit; font-family: Roboto, sans-serif; font-size: 12px; font-weight: 200;" fill="rgb(33, 33, 33)" stroke="none" stroke-width="1px">240k</text><text x="247.4532693538756" y="0" dx="0em" dy="0.95em" style="text-anchor: middle; visibility: hidden; font-family: Roboto, sans-serif; font-size: 12px; font-weight: 200;" fill="rgb(33, 33, 33)" stroke="none" stroke-width="1px">260k</text></g><line x1="0" y1="0" x2="257.65625" y2="0" fill="rgb(0, 0, 0)" stroke="rgb(204, 204, 204)" stroke-width="1px"></line></g></g></g></g></svg>