<svg viewBox="0 0 330 200" xmlns="http://www.w3.org/2000/svg"><g><g><g><g><g><line x1="41.171875" y1="177" x2="36.171875" y2="177" style="visibility: inherit;" fill="rgb(0, 0, 0)" stroke="rgb(204, 204, 204)" stroke-width="1px"></line><line x1="41.171875" y1="163.3846153846154" x2="36.171875" y2="163.3846153846154" style="visibility: inherit;" fill="rgb(0, 0, 0)" stroke="rgb(204, 204, 204)" stroke-width="1px"></line><line x1="41.171875" y1="149.76923076923077" x2="36.171875" y2="149.76923076923077" style="visibility: inherit;" fill="rgb(0, 0, 0)" stroke="rgb(204, 204, 204)" stroke-width="1px"></line><line x1="41.171875" y1="136.15384615384616" x2="36.171875" y2="136.15384615384616" style="visibility: inherit;" fill="rgb(0, 0, 0)" stroke="rgb(204, 204, 204)" stroke-width="1px"></line><line x1="41.171875" y1="122.53846153846153" x2="36.171875" y2="122.53846153846153" style="visibility: inherit;" fill="rgb(0, 0, 0)" stroke="rgb(204, 204, 204)" stroke-width="1px"></line><line x1="41.171875" y1="108.92307692307693" x2="36.171875" y2="108.92307692307693" style="visibility: inherit;" fill="rgb(0, 0, 0)" stroke="rgb(204, 204, 204)" stroke-width="1px"></line><line x1="41.171875" y1="95.30769230769232" x2="36.171875" y2="95.30769230769232" style="visibility: inherit;" fill="rgb(0, 0, 0)" stroke="rgb(204, 204, 204)" stroke-width="1px"></line><line x1="41.171875" y1="81.6923076923077" x2="36.171875" y2="81.6923076923077" style="visibility: inherit;" fill="rgb(0, 0, 0)" stroke="rgb(204, 204, 204)" stroke-width="1px"></line><line x1="41.171875" y1="68.07692307692307" x2="36.171875" y2="68.07692307692307" style="visibility: inherit;" fill="rgb(0, 0, 0)" stroke="rgb(204, 204, 204)" stroke-width="1px"></line><line x1="41.171875" y1="54.46153846153847" x2="36.171875" y2="54.46153846153847" style="visibility: inherit;" fill="rgb(0, 0, 0)" stroke="rgb(204, 204, 204)" stroke-width="1px"></line><line x1="41.171875" y1="40.84615384615386" x2="36.171875" y2="40.84615384615386" style="visibility: inherit;" fill="rgb(0, 0, 0)" stroke="rgb(204, 204, 204)" stroke-width="1px"></line><line x1="41.171875" y1="27.230769230769234" x2="36.171875" y2="27.230769230769234" style="visibility: inherit;" fill="rgb(0, 0, 0)" stroke="rgb(204, 204, 204)" stroke-width="1px"></line><line x1="41.171875" y1="13.615384615384626" x2="36.171875" y2="13.615384615384626" style="visibility: inherit;" fill="rgb(0, 0, 0)" stroke="rgb(204, 204, 204)" stroke-width="1px"></line><line x1="41.171875" y1="0" x2="36.171875" y2="0" style="visibility: inherit;" fill="rgb(0, 0, 0)" stroke="rgb(204, 204, 204)" stroke-width="1px"></line></g><g transform="translate(31.171875, 0)"><text x="0" y="177" dx="0em" dy="0.3em" style="text-anchor: end; visibility: hidden; font-family: Roboto, sans-serif; font-size: 12px; font-weight: 200;" fill="rgb(33, 33, 33)" stroke="none" stroke-width="1px">0</text><text x="0" y="163.3846153846154" dx="0em" dy="0.3em" style="text-anchor: end; visibility: inherit; font-family: Roboto, sans-serif; font-size: 12px; font-weight: 200;" fill="rgb(33, 33, 33)" stroke="none" stroke-width="1px">0.2</text><text x="0" y="149.76923076923077" dx="0em" dy="0.3em" style="text-anchor: end; visibility: hidden; font-family: Roboto, sans-serif; font-size: 12px; font-weight: 200;" fill="rgb(33, 33, 33)" stroke="none" stroke-width="1px">0.4</text><text x="0" y="136.15384615384616" dx="0em" dy="0.3em" style="text-anchor: end; visibility: inherit; font-family: Roboto, sans-serif; font-size: 12px; font-weight: 200;" fill="rgb(33, 33, 33)" stroke="none" stroke-width="1px">0.6</text><text x="0" y="122.53846153846153" dx="0em" dy="0.3em" style="text-anchor: end; visibility: hidden; font-family: Roboto, sans-serif; font-size: 12px; font-weight: 200;" fill="rgb(33, 33, 33)" stroke="none" stroke-width="1px">0.8</text><text x="0" y="108.92307692307693" dx="0em" dy="0.3em" style="text-anchor: end; visibility: inherit; font-family: Roboto, sans-serif; font-size: 12px; font-weight: 200;" fill="rgb(33, 33, 33)" stroke="none" stroke-width="1px">1</text><text x="0" y="95.30769230769232" dx="0em" dy="0.3em" style="text-anchor: end; visibility: hidden; font-family: Roboto, sans-serif; font-size: 12px; font-weight: 200;" fill="rgb(33, 33, 33)" stroke="none" stroke-width="1px">1.2</text><text x="0" y="81.6923076923077" dx="0em" dy="0.3em" style="text-anchor: end; visibility: inherit; font-family: Roboto, sans-serif; font-size: 12px; font-weight: 200;" fill="rgb(33, 33, 33)" stroke="none" stroke-width="1px">1.4</text><text x="0" y="68.07692307692307" dx="0em" dy="0.3em" style="text-anchor: end; visibility: hidden; font-family: Roboto, sans-serif; font-size: 12px; font-weight: 200;" fill="rgb(33, 33, 33)" stroke="none" stroke-width="1px">1.6</text><text x="0" y="54.46153846153847" dx="0em" dy="0.3em" style="text-anchor: end; visibility: inherit; font-family: Roboto, sans-serif; font-size: 12px; font-weight: 200;" fill="rgb(33, 33, 33)" stroke="none" stroke-width="1px">1.8</text><text x="0" y="40.84615384615386" dx="0em" dy="0.3em" style="text-anchor: end; visibility: hidden; font-family: Roboto, sans-serif; font-size: 12px; font-weight: 200;" fill="rgb(33, 33, 33)" stroke="none" stroke-width="1px">2</text><text x="0" y="27.230769230769234" dx="0em" dy="0.3em" style="text-anchor: end; visibility: inherit; font-family: Roboto, sans-serif; font-size: 12px; font-weight: 200;" fill="rgb(33, 33, 33)" stroke="none" stroke-width="1px">2.2</text><text x="0" y="13.615384615384626" dx="0em" dy="0.3em" style="text-anchor: end; visibility: hidden; font-family: Roboto, sans-serif; font-size: 12px; font-weight: 200;" fill="rgb(33, 33, 33)" stroke="none" stroke-width="1px">2.4</text><text x="0" y="0" dx="0em" dy="0.3em" style="text-anchor: end; visibility: hidden; font-family: Roboto, sans-serif; font-size: 12px; font-weight: 200;" fill="rgb(33, 33, 33)" stroke="none" stroke-width="1px">2.6</text></g><line x1="41.171875" y1="0" x2="41.171875" y2="177" fill="rgb(0, 0, 0)" stroke="rgb(204, 204, 204)" stroke-width="1px"></line></g></g><g transform="translate(41, 0)" clip-path="url(#clip_0)"><clipPath id="clip_0"><rect width="288" height="177"></rect></clipPath><g><g><g><line x1="0" y1="0" x2="0" y2="177" fill="rgb(0, 0, 0)" stroke="rgb(66, 66, 66)" stroke-width="1px" opacity="0.25"></line><line x1="36.103515625" y1="0" x2="36.103515625" y2="177" fill="rgb(0, 0, 0)" stroke="rgb(66, 66, 66)" stroke-width="1px" opacity="0.25"></line><line x1="72.20703125" y1="0" x2="72.20703125" y2="177" fill="rgb(0, 0, 0)" stroke="rgb(66, 66, 66)" stroke-width="1px" opacity="0.25"></line><line x1="108.310546875" y1="0" x2="108.310546875" y2="177" fill="rgb(0, 0, 0)" stroke="rgb(66, 66, 66)" stroke-width="1px" opacity="0.25"></line><line x1="144.4140625" y1="0" x2="144.4140625" y2="177" fill="rgb(0, 0, 0)" stroke="rgb(66, 66, 66)" stroke-width="1px" opacity="0.25"></line><line x1="180.517578125" y1="0" x2="180.517578125" y2="177" fill="rgb(0, 0, 0)" stroke="rgb(66, 66, 66)" stroke-width="1px" opacity="0.25"></line><line x1="216.62109375" y1="0" x2="216.62109375" y2="177" fill="rgb(0, 0, 0)" stroke="rgb(66, 66, 66)" stroke-width="1px" opacity="0.25"></line><line x1="252.724609375" y1="0" x2="252.724609375" y2="177" fill="rgb(0, 0, 0)" stroke="rgb(66, 66, 66)" stroke-width="1px" opacity="0.25"></line><line x1="288.828125" y1="0" x2="288.828125" y2="177" fill="rgb(0, 0, 0)" stroke="rgb(66, 66, 66)" stroke-width="1px" opacity="0.25"></line></g><g><line x1="0" y1="177" x2="288.828125" y2="177" fill="rgb(0, 0, 0)" stroke="rgb(66, 66, 66)" stroke-width="1px" opacity="0.25"></line><line x1="0" y1="163.3846153846154" x2="288.828125" y2="163.3846153846154" fill="rgb(0, 0, 0)" stroke="rgb(66, 66, 66)" stroke-width="1px" opacity="0.25"></line><line x1="0" y1="149.76923076923077" x2="288.828125" y2="149.76923076923077" fill="rgb(0, 0, 0)" stroke="rgb(66, 66, 66)" stroke-width="1px" opacity="0.25"></line><line x1="0" y1="136.15384615384616" x2="288.828125" y2="136.15384615384616" fill="rgb(0, 0, 0)" stroke="rgb(66, 66, 66)" stroke-width="1px" opacity="0.25"></line><line x1="0" y1="122.53846153846153" x2="288.828125" y2="122.53846153846153" fill="rgb(0, 0, 0)" stroke="rgb(66, 66, 66)" stroke-width="1px" opacity="0.25"></line><line x1="0" y1="108.92307692307693" x2="288.828125" y2="108.92307692307693" fill="rgb(0, 0, 0)" stroke="rgb(66, 66, 66)" stroke-width="1px" opacity="0.25"></line><line x1="0" y1="95.30769230769232" x2="288.828125" y2="95.30769230769232" fill="rgb(0, 0, 0)" stroke="rgb(66, 66, 66)" stroke-width="1px" opacity="0.25"></line><line x1="0" y1="81.6923076923077" x2="288.828125" y2="81.6923076923077" fill="rgb(0, 0, 0)" stroke="rgb(66, 66, 66)" stroke-width="1px" opacity="0.25"></line><line x1="0" y1="68.07692307692307" x2="288.828125" y2="68.07692307692307" fill="rgb(0, 0, 0)" stroke="rgb(66, 66, 66)" stroke-width="1px" opacity="0.25"></line><line x1="0" y1="54.46153846153847" x2="288.828125" y2="54.46153846153847" fill="rgb(0, 0, 0)" stroke="rgb(66, 66, 66)" stroke-width="1px" opacity="0.25"></line><line x1="0" y1="40.84615384615386" x2="288.828125" y2="40.84615384615386" fill="rgb(0, 0, 0)" stroke="rgb(66, 66, 66)" stroke-width="1px" opacity="0.25"></line><line x1="0" y1="27.230769230769234" x2="288.828125" y2="27.230769230769234" fill="rgb(0, 0, 0)" stroke="rgb(66, 66, 66)" stroke-width="1px" opacity="0.25"></line><line x1="0" y1="13.615384615384626" x2="288.828125" y2="13.615384615384626" fill="rgb(0, 0, 0)" stroke="rgb(66, 66, 66)" stroke-width="1px" opacity="0.25"></line><line x1="0" y1="0" x2="288.828125" y2="0" fill="rgb(0, 0, 0)" stroke="rgb(66, 66, 66)" stroke-width="1px" opacity="0.25"></line></g></g></g><g><g><line x1="0" y1="177" x2="288.828125" y2="177" fill="rgb(0, 0, 0)" stroke="rgb(153, 153, 153)" stroke-width="1.5px"></line></g></g><g><g><line x1="36.103515625" y1="0" x2="36.103515625" y2="177" fill="rgb(0, 0, 0)" stroke="rgb(153, 153, 153)" stroke-width="1.5px"></line></g></g><g><g><g><g><g><path stroke="rgb(255, 112, 67)" stroke-width="2px" d="M44.748502441406245,-30.66635958965006L45.078849609375,46.711251992445725L45.37309326171875,51.665493690050575L45.753985351562505,54.18251796869132L45.7792578125,54.33328590026268L46.436341796875,58.18662467369667L46.69087158203125,59.84218283799979L46.768494140625,60.194845731441795L46.91832373046875,60.85410849864666L47.29741064453125,62.95888660504268L47.331708984375,63.12628299456377L47.4580712890625,63.6668255512531L47.972546386718754,65.89784684548012L48.198193359375,66.87305031372951L48.21985546875,66.96190584622897L48.477995605468756,68.00511638017802L48.68017529296875,68.8457015661093L49.021353515624995,70.13065368395584L49.43112841796875,71.6319705247879L49.571932128906255,86.88180027558253L49.57734765625,86.79411336091849L49.66399609375,85.46351210887616L50.18208154296875,88.56767758039328L50.2452626953125,88.71284588483664L50.53048046875,89.52732382370876L50.665868652343754,90.12608627172617L50.871658691406246,90.80256180579846L50.9456708984375,91.00314207260425L51.202005859375,91.61194327244392L51.44570458984375,92.02810106827663L51.46375634765625,92.02026970569904L51.6316376953125,92.39389468156375L52.13167138671875,93.07881834873787L52.23456640625,93.33343907502982L52.3392666015625,93.56082451343536L52.82124853515625,94.3157272889064L53.19672509765625,94.92032471069923L53.351970214843746,95.15251446687259L53.3754375,95.17136654487022L53.61191552734375,95.52804656212146L53.873666015625,95.8230495269482L53.989197265625,96.03396881543674L54.655307128906244,103.14528426757225L54.667943359375,103.19364394591406L54.87734375,103.64972140238837L55.0217578125,104.06179715119875L55.099380371093744,104.36376313062814L55.2528203125,104.71470555892357L55.56511572265625,105.36714327335358L55.78534716796875,105.58463603716629L55.790762695312495,105.58821492928726L55.90087841796875,105.89830442575308L55.915319824218756,105.92764971806453L55.99835791015625,106.15970962781174L56.14638232421875,106.46144837599533L56.718623046874995,107.49627570005563L56.81429736328125,107.6722257228998L56.92260791015625,107.8108935906337L56.98398388671875,107.90236228245956L57.1987998046875,108.2175157895455L57.3323828125,108.45329255324143L57.7114697265625,109.13477123242157L57.72049560546875,109.15383836856255L58.063479003906245,109.7263515499922L58.290931152343745,110.03771110681387L58.978703124999996,117.83701379024065L59.3505693359375,118.38339537840622L59.63398193359375,118.9213085449659L59.6827216796875,119.03998006307161L60.558231933593746,120.10655889602808L60.6502958984375,120.23211633242094L60.69181494140625,120.27761938938728L61.034798339843746,120.56023825131929L61.776725585937506,121.32640926196025L61.90850341796875,121.49108293423286L61.98793115234375,121.57628653599666L62.1846953125,121.74897416738364L62.52948388671875,121.97982082458643L62.583639160156245,122.0085655771769L62.784013671875,122.17250480560156L62.9537001953125,124.81240438039487L64.0368056640625,127.65876788817918L64.098181640625,127.72433627568758L64.51878759765626,127.965168934602L64.56211181640624,128.00225632007306L65.19753369140625,128.35988583931555L65.4376220703125,128.40090107917786L65.5675947265625,128.450786453027L66.4485205078125,128.96018615594278L66.5351689453125,129.00935737444806L66.91245068359375,129.186001264132L66.9684111328125,129.233756345052L67.36554980468749,129.403465624039L67.405263671875,129.44395742049585L67.77351953125,132.5434200167656L67.7987919921875,132.55260259371536L69.412619140625,133.1071807375321L70.61306103515625,133.5800286714847L70.7087353515625,133.6089884822185L71.362208984375,133.92079844383093L71.55897314453125,133.99527348463351L71.58424560546875,134.00846506999088L71.723244140625,134.06300462667758L71.93083935546875,135.0250165095696L72.199810546875,136.14116421571146L72.3045107421875,136.03624018797507L72.32075732421876,136.09446007930316L72.45795068359374,136.45456885374512L72.64929931640624,136.48458366669144L72.66374072265624,136.47915040529693L72.791908203125,136.53416471297925L73.00311376953125,136.58393241350467L73.181826171875,136.7452057324923L73.18363134765625,136.74060024206455L73.25222802734375,136.75067145549335L73.615068359375,136.78846893860745L73.62048388671874,136.78189546328323L73.75226171875,136.74745369874515L74.15842626953126,136.9164975147981L74.27395751953124,136.89461027658905L74.43281298828126,136.9121395441202L74.58986328124999,137.0148967596201L74.7198359375,137.08176766909088L74.958119140625,137.1356174166386L75.54480126953125,137.3587260383826L76.2614560546875,137.4627208526318L76.41489599609376,138.05900404544977L76.46544091796875,138.15612105681348L76.67123095703126,139.04441668895575L77.33553564453125,139.194920869974L77.87347802734375,139.35416128085208L77.89152978515625,139.35084613928427L77.97095751953125,139.35728165278067L78.01789208984376,139.31442421674728L78.14064404296876,139.3236189667995L78.27603222656249,139.3816278576851L78.39517382812501,139.449273788012L78.59915869140625,139.5702784840877L78.83383154296875,139.48378859116482L78.8536884765625,139.49629036738324L78.8897919921875,139.51198555414493L79.31761865234375,139.68966415753732L79.694900390625,139.764626122438L79.93859912109376,139.8023059322284L79.94220947265624,139.80707778838965L80.01080615234375,139.83062056853223L80.05232519531249,139.84655110194134L80.5505537109375,139.9583732210673L80.72746093750001,140.0099303676532L80.74190234375001,140.0183987892591L81.0560029296875,140.97617037479694L81.11557373046875,141.38093414673438L81.24915673828124,141.15756583213806L81.6914248046875,141.20410766051364L81.83403369140625,141.3185185927611L81.94053906250001,141.42842547710126L82.70051806640625,141.61986374396545L82.76369921875,141.6418443092933L82.8972822265625,141.61737231566357L83.15903271484375,141.70680404167908L83.319693359375,141.70385815088565L83.586859375,141.8451310625443L83.88832373046876,141.89345016387793L84.4786162109375,142.02895302497424L84.48042138671875,142.0273989255612L84.53638183593749,142.03319738002924L85.10140185546875,142.11688340168732L85.12306396484374,142.1237084544622L85.13028466796875,142.11963858054233L85.13208984375001,142.1208883523941L85.33968505859374,139.49930118138974L85.7566806640625,143.16770821122023L85.93358789062499,143.04842398029106L85.99676904296874,143.0367946097484L86.3343369140625,143.19765607210306L86.49860791015624,143.25564873218536L86.59247705078126,143.2627679682695L87.44090966796874,143.44388344425423L87.464376953125,143.4474724806272L87.630453125,143.50438173459125L87.68280322265626,143.53319343924522L88.40126318359376,143.65692085256944L88.44819775390626,143.6821455497008L88.56733935546875,143.6814435674594L88.81825878906251,143.73370472513713L88.9301796875,143.72721037497888L89.30565625,143.77924633026123L89.3345390625,143.7821029516367L89.4681220703125,143.8026734659305L89.55838085937499,143.80825889110565L89.95190917968749,144.49831554981378L90.2696201171875,144.90597854898525L90.31655468749999,144.89522564181914L90.57469482421875,145.01258043600964L90.699251953125,145.05370523379398L90.85088671875,145.18579353965248L91.10902685546876,145.17754423389067L91.36536181640625,145.1279449279492L91.53504833984375,145.14295436327274L91.56032080078124,145.15029677290184L92.79867138671875,145.3759637750112L92.865462890625,145.35359367040488L93.32217236328124,145.39231225160452L93.65432470703125,145.42473530998598L93.75541455078124,145.4616360412194L93.87816650390624,145.48022842636476L94.18504638671875,145.51325405331758L94.2446171875,145.49773334769102L94.656197265625,146.13882167293477L94.84935107421875,146.02922926040796L95.0569462890625,145.97601860073897L95.24648974609374,146.13168620604736L95.48477294921875,146.14248171907204L95.49921435546875,146.14882796315047L95.73749755859374,146.13238413058795L95.95050830078124,146.15624949794548L95.999248046875,146.16366088848847L96.0028583984375,146.17155717427914L96.16532421875,146.21558728584876L96.2916865234375,146.18100553063246L96.35306250000001,146.18858734460977L96.403607421875,146.20646760326164L96.99028955078124,146.26219809513825L97.0065361328125,146.26457996551807L97.0281982421875,146.27444017850436L97.06249658203124,146.29273635149002L97.09318457031249,146.29527647220172L97.1906640625,146.30302262306213L97.212326171875,146.30488713658775L97.25745556640625,146.30465584764113L97.3242470703125,146.31030010947813L97.5119853515625,146.32550228559055L97.54628369140624,146.34369498720537L97.73582714843751,146.3804983336192L98.13477099609375,146.41650839952322L98.1726796875,146.4243600506049L98.4290146484375,146.44438074643796L98.56259765625,146.45683991679778L98.89475,147.37969295795148L99.8875966796875,147.38052478661905L99.92550537109375,147.3863901931506L99.93994677734375,147.36364475121866L99.9670244140625,147.32131278744112L100.158373046875,147.2982264986405L100.3208388671875,147.33177556899878L100.678263671875,147.34595317565478L100.69089990234374,147.34755393862724L100.8190673828125,147.40974226135475L101.0068056640625,147.41720843085875L101.03749365234376,147.4251229763031L101.15844042968749,147.43683755856293L101.53572216796874,147.44816665924515L101.588072265625,147.45313531389604L102.22710449218751,147.52900620377983L102.28125976562501,147.529468781673L102.47621875,147.56168489731277L102.62604833984375,147.56154490663457L102.72894335937501,147.54918717879517L103.26147021484375,147.28036247079189L103.7181796875,148.09033027520547L103.7795556640625,147.97825252092804L104.27597900390626,148.10676802121677L104.47815869140625,148.16886301682544L105.04859423828125,148.32363792795402L105.49447265625001,148.43041023841272L105.52335546875,148.42500740977434L106.00172705078124,148.44542170258669L106.21834814453125,148.43154436579118L106.4728779296875,148.4512526186613L106.5162021484375,148.47525391899623L107.04150830078126,148.49957374884534L107.77440966796875,149.67827699963863L107.82495458984374,149.81839346656432L107.9170185546875,149.58664599978007L108.09212060546875,149.38574314575928L108.1480810546875,149.27068501023146L108.15710693359375,149.32991324021268L108.34845556640626,149.281817312424L108.84668408203125,149.23012829056154L109.21493994140624,149.25179844177688L109.48030078125,149.28521157915776L109.50918359375,149.28955129018198L109.516404296875,149.29391128971028L109.57597509765625,149.32150974181982L109.61207861328124,149.3034387712295L109.74385644531249,149.3204547396073L110.18973486328125,149.32360960199284L110.55799072265626,149.36427182188402L110.60673046875,149.35772472161514L110.73309277343749,149.3592504171225L111.090517578125,149.41212834532445L111.11940039062499,149.41662630668054L112.16459716796875,150.49054349156526L112.73503271484375,149.75698016469295L112.76752587890626,149.744023925983L113.14661279296875,149.8328206218206L113.6935810546875,149.97166905724086L114.22971826171874,150.0088741160356L114.66296044921874,150.0704720432942L114.7261416015625,150.08762597349974L114.82362109375,150.13023386093286L114.88138671875,150.14480506456817L115.011359375,150.17383791391666L115.06009912109374,150.19307953119278L115.06731982421874,150.1894458601108L115.1810458984375,150.16864202801997L115.5204189453125,150.18071774565257L115.6648330078125,150.2077055137891L115.89409033203124,150.20547986489075L115.9067265625,150.2025278875461L115.986154296875,150.2182007569533L116.08182861328126,150.22397689406688L116.58908300781249,150.2515692596252L116.98080615234375,150.48467808503372L117.00607861328125,150.5497575195936L117.27324462890626,150.62585361187274L117.89783544921876,150.95254722008337L117.91408203125,150.9189961208747L118.00975634765625,150.85980846790167L118.253455078125,150.8399460224005L118.52603662109375,150.84613401614703L119.2029775390625,150.85462475510744L119.30587255859375,150.87865648819852L119.4484814453125,150.85338918520856L119.5134677734375,150.85413783100935L119.71745263671875,150.86129358640085L119.74633544921875,150.86423541949344L119.8889443359375,150.8649191420812L120.044189453125,150.89722452713895L121.3836298828125,150.79686338397173L121.4919404296875,150.90596684355003L121.52804394531249,150.8867252262739L121.8313134765625,151.04985697223592L122.0046103515625,151.16285988229973L122.10028466796874,151.15263650509027L122.15624511718751,151.15655421522948L122.2212314453125,151.1589908645703L122.29163330078124,151.20336790955986L122.54074755859374,151.25916941120076L122.65808398437501,151.2935482813762L122.69960302734376,151.307585897354L122.89095166015625,151.31790665938306L123.0804951171875,151.326196542153L123.163533203125,151.3293960392475L123.69606005859374,151.36955510423732L124.27732666015625,151.46722193406177L125.04994189453124,151.55866222198193L125.14742138671875,151.56113944833095L125.19255078125,151.5610319192593L125.4200029296875,151.56503281226526L126.37494091796876,151.7049768269062L126.46519970703125,151.7270101423447L126.6330810546875,151.78036079269188L126.66196386718751,151.75821589048093L126.716119140625,151.74927474672978L126.84789697265626,151.75525782658505L127.4995654296875,151.85823415792908L127.842548828125,151.90586953667494L128.131376953125,151.936712120588L128.41117919921876,151.9516140268399L128.57906054687498,151.97003801740135L128.67834521484374,151.96360250390495L128.78665576171875,151.9635517826447L129.52316748046874,152.01192363408896L129.60981591796875,152.01455911076988L129.62425732421875,152.01770585775375L129.89142333984375,152.0520380643698L129.9762666015625,152.06767644332004L130.095408203125,153.09945237636566L130.4022880859375,152.61370501151453L130.50157275390626,152.62507063150406L130.6116884765625,152.63034361371626L130.89510107421876,152.43703677562567L130.92759423828124,152.4990709057221L131.20559130859374,152.53060329877414L131.60995068359375,152.4723671766428L131.669521484375,152.46636786598427L131.94571337890625,152.50582697758307L131.972791015625,152.50194375790085L132.62445947265624,152.58470462377255L133.05409130859374,152.62396896573213L133.0667275390625,152.61839571365942L133.0739482421875,152.62132334479918L133.0811689453125,152.6226765880218L133.33569873046875,152.6376170424315L133.41512646484375,152.63220204069066L133.71478564453125,152.6491206242488L133.74186328125,152.64824821857306L133.77977197265625,152.6536469895106L133.806849609375,152.65799684478688L134.0198603515625,152.66445670448817L134.832189453125,152.70703213031476L135.04158984375002,152.98927768377158L135.2762626953125,152.95914519750156L135.35749560546876,152.96270582996883L135.7383876953125,153.00887434986922L135.92973632812502,152.92700617817732L135.93515185546875,152.9247845869798L135.98208642578123,152.94468760948914L136.038046875,152.96063234485115L136.37019921875,152.9966322665031L136.384640625,152.99798956742654L136.6770791015625,152.9774190531327L136.77275341796874,152.9910326393751L137.359435546875,153.0101951314853L137.8035087890625,153.01451658285583L138.110388671875,153.04451110729804L138.1356611328125,153.04717498788466L138.29271142578125,153.0574693748584L138.615837890625,153.0431436621226L138.67540869140626,153.04273586319042L138.99853515625,151.97212773332228L139.54008789062502,153.33476656216843L139.5509189453125,153.35158370320613L139.87404541015624,153.39910546632913L140.37227392578123,153.48988434901605L141.33804296875,153.55585850660617L141.59979345703124,153.56937673687935L141.80919384765625,153.60394429014278L141.9626337890625,153.60435208907495L142.10343749999998,153.59582077310634L142.15217724609374,153.5883038823421L142.18286523437502,153.57815963029861L142.66484716796876,153.5967885347513L143.08725830078126,153.60813589508717L143.1721015625,153.6153930929991L143.39052783203124,153.62926231439297L143.76600439453125,154.11664899037433L143.82015966796877,154.01544993198837L143.9411064453125,153.8766927948365L144.738994140625,154.02463859548936L144.7498251953125,154.01676665590358L144.78953906249998,153.99665060410132L144.9520048828125,153.99208163298096L145.273326171875,154.0038063594928L146.44127490234374,154.07162271325404L146.5911044921875,154.07794055342674L146.71927197265626,154.09486522353615L147.01171044921875,154.09508636823068L147.18500732421873,154.09652076546962L147.44856298828125,154.1156589113749L148.277138671875,154.3531054189572L148.42155273437498,154.440031514718L148.95768994140624,154.36080693510863L149.013650390625,154.3597093270375L149.02809179687497,154.35616695422394L149.60394287109375,154.32657414216263L149.87471923828124,154.32292221142697L150.22853369140626,154.3188300201526L150.47764794921875,154.31861090430846L150.60401025390627,154.31225857367883L150.6058154296875,154.31311880625213L150.7574501953125,154.3363592876838L151.04266796875,154.33504053491814L151.3928720703125,154.34660498224773L151.61490869140624,154.35125307853406L151.81347802734376,154.38105486218745L152.0427353515625,154.3778005861319L152.559015625,155.0363471691425L152.5770673828125,155.01656384880727L152.8767265625,154.85494765410056L153.2413720703125,154.84742467678512L153.53922607421873,154.85445261460083L153.8840146484375,154.85144991599597L153.96885791015623,154.83372587882556L154.1186875,154.83210888504982L154.25407568359375,154.82885460899425L154.31003613281248,154.8352921513411L154.5266572265625,154.85137079083003L154.60247460937498,154.8581999013057L154.7216162109375,154.82377233872046L155.079041015625,154.800905165764L155.33537597656252,154.81725567120773L155.78486474609375,154.82169682475237L156.41487109374998,154.857382274591L156.66759570312502,154.85174409930522L156.95822900390627,155.23717495569815L157.00877392578124,155.1411372927519L157.0900068359375,155.1838080745477L157.84637548828124,155.1734325335576L157.90775146484376,155.2000388778173L157.97815332031252,155.23406878572243L159.33203515625,155.180523365736L159.3645283203125,155.19031256895798L159.53963037109375,155.1866078881117L159.6316943359375,155.1861189351632L159.78152392578124,155.20248972911102L159.92232763671873,155.18125172303272L160.5342822265625,155.20872235756653L160.64078759765624,155.2087872807796L160.97113476562498,155.21177577743163L160.9964072265625,155.20724941216983L161.48380468750003,154.65932792654405L161.52171337890624,154.85013522093112L161.85747607421877,155.26094902478732L161.96037109374998,155.23626805956548L162.10297998046877,155.25031784864572L162.314185546875,155.29947283634772L163.30161669921876,155.40948724975954L163.3575771484375,155.38452427433086L163.51462744140625,155.36733179596754L163.65182080078125,155.3695594737163L164.119361328125,155.408665565344L164.26558056640624,155.41233169803252L164.83962646484378,155.4124189386001L165.04541650390624,155.41656590883548L165.27286865234376,155.4391470138843L165.31980322265625,155.43878587851157L165.52920361328125,155.43728655805955L165.80720068359375,155.45986157655716L165.90829052734375,155.6805761548189L166.0003544921875,155.70381663625056L166.040068359375,155.83236256929544L166.09963916015624,155.75293104694438L166.1447685546875,155.73855258409793L166.57440039062502,155.73307468799445L166.61411425781247,155.7255577972302L166.61772460937502,155.72426947722067L166.8018525390625,155.7485203261559L166.80726806640627,155.7431377860216L167.08526513671876,155.81881390626614L167.38311914062498,155.8506546845803L167.6538955078125,155.82623544106116L167.89939941406251,155.8269009039952L168.20627929687498,155.82954652492816L168.45719873046875,155.82981636203252L169.3074365234375,155.85756494907233L169.31646240234375,155.85125319545085L169.4013056640625,155.8595369916696L169.5096162109375,155.85392924913992L169.55113525390624,155.8535478252631L169.708185546875,155.858561114623L170.02589648437498,155.86000159841316L170.03853271484374,155.8572849677159L171.24980566406248,156.0473963664128L171.3147919921875,156.0593564395721L171.74622900390622,155.97568867756772L171.802189453125,155.99211019277573L172.3401318359375,156.01126051178346L172.372625,156.01499156768506L172.5170390625,156.0376213651437L172.75171191406253,156.06512243243364L173.16870751953127,156.0788922401575L173.39977001953125,156.09326664530315L173.47739257812498,156.10007546727473L173.69220849609374,156.09255248995927L174.0767109375,156.12738582262625L174.16877490234376,156.1250201830497L174.42872021484374,156.13610176398205L174.51356347656252,156.1340607404709L174.5713291015625,156.13677940001855L174.72476904296875,156.1406362446455L174.93416943359375,156.01886261426486L174.9468056640625,155.90550871308034L174.96666259765627,155.92477670541177L175.46128076171877,156.13142323493958L175.68873291015626,156.18550630028432L175.93423681640624,156.2967583124454L176.06059912109376,156.2760944710328L176.264583984375,156.31526345702318L176.55160693359375,156.33372599574236L176.7303193359375,156.38248738646507L177.15273046874998,156.39102073128407L177.28450830078125,156.38328066697488L177.38740332031247,156.39021730652223L178.30804296875,156.42315163520666L178.430794921875,156.4192684155244L178.56979345703124,156.40764107383214L178.59506591796875,156.40913227888254L178.66546777343748,156.41747491176312L178.72323339843751,156.41092984034466L179.27200683593747,156.69839359705264L179.46877099609375,156.36017408967018L179.7918974609375,156.56273451447487L179.83341650390625,156.55163467388886L180.18001025390623,156.60486562206196L180.47425390625,156.651563671919L180.51577294921876,156.64833982861958L180.57534375,156.64814911668117L180.582564453125,156.6478995680809L180.69990087890625,156.67836884351877L180.8172373046875,156.70228087443573L181.153,156.70830250244873L181.22340185546875,156.71462642917265L181.25228466796872,156.71135998001466L181.51222998046873,156.7271099457374L181.55916455078125,156.72252474381375L181.62595605468752,156.73305041973407L182.01045849609378,156.72771860086002L182.31733837890624,156.7403563100558L182.35163671875,156.74381550000263L182.53576464843752,156.73757881384628L183.01233105468748,156.72962166254337L183.21631591796876,156.72416811264478L183.27949707031252,156.73231800473653L184.04308642578124,156.97265765300165L184.27414892578125,156.88943623808714L185.45834423828126,156.91883833821004L185.51972021484377,156.91084060989894L185.62983593750002,156.9318189231249L185.6623291015625,156.92826031950804L186.070298828125,156.91081829254443L186.16416796874998,156.91417401112042L186.41689257812502,156.95412816221898L186.85555029296876,156.96740293044311L187.31045458984377,156.9788983968588L187.601087890625,156.98257061609854L187.687736328125,156.9877096941838L188.03794042968752,156.99305368616032L188.0957060546875,156.99278587790636L188.45132568359375,157.0446331501007L188.4784033203125,157.03288407738393L188.597544921875,157.16864866018295L188.82499707031252,157.05603123169678L188.97843701171874,157.02832727936598L189.07591650390626,157.03934596593564L189.21672021484375,157.10183861622443L189.58136572265624,157.15825891724L189.63913134765625,157.16063470106857L189.70592285156252,157.16590159672958L189.8503369140625,157.19569526498134L190.12291845703123,157.16416692963014L190.46229150390624,157.18176720692563L190.518251953125,157.17734837073547L190.57782275390625,157.17450189361205L190.78361279296874,157.19721487393747L190.8973388671875,157.19676852684753L191.32336035156248,157.22020377791844L191.37571044921876,157.22492897052032L192.16637744140627,157.22480318179498L192.50936083984377,157.2118652027387L192.5219970703125,157.2152959887798L192.75847509765626,157.48915224579665L192.78194238281247,157.24724632501602L192.86498046875,157.42048580371417L192.9119150390625,157.3130886073296L193.17005517578127,157.3833010334235L193.8650478515625,157.345878887635L193.96794287109375,157.36135090085176L194.15929150390625,157.39427508528416L194.2766279296875,157.403889807371L194.35786083984377,157.40993578158893L194.6521044921875,157.42199526841824L195.1286708984375,157.48184229777408L195.20809863281252,157.48117277713922L195.63592529296875,157.50215920576682L195.7568720703125,157.49752531143335L196.17747802734374,157.5259170440527L196.34355419921874,157.51771845955116L196.43200781250002,157.52014902234077L196.62516162109375,157.5148354631204L197.23892138671874,157.47062072616356L197.392361328125,157.7395996267979L197.42124414062502,157.67415499916444L198.1108212890625,157.71605887550575L198.14150927734374,157.72976173116612L198.34188378906248,157.72686250393207L198.37618212890627,157.72969680795302L198.5224013671875,157.7252860871645L198.634322265625,157.74981894630653L198.9989677734375,157.73110077243584L199.38347021484375,157.74143370756735L200.50989990234376,157.75040934177545L200.54600341796876,157.75120667998607L200.91786962890626,157.78219331227817L201.23197021484376,157.76827742732488L201.50274658203125,157.76908896748836L201.53885009765625,157.7741550069589L201.54426562499998,157.77198007932077L201.6561865234375,157.90159724538142L201.69770556640623,158.04806198523593L201.70312109375,158.14051264065964L202.35117919921876,157.8491514623165L202.39811376953125,157.8943806244777L202.7392919921875,157.93720762775493L203.4974658203125,157.9272419145474L203.60397119140626,157.90538510909448L203.60758154296875,157.9064867748664L203.6635419921875,157.91148586227345L203.79170947265627,157.9449558074658L204.21412060546874,157.9514887057818L204.38922265625,157.97087640028732L204.83690625000003,157.9808745751014L205.6131318359375,157.9647817336596L205.9019599609375,157.9616349866757L206.47781103515626,158.16093707772401L206.55723876953127,158.16370442968147L206.75941845703124,158.11931926929034L207.20710205078126,158.2236102956992L207.400255859375,158.1685330936542L207.65117529296876,158.1763441677277L207.69991503906252,158.19164981521092L207.92917236328125,158.19205355644226L208.1764814453125,158.19985042856288L208.2775712890625,158.24564969768892L208.3353369140625,158.2333122583536L208.46350439453124,158.24363504923306L209.14947119140626,158.22596376217328L209.3101318359375,158.22623968582886L209.35165087890627,158.23202393834407L209.9455537109375,158.2298875588637L210.08996777343748,158.23647117843996L210.24160253906248,158.2451343696851L210.31380957031251,158.24067292763638L210.36796484375,158.25043778465343L210.48530126953125,158.26261900250728L210.54306689453125,158.25791004070868L211.23986474609376,158.35857956913802L211.48897900390625,158.3727794931485L211.61534130859374,158.38151775185878L211.74170361328123,158.3810064815558L211.95832470703124,158.34466977073598L212.03775244140624,158.36148082522246L212.28325634765625,158.3207739706223L212.3861513671875,158.33341370866847L212.54681201171874,158.3454021857335L212.64429150390626,158.3517890068201L212.78870556640624,158.34850024030757L212.98727490234376,158.36225584607857L213.00532666015624,158.3642441194791L213.263466796875,158.36715957751642L213.39524462890626,158.3744979294447L213.74183837890627,158.37588160542342L213.86820068359376,158.3817591850574L213.956654296875,158.38393208384514L214.1046787109375,158.38081171191655L214.37364990234377,158.3714445095796L214.79967138671876,158.37383043766022L214.9170078125,158.37789219617844L215.73114208984373,158.59241472299283L215.76905078125,158.58694697114137L215.92249072265625,158.54620562608426L215.92610107421874,158.54888167977333L216.41349853515626,158.5487579198984L217.13556884765623,158.47473531273695L217.20597070312502,158.48621251949896L217.50562988281249,158.49958264369232L217.64462841796873,158.50627987889143L217.6861474609375,158.50369512347075L217.97858593750001,158.52500413931332L218.17173974609375,158.51969463779378L218.22950537109375,158.52020185039592L218.27824511718748,158.5284004348975L218.29449169921875,158.53294100211215L218.4226591796875,158.54317858127447L218.55804736328125,158.5406202009091L218.707876953125,158.5350428911356L218.85048583984374,158.52799060711493L219.03280859375,158.53442612061133L219.068912109375,158.5337423980236L219.20610546875,158.53426787027945L219.30900048828124,158.54566595187555L219.328857421875,158.54748583069215L220.094251953125,158.48720868504964L220.13035546875,158.53810848410313L220.78743945312502,158.7014187689011L221.090708984375,158.70707723269095L221.1520849609375,158.723409478481L221.20985058593752,158.72533079981804L221.307330078125,158.72234636086685L221.4697958984375,158.71699425348868L221.82180517578126,158.77269431260916L221.877765625,158.76865690029584L221.97705029296876,158.7825687275483L222.04023144531251,158.76800158161385L222.058283203125,158.76323986970462L222.41029248046877,158.77364990115166L222.6106669921875,158.75315648317337L222.87241748046873,158.77483272093994L222.97170214843752,158.77469273026173L223.3543994140625,158.77302095752495L223.747927734375,158.77596076176715L224.34183056640626,159.06983365691624L224.44653076171875,159.05599689712892L225.11444580078125,159.0216017961502L225.30218408203126,158.9872026374707L225.32745654296875,158.99645622418475L225.3617548828125,158.98699975242982L225.43576708984375,158.97099415155557L225.46103955078124,158.97494838100212L225.4881171875,158.97430523542258L225.51158447265624,158.97423219680786L225.581986328125,158.98413907335353L225.65419335937503,158.98502770983256L225.67043994140627,158.98675629038078L225.7733349609375,158.98360548569607L225.8166591796875,158.9670541240619L226.12353906250002,158.9920049263881L226.1271494140625,158.9959733577875L226.43222412109375,158.98814199520993L226.74993505859373,158.99533629875916L226.91601123046874,158.98483902674454L227.04598388671877,158.97620626825554L227.07125634765626,158.97430929312338L227.4196552734375,158.9602026962317L227.83304052734374,158.96621215114226L227.935935546875,158.9699756686504L228.15797216796872,158.95788169136415L228.47568310546876,159.1428743004799L228.65620068359377,159.36228838562965L228.8421337890625,159.25694438585867L229.4450625,159.19291386696008L230.63828369140626,159.12666378571438L230.71049072265626,159.1260896210487L230.77006152343748,159.0992276416375L231.1022138671875,159.06590174482417L231.8748291015625,159.08481063063329L232.12213818359376,159.10181645475902L233.04638818359376,159.30840414762497L233.30633349609377,159.38491209653708L233.308138671875,159.38525902995696L233.41283886718747,159.31458808367069L233.77387402343751,159.26063892245293L233.91648291015625,159.29741995151227L234.35333544921875,159.27550633824788L234.78838281249998,159.28967177180144L235.01944531249998,159.290414331051L235.07901611328126,159.30420848497977L235.22704052734375,159.31690908853824L235.42922021484375,159.30504437134815L235.53753076171876,159.31542194118867L235.73248974609376,159.3360411478923L235.79747607421876,159.35317276074338L235.8317744140625,159.35641283484605L236.0050712890625,159.3596387069959L236.0844990234375,159.3719294827718L236.83003662109377,159.37271261902956L236.90404882812498,159.37570314453197L237.06290429687502,159.37044436427263L237.46365332031252,159.59693710849834L237.52863964843752,159.48326873550047L237.73984521484374,159.32639396419893L238.08102343750002,159.39542154165414L238.131568359375,159.39695332371272L239.13344091796876,159.43074991382085L239.48364501953125,159.432557619535L239.554046875,159.44115182986627L239.91327685546875,159.4521218240261L240.67145068359375,159.51387597276616L240.92598046875,159.51343571222745L241.1534326171875,159.52100738195273L241.4278193359375,159.52914712979245L241.85925634765624,159.5392163143708L242.42247119140623,159.7611319720745L242.723935546875,159.67016237744917L242.738376953125,159.67664455450497L243.16439843749998,159.6774216042115L243.37560400390626,159.67022527181186L243.87383251953125,159.68025590823245L243.96950683593752,159.68249170138287L244.61395458984376,159.68608479545665L244.63561669921876,159.68575815054086L245.08149511718747,159.6713309952846L245.09413134765623,159.67437427089763L245.28547998046875,159.67324217236958L245.57611328124997,159.66597280135522L245.7385791015625,159.67853138538507L246.204314453125,159.68542947677466L246.3234560546875,159.6956711136378L246.63214111328125,159.74537591980052L246.72059472656252,159.69519230494132L246.78919140625,159.62047988864092L246.8505673828125,159.6269113444365L246.9191640625,159.65696267669017L246.98956591796875,159.62676323835666L247.19896630859373,159.63717732750453L247.2693681640625,159.64488290135677L247.33977001953127,159.6568936957763L247.36504248046873,159.6436047255993L247.39573046875,159.6555972603651L247.590689453125,159.71280272648883L247.62679296874998,159.71525763548337L247.6881689453125,159.72400198074487L247.79286914062502,159.73241359453934L248.457173828125,159.81405453498547L248.54923779296877,159.81166657805443L248.8001572265625,159.83083718556625L249.0095576171875,159.81515011420618L249.4066962890625,159.8419045645457L249.45904638671877,159.8353310892215L250.291232421875,159.82874746964526L250.75516259765627,159.84103013001956L250.8075126953125,159.84501479222226L250.91762841796876,160.0554715028176L251.46640185546877,159.9873335762666L251.76967138671876,160.07429822018514L252.688505859375,159.9710165468546L252.71558349609373,159.97868154369868L253.251720703125,160.03529864320387L254.26803466796875,160.0177896641768L254.37634521484375,160.012891004865L254.87818408203125,160.03356397610443L254.87998925781253,160.03170250585447L255.08036376953123,160.02382549414267L255.13090869140626,160.02666892799047L255.18506396484375,160.02920904870217L255.259076171875,160.03576223552227L255.46847656249997,159.94479974187337L255.6020595703125,159.97720656945157L256.038912109375,160.01173861783283L256.1147294921875,159.99881991285545L256.1797158203125,159.99043264526588L256.5100629882812,160.041156948759L256.70682714843747,160.0158541408869L256.76278759765626,160.03538791262187L256.8891499023438,160.06229148346645L257.2917041015625,160.05522601191814L257.45958544921876,160.06176093908456L257.48124755859374,160.06783125950741L257.67079101562496,160.048851363934L258.26469384765625,160.0855999313868L259.13478857421876,160.10809379586806L259.2412939453125,160.11191919331367L259.2846181640625,160.11245582424678L259.34418896484374,160.10864361432883L260.13305078125,160.24369404178398L260.2521923828125,160.2415262151223L260.3027373046875,160.25594119727612L260.342451171875,160.28078852823148L260.9074711914063,160.3178951877814L261.23059765625,160.29437269614291L261.31905126953126,160.28670567044844L261.324466796875,160.28649365558076L261.3443237304687,160.2869947816317L261.42375146484375,160.28078954265666L261.82991601562503,160.30852899986965L262.2757944335937,160.32618912825217L263.3083549804687,160.34116711639442L264.35896728515627,160.4380031319765L264.645990234375,160.43305476582967L264.797625,160.44737236316388L265.24530859375,160.46147084465395L265.34098291015624,160.47312861910234L265.5377470703125,160.44949149741578L265.77783544921874,160.43225539876866L266.10998779296875,160.4077793474381L266.34105029296876,160.42302717268467L266.436724609375,160.43852758980714L266.5125419921875,160.42696517132796L266.70930615234374,160.40257230286414L266.7219423828125,160.40211073939616L266.77970800781253,160.39727801772264L266.83747363281253,160.39996218681335L266.9475893554688,160.40885362372947L266.98008251953127,160.40075648174835L267.3700004882812,160.39183562650132L267.7165942382813,160.39049049868035L267.90433251953124,160.3824846549676L268.01625341796876,160.38659814917125L268.3303540039062,160.39908065131078L268.7058305664063,160.41674686624455L268.71124609375,160.41709684294003" style="fill: none;" fill="none"></path></g></g></g></g></g></g><g transform="translate(41, 177)" clip-path="url(#clip_1)"><clipPath id="clip_1"><rect width="288" height="23"></rect></clipPath><g><g><line x1="0" y1="0" x2="0" y2="5" style="visibility: inherit;" fill="rgb(0, 0, 0)" stroke="rgb(204, 204, 204)" stroke-width="1px"></line><line x1="36.103515625" y1="0" x2="36.103515625" y2="5" style="visibility: inherit;" fill="rgb(0, 0, 0)" stroke="rgb(204, 204, 204)" stroke-width="1px"></line><line x1="72.20703125" y1="0" x2="72.20703125" y2="5" style="visibility: inherit;" fill="rgb(0, 0, 0)" stroke="rgb(204, 204, 204)" stroke-width="1px"></line><line x1="108.310546875" y1="0" x2="108.310546875" y2="5" style="visibility: inherit;" fill="rgb(0, 0, 0)" stroke="rgb(204, 204, 204)" stroke-width="1px"></line><line x1="144.4140625" y1="0" x2="144.4140625" y2="5" style="visibility: inherit;" fill="rgb(0, 0, 0)" stroke="rgb(204, 204, 204)" stroke-width="1px"></line><line x1="180.517578125" y1="0" x2="180.517578125" y2="5" style="visibility: inherit;" fill="rgb(0, 0, 0)" stroke="rgb(204, 204, 204)" stroke-width="1px"></line><line x1="216.62109375" y1="0" x2="216.62109375" y2="5" style="visibility: inherit;" fill="rgb(0, 0, 0)" stroke="rgb(204, 204, 204)" stroke-width="1px"></line><line x1="252.724609375" y1="0" x2="252.724609375" y2="5" style="visibility: inherit;" fill="rgb(0, 0, 0)" stroke="rgb(204, 204, 204)" stroke-width="1px"></line><line x1="288.828125" y1="0" x2="288.828125" y2="5" style="visibility: inherit;" fill="rgb(0, 0, 0)" stroke="rgb(204, 204, 204)" stroke-width="1px"></line></g><g transform="translate(0, 8)"><text x="0" y="0" dx="0em" dy="0.95em" style="text-anchor: middle; visibility: hidden; font-family: Roboto, sans-serif; font-size: 12px; font-weight: 200;" fill="rgb(33, 33, 33)" stroke="none" stroke-width="1px">-20k</text><text x="36.103515625" y="0" dx="0em" dy="0.95em" style="text-anchor: middle; visibility: inherit; font-family: Roboto, sans-serif; font-size: 12px; font-weight: 200;" fill="rgb(33, 33, 33)" stroke="none" stroke-width="1px">0</text><text x="72.20703125" y="0" dx="0em" dy="0.95em" style="text-anchor: middle; visibility: inherit; font-family: Roboto, sans-serif; font-size: 12px; font-weight: 200;" fill="rgb(33, 33, 33)" stroke="none" stroke-width="1px">20k</text><text x="108.310546875" y="0" dx="0em" dy="0.95em" style="text-anchor: middle; visibility: inherit; font-family: Roboto, sans-serif; font-size: 12px; font-weight: 200;" fill="rgb(33, 33, 33)" stroke="none" stroke-width="1px">40k</text><text x="144.4140625" y="0" dx="0em" dy="0.95em" style="text-anchor: middle; visibility: inherit; font-family: Roboto, sans-serif; font-size: 12px; font-weight: 200;" fill="rgb(33, 33, 33)" stroke="none" stroke-width="1px">60k</text><text x="180.517578125" y="0" dx="0em" dy="0.95em" style="text-anchor: middle; visibility: inherit; font-family: Roboto, sans-serif; font-size: 12px; font-weight: 200;" fill="rgb(33, 33, 33)" stroke="none" stroke-width="1px">80k</text><text x="216.62109375" y="0" dx="0em" dy="0.95em" style="text-anchor: middle; visibility: inherit; font-family: Roboto, sans-serif; font-size: 12px; font-weight: 200;" fill="rgb(33, 33, 33)" stroke="none" stroke-width="1px">100k</text><text x="252.724609375" y="0" dx="0em" dy="0.95em" style="text-anchor: middle; visibility: inherit; font-family: Roboto, sans-serif; font-size: 12px; font-weight: 200;" fill="rgb(33, 33, 33)" stroke="none" stroke-width="1px">120k</text><text x="288.828125" y="0" dx="0em" dy="0.95em" style="text-anchor: middle; visibility: hidden; font-family: Roboto, sans-serif; font-size: 12px; font-weight: 200;" fill="rgb(33, 33, 33)" stroke="none" stroke-width="1px">140k</text></g><line x1="0" y1="0" x2="288.828125" y2="0" fill="rgb(0, 0, 0)" stroke="rgb(204, 204, 204)" stroke-width="1px"></line></g></g></g></g></svg>