<svg viewBox="0 0 330 200" xmlns="http://www.w3.org/2000/svg"><g><g><g><g><g><line x1="41.171875" y1="164.7192409749507" x2="36.171875" y2="164.7192409749507" style="visibility: inherit;" fill="rgb(0, 0, 0)" stroke="rgb(204, 204, 204)" stroke-width="1px"></line><line x1="41.171875" y1="151.7979576806584" x2="36.171875" y2="151.7979576806584" style="visibility: inherit;" fill="rgb(0, 0, 0)" stroke="rgb(204, 204, 204)" stroke-width="1px"></line><line x1="41.171875" y1="138.8766743863661" x2="36.171875" y2="138.8766743863661" style="visibility: inherit;" fill="rgb(0, 0, 0)" stroke="rgb(204, 204, 204)" stroke-width="1px"></line><line x1="41.171875" y1="125.9553910920738" x2="36.171875" y2="125.9553910920738" style="visibility: inherit;" fill="rgb(0, 0, 0)" stroke="rgb(204, 204, 204)" stroke-width="1px"></line><line x1="41.171875" y1="113.0341077977815" x2="36.171875" y2="113.0341077977815" style="visibility: inherit;" fill="rgb(0, 0, 0)" stroke="rgb(204, 204, 204)" stroke-width="1px"></line><line x1="41.171875" y1="100.11282450348918" x2="36.171875" y2="100.11282450348918" style="visibility: inherit;" fill="rgb(0, 0, 0)" stroke="rgb(204, 204, 204)" stroke-width="1px"></line><line x1="41.171875" y1="87.1915412091969" x2="36.171875" y2="87.1915412091969" style="visibility: inherit;" fill="rgb(0, 0, 0)" stroke="rgb(204, 204, 204)" stroke-width="1px"></line><line x1="41.171875" y1="74.27025791490458" x2="36.171875" y2="74.27025791490458" style="visibility: inherit;" fill="rgb(0, 0, 0)" stroke="rgb(204, 204, 204)" stroke-width="1px"></line><line x1="41.171875" y1="61.348974620612275" x2="36.171875" y2="61.348974620612275" style="visibility: inherit;" fill="rgb(0, 0, 0)" stroke="rgb(204, 204, 204)" stroke-width="1px"></line><line x1="41.171875" y1="48.42769132631997" x2="36.171875" y2="48.42769132631997" style="visibility: inherit;" fill="rgb(0, 0, 0)" stroke="rgb(204, 204, 204)" stroke-width="1px"></line><line x1="41.171875" y1="35.50640803202767" x2="36.171875" y2="35.50640803202767" style="visibility: inherit;" fill="rgb(0, 0, 0)" stroke="rgb(204, 204, 204)" stroke-width="1px"></line><line x1="41.171875" y1="22.585124737735352" x2="36.171875" y2="22.585124737735352" style="visibility: inherit;" fill="rgb(0, 0, 0)" stroke="rgb(204, 204, 204)" stroke-width="1px"></line><line x1="41.171875" y1="9.663841443443031" x2="36.171875" y2="9.663841443443031" style="visibility: inherit;" fill="rgb(0, 0, 0)" stroke="rgb(204, 204, 204)" stroke-width="1px"></line></g><g transform="translate(31.171875, 0)"><text x="0" y="164.7192409749507" dx="0em" dy="0.3em" style="text-anchor: end; visibility: inherit; font-family: Roboto, sans-serif; font-size: 12px; font-weight: 200;" fill="rgb(33, 33, 33)" stroke="none" stroke-width="1px">10</text><text x="0" y="151.7979576806584" dx="0em" dy="0.3em" style="text-anchor: end; visibility: hidden; font-family: Roboto, sans-serif; font-size: 12px; font-weight: 200;" fill="rgb(33, 33, 33)" stroke="none" stroke-width="1px">20</text><text x="0" y="138.8766743863661" dx="0em" dy="0.3em" style="text-anchor: end; visibility: inherit; font-family: Roboto, sans-serif; font-size: 12px; font-weight: 200;" fill="rgb(33, 33, 33)" stroke="none" stroke-width="1px">30</text><text x="0" y="125.9553910920738" dx="0em" dy="0.3em" style="text-anchor: end; visibility: hidden; font-family: Roboto, sans-serif; font-size: 12px; font-weight: 200;" fill="rgb(33, 33, 33)" stroke="none" stroke-width="1px">40</text><text x="0" y="113.0341077977815" dx="0em" dy="0.3em" style="text-anchor: end; visibility: inherit; font-family: Roboto, sans-serif; font-size: 12px; font-weight: 200;" fill="rgb(33, 33, 33)" stroke="none" stroke-width="1px">50</text><text x="0" y="100.11282450348918" dx="0em" dy="0.3em" style="text-anchor: end; visibility: hidden; font-family: Roboto, sans-serif; font-size: 12px; font-weight: 200;" fill="rgb(33, 33, 33)" stroke="none" stroke-width="1px">60</text><text x="0" y="87.1915412091969" dx="0em" dy="0.3em" style="text-anchor: end; visibility: inherit; font-family: Roboto, sans-serif; font-size: 12px; font-weight: 200;" fill="rgb(33, 33, 33)" stroke="none" stroke-width="1px">70</text><text x="0" y="74.27025791490458" dx="0em" dy="0.3em" style="text-anchor: end; visibility: hidden; font-family: Roboto, sans-serif; font-size: 12px; font-weight: 200;" fill="rgb(33, 33, 33)" stroke="none" stroke-width="1px">80</text><text x="0" y="61.348974620612275" dx="0em" dy="0.3em" style="text-anchor: end; visibility: inherit; font-family: Roboto, sans-serif; font-size: 12px; font-weight: 200;" fill="rgb(33, 33, 33)" stroke="none" stroke-width="1px">90</text><text x="0" y="48.42769132631997" dx="0em" dy="0.3em" style="text-anchor: end; visibility: hidden; font-family: Roboto, sans-serif; font-size: 12px; font-weight: 200;" fill="rgb(33, 33, 33)" stroke="none" stroke-width="1px">100</text><text x="0" y="35.50640803202767" dx="0em" dy="0.3em" style="text-anchor: end; visibility: inherit; font-family: Roboto, sans-serif; font-size: 12px; font-weight: 200;" fill="rgb(33, 33, 33)" stroke="none" stroke-width="1px">110</text><text x="0" y="22.585124737735352" dx="0em" dy="0.3em" style="text-anchor: end; visibility: hidden; font-family: Roboto, sans-serif; font-size: 12px; font-weight: 200;" fill="rgb(33, 33, 33)" stroke="none" stroke-width="1px">120</text><text x="0" y="9.663841443443031" dx="0em" dy="0.3em" style="text-anchor: end; visibility: inherit; font-family: Roboto, sans-serif; font-size: 12px; font-weight: 200;" fill="rgb(33, 33, 33)" stroke="none" stroke-width="1px">130</text></g><line x1="41.171875" y1="0" x2="41.171875" y2="177" fill="rgb(0, 0, 0)" stroke="rgb(204, 204, 204)" stroke-width="1px"></line></g></g><g transform="translate(41, 0)" clip-path="url(#clip_0)"><clipPath id="clip_0"><rect width="288" height="177"></rect></clipPath><g><g><g><line x1="12.41186508856991" y1="0" x2="12.41186508856991" y2="177" fill="rgb(0, 0, 0)" stroke="rgb(66, 66, 66)" stroke-width="1px" opacity="0.25"></line><line x1="44.85019647913296" y1="0" x2="44.85019647913296" y2="177" fill="rgb(0, 0, 0)" stroke="rgb(66, 66, 66)" stroke-width="1px" opacity="0.25"></line><line x1="77.28852786969601" y1="0" x2="77.28852786969601" y2="177" fill="rgb(0, 0, 0)" stroke="rgb(66, 66, 66)" stroke-width="1px" opacity="0.25"></line><line x1="109.72685926025908" y1="0" x2="109.72685926025908" y2="177" fill="rgb(0, 0, 0)" stroke="rgb(66, 66, 66)" stroke-width="1px" opacity="0.25"></line><line x1="142.16519065082213" y1="0" x2="142.16519065082213" y2="177" fill="rgb(0, 0, 0)" stroke="rgb(66, 66, 66)" stroke-width="1px" opacity="0.25"></line><line x1="174.6035220413852" y1="0" x2="174.6035220413852" y2="177" fill="rgb(0, 0, 0)" stroke="rgb(66, 66, 66)" stroke-width="1px" opacity="0.25"></line><line x1="207.04185343194825" y1="0" x2="207.04185343194825" y2="177" fill="rgb(0, 0, 0)" stroke="rgb(66, 66, 66)" stroke-width="1px" opacity="0.25"></line><line x1="239.4801848225113" y1="0" x2="239.4801848225113" y2="177" fill="rgb(0, 0, 0)" stroke="rgb(66, 66, 66)" stroke-width="1px" opacity="0.25"></line><line x1="271.9185162130744" y1="0" x2="271.9185162130744" y2="177" fill="rgb(0, 0, 0)" stroke="rgb(66, 66, 66)" stroke-width="1px" opacity="0.25"></line></g><g><line x1="0" y1="164.7192409749507" x2="288.828125" y2="164.7192409749507" fill="rgb(0, 0, 0)" stroke="rgb(66, 66, 66)" stroke-width="1px" opacity="0.25"></line><line x1="0" y1="151.7979576806584" x2="288.828125" y2="151.7979576806584" fill="rgb(0, 0, 0)" stroke="rgb(66, 66, 66)" stroke-width="1px" opacity="0.25"></line><line x1="0" y1="138.8766743863661" x2="288.828125" y2="138.8766743863661" fill="rgb(0, 0, 0)" stroke="rgb(66, 66, 66)" stroke-width="1px" opacity="0.25"></line><line x1="0" y1="125.9553910920738" x2="288.828125" y2="125.9553910920738" fill="rgb(0, 0, 0)" stroke="rgb(66, 66, 66)" stroke-width="1px" opacity="0.25"></line><line x1="0" y1="113.0341077977815" x2="288.828125" y2="113.0341077977815" fill="rgb(0, 0, 0)" stroke="rgb(66, 66, 66)" stroke-width="1px" opacity="0.25"></line><line x1="0" y1="100.11282450348918" x2="288.828125" y2="100.11282450348918" fill="rgb(0, 0, 0)" stroke="rgb(66, 66, 66)" stroke-width="1px" opacity="0.25"></line><line x1="0" y1="87.1915412091969" x2="288.828125" y2="87.1915412091969" fill="rgb(0, 0, 0)" stroke="rgb(66, 66, 66)" stroke-width="1px" opacity="0.25"></line><line x1="0" y1="74.27025791490458" x2="288.828125" y2="74.27025791490458" fill="rgb(0, 0, 0)" stroke="rgb(66, 66, 66)" stroke-width="1px" opacity="0.25"></line><line x1="0" y1="61.348974620612275" x2="288.828125" y2="61.348974620612275" fill="rgb(0, 0, 0)" stroke="rgb(66, 66, 66)" stroke-width="1px" opacity="0.25"></line><line x1="0" y1="48.42769132631997" x2="288.828125" y2="48.42769132631997" fill="rgb(0, 0, 0)" stroke="rgb(66, 66, 66)" stroke-width="1px" opacity="0.25"></line><line x1="0" y1="35.50640803202767" x2="288.828125" y2="35.50640803202767" fill="rgb(0, 0, 0)" stroke="rgb(66, 66, 66)" stroke-width="1px" opacity="0.25"></line><line x1="0" y1="22.585124737735352" x2="288.828125" y2="22.585124737735352" fill="rgb(0, 0, 0)" stroke="rgb(66, 66, 66)" stroke-width="1px" opacity="0.25"></line><line x1="0" y1="9.663841443443031" x2="288.828125" y2="9.663841443443031" fill="rgb(0, 0, 0)" stroke="rgb(66, 66, 66)" stroke-width="1px" opacity="0.25"></line></g></g></g><g><g><line x1="0" y1="177.64052426924303" x2="288.828125" y2="177.64052426924303" fill="rgb(0, 0, 0)" stroke="rgb(153, 153, 153)" stroke-width="1.5px"></line></g></g><g><g><line x1="44.85019647913296" y1="0" x2="44.85019647913296" y2="177" fill="rgb(0, 0, 0)" stroke="rgb(153, 153, 153)" stroke-width="1.5px"></line></g></g><g><g><g><g><g><path style="fill: none;" stroke="rgb(0, 119, 187)" stroke-width="2px" d="M46.47211304866112,-34.07336968493569L48.094029618189275,7.635072204526876L49.71594618771742,50.38400311268101L51.33786275724558,82.54624956418243L52.95977932677372,111.74252166697683L54.58169589630188,126.07654783927141L56.20361246583003,133.33097320185493L57.82552903535818,139.57979509815908L59.44744560488634,143.31491762843473L61.069362174414486,147.14663530821528L62.69127874394265,148.42547237772516L64.3131953134708,150.34846359406762L65.93511188299894,152.9560668327919L67.5570284525271,153.91359206830782L69.17894502205525,154.74371294974767L70.8008615915834,155.98225973237413L72.42277816111157,156.61847313389615L74.04469473063972,156.52106468645437L75.66661130016786,157.34380796979136L77.28852786969601,157.91821442492207L78.91044443922418,158.4039738694761L80.53236100875232,158.85589519077902L82.15427757828047,159.4535188374674L83.77619414780864,159.61078601306087L85.39811071733678,160.16560061380088L87.02002728686493,159.99821157570253L88.64194385639308,160.710688910578L90.26386042592124,160.54763130012816L91.88577699544939,161.1858274234386L93.50769356497754,161.19774716729177L95.12961013450568,161.47494374955997L96.75152670403385,161.68048015770503L98.373443273562,162.0744515364687L99.99535984309014,162.01490210798696L101.61727641261831,161.80973045164384L103.23919298214646,162.27882591437978L104.86110955167462,162.25984280117208L106.48302612120276,162.3116264666266L108.10494269073092,162.4368176644988L109.72685926025908,162.61184677412504L111.34877582978721,162.77340840927894L112.97069239931538,162.818202641555L114.59260896884354,162.72771338792438L116.21452553837167,162.9418806123568L117.83644210789983,163.12341487320822L119.458358677428,163.1307111415174L121.08027524695613,162.97035589830315L122.70219181648429,163.07985660734226L124.32410838601245,163.1834005251288L125.9460249555406,163.26756946797448L127.56794152506875,163.48534724233866L129.1898580945969,163.5236794528256L130.81177466412504,163.4872178275934L132.4336912336532,163.2932511987347L134.05560780318137,163.55796858675075L135.6775243727095,163.45189728401198L137.29944094223765,163.75428761827828L138.92135751176582,163.89066043051247L140.543274081294,163.87876040297294L142.16519065082213,163.84238750115202L143.7871072203503,163.66415572283205L145.40902378987843,163.85157653556877L147.0309403594066,163.87972280553154L148.65285692893477,164.12282002339316L150.27477349846288,164.07599131400542L151.89669006799105,164.1179192871889L153.51860663751918,164.1416454060919L155.14052320704735,163.97790388601334L156.76243977657552,164.16492421112963L158.38435634610366,163.99670585558962L160.0062729156318,164.20479799088776L161.62818948515996,164.16698826271175L163.2501060546881,164.31994126243114L164.87202262421627,164.31715263632344L166.49393919374444,164.26719889122685L168.11585576327258,164.4117120764471L169.73777233280072,164.42626148362936L171.35968890232886,164.3579025597681L172.98160547185702,164.24819236489674L174.6035220413852,164.54185946265562L176.22543861091333,164.46510385373122L177.8473551804415,164.44671962354977L179.46927174996964,164.5591999604848L181.09118831949777,164.4831701583556L182.71310488902594,164.5969037134751L184.3350214585541,164.58636904065378L185.95693802808225,164.6549916702097L187.57885459761042,164.74012671242278L189.20077116713858,164.5769581977088L190.8226877366667,164.65209337210752L192.44460430619486,164.67776154790212L194.066520875723,164.63432650899628L195.68843744525117,164.63446698773083L197.31035401477934,164.73236464620433L198.93227058430747,164.92134797679546L200.5541871538356,164.79328559075228L202.17610372336378,164.73216994760733L203.79802029289192,164.80608394283115L205.4199368624201,164.88158756584062L207.04185343194825,164.77105175033645L208.6637700014764,164.79008785113697L210.28568657100456,164.86432963007474L211.90760314053273,164.88472245970627L213.52951971006087,164.7969688445905L215.15143627958903,164.8353626685575L216.7733528491172,165.02910379207918L218.3952694186453,164.91100800257115L220.01718598817348,164.86078439043186L221.63910255770162,164.81772765829362L223.2610191272298,164.99446839039607" fill="none"></path></g><g><path style="fill: none;" stroke="rgb(255, 112, 67)" stroke-width="2px" d="M51.33786275724558,-46.69311167871696L52.95977932677372,1.8154473458085065L54.58169589630188,34.25763587624979L56.20361246583003,52.52081775023717L57.82552903535818,64.31345052948413L59.44744560488634,72.79137666286253L61.069362174414486,79.1971576673598L62.69127874394265,84.30840495216617L64.3131953134708,88.34085442091646L65.93511188299894,91.74154391048377L67.5570284525271,95.2126699304601L69.17894502205525,98.09035462677475L70.8008615915834,100.63240851632868L72.42277816111157,102.65998984734921L74.04469473063972,92.88613506509124L75.66661130016786,96.46629229938861L77.28852786969601,99.47736278642395L78.91044443922418,101.57307876823832L80.53236100875232,103.16506265336403L82.15427757828047,104.54468212448397L83.77619414780864,105.74427193593567L85.39811071733678,106.76190974714112L87.02002728686493,107.74911542827341L88.64194385639308,108.60783975169811L90.26386042592124,109.42034410691807L91.88577699544939,110.1168623181874L93.50769356497754,110.79315159168215L95.12961013450568,111.41398380404101L96.75152670403385,112.06839782757388L98.373443273562,112.59937294060757L99.99535984309014,113.06907467998734L101.61727641261831,113.55191241331673L103.23919298214646,113.98577482361296L104.86110955167462,114.43570602950983L106.48302612120276,114.84461744491936L108.10494269073092,115.18811506081468L109.72685926025908,115.50230930559164L111.34877582978721,115.81099284071168L112.97069239931538,116.00691384915798L114.59260896884354,116.29383057404105L116.21452553837167,116.65762120573022L117.83644210789983,116.99045722503529L119.458358677428,117.2584265725291L121.08027524695613,117.44618502713656L122.70219181648429,117.79534122504097L124.32410838601245,117.95577286897048L125.9460249555406,118.21432274763215L127.56794152506875,118.37726822154828L129.1898580945969,118.6680000531169L130.81177466412504,118.72449222071786L132.4336912336532,119.05021557988437L134.05560780318137,119.24812300692797L135.6775243727095,119.3442252485924L137.29944094223765,119.4586242292966L138.92135751176582,119.71226967494516L140.543274081294,119.95644636097751L142.16519065082213,120.06685278817358L143.7871072203503,120.26626851320914L145.40902378987843,120.52308335627218L147.0309403594066,120.66813627557778L148.65285692893477,120.77491983014608L150.27477349846288,120.97028385273263L151.89669006799105,121.10546382799276L153.51860663751918,121.21919738311229L155.14052320704735,121.31123806417092L156.76243977657552,121.50305807938419L158.38435634610366,121.64365511181155L160.0062729156318,121.69469078961808L161.62818948515996,121.88206970518833L163.2501060546881,121.93099573743746L164.87202262421627,122.05870815891387L166.49393919374444,122.29687629837038L168.11585576327258,122.36032832467939L169.73777233280072,122.45425191368875L171.35968890232886,122.56727075243951L172.98160547185702,122.68312874035165L174.6035220413852,122.72354225419514L176.22543861091333,122.89044084899218L177.8473551804415,123.04841288279754L179.46927174996964,123.15471831676058L181.09118831949777,123.21335463346777L182.71310488902594,123.38485205841675L184.3350214585541,123.44852589325399L185.95693802808225,123.63374587248279L187.57885459761042,123.59630459291758L189.20077116713858,123.67471637218607L190.8226877366667,123.8838374526013L192.44460430619486,123.86876925991686L194.066520875723,124.00250008612592L195.68843744525117,123.97910668001526L197.31035401477934,124.16558357423739L198.93227058430747,124.165213893357L200.5541871538356,124.33020986388968L202.17610372336378,124.41393518967888L203.79802029289192,124.43834891501938L205.4199368624201,124.55512864059327L207.04185343194825,124.5774327203764L208.6637700014764,124.73762283946405L210.28568657100456,124.77864262995139L211.90760314053273,124.80332745460419L213.52951971006087,124.80731507903391L215.15143627958903,124.89109462468558L216.7733528491172,124.9396263306623L218.3952694186453,125.07015818498643L220.01718598817348,125.15096549635979L221.63910255770162,125.21694613989061L223.2610191272298,125.25700968916735" fill="none"></path></g></g></g></g></g></g><g transform="translate(41, 177)" clip-path="url(#clip_1)"><clipPath id="clip_1"><rect width="288" height="23"></rect></clipPath><g><g><line x1="12.41186508856991" y1="0" x2="12.41186508856991" y2="5" style="visibility: inherit;" fill="rgb(0, 0, 0)" stroke="rgb(204, 204, 204)" stroke-width="1px"></line><line x1="44.85019647913296" y1="0" x2="44.85019647913296" y2="5" style="visibility: inherit;" fill="rgb(0, 0, 0)" stroke="rgb(204, 204, 204)" stroke-width="1px"></line><line x1="77.28852786969601" y1="0" x2="77.28852786969601" y2="5" style="visibility: inherit;" fill="rgb(0, 0, 0)" stroke="rgb(204, 204, 204)" stroke-width="1px"></line><line x1="109.72685926025908" y1="0" x2="109.72685926025908" y2="5" style="visibility: inherit;" fill="rgb(0, 0, 0)" stroke="rgb(204, 204, 204)" stroke-width="1px"></line><line x1="142.16519065082213" y1="0" x2="142.16519065082213" y2="5" style="visibility: inherit;" fill="rgb(0, 0, 0)" stroke="rgb(204, 204, 204)" stroke-width="1px"></line><line x1="174.6035220413852" y1="0" x2="174.6035220413852" y2="5" style="visibility: inherit;" fill="rgb(0, 0, 0)" stroke="rgb(204, 204, 204)" stroke-width="1px"></line><line x1="207.04185343194825" y1="0" x2="207.04185343194825" y2="5" style="visibility: inherit;" fill="rgb(0, 0, 0)" stroke="rgb(204, 204, 204)" stroke-width="1px"></line><line x1="239.4801848225113" y1="0" x2="239.4801848225113" y2="5" style="visibility: inherit;" fill="rgb(0, 0, 0)" stroke="rgb(204, 204, 204)" stroke-width="1px"></line><line x1="271.9185162130744" y1="0" x2="271.9185162130744" y2="5" style="visibility: inherit;" fill="rgb(0, 0, 0)" stroke="rgb(204, 204, 204)" stroke-width="1px"></line></g><g transform="translate(0, 8)"><text x="12.41186508856991" y="0" dx="0em" dy="0.95em" style="text-anchor: middle; visibility: inherit; font-family: Roboto, sans-serif; font-size: 12px; font-weight: 200;" fill="rgb(33, 33, 33)" stroke="none" stroke-width="1px">-20</text><text x="44.85019647913296" y="0" dx="0em" dy="0.95em" style="text-anchor: middle; visibility: inherit; font-family: Roboto, sans-serif; font-size: 12px; font-weight: 200;" fill="rgb(33, 33, 33)" stroke="none" stroke-width="1px">0</text><text x="77.28852786969601" y="0" dx="0em" dy="0.95em" style="text-anchor: middle; visibility: inherit; font-family: Roboto, sans-serif; font-size: 12px; font-weight: 200;" fill="rgb(33, 33, 33)" stroke="none" stroke-width="1px">20</text><text x="109.72685926025908" y="0" dx="0em" dy="0.95em" style="text-anchor: middle; visibility: inherit; font-family: Roboto, sans-serif; font-size: 12px; font-weight: 200;" fill="rgb(33, 33, 33)" stroke="none" stroke-width="1px">40</text><text x="142.16519065082213" y="0" dx="0em" dy="0.95em" style="text-anchor: middle; visibility: inherit; font-family: Roboto, sans-serif; font-size: 12px; font-weight: 200;" fill="rgb(33, 33, 33)" stroke="none" stroke-width="1px">60</text><text x="174.6035220413852" y="0" dx="0em" dy="0.95em" style="text-anchor: middle; visibility: inherit; font-family: Roboto, sans-serif; font-size: 12px; font-weight: 200;" fill="rgb(33, 33, 33)" stroke="none" stroke-width="1px">80</text><text x="207.04185343194825" y="0" dx="0em" dy="0.95em" style="text-anchor: middle; visibility: inherit; font-family: Roboto, sans-serif; font-size: 12px; font-weight: 200;" fill="rgb(33, 33, 33)" stroke="none" stroke-width="1px">100</text><text x="239.4801848225113" y="0" dx="0em" dy="0.95em" style="text-anchor: middle; visibility: inherit; font-family: Roboto, sans-serif; font-size: 12px; font-weight: 200;" fill="rgb(33, 33, 33)" stroke="none" stroke-width="1px">120</text><text x="271.9185162130744" y="0" dx="0em" dy="0.95em" style="text-anchor: middle; visibility: inherit; font-family: Roboto, sans-serif; font-size: 12px; font-weight: 200;" fill="rgb(33, 33, 33)" stroke="none" stroke-width="1px">140</text></g><line x1="0" y1="0" x2="288.828125" y2="0" fill="rgb(0, 0, 0)" stroke="rgb(204, 204, 204)" stroke-width="1px"></line></g></g></g></g></svg>