<svg viewBox="0 0 330 200" xmlns="http://www.w3.org/2000/svg"><g><g><g><g><g><line x1="51.5625" y1="169.12996165493436" x2="46.5625" y2="169.12996165493436" style="visibility: inherit;" fill="rgb(0, 0, 0)" stroke="rgb(204, 204, 204)" stroke-width="1px"></line><line x1="51.5625" y1="151.24539757377397" x2="46.5625" y2="151.24539757377397" style="visibility: inherit;" fill="rgb(0, 0, 0)" stroke="rgb(204, 204, 204)" stroke-width="1px"></line><line x1="51.5625" y1="133.36083349261355" x2="46.5625" y2="133.36083349261355" style="visibility: inherit;" fill="rgb(0, 0, 0)" stroke="rgb(204, 204, 204)" stroke-width="1px"></line><line x1="51.5625" y1="115.47626941145319" x2="46.5625" y2="115.47626941145319" style="visibility: inherit;" fill="rgb(0, 0, 0)" stroke="rgb(204, 204, 204)" stroke-width="1px"></line><line x1="51.5625" y1="97.59170533029277" x2="46.5625" y2="97.59170533029277" style="visibility: inherit;" fill="rgb(0, 0, 0)" stroke="rgb(204, 204, 204)" stroke-width="1px"></line><line x1="51.5625" y1="79.70714124913235" x2="46.5625" y2="79.70714124913235" style="visibility: inherit;" fill="rgb(0, 0, 0)" stroke="rgb(204, 204, 204)" stroke-width="1px"></line><line x1="51.5625" y1="61.82257716797197" x2="46.5625" y2="61.82257716797197" style="visibility: inherit;" fill="rgb(0, 0, 0)" stroke="rgb(204, 204, 204)" stroke-width="1px"></line><line x1="51.5625" y1="43.93801308681156" x2="46.5625" y2="43.93801308681156" style="visibility: inherit;" fill="rgb(0, 0, 0)" stroke="rgb(204, 204, 204)" stroke-width="1px"></line><line x1="51.5625" y1="26.05344900565116" x2="46.5625" y2="26.05344900565116" style="visibility: inherit;" fill="rgb(0, 0, 0)" stroke="rgb(204, 204, 204)" stroke-width="1px"></line><line x1="51.5625" y1="8.168884924490763" x2="46.5625" y2="8.168884924490763" style="visibility: inherit;" fill="rgb(0, 0, 0)" stroke="rgb(204, 204, 204)" stroke-width="1px"></line></g><g transform="translate(41.5625, 0)"><text x="0" y="169.12996165493436" dx="0em" dy="0.3em" style="text-anchor: end; visibility: inherit; font-family: Roboto, sans-serif; font-size: 12px; font-weight: 200;" fill="rgb(33, 33, 33)" stroke="none" stroke-width="1px">0</text><text x="0" y="151.24539757377397" dx="0em" dy="0.3em" style="text-anchor: end; visibility: hidden; font-family: Roboto, sans-serif; font-size: 12px; font-weight: 200;" fill="rgb(33, 33, 33)" stroke="none" stroke-width="1px">1e-4</text><text x="0" y="133.36083349261355" dx="0em" dy="0.3em" style="text-anchor: end; visibility: inherit; font-family: Roboto, sans-serif; font-size: 12px; font-weight: 200;" fill="rgb(33, 33, 33)" stroke="none" stroke-width="1px">2e-4</text><text x="0" y="115.47626941145319" dx="0em" dy="0.3em" style="text-anchor: end; visibility: hidden; font-family: Roboto, sans-serif; font-size: 12px; font-weight: 200;" fill="rgb(33, 33, 33)" stroke="none" stroke-width="1px">3e-4</text><text x="0" y="97.59170533029277" dx="0em" dy="0.3em" style="text-anchor: end; visibility: inherit; font-family: Roboto, sans-serif; font-size: 12px; font-weight: 200;" fill="rgb(33, 33, 33)" stroke="none" stroke-width="1px">4e-4</text><text x="0" y="79.70714124913235" dx="0em" dy="0.3em" style="text-anchor: end; visibility: hidden; font-family: Roboto, sans-serif; font-size: 12px; font-weight: 200;" fill="rgb(33, 33, 33)" stroke="none" stroke-width="1px">5e-4</text><text x="0" y="61.82257716797197" dx="0em" dy="0.3em" style="text-anchor: end; visibility: inherit; font-family: Roboto, sans-serif; font-size: 12px; font-weight: 200;" fill="rgb(33, 33, 33)" stroke="none" stroke-width="1px">6e-4</text><text x="0" y="43.93801308681156" dx="0em" dy="0.3em" style="text-anchor: end; visibility: hidden; font-family: Roboto, sans-serif; font-size: 12px; font-weight: 200;" fill="rgb(33, 33, 33)" stroke="none" stroke-width="1px">7e-4</text><text x="0" y="26.05344900565116" dx="0em" dy="0.3em" style="text-anchor: end; visibility: inherit; font-family: Roboto, sans-serif; font-size: 12px; font-weight: 200;" fill="rgb(33, 33, 33)" stroke="none" stroke-width="1px">8e-4</text><text x="0" y="8.168884924490763" dx="0em" dy="0.3em" style="text-anchor: end; visibility: hidden; font-family: Roboto, sans-serif; font-size: 12px; font-weight: 200;" fill="rgb(33, 33, 33)" stroke="none" stroke-width="1px">9e-4</text></g><line x1="51.5625" y1="0" x2="51.5625" y2="177" fill="rgb(0, 0, 0)" stroke="rgb(204, 204, 204)" stroke-width="1px"></line></g></g><g transform="translate(51, 0)" clip-path="url(#clip_0)"><clipPath id="clip_0"><rect width="278" height="177"></rect></clipPath><g><g><g><line x1="11.083931878848446" y1="0" x2="11.083931878848446" y2="177" fill="rgb(0, 0, 0)" stroke="rgb(66, 66, 66)" stroke-width="1px" opacity="0.25"></line><line x1="35.19886316866984" y1="0" x2="35.19886316866984" y2="177" fill="rgb(0, 0, 0)" stroke="rgb(66, 66, 66)" stroke-width="1px" opacity="0.25"></line><line x1="59.31379445849122" y1="0" x2="59.31379445849122" y2="177" fill="rgb(0, 0, 0)" stroke="rgb(66, 66, 66)" stroke-width="1px" opacity="0.25"></line><line x1="83.4287257483126" y1="0" x2="83.4287257483126" y2="177" fill="rgb(0, 0, 0)" stroke="rgb(66, 66, 66)" stroke-width="1px" opacity="0.25"></line><line x1="107.54365703813399" y1="0" x2="107.54365703813399" y2="177" fill="rgb(0, 0, 0)" stroke="rgb(66, 66, 66)" stroke-width="1px" opacity="0.25"></line><line x1="131.65858832795539" y1="0" x2="131.65858832795539" y2="177" fill="rgb(0, 0, 0)" stroke="rgb(66, 66, 66)" stroke-width="1px" opacity="0.25"></line><line x1="155.77351961777677" y1="0" x2="155.77351961777677" y2="177" fill="rgb(0, 0, 0)" stroke="rgb(66, 66, 66)" stroke-width="1px" opacity="0.25"></line><line x1="179.88845090759816" y1="0" x2="179.88845090759816" y2="177" fill="rgb(0, 0, 0)" stroke="rgb(66, 66, 66)" stroke-width="1px" opacity="0.25"></line><line x1="204.00338219741957" y1="0" x2="204.00338219741957" y2="177" fill="rgb(0, 0, 0)" stroke="rgb(66, 66, 66)" stroke-width="1px" opacity="0.25"></line><line x1="228.11831348724095" y1="0" x2="228.11831348724095" y2="177" fill="rgb(0, 0, 0)" stroke="rgb(66, 66, 66)" stroke-width="1px" opacity="0.25"></line><line x1="252.2332447770623" y1="0" x2="252.2332447770623" y2="177" fill="rgb(0, 0, 0)" stroke="rgb(66, 66, 66)" stroke-width="1px" opacity="0.25"></line><line x1="276.3481760668837" y1="0" x2="276.3481760668837" y2="177" fill="rgb(0, 0, 0)" stroke="rgb(66, 66, 66)" stroke-width="1px" opacity="0.25"></line></g><g><line x1="0" y1="169.12996165493436" x2="278.4375" y2="169.12996165493436" fill="rgb(0, 0, 0)" stroke="rgb(66, 66, 66)" stroke-width="1px" opacity="0.25"></line><line x1="0" y1="151.24539757377397" x2="278.4375" y2="151.24539757377397" fill="rgb(0, 0, 0)" stroke="rgb(66, 66, 66)" stroke-width="1px" opacity="0.25"></line><line x1="0" y1="133.36083349261355" x2="278.4375" y2="133.36083349261355" fill="rgb(0, 0, 0)" stroke="rgb(66, 66, 66)" stroke-width="1px" opacity="0.25"></line><line x1="0" y1="115.47626941145319" x2="278.4375" y2="115.47626941145319" fill="rgb(0, 0, 0)" stroke="rgb(66, 66, 66)" stroke-width="1px" opacity="0.25"></line><line x1="0" y1="97.59170533029277" x2="278.4375" y2="97.59170533029277" fill="rgb(0, 0, 0)" stroke="rgb(66, 66, 66)" stroke-width="1px" opacity="0.25"></line><line x1="0" y1="79.70714124913235" x2="278.4375" y2="79.70714124913235" fill="rgb(0, 0, 0)" stroke="rgb(66, 66, 66)" stroke-width="1px" opacity="0.25"></line><line x1="0" y1="61.82257716797197" x2="278.4375" y2="61.82257716797197" fill="rgb(0, 0, 0)" stroke="rgb(66, 66, 66)" stroke-width="1px" opacity="0.25"></line><line x1="0" y1="43.93801308681156" x2="278.4375" y2="43.93801308681156" fill="rgb(0, 0, 0)" stroke="rgb(66, 66, 66)" stroke-width="1px" opacity="0.25"></line><line x1="0" y1="26.05344900565116" x2="278.4375" y2="26.05344900565116" fill="rgb(0, 0, 0)" stroke="rgb(66, 66, 66)" stroke-width="1px" opacity="0.25"></line><line x1="0" y1="8.168884924490763" x2="278.4375" y2="8.168884924490763" fill="rgb(0, 0, 0)" stroke="rgb(66, 66, 66)" stroke-width="1px" opacity="0.25"></line></g></g></g><g><g><line x1="0" y1="169.12996165493436" x2="278.4375" y2="169.12996165493436" fill="rgb(0, 0, 0)" stroke="rgb(153, 153, 153)" stroke-width="1.5px"></line></g></g><g><g><line x1="11.083931878848446" y1="0" x2="11.083931878848446" y2="177" fill="rgb(0, 0, 0)" stroke="rgb(153, 153, 153)" stroke-width="1.5px"></line></g></g><g><g><g><g><g><path stroke="rgb(255, 112, 67)" stroke-width="2px" d="M11.135778981121561,168.6619411040061L11.286497301682946,167.30141615208717L11.361253588681393,166.62659598739234L11.367282321503849,166.57217494865077L11.414306437519,166.1476911392532L11.656661496981704,163.9599673662848L11.73141778398015,163.2851468762716L11.783264886253265,162.8171263660081L11.791705112204705,162.7409374648111L11.849580947300275,162.21849510251025L11.865255652638659,162.07700049937773L11.946040672459562,161.34775913328215L12.059380849521721,160.32464536166003L12.30776464180688,158.0825000619726L12.692397795879533,154.61044133623164L12.697220782137498,154.56690463536572L12.755096617233068,154.04446162242823L12.763536843184507,153.96827207059457L12.816589692022115,153.48936836106958L13.124055065967337,150.71389815045646L13.175902168240452,150.24587698955634L13.179519407933924,150.21322413858857L13.348323926962674,148.68943700573521L13.396553789542317,148.25406869580283L13.540037630716755,146.95884891717716L13.7365743207288,145.1847241277532L13.866794949693835,144.00922930055378L13.965666167982102,143.1167249808927L14.081417838173245,142.07184416011097L14.082623584737735,142.0609603102128L14.097092543511629,141.93034890634178L14.322567151071459,139.89500391172237L14.748195688336805,136.05288257798455L14.979699028719091,133.9631157313278L14.99899097375095,133.78896892786415L15.070130021055922,133.1468009635004L15.447528695741628,129.74004663842166L15.449940188870608,129.71827893862536L15.510227517095162,129.17406822589157L15.59583552317403,128.40128885765677L15.683855022381875,127.60674178962567L15.692295248333313,127.53055223779202L15.855071034539609,126.06118825824932L16.290345544320882,122.13199352277968L16.390422509173643,121.22860275067387L16.50135119310682,120.2272573294847L16.52184888470317,120.04222667612291L16.72320856097318,118.22456128201316L16.858252176196178,117.00553365776773L17.078903797498043,115.01372666528755L17.275440487510085,113.23959667077037L17.5298530126177,110.94303667604872L17.546733464520578,110.7906575723814L17.98562521399533,106.82881128721732L18.15563547958857,105.2941364006459L18.207482581861687,104.82611523974576L18.307559546714444,103.92272967273315L18.560766325257568,101.63704311772325L18.583675509982896,101.43024476456517L18.668077769497273,100.66834924622852L19.011715540377228,97.56635312848445L19.162433860938613,96.20583025046986L19.176902819712502,96.07521884659883L19.34932457843473,94.51878146532431L19.484368193657726,93.29974863598571L19.71225429434654,91.24263854411659L19.98595876448601,88.77192133574489L20.080006996516314,87.92296022331627L20.08362423620979,87.8903034685286L20.14150007130536,87.36786305813771L20.4875493353143,84.2440940355041L20.529750465071483,83.8631488788824L20.720258422261075,82.1434433389492L20.810689414597903,81.3271285711218L20.948144522949885,80.08632804198689L20.997580132094022,79.64008499106947L21.168796144251754,78.09452625459988L21.331571930458043,76.62515967251059L21.343629396102955,76.51631076334266L21.455763826600627,75.50408669734854L21.789755624964652,72.48916137878966L21.858483179140645,71.868755909129L21.928416479881125,71.2374822048498L22.250350812600242,68.33139538527244L22.501146098014384,66.06748173515204L22.604840302560614,65.13143941335177L22.620515007898998,64.98995456976901L22.778467807847328,63.564112977085905L22.953301059698532,61.98590789601509L23.03046883982596,61.289320682160565L23.475389322123167,57.27304994241251L23.483829548074603,57.19685778803225L23.623696149555567,55.934289559101025L23.720155874714855,55.06356074687607L23.77200297698797,54.595539585975935L23.874491434969713,53.67037590898063L24.083085590626666,51.78741262057515L24.230186671494575,50.459541292255025L24.23380391118805,50.42688453746736L24.307354451622007,49.762954078400504L24.317000424137934,49.675872869028886L24.372464766104525,49.175205363527496L24.471335984392788,48.28270885150626L24.85355764533646,44.83240871664849L24.917462213254485,44.25554905676684L24.98980700712395,43.60249724250493L25.030802390316648,43.23243593578136L25.174286231491084,41.937221362248906L25.263511477263425,41.13178523922646L25.51671825580655,38.84610388930976L25.522746988629002,38.791679434725786L25.751838835882307,36.72367508277211L25.90376290300818,35.35227876504579L26.36315234407928,31.20540182651993L26.61153613636444,28.963255876195827L26.800838346989536,27.254434186160776L26.833393504230795,26.960554623631072L27.418180588008966,21.681726065138207L27.47967366279801,21.126623694866453L27.507405833781302,20.876289942115758L27.736497681034606,18.80829600034852L28.062049253447196,15.869552425983478L28.232059519040437,14.33489315469169L28.320079018248286,13.540346086660602L28.373131867085892,13.061435870769106L28.504558242615417,11.875059796218142L28.73485583643321,9.796176799459545L28.771028233367943,9.46965089232857L28.90486610202645,8.261496707794906L29.018206279088613,7.23838358680943L29.741654217783257,8.386970684669532L29.78264960097595,8.563267191628103L30.06358855050237,9.756066351197866L30.092526468050153,9.877428304438075L30.516949258751016,11.626079367701564L30.677313551828323,12.271958563522702L30.764127304471682,12.618315875776556L31.352531627943325,14.906839206584875L31.410407463038894,15.126556601085477L31.66240849501753,16.07240531848982L31.699786638516752,16.21122515435004L31.965050882704787,17.185629013094047L31.991577307123592,17.282058569867427L32.23754960627977,18.16747615512565L32.25443005818264,18.227667852984187L32.289396708552886,18.35213204177645L33.33236748683766,21.928666097117212L34.13418895222422,24.51157908958964L34.198093520142244,24.711642052136437L34.63457377648802,26.056200909281767L34.76600015201754,26.453755518330546L34.78288060392042,26.50457804841449L34.87572308938623,26.783133816539536L35.0143839443027,27.196137142229986L35.194040182411875,27.725932349323937L35.263973483152355,27.930565383707446L35.274825202232776,27.962243580971975L35.36646194113409,28.228858865277633L35.49427107697014,28.59821227932489L35.50391704948608,28.62596583631051L35.58952505556494,28.871604594987495L35.730597403610396,29.273583533263174L35.84996631349501,29.611029725944732L35.851172060059504,29.614423446716422L35.89699042951016,29.74329114436272L36.139345488972864,30.419057985384807L36.14296272866635,30.42907258471722L36.2020443103264,30.592293897537026L36.23098222787419,30.672025515298802L36.50227520488468,31.41289766216789L36.57944298501211,31.621476157203155L36.685548682687326,31.906725675193822L36.79044863379805,32.186988713891125L36.87726238644141,32.41763680412875L37.03642093295422,32.83747962229465L37.42828856641382,33.854950422242545L37.906969952516775,35.06743524432536L37.96364004104786,35.20882639623037L38.00945841049852,35.322828347674324L38.04321931430427,35.40664075851125L38.18067442265625,35.746241859780994L38.624389158388965,36.82510152902529L38.98370163460731,37.679819474542086L38.995759100252215,37.70821846308553L39.048811949089824,37.832932496351766L39.080161359766585,37.906470053195896L39.16215212615198,38.09819445642329L39.252583118488815,38.30869883594555L39.33216239174522,38.49309446793594L39.46841175353271,38.80701363931688L39.62515880691655,39.165363486322185L39.63842201912595,39.19555302692921L39.66253695041577,39.25039388896982L39.948298886200156,39.894898940184035L40.20029991817879,40.45537296664654L40.36307570438509,40.8135458404828L40.36548719751407,40.81883421518224L40.411305566964735,40.91910513074321L40.43903773794803,40.97968200549916L40.77182378974756,41.69996280363698L40.88998695306768,41.952805411313975L40.89963292558361,41.973375939672415L41.10943282780506,42.41840099877913L41.149222464433265,42.502275870734564L41.238447710205605,42.68975291790415L41.53385561850591,43.30457852764574L41.596554439859446,43.43391468368076L41.66769348716442,43.58018821301499L42.17531279081516,44.60931842174902L42.21751392057235,44.69373462339809L42.30673916634469,44.871665529624025L42.48157241819589,45.218106123369196L42.5888838624356,45.42930798538135L42.767334353980274,45.77816374237507L42.96869403025028,46.16828547832269L43.36297315683886,46.921556157213494L43.36417890340336,46.923846398225045L43.40155704690258,46.99453156399114L43.77895572158828,47.70148732351621L43.79342468036218,47.728345604470036L43.79824766662014,47.73729836478799L43.79945341318464,47.73952614468105L43.93811426810111,47.99597067685806L44.216641724498544,48.50619473348952L44.33480488781867,48.72070703478202L44.37700601757586,48.79705534195853L44.602480625135684,49.20245923156514L44.71220356250437,49.39827483805413L44.774902383857906,49.50973670401253L45.341603269168715,50.50325366501669L45.35727797450709,50.530393021003775L45.46820665844027,50.72185716957076L45.50317330881052,50.78201763687007L45.98306044147796,51.59850937786654L46.01440985215473,51.65126820262392L46.093989125411134,51.784862124903185L46.2615878978754,52.06473998670308L46.336344184873845,52.1889231004621L46.58713947028798,52.60268636976092L46.60643141531985,52.6343333364662L46.69565666109218,52.78036743151285L46.75594398931674,52.87872287277324L47.01879674037579,53.30468688055188L47.23100813572621,53.64517284766698L47.26235754640299,53.69521461376971L47.335908086836945,53.81237085169777L47.43477930512521,53.96931482210861L47.517975818075094,54.1008683478503L47.61925852949234,54.2604148648652L47.791680288214565,54.53051756162028L47.96289630037229,54.79685177089268L48.076236477434456,54.97213848976889L48.093116929337334,54.99817436599584L48.920259072578204,56.25259141896317L48.964871695464375,56.31908127960352L49.26992557628062,56.77058147466113L49.49178294414697,57.0955770843889L49.559304751758475,57.19391170527646L49.570156470838896,57.209703958069845L49.64129551814386,57.312983417505095L49.84627243410734,57.609038708995804L49.886062070735555,57.66623227316648L50.16097228743951,58.05899819646381L50.28998716984007,58.241894761610254L50.428648024756534,58.43747093381168L50.5552514140281,58.61513117519078L50.71440996054091,58.83727414312635L50.724055933056846,58.85068246323043L50.88321447956967,59.07142005599983L51.025492574179616,59.267620839386204L51.05804773142087,59.3123638206031L51.06045922454986,59.31567425988345L51.16897641535405,59.46442541358472L51.25337867486843,59.57969740777147L51.29437405806112,59.63554805789444L51.32813496186687,59.68148821054919L51.72000259532647,60.210492243475514L51.73085431440689,60.22503527389895L51.74532327318078,60.24440863081954L51.768232457906116,60.27506662981529L51.788730149502456,60.302487060835595L51.85384046398497,60.38941211741098L51.86830942275888,60.408702192840224L51.89845308687115,60.44886469203397L51.94306570975731,60.50821316479281L52.068463352464384,60.6745054826054L52.09137253718972,60.704809535263L52.21797592646128,60.87179933556548L52.484445917213804,61.22074878423695L52.509766595068115,61.25373866498994L52.68098260722585,61.47597532460326L52.77020785299819,61.59124731879001L52.992065220864546,61.87627822286593L53.65522583133463,62.714933250742526L53.68054650918895,62.746569807261395L53.69019248170488,62.75861439294495L53.70827868017224,62.7811836770953L53.836087816008295,62.94027214590788L53.944605006812495,63.07478216459178L54.18334282658173,63.368921981781895L54.19178305253316,63.379280117266035L54.277391058612025,63.484121104663714L54.402788701319096,63.63714043479565L54.42328639291545,63.6620936516353L54.504071412736344,63.760251299353776L54.75607244471498,64.06469720109595L54.791039095085225,64.10674394403104L55.217873378915066,64.61582288015671L55.2540457758498,64.65862956670018L55.38426640481483,64.81229432838991L55.446965226168366,64.88604008896237L55.48434336966759,64.92991902470672L55.55307092384358,65.01047304719538L55.908766160368444,65.42440287947687L56.21382004118469,65.77549682655007L56.254815424377384,65.82240512654154L56.58639572961243,66.19949330909606L56.721439344835424,66.3518984382294L57.1024552592146,66.77826844327828L57.400274660643895,67.10786535540203L57.419566605675755,67.12910213569108L57.73908944526588,67.47898850114002L57.88377903300482,67.63624477714335L58.053789298598055,67.82008866925369L58.08272721614584,67.85128799794307L58.433599466412744,68.22723105999181L58.92313257159612,68.74482552860594L58.95689347540187,68.7802305726075L59.01838655019092,68.84460716540535L59.13534396694655,68.96673947244037L59.17272211044577,69.005673569637L59.178750843268226,69.01195091204599L59.30655997910428,69.14471201941195L59.639346030903816,69.48793586555452L59.88531833005999,69.73936268787892L60.062563075040174,69.91936522120167L60.08185502007204,69.93889473091848L60.08667800633,69.94377710834769L60.126467642958204,69.98402288903277L60.15058257424803,70.00839313543314L60.23860207345587,70.09718161537701L60.536421474885174,70.39582904328535L60.782393774041346,70.64046842406637L60.81494893128261,70.67270877139738L60.89935119079698,70.75615682570975L61.13808901056621,70.99103145163237L61.15738095559807,71.00994676035062L61.709612882134984,71.54657104973361L61.855508216438395,71.68686913206491L61.98814033853242,71.81389422671555L62.23652413081757,72.05045530283759L62.25822756897841,72.07104665156886L62.51143434752154,72.31027273541343L62.876775556562336,72.65236187123665L63.23488228621618,72.98417615306704L63.52426146169404,73.24982329003598L63.56646259145123,73.28837221033521L63.631572905933744,73.34777273402614L63.67015679599746,73.38290711318086L63.756970548640815,73.46184755677501L63.78952570588207,73.49140207601063L63.79434869214004,73.49578476449187L63.87031072570298,73.56461691707587L64.0969910798273,73.7691458495952L64.19345080498658,73.85578983113736L64.34658061867695,73.99283993530682L64.35502084462838,74.00037691027214L64.408073693466,74.04772243809307L64.47197826138402,74.10463492723053L64.81079304600601,74.40473978123713L65.07244005050057,74.63455505656145L65.08932050240345,74.64932711108607L65.26777099394812,74.80503226931337L65.68495930526203,75.16606794441408L65.69581102434245,75.17541629181585L65.75971559226048,75.2303404353478L65.92249137846677,75.36980570276582L66.10455910970492,75.5250528127908L66.55671407138908,75.90732526818059L66.62544162556507,75.96501852129923L66.72069560415986,76.0448021899931L66.76410248048154,76.08109209984002L66.90035184226903,76.19472969475942L66.91964378730088,76.21078220221321L67.01489776589568,76.2899516699085L67.11859197044191,76.37587734858793L68.01325592129429,77.1076093517836L68.08560071516375,77.16601049757855L68.10971564645358,77.18546713599046L68.31228106928808,77.34832409228571L68.42803273947922,77.44100598194925L68.49193730739724,77.49205753613437L68.52931545089646,77.52188272021681L68.57272232721814,77.55646535949147L68.6197464432333,77.59388997965777L68.78613946913306,77.72597442490668L68.86451299582498,77.78797749520164L68.89224516680828,77.80989093760778L69.02005430264433,77.91067195230313L69.14665769191589,78.01018292425574L69.20212203388249,78.05367668310268L69.55781727040736,78.33109774090836L69.94606766417348,78.63104644211872L70.46212719377564,79.02517609983656L70.52723750825817,79.07453079363582L70.55738117237044,79.09734992226018L70.70930523949633,79.21213263768534L70.8069707112201,79.28568060471588L70.88052125165405,79.34094828439956L71.34714517211209,79.68925230151324L71.40743250033665,79.73395364198447L71.51956693083433,79.8169332379081L71.53885887586617,79.83118478311191L71.57503127280091,79.85787650108307L71.66305077200876,79.92276319301533L71.01074188061908,79.43856460242439L71.23983372787238,79.60951027356504L71.43275317819096,79.75271279790648L71.61964389568708,79.89078310034473L71.73177832618475,79.97331505825247L71.79809438723176,80.02202432049394L71.87043918110122,80.07507463047095L72.36238377941358,80.4332475043072L72.42025961450915,80.47511727407321L72.42990558702508,80.48208168878566L72.60835607856976,80.61074118270365L72.66502616710083,80.65147624215028L72.74460544035725,80.70859693501605L72.94958235632073,80.85519318012918L73.01589841736774,80.90246583664519L73.0894489578017,80.95480825394593L73.2787511684268,81.08909965871507L73.30045460658764,81.104454683679L73.48613957751925,81.23551893065911L73.75622680796526,81.4251092456712L73.79601644459346,81.45294608414817L73.98049566896059,81.58162639843897L73.99858186742796,81.59420190362975L74.43385637720922,81.89544667304895L74.72082405955811,82.09236055420484L74.72926428550956,82.09813300257262L74.73408727176752,82.10142782657336L74.73891025802547,82.10472785566729L74.90892052361872,82.22071294762354L74.96197337245631,82.25680506392855L75.16212730216184,82.39259033044844L75.1802135006292,82.4048327096739L75.20553417848352,82.42195746632856L75.22362037695088,82.43418423027441L75.36589847156084,82.53018176431154L75.9084844255818,82.89336193781398L76.04835102706278,82.98625203120585L76.20509808044662,83.08998433375021L76.25935667584872,83.1258057852084L76.51376920095633,83.29317555731508L76.64157833679238,83.37688907138107L76.64519557648586,83.37925738879075L76.67654498716261,83.39974984075106L76.71392313066184,83.42416172789709L76.9357804985282,83.56866032044734L76.94542647104413,83.5749272526699L77.14075741449169,83.70151511949105L77.20466198240972,83.74280712391098L77.59652961586931,83.99471281481051L77.89314327073411,84.18390754273878L78.0981201866976,84.31392036089088L78.11500063860048,84.32459600706069L78.21990058971119,84.39088286906593L78.4357292247551,84.52676182726357L78.47551886138329,84.55174106956926L78.6913474964272,84.68686008415851L79.05307146577451,84.91185023807893L79.06030594516146,84.9163318233311L79.27613458020537,85.04970192660242L79.6089206320049,85.2541215521644L80.25399504400762,85.64614835222618L80.42882829585882,85.75144738782618L80.5686948973398,85.83541595145937L80.67118335532153,85.89677879528973L80.76523158735183,85.95296257137804L80.7977867445931,85.97238277413747L80.81828443618944,85.98460953808333L81.14021876890855,86.17587068801521L81.42236346499946,86.3424076452086L81.47903355353054,86.3757410621133L81.62492888783396,86.46135964029345L81.8757241732481,86.60792465484732L81.91189657018285,86.62900528234015L81.99268159000374,86.67600727400935L82.5256215715088,86.98413317664965L82.53285605089575,86.98829725121614L82.55938247531455,87.00353776412949L82.66789966611874,87.06581149927128L82.88252255459815,87.18855280221163L83.66264058182387,87.63012167942817L83.76271754667664,87.68624819949119L83.84832555275548,87.73417669775145L84.04365649620304,87.84320778518165L84.1594081663942,87.90761560853875L84.33544716480989,88.00526836221606L84.88888483791129,88.31000574917788L84.98534456307057,88.36275936884205L85.34345129272442,88.55774736551093L85.38082943622365,88.5780159984633L85.39047540873958,88.58324191204424L85.77510856281224,88.79090431067488L85.95597054748589,88.88799491428568L86.19229687412613,89.01433814172606L86.35868990002591,89.10293403322123L86.44309215954027,89.14775509083627L86.44429790610478,89.14840052239407L86.54558061752202,89.20209626392888L86.7360885747116,89.30279920222613L86.97000340822288,89.42592047697069L87.11831023565527,89.50369497968622L87.2509423577493,89.57305284668425L87.40407217143967,89.6529041815898L87.7489156888841,89.83184487589811L87.76097315452903,89.83808578265464L87.96112708423453,89.9413756522763L88.20468789026172,90.0665165031856L88.33852575892024,90.1350259399907L88.40363607340277,90.16829689577693L88.63393366722055,90.28562490178088L88.69060375575162,90.31442468250133L88.7906807206044,90.36518995655999L88.88111171294122,90.41098436660491L88.91848985644044,90.42988406004355L89.06317944417937,90.50293233812613L89.11382079988799,90.52845291012547L89.19340007314442,90.56850089726865L89.43213789291364,90.6882857072668L89.60335390507137,90.7738574396081L89.90358479962964,90.92323320449434L90.32439035063703,91.13116626797178L90.49319486966579,91.21411463333617L90.68732006654884,91.30918045568905L90.7210809703546,91.3256753960655L90.77533956575668,91.3521693204948L91.28054737627845,91.59753741432493L91.32154275947114,91.617347999075L91.36856687548631,91.64004741055554L92.2728767988546,92.07281447515717L92.29458023701544,92.08311014952282L92.41153765377106,92.13853398200274L92.4730307285601,92.16762524794284L92.57310769341288,92.21489790445885L92.66715592544318,92.25924009349872L93.07590401080564,92.45108941896312L93.14704305811063,92.4843343492833L93.3676946794125,92.58716617070267L93.38457513131536,92.5950206563537L93.71012670372795,92.74594753901596L93.73544738158228,92.75764338345458L93.95971624257761,92.86104776512681L94.02844379675359,92.89265829617965L94.12369777534839,92.93639148931419L94.26477012339384,93.00102833677244L94.92431349417046,93.30106031947415L94.96169163766969,93.31796125712086L95.06659158878041,93.36532240022142L95.15822832768173,93.40662481482775L95.47051668788491,93.54686564113378L95.56818215960868,93.59056760370905L95.95160956711686,93.7613987627991L96.08906467546883,93.82236081445247L96.24098874259471,93.88956897795555L96.27233815327148,93.90341452588909L96.41220475475244,93.96508967531196L96.59788972568407,94.04674717756073L96.66541153329557,94.07636936300807L96.72690460808461,94.10332133563963L96.75343103250341,94.11493389858694L96.79322066913161,94.13235014046127L96.8233643332439,94.1455346415574L97.01628378356246,94.22975304966455L97.11033201559277,94.27070672302595L97.13685844001158,94.28224120957512L97.13926993314055,94.28329784349636L97.26225608271865,94.33671771509117L97.26587332241212,94.33828965324001L97.45155829334374,94.4187291636781L97.65050647648476,94.50462881689145L97.83136846115842,94.58246578072549L97.99534999392921,94.65282823071269L98.2003269098927,94.74049761561682L98.36792568235695,94.81194793008451L98.93583231423224,95.05254815853606L98.9418610470547,95.0550934491148L98.9985311355858,95.07896921166041L99.07087592945526,95.10941900692782L99.09860810043854,95.12107841571398L99.20350805154926,95.16514473481382L99.41571944689969,95.25404772680828L99.42415967285113,95.25757678000336L100.23321561762465,95.59354472621384L100.27662249394632,95.61144504175651L100.56479592285969,95.72992337335944L100.6021740663589,95.74524716776412L99.8208502925687,95.42288533519964L99.84255373072953,95.43189014644966L99.93901345588883,95.47190690303358L100.01376974288726,95.50287720762182L100.09576050927265,95.53679359496586L100.3742879656701,95.65166479697557L100.52862352592496,95.71507844752992L100.58047062819806,95.73635166347147L100.7239544693725,95.79511196069778L100.9807784876091,95.89994253790904L101.04227156239814,95.92497383114683L101.21589906768486,95.9955184593963L101.27256915621595,96.0184989459101L101.31115304627966,96.03412984081403L101.4136415042614,96.07561443368266L101.55350810574235,96.13211051536344L101.5619483316938,96.13551464632154L101.5752115439032,96.14086027704627L101.90558610257375,96.27373589646282L102.05751016969963,96.334593846252L102.22149170247042,96.40011035446246L102.3058939619848,96.43376648714607L102.44214332377229,96.48799314818812L102.63385702752636,96.56409681598386L102.75322593741097,96.61135906231347L103.03537063350188,96.72270121112808L103.12339013270973,96.75733590133481L103.19211768688572,96.78433471980526L103.80704843477616,97.0246278477575L103.88903920116157,97.05649342837754L103.98188168662737,97.09251787847086L103.99876213853025,97.09906068063343L104.04578625454539,97.11727850686182L104.08437014460911,97.13222232946228L104.4509171002144,97.27368635267221L104.58234347574393,97.32420698735011L104.79817211078783,97.40694194389296L104.82590428177113,97.41754992385108L105.0574076221534,97.50593761161795L105.25394431216544,97.58071398064561L105.28167648314874,97.5912490892988L105.32146611977696,97.60635426978875L105.32628910603492,97.60818125750478L105.40466263272684,97.63790233972308L105.48303615941875,97.66758698628891L105.7073050204141,97.75232590371688L105.75432913642925,97.7700544511837L105.7736210814611,97.77732596639544L105.94724858674782,97.84264988615716L105.97859799742459,97.85442901208711L106.02321062031076,97.87117900203079L106.28003463854735,97.96736391942342L106.48501155451083,98.04385796920974L106.50792073923617,98.05238911697782L106.63090688881425,98.0981522964635L106.94922398183989,98.21617257986412L107.08547334362738,98.26651624137294L107.12767447338457,98.28208467515836L107.63770527016429,98.4694576204638L107.79204083041915,98.52586001046684L108.5830105767253,98.81283761940263L108.624005959918,98.82761487902044L108.69755650035195,98.85410359835647L108.71925993851278,98.86191644326186L108.80969093084961,98.8944326605329L108.99175866208776,98.95976699048106L109.05445748344131,98.98222696767402L109.22326200247005,99.04258002342203L109.51625841764138,99.14697337280383L109.82010655189312,99.25473441749125L110.0142317487762,99.3233271357877L110.07210758387177,99.34373630625667L110.30602241738303,99.42603924006326L110.34460630744675,99.43959330277717L110.35425227996268,99.44297661336243L110.5821383806515,99.522827948268L110.60022457911886,99.52915213651586L110.67980385237527,99.55696294952678L110.83172791950113,99.60997161875812L110.93421637748288,99.6456525326997L110.9993266919654,99.66829989324816L111.09337492399571,99.70096705822225L111.3369357300229,99.7853572344053L111.3755196200866,99.79869788829767L111.42013224297278,99.81411016928686L111.51659196813206,99.84740715053913L111.69865969937022,99.9101181135104L111.92534005349454,99.98796548753086L111.96271819699376,100.0007700168228L112.00250783362198,100.01440215593482L112.13996294197395,100.06142496797685L112.2159249755369,100.08736715252606L112.50048116475678,100.18429639824744L112.53544781512703,100.19617962604154L113.06356481037412,100.3749017064351L113.29265665762742,100.45199954703357L113.30109688357885,100.45483632283201L113.45904968352717,100.50783458187693L113.47472438886557,100.51309172601714L113.53018873083215,100.53166870367686L113.56153814150892,100.5421621715844L113.73395990023114,100.59978775849135L114.1981723275602,100.75422287397588L114.2668998817362,100.77699515676136L114.39470901757225,100.81928653907721L114.47308254426417,100.84518187778755L114.52734113966628,100.86309780860984L114.72387782967832,100.92785437321191L115.04219492270396,101.03235182445785L115.09524777154157,101.04972122049331L115.38100970732596,101.14304854171466L115.46179472714684,101.16937069806805L115.74273367667327,101.26064200747223L115.85366236060644,101.29658317607421L115.9127439422665,101.31569627833436L116.04175882466706,101.35738907493129L116.45171265659401,101.48935900812964L116.55420111457576,101.52223437683202L116.57349305960761,101.52841802756326L117.03408824724319,101.67551396162436L117.05458593883955,101.68204114850734L117.18842380749807,101.72459278548362L117.21133299222339,101.73186950578854L117.30899846394716,101.7628554256564L117.38375475094561,101.78654900993969L117.6273155569728,101.86356877414006L117.88413957520942,101.94449235824648L118.63652543145183,102.17990831386274L118.66064036274165,102.18741405826884L118.90902415502681,102.2645587447062L119.11882405724826,102.32951310285017L119.29968604192193,102.38535854787993L119.32380097321175,102.39279662607431L119.32741821290522,102.39391572111406L119.40217449990365,102.41694825855993L119.42990667088696,102.42548461142123L119.43352391058042,102.42659850136776L119.86638692723272,102.55943768513185L119.89773633790949,102.5690306719144L120.04966040503535,102.6154444880511L120.1256224385983,102.6386227681068L120.63203599568456,102.79248532333843L120.70317504298953,102.81401879394036L120.7055865361185,102.81474230189629L120.74296467961773,102.82604776434428L120.8285726856966,102.85191187249539L121.1107173817875,102.93694748023623L121.22767479854313,102.97210267976376L121.52669994653692,103.06171876952774L122.04517096926809,103.21625798687644L122.23809041958665,103.27347757651316L122.6227235736593,103.38712558161896L122.67577642249691,103.40276168161611L122.81082003771992,103.44249215807358L123.1098451857137,103.53021879900302L123.23886006811425,103.56796092985502L123.4064588405785,103.61689401110443L123.43901399781976,103.62638810111602L123.59214381151014,103.67098013462986L123.75733109084541,103.71897629910181L123.8248528984569,103.73856826993712L123.86343678852062,103.74975401524135L123.94904479459949,103.774556284378L124.40722848910609,103.90681249770277L124.5145399333458,103.93766829024042L124.54227210432909,103.94563728794203L124.61461689819855,103.96641081493557L124.93896272404665,104.05929570323426L125.03542244920594,104.08684105649155L125.13670516062318,104.11572411870335L125.18493502320283,104.12947076986596L125.22110742013757,104.1397716493248L125.29948094682948,104.16207026862831L125.3380648368932,104.17304260511102L125.80348301078675,104.30493966700445L125.96987603668653,104.35190001792797L126.05427829620089,104.37568208879581L126.13868055571525,104.39943813419761L126.28337014345419,104.44010552743256L126.3364229922918,104.45499729910097L126.50040452506259,104.50095306703533L126.56913207923859,104.52018588643928L126.67644352347828,104.55018804369081L126.7415538379608,104.56836943426671L126.83801356312009,104.59527456105943L126.9706456852141,104.63221510755737L126.98270315085902,104.63556718758338L127.15512490958123,104.68349048075042L127.24314440878908,104.70790757298965L127.47464774917137,104.77201350094069L127.55905000868576,104.795332318513L127.6181315903458,104.81164508062722L127.71700280863408,104.83891456394451L127.89665904674325,104.88836815451472L128.18121523596312,104.96647578319558L128.25958876265506,104.98793117739939L128.80338046324053,105.1362555134576L128.82870114109483,105.14313664667871L128.9311895990766,105.17096828006247L128.93360109220558,105.17161891671347L129.25915266461817,105.25977758037918L129.74145129041457,105.38971232213315L129.78847540642974,105.40233987825602L129.98862933613526,105.45599918413838L130.08147182160107,105.48084309402068L128.93601258533454,105.1722747584577L129.1313435287821,105.22521576147734L129.26035841118264,105.2601055012513L129.29894230124637,105.27052609785392L129.33149745848763,105.27932270537562L129.34234917756805,105.28224796775858L129.42795718364692,105.30534817141616L129.51838817598374,105.3297184178165L129.6184651408365,105.35665477516845L129.7137191194313,105.38226383375235L129.83549952244488,105.41496222928568L129.8596144537347,105.42142695505014L129.95125119263602,105.44598978989922L130.019978746812,105.46438979438985L130.03324195902144,105.46793966795781L130.54447850236565,105.60430790491698L130.56859343365545,105.61072578484257L130.99904495717877,105.72483183815069L131.0074851831302,105.72705961804377L131.2100506059647,105.78054195075705L131.2510459891574,105.7913477242571L131.2896298792211,105.80151327129252L131.35474019370363,105.8186536432268L131.46325738450784,105.84719837438007L131.69837796458359,105.9089151645486L131.73575610808282,105.91870594487305L131.80207216912981,105.93607013581529L131.844273298887,105.94711013850969L131.85633076453192,105.95026442499379L132.09145134460766,106.01167411466305L132.2252892132662,106.04655344425055L132.4001224651174,106.09202513851658L132.4664385261644,106.1092487919422L132.7220567978365,106.175499218295L132.98490954889556,106.24340486428797L133.38160016861312,106.34548715228536L133.4515334693536,106.3634291085737L133.8976596982153,106.47752995678862L134.02305734092238,106.50949443417959L134.03993779282524,106.51379384116949L134.06284697755058,106.51962354556257L134.1122825866947,106.53220425584654L134.12916303859757,106.53649845774324L134.14724923706495,106.54109976013919L134.16292394240332,106.54508165644343L134.2099480584185,106.55703255044922L134.25817792099812,106.56929054495433L134.26902964007854,106.5720440392614L134.33775719425455,106.58948630660178L134.36669511180233,106.59682548802519L134.5716720277658,106.64875149786927L134.5740835208948,106.64936049377462L134.7778546902938,106.700844070696L134.9900660856442,106.75432640340931L135.1009947695774,106.78223090809797L135.18780852222073,106.80404024863995L135.20468897412363,106.80827719451132L135.43739806107038,106.866621084281L135.71351402433885,106.93563021003409L135.78224157851483,106.95277058196837L135.93054840594723,106.98971633355951L136.14275980129767,107.04245954303727L136.2633344577468,107.07236800861105L136.38752635388937,107.10313010947097L136.79024570642937,107.20256300502543L137.58724418555798,107.39795179387134L137.6354740481376,107.40971530452167L137.6752636847658,107.41941759826157L137.89712105263217,107.47342044029568L138.41318058223436,107.59849362499328L138.57836786156963,107.63836463896737L138.90874242024017,107.71788284790763L139.19571010258906,107.78670459030522L139.3693376078758,107.82823082391948L139.3705433544403,107.82851710404593L139.44047665518073,107.84522024815075L139.676802981821,107.90155497194208L139.68162596807895,107.90270529754106L139.77687994667374,107.92536827336917L140.0686706152806,107.99463765378266L140.35925553732292,108.06338652487533L140.5135910975778,108.09981176714565L140.553380734206,108.10918614001348L140.65225195249425,108.13247372702655L140.78729556771728,108.16423520578242L140.8596403615867,108.18122983510689L140.98986099055176,108.21178373223847L141.03326786687344,108.22196489455352L141.05617705159875,108.22733134565107L141.17192872178993,108.25442906089246L141.22498157062753,108.26684320819383L141.72295490176234,108.38295322238706L141.77239051090646,108.39444086309734L141.87849620858168,108.41908177434452L142.14617194589871,108.48111087010552L142.1895788222204,108.49114628981076L142.33065117026584,108.52374578857315L142.55853727095467,108.57629640960218L142.5922981747604,108.58406761376189L143.26148751805295,108.7375293768165L143.49540235156422,108.79089719747921L143.54242646757936,108.8016092793015L143.78237003391308,108.85617427140208L144.28878359099934,108.97085809005631L144.45879385659256,109.00920921681363L144.61071792371845,109.04342749956373L144.79399140152108,109.08461540211948L145.08216483043444,109.1492158139253L145.45835775855568,109.23323642849056L145.46559223794262,109.23485000738508L145.6597174348257,109.27806789629197L145.6693634073416,109.28021239469372L145.95391959656152,109.3433814058673L146.09499194460696,109.37462758039557L146.4277779964065,109.44813390668047L146.49168256432452,109.46221888890159L146.92213408784784,109.55683186814534L146.93660304662174,109.56000176990909L147.23442244805102,109.6251903572474L147.24286267400245,109.6270381653363L147.3706718098385,109.65494267002497L147.5647970067216,109.69726007780687L147.67331419752577,109.72087038059883L147.98439681116446,109.78840646497402L148.06397608442086,109.80565093877249L148.27015874694882,109.85024297228632L148.3292403286089,109.8630058608326L148.37505869805958,109.872895537928L148.41605408125227,109.88173899128857L148.4618724507029,109.89161825819758L148.50889656671808,109.90175777976694L148.584858600281,109.91811738772005L148.64876316819903,109.93187444906906L148.69578728421422,109.94199315026562L148.74281140022936,109.95210144127577L148.75969185213222,109.95572939124182L148.78018954372857,109.96013290009586L148.9104101726936,109.98809466080982L148.93452510398342,109.99326331836546L148.9755204871761,110.00205992588718L149.0454537879166,110.01704538923332L149.4891685236493,110.1118769823918L149.55066159843835,110.12498340708981L149.7182603709026,110.1606591159382L149.8581269723836,110.1903854032497L150.12339121657163,110.2466368455497L150.15835786694186,110.25403848809164L150.71420703317224,110.37134046862951L151.02408390024644,110.43643536429009L151.0590505506167,110.44376413552713L151.13260109105065,110.45918162160953L151.49914804665593,110.53580579872607L151.67398129850713,110.57225706646244L151.70171346949044,110.57802951483023L151.7969674480852,110.59784530467351L152.3154384708164,110.7053877354462L152.33352466928375,110.70912499236961L152.57346823561747,110.75868268480399L152.6916313989376,110.78304252101795L152.91590025993293,110.8291856723078L153.37046671474607,110.92239327638538L153.44281150861553,110.93718094618961L153.77800905354403,111.00557066585093L153.77921480010855,111.00582051032492L153.91305266876705,111.03305355798972L153.9468135725728,111.03991907593122L153.98298596950752,111.04727387263428L154.03242157865168,111.05731970252592L154.17228818013263,111.08570828088293L154.26151342590498,111.10379597978111L154.55330409451182,111.16283214694745L154.60394545022044,111.17306015510138L154.6473523265421,111.18182553206384L154.868003947844,111.22630825862032L154.9994303233735,111.25275013211751L155.0368084668727,111.26026628671L155.12121072638712,111.27722448038202L155.39009221026862,111.3311440409248L155.50222664076628,111.35358840283814L155.51669559954016,111.35648243466187L155.64329898881175,111.38178439274647L156.03998960852928,111.46085496367081L156.621159452614,111.57612175276434L156.69229849991896,111.59018070951944L156.72123641746674,111.59589590186194L156.76102605409497,111.60375559260619L157.28793730277755,111.70750871552337L157.36751657603395,111.7231344053341L157.4012774798397,111.72975528389482L157.42780390425852,111.73496037710292L157.80520257894423,111.80882064972597L158.02103121398812,111.85093505887275L158.0801127956482,111.86244872504908L158.08373003534166,111.86315141263219L158.09699324755104,111.86573313886339L158.15004609638865,111.8760652488815" style="fill: none;" fill="none"></path></g></g></g></g></g></g><g transform="translate(51, 177)" clip-path="url(#clip_1)"><clipPath id="clip_1"><rect width="278" height="23"></rect></clipPath><g><g><line x1="11.083931878848446" y1="0" x2="11.083931878848446" y2="5" style="visibility: inherit;" fill="rgb(0, 0, 0)" stroke="rgb(204, 204, 204)" stroke-width="1px"></line><line x1="35.19886316866984" y1="0" x2="35.19886316866984" y2="5" style="visibility: inherit;" fill="rgb(0, 0, 0)" stroke="rgb(204, 204, 204)" stroke-width="1px"></line><line x1="59.31379445849122" y1="0" x2="59.31379445849122" y2="5" style="visibility: inherit;" fill="rgb(0, 0, 0)" stroke="rgb(204, 204, 204)" stroke-width="1px"></line><line x1="83.4287257483126" y1="0" x2="83.4287257483126" y2="5" style="visibility: inherit;" fill="rgb(0, 0, 0)" stroke="rgb(204, 204, 204)" stroke-width="1px"></line><line x1="107.54365703813399" y1="0" x2="107.54365703813399" y2="5" style="visibility: inherit;" fill="rgb(0, 0, 0)" stroke="rgb(204, 204, 204)" stroke-width="1px"></line><line x1="131.65858832795539" y1="0" x2="131.65858832795539" y2="5" style="visibility: inherit;" fill="rgb(0, 0, 0)" stroke="rgb(204, 204, 204)" stroke-width="1px"></line><line x1="155.77351961777677" y1="0" x2="155.77351961777677" y2="5" style="visibility: inherit;" fill="rgb(0, 0, 0)" stroke="rgb(204, 204, 204)" stroke-width="1px"></line><line x1="179.88845090759816" y1="0" x2="179.88845090759816" y2="5" style="visibility: inherit;" fill="rgb(0, 0, 0)" stroke="rgb(204, 204, 204)" stroke-width="1px"></line><line x1="204.00338219741957" y1="0" x2="204.00338219741957" y2="5" style="visibility: inherit;" fill="rgb(0, 0, 0)" stroke="rgb(204, 204, 204)" stroke-width="1px"></line><line x1="228.11831348724095" y1="0" x2="228.11831348724095" y2="5" style="visibility: inherit;" fill="rgb(0, 0, 0)" stroke="rgb(204, 204, 204)" stroke-width="1px"></line><line x1="252.2332447770623" y1="0" x2="252.2332447770623" y2="5" style="visibility: inherit;" fill="rgb(0, 0, 0)" stroke="rgb(204, 204, 204)" stroke-width="1px"></line><line x1="276.3481760668837" y1="0" x2="276.3481760668837" y2="5" style="visibility: inherit;" fill="rgb(0, 0, 0)" stroke="rgb(204, 204, 204)" stroke-width="1px"></line></g><g transform="translate(0, 8)"><text x="11.083931878848446" y="0" dx="0em" dy="0.95em" style="text-anchor: middle; visibility: inherit; font-family: Roboto, sans-serif; font-size: 12px; font-weight: 200;" fill="rgb(33, 33, 33)" stroke="none" stroke-width="1px">0</text><text x="35.19886316866984" y="0" dx="0em" dy="0.95em" style="text-anchor: middle; visibility: hidden; font-family: Roboto, sans-serif; font-size: 12px; font-weight: 200;" fill="rgb(33, 33, 33)" stroke="none" stroke-width="1px">20k</text><text x="59.31379445849122" y="0" dx="0em" dy="0.95em" style="text-anchor: middle; visibility: inherit; font-family: Roboto, sans-serif; font-size: 12px; font-weight: 200;" fill="rgb(33, 33, 33)" stroke="none" stroke-width="1px">40k</text><text x="83.4287257483126" y="0" dx="0em" dy="0.95em" style="text-anchor: middle; visibility: hidden; font-family: Roboto, sans-serif; font-size: 12px; font-weight: 200;" fill="rgb(33, 33, 33)" stroke="none" stroke-width="1px">60k</text><text x="107.54365703813399" y="0" dx="0em" dy="0.95em" style="text-anchor: middle; visibility: inherit; font-family: Roboto, sans-serif; font-size: 12px; font-weight: 200;" fill="rgb(33, 33, 33)" stroke="none" stroke-width="1px">80k</text><text x="131.65858832795539" y="0" dx="0em" dy="0.95em" style="text-anchor: middle; visibility: hidden; font-family: Roboto, sans-serif; font-size: 12px; font-weight: 200;" fill="rgb(33, 33, 33)" stroke="none" stroke-width="1px">100k</text><text x="155.77351961777677" y="0" dx="0em" dy="0.95em" style="text-anchor: middle; visibility: inherit; font-family: Roboto, sans-serif; font-size: 12px; font-weight: 200;" fill="rgb(33, 33, 33)" stroke="none" stroke-width="1px">120k</text><text x="179.88845090759816" y="0" dx="0em" dy="0.95em" style="text-anchor: middle; visibility: hidden; font-family: Roboto, sans-serif; font-size: 12px; font-weight: 200;" fill="rgb(33, 33, 33)" stroke="none" stroke-width="1px">140k</text><text x="204.00338219741957" y="0" dx="0em" dy="0.95em" style="text-anchor: middle; visibility: inherit; font-family: Roboto, sans-serif; font-size: 12px; font-weight: 200;" fill="rgb(33, 33, 33)" stroke="none" stroke-width="1px">160k</text><text x="228.11831348724095" y="0" dx="0em" dy="0.95em" style="text-anchor: middle; visibility: hidden; font-family: Roboto, sans-serif; font-size: 12px; font-weight: 200;" fill="rgb(33, 33, 33)" stroke="none" stroke-width="1px">180k</text><text x="252.2332447770623" y="0" dx="0em" dy="0.95em" style="text-anchor: middle; visibility: inherit; font-family: Roboto, sans-serif; font-size: 12px; font-weight: 200;" fill="rgb(33, 33, 33)" stroke="none" stroke-width="1px">200k</text><text x="276.3481760668837" y="0" dx="0em" dy="0.95em" style="text-anchor: middle; visibility: hidden; font-family: Roboto, sans-serif; font-size: 12px; font-weight: 200;" fill="rgb(33, 33, 33)" stroke="none" stroke-width="1px">220k</text></g><line x1="0" y1="0" x2="278.4375" y2="0" fill="rgb(0, 0, 0)" stroke="rgb(204, 204, 204)" stroke-width="1px"></line></g></g></g></g></svg>