<svg viewBox="0 0 330 200" xmlns="http://www.w3.org/2000/svg"><g><g><g><g><g><line x1="40" y1="176" x2="35" y2="176" style="visibility: inherit;" fill="rgb(0, 0, 0)" stroke="rgb(204, 204, 204)" stroke-width="1px"></line><line x1="40" y1="150.85714285714286" x2="35" y2="150.85714285714286" style="visibility: inherit;" fill="rgb(0, 0, 0)" stroke="rgb(204, 204, 204)" stroke-width="1px"></line><line x1="40" y1="125.71428571428572" x2="35" y2="125.71428571428572" style="visibility: inherit;" fill="rgb(0, 0, 0)" stroke="rgb(204, 204, 204)" stroke-width="1px"></line><line x1="40" y1="100.57142857142857" x2="35" y2="100.57142857142857" style="visibility: inherit;" fill="rgb(0, 0, 0)" stroke="rgb(204, 204, 204)" stroke-width="1px"></line><line x1="40" y1="75.42857142857143" x2="35" y2="75.42857142857143" style="visibility: inherit;" fill="rgb(0, 0, 0)" stroke="rgb(204, 204, 204)" stroke-width="1px"></line><line x1="40" y1="50.28571428571428" x2="35" y2="50.28571428571428" style="visibility: inherit;" fill="rgb(0, 0, 0)" stroke="rgb(204, 204, 204)" stroke-width="1px"></line><line x1="40" y1="25.14285714285714" x2="35" y2="25.14285714285714" style="visibility: inherit;" fill="rgb(0, 0, 0)" stroke="rgb(204, 204, 204)" stroke-width="1px"></line><line x1="40" y1="0" x2="35" y2="0" style="visibility: inherit;" fill="rgb(0, 0, 0)" stroke="rgb(204, 204, 204)" stroke-width="1px"></line></g><g transform="translate(30, 0)"><text x="0" y="176" dx="0em" dy="0.3em" style="text-anchor: end; visibility: hidden; font-family: &quot;Helvetica Neue&quot;, sans-serif; font-size: 16px; font-weight: 200;" fill="rgb(50, 49, 63)" stroke="none" stroke-width="1px">-50</text><text x="0" y="150.85714285714286" dx="0em" dy="0.3em" style="text-anchor: end; visibility: inherit; font-family: &quot;Helvetica Neue&quot;, sans-serif; font-size: 16px; font-weight: 200;" fill="rgb(50, 49, 63)" stroke="none" stroke-width="1px">0</text><text x="0" y="125.71428571428572" dx="0em" dy="0.3em" style="text-anchor: end; visibility: inherit; font-family: &quot;Helvetica Neue&quot;, sans-serif; font-size: 16px; font-weight: 200;" fill="rgb(50, 49, 63)" stroke="none" stroke-width="1px">50</text><text x="0" y="100.57142857142857" dx="0em" dy="0.3em" style="text-anchor: end; visibility: inherit; font-family: &quot;Helvetica Neue&quot;, sans-serif; font-size: 16px; font-weight: 200;" fill="rgb(50, 49, 63)" stroke="none" stroke-width="1px">100</text><text x="0" y="75.42857142857143" dx="0em" dy="0.3em" style="text-anchor: end; visibility: inherit; font-family: &quot;Helvetica Neue&quot;, sans-serif; font-size: 16px; font-weight: 200;" fill="rgb(50, 49, 63)" stroke="none" stroke-width="1px">150</text><text x="0" y="50.28571428571428" dx="0em" dy="0.3em" style="text-anchor: end; visibility: inherit; font-family: &quot;Helvetica Neue&quot;, sans-serif; font-size: 16px; font-weight: 200;" fill="rgb(50, 49, 63)" stroke="none" stroke-width="1px">200</text><text x="0" y="25.14285714285714" dx="0em" dy="0.3em" style="text-anchor: end; visibility: inherit; font-family: &quot;Helvetica Neue&quot;, sans-serif; font-size: 16px; font-weight: 200;" fill="rgb(50, 49, 63)" stroke="none" stroke-width="1px">250</text><text x="0" y="0" dx="0em" dy="0.3em" style="text-anchor: end; visibility: hidden; font-family: &quot;Helvetica Neue&quot;, sans-serif; font-size: 16px; font-weight: 200;" fill="rgb(50, 49, 63)" stroke="none" stroke-width="1px">300</text></g><line x1="40" y1="0" x2="40" y2="176" fill="rgb(0, 0, 0)" stroke="rgb(204, 204, 204)" stroke-width="1px"></line></g></g><g transform="translate(40, 0)" clip-path="url(#clip_0)"><clipPath id="clip_0"><rect width="290" height="176"></rect></clipPath><g><g><g><line x1="0" y1="0" x2="0" y2="176" fill="rgb(0, 0, 0)" stroke="rgb(60, 60, 60)" stroke-width="1px" opacity="0.25"></line><line x1="19.333333333333332" y1="0" x2="19.333333333333332" y2="176" fill="rgb(0, 0, 0)" stroke="rgb(60, 60, 60)" stroke-width="1px" opacity="0.25"></line><line x1="38.666666666666664" y1="0" x2="38.666666666666664" y2="176" fill="rgb(0, 0, 0)" stroke="rgb(60, 60, 60)" stroke-width="1px" opacity="0.25"></line><line x1="58" y1="0" x2="58" y2="176" fill="rgb(0, 0, 0)" stroke="rgb(60, 60, 60)" stroke-width="1px" opacity="0.25"></line><line x1="77.33333333333333" y1="0" x2="77.33333333333333" y2="176" fill="rgb(0, 0, 0)" stroke="rgb(60, 60, 60)" stroke-width="1px" opacity="0.25"></line><line x1="96.66666666666666" y1="0" x2="96.66666666666666" y2="176" fill="rgb(0, 0, 0)" stroke="rgb(60, 60, 60)" stroke-width="1px" opacity="0.25"></line><line x1="116" y1="0" x2="116" y2="176" fill="rgb(0, 0, 0)" stroke="rgb(60, 60, 60)" stroke-width="1px" opacity="0.25"></line><line x1="135.33333333333334" y1="0" x2="135.33333333333334" y2="176" fill="rgb(0, 0, 0)" stroke="rgb(60, 60, 60)" stroke-width="1px" opacity="0.25"></line><line x1="154.66666666666666" y1="0" x2="154.66666666666666" y2="176" fill="rgb(0, 0, 0)" stroke="rgb(60, 60, 60)" stroke-width="1px" opacity="0.25"></line><line x1="174" y1="0" x2="174" y2="176" fill="rgb(0, 0, 0)" stroke="rgb(60, 60, 60)" stroke-width="1px" opacity="0.25"></line><line x1="193.33333333333331" y1="0" x2="193.33333333333331" y2="176" fill="rgb(0, 0, 0)" stroke="rgb(60, 60, 60)" stroke-width="1px" opacity="0.25"></line><line x1="212.66666666666666" y1="0" x2="212.66666666666666" y2="176" fill="rgb(0, 0, 0)" stroke="rgb(60, 60, 60)" stroke-width="1px" opacity="0.25"></line><line x1="232" y1="0" x2="232" y2="176" fill="rgb(0, 0, 0)" stroke="rgb(60, 60, 60)" stroke-width="1px" opacity="0.25"></line><line x1="251.33333333333334" y1="0" x2="251.33333333333334" y2="176" fill="rgb(0, 0, 0)" stroke="rgb(60, 60, 60)" stroke-width="1px" opacity="0.25"></line><line x1="270.6666666666667" y1="0" x2="270.6666666666667" y2="176" fill="rgb(0, 0, 0)" stroke="rgb(60, 60, 60)" stroke-width="1px" opacity="0.25"></line><line x1="290" y1="0" x2="290" y2="176" fill="rgb(0, 0, 0)" stroke="rgb(60, 60, 60)" stroke-width="1px" opacity="0.25"></line></g><g><line x1="0" y1="176" x2="290" y2="176" fill="rgb(0, 0, 0)" stroke="rgb(60, 60, 60)" stroke-width="1px" opacity="0.25"></line><line x1="0" y1="150.85714285714286" x2="290" y2="150.85714285714286" fill="rgb(0, 0, 0)" stroke="rgb(60, 60, 60)" stroke-width="1px" opacity="0.25"></line><line x1="0" y1="125.71428571428572" x2="290" y2="125.71428571428572" fill="rgb(0, 0, 0)" stroke="rgb(60, 60, 60)" stroke-width="1px" opacity="0.25"></line><line x1="0" y1="100.57142857142857" x2="290" y2="100.57142857142857" fill="rgb(0, 0, 0)" stroke="rgb(60, 60, 60)" stroke-width="1px" opacity="0.25"></line><line x1="0" y1="75.42857142857143" x2="290" y2="75.42857142857143" fill="rgb(0, 0, 0)" stroke="rgb(60, 60, 60)" stroke-width="1px" opacity="0.25"></line><line x1="0" y1="50.28571428571428" x2="290" y2="50.28571428571428" fill="rgb(0, 0, 0)" stroke="rgb(60, 60, 60)" stroke-width="1px" opacity="0.25"></line><line x1="0" y1="25.14285714285714" x2="290" y2="25.14285714285714" fill="rgb(0, 0, 0)" stroke="rgb(60, 60, 60)" stroke-width="1px" opacity="0.25"></line><line x1="0" y1="0" x2="290" y2="0" fill="rgb(0, 0, 0)" stroke="rgb(60, 60, 60)" stroke-width="1px" opacity="0.25"></line></g></g></g><g><g><line x1="0" y1="150.85714285714286" x2="290" y2="150.85714285714286" fill="rgb(0, 0, 0)" stroke="rgb(153, 153, 153)" stroke-width="1.5px"></line></g></g><g><g><line x1="19.333333333333332" y1="0" x2="19.333333333333332" y2="176" fill="rgb(0, 0, 0)" stroke="rgb(153, 153, 153)" stroke-width="1.5px"></line></g></g><g><g><g><g><g><path stroke="rgb(0, 119, 187)" stroke-width="2px" d="M25.133333333333333,-16.810887622993505L27.066666666666666,12.252180583126034L29,29.6221604684593L30.933333333333334,42.66286481917342L32.86666666666667,54.19072152341559L34.8,63.79188753294608L36.733333333333334,74.06133311992828L38.666666666666664,82.7332930161759L40.6,89.99158314463425L42.53333333333333,95.62078667127993L44.46666666666666,100.36404937249716L46.4,104.00064898463799L48.33333333333333,107.14733276892524L50.266666666666666,109.94924935075966L52.199999999999996,112.24835760555838L54.13333333333333,114.23703934492416L56.06666666666666,115.5122518155643L58,117.2263420255143L59.93333333333333,117.28275936190104L61.86666666666667,118.64114681348687L63.8,119.44229498133586L65.73333333333333,120.25362922569369L67.66666666666667,121.67774713825025L69.6,122.75858744721552L71.53333333333333,123.75762406397477L73.46666666666667,124.3714248319545L75.4,123.24906670462L77.33333333333333,123.42221320422107L79.26666666666667,124.09932574427887L81.2,124.32579356006018L83.13333333333334,124.83097531345658L85.06666666666666,125.73750603234089L87,127.18403293119962L88.93333333333332,128.02626832699013L90.86666666666667,127.34257140102144L92.8,126.99556488225048L94.73333333333333,127.8440177809309L96.66666666666666,128.04716045945807L98.60000000000001,128.66314142106054L100.53333333333333,129.27981795828316L102.46666666666667,129.98127100667622L104.39999999999999,130.1830942865044L106.33333333333333,130.35538858921248L108.26666666666667,129.18021697044782L110.2,129.07077520179746L112.13333333333333,129.71809981695773L114.06666666666666,127.99840013848663L116,128.32294263610694L117.93333333333334,129.88951606995L119.86666666666666,131.29384412857956L121.8,131.87827090237158L123.73333333333333,132.67858189131184L125.66666666666667,133.4939677034258L127.6,133.46442519515816L129.53333333333333,133.29463174934935L131.46666666666667,133.74047219972124L133.4,133.3840579431586L135.33333333333334,133.85779379212286L137.26666666666665,133.89403502248354L139.2,133.0371286725303L141.13333333333335,132.69738274202263L143.06666666666666,134.07976955871806L145,134.95566928266385L146.93333333333334,136.19440366223225L148.86666666666665,136.91768300370097L150.8,137.74147730361568L152.73333333333332,138.151868141377L154.66666666666666,137.98815352991548L156.60000000000002,138.35920950076178L158.53333333333333,138.23171414214235L160.46666666666667,138.84629829555325L162.4,139.23739330489892L164.33333333333334,139.24959073321838L166.26666666666668,139.30376968128147L168.2,139.52175127584476L170.13333333333333,139.37411347477024L172.0666666666667,139.8006858234224L174,140.07623180655347L175.93333333333334,140.47593014140975L177.86666666666665,140.58114454550434L179.8,140.41896079259277L181.73333333333335,140.1495933073079L183.66666666666666,139.8822999994517L185.6,140.5261988822045L187.53333333333333,140.86701972692316L189.46666666666667,141.28737035317397L191.4,141.35221089075483L193.33333333333331,141.29373459806897L195.26666666666668,140.9657734388079L197.20000000000002,141.13403315508162L199.13333333333333,141.54000342401994L201.06666666666666,142.1472281983852L203,142.12022402143066L204.93333333333334,141.0831945063294L206.86666666666667,141.18751352299404L208.79999999999998,141.63262425497948L210.73333333333335,142.16068307349548L212.66666666666666,142.4095550380147L214.6,142.72349802001864L216.53333333333333,142.74147199839513L218.46666666666667,142.9489675147458L220.4,142.9200372296901L222.33333333333334,142.69279532191004L224.26666666666665,143.01592192668397L226.20000000000002,143.24964219758405L228.13333333333333,143.22107316034732L230.06666666666666,143.20970432101308L232,143.39739813669266L233.93333333333334,143.21860822841626L235.86666666666667,143.46980434134665L237.79999999999998,143.74662876831246L239.73333333333332,144.051006261406L241.66666666666669,143.95332189649204L243.6,143.97122308348673L245.53333333333333,143.96196548722932L247.46666666666667,144.1605105737271L249.4,144.4088402449059L251.33333333333334,144.74895921111766L253.26666666666665,144.89663698384135L255.2,144.87679205707377L257.1333333333333,144.87011827274873L259.06666666666666,144.7272207787999L261,144.70147202852436L262.93333333333334,145.11834882816373L264.8666666666667,145.29362814106676L266.8,145.13912943416574L268.73333333333335,145.3101319224972L270.6666666666667,145.26989205458648L272.59999999999997,144.97669757929208L272.9866666666667,144.90883118708416" style="fill: none;" fill="none"></path></g><g><path stroke="rgb(255, 112, 67)" stroke-width="2px" d="M44.69866666666667,-5.230655620786223L57.38133333333333,52.18024536004587L70.06400000000001,83.24370685340276L82.74666666666667,94.0465743087621L95.42933333333333,103.80198395556752L108.11200000000001,114.01280044216395L120.79466666666666,119.9480633767709L133.47733333333332,124.7560601158641L146.16,129.086767495886L158.84266666666664,132.14523884100672L171.52533333333335,134.02462075239947L184.208,135.31334753695876L196.89066666666668,136.17570367937498L209.57333333333332,136.95844045930917L222.256,137.10204209119422L234.93866666666668,137.54699536742208L247.62133333333333,137.59710143163917L260.304,137.67710076770294L272.9866666666667,137.71558761628978" style="fill: none;" fill="none"></path></g></g></g></g><g opacity="0.2"><g><g><g><path stroke="rgb(0, 119, 187)" stroke-width="2px" d="M19.333333333333332,-542.0511495535713L21.266666666666666,9.899984654017857L23.2,46.85788225446427L25.133333333333333,48.82383300781251L27.066666666666666,50.19692243303572L29,53.651095842633936L30.933333333333334,61.3112806919643L32.86666666666667,70.99844726562499L34.8,77.95174246651786L36.733333333333334,89.31026297433036L38.666666666666664,95.66257882254465L40.6,100.83951904296876L42.53333333333333,104.04621163504464L44.46666666666666,107.46965087890625L46.4,109.45127371651786L48.33333333333333,111.86513916015625L50.266666666666666,114.15093854631697L52.199999999999996,115.69643624441964L54.13333333333333,117.21975899832589L56.06666666666666,117.42495396205356L58,119.79738333565848L59.93333333333333,117.36738351004465L61.86666666666667,120.678701171875L63.8,120.64400774274554L65.73333333333333,121.47062482561384L67.66666666666667,123.81391793387277L69.6,124.37984514508929L71.53333333333333,125.25617745535715L73.46666666666667,125.29212541852678L75.4,121.56553013392858L77.33333333333333,123.68193289620535L79.26666666666667,125.11499441964285L81.2,124.66549525669643L83.13333333333334,125.58874790736607L85.06666666666666,127.09730207170759L87,129.3538232421875L88.93333333333332,129.2896214076451L90.86666666666667,126.31702601841518L92.8,126.47505510602679L94.73333333333333,129.11669712611607L96.66666666666666,128.35187447684152L98.60000000000001,129.58711286272322L100.53333333333333,130.20483276367187L102.46666666666667,131.03345057896206L104.39999999999999,130.48582920619418L106.33333333333333,130.61383004324776L108.26666666666667,127.41745954241071L110.2,128.90661254882812L112.13333333333333,130.68908673967633L114.06666666666666,125.41885062081474L116,128.80975638253346L117.93333333333334,132.23937622070312L119.86666666666666,133.40033621651787L121.8,132.75491106305805L123.73333333333333,133.87904837472098L125.66666666666667,134.71704642159597L127.6,133.4201114327567L129.53333333333333,133.03994158063617L131.46666666666667,134.40923287527903L133.4,132.84943655831472L135.33333333333334,134.5683975655692L137.26666666666665,133.94839686802456L139.2,131.75176914760044L141.13333333333335,132.18776384626116L143.06666666666666,136.15334978376114L145,136.2695188685826L146.93333333333334,138.05250523158483L148.86666666666665,138.00260201590402L150.8,138.97716875348772L152.73333333333332,138.76745439801897L154.66666666666666,137.7425816127232L156.60000000000002,138.91579345703124L158.53333333333333,138.04047110421317L160.46666666666667,139.76817452566965L162.4,139.82403581891742L164.33333333333334,139.26788687569754L166.26666666666668,139.38503810337613L168.2,139.84872366768974L170.13333333333333,139.15265677315847L172.0666666666667,140.44054434640066L174,140.48955078125L175.93333333333334,141.0754776436942L177.86666666666665,140.7389661516462L179.8,140.17568516322544L181.73333333333335,139.74554207938058L183.66666666666666,139.4813600376674L185.6,141.49204720633372L187.53333333333333,141.37825099400112L189.46666666666667,141.9178962925502L191.4,141.4494716971261L193.33333333333331,141.20602015904018L195.26666666666668,140.4738316999163L197.20000000000002,141.38642272949218L199.13333333333333,142.14895882742746L201.06666666666666,143.05806535993304L203,142.0797177559989L204.93333333333334,139.52765023367746L206.86666666666667,141.34399204799107L208.79999999999998,142.30029035295757L210.73333333333335,142.95277130126954L212.66666666666666,142.78286298479352L214.6,143.19441249302454L216.53333333333333,142.76843296595982L218.46666666666667,143.26021078927175L220.4,142.87664180210658L222.33333333333334,142.35193246023996L224.26666666666665,143.50061183384486L226.20000000000002,143.60022260393416L228.13333333333333,143.1782196044922L230.06666666666666,143.19265106201172L232,143.67893886021204L233.93333333333334,142.95042336600167L235.86666666666667,143.84659851074218L237.79999999999998,144.16186540876117L239.73333333333332,144.50757250104633L241.66666666666669,143.8067953491211L243.6,143.9980748639788L245.53333333333333,143.9480790928432L247.46666666666667,144.45832820347377L249.4,144.7813347516741L251.33333333333334,145.25913766043527L253.26666666666665,145.1181536429269L255.2,144.84702466692244L257.1333333333333,144.86010759626117L259.06666666666666,144.51287453787668L261,144.66284890311104L262.93333333333334,145.74366402762277L264.8666666666667,145.55654711042132L266.8,144.9073813738142L268.73333333333335,145.56663565499443L270.6666666666667,145.20953225272044L272.59999999999997,144.53690586635045L272.9866666666667,144.8070315987723" style="fill: none;" fill="none"></path></g><g><path stroke="rgb(255, 112, 67)" stroke-width="2px" d="M19.333333333333332,-446.4205133928572L32.016,69.36922572544644L44.69866666666667,108.83776436941965L57.38133333333333,119.69546491350445L70.06400000000001,123.80016217912947L82.74666666666667,108.99082903180803L95.42933333333333,117.75237583705356L108.11200000000001,128.90026890345982L120.79466666666666,128.70142333984376L133.47733333333332,131.89537493024554L146.16,135.5435493687221L158.84266666666664,136.71630179268973L171.52533333333335,136.83755711146762L184.208,137.2439129638672L196.89066666666668,137.46822422572544L209.57333333333332,138.13199358258927L222.256,137.3173837716239L234.93866666666668,138.21431230817524L247.62133333333333,137.67225289481027L260.304,137.7970924595424L272.9866666666667,137.77331577845982" style="fill: none;" fill="none"></path></g></g></g></g></g></g><g transform="translate(40, 176)" clip-path="url(#clip_1)"><clipPath id="clip_1"><rect width="290" height="24"></rect></clipPath><g><g><line x1="0" y1="0" x2="0" y2="5" style="visibility: inherit;" fill="rgb(0, 0, 0)" stroke="rgb(204, 204, 204)" stroke-width="1px"></line><line x1="19.333333333333332" y1="0" x2="19.333333333333332" y2="5" style="visibility: inherit;" fill="rgb(0, 0, 0)" stroke="rgb(204, 204, 204)" stroke-width="1px"></line><line x1="38.666666666666664" y1="0" x2="38.666666666666664" y2="5" style="visibility: inherit;" fill="rgb(0, 0, 0)" stroke="rgb(204, 204, 204)" stroke-width="1px"></line><line x1="58" y1="0" x2="58" y2="5" style="visibility: inherit;" fill="rgb(0, 0, 0)" stroke="rgb(204, 204, 204)" stroke-width="1px"></line><line x1="77.33333333333333" y1="0" x2="77.33333333333333" y2="5" style="visibility: inherit;" fill="rgb(0, 0, 0)" stroke="rgb(204, 204, 204)" stroke-width="1px"></line><line x1="96.66666666666666" y1="0" x2="96.66666666666666" y2="5" style="visibility: inherit;" fill="rgb(0, 0, 0)" stroke="rgb(204, 204, 204)" stroke-width="1px"></line><line x1="116" y1="0" x2="116" y2="5" style="visibility: inherit;" fill="rgb(0, 0, 0)" stroke="rgb(204, 204, 204)" stroke-width="1px"></line><line x1="135.33333333333334" y1="0" x2="135.33333333333334" y2="5" style="visibility: inherit;" fill="rgb(0, 0, 0)" stroke="rgb(204, 204, 204)" stroke-width="1px"></line><line x1="154.66666666666666" y1="0" x2="154.66666666666666" y2="5" style="visibility: inherit;" fill="rgb(0, 0, 0)" stroke="rgb(204, 204, 204)" stroke-width="1px"></line><line x1="174" y1="0" x2="174" y2="5" style="visibility: inherit;" fill="rgb(0, 0, 0)" stroke="rgb(204, 204, 204)" stroke-width="1px"></line><line x1="193.33333333333331" y1="0" x2="193.33333333333331" y2="5" style="visibility: inherit;" fill="rgb(0, 0, 0)" stroke="rgb(204, 204, 204)" stroke-width="1px"></line><line x1="212.66666666666666" y1="0" x2="212.66666666666666" y2="5" style="visibility: inherit;" fill="rgb(0, 0, 0)" stroke="rgb(204, 204, 204)" stroke-width="1px"></line><line x1="232" y1="0" x2="232" y2="5" style="visibility: inherit;" fill="rgb(0, 0, 0)" stroke="rgb(204, 204, 204)" stroke-width="1px"></line><line x1="251.33333333333334" y1="0" x2="251.33333333333334" y2="5" style="visibility: inherit;" fill="rgb(0, 0, 0)" stroke="rgb(204, 204, 204)" stroke-width="1px"></line><line x1="270.6666666666667" y1="0" x2="270.6666666666667" y2="5" style="visibility: inherit;" fill="rgb(0, 0, 0)" stroke="rgb(204, 204, 204)" stroke-width="1px"></line><line x1="290" y1="0" x2="290" y2="5" style="visibility: inherit;" fill="rgb(0, 0, 0)" stroke="rgb(204, 204, 204)" stroke-width="1px"></line></g><g transform="translate(0, 8)"><text x="0" y="0" dx="0em" dy="0.95em" style="text-anchor: middle; visibility: hidden; font-family: &quot;Helvetica Neue&quot;, sans-serif; font-size: 16px; font-weight: 200;" fill="rgb(50, 49, 63)" stroke="none" stroke-width="1px">-2k</text><text x="19.333333333333332" y="0" dx="0em" dy="0.95em" style="text-anchor: middle; visibility: inherit; font-family: &quot;Helvetica Neue&quot;, sans-serif; font-size: 16px; font-weight: 200;" fill="rgb(50, 49, 63)" stroke="none" stroke-width="1px">0</text><text x="38.666666666666664" y="0" dx="0em" dy="0.95em" style="text-anchor: middle; visibility: hidden; font-family: &quot;Helvetica Neue&quot;, sans-serif; font-size: 16px; font-weight: 200;" fill="rgb(50, 49, 63)" stroke="none" stroke-width="1px">2k</text><text x="58" y="0" dx="0em" dy="0.95em" style="text-anchor: middle; visibility: inherit; font-family: &quot;Helvetica Neue&quot;, sans-serif; font-size: 16px; font-weight: 200;" fill="rgb(50, 49, 63)" stroke="none" stroke-width="1px">4k</text><text x="77.33333333333333" y="0" dx="0em" dy="0.95em" style="text-anchor: middle; visibility: hidden; font-family: &quot;Helvetica Neue&quot;, sans-serif; font-size: 16px; font-weight: 200;" fill="rgb(50, 49, 63)" stroke="none" stroke-width="1px">6k</text><text x="96.66666666666666" y="0" dx="0em" dy="0.95em" style="text-anchor: middle; visibility: inherit; font-family: &quot;Helvetica Neue&quot;, sans-serif; font-size: 16px; font-weight: 200;" fill="rgb(50, 49, 63)" stroke="none" stroke-width="1px">8k</text><text x="116" y="0" dx="0em" dy="0.95em" style="text-anchor: middle; visibility: hidden; font-family: &quot;Helvetica Neue&quot;, sans-serif; font-size: 16px; font-weight: 200;" fill="rgb(50, 49, 63)" stroke="none" stroke-width="1px">10k</text><text x="135.33333333333334" y="0" dx="0em" dy="0.95em" style="text-anchor: middle; visibility: inherit; font-family: &quot;Helvetica Neue&quot;, sans-serif; font-size: 16px; font-weight: 200;" fill="rgb(50, 49, 63)" stroke="none" stroke-width="1px">12k</text><text x="154.66666666666666" y="0" dx="0em" dy="0.95em" style="text-anchor: middle; visibility: hidden; font-family: &quot;Helvetica Neue&quot;, sans-serif; font-size: 16px; font-weight: 200;" fill="rgb(50, 49, 63)" stroke="none" stroke-width="1px">14k</text><text x="174" y="0" dx="0em" dy="0.95em" style="text-anchor: middle; visibility: inherit; font-family: &quot;Helvetica Neue&quot;, sans-serif; font-size: 16px; font-weight: 200;" fill="rgb(50, 49, 63)" stroke="none" stroke-width="1px">16k</text><text x="193.33333333333331" y="0" dx="0em" dy="0.95em" style="text-anchor: middle; visibility: hidden; font-family: &quot;Helvetica Neue&quot;, sans-serif; font-size: 16px; font-weight: 200;" fill="rgb(50, 49, 63)" stroke="none" stroke-width="1px">18k</text><text x="212.66666666666666" y="0" dx="0em" dy="0.95em" style="text-anchor: middle; visibility: inherit; font-family: &quot;Helvetica Neue&quot;, sans-serif; font-size: 16px; font-weight: 200;" fill="rgb(50, 49, 63)" stroke="none" stroke-width="1px">20k</text><text x="232" y="0" dx="0em" dy="0.95em" style="text-anchor: middle; visibility: hidden; font-family: &quot;Helvetica Neue&quot;, sans-serif; font-size: 16px; font-weight: 200;" fill="rgb(50, 49, 63)" stroke="none" stroke-width="1px">22k</text><text x="251.33333333333334" y="0" dx="0em" dy="0.95em" style="text-anchor: middle; visibility: inherit; font-family: &quot;Helvetica Neue&quot;, sans-serif; font-size: 16px; font-weight: 200;" fill="rgb(50, 49, 63)" stroke="none" stroke-width="1px">24k</text><text x="270.6666666666667" y="0" dx="0em" dy="0.95em" style="text-anchor: middle; visibility: hidden; font-family: &quot;Helvetica Neue&quot;, sans-serif; font-size: 16px; font-weight: 200;" fill="rgb(50, 49, 63)" stroke="none" stroke-width="1px">26k</text><text x="290" y="0" dx="0em" dy="0.95em" style="text-anchor: middle; visibility: hidden; font-family: &quot;Helvetica Neue&quot;, sans-serif; font-size: 16px; font-weight: 200;" fill="rgb(50, 49, 63)" stroke="none" stroke-width="1px">28k</text></g><line x1="0" y1="0" x2="290" y2="0" fill="rgb(0, 0, 0)" stroke="rgb(204, 204, 204)" stroke-width="1px"></line></g></g></g></g></svg>