<svg viewBox="0 0 330 200" xmlns="http://www.w3.org/2000/svg"><g><g><g><g><g><line x1="46" y1="178" x2="41" y2="178" style="visibility: inherit;" fill="rgb(0, 0, 0)" stroke="rgb(204, 204, 204)" stroke-width="1px"></line><line x1="46" y1="161.8181818181818" x2="41" y2="161.8181818181818" style="visibility: inherit;" fill="rgb(0, 0, 0)" stroke="rgb(204, 204, 204)" stroke-width="1px"></line><line x1="46" y1="145.63636363636363" x2="41" y2="145.63636363636363" style="visibility: inherit;" fill="rgb(0, 0, 0)" stroke="rgb(204, 204, 204)" stroke-width="1px"></line><line x1="46" y1="129.45454545454547" x2="41" y2="129.45454545454547" style="visibility: inherit;" fill="rgb(0, 0, 0)" stroke="rgb(204, 204, 204)" stroke-width="1px"></line><line x1="46" y1="113.27272727272727" x2="41" y2="113.27272727272727" style="visibility: inherit;" fill="rgb(0, 0, 0)" stroke="rgb(204, 204, 204)" stroke-width="1px"></line><line x1="46" y1="97.0909090909091" x2="41" y2="97.0909090909091" style="visibility: inherit;" fill="rgb(0, 0, 0)" stroke="rgb(204, 204, 204)" stroke-width="1px"></line><line x1="46" y1="80.90909090909092" x2="41" y2="80.90909090909092" style="visibility: inherit;" fill="rgb(0, 0, 0)" stroke="rgb(204, 204, 204)" stroke-width="1px"></line><line x1="46" y1="64.72727272727273" x2="41" y2="64.72727272727273" style="visibility: inherit;" fill="rgb(0, 0, 0)" stroke="rgb(204, 204, 204)" stroke-width="1px"></line><line x1="46" y1="48.54545454545453" x2="41" y2="48.54545454545453" style="visibility: inherit;" fill="rgb(0, 0, 0)" stroke="rgb(204, 204, 204)" stroke-width="1px"></line><line x1="46" y1="32.363636363636346" x2="41" y2="32.363636363636346" style="visibility: inherit;" fill="rgb(0, 0, 0)" stroke="rgb(204, 204, 204)" stroke-width="1px"></line><line x1="46" y1="16.181818181818187" x2="41" y2="16.181818181818187" style="visibility: inherit;" fill="rgb(0, 0, 0)" stroke="rgb(204, 204, 204)" stroke-width="1px"></line><line x1="46" y1="0" x2="41" y2="0" style="visibility: inherit;" fill="rgb(0, 0, 0)" stroke="rgb(204, 204, 204)" stroke-width="1px"></line></g><g transform="translate(36, 0)"><text x="0" y="178" dx="0em" dy="0.3em" style="text-anchor: end; visibility: hidden; font-family: &quot;Helvetica Neue&quot;, sans-serif; font-size: 12px; font-weight: 200;" fill="rgb(50, 49, 63)" stroke="none" stroke-width="1px">-10</text><text x="0" y="161.8181818181818" dx="0em" dy="0.3em" style="text-anchor: end; visibility: inherit; font-family: &quot;Helvetica Neue&quot;, sans-serif; font-size: 12px; font-weight: 200;" fill="rgb(50, 49, 63)" stroke="none" stroke-width="1px">0</text><text x="0" y="145.63636363636363" dx="0em" dy="0.3em" style="text-anchor: end; visibility: hidden; font-family: &quot;Helvetica Neue&quot;, sans-serif; font-size: 12px; font-weight: 200;" fill="rgb(50, 49, 63)" stroke="none" stroke-width="1px">10</text><text x="0" y="129.45454545454547" dx="0em" dy="0.3em" style="text-anchor: end; visibility: inherit; font-family: &quot;Helvetica Neue&quot;, sans-serif; font-size: 12px; font-weight: 200;" fill="rgb(50, 49, 63)" stroke="none" stroke-width="1px">20</text><text x="0" y="113.27272727272727" dx="0em" dy="0.3em" style="text-anchor: end; visibility: hidden; font-family: &quot;Helvetica Neue&quot;, sans-serif; font-size: 12px; font-weight: 200;" fill="rgb(50, 49, 63)" stroke="none" stroke-width="1px">30</text><text x="0" y="97.0909090909091" dx="0em" dy="0.3em" style="text-anchor: end; visibility: inherit; font-family: &quot;Helvetica Neue&quot;, sans-serif; font-size: 12px; font-weight: 200;" fill="rgb(50, 49, 63)" stroke="none" stroke-width="1px">40</text><text x="0" y="80.90909090909092" dx="0em" dy="0.3em" style="text-anchor: end; visibility: hidden; font-family: &quot;Helvetica Neue&quot;, sans-serif; font-size: 12px; font-weight: 200;" fill="rgb(50, 49, 63)" stroke="none" stroke-width="1px">50</text><text x="0" y="64.72727272727273" dx="0em" dy="0.3em" style="text-anchor: end; visibility: inherit; font-family: &quot;Helvetica Neue&quot;, sans-serif; font-size: 12px; font-weight: 200;" fill="rgb(50, 49, 63)" stroke="none" stroke-width="1px">60</text><text x="0" y="48.54545454545453" dx="0em" dy="0.3em" style="text-anchor: end; visibility: hidden; font-family: &quot;Helvetica Neue&quot;, sans-serif; font-size: 12px; font-weight: 200;" fill="rgb(50, 49, 63)" stroke="none" stroke-width="1px">70</text><text x="0" y="32.363636363636346" dx="0em" dy="0.3em" style="text-anchor: end; visibility: inherit; font-family: &quot;Helvetica Neue&quot;, sans-serif; font-size: 12px; font-weight: 200;" fill="rgb(50, 49, 63)" stroke="none" stroke-width="1px">80</text><text x="0" y="16.181818181818187" dx="0em" dy="0.3em" style="text-anchor: end; visibility: hidden; font-family: &quot;Helvetica Neue&quot;, sans-serif; font-size: 12px; font-weight: 200;" fill="rgb(50, 49, 63)" stroke="none" stroke-width="1px">90</text><text x="0" y="0" dx="0em" dy="0.3em" style="text-anchor: end; visibility: hidden; font-family: &quot;Helvetica Neue&quot;, sans-serif; font-size: 12px; font-weight: 200;" fill="rgb(50, 49, 63)" stroke="none" stroke-width="1px">100</text></g><line x1="46" y1="0" x2="46" y2="178" fill="rgb(0, 0, 0)" stroke="rgb(204, 204, 204)" stroke-width="1px"></line></g></g><g transform="translate(46, 0)" clip-path="url(#clip_0)"><clipPath id="clip_0"><rect width="284" height="178"></rect></clipPath><g><g><g><line x1="0" y1="0" x2="0" y2="178" fill="rgb(0, 0, 0)" stroke="rgb(60, 60, 60)" stroke-width="1px" opacity="0.25"></line><line x1="25.81818181818182" y1="0" x2="25.81818181818182" y2="178" fill="rgb(0, 0, 0)" stroke="rgb(60, 60, 60)" stroke-width="1px" opacity="0.25"></line><line x1="51.63636363636364" y1="0" x2="51.63636363636364" y2="178" fill="rgb(0, 0, 0)" stroke="rgb(60, 60, 60)" stroke-width="1px" opacity="0.25"></line><line x1="77.45454545454545" y1="0" x2="77.45454545454545" y2="178" fill="rgb(0, 0, 0)" stroke="rgb(60, 60, 60)" stroke-width="1px" opacity="0.25"></line><line x1="103.27272727272728" y1="0" x2="103.27272727272728" y2="178" fill="rgb(0, 0, 0)" stroke="rgb(60, 60, 60)" stroke-width="1px" opacity="0.25"></line><line x1="129.0909090909091" y1="0" x2="129.0909090909091" y2="178" fill="rgb(0, 0, 0)" stroke="rgb(60, 60, 60)" stroke-width="1px" opacity="0.25"></line><line x1="154.9090909090909" y1="0" x2="154.9090909090909" y2="178" fill="rgb(0, 0, 0)" stroke="rgb(60, 60, 60)" stroke-width="1px" opacity="0.25"></line><line x1="180.72727272727272" y1="0" x2="180.72727272727272" y2="178" fill="rgb(0, 0, 0)" stroke="rgb(60, 60, 60)" stroke-width="1px" opacity="0.25"></line><line x1="206.54545454545456" y1="0" x2="206.54545454545456" y2="178" fill="rgb(0, 0, 0)" stroke="rgb(60, 60, 60)" stroke-width="1px" opacity="0.25"></line><line x1="232.36363636363637" y1="0" x2="232.36363636363637" y2="178" fill="rgb(0, 0, 0)" stroke="rgb(60, 60, 60)" stroke-width="1px" opacity="0.25"></line><line x1="258.1818181818182" y1="0" x2="258.1818181818182" y2="178" fill="rgb(0, 0, 0)" stroke="rgb(60, 60, 60)" stroke-width="1px" opacity="0.25"></line><line x1="284" y1="0" x2="284" y2="178" fill="rgb(0, 0, 0)" stroke="rgb(60, 60, 60)" stroke-width="1px" opacity="0.25"></line></g><g><line x1="0" y1="178" x2="284" y2="178" fill="rgb(0, 0, 0)" stroke="rgb(60, 60, 60)" stroke-width="1px" opacity="0.25"></line><line x1="0" y1="161.8181818181818" x2="284" y2="161.8181818181818" fill="rgb(0, 0, 0)" stroke="rgb(60, 60, 60)" stroke-width="1px" opacity="0.25"></line><line x1="0" y1="145.63636363636363" x2="284" y2="145.63636363636363" fill="rgb(0, 0, 0)" stroke="rgb(60, 60, 60)" stroke-width="1px" opacity="0.25"></line><line x1="0" y1="129.45454545454547" x2="284" y2="129.45454545454547" fill="rgb(0, 0, 0)" stroke="rgb(60, 60, 60)" stroke-width="1px" opacity="0.25"></line><line x1="0" y1="113.27272727272727" x2="284" y2="113.27272727272727" fill="rgb(0, 0, 0)" stroke="rgb(60, 60, 60)" stroke-width="1px" opacity="0.25"></line><line x1="0" y1="97.0909090909091" x2="284" y2="97.0909090909091" fill="rgb(0, 0, 0)" stroke="rgb(60, 60, 60)" stroke-width="1px" opacity="0.25"></line><line x1="0" y1="80.90909090909092" x2="284" y2="80.90909090909092" fill="rgb(0, 0, 0)" stroke="rgb(60, 60, 60)" stroke-width="1px" opacity="0.25"></line><line x1="0" y1="64.72727272727273" x2="284" y2="64.72727272727273" fill="rgb(0, 0, 0)" stroke="rgb(60, 60, 60)" stroke-width="1px" opacity="0.25"></line><line x1="0" y1="48.54545454545453" x2="284" y2="48.54545454545453" fill="rgb(0, 0, 0)" stroke="rgb(60, 60, 60)" stroke-width="1px" opacity="0.25"></line><line x1="0" y1="32.363636363636346" x2="284" y2="32.363636363636346" fill="rgb(0, 0, 0)" stroke="rgb(60, 60, 60)" stroke-width="1px" opacity="0.25"></line><line x1="0" y1="16.181818181818187" x2="284" y2="16.181818181818187" fill="rgb(0, 0, 0)" stroke="rgb(60, 60, 60)" stroke-width="1px" opacity="0.25"></line><line x1="0" y1="0" x2="284" y2="0" fill="rgb(0, 0, 0)" stroke="rgb(60, 60, 60)" stroke-width="1px" opacity="0.25"></line></g></g></g><g><g><line x1="0" y1="161.8181818181818" x2="284" y2="161.8181818181818" fill="rgb(0, 0, 0)" stroke="rgb(153, 153, 153)" stroke-width="1.5px"></line></g></g><g><g><line x1="25.81818181818182" y1="0" x2="25.81818181818182" y2="178" fill="rgb(0, 0, 0)" stroke="rgb(153, 153, 153)" stroke-width="1.5px"></line></g></g><g><g><g><g><g><path stroke="rgb(0, 119, 187)" stroke-width="2px" d="M35.88727272727273,-0.8786221590908951L36.14545454545454,3.865774536132818L36.40363636363636,8.568479642001051L36.661818181818184,10.216994961825293L36.92,13.35681485262785L37.17818181818182,16.39585640647195L37.43636363636363,19.189711414683956L37.694545454545455,21.26584639115768L37.95272727272727,25.772525717995393L38.21090909090909,24.508049566095508L38.469090909090916,28.30481137362395L38.72727272727273,32.321870699795824L38.985454545454544,32.71253953413529L39.24363636363636,33.73164395419033L39.50181818181819,36.750166875665826L39.760000000000005,38.993883028897386L40.018181818181816,40.68365783691408L40.276363636363634,41.36284679066051L40.53454545454546,42.460988686301505L40.79272727272728,45.01106456409801L41.05090909090909,45.133151661266L41.309090909090905,46.32925706343218L41.56727272727273,45.907081881436426L41.82545454545455,49.01608678644354L42.083636363636366,50.92440601695668L42.34181818181818,50.70900976007634L42.6,51.67680525346236L42.85818181818182,53.93970669833098L43.11636363636364,53.89950894442471L43.374545454545455,54.835279568758864L43.63272727272727,57.19246548739348L43.89090909090909,56.81394486860795L44.14909090909091,56.42733778520065L44.407272727272726,57.080761163884944L44.66545454545455,59.17741477272726L44.92363636363636,59.077105574174354L45.18181818181818,61.24447562477805L45.44,61.487168329412285L45.69818181818182,62.170554837313574L45.95636363636363,62.17725240534001L46.21454545454545,62.47659974531693L46.47272727272727,64.53564203435725L46.730909090909094,64.9796012878418L46.98909090909091,64.3693324695934L47.24727272727272,68.08627901944246L47.50545454545454,66.79531506625088L47.763636363636365,66.66597484241832L48.02181818181818,67.26373741843484L48.28,69.43687293312766L48.53818181818181,70.89628843827681L48.79636363636364,68.81072131070225L49.054545454545455,72.07273323752663L49.31272727272727,71.396420842951L49.5709090909091,71.40422952825374L49.82909090909091,74.0645529313521L50.087272727272726,74.9426997791637L50.345454545454544,73.31351172707296L50.60363636363637,74.36253606622869L50.86181818181818,76.53433824018998L51.12,76.56214703646575L51.378181818181815,76.37963367808949L51.63636363636364,77.42720739191229L51.89454545454546,77.94290161132812L52.15272727272727,79.21826053966176L52.41090909090909,79.00680257623846L52.66909090909091,79.41591595736416L52.92727272727273,81.87514565207742L53.18545454545455,80.36834716796875L53.44363636363636,80.98306662819601L53.70181818181818,80.82886206886984L53.96,81.0392336065119L54.21818181818182,81.177505978671L54.47636363636363,82.26914783824574L54.734545454545454,83.06739918101918L54.99272727272727,82.98188018798828L55.25090909090909,82.66133519952947L55.509090909090915,84.64926598288797L55.767272727272726,84.63095723932439L56.025454545454544,84.99486666592684L56.28363636363636,84.90510073575108L56.541818181818186,84.4644377968528L56.800000000000004,84.48870336359197L57.058181818181815,84.18301030939276L57.31636363636363,86.56808527166193L57.57454545454546,86.2551576094194L57.832727272727276,85.78328462080522L58.09090909090909,87.24247172962535L58.349090909090904,86.3614112854004L58.60727272727273,87.91437669233842L58.86545454545455,87.49187434803356L59.123636363636365,87.35533655340022L59.381818181818176,87.92380884343928L59.64,87.58412177345969L59.89818181818182,88.54205301458185L60.156363636363636,88.3605643532493L60.414545454545454,88.96558622880416L60.67272727272727,89.75374492298474L60.93090909090909,88.6369053927335L61.18909090909091,89.90898035222834L61.447272727272725,89.58278718428178L61.70545454545455,88.95048737959428L61.96363636363636,89.7427695534446L62.22181818181818,90.85352880304511L62.48,89.46838531494141L62.73818181818182,89.86773320978338L62.99636363636364,92.62203861583363L63.25454545454545,90.87194248546254L63.512727272727275,90.8613560069691L63.77090909090909,91.83089842362837L64.02909090909091,91.88055919300426L64.28727272727272,93.34330804998224L64.54545454545455,92.3623211253773L64.80363636363636,92.0463934464888L65.06181818181818,93.26058536876332L65.32000000000001,92.30638254339044L65.57818181818182,93.41712944724343L65.83636363636363,91.33356850363991L66.09454545454545,91.64235416759144L66.35272727272728,92.61602623679421L66.61090909090909,93.63031581531871L66.8690909090909,93.7456065784801L67.12727272727273,93.56258087158203L67.38545454545455,94.9262304132635L67.64363636363636,94.62525960748846L67.90181818181819,94.64619182239879L68.16,95.87510604858399L68.41818181818182,93.89397777210583L68.67636363636363,95.20977519642223L68.93454545454546,94.42781406749378L69.19272727272727,95.0160951094194L69.4509090909091,95.97451400756836L69.7090909090909,95.8576800259677L69.96727272727273,94.4572525024414L70.22545454545455,94.6305929704146L70.48363636363636,95.72324718128552L70.74181818181818,96.18003983931108L71,95.20815173062411L71.25818181818182,95.89394565929067L71.51636363636364,97.04931009465997L71.77454545454546,95.80571677468039L72.03272727272729,96.6952896118164L72.29090909090908,97.44596661654386L72.5490909090909,97.09916222312233L72.80727272727272,96.4543623490767L73.06545454545454,96.10716289173473L73.32363636363637,96.92412421486594L73.58181818181818,96.65122763893821L73.84,97.6431158585982L74.09818181818183,98.21883510242809L74.35636363636364,97.39014531915838L74.61454545454546,97.1422365361994L74.87272727272726,96.37942366166548L75.13090909090909,97.8729196028276L75.38909090909091,98.3676816073331L75.64727272727272,97.34522531682795L75.90545454545455,98.79768399325283L76.16363636363637,98.02741428722035L76.42181818181818,99.25628530328925L76.68,99.73694846413352L76.93818181818183,99.55966352982955L77.19636363636363,99.91529513272373L77.45454545454545,97.56522653753107L77.71272727272726,99.31909429376776L77.97090909090909,98.79293088045986L78.22909090909091,98.2511254050515L78.48727272727272,98.50210827914152L78.74545454545455,98.88879560990767L79.00363636363637,99.50872497558593L79.26181818181819,100.10643199573863L79.52000000000001,99.65788629705256L79.7781818181818,99.78712158203125L80.03636363636363,100.70418222600763L80.29454545454546,99.57286113392223L80.55272727272727,98.91639452847566L80.81090909090909,100.66612028642135L81.06909090909092,98.5894112326882L81.32727272727273,99.89596169211647L81.58545454545455,101.0520730452104L81.84363636363636,99.81057850230823L82.10181818181817,100.99832583340732L82.36,99.73025706898082L82.61818181818181,99.64968254782937L82.87636363636364,101.28358667547052L83.13454545454546,99.76828197132457L83.39272727272727,99.69306550459429L83.6509090909091,100.71578722867098L83.9090909090909,100.88741781061346L84.16727272727273,100.83246688842773L84.42545454545456,101.1457217129794L84.68363636363635,101.85017006613991L84.94181818181818,101.03917791193182L85.2,101.1759255842729L85.45818181818181,101.01478271484375L85.71636363636364,100.85580035122959L85.97454545454545,102.39096319025214L86.23272727272727,103.00766414295543L86.4909090909091,101.56337217851119L86.74909090909091,99.73667685768821L87.00727272727272,101.40355030406604L87.26545454545455,102.05911566994406L87.52363636363636,102.36758034446022L87.78181818181818,102.17030147205699L88.04,103.30029539628462L88.29818181818182,103.03930629383434L88.55636363636364,101.79345370205967L88.81454545454545,101.97075715498491L89.07272727272728,102.83339157104491L89.3309090909091,101.9504545731978L89.5890909090909,102.59627297141336L89.84727272727272,103.64531582919035L90.10545454545455,101.94371379505505L90.36363636363636,103.8988542730158L90.62181818181818,102.99600975730202L90.88,103.35779571533203L91.13818181818182,103.91172471479936L91.39636363636365,104.19649789983576L91.65454545454546,104.2582821932706L91.91272727272727,104.1166147405451L92.17090909090909,104.0774602023038L92.4290909090909,102.7836629000577L92.68727272727273,103.5313830982555L92.94545454545454,103.75360655351119L93.20363636363636,102.65581651167436L93.46181818181819,103.88752704967152L93.72,104.043299518932L93.97818181818182,102.73555152199485L94.23636363636365,102.77433568781073L94.49454545454545,103.06116443980824L94.75272727272727,102.92437355735085L95.01090909090908,104.0102437799627L95.2690909090909,104.32493071122603L95.52727272727273,105.68419751253995L95.78545454545454,103.66772336092863L96.04363636363637,104.88366220647639L96.30181818181819,103.0497878334739L96.56,104.4268016468395L96.81818181818181,103.62336509011008L97.07636363636362,105.34067708795722L97.33454545454545,103.82409459894355L97.59272727272727,104.39840025468307L97.85090909090908,103.50162984674627L98.10909090909091,105.45064683393998L98.36727272727273,104.71656868674539L98.62545454545455,104.20507819435814L98.88363636363637,105.13015740134499L99.1418181818182,104.83387797962536L99.39999999999999,105.01502096002753L99.65818181818182,104.35675804831764L99.91636363636363,104.83009400801225L100.17454545454545,104.60541374900124L100.43272727272728,105.07902748801492L100.69090909090909,105.72503724531694L100.94909090909091,104.13159013227983L101.20727272727274,105.40369595614347L101.46545454545455,106.02670558582653L101.72363636363636,105.79613023237748L101.98181818181817,105.92075438065963L102.24,105.13016357421874L102.49818181818182,106.00286594737659L102.75636363636363,105.4444554415616L103.01454545454546,105.7825005271218L103.27272727272728,105.1791391546076L103.53090909090909,105.88749493685636L103.78909090909092,106.87346337058328L104.04727272727274,105.84586507623847L104.30545454545454,105.86404418945312L104.56363636363636,104.97621827559037L104.82181818181817,105.1036942915483L105.08,105.65082078413529L105.33818181818182,105.88603196577593L105.59636363636363,105.3127324884588L105.85454545454546,106.06737865101208L106.11272727272728,106.12768145474521L106.3709090909091,106.61481996016069L106.6290909090909,105.65837020874024L106.88727272727272,106.96990217729048L107.14545454545454,106.69615991765802L107.40363636363637,105.9584459478205L107.66181818181818,106.4076212796298L107.92,106.779567787864L108.17818181818183,106.82563594471324L108.43636363636364,106.05821193348278L108.69454545454546,107.43562698364258L108.95272727272726,105.57254874489524L109.21090909090908,105.99144613092597L109.46909090909091,105.22357149991123L109.72727272727272,107.12664378773083L109.98545454545454,106.2321511702104L110.24363636363637,106.06589098843662L110.50181818181818,107.71587545221503L110.76,106.82593841552735L111.01818181818183,106.84040145874023L111.27636363636364,106.45314622358842L111.53454545454545,107.22129863392223L111.79272727272726,106.25499080311168L112.05090909090909,107.38187359896573L112.30909090909091,107.36092903830789L112.56727272727272,107.03058152632279L112.82545454545455,106.63402377041903L113.08363636363637,106.93129702481357L113.34181818181818,107.13989077481357L113.60000000000001,105.92468032836915L113.8581818181818,108.07347002896395L114.11636363636363,107.29109531749378L114.37454545454545,107.18582930131392L114.63272727272727,107.82192542336203L114.89090909090909,106.89373508800159L115.14909090909092,106.86989544955166L115.40727272727273,107.32640415538441L115.66545454545455,106.59639393199573L115.92363636363638,108.04767976240679L116.18181818181819,107.74073978770863L116.44,107.64678247625177L116.69818181818181,108.31787879250267L116.95636363636363,107.28287304964933L117.21454545454546,107.58810931119051L117.47272727272727,108.61533723310991L117.7309090909091,108.08665528730913L117.98909090909092,107.70049882368608L118.24727272727273,107.23121226917614L118.50545454545455,107.67264064442028L118.76363636363635,106.91882781982422L119.02181818181818,108.60689274181019L119.28,108.5962136702104L119.53818181818181,106.87292015769265L119.79636363636364,108.12019868330522L120.05454545454546,107.86510467529297L120.31272727272727,108.39484218250621L120.5709090909091,107.09048926613548L120.82909090909091,107.87990105368874L121.08727272727273,108.05735882845792L121.34545454545454,107.90859257091175L121.60363636363635,107.91001233187589L121.86181818181818,108.32084794477983L122.12,107.84207368330522L122.37818181818182,109.12488944313743L122.63636363636364,107.89354310469194L122.89454545454545,107.92808650623668L123.15272727272728,108.44658321033825L123.4109090909091,108.63966452858665L123.6690909090909,108.81064078591086L123.92727272727272,108.23376104181463L124.18545454545455,109.20154418945312L124.44363636363636,108.76277014992453L124.70181818181818,109.92578894875267L124.96,109.1223030090332L125.21818181818182,107.65438128384677L125.47636363636364,110.23411164717241L125.73454545454545,108.71228838833896L125.99272727272728,108.95495640147816L126.25090909090909,107.98015469637785L126.5090909090909,108.8271840875799L126.76727272727273,109.66828751997514L127.02545454545455,108.84451134421609L127.28363636363636,107.78888820301403L127.54181818181819,110.27190198031339L127.8,108.5932074806907L128.05818181818182,109.38200198086825L128.31636363636363,109.70433710271662L128.57454545454544,109.26219267411666L128.83272727272725,107.99282143332742L129.0909090909091,110.10876835909757L129.3490909090909,108.610861899636L129.60727272727271,110.05339768149636L129.86545454545455,109.63077496615323L130.12363636363636,108.76859116987748L130.38181818181818,108.84546813964845L130.64000000000001,107.681949338046L130.89818181818183,109.1856613852761L131.15636363636364,109.64884296764026L131.41454545454545,109.75417688543146L131.67272727272726,108.45548449429599L131.9309090909091,108.91212900335138L132.1890909090909,109.81313400268554L132.44727272727272,109.62229343761098L132.70545454545456,108.51502803455699L132.96363636363637,109.3274584683505L133.22181818181818,109.74380028464577L133.48,110.14884882840242L133.7381818181818,108.81772107211027L133.99636363636364,109.27534706809304L134.25454545454545,109.55335478349166L134.51272727272726,109.77467082630504L134.7709090909091,110.83905018893155L135.0290909090909,108.81883218938654L135.28727272727272,109.19611206054687L135.54545454545456,110.27661188299005L135.80363636363637,109.67765176946466L136.06181818181818,108.98891955288973L136.32,109.32096460515803L136.5781818181818,109.54168187921698L136.83636363636364,110.06180822199042L137.09454545454545,109.47396545410156L137.35272727272726,110.89689927534623L137.6109090909091,109.76322631835937L137.86909090909091,110.05456435463645L138.12727272727273,110.92887167497115L138.38545454545454,109.13150676380505L138.64363636363635,109.54922513094814L138.9018181818182,110.07612002979626L139.16,109.70062103271484L139.4181818181818,109.99370907870205L139.67636363636365,110.99150782498445L139.93454545454546,109.99782021262429L140.19272727272727,109.71991743607954L140.4509090909091,110.4075663133101L140.70909090909092,110.70784575722435L140.96727272727273,109.4926816073331L141.22545454545454,109.22961841930042L141.48363636363635,110.7974141554399L141.7418181818182,110.7681022644043L142,110.98331642150879L142.2581818181818,109.60252789584072L142.51636363636365,110.32855044278232L142.77454545454543,109.73645456487482L143.03272727272727,109.76076334173028L143.29090909090908,109.78893633755771L143.54909090909092,111.23354929143731L143.80727272727273,110.55351465398614L144.06545454545457,110.61949341513893L144.32363636363635,110.28779713023792L144.58181818181816,110.96307556845925L144.84,110.18786447698419L145.0981818181818,110.47570866671477L145.35636363636365,110.00291900634765L145.61454545454544,111.29718853343617L145.87272727272727,111.13514751087536L146.13090909090909,110.02136355313387L146.38909090909092,111.03281052329324L146.64727272727274,110.4003286188299L146.90545454545452,109.85846758755771L147.16363636363636,110.07253667658026L147.42181818181817,111.54780412153764L147.68,110.75857752019708L147.93818181818182,109.62149713689631L148.19636363636366,110.67834250710227L148.45454545454544,110.91681605252352L148.71272727272728,111.25068827542393L148.9709090909091,111.04202662381259L149.22909090909093,111.40846075578169L149.48727272727274,111.28837366971104L149.74545454545452,112.59113089821555L150.00363636363636,111.12235423001377L150.26181818181817,111.6617769761519L150.52,110.54664733193137L150.77818181818182,111.75954295071689L151.03636363636366,111.69630494551225L151.29454545454544,111.4689271406694L151.55272727272728,110.89799187400125L151.8109090909091,112.20600839094682L152.0690909090909,111.2065707466819L152.32727272727274,112.41724721735174L152.58545454545452,111.03695560802113L152.84363636363636,111.58711298162287L153.10181818181817,111.05224890275436L153.36,112.02047341086647L153.61818181818182,111.62640949596059L153.87636363636366,111.27161740389737L154.13454545454545,110.88073560541326L154.39272727272726,110.98045529452237L154.6509090909091,111.39252548217773L154.9090909090909,111.21741031299938L155.16727272727275,111.5677116394043L155.42545454545453,111.23008322282271L155.68363636363637,111.54099852822044L155.94181818181818,111.1301042730158L156.20000000000002,111.62289404435592L156.45818181818183,110.76279667941006L156.7163636363636,111.36334013505416L156.97454545454545,110.37676367326216L157.23272727272726,112.06655699990013L157.4909090909091,111.39643599770285L157.7490909090909,111.3778247833252L158.00727272727275,112.24619379910555L158.26545454545453,111.02451726740057L158.52363636363637,111.71730506203392L158.78181818181818,112.31641641096635L159.04000000000002,112.28311684348367L159.29818181818183,111.63643732937899L159.5563636363636,112.315129366788L159.81454545454545,112.14185371398925L160.07272727272726,110.2883187380704L160.3309090909091,111.24675924127753L160.5890909090909,112.01273571361195L160.84727272727275,112.71895876797763L161.10545454545453,111.97576328624379L161.36363636363637,112.29165392788973L161.62181818181818,112.55759058865634L161.88,112.44501588994807L162.13818181818183,112.79390054182572L162.39636363636362,112.5217385378751L162.65454545454546,111.5053316636519L162.91272727272727,111.97049165205522L163.1709090909091,112.0945046858354L163.42909090909092,112.79052706631748L163.68727272727273,112.84346563165839L163.94545454545454,113.23061284151945L164.20363636363635,112.71203897649592L164.4618181818182,112.7645330949263L164.72,111.8855529091575L164.97818181818184,111.9651428569447L165.23636363636362,112.35500613125888L165.49454545454546,112.9103764967485L165.75272727272727,112.69066231467507L166.0109090909091,113.22567454251376L166.26909090909092,112.23852400346236L166.5272727272727,112.39672241210938L166.78545454545454,112.83299335132946L167.04363636363635,112.55263685746627L167.3018181818182,112.0868781003085L167.56,112.4326639695601L167.8181818181818,112.13007587086071L168.07636363636362,111.59114078174937L168.33454545454546,111.51823605624112L168.59272727272727,111.6252397363836L168.8509090909091,111.37042042125356L169.10909090909092,112.51949778470126L169.3672727272727,111.56194617531516L169.62545454545455,112.15403279391202L169.88363636363636,113.12536843039773L170.1418181818182,112.5893839749423L170.4,112.5936432578347L170.65818181818182,113.4552560632879L170.91636363636363,113.00472578568892L171.17454545454547,112.57914317737927L171.43272727272728,113.26323647932573L171.6909090909091,112.30746883045543L171.9490909090909,112.55877886685458L172.2072727272727,112.09189973310991L172.46545454545455,112.98973187533292L172.72363636363636,113.51081192710183L172.9818181818182,113.03024753223767L173.24,112.56613075949929L173.49818181818182,113.019463521784L173.75636363636363,112.76584174416281L174.01454545454544,113.51209279840643L174.27272727272728,113.56446654579857L174.5309090909091,113.71570812572132L174.7890909090909,112.99782142639161L175.0472727272727,111.34705609408293L175.30545454545455,112.27150258150968L175.56363636363636,112.894200481068L175.8218181818182,113.42778677506881L176.08,113.52081198258834L176.3381818181818,112.10923007618297L176.59636363636363,113.12064309553666L176.85454545454544,113.45978386618874L177.11272727272728,112.59583771445534L177.3709090909091,113.25012220902876L177.6290909090909,112.51352244290437L177.88727272727272,112.91366663846102L178.14545454545456,113.28961316888983L178.40363636363637,112.91101230274548L178.6618181818182,113.26476426558061L178.92,113.35589440085671L179.1781818181818,112.76182011691006L179.43636363636364,113.39083903919567L179.69454545454545,112.33017883300782L179.9527272727273,113.29887247952549L180.2109090909091,113.32165347012607L180.4690909090909,112.43924425298518L180.72727272727272,114.04833342812279L180.98545454545456,113.12164310108531L181.24363636363637,112.43181211298163L181.50181818181818,112.89511715282093L181.76,112.30571264787154L182.0181818181818,113.61061495000665L182.27636363636364,113.14914016723633L182.53454545454545,113.24708515514027L182.7927272727273,112.62873604514382L183.0509090909091,113.99474362460049L183.3090909090909,113.67046404751865L183.56727272727272,112.84396254799583L183.82545454545453,113.30398670543323L184.08363636363637,114.13417649702592L184.34181818181818,112.66955108642578L184.6,112.23157952048562L184.8581818181818,114.47415060563522L185.11636363636364,112.66364981911399L185.37454545454545,114.23570483814586L185.6327272727273,113.59304386485707L185.89090909090908,114.38981063149193L186.1490909090909,113.5846364107999L186.40727272727273,113.46166350624777L186.66545454545454,114.02743207758124L186.92363636363638,113.0253061467951L187.1818181818182,114.19233114069158L187.44,112.90567893981934L187.6981818181818,112.79206719831987L187.95636363636365,113.98942569385875L188.21454545454546,113.90056408968839L188.4727272727273,113.49101860739968L188.73090909090908,113.87197751131926L188.9890909090909,113.65002874894576L189.24727272727273,113.75671452608977L189.50545454545454,111.61988785483621L189.76363636363638,113.92307964671741L190.02181818181816,114.09796333312988L190.28,113.08225090720437L190.5381818181818,113.36371543190695L190.79636363636365,113.21552325162021L191.05454545454546,113.63642064874823L191.31272727272727,113.6633189461448L191.57090909090908,113.74513421492144L191.8290909090909,113.44434242248535L192.08727272727273,112.76242814497515L192.34545454545454,114.21058124195446L192.60363636363638,113.68548264936967L192.86181818181817,112.89728691794656L193.12,112.90775919827549L193.37818181818182,113.79133817499334L193.63636363636363,113.20367750688033L193.89454545454547,112.03246730457653L194.15272727272725,113.37167226617987L194.4109090909091,113.7375107158314L194.6690909090909,113.03798831592907L194.92727272727274,113.58752531571822L195.18545454545455,114.48426177284935L195.4436363636364,114.8607329975475L195.70181818181817,113.47398764870384L195.95999999999998,114.35839687694204L196.21818181818182,113.53079351945357L196.47636363636363,113.96667865406383L196.73454545454547,112.1544957594438L196.99272727272725,113.00773197520863L197.2509090909091,114.1785285949707L197.5090909090909,113.78086898110129L197.76727272727274,114.68267028115012L198.02545454545455,114.94967793551359L198.2836363636364,113.62042673284357L198.54181818181817,114.12640176252886L198.79999999999998,114.16353159817783L199.05818181818182,113.17713723616167L199.31636363636363,114.61459891579368L199.57454545454547,113.38268467296254L199.83272727272725,114.39002668207343L200.0909090909091,114.00076526295055L200.3490909090909,114.02896603670987L200.60727272727274,114.16894829489968L200.86545454545455,114.17017361034047L201.12363636363634,113.47183022932573L201.38181818181818,114.1834360296076L201.64,115.22378130826084L201.89818181818183,114.94857916398482L202.15636363636364,113.33157327825373L202.41454545454548,113.55321339693936L202.67272727272726,114.59035186767578L202.9309090909091,114.77505042336205L203.1890909090909,114.0096079046076L203.44727272727272,114.96537863991477L203.70545454545456,114.97213793667879L203.96363636363634,115.3681154424494L204.22181818181818,113.15092412775213L204.48,114.67541715448553L204.73818181818183,113.9075857335871L204.99636363636364,114.55799674987793L205.25454545454548,113.64603489962492L205.51272727272726,114.16407172463157L205.77090909090907,114.01425607854671L206.0290909090909,113.75369290438564L206.28727272727272,113.79312522194603L206.54545454545456,114.33524551391602L206.80363636363634,114.30425460121849L207.06181818181818,115.24549747813832L207.32,114.2285041809082L207.57818181818183,113.51275329589843L207.83636363636364,114.18306874361906L208.09454545454548,114.65597260215065L208.35272727272726,114.18384652571244L208.61090909090908,114.04842910766601L208.86909090909091,115.17429646578702L209.12727272727273,115.15919761657715L209.38545454545456,114.56048441800203L209.64363636363635,113.65406272194602L209.9018181818182,115.26415190263228L210.16,114.27081614407626L210.41818181818184,114.11644183072177L210.67636363636365,115.1017621127042L210.93454545454543,114.86141818653454L211.19272727272727,114.71223217357289L211.45090909090908,114.4901969909668L211.70909090909092,113.94894707419655L211.96727272727273,114.72710571289062L212.22545454545457,115.29154094349255L212.48363636363635,114.34337518865412L212.7418181818182,115.38744271018288L213,115.24946972240102L213.2581818181818,115.71172228726473L213.51636363636365,114.72394828796386L213.77454545454543,114.16083405234596L214.03272727272727,113.55364549810236L214.29090909090908,115.12733941511674L214.54909090909092,115.07704283974388L214.80727272727273,114.20138674649326L215.06545454545457,114.86745525706898L215.32363636363635,114.3017484144731L215.58181818181816,114.36010367653587L215.84,113.9078141299161L216.0981818181818,114.23278506885876L216.35636363636365,114.41443731134588L216.61454545454544,114.24771107760343L216.87272727272727,113.97724044106224L217.13090909090909,115.09253366643733L217.38909090909092,113.98789482116699L217.64727272727274,115.43138122558594L217.90545454545452,115.36137775074351L218.16363636363636,114.63981819152832L218.42181818181817,115.42326081015847L218.68,114.20159353776411L218.93818181818182,114.62242611971769L219.19636363636366,114.51581133062189L219.45454545454544,115.18450948541815L219.71272727272728,114.33743071122603L219.9709090909091,115.16182108792393L220.22909090909093,115.33608748696068L220.48727272727274,115.55012571161444L220.74545454545452,114.51632676558062L221.00363636363636,114.81787164861507L221.26181818181817,114.62548169222745L221.52,115.09811703075061L221.77818181818182,114.82868960987437L222.03636363636366,115.13966664400968L222.29454545454544,116.30327495228161L222.55272727272728,115.02629564458674L222.8109090909091,115.00764122009278L223.0690909090909,115.14208949695933L223.32727272727274,114.4935920715332L223.58545454545452,115.48921179337935L223.84363636363636,115.18418232310901L224.10181818181817,115.5493108922785L224.36,116.12425852688875L224.61818181818182,114.90355113636363L224.87636363636366,115.32728805541993L225.13454545454545,116.06095879294655L225.39272727272726,115.23434000882236L225.6509090909091,114.68098508661444L225.9090909090909,114.13638947226784L226.16727272727275,114.27988100918856L226.42545454545453,115.71300315856934L226.68363636363637,115.07848420576616L226.94181818181818,114.9200450550426L227.20000000000002,115.6437219099565L227.45818181818183,114.64870712973854L227.7163636363636,115.18398170471191L227.97454545454545,114.98958865079013L228.23272727272726,115.17100632407448L228.4909090909091,114.56211405667392L228.7490909090909,116.30099407542835L229.00727272727275,115.02103635614569L229.26545454545453,114.60158341147682L229.52363636363637,114.30898610895329L229.78181818181818,114.85752927606757L230.04000000000002,116.23161406083541L230.29818181818183,114.64929972561923L230.5563636363636,116.12342518893155L230.81454545454545,115.30600707314231L231.07272727272726,115.0700458873402L231.3309090909091,115.30426940917968L231.5890909090909,115.434480008212L231.84727272727275,115.53776761835272L232.10545454545453,114.42112253362482L232.36363636363637,115.36475122625177L232.62181818181818,115.62995331504128L232.88,115.18339528170499L233.13818181818183,115.27135564630682L233.39636363636362,115.82561180808327L233.65454545454546,115.4239305669611L233.91272727272727,115.34867706298829L234.1709090909091,115.83213344920765L234.42909090909092,116.76140095103871L234.68727272727273,115.76075033708051L234.94545454545454,116.05141553011808L235.20363636363635,115.3533375826749L235.4618181818182,114.49518467296254L235.72,115.58202403675426L235.97818181818184,114.9898509979248L236.23636363636362,116.02373636419122L236.49454545454546,116.72389148365367L236.75272727272727,116.2202312816273L237.0109090909091,115.70476545854048L237.26909090909092,115.88972018848766L237.5272727272727,116.68792523470792L237.78545454545454,114.67433381514115L238.04363636363635,115.96190577420322L238.3018181818182,116.21098740317605L238.56,115.00754862698642L238.8181818181818,116.41025394092907L239.07636363636362,115.30866140885787L239.33454545454546,115.05698408647017L239.59272727272727,116.39694831154563L239.8509090909091,115.5083415291526L240.10909090909092,115.4628567088734L240.3672727272727,115.64222498807041L240.62545454545455,115.31214599609375L240.88363636363636,115.96735333529386L241.1418181818182,114.79287459633568L241.4,115.67163255864924L241.65818181818182,114.85756014043635L241.91636363636363,115.38762480995872L242.17454545454547,115.80694195140492L242.43272727272728,115.91367711153897L242.6909090909091,116.37742351185192L242.9490909090909,116.50119888999245L243.2072727272727,115.69199378273704L243.46545454545455,115.82280006408692L243.72363636363636,115.32763990922408L243.9818181818182,115.44448623657226L244.24,114.76848865855824L244.49818181818182,115.95145818536932L244.75636363636363,115.74736137390137L245.01454545454544,115.1602531779896L245.27272727272728,115.81716731678355L245.5309090909091,115.01551780700683L245.7890909090909,116.6512923153964L246.0472727272727,116.19626818570224L246.30545454545455,115.22587699890137L246.56363636363636,117.45455603166059L246.8218181818182,115.2710253975608L247.08,116.20937319668857L247.3381818181818,115.79264557578347L247.59636363636363,115.8693527915261L247.85454545454544,116.31185833324085L248.11272727272728,115.89102883772418L248.3709090909091,115.90856905850498L248.6290909090909,116.29744158658114L248.88727272727272,117.11159425215287L249.14545454545456,116.84596314863725L249.40363636363637,116.64039102034135L249.6618181818182,116.46399189342152L249.92,115.23094492825595L250.1781818181818,116.10925227078525L250.43636363636364,115.6693640275435L250.69454545454545,115.13031474026766L250.9527272727273,115.42139351584694L251.2109090909091,116.0018257487904L251.4690909090909,115.67532393715598L251.72727272727272,115.51712861494585L251.98545454545456,115.7687102577903L252.24363636363637,117.14736296913841L252.50181818181818,115.95934403159401L252.76,115.17787364612926L253.0181818181818,115.97593362981624L253.27636363636364,115.30893918817694L253.53454545454545,116.35379683754661L253.7927272727273,116.43549173528498L254.0509090909091,116.86279348893598L254.3090909090909,115.74107430197975L254.56727272727272,114.74376321272416L254.82545454545453,115.99166828502308L255.08363636363637,115.8226580879905L255.34181818181818,116.27171613519842L255.6,117.07497367858886L255.8581818181818,115.86114286942916L256.11636363636364,116.23398753079502L256.37454545454545,116.94446060874245L256.63272727272727,115.88343620300293L256.8909090909091,115.86053792780095L257.1490909090909,115.66586092168635L257.40727272727275,116.0348506233909L257.6654545454545,117.12399864196777L257.9236363636364,116.68466904380105L258.1818181818182,115.84736810164019L258.44,115.83735261396929L258.6981818181818,117.01316160722213L258.9563636363637,116.53174535577946L259.21454545454543,116.05214392922142L259.4727272727273,115.95470203052867L259.7309090909091,116.29063599326393L259.9890909090909,115.56971224004573L260.24727272727273,116.5231372833252L260.50545454545454,116.24363264604048L260.76363636363635,117.63197368275036L261.02181818181816,116.31222870566629L261.28000000000003,117.29835146123713L261.53818181818184,115.47666851390491L261.79636363636365,116.64892501831055L262.05454545454546,114.4736043063077L262.3127272727273,116.78390416232023L262.5709090909091,116.5860635584051L262.8290909090909,116.37740190679378L263.08727272727276,115.97822993885387L263.3454545454545,116.57666535810992L263.6036363636364,116.69562898115679L263.8618181818182,116.349034465443L264.12,116.28416373512962L264.3781818181818,116.6336625879461L264.6363636363636,115.68095359802246L264.89454545454544,115.92135308005592L265.15272727272725,115.65594728643245L265.4109090909091,115.72953720092774L265.6690909090909,116.73882366527211L265.92727272727274,117.37100001248447L266.18545454545455,116.217901021784L266.44363636363636,116.08056692643598L266.70181818181817,115.74393542896618L266.96,116.05469023964622L267.21818181818185,116.84650636152787L267.4763636363636,116.92045430270107L267.73454545454547,116.53152313232422L267.84814545454543,117.55384979248046" style="fill: none;" fill="none"></path></g><g><path stroke="rgb(255, 112, 67)" stroke-width="2px" d="M30.98181818181818,-48.3467373934659L32.014545454545456,4.111430220170462L33.04727272727273,44.71401353315875L34.08,69.63196660822088L35.11272727272728,87.28479912497781L36.14545454545454,97.5916279185902L37.17818181818182,104.38733229203658L38.21090909090909,111.20488863858309L39.24363636363636,114.42481082569469L40.276363636363634,117.64410029324618L41.309090909090905,119.94106982838024L42.34181818181818,121.34204982410778L43.374545454545455,124.50494391701439L44.407272727272726,125.18860511779785L45.44,127.6802701776678L46.47272727272727,129.1079879760742L47.50545454545454,130.02365663701838L48.53818181818181,129.61133336153898L49.5709090909091,132.78063798384233L50.60363636363637,134.32671446366743L51.63636363636364,135.18684269298205L52.66909090909091,135.8525408311324L53.70181818181818,136.71482802304354L54.734545454545454,137.3893055308949L55.767272727272726,138.01849112077193L56.800000000000004,138.62779234105892L57.832727272727276,139.2078835227273L58.86545454545455,138.87928602045233L59.89818181818182,140.15910022042016L60.93090909090909,140.17256788773972L61.96363636363636,140.9662682793357L62.99636363636364,141.17840371565387L64.02909090909091,141.47545937624844L65.06181818181818,141.44552556818184L66.09454545454545,142.17290923378684L67.12727272727273,142.1462316166271L68.16,142.18340774882924L69.19272727272727,142.87342392314565L70.22545454545455,142.85017379413952L71.25818181818182,142.9562222220681L72.29090909090908,142.92668347792193L73.32363636363637,143.60436007759787L74.35636363636364,143.98924029957163L75.38909090909091,143.56415152116256L76.42181818181818,143.81948318481446L77.45454545454545,144.19420439980246L78.48727272727272,144.40611452622846L79.52000000000001,144.05206009257924L80.55272727272727,144.4633555845781L81.58545454545455,144.6606576052579L82.61818181818181,144.92596926255658L83.6509090909091,145.0851306395097L84.68363636363635,144.81057819019665L85.71636363636364,145.12405060854826L86.74909090909091,145.2617952000011L87.78181818181818,145.20287049033425L88.81454545454545,145.22817155664617L89.84727272727272,145.46592133261942L90.88,145.3826492656361L91.91272727272727,145.76780263727363L92.94545454545454,145.96781917918813L93.97818181818182,145.56179223494098L95.01090909090908,146.20256585207852L96.04363636363637,146.03466368588533L97.07636363636362,146.08963775634766L98.10909090909091,145.93725882443516L99.1418181818182,146.48227882385254L100.17454545454545,146.41857168024237L101.20727272727274,146.08392476168547L102.24,146.54541651985863L103.27272727272728,146.02944606434215L104.30545454545454,146.32466220855713L105.33818181818182,146.385441866788L106.3709090909091,146.65219951976428L107.40363636363637,146.8690294265747L108.43636363636364,146.9169185811823L109.46909090909091,146.66445576060903L110.50181818181818,146.8396897576072L111.53454545454545,146.80683926669033L112.56727272727272,146.78727897297253L113.60000000000001,146.43148533214222L114.63272727272727,146.9075666774403L115.66545454545455,147.22938945076683L116.69818181818181,147.3263575813987L117.7309090909091,147.31177108071068L118.76363636363635,147.27066282792526L119.79636363636364,146.9109771901911L120.82909090909091,147.72615918246183L121.86181818181818,147.27519217404452L122.89454545454545,147.6142341787165L123.92727272727272,147.67536723396995L124.96,147.8075238314542L125.99272727272728,147.65244426727295L127.02545454545455,147.58791767467153L128.05818181818182,147.827948327498L129.0909090909091,147.23101754622024L130.12363636363636,147.73773640719327L131.15636363636364,147.50273818969725L132.1890909090909,147.8561876817183L133.22181818181818,147.68591821843927L134.25454545454545,148.1700412750244L135.28727272727272,148.3025142322887L136.32,148.167879225991L137.35272727272726,148.28404345078903L138.38545454545454,148.14534669355913L139.4181818181818,148.16316315044057L140.4509090909091,148.14396859949284L141.48363636363635,148.2378009102561L142.51636363636365,148.4503422130238L143.54909090909092,148.46172807866878L144.58181818181816,148.2570772517811L145.61454545454544,148.44609527587892L146.64727272727274,148.2699569528753L147.68,148.46482686129482L148.71272727272728,148.6632307399403L149.74545454545452,148.5811577536843L150.77818181818182,148.5291466626254L151.8109090909091,148.57521944912997L152.84363636363636,148.12775554656983L153.87636363636366,148.02879512093284L154.9090909090909,148.1918670134111L155.94181818181818,148.52579016251997L156.97454545454545,148.10973692807283L158.00727272727275,148.74975436817516L159.04000000000002,148.68617222525856L160.07272727272726,148.74406915144488L161.10545454545453,148.5653459375555L162.13818181818183,148.74493952664463L163.1709090909091,148.77823755090887L164.20363636363635,148.8893176425587L165.23636363636362,148.73963702808726L166.26909090909092,148.7942623311823L167.3018181818182,148.93653549714523L168.33454545454546,148.9154042070562L169.3672727272727,148.98415613174438L170.4,149.02973740317606L171.43272727272728,148.95486893220382L172.46545454545455,148.9684122172269L173.49818181818182,149.0652044209567L174.5309090909091,149.04555693539706L175.56363636363636,148.9957356713035L176.59636363636363,149.26345937902278L177.6290909090909,148.9204837105491L178.6618181818182,149.049986743927L179.69454545454545,149.0400661641901L180.72727272727272,149.34796833558516L181.76,149.2413867256858L182.7927272727273,149.19690885543824L183.82545454545453,149.14119404012507L184.8581818181818,149.2307099689137L185.89090909090908,149.34956633827903L186.92363636363638,149.4826673854481L187.95636363636365,149.42785458131272L188.9890909090909,149.28365162069147L190.02181818181816,149.44045727469705L191.05454545454546,149.3585872216658L192.08727272727273,149.24571776823564L193.12,149.53130422938955L194.15272727272725,149.34314346313477L195.18545454545455,149.21844832680443L196.21818181818182,149.34978779012508L197.2509090909091,149.44443800666116L198.2836363636364,149.40628578879617L199.31636363636363,149.3729599866L200.3490909090909,149.10100168748335L201.38181818181818,149.58370806954125L202.41454545454548,149.3506612517617L203.44727272727272,149.28287615342575L204.48,149.45316413532603L205.51272727272726,149.44742336273194L206.54545454545456,149.60931237827648L207.57818181818183,149.51709350239148L208.61090909090908,149.79425167603927L209.64363636363635,149.5435843901201L210.67636363636365,149.46835480603306L211.70909090909092,149.70572572187945L212.7418181818182,149.4762391090393L213.77454545454543,149.38691839738325L214.80727272727273,149.56770952398128L215.84,149.19752691442318L216.87272727272727,149.20305086482654L217.90545454545452,149.59727141640403L218.93818181818182,149.5433999755166L219.9709090909091,149.4586240421642L221.00363636363636,149.81245007948442L222.03636363636366,149.77049691460348L223.0690909090909,149.55260604511608L224.10181818181817,149.75957864414562L225.13454545454545,149.84959843375466L226.16727272727275,149.77600851925936L227.20000000000002,149.80723014311357L228.23272727272726,149.50947694778444L229.26545454545453,149.8371716672724L230.29818181818183,149.65662822723388L231.3309090909091,149.51635352914982L232.36363636363637,149.3841768698259L233.39636363636362,149.5273775100708L234.42909090909092,149.8644673434171L235.4618181818182,149.88293426687068L236.49454545454546,149.57504366961393L237.5272727272727,149.66150634072045L238.56,149.9096620386297L239.59272727272727,150.0442646373402L240.62545454545455,149.6704994461753L241.65818181818182,149.72966335470028L242.6909090909091,149.72304063276812L243.72363636363636,149.82596635818481L244.75636363636363,149.79313207106156L245.7890909090909,149.57568179043858L246.8218181818182,149.6012498335405L247.85454545454544,150.1875462965532L248.88727272727272,149.77274769869717L249.92,149.65609350204468L250.9527272727273,149.72088321339L251.98545454545456,149.79917917251586L253.0181818181818,149.8687667499889L254.0509090909091,149.7855502388694L255.08363636363637,149.86718032143332L256.11636363636364,149.87207309549504L257.1490909090909,149.95318465666338L258.1818181818182,150.13124274340544L259.21454545454543,149.97007595409048L260.24727272727273,150.10571868202902L261.28000000000003,149.95569161501797L262.3127272727273,149.92844995151867L263.3454545454545,149.7718449159102L264.3781818181818,149.7593533342535L265.4109090909091,150.00642183477228L266.44363636363636,150.16694510199807L267.4763636363636,149.81433203437112" style="fill: none;" fill="none"></path></g></g></g></g></g></g><g transform="translate(46, 178)" clip-path="url(#clip_1)"><clipPath id="clip_1"><rect width="284" height="22"></rect></clipPath><g><g><line x1="0" y1="0" x2="0" y2="5" style="visibility: inherit;" fill="rgb(0, 0, 0)" stroke="rgb(204, 204, 204)" stroke-width="1px"></line><line x1="25.81818181818182" y1="0" x2="25.81818181818182" y2="5" style="visibility: inherit;" fill="rgb(0, 0, 0)" stroke="rgb(204, 204, 204)" stroke-width="1px"></line><line x1="51.63636363636364" y1="0" x2="51.63636363636364" y2="5" style="visibility: inherit;" fill="rgb(0, 0, 0)" stroke="rgb(204, 204, 204)" stroke-width="1px"></line><line x1="77.45454545454545" y1="0" x2="77.45454545454545" y2="5" style="visibility: inherit;" fill="rgb(0, 0, 0)" stroke="rgb(204, 204, 204)" stroke-width="1px"></line><line x1="103.27272727272728" y1="0" x2="103.27272727272728" y2="5" style="visibility: inherit;" fill="rgb(0, 0, 0)" stroke="rgb(204, 204, 204)" stroke-width="1px"></line><line x1="129.0909090909091" y1="0" x2="129.0909090909091" y2="5" style="visibility: inherit;" fill="rgb(0, 0, 0)" stroke="rgb(204, 204, 204)" stroke-width="1px"></line><line x1="154.9090909090909" y1="0" x2="154.9090909090909" y2="5" style="visibility: inherit;" fill="rgb(0, 0, 0)" stroke="rgb(204, 204, 204)" stroke-width="1px"></line><line x1="180.72727272727272" y1="0" x2="180.72727272727272" y2="5" style="visibility: inherit;" fill="rgb(0, 0, 0)" stroke="rgb(204, 204, 204)" stroke-width="1px"></line><line x1="206.54545454545456" y1="0" x2="206.54545454545456" y2="5" style="visibility: inherit;" fill="rgb(0, 0, 0)" stroke="rgb(204, 204, 204)" stroke-width="1px"></line><line x1="232.36363636363637" y1="0" x2="232.36363636363637" y2="5" style="visibility: inherit;" fill="rgb(0, 0, 0)" stroke="rgb(204, 204, 204)" stroke-width="1px"></line><line x1="258.1818181818182" y1="0" x2="258.1818181818182" y2="5" style="visibility: inherit;" fill="rgb(0, 0, 0)" stroke="rgb(204, 204, 204)" stroke-width="1px"></line><line x1="284" y1="0" x2="284" y2="5" style="visibility: inherit;" fill="rgb(0, 0, 0)" stroke="rgb(204, 204, 204)" stroke-width="1px"></line></g><g transform="translate(0, 8)"><text x="0" y="0" dx="0em" dy="0.95em" style="text-anchor: middle; visibility: hidden; font-family: &quot;Helvetica Neue&quot;, sans-serif; font-size: 12px; font-weight: 200;" fill="rgb(50, 49, 63)" stroke="none" stroke-width="1px">-50k</text><text x="25.81818181818182" y="0" dx="0em" dy="0.95em" style="text-anchor: middle; visibility: inherit; font-family: &quot;Helvetica Neue&quot;, sans-serif; font-size: 12px; font-weight: 200;" fill="rgb(50, 49, 63)" stroke="none" stroke-width="1px">0</text><text x="51.63636363636364" y="0" dx="0em" dy="0.95em" style="text-anchor: middle; visibility: hidden; font-family: &quot;Helvetica Neue&quot;, sans-serif; font-size: 12px; font-weight: 200;" fill="rgb(50, 49, 63)" stroke="none" stroke-width="1px">50k</text><text x="77.45454545454545" y="0" dx="0em" dy="0.95em" style="text-anchor: middle; visibility: inherit; font-family: &quot;Helvetica Neue&quot;, sans-serif; font-size: 12px; font-weight: 200;" fill="rgb(50, 49, 63)" stroke="none" stroke-width="1px">100k</text><text x="103.27272727272728" y="0" dx="0em" dy="0.95em" style="text-anchor: middle; visibility: hidden; font-family: &quot;Helvetica Neue&quot;, sans-serif; font-size: 12px; font-weight: 200;" fill="rgb(50, 49, 63)" stroke="none" stroke-width="1px">150k</text><text x="129.0909090909091" y="0" dx="0em" dy="0.95em" style="text-anchor: middle; visibility: inherit; font-family: &quot;Helvetica Neue&quot;, sans-serif; font-size: 12px; font-weight: 200;" fill="rgb(50, 49, 63)" stroke="none" stroke-width="1px">200k</text><text x="154.9090909090909" y="0" dx="0em" dy="0.95em" style="text-anchor: middle; visibility: hidden; font-family: &quot;Helvetica Neue&quot;, sans-serif; font-size: 12px; font-weight: 200;" fill="rgb(50, 49, 63)" stroke="none" stroke-width="1px">250k</text><text x="180.72727272727272" y="0" dx="0em" dy="0.95em" style="text-anchor: middle; visibility: inherit; font-family: &quot;Helvetica Neue&quot;, sans-serif; font-size: 12px; font-weight: 200;" fill="rgb(50, 49, 63)" stroke="none" stroke-width="1px">300k</text><text x="206.54545454545456" y="0" dx="0em" dy="0.95em" style="text-anchor: middle; visibility: hidden; font-family: &quot;Helvetica Neue&quot;, sans-serif; font-size: 12px; font-weight: 200;" fill="rgb(50, 49, 63)" stroke="none" stroke-width="1px">350k</text><text x="232.36363636363637" y="0" dx="0em" dy="0.95em" style="text-anchor: middle; visibility: inherit; font-family: &quot;Helvetica Neue&quot;, sans-serif; font-size: 12px; font-weight: 200;" fill="rgb(50, 49, 63)" stroke="none" stroke-width="1px">400k</text><text x="258.1818181818182" y="0" dx="0em" dy="0.95em" style="text-anchor: middle; visibility: hidden; font-family: &quot;Helvetica Neue&quot;, sans-serif; font-size: 12px; font-weight: 200;" fill="rgb(50, 49, 63)" stroke="none" stroke-width="1px">450k</text><text x="284" y="0" dx="0em" dy="0.95em" style="text-anchor: middle; visibility: hidden; font-family: &quot;Helvetica Neue&quot;, sans-serif; font-size: 12px; font-weight: 200;" fill="rgb(50, 49, 63)" stroke="none" stroke-width="1px">500k</text></g><line x1="0" y1="0" x2="284" y2="0" fill="rgb(0, 0, 0)" stroke="rgb(204, 204, 204)" stroke-width="1px"></line></g></g></g></g></svg>