<svg viewBox="0 0 330 200" xmlns="http://www.w3.org/2000/svg"><g><g><g><g><g><line x1="30" y1="177" x2="25" y2="177" style="visibility: inherit;" fill="rgb(0, 0, 0)" stroke="rgb(204, 204, 204)" stroke-width="1px"></line><line x1="30" y1="154.875" x2="25" y2="154.875" style="visibility: inherit;" fill="rgb(0, 0, 0)" stroke="rgb(204, 204, 204)" stroke-width="1px"></line><line x1="30" y1="132.75" x2="25" y2="132.75" style="visibility: inherit;" fill="rgb(0, 0, 0)" stroke="rgb(204, 204, 204)" stroke-width="1px"></line><line x1="30" y1="110.625" x2="25" y2="110.625" style="visibility: inherit;" fill="rgb(0, 0, 0)" stroke="rgb(204, 204, 204)" stroke-width="1px"></line><line x1="30" y1="88.5" x2="25" y2="88.5" style="visibility: inherit;" fill="rgb(0, 0, 0)" stroke="rgb(204, 204, 204)" stroke-width="1px"></line><line x1="30" y1="66.375" x2="25" y2="66.375" style="visibility: inherit;" fill="rgb(0, 0, 0)" stroke="rgb(204, 204, 204)" stroke-width="1px"></line><line x1="30" y1="44.25" x2="25" y2="44.25" style="visibility: inherit;" fill="rgb(0, 0, 0)" stroke="rgb(204, 204, 204)" stroke-width="1px"></line><line x1="30" y1="22.125" x2="25" y2="22.125" style="visibility: inherit;" fill="rgb(0, 0, 0)" stroke="rgb(204, 204, 204)" stroke-width="1px"></line><line x1="30" y1="0" x2="25" y2="0" style="visibility: inherit;" fill="rgb(0, 0, 0)" stroke="rgb(204, 204, 204)" stroke-width="1px"></line></g><g transform="translate(20, 0)"><text x="0" y="177" dx="0em" dy="0.3em" style="text-anchor: end; visibility: hidden; font-family: Roboto, sans-serif; font-size: 12px; font-weight: 200;" fill="rgb(33, 33, 33)" stroke="none" stroke-width="1px">30</text><text x="0" y="154.875" dx="0em" dy="0.3em" style="text-anchor: end; visibility: inherit; font-family: Roboto, sans-serif; font-size: 12px; font-weight: 200;" fill="rgb(33, 33, 33)" stroke="none" stroke-width="1px">35</text><text x="0" y="132.75" dx="0em" dy="0.3em" style="text-anchor: end; visibility: hidden; font-family: Roboto, sans-serif; font-size: 12px; font-weight: 200;" fill="rgb(33, 33, 33)" stroke="none" stroke-width="1px">40</text><text x="0" y="110.625" dx="0em" dy="0.3em" style="text-anchor: end; visibility: inherit; font-family: Roboto, sans-serif; font-size: 12px; font-weight: 200;" fill="rgb(33, 33, 33)" stroke="none" stroke-width="1px">45</text><text x="0" y="88.5" dx="0em" dy="0.3em" style="text-anchor: end; visibility: hidden; font-family: Roboto, sans-serif; font-size: 12px; font-weight: 200;" fill="rgb(33, 33, 33)" stroke="none" stroke-width="1px">50</text><text x="0" y="66.375" dx="0em" dy="0.3em" style="text-anchor: end; visibility: inherit; font-family: Roboto, sans-serif; font-size: 12px; font-weight: 200;" fill="rgb(33, 33, 33)" stroke="none" stroke-width="1px">55</text><text x="0" y="44.25" dx="0em" dy="0.3em" style="text-anchor: end; visibility: hidden; font-family: Roboto, sans-serif; font-size: 12px; font-weight: 200;" fill="rgb(33, 33, 33)" stroke="none" stroke-width="1px">60</text><text x="0" y="22.125" dx="0em" dy="0.3em" style="text-anchor: end; visibility: inherit; font-family: Roboto, sans-serif; font-size: 12px; font-weight: 200;" fill="rgb(33, 33, 33)" stroke="none" stroke-width="1px">65</text><text x="0" y="0" dx="0em" dy="0.3em" style="text-anchor: end; visibility: hidden; font-family: Roboto, sans-serif; font-size: 12px; font-weight: 200;" fill="rgb(33, 33, 33)" stroke="none" stroke-width="1px">70</text></g><line x1="30" y1="0" x2="30" y2="177" fill="rgb(0, 0, 0)" stroke="rgb(204, 204, 204)" stroke-width="1px"></line></g></g><g transform="translate(30, 0)" clip-path="url(#clip_0)"><clipPath id="clip_0"><rect width="300" height="177"></rect></clipPath><g><g><g><line x1="0" y1="0" x2="0" y2="177" fill="rgb(0, 0, 0)" stroke="rgb(66, 66, 66)" stroke-width="1px" opacity="0.25"></line><line x1="33.33333333333333" y1="0" x2="33.33333333333333" y2="177" fill="rgb(0, 0, 0)" stroke="rgb(66, 66, 66)" stroke-width="1px" opacity="0.25"></line><line x1="66.66666666666666" y1="0" x2="66.66666666666666" y2="177" fill="rgb(0, 0, 0)" stroke="rgb(66, 66, 66)" stroke-width="1px" opacity="0.25"></line><line x1="100" y1="0" x2="100" y2="177" fill="rgb(0, 0, 0)" stroke="rgb(66, 66, 66)" stroke-width="1px" opacity="0.25"></line><line x1="133.33333333333331" y1="0" x2="133.33333333333331" y2="177" fill="rgb(0, 0, 0)" stroke="rgb(66, 66, 66)" stroke-width="1px" opacity="0.25"></line><line x1="166.66666666666669" y1="0" x2="166.66666666666669" y2="177" fill="rgb(0, 0, 0)" stroke="rgb(66, 66, 66)" stroke-width="1px" opacity="0.25"></line><line x1="200" y1="0" x2="200" y2="177" fill="rgb(0, 0, 0)" stroke="rgb(66, 66, 66)" stroke-width="1px" opacity="0.25"></line><line x1="233.33333333333334" y1="0" x2="233.33333333333334" y2="177" fill="rgb(0, 0, 0)" stroke="rgb(66, 66, 66)" stroke-width="1px" opacity="0.25"></line><line x1="266.66666666666663" y1="0" x2="266.66666666666663" y2="177" fill="rgb(0, 0, 0)" stroke="rgb(66, 66, 66)" stroke-width="1px" opacity="0.25"></line><line x1="300" y1="0" x2="300" y2="177" fill="rgb(0, 0, 0)" stroke="rgb(66, 66, 66)" stroke-width="1px" opacity="0.25"></line></g><g><line x1="0" y1="177" x2="300" y2="177" fill="rgb(0, 0, 0)" stroke="rgb(66, 66, 66)" stroke-width="1px" opacity="0.25"></line><line x1="0" y1="154.875" x2="300" y2="154.875" fill="rgb(0, 0, 0)" stroke="rgb(66, 66, 66)" stroke-width="1px" opacity="0.25"></line><line x1="0" y1="132.75" x2="300" y2="132.75" fill="rgb(0, 0, 0)" stroke="rgb(66, 66, 66)" stroke-width="1px" opacity="0.25"></line><line x1="0" y1="110.625" x2="300" y2="110.625" fill="rgb(0, 0, 0)" stroke="rgb(66, 66, 66)" stroke-width="1px" opacity="0.25"></line><line x1="0" y1="88.5" x2="300" y2="88.5" fill="rgb(0, 0, 0)" stroke="rgb(66, 66, 66)" stroke-width="1px" opacity="0.25"></line><line x1="0" y1="66.375" x2="300" y2="66.375" fill="rgb(0, 0, 0)" stroke="rgb(66, 66, 66)" stroke-width="1px" opacity="0.25"></line><line x1="0" y1="44.25" x2="300" y2="44.25" fill="rgb(0, 0, 0)" stroke="rgb(66, 66, 66)" stroke-width="1px" opacity="0.25"></line><line x1="0" y1="22.125" x2="300" y2="22.125" fill="rgb(0, 0, 0)" stroke="rgb(66, 66, 66)" stroke-width="1px" opacity="0.25"></line><line x1="0" y1="0" x2="300" y2="0" fill="rgb(0, 0, 0)" stroke="rgb(66, 66, 66)" stroke-width="1px" opacity="0.25"></line></g></g></g><g><g><line x1="0" y1="309.75" x2="300" y2="309.75" fill="rgb(0, 0, 0)" stroke="rgb(153, 153, 153)" stroke-width="1.5px"></line></g></g><g><g><line x1="33.33333333333333" y1="0" x2="33.33333333333333" y2="177" fill="rgb(0, 0, 0)" stroke="rgb(153, 153, 153)" stroke-width="1.5px"></line></g></g><g><g><g><g><g><path stroke="rgb(255, 112, 67)" stroke-width="2px" d="M39.11600000000001,-19.669663810729972L39.39366666666667,7.728929328918461L39.65466666666667,10.803492736816402L39.686,10.855280685424809L39.931666666666665,12.823020172119136L40.096000000000004,14.292258453369136L40.26233333333334,15.636010551452628L40.511,17.896618652343754L40.70033333333333,19.298539352416988L40.71233333333333,19.358092117309575L40.73033333333333,19.48097877502442L40.74266666666667,19.582866668701172L40.959,21.031004905700684L41.435,36.327237224578866L41.660333333333334,37.49985952377319L41.67033333333333,37.56174173355102L42.038666666666664,39.422107315063485L42.076,39.67807617187499L42.35733333333333,40.979121780395516L42.397333333333336,41.16144304275513L42.684666666666665,42.6507516860962L43.20766666666666,52.7675983428955L43.60666666666666,53.6879991531372L43.997,55.0874722480774L44.020999999999994,55.2216685295105L44.114999999999995,55.58337392807006L44.184,55.73568248748779L44.201,55.82328987121582L44.43866666666667,56.77164402008056L44.574666666666666,57.20139284133911L44.89533333333334,58.157883167266846L44.92166666666667,58.26316394805907L45.36533333333333,64.79239540100097L45.440666666666665,65.15553560256957L45.510999999999996,65.528196144104L45.87466666666667,66.13315973281861L46.39033333333333,67.4592553138733L46.495333333333335,67.7276985168457L46.52633333333333,67.8094654083252L46.71666666666667,68.276282787323L47.086,74.04427528381348L47.147999999999996,73.70358552932738L47.404666666666664,74.0753514289856L48.291000000000004,75.52489070892334L48.39066666666667,75.77177810668945L49.032666666666664,80.82753438949585L49.510333333333335,80.64890985488891L49.51233333333333,80.64938249588012L49.609,80.76970338821411L50.16366666666667,81.75245904922485L50.67433333333334,82.60463075637817L50.95766666666667,86.80460300445556L51.33166666666667,86.13114023208618L51.713,86.48503017425537L51.791,86.546439743042L51.93066666666667,86.7928882598877L52.51233333333334,87.72652301788331L52.690333333333335,87.8563473701477L52.977333333333334,89.60361671447754L53.00266666666667,90.25364999771118L53.26,90.7123649597168L53.419333333333334,90.52305536270141L53.43633333333334,90.6695065498352L53.45466666666666,90.53240690231324L53.69166666666667,90.8248872756958L53.787,90.90602960586547L54.85666666666666,95.07183666229248L55.086,94.05738029479981L55.519999999999996,94.50323266983033L55.757333333333335,94.91569633483887L55.785666666666664,94.88971796035766L56.24733333333333,95.55946712493896L56.32166666666667,95.59662008285522L56.449333333333335,95.71331176757813L57.651,97.71862621307373L57.81366666666667,97.95774879455566L58.122,98.39067106246948L58.37733333333333,98.7025465965271L58.40566666666667,98.72999353408814L58.453333333333326,98.77136650085448L58.58166666666667,98.83735055923462L58.82966666666666,100.48651313781738L59.00866666666667,100.64498291015626L59.233,100.61851501464844L59.23833333333334,100.6387541770935L59.44166666666667,100.80725069046021L59.52966666666667,101.0098448753357L59.992000000000004,101.3169095993042L59.99966666666667,101.33616971969604L60.157333333333334,101.56018466949463L60.607666666666674,101.87273540496825L60.751000000000005,103.90070285797118L61.13633333333334,103.35309762954712L61.243,103.2189182281494L61.27733333333334,103.1747938156128L61.550999999999995,103.49387712478638L62.27533333333333,104.24026165008546L62.745333333333335,105.0677547454834L63.07,105.57076292037964L63.229,105.41897764205932L63.425000000000004,105.4737364768982L63.43166666666667,105.5039011001587L63.754333333333335,105.84886150360107L63.78433333333333,105.89450511932374L64.09966666666666,106.22261924743653L64.22866666666667,106.31772136688232L64.416,106.39488000869751L64.42533333333333,106.39287128448485L64.70866666666667,106.32216081619264L64.97266666666667,107.11699104309082L65.39633333333333,107.4660701751709L65.646,107.60337238311767L66.19200000000001,108.1792685508728L66.55833333333334,109.46540908813476L66.68333333333334,109.02102527618409L67.08466666666666,109.24471950531006L67.816,109.98880834579468L67.95666666666668,110.06039657592773L68.35433333333333,110.2838376045227L68.37833333333333,110.28652153015138L68.46633333333334,110.41582260131837L68.66233333333334,110.92229118347167L68.84733333333334,111.08533544540406L69.848,111.70452890396119L69.84833333333333,111.70859699249267L69.89466666666667,111.74152994155884L69.91833333333334,111.7663773536682L70.06233333333333,111.87781934738159L70.18566666666666,111.93063697814942L70.32866666666666,111.99089870452882L71.214,113.04630603790282L72.80766666666666,114.36495752334595L73.344,114.3798457145691L73.40933333333334,114.48075456619263L74.24266666666666,114.95329427719116L74.247,114.95363187789917L74.27533333333334,115.04365310668946L74.40966666666667,116.48166332244874L74.65566666666666,115.47706489562988L75.00833333333334,115.64978141784668L75.01,115.6459834098816L75.13566666666668,115.82481050491333L75.91833333333334,116.4202031135559L75.93366666666667,116.40553436279298L76.10900000000001,116.43129329681396L76.13566666666667,116.43647546768189L76.36733333333333,117.23969507217407L76.447,116.98767614364624L76.52466666666666,117.08389234542847L77.08133333333333,116.9384539604187L77.526,117.28589572906493L77.54566666666668,117.31356210708618L78.22133333333333,117.70779533386231L78.34933333333332,118.0625461578369L78.61433333333333,118.14561281204224L78.98533333333333,118.28728694915772L79.00833333333333,118.230215549469L79.70333333333333,118.75542097091675L79.73833333333333,118.72814283370973L79.798,118.79848194122314L79.876,118.89299325942993L80.37266666666666,119.01204814910888L81.18033333333334,119.49166059494019L81.668,119.79253034591675L81.82733333333333,119.88935422897339L81.92733333333334,119.92689542770385L81.99166666666667,119.87564764022828L82.71033333333334,120.42622375488281L82.86800000000001,120.54332056045531L83.17966666666666,120.64360485076905L83.23866666666666,120.57674303054809L83.434,120.75540132522583L83.645,120.80273294448853L83.71366666666667,120.86756916046143L83.88266666666667,120.95065269470216L84.32466666666667,120.67322931289674L84.605,121.26171798706055L84.64966666666666,121.21128044128419L84.71733333333333,121.24804515838623L85.19533333333332,121.5617606163025L85.24933333333334,121.66467819213868L85.33200000000001,121.73251905441283L85.463,121.87375431060791L85.89166666666667,121.95955553054809L86.10499999999999,123.87982835769652L86.18,122.44202070236206L86.65733333333333,122.25281238555908L86.67033333333333,122.22830257415772L86.67366666666668,122.21690855026246L87.108,122.3661955833435L87.14833333333333,122.34371137619019L87.30266666666667,122.51166772842407L87.66633333333333,122.82659854888915L88.70966666666666,123.087428855896L88.848,123.31936054229736L89.00433333333334,123.4377908706665L89.01766666666667,123.45662899017334L89.18266666666668,123.6192006111145L89.55566666666667,123.7052212715149L89.80033333333334,123.78136711120605L89.82,123.7745644569397L90.14633333333335,123.68640003204347L90.432,123.92329444885253L90.43366666666667,123.87532138824463L90.541,123.84873533248901L90.64999999999999,123.96551141738892L91.13666666666667,124.20495471954347L91.52799999999999,124.48934955596924L91.81400000000001,124.59657154083253L91.83066666666667,124.60801620483399L92.09833333333334,124.50388326644897L92.558,124.7641396522522L92.89666666666668,124.95135612487793L93.52233333333334,125.43868274688721L94.54966666666665,125.47080545425415L94.584,125.50789089202881L94.657,125.54406480789184L95.026,125.85092697143556L95.51766666666667,126.06903390884399L95.73433333333332,126.13165884017944L95.73566666666667,126.12455234527589L95.87966666666667,128.00610237121583L96.18766666666667,126.16168842315675L96.58433333333333,126.43435163497925L96.75733333333334,126.62784748077392L98.15400000000001,127.05211029052735L98.46733333333333,127.18887233734131L98.65366666666667,127.31527004241944L99.03333333333335,127.55027389526367L99.09533333333333,127.65390043258667L99.44666666666667,127.69034442901612L99.51433333333333,127.67930488586425L100.48366666666666,127.75074119567871L100.73966666666666,128.0019161224365L101.22733333333335,128.24130878448486L101.435,128.31061820983888L101.45833333333334,128.3245442390442L101.468,128.316357421875L102.07300000000001,128.33080673217773L102.19066666666667,128.18764715194703L102.622,128.57068891525267L102.73766666666666,128.67193536758424L102.87233333333333,128.722474193573L103.06299999999999,128.8308777809143L103.20733333333334,128.8481291770935L103.963,128.70209999084472L104.399,129.03451852798463L104.86633333333333,129.27104158401488L104.899,129.26908349990845L104.903,129.2711428642273L105.25433333333332,129.51917810440062L105.50766666666667,129.47581329345704L105.64500000000001,130.4983383178711L105.646,130.4383129119873L105.88066666666667,129.29099378585815L105.97500000000001,129.36806802749635L106.45833333333334,129.4656852722168L106.804,129.72737646102905L106.842,129.6997944831848L106.848,129.72300453186034L107.328,129.96108055114746L107.387,129.91265172958373L107.60333333333332,130.88099184036255L107.75633333333333,129.99497566223144L107.80366666666666,130.22457790374756L107.85566666666666,130.08295440673828L108.79966666666667,130.4203863143921L108.98899999999999,130.4594467163086L109.22999999999999,130.5556966781616L109.482,130.62313241958617L109.961,130.73116464614867L109.99366666666667,130.60483446121216L110.13866666666667,130.51721019744872L110.23100000000001,130.53403959274291L110.64099999999999,130.8479407310486L111.084,131.14492807388305L111.35533333333333,131.17490701675416L111.46733333333333,145.08996419906617L111.76366666666667,130.92491369247438L111.953,130.9134690284729L112.43733333333334,131.23547258377076L112.676,131.4408182144165L112.792,131.57092952728271L113.07366666666667,131.64634952545165L113.22366666666666,131.6360189437866L113.38266666666667,131.69521722793579L113.47266666666665,132.819309425354L113.93033333333332,131.7817274093628L114.258,131.902098941803L114.31766666666667,131.96936588287355L114.78233333333333,132.12199516296386L115.099,132.16147756576538L115.47133333333333,132.08507852554322L115.51966666666667,131.93964014053344L115.56733333333332,131.68174695968628L115.82100000000001,132.0847578048706L115.82466666666666,132.0413592338562L116.435,132.01316957473756L116.95466666666667,132.34526739120483L116.98333333333333,132.34595947265626L117.06833333333334,132.34113178253173L117.43299999999999,132.54943141937255L117.52133333333335,132.43755054473877L117.77066666666667,132.5988899230957L117.87466666666667,132.5637119293213L117.98433333333334,132.61961860656737L118.01533333333333,132.56529865264892L118.74966666666666,133.03581275939942L119.013,133.13867969512938L119.208,133.16658239364625L119.56433333333334,133.3715566635132L119.64833333333334,133.41650819778442L119.73766666666667,133.45182123184205L119.80133333333333,133.3425061225891L120.14166666666667,133.52376394271852L120.232,133.50943279266357L120.36766666666666,133.56103506088257L120.42999999999999,133.63662385940552L121.25133333333332,135.07146062850953L121.29266666666666,133.9739882469177L121.93033333333332,133.72335348129272L122.36633333333334,133.79051914215088L122.41033333333333,133.8095767021179L122.46666666666667,133.81482639312745L122.61099999999999,133.96306686401368L122.61766666666666,133.94574794769287L122.74733333333333,133.9132201194763L122.935,134.02023954391478L122.99,133.97625017166138L123.08533333333334,134.03040132522582L123.20966666666666,135.66081018447875L123.35133333333333,134.391836643219L123.66733333333333,134.0636212348938L124.01933333333332,134.1246425628662L124.21833333333333,134.228134059906L124.41266666666667,134.3142728805542L124.62966666666667,134.4694679260254L125.165,134.72579126358033L125.70400000000001,134.30409421920777L125.868,134.3782819747925L125.90533333333335,134.37765741348267L126.38933333333333,134.4908211708069L127.123,136.32220373153686L127.39266666666666,134.8977819442749L127.451,135.00020999908446L127.92,135.02850093841553L127.975,134.98294172286987L128.411,135.22913703918456L128.901,135.2816170692444L129.17333333333335,136.249737739563L129.279,135.91011142730713L129.68866666666668,135.5411476135254L129.72833333333335,135.54864234924315L130.06033333333335,135.67772397994995L130.261,135.65264024734498L130.282,135.64916296005248L130.47266666666667,135.74095659255983L130.79166666666666,135.7621916770935L131.21866666666665,135.54356145858765L132.25433333333334,135.88531465530394L132.40233333333333,135.93625860214235L132.45366666666666,135.98578462600707L132.69966666666667,136.0948634147644L132.756,136.04871339797972L132.76533333333333,136.06662311553956L132.882,136.12241163253785L133.33033333333333,135.81617403030396L133.70233333333334,135.88175296783447L134.02933333333334,136.14476079940795L134.21433333333334,136.276931476593L134.507,136.39850149154663L135.45266666666666,136.4058443069458L135.587,136.30875034332274L135.72666666666666,136.38584146499633L135.821,136.49343481063843L135.929,136.61048097610472L136.09766666666667,136.70004644393921L136.21133333333333,136.73321571350098L136.40333333333334,136.76805610656737L136.43566666666666,136.77936573028563L136.57833333333335,136.85760469436644L136.91333333333333,137.51817111968995L137.13366666666667,136.79801816940306L137.552,136.73380651474L137.68033333333332,136.73932628631593L137.80466666666666,136.8027108192444L138.34266666666667,137.04320068359374L138.96533333333335,136.42346706390381L139.13400000000001,136.9366201400757L139.46633333333332,136.79756240844728L139.561,136.8465651512146L139.77366666666666,136.94519519805908L139.99666666666667,137.14628705978393L140.10033333333334,137.20877695083618L140.10933333333332,137.2054515838623L140.15966666666665,137.2178921699524L140.53633333333335,137.42345724105834L140.93333333333334,137.24110221862793L140.943,137.1356863975525L141.58133333333333,137.46619749069214L141.692,137.47919511795044L142.35333333333332,137.84236907958984L142.36266666666666,137.8452049255371L142.414,137.88267860412597L143.371,137.5940131187439L143.38633333333334,137.58864526748658L143.39066666666668,137.54102668762206L143.80566666666667,137.81326789855956L143.83366666666666,137.86326656341552L144.285,138.16364679336547L144.295,138.1904354095459L144.35766666666666,138.18927068710326L144.54366666666667,138.09379720687866L145.15433333333334,137.91478443145752L145.512,138.07521228790284L145.631,137.9360701560974L145.902,138.10276050567626L146.99333333333334,138.28050727844237L146.995,138.254478263855L147.18566666666666,138.35796976089478L148.81166666666667,138.4756236076355L148.838,138.28023719787598L148.84933333333333,138.37501859664917L149.053,138.42091541290284L149.24466666666666,138.30567541122437L149.38066666666668,138.40243177413942L149.60033333333334,138.54498367309571L149.7086666666667,138.62085943222047L149.82433333333333,138.69857511520385L150.09333333333333,138.86268281936646L150.89533333333333,138.99238901138307L151.04066666666665,138.92785663604735L151.04999999999998,138.9207839012146L151.74,139.28115577697753L152.22266666666667,139.38393831253052L152.35766666666666,139.34982376098634L152.78433333333334,139.04750232696534L153.06300000000002,139.4689124107361L153.15900000000002,139.44625940322877L153.35966666666667,139.45108709335327L154.24633333333335,139.63585596084596L154.40233333333333,139.7380139350891L154.46766666666664,140.07694816589355L154.63366666666667,139.37381029129028L155.10566666666668,139.63232803344727L155.21133333333333,139.6339485168457L155.24099999999999,139.70835571289064L156.02866666666665,139.9310877799988L156.06,139.9236943244934L156.24433333333334,139.86598148345948L156.333,139.93400802612305L156.66799999999998,140.01624755859376L157.08766666666668,139.93475074768065L157.15733333333333,139.92151679992676L157.953,140.17198276519775L158.03533333333334,140.17321500778198L158.157,140.1564024925232L158.20766666666668,140.14730415344238L158.666,140.1610276222229L158.68699999999998,140.04124689102173L158.778,140.19419689178466L158.816,140.05486907958985L159.06333333333333,139.9569986343384L159.17533333333333,140.09097547531127L159.32233333333332,140.02114276885987L159.85766666666666,140.31615514755248L160.19833333333332,140.3853801727295L160.58633333333333,140.23837194442748L161.08833333333334,140.27937355041504L161.31933333333336,140.38838481903076L161.737,140.5705035209656L161.954,140.70767068862915L162.04066666666668,140.6363862991333L162.09566666666666,140.64307079315185L162.18266666666668,140.70476732254028L162.54466666666667,140.25866174697876L162.85,140.53605136871337L163.82066666666668,141.1544852256775L163.92,141.16466388702392L164.18433333333334,141.16172676086427L164.70366666666666,140.83752880096435L164.733,140.84915914535523L165.28966666666668,141.05359325408935L165.43366666666665,141.0984266281128L165.63400000000001,141.20490589141846L166.107,141.2192032814026L166.53633333333332,141.04819164276122L166.80933333333334,140.9470633506775L167.16566666666668,141.20473709106446L167.32066666666665,141.20387620925902L167.78933333333333,141.548650932312L167.82933333333332,141.55857639312745L167.99599999999998,141.5910029411316L168.15233333333336,142.602623462677L168.50466666666665,141.86432447433472L168.63866666666667,141.58555068969727L168.71733333333333,141.5867322921753L168.72,141.5619017601013L168.88766666666666,141.46129674911498L169.17966666666666,141.60572233200074L169.40666666666667,141.80104122161865L169.62533333333334,141.79813785552977L169.94966666666667,141.71903800964355L169.961,141.73247451782225L170.286,141.5394681930542L170.60633333333334,141.452063369751L170.70133333333334,141.46490907669067L171.12766666666664,141.62044172286988L171.12933333333334,141.60751161575317L171.32333333333335,141.76782131195068L171.64233333333334,141.88861484527587L171.80266666666668,141.85353813171386L171.946,141.91793546676635L172.17466666666667,142.14647426605225L172.20366666666666,141.87411489486695L172.30866666666665,141.90542736053467L172.82766666666666,142.05262126922608L173.02766666666668,142.13774728775024L173.47466666666668,142.25084352493286L173.54066666666668,142.2527003288269L174.42066666666668,142.3212163925171L174.62466666666666,142.21480464935303L174.67433333333335,142.1095069885254L174.85399999999998,142.1278387069702L175.55333333333334,142.3556516647339L175.72566666666665,142.36118831634522L176.477,142.1624090194702L176.86733333333333,142.1582734107971L176.88033333333334,142.07701292037964L176.996,142.213369846344L177.13533333333334,142.21966609954833L177.397,142.39626502990723L177.74233333333333,142.50107316970826L177.901,143.16136951446532L178.61833333333334,142.22164106369019L178.91533333333334,142.40924577713014L178.99733333333333,142.4776774406433L179.11633333333333,142.48351793289186L179.191,142.5628203392029L179.26100000000002,142.61155300140382L179.59466666666668,142.68174018859864L179.60566666666668,142.6634759902954L180.09266666666667,142.16031589508057L180.20133333333334,142.43135862350465L180.29999999999998,142.42340812683105L180.79033333333334,142.50130949020385L180.91666666666666,142.5902335166931L181.34233333333333,142.82447776794433L182.267,142.95431900024414L182.77766666666668,143.02207546234132L182.906,143.07453861236573L183.11866666666668,143.17976875305175L183.22433333333333,143.17544746398926L183.33833333333334,143.17821578979493L183.895,142.85455799102783L184.29166666666666,143.09464273452758L184.87400000000002,143.16969137191774L185.1376666666667,143.31820192337037L185.64366666666666,143.4747136116028L185.65066666666667,143.47408905029297L185.79066666666665,142.84952774047852L186.095,143.41178483963012L186.762,143.44220266342163L186.83733333333333,143.5054015159607L186.948,143.5279026031494L187,143.54655504226685L187.0353333333333,143.5579490661621L187.94433333333333,143.3549835205078L188.22566666666665,143.30456285476686L188.26366666666667,143.26977310180663L188.33833333333334,143.39390888214112L188.41633333333334,143.4881163597107L188.49133333333333,143.62855825424194L188.49466666666666,143.64305820465088L188.94666666666666,143.8297682762146L189.02966666666666,143.81827297210694L189.1303333333333,143.8081787109375L189.17133333333334,143.8339038848877L189.38233333333335,143.83489980697632L189.586,143.94740524291993L189.83233333333334,143.3246332168579L189.88633333333334,143.37272443771363L191.09733333333332,144.14215021133424L191.10700000000003,144.1495943069458L191.14366666666666,144.17852668762208L191.62599999999998,144.40173139572144L192.26166666666666,143.7039613723755L192.39666666666668,143.85368728637695L192.93833333333333,144.10346117019654L192.95566666666667,144.08629417419434L193.60433333333333,143.6950824737549L194.18533333333332,143.65924615859984L195.67233333333334,144.089146900177L195.74466666666666,144.13106002807618L195.82333333333335,144.31451225280762L196.34366666666668,144.39354457855225L196.58,144.57370519638062L196.66866666666667,144.5822464942932L197.09,144.71446781158448L197.29766666666666,144.67599821090698L197.49033333333333,144.71738805770875L198.79966666666664,144.62667474746704L199.02800000000002,144.66154890060426L199.37300000000002,143.29580211639404L199.37333333333333,144.04792585372925L199.61533333333333,144.7065341949463L199.7396666666667,144.7239881515503L199.84699999999998,144.5813349723816L200.05333333333334,144.7074457168579L200.40466666666669,144.68717279434205L200.93733333333333,144.9365921974182L201.293,144.94999494552613L201.345,145.22689504623412L201.65866666666668,144.44837093353271L201.76333333333332,144.74513883590697L202.25333333333333,144.71318492889404L202.39733333333334,144.84699296951294L202.41066666666666,144.86009187698363L202.453,144.89846019744874L203.03766666666667,145.10557823181153L203.96833333333333,145.0180214881897L204.0956666666667,145.03058023452758L204.5186666666667,145.0488444328308L204.675,145.14598903656005L205.45566666666667,145.36070308685302L205.739,145.34961290359496L205.78233333333333,145.52565479278564L205.88233333333332,145.47022075653075L205.92166666666668,145.48107461929322L205.97166666666666,145.46041345596313L206.25266666666664,145.56562671661376L206.29433333333333,145.5499282836914L206.72533333333334,145.55377693176268L207.00633333333332,145.54253482818604L207.08633333333333,145.61749906539916L207.18,145.65269393920897L207.261,144.7199538230896L207.53533333333334,145.14998960494995L207.682,145.0358974456787L208.19433333333336,145.28752813339233L208.33066666666667,145.43472204208373L208.43800000000002,145.53968210220336L208.5713333333333,145.5796709060669L208.594,145.60477151870728L209.10433333333336,145.7310341835022L209.429,145.22456560134887L209.99966666666666,145.42746362686157L210.291,145.5758222579956L210.71,145.72862033843995L211.16366666666667,146.64529066085817L211.40566666666666,146.00246515274048L211.86599999999999,145.9387261390686L211.962,145.92834491729735L212.26466666666667,146.1418098449707L212.605,146.14363288879395L212.69333333333336,146.1596014022827L213.011,146.20813150405883L213.886,145.73800563812256L214.34166666666664,145.91828441619873L214.965,146.06279439926146L215.09466666666665,145.84835042953492L215.12833333333333,145.97024116516113L215.27833333333334,145.80285873413087L215.53333333333333,146.0240209579468L215.55466666666666,146.06946201324462L215.757,145.91595497131348L215.834,145.90724487304686L215.86866666666666,145.8999020576477L215.91033333333334,145.9127984046936L216.09933333333333,146.04334859848024L216.95666666666668,146.71478576660155L217.29066666666665,146.02248487472534L217.63566666666668,146.05408430099487L217.76333333333332,146.09052829742433L217.821,146.11431226730346L217.89933333333335,146.0985463142395L218.10466666666665,146.32608919143678L218.294,146.43489789962769L218.30466666666666,146.48052463531494L218.65933333333334,146.48081159591675L218.66633333333334,146.46374588012696L218.707,146.47589950561525L219.09366666666668,146.0510796546936L219.182,146.28706254959107L219.52966666666666,146.13588495254515L219.63266666666667,146.17514791488648L220.1783333333333,146.46735820770263L220.48799999999997,146.5224208831787L220.79933333333332,146.56625833511353L221.17733333333334,146.00489587783812L221.936,146.4917329788208L222.0593333333333,146.53097906112671L222.70566666666664,146.8117109298706L223.22933333333333,146.50395412445067L223.39333333333335,146.31793613433837L223.749,146.41876058578492L223.82633333333334,146.53654947280884L223.989,146.58803358078003L224.351,146.74071350097657L224.51733333333334,146.76778907775878L224.65633333333335,146.820792388916L224.70200000000003,146.79925346374512L224.784,147.65512189865112L225.045,146.6393320083618L225.253,146.75837001800537L225.62866666666665,146.67348031997682L225.85033333333334,146.78039846420288L225.862,146.7762797355652L225.88733333333332,146.76859931945802L226.0353333333333,146.8896966934204L226.27700000000002,146.92705221176146L226.285,146.93496894836426L226.36533333333333,146.97283086776733L227.22233333333332,146.81412477493285L227.31766666666667,146.85203733444214L228.22266666666667,147.16232614517213L228.24666666666664,147.1877981185913L228.64366666666666,147.26391019821168L228.7193333333333,147.55314960479737L229.26333333333332,147.1486026763916L229.38433333333336,147.08224725723267L229.39033333333333,147.05994873046876L229.55633333333333,147.174462890625L229.735,147.20964088439942L229.922,147.35111246109008L230.609,147.51471376419067L230.82399999999998,147.00252285003663L230.84400000000002,147.01432199478148L231.71666666666667,147.3646671295166L232.37166666666667,147.54082717895508L232.496,147.5937292098999L232.736,146.82746000289916L232.677,148.65580415725708L232.776,147.3349920272827L233.338,147.321724319458L234.16233333333335,147.771813583374L234.60933333333332,146.97872200012208L234.99866666666665,147.53826141357422L236.26999999999998,147.68920269012452L236.887,147.7271321296692L236.99333333333334,147.52332258224487L237.04600000000002,147.6406219482422L237.349,147.71253089904786L237.38933333333333,147.75581130981445L237.6723333333333,147.98034954071045L237.832,148.01539249420165L237.924,148.05289993286132L238.11766666666668,148.13105449676513L238.61366666666666,147.72433004379272L238.72400000000002,147.8275852203369L238.938,147.82211608886718L239.5066666666667,147.9125593185425L239.63133333333332,147.9609375L240.08766666666665,148.16091527938843L240.22933333333333,148.08409423828124L241.1136666666667,147.9303846359253L241.58,148.09228105545043L241.73533333333333,148.16648569107056L242.39133333333334,149.39047393798828L242.40433333333334,149.35310153961183L242.44599999999997,148.5913561820984L242.47233333333332,148.32726802825928L243.03599999999997,148.20880393981935L243.13233333333332,148.16221504211427L243.50333333333336,148.34014749526978L243.55333333333334,148.38707399368286L244.23000000000002,148.54689416885375L244.34333333333333,148.9116379737854L244.6,148.15656023025514L244.608,148.14504804611207L244.97166666666666,148.18304500579833L245.113,148.20509033203126L245.54333333333332,148.31408472061156L246.06466666666668,148.36253042221068L246.512,147.96357078552245L246.87466666666666,148.16521968841553L247.04399999999998,148.2719521522522L247.08566666666667,148.28300857543945L247.1076666666667,148.31445608139038L247.173,148.34784479141234L247.47266666666667,148.4583583831787L247.55833333333334,148.53788022994996L247.84833333333333,148.55638074874878L248.06166666666667,148.51645946502686L248.47400000000002,148.58158264160156L248.65833333333336,148.76722927093505L248.72433333333333,148.56823053359986L248.914,148.52808980941774L249.22866666666664,148.57786903381347L250.02233333333334,148.72037029266357L250.27233333333334,148.03190116882325L250.35,148.10911045074462L250.40933333333334,148.3713924407959L250.88933333333335,148.4493106842041L250.95333333333332,148.4659881591797L251.14033333333333,148.59198074340821L251.58666666666667,148.86712532043458L251.63,148.8379059791565L251.66966666666667,148.85659217834473L251.6903333333333,148.8554274559021L251.72466666666665,148.9027590751648L251.87966666666668,148.92097263336183L252.001,148.89551753997802L252.26733333333334,148.78883571624755L253.338,149.02486925125123L253.477,149.1105185508728L254.111,148.65420055389404L254.65633333333335,148.67857532501222L254.67033333333333,148.66682682037353L254.98766666666668,148.79418668746948L255.42766666666665,148.9804916381836L255.94,149.15839033126832L256.32733333333334,148.62714185714722L256.4893333333333,148.7128755569458L256.5,148.6776131629944L256.62333333333333,148.7736436843872L256.66166666666663,148.89919738769532L256.9993333333333,149.00792169570923L257.148,149.18149909973144L257.236,149.1970962524414L257.3283333333333,149.28060178756715L257.429,149.26306343078613L257.527,149.28269491195678L257.625,149.2619662284851L257.729,149.28364019393922L257.952,149.32472620010375L258.26433333333335,149.24697675704957L258.423,149.48223381042482L258.5876666666667,149.18946647644043L258.76866666666666,149.11308431625366L258.86266666666666,149.1660876274109L259.41666666666663,149.41096630096436L259.9123333333333,149.44400053024293L259.92966666666666,146.7643117904663L259.95166666666665,149.24750003814697L259.9526666666667,148.83296012878418L260.33233333333334,149.05493259429932L260.42466666666667,148.89739122390748L260.53933333333333,149.0538860321045L260.703,148.94676532745362L260.76666666666665,148.96442184448242L260.82233333333335,149.0021318435669L260.839,149.0057104110718L261.44,149.14679374694825L261.8276666666667,149.29783630371094L261.91866666666664,149.39766483306886L261.94399999999996,149.44254884719848L262.3426666666667,149.32877740859985L262.3933333333333,149.27405233383178L262.59166666666664,149.2130816459656L262.64366666666666,149.16811323165894L262.71500000000003,149.21909093856812L263.832,148.6729205131531L264.00866666666667,148.80019598007203L264.0266666666667,148.67320747375487L264.5333333333333,149.3656265258789L264.936,149.49607543945314L265.0613333333333,149.52406253814698L265.70599999999996,149.70312595367432L265.75866666666667,149.70131978988647L265.815,150.18013887405397L265.907,149.37943439483644L266.473,149.46680545806885L266.9013333333333,149.67442989349365L267.17400000000004,149.76433296203612L267.203,149.76404600143434L267.4583333333333,149.74458332061766L267.67833333333334,149.83004693984986L267.85966666666667,149.2662368774414L268.119,149.5728796005249L268.3953333333333,149.53960905075073L268.6073333333333,149.5390182495117L268.845,149.6639811515808L268.87733333333335,149.71305141448974L268.9866666666667,149.67881870269775L269.1813333333333,149.75550470352172L270.25766666666664,149.80489568710328L270.34366666666665,149.67372093200683L270.5593333333333,149.68150262832643L270.83233333333334,149.8971619606018L271.3113333333333,150.10250759124756L271.5146666666667,150.07129640579222L271.813,149.98642358779907L271.83733333333333,149.66614179611207L272.05466666666666,150.01147356033326L272.2316666666667,149.9954712867737L272.237,149.94678926467896L272.265,149.91706352233888L272.5536666666667,150.0001132965088L272.92133333333334,150.1225273132324L273.00266666666664,150.11445865631103L273.2006666666667,150.1868402481079L273.70966666666664,149.8315830230713L273.83433333333335,149.98559646606446L273.86533333333335,149.77081489562988L274.4463333333333,150.10490455627442L274.48266666666666,150.0361859321594L274.83133333333336,150.1306128501892L274.8736666666667,150.19286642074584L275.51266666666663,150.3555055618286L276.0966666666667,149.94960823059083L276.497,150.10151166915892L276.5453333333333,150.19720458984375L277.0676666666667,150.34944562911988L277.3396666666667,150.28692197799683L277.42466666666667,150.35317611694336L277.533,152.0280301094055L277.69233333333335,149.8404788017273L278.74133333333333,150.51351957321168L279.214,150.60266304016113L279.21833333333336,150.61135625839233L279.24966666666666,150.5238332748413L279.3916666666667,150.58333539962769L279.557,151.0118688583374L279.5686666666667,150.79531488418579L279.7283333333333,150.3152297973633L279.9533333333333,150.4114291191101L280.214,150.48614015579224L280.2656666666667,150.5585217475891L280.27933333333334,150.54687452316284L280.28933333333333,150.52248287200928L280.94933333333336,150.65021409988404L281.25233333333335,150.63826303482057L281.32300000000004,150.69808588027954L281.42633333333333,151.14344873428345L281.4993333333333,151.07898387908935L281.5203333333333,150.656324672699L281.746,150.5661008834839L281.87533333333334,150.70596885681152L282.34766666666667,150.58666076660157L282.592,150.72475633621215L282.9943333333333,150.78361701965332L283.44,150.59020557403565L283.46633333333335,150.13189573287963L283.663,150.03019351959227L283.69733333333335,150.1729817390442L284.0756666666667,150.30650281906128L284.38866666666667,150.46176538467407L284.7776666666667,150.6102252960205L284.9746666666667,150.7265456199646L285.2753333333333,150.7487597465515L285.86899999999997,150.6444748878479L285.89300000000003,150.71120166778564L286.041,150.75794248580934L286.295,150.73377027511597L286.707,150.8821457862854L286.88266666666664,150.91084184646607L287.1513333333333,150.91359329223633L287.28000000000003,150.7485909461975L288.486,150.74302053451538L288.5266666666667,150.7872631072998L288.56800000000004,150.82303190231323L288.84700000000004,150.9218307495117L288.9193333333333,150.93037204742433L289.35133333333334,151.01782751083374L289.387,151.05545310974122L289.47633333333334,150.69072618484498L289.752,150.76864442825317L291.2803333333333,150.87534313201905L291.65666666666664,150.88552179336548L292.3396666666667,150.93206005096437L292.373,150.96105995178223L292.5826666666667,151.09922304153443L292.624,151.11027946472169" style="fill: none;" fill="none"></path></g></g></g></g></g></g><g transform="translate(30, 177)" clip-path="url(#clip_1)"><clipPath id="clip_1"><rect width="300" height="23"></rect></clipPath><g><g><line x1="0" y1="0" x2="0" y2="5" style="visibility: inherit;" fill="rgb(0, 0, 0)" stroke="rgb(204, 204, 204)" stroke-width="1px"></line><line x1="33.33333333333333" y1="0" x2="33.33333333333333" y2="5" style="visibility: inherit;" fill="rgb(0, 0, 0)" stroke="rgb(204, 204, 204)" stroke-width="1px"></line><line x1="66.66666666666666" y1="0" x2="66.66666666666666" y2="5" style="visibility: inherit;" fill="rgb(0, 0, 0)" stroke="rgb(204, 204, 204)" stroke-width="1px"></line><line x1="100" y1="0" x2="100" y2="5" style="visibility: inherit;" fill="rgb(0, 0, 0)" stroke="rgb(204, 204, 204)" stroke-width="1px"></line><line x1="133.33333333333331" y1="0" x2="133.33333333333331" y2="5" style="visibility: inherit;" fill="rgb(0, 0, 0)" stroke="rgb(204, 204, 204)" stroke-width="1px"></line><line x1="166.66666666666669" y1="0" x2="166.66666666666669" y2="5" style="visibility: inherit;" fill="rgb(0, 0, 0)" stroke="rgb(204, 204, 204)" stroke-width="1px"></line><line x1="200" y1="0" x2="200" y2="5" style="visibility: inherit;" fill="rgb(0, 0, 0)" stroke="rgb(204, 204, 204)" stroke-width="1px"></line><line x1="233.33333333333334" y1="0" x2="233.33333333333334" y2="5" style="visibility: inherit;" fill="rgb(0, 0, 0)" stroke="rgb(204, 204, 204)" stroke-width="1px"></line><line x1="266.66666666666663" y1="0" x2="266.66666666666663" y2="5" style="visibility: inherit;" fill="rgb(0, 0, 0)" stroke="rgb(204, 204, 204)" stroke-width="1px"></line><line x1="300" y1="0" x2="300" y2="5" style="visibility: inherit;" fill="rgb(0, 0, 0)" stroke="rgb(204, 204, 204)" stroke-width="1px"></line></g><g transform="translate(0, 8)"><text x="0" y="0" dx="0em" dy="0.95em" style="text-anchor: middle; visibility: hidden; font-family: Roboto, sans-serif; font-size: 12px; font-weight: 200;" fill="rgb(33, 33, 33)" stroke="none" stroke-width="1px">-100k</text><text x="33.33333333333333" y="0" dx="0em" dy="0.95em" style="text-anchor: middle; visibility: inherit; font-family: Roboto, sans-serif; font-size: 12px; font-weight: 200;" fill="rgb(33, 33, 33)" stroke="none" stroke-width="1px">0</text><text x="66.66666666666666" y="0" dx="0em" dy="0.95em" style="text-anchor: middle; visibility: inherit; font-family: Roboto, sans-serif; font-size: 12px; font-weight: 200;" fill="rgb(33, 33, 33)" stroke="none" stroke-width="1px">100k</text><text x="100" y="0" dx="0em" dy="0.95em" style="text-anchor: middle; visibility: inherit; font-family: Roboto, sans-serif; font-size: 12px; font-weight: 200;" fill="rgb(33, 33, 33)" stroke="none" stroke-width="1px">200k</text><text x="133.33333333333331" y="0" dx="0em" dy="0.95em" style="text-anchor: middle; visibility: inherit; font-family: Roboto, sans-serif; font-size: 12px; font-weight: 200;" fill="rgb(33, 33, 33)" stroke="none" stroke-width="1px">300k</text><text x="166.66666666666669" y="0" dx="0em" dy="0.95em" style="text-anchor: middle; visibility: inherit; font-family: Roboto, sans-serif; font-size: 12px; font-weight: 200;" fill="rgb(33, 33, 33)" stroke="none" stroke-width="1px">400k</text><text x="200" y="0" dx="0em" dy="0.95em" style="text-anchor: middle; visibility: inherit; font-family: Roboto, sans-serif; font-size: 12px; font-weight: 200;" fill="rgb(33, 33, 33)" stroke="none" stroke-width="1px">500k</text><text x="233.33333333333334" y="0" dx="0em" dy="0.95em" style="text-anchor: middle; visibility: inherit; font-family: Roboto, sans-serif; font-size: 12px; font-weight: 200;" fill="rgb(33, 33, 33)" stroke="none" stroke-width="1px">600k</text><text x="266.66666666666663" y="0" dx="0em" dy="0.95em" style="text-anchor: middle; visibility: inherit; font-family: Roboto, sans-serif; font-size: 12px; font-weight: 200;" fill="rgb(33, 33, 33)" stroke="none" stroke-width="1px">700k</text><text x="300" y="0" dx="0em" dy="0.95em" style="text-anchor: middle; visibility: hidden; font-family: Roboto, sans-serif; font-size: 12px; font-weight: 200;" fill="rgb(33, 33, 33)" stroke="none" stroke-width="1px">800k</text></g><line x1="0" y1="0" x2="300" y2="0" fill="rgb(0, 0, 0)" stroke="rgb(204, 204, 204)" stroke-width="1px"></line></g></g></g></g></svg>